<svg xmlns="http://www.w3.org/2000/svg" xmlns:xlink="http://www.w3.org/1999/xlink" viewBox="0 0 727.64 420.95"><defs><clipPath id="a"><path d="M205.61,107.33l0,8.12a2.24,2.24,0,0,1-1.31,1.82,6.93,6.93,0,0,1-6.33,0,2.24,2.24,0,0,1-1.33-1.84l0-8.12a2.25,2.25,0,0,0,1.32,1.85,7,7,0,0,0,6.34,0A2.25,2.25,0,0,0,205.61,107.33Z" style="fill:none"/></clipPath><clipPath id="b"><path d="M202.19,50.6,202,107.43a.49.49,0,0,1-.29.4,1.53,1.53,0,0,1-1.41,0,.5.5,0,0,1-.29-.41l.16-56.82a.51.51,0,0,0,.3.41,1.54,1.54,0,0,0,1.4,0A.5.5,0,0,0,202.19,50.6Z" style="fill:none"/></clipPath><clipPath id="c"><path d="M531.81,295.09l0,8.12a2.22,2.22,0,0,1-1.3,1.82,7,7,0,0,1-6.34,0,2.25,2.25,0,0,1-1.32-1.85l0-8.12a2.25,2.25,0,0,0,1.32,1.85,7,7,0,0,0,6.34,0A2.2,2.2,0,0,0,531.81,295.09Z" style="fill:none"/></clipPath><clipPath id="d"><path d="M528.39,238.36l-.16,56.83a.49.49,0,0,1-.28.4,1.56,1.56,0,0,1-1.41,0,.49.49,0,0,1-.3-.41l.16-56.83a.49.49,0,0,0,.3.41,1.53,1.53,0,0,0,1.41,0A.47.47,0,0,0,528.39,238.36Z" style="fill:none"/></clipPath><clipPath id="e"><path d="M350.56,191.52l0,8.11a2.25,2.25,0,0,1-1.3,1.83,7,7,0,0,1-6.34,0,2.23,2.23,0,0,1-1.32-1.85l0-8.12a2.25,2.25,0,0,0,1.32,1.85,7,7,0,0,0,6.34,0A2.2,2.2,0,0,0,350.56,191.52Z" style="fill:none"/></clipPath><clipPath id="f"><path d="M347.14,134.79,347,191.61a.48.48,0,0,1-.29.41,1.54,1.54,0,0,1-1.4,0,.51.51,0,0,1-.3-.41l.16-56.83a.49.49,0,0,0,.3.41,1.54,1.54,0,0,0,1.4,0A.48.48,0,0,0,347.14,134.79Z" style="fill:none"/></clipPath></defs><polygon points="727.63 291.24 504.43 420.95 0 129.71 223.2 0 727.63 291.24" style="fill:#6f5f6a"/><path d="M460.54,316.73a.43.43,0,0,1,0,.82,1.59,1.59,0,0,1-1.41,0,.43.43,0,0,1,0-.82A1.53,1.53,0,0,1,460.54,316.73Z" style="fill:#dcdcdc"/><polygon points="359.96 274.63 359.95 275.21 357.34 275.21 333.7 275.21 332.49 275.21 332.49 274.63 332.69 274.63 358.33 274.63 359.96 274.63" style="fill:#a6be66"/><g style="isolation:isolate"><polygon points="389.32 236.69 389.32 237.28 389.12 237.28 355.02 237.28 354.46 237.28 354.46 236.69 356.02 236.69 388.11 236.69 389.32 236.69" style="fill:#a6be66"/><polygon points="402.03 244.04 402.04 244.62 401.83 244.62 342.38 244.62 341.83 244.62 341.82 244.04 343.38 244.04 400.83 244.04 402.03 244.04" style="fill:#a6be66"/><polygon points="372.01 227.4 373.42 226.59 407.32 246.16 405.92 246.98 401.83 244.62 402.04 244.62 402.03 244.04 400.83 244.04 389.12 237.28 389.32 237.28 389.32 236.69 388.11 236.69 372.01 227.4" style="fill:#a6be66"/><polygon points="398.55 251.79 398.56 252.37 396.65 252.37 329.05 252.37 327.78 252.37 327.79 251.79 330.04 251.79 397.64 251.79 398.55 251.79" style="fill:#a6be66"/><polygon points="385.93 259.54 385.92 260.12 383.31 260.12 315.71 260.12 314.8 260.12 314.81 259.54 316.71 259.54 384.31 259.54 385.93 259.54" style="fill:#a6be66"/><polygon points="373.42 226.59 372.01 227.4 356.02 236.69 354.46 236.69 354.46 237.28 355.02 237.28 343.38 244.04 341.82 244.04 341.83 244.62 342.38 244.62 330.04 251.79 327.79 251.79 327.78 252.37 329.05 252.37 316.71 259.54 314.81 259.54 314.8 260.12 315.71 260.12 311.65 262.48 310.58 261.87 309.18 262.68 310.24 263.3 308.83 262.48 370.6 226.59 372 225.77 373.42 226.59" style="fill:#a6be66"/><polygon points="407.34 247.8 408.74 246.98 443.36 266.97 441.95 267.78 407.34 247.8" style="fill:#a6be66"/><polygon points="372.59 267.29 372.59 267.87 369.98 267.87 320.98 267.87 319.78 267.87 319.77 267.29 319.98 267.29 370.97 267.29 372.59 267.29" style="fill:#a6be66"/><path d="M388.44,275.1a.43.43,0,0,1,0,.82,1.59,1.59,0,0,1-1.41,0,.44.44,0,0,1,0-.82A1.55,1.55,0,0,1,388.44,275.1Z" style="fill:#dcdcdc"/><polygon points="387.06 280.81 385.65 281.63 381.31 279.12 382.6 278.23 387.06 280.81" style="fill:#dcdcdc"/><path d="M370.86,279.59a10.89,10.89,0,0,1,7.16-1l-1.46,1,.76.44,5.34,3.08a3.9,3.9,0,0,1-1.91,2.15,10.91,10.91,0,0,1-9.86,0C368.17,283.73,368.15,281.16,370.86,279.59Z" style="fill:#6793c2"/><path d="M370.89,285.3a10.91,10.91,0,0,0,9.86,0,3.9,3.9,0,0,0,1.91-2.15l.35.2-3.22,4.39a15.77,15.77,0,0,1-11-1.21c-3.89-2.25-3.91-5.92,0-8.17a15.72,15.72,0,0,1,11.31-1.13l-2,1.39a10.89,10.89,0,0,0-7.16,1C368.15,281.16,368.17,283.73,370.89,285.3Z" style="fill:#dcdcdc"/><path d="M402.9,279.39c2.53,1.46,2.54,3.84,0,5.3l-15.45,9a10.1,10.1,0,0,1-9.15,0l-15.55-9c-2.53-1.46-2.54-3.84,0-5.3l15.45-9a10.1,10.1,0,0,1,9.15,0ZM380,289l3.87,1.34,1-1-2.38-.82,3.63-5L380,280l1.29-.88,4.34,2.51,1.41-.82-4.46-2.58,2.61-1.8a2.86,2.86,0,0,0,.42.31,4.68,4.68,0,0,0,4.22,0,1.3,1.3,0,0,0,0-2.45,4.64,4.64,0,0,0-4.23,0,1.79,1.79,0,0,0-.74.73l-.12-.06-7.43,5.11-.76-.44,1.46-1,2-1.39a15.72,15.72,0,0,0-11.31,1.13c-3.87,2.25-3.85,5.92,0,8.17a15.77,15.77,0,0,0,11,1.21l3.22-4.39.74.43L380,289" style="fill:#6793c2"/><path d="M403.6,279c2.92,1.68,2.93,4.43,0,6.11l-15.44,9a11.69,11.69,0,0,1-10.56,0l-15.55-9c-2.92-1.68-2.93-4.43,0-6.11l15.44-9a11.69,11.69,0,0,1,10.56,0Zm-16.12,14.68,15.45-9c2.51-1.46,2.5-3.84,0-5.3l-15.55-9a10.1,10.1,0,0,0-9.15,0l-15.45,9c-2.51,1.46-2.5,3.84,0,5.3l15.55,9a10.1,10.1,0,0,0,9.15,0" style="fill:#dcdcdc"/><path d="M389.84,274.29a1.3,1.3,0,0,1,0,2.45,4.68,4.68,0,0,1-4.22,0,2.86,2.86,0,0,1-.42-.31,1.14,1.14,0,0,1-.34-1.41,1.79,1.79,0,0,1,.74-.73A4.64,4.64,0,0,1,389.84,274.29ZM387,275.92a1.59,1.59,0,0,0,1.41,0,.43.43,0,0,0,0-.82,1.55,1.55,0,0,0-1.42,0,.44.44,0,0,0,0,.82" style="fill:#dcdcdc"/><polygon points="345.91 282.26 344.51 283.08 344.15 282.87 310.24 263.3 309.18 262.68 310.58 261.87 311.65 262.48 319.98 267.29 319.77 267.29 319.78 267.87 320.98 267.87 332.69 274.63 332.49 274.63 332.49 275.21 333.7 275.21 345.56 282.06 345.91 282.26" style="fill:#a6be66"/><polygon points="408.74 246.98 407.34 247.8 345.57 283.69 344.15 282.87 344.51 283.08 345.91 282.26 345.56 282.06 357.34 275.21 359.95 275.21 359.96 274.63 358.33 274.63 369.98 267.87 372.59 267.87 372.59 267.29 370.97 267.29 383.31 260.12 385.92 260.12 385.93 259.54 384.31 259.54 396.65 252.37 398.56 252.37 398.55 251.79 397.64 251.79 405.92 246.98 407.32 246.16 408.74 246.98" style="fill:#a6be66"/><polygon points="443.37 268.6 444.77 267.78 479.39 287.77 477.99 288.58 443.37 268.6" style="fill:#a6be66"/><path d="M384.87,275a1.14,1.14,0,0,0,.34,1.41l-2.61,1.8-1.29.89L380,280l6.09,3.52-3.63,5,2.38.82-1,1L380,289l3.79-5.17-.74-.43-.35-.2-5.34-3.08,7.43-5.11Z" style="fill:#dcdcdc"/><path d="M424.51,295.92a.44.44,0,0,1,0,.83,1.56,1.56,0,0,1-1.41,0,.43.43,0,0,1,0-.81A1.58,1.58,0,0,1,424.51,295.92Z" style="fill:#dcdcdc"/><path d="M425.91,295.11a1.29,1.29,0,0,1,0,2.45,4.68,4.68,0,0,1-4.22,0,1.89,1.89,0,0,1-.41-.3,1.15,1.15,0,0,1-.35-1.42,1.85,1.85,0,0,1,.74-.73A4.7,4.7,0,0,1,425.91,295.11Zm-2.81,1.63a1.56,1.56,0,0,0,1.41,0,.44.44,0,0,0,0-.83,1.58,1.58,0,0,0-1.42,0,.43.43,0,0,0,0,.81" style="fill:#dcdcdc"/><polygon points="423.13 301.64 421.72 302.45 417.38 299.95 418.67 299.06 423.13 301.64" style="fill:#dcdcdc"/><polygon points="444.77 267.78 443.37 268.6 381.6 304.49 380.19 303.68 441.95 267.78 443.36 266.97 444.77 267.78" style="fill:#a6be66"/><path d="M406.93,300.41a10.83,10.83,0,0,1,7.16-1l-1.46,1,.76.44,5.34,3.09a3.88,3.88,0,0,1-1.91,2.14,10.85,10.85,0,0,1-9.86,0C404.24,304.55,404.22,302,406.93,300.41Z" style="fill:#6793c2"/><polygon points="479.4 289.4 480.8 288.58 514.71 308.16 513.31 308.98 479.4 289.4" style="fill:#a6be66"/><path d="M407,306.12a10.85,10.85,0,0,0,9.86,0,3.88,3.88,0,0,0,1.91-2.14l.35.2-3.22,4.38a15.72,15.72,0,0,1-11-1.21c-3.89-2.25-3.91-5.91,0-8.16a15.67,15.67,0,0,1,11.31-1.13l-.22.14-1.81,1.25a10.83,10.83,0,0,0-7.16,1C404.22,302,404.24,304.55,407,306.12Z" style="fill:#dcdcdc"/><path d="M420.94,295.84a1.15,1.15,0,0,0,.35,1.42l-2.62,1.8-1.29.89-1.29.88,6.09,3.52-3.64,4.95,2.38.82-1,1L416,309.77l3.79-5.16-.74-.43-.35-.2-5.34-3.09,7.43-5.11Z" style="fill:#dcdcdc"/><path d="M439.67,299.8c2.92,1.69,2.93,4.44,0,6.12l-15.44,9a11.69,11.69,0,0,1-10.56,0l-15.55-9c-2.91-1.68-2.93-4.43,0-6.12l15.45-9a11.61,11.61,0,0,1,10.55,0Zm-16.12,14.69,15.45-9c2.51-1.46,2.5-3.84,0-5.3l-15.55-9a10,10,0,0,0-9.15,0l-15.44,9c-2.52,1.46-2.51,3.84,0,5.3l15.54,9a10.1,10.1,0,0,0,9.15,0" style="fill:#dcdcdc"/><path d="M461.94,315.91a1.3,1.3,0,0,1,0,2.45,4.65,4.65,0,0,1-4.22,0l-.15-.09a1.37,1.37,0,0,1-.72-1.31,1.59,1.59,0,0,1,.86-1A4.65,4.65,0,0,1,461.94,315.91Zm-2.81,1.64a1.59,1.59,0,0,0,1.41,0,.43.43,0,0,0,0-.82,1.53,1.53,0,0,0-1.41,0,.43.43,0,0,0,0,.82" style="fill:#dcdcdc"/><polygon points="532.38 319.29 532.38 319.87 532.18 319.87 497.37 319.87 496.47 319.87 496.46 319.3 498.37 319.3 531.18 319.29 532.38 319.29" style="fill:#a6be66"/><polygon points="459.87 322.85 458.46 323.67 453.72 320.93 455.01 320.04 459.87 322.85" style="fill:#dcdcdc"/><polygon points="480.8 288.58 479.4 289.4 417.63 325.3 416.22 324.48 477.99 288.58 479.39 287.77 480.8 288.58" style="fill:#a6be66"/><polygon points="545.1 326.64 545.1 327.22 544.9 327.22 484.74 327.22 483.13 327.22 483.13 326.64 485.73 326.64 543.89 326.64 545.1 326.64" style="fill:#a6be66"/><path d="M443,321.21a11,11,0,0,1,7.59-.87L449,321.43l.76.44,5,2.91a3.92,3.92,0,0,1-1.92,2.15,10.91,10.91,0,0,1-9.86,0C440.26,325.35,440.25,322.79,443,321.21Z" style="fill:#6793c2"/><polygon points="516.12 308.98 550.75 328.97 549.34 329.78 544.9 327.21 545.1 327.21 545.1 326.63 543.89 326.63 532.18 319.87 532.38 319.87 532.38 319.29 531.18 319.29 514.72 309.79 516.12 308.98" style="fill:#a6be66"/><path d="M443,326.93a10.91,10.91,0,0,0,9.86,0,3.92,3.92,0,0,0,1.92-2.15l.65.38-3,4a15.76,15.76,0,0,1-11.56-1.06c-3.9-2.25-3.91-5.91,0-8.16a15.77,15.77,0,0,1,11.7-1l-.34.24-1.65,1.13a11,11,0,0,0-7.59.87C440.25,322.79,440.26,325.35,443,326.93Z" style="fill:#dcdcdc"/><path d="M456.86,317a1.37,1.37,0,0,0,.72,1.31L455,320l-1.29.89-1.29.88,6.09,3.51-3.64,5,2.38.82-1,1-3.87-1.34,3.79-5.16-.74-.43-.65-.38-5-2.91Z" style="fill:#dcdcdc"/><polygon points="541.62 334.39 541.63 334.96 540.42 334.96 471.4 334.97 469.8 334.97 469.8 334.39 472.4 334.39 541.41 334.39 541.62 334.39" style="fill:#a6be66"/><path d="M475,321c2.53,1.47,2.55,3.85,0,5.31l-15.44,9a10.13,10.13,0,0,1-9.16,0l-15.54-9c-2.53-1.46-2.55-3.84,0-5.3l15.44-9a10.13,10.13,0,0,1,9.16,0Zm-22.63,9.74,3.87,1.34,1-1-2.38-.82,3.64-5-6.09-3.51,1.29-.88,4.74,2.74,1.41-.82L455,320l2.57-1.77.15.09a4.65,4.65,0,0,0,4.22,0,1.3,1.3,0,0,0,0-2.45,4.65,4.65,0,0,0-4.22,0,1.59,1.59,0,0,0-.86,1l-7.13,4.91-.76-.44,1.58-1.09,2-1.37a15.77,15.77,0,0,0-11.7,1c-3.87,2.25-3.86,5.91,0,8.16a15.76,15.76,0,0,0,11.56,1.06l3-4,.74.43-3.79,5.16" style="fill:#6793c2"/><path d="M475.7,320.6c2.92,1.69,2.94,4.44,0,6.12l-15.45,9a11.69,11.69,0,0,1-10.56,0l-15.54-9c-2.93-1.68-2.94-4.43,0-6.11l15.45-9a11.66,11.66,0,0,1,10.56,0Zm-16.11,14.69,15.44-9c2.52-1.46,2.5-3.84,0-5.31l-15.54-9a10.13,10.13,0,0,0-9.16,0l-15.44,9c-2.52,1.46-2.5,3.84,0,5.3l15.54,9a10.13,10.13,0,0,0,9.16,0" style="fill:#dcdcdc"/><polygon points="528.99 342.14 528.99 342.71 527.09 342.71 458.07 342.71 457.87 342.71 457.87 342.14 459.06 342.14 528.08 342.14 528.99 342.14" style="fill:#a6be66"/><polygon points="516.12 308.98 514.72 309.79 498.37 319.3 496.46 319.3 496.47 319.87 497.37 319.87 485.73 326.64 483.13 326.64 483.13 327.22 484.74 327.22 472.4 334.39 469.8 334.39 469.8 334.97 471.4 334.97 459.06 342.14 457.87 342.14 457.87 342.71 458.07 342.71 454.36 344.87 453.65 344.47 452.25 345.28 452.95 345.69 451.54 344.87 513.31 308.98 514.71 308.16 516.12 308.98" style="fill:#a6be66"/><polygon points="515.66 349.89 515.65 350.46 513.75 350.46 464.05 350.47 462.84 350.47 462.84 349.89 463.04 349.89 514.74 349.89 515.66 349.89" style="fill:#a6be66"/><polygon points="503.02 357.23 503.02 357.81 501.12 357.81 476.76 357.81 475.56 357.81 475.56 357.23 475.76 357.23 502.11 357.23 503.02 357.23" style="fill:#a6be66"/><polygon points="488.98 364.86 487.57 365.68 452.95 345.69 452.25 345.28 453.65 344.47 454.36 344.87 463.04 349.89 462.84 349.89 462.84 350.47 464.05 350.47 475.76 357.23 475.56 357.23 475.56 357.81 476.76 357.81 488.98 364.86" style="fill:#a6be66"/><polygon points="552.16 329.78 488.99 366.49 487.57 365.68 488.98 364.86 501.12 357.81 503.02 357.81 503.02 357.23 502.11 357.23 513.75 350.46 515.65 350.46 515.66 349.89 514.74 349.89 527.09 342.71 528.99 342.71 528.99 342.14 528.08 342.14 540.42 334.96 541.63 334.96 541.62 334.39 541.41 334.39 549.34 329.78 550.75 328.97 552.16 329.78" style="fill:#a6be66"/></g><polygon points="335.98 206.6 337.38 205.78 372 225.77 370.6 226.59 335.98 206.6" style="fill:#a6be66"/><polygon points="300.66 186.2 302.06 185.39 335.97 204.97 334.57 205.78 300.66 186.2" style="fill:#a6be66"/><g style="isolation:isolate"><polygon points="228.59 144.6 229.99 143.78 264.62 163.77 263.21 164.59 228.59 144.6" style="fill:#a6be66"/><polygon points="229.99 143.78 228.59 144.6 166.82 180.49 165.41 179.68 227.18 143.78 228.58 142.97 229.99 143.78" style="fill:#a6be66"/><polygon points="266.03 164.59 264.63 165.4 202.86 201.3 201.44 200.48 263.21 164.59 264.62 163.77 266.03 164.59" style="fill:#a6be66"/></g><g style="isolation:isolate"><polygon points="264.63 165.4 266.03 164.59 300.65 184.57 299.25 185.39 264.63 165.4" style="fill:#a6be66"/><polygon points="302.06 185.39 300.66 186.2 238.89 222.1 237.48 221.28 299.25 185.39 300.65 184.57 302.06 185.39" style="fill:#a6be66"/></g><polygon points="193.27 124.2 194.67 123.39 228.58 142.97 227.18 143.78 193.27 124.2" style="fill:#a6be66"/><polygon points="158.64 102.58 157.24 103.4 95.47 139.3 94.06 138.48 157.23 101.77 158.64 102.58" style="fill:#a6be66"/><polygon points="194.67 123.39 193.27 124.2 131.5 160.1 130.09 159.28 191.86 123.39 193.26 122.57 194.67 123.39" style="fill:#a6be66"/><polygon points="157.24 103.4 158.64 102.58 193.26 122.57 191.86 123.39 157.24 103.4" style="fill:#a6be66"/><polygon points="337.38 205.78 335.98 206.6 274.21 242.49 272.8 241.68 334.57 205.78 335.97 204.97 337.38 205.78" style="fill:#a6be66"/><path d="M439,300.21c2.53,1.46,2.54,3.84,0,5.3l-15.45,9a10.1,10.1,0,0,1-9.15,0l-15.54-9c-2.54-1.46-2.55-3.84,0-5.3l15.44-9a10,10,0,0,1,9.15,0ZM416,309.77l3.87,1.34,1-1-2.38-.82,3.64-4.95-6.09-3.52,1.29-.88,4.34,2.5,1.41-.81-4.46-2.58,2.62-1.8a1.89,1.89,0,0,0,.41.3,4.68,4.68,0,0,0,4.22,0,1.29,1.29,0,0,0,0-2.45,4.7,4.7,0,0,0-4.23,0,1.85,1.85,0,0,0-.74.73l-.12-.06-7.43,5.11-.76-.44,1.46-1,2-1.39a15.67,15.67,0,0,0-11.31,1.13c-3.87,2.25-3.85,5.91,0,8.16a15.72,15.72,0,0,0,11,1.21l3.22-4.38.74.43L416,309.77" style="fill:#6793c2"/><g style="isolation:isolate"><polygon points="240.06 55.27 178.29 91.16 176.89 91.98 175.48 91.16 176.88 90.35 238.65 54.45 240.06 55.27" style="fill:#a6be66"/><polygon points="276.09 76.07 214.33 111.97 212.92 112.78 211.51 111.97 212.91 111.15 274.68 75.26 276.09 76.07" style="fill:#a6be66"/><polygon points="311.42 96.46 249.65 132.36 248.24 133.18 246.83 132.36 248.24 131.54 310 95.65 311.42 96.46" style="fill:#a6be66"/><polygon points="347.45 117.27 285.68 153.16 284.28 153.98 282.87 153.16 284.27 152.35 346.04 116.45 347.45 117.27" style="fill:#a6be66"/><polygon points="383.48 138.07 321.71 173.97 320.31 174.78 318.9 173.97 320.3 173.15 382.07 137.26 383.48 138.07" style="fill:#a6be66"/><polygon points="418.8 158.46 357.03 194.36 355.63 195.18 354.22 194.36 355.62 193.55 417.39 157.65 418.8 158.46" style="fill:#a6be66"/><polygon points="454.84 179.27 393.07 215.16 391.67 215.98 390.25 215.16 391.66 214.35 453.43 178.45 454.84 179.27" style="fill:#a6be66"/><polygon points="490.16 199.66 428.39 235.56 426.99 236.38 425.57 235.56 426.98 234.74 488.75 198.85 490.16 199.66" style="fill:#a6be66"/><polygon points="526.19 220.47 464.42 256.36 463.02 257.18 461.61 256.36 463.01 255.55 524.78 219.65 526.19 220.47" style="fill:#a6be66"/><polygon points="562.22 241.27 500.45 277.16 499.05 277.98 497.64 277.16 499.04 276.35 560.81 240.45 562.22 241.27" style="fill:#a6be66"/><polygon points="570.4 317.55 569 318.36 175.48 91.16 176.88 90.35 175.48 91.16 176.89 91.98 178.29 91.16 212.91 111.15 211.51 111.97 212.92 112.78 214.33 111.97 248.24 131.54 246.83 132.36 248.24 133.18 249.65 132.36 284.27 152.35 282.87 153.16 284.28 153.98 285.68 153.16 320.3 173.15 318.9 173.97 320.31 174.78 321.71 173.97 355.62 193.55 354.22 194.36 355.63 195.18 357.03 194.36 391.66 214.35 390.25 215.16 391.67 215.98 393.07 215.16 426.98 234.74 425.57 235.56 426.99 236.38 428.39 235.56 463.01 255.55 461.61 256.36 463.02 257.18 464.42 256.36 499.04 276.35 497.64 277.16 499.05 277.98 500.45 277.16 534.36 296.74 532.96 297.56 534.37 298.37 535.78 297.56 570.4 317.55" style="fill:#a6be66"/></g><polygon points="597.54 261.66 535.78 297.56 534.37 298.37 532.96 297.56 534.36 296.74 596.13 260.85 597.54 261.66" style="fill:#a6be66"/><polygon points="633.58 282.46 570.41 319.18 569.7 318.77 569 318.36 570.4 317.55 632.17 281.65 633.58 282.46" style="fill:#a6be66"/><g style="isolation:isolate"><polygon points="569.21 319.13 555.17 327.29 160.42 99.38 174.46 91.22 569.21 319.13" style="fill:#c5cfd3"/><polygon points="569.21 319.13 569.21 321.56 555.16 329.73 555.17 327.29 569.21 319.13" style="fill:#9cb3b7"/><polygon points="555.17 327.29 555.16 329.73 160.41 101.82 160.42 99.38 555.17 327.29" style="fill:#737b7f"/></g><g style="opacity:0.4"><path d="M198,108.81c2.54,1.47,4.59,4.48,4.59,6.72s-2.07,2.87-4.61,1.4-4.59-4.47-4.58-6.7S195.48,107.35,198,108.81Z" style="fill:#242424"/></g><g style="isolation:isolate"><g style="isolation:isolate"><g style="clip-path:url(#a)"><g style="isolation:isolate"><path d="M205.61,107.33l0,8.12v0l0-8.12v0" style="fill:#6f797e"/><path d="M205.61,107.37l0,8.12,0,.26,0-8.12a1.15,1.15,0,0,0,0-.26" style="fill:#737d83"/><path d="M205.58,107.63l0,8.12a2.41,2.41,0,0,1-.08.25l0-8.12a2.33,2.33,0,0,0,.07-.25" style="fill:#778187"/><path d="M205.51,107.88l0,8.12a1.51,1.51,0,0,1-.12.26l0-8.12.12-.26" style="fill:#7b858c"/><path d="M205.39,108.14l0,8.12a1.51,1.51,0,0,1-.18.26l0-8.12a1.51,1.51,0,0,0,.18-.26" style="fill:#7f8990"/><path d="M205.21,108.4l0,8.12a2.52,2.52,0,0,1-.27.3l0-8.12a2,2,0,0,0,.28-.3" style="fill:#838d94"/><path d="M204.93,108.7l0,8.12a3.66,3.66,0,0,1-.57.42l0-8.12a3.24,3.24,0,0,0,.57-.42" style="fill:#869299"/><path d="M204.36,109.12l0,8.12-.06,0a4.86,4.86,0,0,1-1,.44l0-8.12a5.81,5.81,0,0,0,1-.43l.05,0" style="fill:#8a969d"/><path d="M203.33,109.59l0,8.12c-.27.08-.55.15-.85.21l0-8.12a6.21,6.21,0,0,0,.85-.21" style="fill:#869299"/><path d="M202.48,109.8l0,8.12-.57.08,0-8.12.57-.08" style="fill:#838d94"/><path d="M201.91,109.88l0,8.12-.49,0,0-8.12.5,0" style="fill:#7f8990"/><path d="M201.41,109.91l0,8.12h-.46l0-8.12a3.53,3.53,0,0,0,.46,0" style="fill:#7b858c"/><path d="M201,109.91l0,8.12-.45,0,0-8.12.44,0" style="fill:#778187"/><path d="M200.51,109.89l0,8.12-.43-.05,0-8.12.44,0" style="fill:#737d83"/><path d="M200.07,109.84l0,8.12-.45-.08,0-8.12.44.08" style="fill:#6f797e"/><path d="M199.63,109.76l0,8.12-.46-.11,0-8.12.47.11" style="fill:#6c747a"/><path d="M199.16,109.65l0,8.12-.55-.19,0-8.11c.17.06.35.13.54.18" style="fill:#687076"/><path d="M198.62,109.47l0,8.11a4.21,4.21,0,0,1-.64-.31,2.24,2.24,0,0,1-1.33-1.84l0-8.12a2.25,2.25,0,0,0,1.32,1.85,5.59,5.59,0,0,0,.65.31" style="fill:#646c71"/></g></g></g><ellipse cx="201.13" cy="107.32" rx="2.6" ry="4.48" transform="translate(93.24 308.14) rotate(-89.84)" style="fill:#d3e4ea"/></g><g style="isolation:isolate"><ellipse cx="201.2" cy="50.6" rx="0.58" ry="0.99" transform="matrix(0, -1, 1, 0, 150.03, 251.65)" style="fill:#dcdcdc"/><g style="isolation:isolate"><g style="clip-path:url(#b)"><g style="isolation:isolate"><polyline points="202.19 50.6 202.03 107.43 202.03 107.44 202.19 50.61 202.19 50.6" style="fill:#949494"/><path d="M202.19,50.61,202,107.44a.13.13,0,0,1,0,.06l.16-56.83a.13.13,0,0,0,0-.06" style="fill:#999"/><path d="M202.18,50.67,202,107.5s0,0,0,0l.16-56.82s0,0,0-.06" style="fill:#9e9e9e"/><path d="M202.17,50.73,202,107.55l0,.06.16-56.83,0-.05" style="fill:#a3a3a3"/><path d="M202.14,50.78,202,107.61l0,.06.16-56.83a.21.21,0,0,0,0-.06" style="fill:#a8a8a8"/><path d="M202.1,50.84l-.16,56.83-.06.07L202,50.91l.06-.07" style="fill:#adadad"/><path d="M202,50.91l-.16,56.83-.13.09L201.91,51l.13-.09" style="fill:#b3b3b3"/><path d="M201.91,51l-.16,56.83h0a.88.88,0,0,1-.22.1l.16-56.83a.73.73,0,0,0,.22-.09h0" style="fill:#b8b8b8"/><path d="M201.68,51.1l-.16,56.83-.19,0,.17-56.83.18,0" style="fill:#b3b3b3"/><path d="M201.5,51.15,201.33,108l-.12,0,.16-56.83.13,0" style="fill:#adadad"/><path d="M201.37,51.17,201.21,108h-.11l.16-56.82h.11" style="fill:#a8a8a8"/><path d="M201.26,51.18,201.1,108H201l.16-56.82h.1" style="fill:#a3a3a3"/><path d="M201.16,51.18,201,108h-.1l.16-56.83h.1" style="fill:#9e9e9e"/><path d="M201.06,51.17,200.9,108h-.1L201,51.16h.1" style="fill:#999"/><path d="M201,51.16,200.8,108l-.1,0,.17-56.83.09,0" style="fill:#949494"/><path d="M200.87,51.14,200.7,108l-.1,0,.16-56.82.11,0" style="fill:#8f8f8f"/><path d="M200.76,51.12l-.16,56.82-.12,0,.16-56.82.12,0" style="fill:#8a8a8a"/><path d="M200.64,51.08l-.16,56.82-.15-.07a.5.5,0,0,1-.29-.41l.16-56.82a.51.51,0,0,0,.3.41l.14.07" style="fill:#858585"/></g></g></g></g><g style="isolation:isolate"><polygon points="214.17 43.41 214.18 45.03 190.86 58.49 190.85 56.87 214.17 43.41" style="fill:#94a1a9"/><polygon points="190.86 58.49 188.05 56.86 188.05 55.24 190.85 56.87 190.86 58.49" style="fill:#676f75"/><polygon points="190.85 56.87 188.05 55.24 211.36 41.78 214.17 43.41 190.85 56.87" style="fill:#a5b3bc"/></g><g style="opacity:0.4"><path d="M524.22,296.57c2.53,1.47,4.58,4.47,4.58,6.71s-2.07,2.87-4.61,1.41-4.58-4.46-4.58-6.71S521.68,295.11,524.22,296.57Z" style="fill:#242424"/></g><g style="isolation:isolate"><g style="isolation:isolate"><g style="clip-path:url(#c)"><g style="isolation:isolate"><path d="M531.81,295.09l0,8.12v0l0-8.12v0" style="fill:#6f797e"/><path d="M531.81,295.13l0,8.12a1.07,1.07,0,0,1,0,.25l0-8.11a1.22,1.22,0,0,0,0-.26" style="fill:#737d83"/><path d="M531.78,295.39l0,8.11a2.5,2.5,0,0,1-.07.26l0-8.12a1.36,1.36,0,0,0,.07-.25" style="fill:#778187"/><path d="M531.71,295.64l0,8.12a1.42,1.42,0,0,1-.12.25l0-8.12a1.42,1.42,0,0,0,.12-.25" style="fill:#7b858c"/><path d="M531.59,295.89l0,8.12a2.11,2.11,0,0,1-.18.27l0-8.12a2.11,2.11,0,0,0,.18-.27" style="fill:#7f8990"/><path d="M531.41,296.16l0,8.12a3.84,3.84,0,0,1-.28.3l0-8.12a2.56,2.56,0,0,0,.28-.3" style="fill:#838d94"/><path d="M531.13,296.46l0,8.12a3.24,3.24,0,0,1-.57.42l0-8.12a3.56,3.56,0,0,0,.56-.42" style="fill:#869299"/><path d="M530.57,296.88l0,8.12,0,0a5.1,5.1,0,0,1-1,.43l0-8.12a5.1,5.1,0,0,0,1-.43l.06,0" style="fill:#8a969d"/><path d="M529.53,297.34l0,8.12a5.86,5.86,0,0,1-.85.21l0-8.12a5.86,5.86,0,0,0,.85-.21" style="fill:#869299"/><path d="M528.68,297.55l0,8.12a5.58,5.58,0,0,1-.57.08l0-8.12a5.58,5.58,0,0,0,.57-.08" style="fill:#838d94"/><path d="M528.11,297.63l0,8.12a4.19,4.19,0,0,1-.5,0l0-8.11.5,0" style="fill:#7f8990"/><path d="M527.61,297.67l0,8.11h-.46l0-8.12h.46" style="fill:#7b858c"/><path d="M527.15,297.67l0,8.12-.44,0,0-8.11.44,0" style="fill:#778187"/><path d="M526.71,297.65l0,8.11a3.29,3.29,0,0,1-.44-.05l0-8.11.43,0" style="fill:#737d83"/><path d="M526.28,297.6l0,8.11-.44-.07,0-8.12.45.08" style="fill:#6f797e"/><path d="M525.83,297.52l0,8.12c-.16,0-.32-.07-.47-.12l0-8.12a4.05,4.05,0,0,0,.47.12" style="fill:#6c747a"/><path d="M525.36,297.4l0,8.12a4.27,4.27,0,0,1-.54-.18l0-8.12a4.88,4.88,0,0,0,.54.18" style="fill:#687076"/><path d="M524.82,297.22l0,8.12a4.33,4.33,0,0,1-.65-.31,2.25,2.25,0,0,1-1.32-1.85l0-8.12a2.25,2.25,0,0,0,1.32,1.85,4.85,4.85,0,0,0,.65.31" style="fill:#646c71"/></g></g></g><ellipse cx="527.33" cy="295.08" rx="2.6" ry="4.48" transform="translate(230.76 821.57) rotate(-89.84)" style="fill:#d3e4ea"/></g><g style="isolation:isolate"><ellipse cx="527.4" cy="238.36" rx="0.58" ry="0.99" transform="translate(287.55 765.08) rotate(-89.84)" style="fill:#dcdcdc"/><g style="isolation:isolate"><g style="clip-path:url(#d)"><g style="isolation:isolate"><polyline points="528.39 238.36 528.23 295.19 528.23 295.19 528.39 238.37 528.39 238.36" style="fill:#949494"/><path d="M528.39,238.37l-.16,56.82v.06l.16-56.82v-.06" style="fill:#999"/><path d="M528.39,238.43l-.16,56.82s0,0,0,.06l.16-56.83s0,0,0,0" style="fill:#9e9e9e"/><path d="M528.37,238.48l-.16,56.83,0,.06.17-56.83s0,0,0-.06" style="fill:#a3a3a3"/><path d="M528.35,238.54l-.17,56.83a.1.1,0,0,1,0,.05l.17-56.82,0-.06" style="fill:#a8a8a8"/><path d="M528.31,238.6l-.17,56.82a.13.13,0,0,1-.06.07l.16-56.83.07-.06" style="fill:#adadad"/><path d="M528.24,238.66l-.16,56.83-.12.09.16-56.82a.4.4,0,0,0,.12-.1" style="fill:#b3b3b3"/><path d="M528.12,238.76,528,295.58h0l-.22.1.16-56.83.22-.1h0" style="fill:#b8b8b8"/><path d="M527.89,238.86l-.16,56.83-.19,0,.16-56.82.19,0" style="fill:#b3b3b3"/><path d="M527.7,238.91l-.16,56.82-.13,0,.16-56.83h.13" style="fill:#adadad"/><path d="M527.57,238.92l-.16,56.83h-.11l.16-56.83h.11" style="fill:#a8a8a8"/><path d="M527.46,238.93l-.16,56.83h-.1l.16-56.83h.1" style="fill:#a3a3a3"/><path d="M527.36,238.93l-.16,56.83h-.1l.16-56.82h.1" style="fill:#9e9e9e"/><path d="M527.26,238.93l-.16,56.82H527l.16-56.82h.09" style="fill:#999"/><path d="M527.17,238.92,527,295.74h-.1l.16-56.83.1,0" style="fill:#949494"/><path d="M527.07,238.9l-.16,56.83-.11,0,.17-56.83.1,0" style="fill:#8f8f8f"/><path d="M527,238.87l-.17,56.83-.12,0,.16-56.83.13,0" style="fill:#8a8a8a"/><path d="M526.84,238.83l-.16,56.83-.14-.07a.49.49,0,0,1-.3-.41l.16-56.83a.49.49,0,0,0,.3.41l.14.07" style="fill:#858585"/></g></g></g></g><g style="isolation:isolate"><polygon points="540.38 231.16 540.38 232.79 517.06 246.25 517.06 244.63 540.38 231.16" style="fill:#94a1a9"/><polygon points="517.06 246.25 514.26 244.62 514.25 243 517.06 244.63 517.06 246.25" style="fill:#676f75"/><polygon points="517.06 244.63 514.25 243 537.57 229.53 540.38 231.16 517.06 244.63" style="fill:#a5b3bc"/></g><g style="opacity:0.4"><path d="M343,193c2.54,1.46,4.59,4.47,4.58,6.71s-2.06,2.87-4.6,1.41-4.58-4.47-4.58-6.71S340.43,191.53,343,193Z" style="fill:#242424"/></g><g style="isolation:isolate"><g style="isolation:isolate"><g style="clip-path:url(#e)"><g style="isolation:isolate"><path d="M350.56,191.52l0,8.11v0l0-8.11v0" style="fill:#6f797e"/><path d="M350.56,191.56l0,8.11,0,.26,0-8.12a1.07,1.07,0,0,0,0-.25" style="fill:#737d83"/><path d="M350.53,191.81l0,8.12a1.82,1.82,0,0,1-.07.25l0-8.11a2.5,2.5,0,0,0,.07-.26" style="fill:#778187"/><path d="M350.46,192.07l0,8.11-.12.26,0-8.12a1.42,1.42,0,0,0,.12-.25" style="fill:#7b858c"/><path d="M350.34,192.32l0,8.12-.18.27,0-8.12a2.11,2.11,0,0,0,.18-.27" style="fill:#7f8990"/><path d="M350.16,192.59l0,8.12a2.54,2.54,0,0,1-.28.29l0-8.11a2.56,2.56,0,0,0,.28-.3" style="fill:#838d94"/><path d="M349.88,192.89l0,8.11a3.24,3.24,0,0,1-.57.42l0-8.11a3.83,3.83,0,0,0,.57-.42" style="fill:#869299"/><path d="M349.31,193.31l0,8.11-.05,0a5.81,5.81,0,0,1-1,.43l0-8.12a5.1,5.1,0,0,0,1-.43l.05,0" style="fill:#8a969d"/><path d="M348.28,193.77l0,8.12a6.21,6.21,0,0,1-.85.21l0-8.12a5.86,5.86,0,0,0,.85-.21" style="fill:#869299"/><path d="M347.43,194l0,8.12-.58.08,0-8.12a5.58,5.58,0,0,0,.57-.08" style="fill:#838d94"/><path d="M346.86,194.06l0,8.12a4,4,0,0,1-.49,0l0-8.12a4.19,4.19,0,0,0,.5,0" style="fill:#7f8990"/><path d="M346.36,194.09l0,8.12h-.46l0-8.11h.46" style="fill:#7b858c"/><path d="M345.9,194.1l0,8.11-.44,0,0-8.12.44,0" style="fill:#778187"/><path d="M345.46,194.07l0,8.12-.44-.05,0-8.12.44,0" style="fill:#737d83"/><path d="M345,194l0,8.12-.44-.08,0-8.11.44.07" style="fill:#6f797e"/><path d="M344.58,194l0,8.11-.47-.11,0-8.12c.15,0,.31.08.47.12" style="fill:#6c747a"/><path d="M344.11,193.83l0,8.12a5.05,5.05,0,0,1-.55-.18l0-8.12a4.27,4.27,0,0,0,.54.18" style="fill:#687076"/><path d="M343.57,193.65l0,8.12a6.31,6.31,0,0,1-.64-.31,2.23,2.23,0,0,1-1.32-1.85l0-8.12a2.25,2.25,0,0,0,1.32,1.85,4.33,4.33,0,0,0,.65.31" style="fill:#646c71"/></g></g></g><ellipse cx="346.08" cy="191.5" rx="2.6" ry="4.48" transform="translate(153.6 537.04) rotate(-89.84)" style="fill:#d3e4ea"/></g><g style="isolation:isolate"><ellipse cx="346.15" cy="134.78" rx="0.58" ry="0.99" transform="translate(210.38 480.55) rotate(-89.84)" style="fill:#dcdcdc"/><g style="isolation:isolate"><g style="clip-path:url(#f)"><g style="isolation:isolate"><polyline points="347.14 134.79 346.98 191.61 346.98 191.62 347.14 134.79 347.14 134.79" style="fill:#949494"/><path d="M347.14,134.8,347,191.62a.13.13,0,0,1,0,.06l.17-56.83v0" style="fill:#999"/><path d="M347.14,134.85,347,191.68a.13.13,0,0,1,0,.06l.16-56.83,0-.06" style="fill:#9e9e9e"/><path d="M347.12,134.91,347,191.74l0,0,.16-56.82,0-.06" style="fill:#a3a3a3"/><path d="M347.09,135l-.16,56.82a.21.21,0,0,1,0,.06l.16-56.82,0-.06" style="fill:#a8a8a8"/><path d="M347.05,135l-.16,56.82-.06.07.16-56.83s.05,0,.06-.06" style="fill:#adadad"/><path d="M347,135.09l-.16,56.83-.12.09.16-56.83a.54.54,0,0,0,.12-.09" style="fill:#b3b3b3"/><path d="M346.87,135.18,346.71,192h0a.73.73,0,0,1-.22.09l.17-56.82a1.36,1.36,0,0,0,.21-.1h0" style="fill:#b8b8b8"/><path d="M346.64,135.29l-.17,56.82-.18,0,.16-56.83.19,0" style="fill:#b3b3b3"/><path d="M346.45,135.33l-.16,56.83-.13,0,.16-56.83.13,0" style="fill:#adadad"/><path d="M346.32,135.35l-.16,56.83h-.11l.16-56.83h.11" style="fill:#a8a8a8"/><path d="M346.21,135.36l-.16,56.83H346l.16-56.83h.1" style="fill:#a3a3a3"/><path d="M346.11,135.36,346,192.19h-.1l.16-56.83h.1" style="fill:#9e9e9e"/><path d="M346,135.35l-.16,56.83h-.09l.16-56.83H346" style="fill:#999"/><path d="M345.92,135.34l-.16,56.83-.1,0,.16-56.82h.1" style="fill:#949494"/><path d="M345.82,135.33l-.16,56.82-.11,0,.16-56.83.11,0" style="fill:#8f8f8f"/><path d="M345.71,135.3l-.16,56.83-.12,0,.16-56.83.12,0" style="fill:#8a8a8a"/><path d="M345.59,135.26l-.16,56.83-.14-.07a.51.51,0,0,1-.3-.41l.16-56.83a.49.49,0,0,0,.3.41l.14.07" style="fill:#858585"/></g></g></g></g><g style="isolation:isolate"><polygon points="359.12 127.59 359.13 129.21 335.81 142.68 335.81 141.05 359.12 127.59" style="fill:#94a1a9"/><polygon points="335.81 142.68 333 141.04 333 139.42 335.81 141.05 335.81 142.68" style="fill:#676f75"/><polygon points="335.81 141.05 333 139.42 356.32 125.96 359.12 127.59 335.81 141.05" style="fill:#a5b3bc"/></g></svg>