<svg xmlns="http://www.w3.org/2000/svg" xmlns:xlink="http://www.w3.org/1999/xlink" viewBox="0 0 275.8 99.61"><defs><clipPath id="a" transform="translate(0)"><path d="M24,1l.6.35C22-.19,18.49,0,14.59,2.27L14,1.92C17.89-.33,21.42-.54,24,1Z" style="fill:#ed4923"/></clipPath><clipPath id="b" transform="translate(0)"><path d="M4.69,35.5l-.6-.35C1.57,33.69,0,30.58,0,26.15,0,17.25,6.24,6.4,14,1.92l.6.35C6.84,6.75.57,17.59.6,26.5.61,30.92,2.17,34,4.69,35.5Z" style="fill:#ed4923"/></clipPath><clipPath id="c" transform="translate(0)"><path d="M14.07,31.16a7,7,0,0,0,3.17-5.49l.6.35a7,7,0,0,1-3.17,5.49Z" style="fill:none"/></clipPath><clipPath id="d" transform="translate(0)"><path d="M13.38,31.47a3.43,3.43,0,0,0,.69-.31l.6.35a4.1,4.1,0,0,1-.69.31Z" style="fill:none"/></clipPath><clipPath id="e" transform="translate(0)"><path d="M14.06,29.59a3.86,3.86,0,0,0,1.76-3l.6.34a3.86,3.86,0,0,1-1.76,3.05Z" style="fill:none"/></clipPath><clipPath id="f" transform="translate(0)"><path d="M14.34,28.52l-.6-.35a.32.32,0,0,0,.32,0,1,1,0,0,0,.45-.78l.6.35a1,1,0,0,1-.45.78A.32.32,0,0,1,14.34,28.52Z" style="fill:none"/></clipPath><clipPath id="g" transform="translate(0)"><path d="M12.81,29.71a1.23,1.23,0,0,0,1.25-.12l.6.35a1.23,1.23,0,0,1-1.25.12Z" style="fill:none"/></clipPath><clipPath id="h" transform="translate(0)"><path d="M15.82,26.55a1.25,1.25,0,0,0-.52-1.14l.6.35a1.23,1.23,0,0,1,.52,1.13Z" style="fill:none"/></clipPath><clipPath id="i" transform="translate(0)"><path d="M17.24,25.67a2.26,2.26,0,0,0-.93-2l.6.35a2.25,2.25,0,0,1,.93,2Z" style="fill:none"/></clipPath><clipPath id="j" transform="translate(0)"><path d="M11.81,31.38a1.87,1.87,0,0,0,1.57.09l.6.35a1.87,1.87,0,0,1-1.57-.09Z" style="fill:none"/></clipPath><clipPath id="k" transform="translate(0)"><path d="M14.34,28.52l-.6-.35a.3.3,0,0,1-.14-.29l.6.35A.31.31,0,0,0,14.34,28.52Z" style="fill:none"/></clipPath><clipPath id="l" transform="translate(0)"><path d="M15.1,25.7l-.6-.35a1,1,0,0,1,.8.06l.6.35A1,1,0,0,0,15.1,25.7Z" style="fill:none"/></clipPath><clipPath id="m" transform="translate(0)"><path d="M16.13,23.54V22.25l.6.34v1.3Z" style="fill:none"/></clipPath><clipPath id="n" transform="translate(0)"><path d="M16.12,22.25a2,2,0,0,1,.81.26l.6.34a2.14,2.14,0,0,0-.81-.26Z" style="fill:none"/></clipPath><clipPath id="o" transform="translate(0)"><path d="M15.3,25.41v-2l.6.35v2Z" style="fill:none"/></clipPath><clipPath id="p" transform="translate(0)"><path d="M16.13,23.54l.18.09.6.35-.18-.09a1.77,1.77,0,0,0-.84-.11l-.6-.35A1.77,1.77,0,0,1,16.13,23.54Z" style="fill:none"/></clipPath><clipPath id="q" transform="translate(0)"><path d="M13.41,30.06l-.6-.35a1.24,1.24,0,0,1-.52-1.13,3.63,3.63,0,0,1,.51-1.72,3.91,3.91,0,0,1,.8-1l.6.35a3.91,3.91,0,0,0-.8,1,3.63,3.63,0,0,0-.51,1.72A1.24,1.24,0,0,0,13.41,30.06Z" style="fill:none"/></clipPath><clipPath id="r" transform="translate(0)"><path d="M12,26a6.73,6.73,0,0,1,.83-1.08l.6.35a6.32,6.32,0,0,0-.83,1.08,6.62,6.62,0,0,0-1.09,3.39,2.2,2.2,0,0,0,.93,2l-.6-.35a2.21,2.21,0,0,1-.93-2A6.62,6.62,0,0,1,12,26Z" style="fill:none"/></clipPath><clipPath id="s" transform="translate(0)"><path d="M12.75,8.51A2.59,2.59,0,0,1,14,6.4l.6.35a2.57,2.57,0,0,0-1.24,2.11l.05,16.36v2l-.6-.35v-2Z" style="fill:none"/></clipPath><clipPath id="t" transform="translate(0)"><path d="M11.92,9A4.28,4.28,0,0,1,14,5.48l.6.35a4.28,4.28,0,0,0-2.07,3.51l0,15.66v1.3L12,26v-1.3Z" style="fill:none"/></clipPath><clipPath id="u" transform="translate(0)"><path d="M10,29.8a8.74,8.74,0,0,1,2-5.15l.6.35a8.74,8.74,0,0,0-2,5.14,2.85,2.85,0,0,0,1.18,2.61l-.6-.35A2.84,2.84,0,0,1,10,29.8Z" style="fill:none"/></clipPath><clipPath id="v" transform="translate(0)"><path d="M14.47,15.57a.32.32,0,0,0-.13-.29l.6.35a.3.3,0,0,1,.13.29Z" style="fill:none"/></clipPath><clipPath id="w" transform="translate(0)"><path d="M14.34,15.28l.6.35a.32.32,0,0,0-.32,0l-.6-.35A.32.32,0,0,1,14.34,15.28Z" style="fill:none"/></clipPath><clipPath id="x" transform="translate(0)"><path d="M14.17,16.44l-.6-.35a1,1,0,0,1,.45-.78l.6.35A1,1,0,0,0,14.17,16.44Z" style="fill:none"/></clipPath><clipPath id="y" transform="translate(0)"><path d="M15.25,9.5V7.07l.6.35V9.85l0,13.93-.6-.35Z" style="fill:none"/></clipPath><clipPath id="z" transform="translate(0)"><path d="M15.25,7.07a.82.82,0,0,0-.33-.78l.6.35a.82.82,0,0,1,.33.78Z" style="fill:none"/></clipPath><clipPath id="aa" transform="translate(0)"><path d="M14,6.4a1,1,0,0,1,.93-.11l.6.35a1,1,0,0,0-.93.11Z" style="fill:none"/></clipPath><clipPath id="ab" transform="translate(0)"><path d="M14,5.48a1.56,1.56,0,0,1,1.54-.19l.6.34a1.59,1.59,0,0,0-1.54.2Z" style="fill:none"/></clipPath></defs><g style="isolation:isolate"><path d="M24,1l.6.35C22-.19,18.49,0,14.59,2.27L14,1.92C17.89-.33,21.42-.54,24,1Z" transform="translate(0)" style="fill:#ed4923"/><g style="clip-path:url(#a)"><g style="isolation:isolate"><path d="M14.59,2.27,14,1.92a16.16,16.16,0,0,1,2-1l.6.35a16.16,16.16,0,0,0-2,1" transform="translate(0)" style="fill:#ed4923"/><path d="M16.55,1.3,16,1A11.56,11.56,0,0,1,17.6.38l.6.35a11.56,11.56,0,0,0-1.65.57" transform="translate(0)" style="fill:#ed4923"/><path d="M18.2.73,17.6.38A11.5,11.5,0,0,1,18.84.11l.6.35A9.51,9.51,0,0,0,18.2.73" transform="translate(0)" style="fill:#ed4923"/><path d="M19.44.46l-.6-.35a9.37,9.37,0,0,1,1-.1l.6.35a9.37,9.37,0,0,0-1,.1" transform="translate(0)" style="fill:#ed4923"/><path d="M20.48.36,19.88,0a7.18,7.18,0,0,1,.93,0l.6.35a7.18,7.18,0,0,0-.93,0" transform="translate(0)" style="fill:#ed4923"/><path d="M21.41.37,20.81,0a6,6,0,0,1,.85.1l.6.34a7.89,7.89,0,0,0-.85-.09" transform="translate(0)" style="fill:#ed4923"/><path d="M22.26.46l-.6-.34a5.32,5.32,0,0,1,.79.18l.6.35a7,7,0,0,0-.79-.19" transform="translate(0)" style="fill:#ed4923"/><path d="M23.05.65,22.45.3a6.49,6.49,0,0,1,.74.26l.6.35a6.49,6.49,0,0,0-.74-.26" transform="translate(0)" style="fill:#ed4923"/><path d="M23.79.91l-.6-.35a7.56,7.56,0,0,1,.7.34l.6.35a5.66,5.66,0,0,0-.7-.34" transform="translate(0)" style="fill:#ed4923"/><path d="M24.49,1.25,23.89.9,24,1l.6.35-.08-.05" transform="translate(0)" style="fill:#ed4923"/></g></g></g><g style="isolation:isolate"><path d="M4.69,35.5l-.6-.35C1.57,33.69,0,30.58,0,26.15,0,17.25,6.24,6.4,14,1.92l.6.35C6.84,6.75.57,17.59.6,26.5.61,30.92,2.17,34,4.69,35.5Z" transform="translate(0)" style="fill:#ed4923"/><g style="clip-path:url(#b)"><g style="isolation:isolate"><path d="M4.69,35.5l-.6-.35C1.57,33.69,0,30.58,0,26.15a21.36,21.36,0,0,1,.18-2.74l.6.34A21.51,21.51,0,0,0,.6,26.5c0,4.42,1.57,7.54,4.09,9" transform="translate(0)" style="fill:#ed4923"/><path d="M.78,23.75l-.6-.34c.08-.65.2-1.3.33-1.95l.6.35c-.14.65-.25,1.3-.33,1.94" transform="translate(0)" style="fill:#ed4923"/><path d="M1.11,21.81l-.6-.35c.12-.54.25-1.07.4-1.61l.6.35c-.15.53-.28,1.07-.4,1.61" transform="translate(0)" style="fill:#ed4923"/><path d="M1.51,20.2l-.6-.35c.13-.48.28-1,.44-1.43l.6.35c-.16.47-.31.95-.44,1.43" transform="translate(0)" style="fill:#ed4923"/><path d="M2,18.77l-.6-.35c.14-.45.3-.89.47-1.33l.6.35c-.17.44-.33.88-.47,1.33" transform="translate(0)" style="fill:#ed4923"/><path d="M2.42,17.44l-.6-.35c.16-.42.33-.84.52-1.26l.6.35c-.19.42-.36.84-.52,1.26" transform="translate(0)" style="fill:#ed4923"/><path d="M2.94,16.18l-.6-.35c.17-.41.36-.81.55-1.21l.6.34c-.19.41-.38.81-.55,1.22" transform="translate(0)" style="fill:#ed4923"/><path d="M3.49,15l-.6-.34c.2-.41.4-.8.61-1.2l.6.35c-.21.39-.41.79-.61,1.19" transform="translate(0)" style="fill:#ed4923"/><path d="M4.1,13.77l-.6-.35c.21-.4.43-.79.66-1.18l.6.35c-.23.39-.45.78-.66,1.18" transform="translate(0)" style="fill:#ed4923"/><path d="M4.76,12.59l-.6-.35c.23-.4.47-.8.72-1.19l.6.35c-.25.39-.49.79-.72,1.19" transform="translate(0)" style="fill:#ed4923"/><path d="M5.48,11.4l-.6-.35c.26-.41.53-.81.81-1.21l.6.35c-.28.4-.55.8-.81,1.21" transform="translate(0)" style="fill:#ed4923"/><path d="M6.29,10.19l-.6-.35c.31-.43.62-.85.94-1.27l.6.35c-.32.42-.63.84-.94,1.27" transform="translate(0)" style="fill:#ed4923"/><path d="M7.23,8.92l-.6-.35q.56-.71,1.14-1.38l.6.35C8,8,7.6,8.45,7.23,8.92" transform="translate(0)" style="fill:#ed4923"/><path d="M8.37,7.54l-.6-.35c.49-.57,1-1.12,1.53-1.63l.6.34c-.53.52-1,1.07-1.53,1.64" transform="translate(0)" style="fill:#ed4923"/><path d="M9.9,5.9l-.6-.34A23.06,23.06,0,0,1,14,1.92l.6.35A23.36,23.36,0,0,0,9.9,5.9" transform="translate(0)" style="fill:#ed4923"/></g></g></g><path d="M14.59,2.27c7.74-4.47,14.05-.88,14.07,8s-6.23,19.75-14,24.22S.63,35.4.6,26.5,6.84,6.75,14.59,2.27Z" transform="translate(0)" style="fill:#ed4923"/><g style="isolation:isolate"><g style="isolation:isolate"><g style="clip-path:url(#c)"><g style="isolation:isolate"><path d="M14.22,31.73l-.6-.35a3.11,3.11,0,0,0,.45-.22,5,5,0,0,0,1.06-.82l.6.35a5.8,5.8,0,0,1-1.06.82,3.11,3.11,0,0,1-.45.22" transform="translate(0)"/><path d="M15.73,30.69l-.6-.35.35-.37.6.35-.35.37" transform="translate(0)"/><path d="M16.08,30.32l-.6-.35.25-.32.6.35-.25.32" transform="translate(0)"/><path d="M16.33,30l-.6-.35c.08-.09.15-.19.22-.28l.6.35c-.07.09-.14.19-.22.28" transform="translate(0)"/><path d="M16.55,29.72l-.6-.35.18-.28.6.35-.18.28" transform="translate(0)"/><path d="M16.73,29.44l-.6-.35c.06-.09.11-.18.16-.27l.6.35c-.05.09-.1.18-.16.27" transform="translate(0)"/><path d="M16.89,29.17l-.6-.35a1.35,1.35,0,0,0,.15-.26l.6.34a1.82,1.82,0,0,1-.15.27" transform="translate(0)"/><path d="M17,28.9l-.6-.34c0-.09.1-.18.14-.27l.6.34c0,.09-.09.18-.14.27" transform="translate(0)"/><path d="M17.18,28.63l-.6-.34c0-.1.09-.19.13-.28l.6.35-.13.27" transform="translate(0)"/><path d="M17.31,28.36l-.6-.35c0-.1.08-.19.11-.29l.6.35c0,.1-.07.19-.11.29" transform="translate(0)"/><path d="M17.42,28.07l-.6-.35c0-.1.08-.2.11-.3l.6.35c0,.1-.07.2-.11.3" transform="translate(0)"/><path d="M17.53,27.77l-.6-.35a3,3,0,0,0,.1-.32l.6.35c0,.11-.06.21-.1.32" transform="translate(0)"/><path d="M17.63,27.45,17,27.1l.09-.36.6.34-.09.37" transform="translate(0)"/><path d="M17.72,27.08l-.6-.34a3.5,3.5,0,0,0,.07-.45l.6.35a3.11,3.11,0,0,1-.07.44" transform="translate(0)"/><path d="M17.79,26.64l-.6-.35a4.32,4.32,0,0,0,0-.62,2.26,2.26,0,0,0-.93-2l.6.35a2.25,2.25,0,0,1,.93,2,4.44,4.44,0,0,1-.05.62" transform="translate(0)"/></g></g></g><g style="isolation:isolate"><g style="clip-path:url(#d)"><g style="isolation:isolate"><path d="M13.85,31.86l-.6-.35a2.72,2.72,0,0,0,.37-.13l.6.35a2.72,2.72,0,0,1-.37.13" transform="translate(0)"/><path d="M14.22,31.73l-.6-.35a3.11,3.11,0,0,0,.45-.22,5,5,0,0,0,1.06-.82l.6.35a5.8,5.8,0,0,1-1.06.82,3.11,3.11,0,0,1-.45.22" transform="translate(0)"/></g></g></g><g style="isolation:isolate"><g style="clip-path:url(#e)"><g style="isolation:isolate"><path d="M14.41,30.06l-.6-.35a1.15,1.15,0,0,0,.25-.12,2.55,2.55,0,0,0,.59-.46l.6.35a2.85,2.85,0,0,1-.59.46,1.15,1.15,0,0,1-.25.12" transform="translate(0)" style="fill:#b2c2cc"/><path d="M15.25,29.48l-.6-.35a1.8,1.8,0,0,0,.19-.2l.6.35a1.8,1.8,0,0,1-.19.2" transform="translate(0)" style="fill:#aebec7"/><path d="M15.44,29.28l-.6-.35.15-.18.6.35-.15.18" transform="translate(0)" style="fill:#a9b9c2"/><path d="M15.59,29.1l-.6-.35.12-.15.6.34-.12.16" transform="translate(0)" style="fill:#a5b4bd"/><path d="M15.71,28.94l-.6-.34a1.4,1.4,0,0,1,.1-.16l.6.35a1.3,1.3,0,0,0-.1.15" transform="translate(0)" style="fill:#a1afb8"/><path d="M15.81,28.79l-.6-.35.09-.15.6.35-.09.15" transform="translate(0)" style="fill:#9caab3"/><path d="M15.9,28.64l-.6-.35.08-.14.6.34-.08.15" transform="translate(0)" style="fill:#98a5ad"/><path d="M16,28.49l-.6-.34.08-.15.6.34-.08.15" transform="translate(0)" style="fill:#93a0a8"/><path d="M16.06,28.34l-.6-.34a.77.77,0,0,1,.07-.16l.6.35a1,1,0,0,0-.07.15" transform="translate(0)" style="fill:#8f9ca3"/><path d="M16.13,28.19l-.6-.35.06-.16.6.35-.06.16" transform="translate(0)" style="fill:#8a979e"/><path d="M16.19,28l-.6-.35.06-.16.6.35-.06.16" transform="translate(0)" style="fill:#869299"/><path d="M16.25,27.87l-.6-.35.06-.18.6.35-.06.18" transform="translate(0)" style="fill:#818d94"/><path d="M16.31,27.69l-.6-.35a1.17,1.17,0,0,1,0-.2l.6.34a1.6,1.6,0,0,0-.05.21" transform="translate(0)" style="fill:#7d888f"/><path d="M16.36,27.48l-.6-.34c0-.09,0-.17,0-.25l.6.35c0,.08,0,.16,0,.24" transform="translate(0)" style="fill:#78838a"/><path d="M16.4,27.24l-.6-.35c0-.12,0-.23,0-.34a1.25,1.25,0,0,0-.52-1.14l.6.35a1.23,1.23,0,0,1,.52,1.13c0,.12,0,.23,0,.35" transform="translate(0)" style="fill:#747e85"/></g></g></g><g style="isolation:isolate"><g style="clip-path:url(#f)"><g style="isolation:isolate"><polyline points="14.34 28.52 13.74 28.17 13.74 28.17 14.34 28.52 14.34 28.52" style="fill:#3c6d86"/><path d="M14.34,28.52l-.6-.35,0,0,.6.34h0" transform="translate(0)" style="fill:#3d718a"/><path d="M14.36,28.53l-.6-.34h0l.6.35h0" transform="translate(0)" style="fill:#3f748f"/><path d="M14.39,28.54l-.6-.35h0l.6.35h0" transform="translate(0)" style="fill:#417893"/><path d="M14.41,28.55l-.6-.35h0l.6.35h0" transform="translate(0)" style="fill:#437b97"/><path d="M14.44,28.55l-.6-.35h0l.6.35h0" transform="translate(0)" style="fill:#457f9c"/><path d="M14.47,28.55l-.6-.35h0l.6.35h0" transform="translate(0)" style="fill:#4782a0"/><path d="M14.5,28.55l-.6-.35h0l.6.35h0" transform="translate(0)" style="fill:#4986a4"/><path d="M14.54,28.54l-.6-.35.06,0,.6.35-.06,0" transform="translate(0)" style="fill:#4b89a8"/><path d="M14.6,28.52l-.6-.35.06,0,.15-.11.6.34a.79.79,0,0,1-.15.12l-.06,0" transform="translate(0)" style="fill:#4d8dad"/><path d="M14.81,28.37l-.6-.34,0-.06.6.35,0,.05" transform="translate(0)" style="fill:#4b89a8"/><path d="M14.86,28.32l-.6-.35,0,0,.6.35,0,0" transform="translate(0)" style="fill:#4986a4"/><path d="M14.89,28.28l-.6-.35,0,0,.6.35,0,0" transform="translate(0)" style="fill:#4782a0"/><path d="M14.92,28.24l-.6-.35,0,0,.6.35,0,0" transform="translate(0)" style="fill:#457f9c"/><path d="M15,28.2l-.6-.35,0,0,.6.35,0,0" transform="translate(0)" style="fill:#437b97"/><path d="M15,28.16l-.6-.35,0,0,.6.35,0,0" transform="translate(0)" style="fill:#417893"/><path d="M15,28.12l-.6-.35,0,0,.6.35,0,0" transform="translate(0)" style="fill:#3f748f"/><path d="M15,28.08l-.6-.35,0,0L15,28l0,0" transform="translate(0)" style="fill:#3d718a"/><path d="M15,28l-.6-.34,0-.05.6.35,0,0" transform="translate(0)" style="fill:#3c6d86"/><path d="M15.05,28l-.6-.35v0l.6.35v0" transform="translate(0)" style="fill:#3a6a82"/><path d="M15.06,28l-.6-.35s0,0,0-.05l.6.35,0,.05" transform="translate(0)" style="fill:#38667d"/><path d="M15.08,27.91l-.6-.35a.43.43,0,0,0,0,0l.6.35a.43.43,0,0,1,0,.05" transform="translate(0)" style="fill:#366379"/><path d="M15.09,27.86l-.6-.35a.13.13,0,0,0,0-.06l.6.35a.13.13,0,0,1,0,.06" transform="translate(0)" style="fill:#345f75"/><path d="M15.1,27.8l-.6-.35a.28.28,0,0,0,0-.09l.6.35a.28.28,0,0,1,0,.09" transform="translate(0)" style="fill:#325c70"/></g></g></g><g style="isolation:isolate"><g style="clip-path:url(#g)"><g style="isolation:isolate"><polyline points="13.41 30.06 12.81 29.71 12.82 29.72 13.42 30.07 13.41 30.06" style="fill:#8a979e"/><path d="M13.42,30.07l-.6-.35.09,0,.6.35-.09,0" transform="translate(0)" style="fill:#8f9ca3"/><path d="M13.51,30.11l-.6-.35.09,0,.6.34-.09,0" transform="translate(0)" style="fill:#93a0a8"/><path d="M13.6,30.14,13,29.8l.1,0,.6.35-.1,0" transform="translate(0)" style="fill:#98a5ad"/><path d="M13.7,30.17l-.6-.35h.1l.6.35h-.1" transform="translate(0)" style="fill:#9caab3"/><path d="M13.8,30.18l-.6-.35h.12l.6.35H13.8" transform="translate(0)" style="fill:#a1afb8"/><path d="M13.92,30.18l-.6-.35h.13l.6.35h-.13" transform="translate(0)" style="fill:#a5b4bd"/><path d="M14.05,30.17l-.6-.35.16,0,.6.34-.16,0" transform="translate(0)" style="fill:#a9b9c2"/><path d="M14.21,30.13l-.6-.34.2-.08.6.35a1,1,0,0,1-.2.07" transform="translate(0)" style="fill:#aebec7"/><path d="M14.41,30.06l-.6-.35a1.15,1.15,0,0,0,.25-.12,2.55,2.55,0,0,0,.59-.46l.6.35a2.85,2.85,0,0,1-.59.46,1.15,1.15,0,0,1-.25.12" transform="translate(0)" style="fill:#b2c2cc"/></g></g></g><g style="isolation:isolate"><g style="clip-path:url(#h)"><g style="isolation:isolate"><path d="M16.4,27.24l-.6-.35c0-.12,0-.23,0-.34a1.25,1.25,0,0,0-.52-1.14l.6.35a1.23,1.23,0,0,1,.52,1.13c0,.12,0,.23,0,.35" transform="translate(0)" style="fill:#747e85"/></g></g></g><g style="isolation:isolate"><g style="clip-path:url(#i)"><g style="isolation:isolate"><path d="M17.79,26.64l-.6-.35a4.32,4.32,0,0,0,0-.62,2.26,2.26,0,0,0-.93-2l.6.35a2.25,2.25,0,0,1,.93,2,4.44,4.44,0,0,1-.05.62" transform="translate(0)"/></g></g></g><g style="isolation:isolate"><g style="clip-path:url(#j)"><g style="isolation:isolate"><path d="M12.41,31.73l-.6-.35h0l.6.35h0" transform="translate(0)"/><path d="M12.42,31.74l-.6-.35.16.08.6.35-.16-.08" transform="translate(0)"/><path d="M12.58,31.82l-.6-.35.17.06.6.35-.17-.06" transform="translate(0)"/><path d="M12.75,31.88l-.6-.35.18,0,.6.35-.18,0" transform="translate(0)"/><path d="M12.93,31.92l-.6-.35.19,0,.6.35-.19,0" transform="translate(0)"/><path d="M13.12,31.94l-.6-.35a.74.74,0,0,0,.21,0l.6.35h-.21" transform="translate(0)"/><path d="M13.33,31.94l-.6-.35.24,0,.6.35-.24,0" transform="translate(0)"/><path d="M13.57,31.92l-.6-.35.28-.06.6.35-.28.06" transform="translate(0)"/><path d="M13.85,31.86l-.6-.35a2.72,2.72,0,0,0,.37-.13l.6.35a2.72,2.72,0,0,1-.37.13" transform="translate(0)"/></g></g></g><g style="isolation:isolate"><g style="clip-path:url(#k)"><g style="isolation:isolate"><path d="M14.34,28.52l-.6-.35a.3.3,0,0,1-.14-.29l.6.35a.31.31,0,0,0,.14.29" transform="translate(0)" style="fill:#325c70"/></g></g></g><polygon points="15.11 27.71 14.51 27.36 14.5 25.35 15.1 25.7 15.11 27.71" style="fill:#335e73"/><g style="isolation:isolate"><g style="clip-path:url(#l)"><g style="isolation:isolate"><polyline points="15.1 25.7 14.5 25.35 14.51 25.35 15.11 25.7 15.1 25.7" style="fill:#4b89a8"/><path d="M15.11,25.69l-.6-.34.15,0,.6.35-.15,0" transform="translate(0)" style="fill:#4986a4"/><path d="M15.26,25.66l-.6-.35h.13l.6.35h-.13" transform="translate(0)" style="fill:#4782a0"/><path d="M15.39,25.65l-.6-.35h.12l.6.35h-.12" transform="translate(0)" style="fill:#457f9c"/><path d="M15.51,25.65l-.6-.35H15l.6.35h-.11" transform="translate(0)" style="fill:#437b97"/><path d="M15.62,25.66l-.6-.35.1,0,.6.35-.1,0" transform="translate(0)" style="fill:#417893"/><path d="M15.72,25.69l-.6-.35.09,0,.6.35-.09,0" transform="translate(0)" style="fill:#3f748f"/><path d="M15.81,25.72l-.6-.35.09,0,.6.35-.09,0" transform="translate(0)" style="fill:#3d718a"/><polyline points="15.9 25.76 15.3 25.41 15.3 25.41 15.9 25.76 15.9 25.76" style="fill:#3c6d86"/></g></g></g><g style="isolation:isolate"><g style="clip-path:url(#m)"><g style="isolation:isolate"><path d="M16.73,23.89l-.6-.35V22.25l.6.34v1.3" transform="translate(0)"/></g></g></g><g style="isolation:isolate"><g style="clip-path:url(#n)"><g style="isolation:isolate"><path d="M16.72,22.59l-.6-.34.14,0,.6.34-.14,0" transform="translate(0)"/><path d="M16.86,22.61l-.6-.34.23.05.6.35a1.55,1.55,0,0,0-.23-.06" transform="translate(0)"/><path d="M17.09,22.67l-.6-.35.22.07.6.35-.22-.07" transform="translate(0)"/><path d="M17.31,22.74l-.6-.35.2.1.6.35-.2-.1" transform="translate(0)"/><path d="M17.51,22.84l-.6-.35,0,0,.6.34h0" transform="translate(0)"/></g></g></g><g style="isolation:isolate"><g style="clip-path:url(#o)"><g style="isolation:isolate"><path d="M15.9,25.76l-.6-.35v-2l.6.35v2" transform="translate(0)" style="fill:#747e85"/></g></g></g><g style="isolation:isolate"><g style="clip-path:url(#p)"><g style="isolation:isolate"><path d="M15.89,23.78l-.6-.35h.09l.6.35h-.09" transform="translate(0)" style="fill:#a5b4bd"/><path d="M16,23.77l-.6-.35h.21l.6.35H16" transform="translate(0)" style="fill:#a1afb8"/><path d="M16.19,23.77l-.6-.35.2,0,.6.34-.2,0" transform="translate(0)" style="fill:#9caab3"/><path d="M16.39,23.79l-.6-.34.17,0,.6.35-.17-.05" transform="translate(0)" style="fill:#98a5ad"/><path d="M16.56,23.84l-.6-.35.17.05h0l.6.34h0l-.17-.05" transform="translate(0)" style="fill:#93a0a8"/><path d="M16.73,23.89l-.6-.34.16.07.6.35-.16-.08" transform="translate(0)" style="fill:#8f9ca3"/><path d="M16.89,24l-.6-.35h0l.6.35h0" transform="translate(0)" style="fill:#8a979e"/></g></g></g><polygon points="14.2 28.23 13.6 27.88 13.6 25.87 14.2 26.22 14.2 28.23" style="fill:#335e73"/><g style="isolation:isolate"><g style="clip-path:url(#q)"><g style="isolation:isolate"><path d="M13.41,30.06l-.6-.35a1.24,1.24,0,0,1-.52-1.13,2,2,0,0,1,0-.34l.6.35a2,2,0,0,0,0,.34,1.24,1.24,0,0,0,.52,1.13" transform="translate(0)" style="fill:#325c70"/><path d="M12.92,28.59l-.6-.35a2.17,2.17,0,0,1,0-.25l.6.35a1.87,1.87,0,0,0,0,.25" transform="translate(0)" style="fill:#345f75"/><path d="M13,28.34l-.6-.35a1.46,1.46,0,0,1,.05-.2l.6.35a1.46,1.46,0,0,0,0,.2" transform="translate(0)" style="fill:#366379"/><path d="M13,28.14l-.6-.35a1.21,1.21,0,0,1,.05-.18l.6.35a1.21,1.21,0,0,0-.05.18" transform="translate(0)" style="fill:#38667d"/><path d="M13.06,28l-.6-.35.06-.16.6.34-.06.17" transform="translate(0)" style="fill:#3a6a82"/><path d="M13.12,27.79l-.6-.34a.77.77,0,0,1,.07-.16l.6.35a1,1,0,0,0-.07.15" transform="translate(0)" style="fill:#3c6d86"/><path d="M13.19,27.64l-.6-.35a1,1,0,0,1,.07-.15l.6.34a1.11,1.11,0,0,0-.07.16" transform="translate(0)" style="fill:#3d718a"/><path d="M13.26,27.48l-.6-.34.07-.15.6.34-.07.15" transform="translate(0)" style="fill:#3f748f"/><path d="M13.33,27.33l-.6-.34.07-.13v0l.6.35v0a.75.75,0,0,1-.07.12" transform="translate(0)" style="fill:#417893"/><path d="M13.41,27.19l-.6-.35a1.3,1.3,0,0,1,.1-.15l.6.35-.1.15" transform="translate(0)" style="fill:#437b97"/><path d="M13.51,27l-.6-.35.1-.15.6.35-.1.15" transform="translate(0)" style="fill:#457f9c"/><path d="M13.61,26.89l-.6-.35.11-.16.6.35-.11.16" transform="translate(0)" style="fill:#4782a0"/><path d="M13.72,26.73l-.6-.35.15-.17.6.34-.15.18" transform="translate(0)" style="fill:#4986a4"/><path d="M13.87,26.55l-.6-.34.19-.21.6.35-.19.2" transform="translate(0)" style="fill:#4b89a8"/><path d="M14.06,26.35l-.6-.35.14-.13.6.35-.14.13" transform="translate(0)" style="fill:#4d8dad"/></g></g></g><path d="M15.1,25.7a1,1,0,0,1,.8.06,1.23,1.23,0,0,1,.52,1.13,3.86,3.86,0,0,1-1.76,3.05c-1,.56-1.76.11-1.77-1a3.63,3.63,0,0,1,.51-1.72,3.91,3.91,0,0,1,.8-1v2c0,.29.21.4.46.26a1,1,0,0,0,.45-.78Z" transform="translate(0)" style="fill:#4a88a7"/><g style="isolation:isolate"><g style="clip-path:url(#r)"><g style="isolation:isolate"><path d="M12.41,31.73l-.6-.35a2.21,2.21,0,0,1-.93-2,4.4,4.4,0,0,1,0-.62l.6.35a4.4,4.4,0,0,0,0,.62,2.2,2.2,0,0,0,.93,2" transform="translate(0)" style="fill:#747e85"/><path d="M11.52,29.07l-.6-.35a3.73,3.73,0,0,1,.08-.44l.6.34a3.54,3.54,0,0,0-.08.45" transform="translate(0)" style="fill:#78838a"/><path d="M11.6,28.62l-.6-.34c0-.12.05-.25.08-.37l.6.35c0,.12-.06.24-.08.36" transform="translate(0)" style="fill:#7d888f"/><path d="M11.68,28.26l-.6-.35c0-.1.07-.21.1-.32l.6.35c0,.11-.07.21-.1.32" transform="translate(0)" style="fill:#818d94"/><path d="M11.78,27.94l-.6-.35.11-.3.6.35-.11.3" transform="translate(0)" style="fill:#869299"/><path d="M11.89,27.64l-.6-.35.12-.28.6.34-.12.29" transform="translate(0)" style="fill:#8a979e"/><path d="M12,27.35l-.6-.34.12-.28.6.35-.12.27" transform="translate(0)" style="fill:#8f9ca3"/><path d="M12.13,27.08l-.6-.35.14-.27.6.35-.14.27" transform="translate(0)" style="fill:#93a0a8"/><path d="M12.27,26.81l-.6-.35.15-.27.6.35-.15.27" transform="translate(0)" style="fill:#98a5ad"/><path d="M12.42,26.54l-.6-.35L12,26v0l.6.35v0l-.15.24" transform="translate(0)" style="fill:#9caab3"/><path d="M12.58,26.27l-.6-.35.19-.27.6.35-.19.27" transform="translate(0)" style="fill:#a1afb8"/><path d="M12.77,26l-.6-.35.21-.29.6.35-.21.29" transform="translate(0)" style="fill:#a5b4bd"/><path d="M13,25.71l-.6-.35.25-.31.6.35c-.08.1-.17.2-.25.31" transform="translate(0)" style="fill:#a9b9c2"/><path d="M13.23,25.4l-.6-.35.17-.18.6.35-.17.18" transform="translate(0)" style="fill:#aebec7"/></g></g></g><g style="isolation:isolate"><g style="clip-path:url(#s)"><g style="isolation:isolate"><path d="M13.4,27.21l-.6-.35v-2L12.75,8.51a2.64,2.64,0,0,1,0-.28l.6.35a2.46,2.46,0,0,0,0,.28l.05,16.36v2" transform="translate(0)" style="fill:#747e85"/><path d="M13.37,8.58l-.6-.35,0-.17.6.35,0,.17" transform="translate(0)" style="fill:#78838a"/><path d="M13.4,8.41l-.6-.35,0-.13.6.35,0,.13" transform="translate(0)" style="fill:#7d888f"/><path d="M13.43,8.28l-.6-.35a.56.56,0,0,1,0-.12l.6.35a.56.56,0,0,0,0,.12" transform="translate(0)" style="fill:#818d94"/><path d="M13.47,8.16l-.6-.35,0-.1.6.35,0,.1" transform="translate(0)" style="fill:#869299"/><path d="M13.5,8.06l-.6-.35a.42.42,0,0,0,0-.1l.6.35,0,.1" transform="translate(0)" style="fill:#8a979e"/><path d="M13.54,8l-.6-.35L13,7.52l.6.35L13.54,8" transform="translate(0)" style="fill:#8f9ca3"/><path d="M13.59,7.87,13,7.52l0-.09.6.35,0,.09" transform="translate(0)" style="fill:#93a0a8"/><path d="M13.63,7.78,13,7.43a.41.41,0,0,0,.05-.09l.6.34,0,.1" transform="translate(0)" style="fill:#98a5ad"/><path d="M13.68,7.68l-.6-.34.06-.1.6.35-.06.09" transform="translate(0)" style="fill:#9caab3"/><path d="M13.74,7.59l-.6-.35.07-.1.6.35-.07.1" transform="translate(0)" style="fill:#a1afb8"/><path d="M13.81,7.49l-.6-.35.07-.1.6.35-.07.1" transform="translate(0)" style="fill:#a5b4bd"/><path d="M13.88,7.39,13.28,7l.1-.12.6.35-.1.12" transform="translate(0)" style="fill:#a9b9c2"/><path d="M14,7.27l-.6-.35.14-.15.6.35L14,7.27" transform="translate(0)" style="fill:#aebec7"/><path d="M14.12,7.12l-.6-.35A2.63,2.63,0,0,1,14,6.4l.6.35a2.63,2.63,0,0,0-.47.37" transform="translate(0)" style="fill:#b2c2cc"/></g></g></g><path d="M15.89,23.78a1.77,1.77,0,0,1,.84.11A2.15,2.15,0,0,1,17.84,26a7,7,0,0,1-3.17,5.49c-1.76,1-3.19.2-3.19-1.82a6.62,6.62,0,0,1,1.09-3.39,6.32,6.32,0,0,1,.83-1.08v2a3.63,3.63,0,0,0-.51,1.72c0,1.12.8,1.57,1.77,1a3.86,3.86,0,0,0,1.76-3.05,1.23,1.23,0,0,0-.52-1.13Z" transform="translate(0)" style="fill:#acbcc5"/><g style="isolation:isolate"><g style="clip-path:url(#t)"><g style="isolation:isolate"><path d="M12.57,26.3,12,26v-1.3L11.92,9a3.44,3.44,0,0,1,0-.46l.6.35a3.44,3.44,0,0,0,0,.46l0,15.66v1.3" transform="translate(0)"/><path d="M12.55,8.88,12,8.53A2.93,2.93,0,0,1,12,8.24l.6.35a2.93,2.93,0,0,0,0,.29" transform="translate(0)"/><path d="M12.6,8.59,12,8.24A1.74,1.74,0,0,1,12.05,8l.6.35a1.74,1.74,0,0,0-.05.22" transform="translate(0)"/><path d="M12.65,8.37,12.05,8l.06-.19.6.34-.06.2" transform="translate(0)"/><path d="M12.71,8.17l-.6-.34.06-.18.6.35-.06.17" transform="translate(0)"/><path d="M12.77,8l-.6-.35c0-.05.05-.1.07-.16l.6.35L12.77,8" transform="translate(0)"/><path d="M12.84,7.84l-.6-.35.07-.15.6.35-.07.15" transform="translate(0)"/><path d="M12.91,7.69l-.6-.35.08-.16.6.35-.08.16" transform="translate(0)"/><path d="M13,7.53l-.6-.35L12.47,7l.6.35L13,7.53" transform="translate(0)"/><path d="M13.07,7.38,12.47,7l.1-.15.6.35-.1.15" transform="translate(0)"/><path d="M13.17,7.23l-.6-.35a1.63,1.63,0,0,1,.11-.17l.6.35a1.63,1.63,0,0,0-.11.17" transform="translate(0)"/><path d="M13.28,7.06l-.6-.35.13-.17.6.35a1.09,1.09,0,0,0-.13.17" transform="translate(0)"/><path d="M13.41,6.89l-.6-.35.16-.2.6.35-.16.2" transform="translate(0)"/><path d="M13.57,6.69,13,6.34l.24-.25.6.35a2.89,2.89,0,0,0-.24.25" transform="translate(0)"/><path d="M13.81,6.44l-.6-.35A3.94,3.94,0,0,1,14,5.48l.6.35a3.6,3.6,0,0,0-.78.61" transform="translate(0)"/></g></g></g><g style="isolation:isolate"><g style="clip-path:url(#u)"><g style="isolation:isolate"><path d="M11.78,32.75l-.6-.35A2.84,2.84,0,0,1,10,29.8a5.46,5.46,0,0,1,.05-.8l.6.35a5.32,5.32,0,0,0-.05.79,2.85,2.85,0,0,0,1.18,2.61" transform="translate(0)"/><path d="M10.65,29.35l-.6-.35a5.67,5.67,0,0,1,.1-.57l.6.35a5.67,5.67,0,0,0-.1.57" transform="translate(0)"/><path d="M10.75,28.78l-.6-.35c0-.15.07-.31.11-.46l.6.35c0,.15-.08.31-.11.46" transform="translate(0)"/><path d="M10.86,28.32l-.6-.35c0-.14.08-.28.13-.41l.6.35c-.05.13-.09.27-.13.41" transform="translate(0)"/><path d="M11,27.91l-.6-.35c0-.13.09-.26.13-.39l.6.35c0,.13-.09.26-.13.39" transform="translate(0)"/><path d="M11.12,27.52l-.6-.35.15-.36.6.35-.15.36" transform="translate(0)"/><path d="M11.27,27.16l-.6-.35c.05-.12.11-.23.16-.35l.6.35c0,.11-.11.23-.16.35" transform="translate(0)"/><path d="M11.43,26.81l-.6-.35.18-.35.6.35-.18.35" transform="translate(0)"/><path d="M11.61,26.46l-.6-.35.19-.34.6.35c-.07.11-.13.23-.19.34" transform="translate(0)"/><path d="M11.8,26.12l-.6-.35.21-.34.6.35-.21.34" transform="translate(0)"/><path d="M12,25.78l-.6-.35c.08-.12.15-.24.24-.35l.6.35c-.09.11-.16.23-.24.35" transform="translate(0)"/><path d="M12.25,25.43l-.6-.35a3.18,3.18,0,0,1,.27-.37l.6.35a3.18,3.18,0,0,0-.27.37" transform="translate(0)"/><path d="M12.52,25.06l-.6-.35,0-.06.6.35,0,.06" transform="translate(0)"/></g></g></g><path d="M16.72,22.59c1.19.13,2,1.16,2,2.87a8.93,8.93,0,0,1-4,7c-2.24,1.3-4.06.26-4.07-2.32a8.74,8.74,0,0,1,2-5.14v1.3a6.62,6.62,0,0,0-1.09,3.39c0,2,1.43,2.83,3.19,1.82A7,7,0,0,0,17.84,26a2.15,2.15,0,0,0-1.11-2.13Z" transform="translate(0)"/><polygon points="15.1 25.7 14.5 25.35 14.47 15.57 15.07 15.92 15.1 25.7" style="fill:#778288"/><g style="isolation:isolate"><g style="clip-path:url(#v)"><g style="isolation:isolate"><path d="M15.07,15.92l-.6-.35a.32.32,0,0,0-.13-.29l.6.35a.3.3,0,0,1,.13.29" transform="translate(0)" style="fill:#747e85"/></g></g></g><polygon points="14.2 26.22 13.6 25.87 13.57 16.09 14.17 16.44 14.2 26.22" style="fill:#335e73"/><g style="isolation:isolate"><g style="clip-path:url(#w)"><g style="isolation:isolate"><path d="M14.62,15.66l-.6-.35.07,0,.6.35-.07,0" transform="translate(0)" style="fill:#4d8dad"/><path d="M14.69,15.63l-.6-.35.05,0,.6.35-.05,0" transform="translate(0)" style="fill:#4b89a8"/><path d="M14.74,15.61l-.6-.35h0l.6.35h0" transform="translate(0)" style="fill:#4986a4"/><path d="M14.78,15.6l-.6-.35h0l.6.35h0" transform="translate(0)" style="fill:#4782a0"/><path d="M14.81,15.6l-.6-.35h0l.6.35h0" transform="translate(0)" style="fill:#457f9c"/><path d="M14.84,15.6l-.6-.35h0l.6.35h0" transform="translate(0)" style="fill:#437b97"/><path d="M14.87,15.6l-.6-.35h0l.6.35h0" transform="translate(0)" style="fill:#417893"/><path d="M14.89,15.61l-.6-.35h0l.6.35h0" transform="translate(0)" style="fill:#3f748f"/><path d="M14.92,15.62l-.6-.35h0l.6.35h0" transform="translate(0)" style="fill:#3d718a"/><polyline points="14.94 15.63 14.34 15.28 14.34 15.28 14.94 15.63 14.94 15.63" style="fill:#3c6d86"/></g></g></g><g style="isolation:isolate"><g style="clip-path:url(#x)"><g style="isolation:isolate"><path d="M14.17,16.44l-.6-.35a.28.28,0,0,1,0-.09l.6.35a.28.28,0,0,0,0,.09" transform="translate(0)" style="fill:#325c70"/><path d="M14.18,16.35l-.6-.35a.13.13,0,0,1,0-.06l.6.35a.13.13,0,0,0,0,.06" transform="translate(0)" style="fill:#345f75"/><path d="M14.19,16.29l-.6-.35a.09.09,0,0,1,0,0l.6.35a.09.09,0,0,0,0,.05" transform="translate(0)" style="fill:#366379"/><path d="M14.2,16.24l-.6-.35v-.05l.6.35v0" transform="translate(0)" style="fill:#38667d"/><path d="M14.21,16.19l-.6-.35,0,0,.6.35,0,0" transform="translate(0)" style="fill:#3a6a82"/><path d="M14.23,16.15l-.6-.35v0l.6.35v0" transform="translate(0)" style="fill:#3c6d86"/><path d="M14.24,16.11l-.6-.35,0,0,.6.35,0,0" transform="translate(0)" style="fill:#3d718a"/><path d="M14.26,16.07l-.6-.35,0,0,.6.35,0,0" transform="translate(0)" style="fill:#3f748f"/><path d="M14.28,16l-.6-.35,0,0,.6.34,0,0" transform="translate(0)" style="fill:#417893"/><path d="M14.3,16l-.6-.34,0,0,.6.35,0,0" transform="translate(0)" style="fill:#437b97"/><path d="M14.33,16l-.6-.35,0,0,.6.35,0,0" transform="translate(0)" style="fill:#457f9c"/><path d="M14.35,15.92l-.6-.35,0,0,.6.35,0,0" transform="translate(0)" style="fill:#4782a0"/><path d="M14.38,15.88l-.6-.35,0,0,.6.35,0,.05" transform="translate(0)" style="fill:#4986a4"/><path d="M14.42,15.83l-.6-.35,0-.05.6.35s0,0-.05.05" transform="translate(0)" style="fill:#4b89a8"/><path d="M14.47,15.78l-.6-.35.15-.12.6.35-.15.12" transform="translate(0)" style="fill:#4d8dad"/></g></g></g><path d="M14.62,15.66c.25-.14.45,0,.45.26l0,9.78v2a1,1,0,0,1-.45.78c-.25.14-.46,0-.46-.26v-2l0-9.78A1,1,0,0,1,14.62,15.66Z" transform="translate(0)" style="fill:#4a88a7"/><g style="isolation:isolate"><g style="clip-path:url(#y)"><g style="isolation:isolate"><path d="M15.89,23.78l-.6-.35,0-13.93V7.07a.82.82,0,0,0-.33-.78l.6.35a.82.82,0,0,1,.33.78V9.85l0,13.93" transform="translate(0)"/></g></g></g><g style="isolation:isolate"><g style="clip-path:url(#z)"><g style="isolation:isolate"><path d="M15.89,23.78l-.6-.35,0-13.93V7.07a.82.82,0,0,0-.33-.78l.6.35a.82.82,0,0,1,.33.78V9.85l0,13.93" transform="translate(0)"/></g></g></g><g style="isolation:isolate"><g style="clip-path:url(#aa)"><g style="isolation:isolate"><path d="M14.59,6.75,14,6.4l.21-.1.6.35-.21.1" transform="translate(0)" style="fill:#b2c2cc"/><path d="M14.8,6.65l-.6-.35.16,0,.6.34-.16.06" transform="translate(0)" style="fill:#aebec7"/><path d="M15,6.59l-.6-.34.12,0,.6.35-.12,0" transform="translate(0)" style="fill:#a9b9c2"/><path d="M15.08,6.57l-.6-.35h.1l.6.35h-.1" transform="translate(0)" style="fill:#a5b4bd"/><path d="M15.18,6.56l-.6-.35h.08l.6.35h-.08" transform="translate(0)" style="fill:#a1afb8"/><path d="M15.26,6.56l-.6-.35h.07l.6.35h-.07" transform="translate(0)" style="fill:#9caab3"/><path d="M15.33,6.57l-.6-.35.07,0,.6.34h-.07" transform="translate(0)" style="fill:#98a5ad"/><path d="M15.4,6.58l-.6-.34.06,0,.6.35-.06,0" transform="translate(0)" style="fill:#93a0a8"/><path d="M15.46,6.61l-.6-.35.05,0,.6.35,0,0" transform="translate(0)" style="fill:#8f9ca3"/><polyline points="15.52 6.63 14.91 6.28 14.92 6.29 15.52 6.64 15.52 6.63" style="fill:#8a979e"/></g></g></g><g style="isolation:isolate"><g style="clip-path:url(#ab)"><g style="isolation:isolate"><path d="M14.59,5.83,14,5.48l.34-.17.6.35a2.7,2.7,0,0,0-.34.17" transform="translate(0)"/><path d="M14.93,5.66l-.6-.35a1.31,1.31,0,0,1,.28-.09l.59.35a1.43,1.43,0,0,0-.27.09" transform="translate(0)"/><path d="M15.2,5.57l-.59-.35.19,0,.6.34-.2.05" transform="translate(0)"/><path d="M15.4,5.52l-.6-.34.16,0,.6.35H15.4" transform="translate(0)"/><path d="M15.56,5.51,15,5.16h.14l.6.35h-.14" transform="translate(0)"/><path d="M15.7,5.51l-.6-.35.12,0,.6.34H15.7" transform="translate(0)"/><path d="M15.82,5.52l-.6-.34.11,0,.6.35-.11,0" transform="translate(0)"/><path d="M15.93,5.55l-.6-.35.1,0,.6.34-.1,0" transform="translate(0)"/><path d="M16,5.58l-.6-.34.09,0,.6.35-.09,0" transform="translate(0)"/><polyline points="16.12 5.63 15.52 5.28 15.53 5.29 16.13 5.63 16.12 5.63"/></g></g></g><path d="M14.59,6.75c.63-.36,1.26-.26,1.26.67V9.85l0,13.93v2a1,1,0,0,0-.8-.06l0-9.78c0-.29-.2-.4-.45-.26a1,1,0,0,0-.45.78l0,9.78a3.91,3.91,0,0,0-.8,1v-2L13.35,8.86A2.57,2.57,0,0,1,14.59,6.75Z" transform="translate(0)" style="fill:#acbcc5"/><path d="M14.59,5.83c1-.6,2.08-.43,2.09,1.11l0,15.65v1.3a1.77,1.77,0,0,0-.84-.11l0-13.93V7.42c0-.93-.63-1-1.26-.67a2.57,2.57,0,0,0-1.24,2.11l.05,16.36a6.32,6.32,0,0,0-.83,1.08V25l0-15.66A4.28,4.28,0,0,1,14.59,5.83Z" transform="translate(0)"/></g><g style="isolation:isolate"><polygon points="275.78 50.19 275.81 58.08 203.87 99.61 203.85 91.72 275.78 50.19" style="fill:#bbb8b3"/><polygon points="203.87 99.61 178.9 85.1 178.88 77.21 203.85 91.72 203.87 99.61" style="fill:#817f7b"/><polygon points="203.85 91.72 178.88 77.21 250.81 35.68 275.78 50.19 203.85 91.72" style="fill:#d0cdc7"/></g><g style="isolation:isolate"><polygon points="267.67 29.01 267.73 48.34 200.19 87.34 200.13 68 267.67 29.01" style="fill:#b7381b"/><polygon points="200.19 87.34 185.92 79.04 185.87 59.71 200.13 68 200.19 87.34" style="fill:#7f2713"/><polygon points="200.13 68 185.87 59.71 253.4 20.71 267.67 29.01 200.13 68" style="fill:#cc3f1e"/></g><path d="M209.09,67.38a3.6,3.6,0,0,1,2.44-.69,2,2,0,0,1,1.32,1.45L210.61,70a1.15,1.15,0,0,0-.24-.49.74.74,0,0,0-.53-.21,1.33,1.33,0,0,0-.68.21,3.16,3.16,0,0,0-1.33,1.57,5,5,0,0,0-.33,2c0,1,.14,1.68.42,1.91s.66.2,1.16-.09a2.84,2.84,0,0,0,1.1-1.1,5.62,5.62,0,0,0,.54-1.68l2.22-.51a8.34,8.34,0,0,1-.7,2.2,7.58,7.58,0,0,1-1.19,1.78,7.47,7.47,0,0,1-1.82,1.42,5.16,5.16,0,0,1-2.19.81,1.72,1.72,0,0,1-1.47-.72,4.1,4.1,0,0,1-.62-2.53A8.27,8.27,0,0,1,206,70.4,8.14,8.14,0,0,1,209.09,67.38Z" transform="translate(0)" style="fill:#fff"/><path d="M221.24,61.63c.74.42,1.12,1.38,1.12,2.9a8.81,8.81,0,0,1-.48,3,8.12,8.12,0,0,1-3.67,4.37,5,5,0,0,1-2.31.81,1.69,1.69,0,0,1-1.47-.76,4,4,0,0,1-.58-2.42,8.31,8.31,0,0,1,4.23-7.33C219.45,61.4,220.5,61.21,221.24,61.63Zm-1.86,6.78a5.45,5.45,0,0,0,.44-2.45c0-.89-.16-1.45-.47-1.68s-.74-.19-1.28.12a3.16,3.16,0,0,0-1.22,1.33,5.09,5.09,0,0,0-.46,2.33c0,1,.16,1.56.46,1.8s.74.2,1.27-.11a3.2,3.2,0,0,0,1.26-1.34" transform="translate(0)" style="fill:#fff"/><path d="M230.79,56.11c.75.42,1.12,1.39,1.12,2.9A8.15,8.15,0,0,1,230,64.46a8.06,8.06,0,0,1-2.28,1.91,5.08,5.08,0,0,1-2.3.82,1.72,1.72,0,0,1-1.48-.76,4.12,4.12,0,0,1-.57-2.43,8.33,8.33,0,0,1,4.22-7.33C229,55.88,230.05,55.69,230.79,56.11Zm-1.86,6.78a5.26,5.26,0,0,0,.44-2.45c0-.89-.16-1.45-.47-1.67s-.74-.2-1.27.11a3.15,3.15,0,0,0-1.23,1.34,5,5,0,0,0-.46,2.33c0,1,.16,1.55.47,1.79s.73.2,1.26-.1a3.16,3.16,0,0,0,1.26-1.35" transform="translate(0)" style="fill:#fff"/><polygon points="235.8 52.11 235.82 59.23 239.78 56.94 239.79 59.26 233.3 63.01 233.27 53.57 235.8 52.11" style="fill:#fff"/><polygon points="243.56 47.63 243.59 57.07 241.05 58.54 241.02 49.1 243.56 47.63" style="fill:#fff"/><polygon points="253.25 42.04 253.28 51.48 250.89 52.85 247.8 49.45 247.81 54.63 245.43 56.01 245.4 46.57 247.77 45.2 250.88 48.64 250.86 43.42 253.25 42.04" style="fill:#fff"/><path d="M259.05,38.53a6.76,6.76,0,0,1,2-.89,1.45,1.45,0,0,1,1.12.23,2.08,2.08,0,0,1,.67,1.12l-2.44,1.92a.7.7,0,0,0-.52-.52,1.35,1.35,0,0,0-.92.25,3.42,3.42,0,0,0-1.33,1.43,5.14,5.14,0,0,0-.49,2.39c0,1,.17,1.66.51,1.9s.8.19,1.39-.15a3.88,3.88,0,0,0,.82-.61,8.62,8.62,0,0,0,.88-1v-.89l-1.7,1v-2L263,40.47v4a18,18,0,0,1-2,2.35,10.64,10.64,0,0,1-2,1.5,4.63,4.63,0,0,1-2.39.8,1.69,1.69,0,0,1-1.43-.87,4.49,4.49,0,0,1-.51-2.31,8.39,8.39,0,0,1,.54-3,8.7,8.7,0,0,1,1.62-2.68A9.4,9.4,0,0,1,259.05,38.53Z" transform="translate(0)" style="fill:#fff"/></svg>