<svg xmlns="http://www.w3.org/2000/svg" viewBox="0 0 105.52 212.36"><g style="isolation:isolate"><polygon points="98.57 121.25 98.56 122.9 71.39 107.22 71.4 106.39 71.4 105.57 98.57 121.25" style="fill:#82807c"/><polygon points="98.57 121.25 100 120.42 99.99 122.07 98.56 122.9 98.57 121.25" style="fill:#bbb8b2"/><polygon points="71.4 105.57 72.83 104.74 100 120.42 98.57 121.25 71.4 105.57" style="fill:#d1cdc7"/></g><g style="isolation:isolate"><polygon points="102.41 112.69 102.43 121 97.34 123.94 97.31 115.64 102.41 112.69" style="fill:#c5c5c5"/><polygon points="97.34 123.94 95.91 123.12 95.89 114.81 97.31 115.64 97.34 123.94" style="fill:#888"/><polygon points="97.31 115.64 95.89 114.81 100.98 111.86 102.41 112.69 97.31 115.64" style="fill:#dbdbdb"/></g><g style="isolation:isolate"><polygon points="65.93 199.81 53.28 207.15 40.56 199.81 53.2 192.46 65.93 199.81" style="fill:#d1cdc7"/><polygon points="65.93 199.81 65.91 205.01 53.27 212.36 53.28 207.15 65.93 199.81" style="fill:#bbb8b2"/><polygon points="53.28 207.15 53.27 212.36 40.54 205.01 40.56 199.81 53.28 207.15" style="fill:#82807c"/></g><g style="isolation:isolate"><polygon points="59.37 113.27 53.38 116.76 47.34 113.27 53.34 109.79 59.37 113.27" style="fill:#dcdcdc"/><polygon points="59.37 113.27 59.13 199.99 53.13 203.47 53.38 116.76 59.37 113.27" style="fill:#c5c5c5"/><polygon points="53.38 116.76 53.13 203.47 47.09 199.99 47.34 113.27 53.38 116.76" style="fill:#898989"/></g><g style="isolation:isolate"><polygon points="59.8 144.06 59.79 145.71 32.63 130.03 32.63 129.2 32.63 128.38 59.8 144.06" style="fill:#82807c"/><polygon points="59.8 144.06 61.22 143.23 61.22 144.88 59.79 145.71 59.8 144.06" style="fill:#bbb8b2"/><polygon points="32.63 128.38 34.06 127.55 61.22 143.23 59.8 144.06 32.63 128.38" style="fill:#d1cdc7"/></g><g style="isolation:isolate"><polygon points="63.64 135.51 63.66 143.82 58.57 146.77 58.54 138.45 63.64 135.51" style="fill:#c5c5c5"/><polygon points="58.57 146.77 57.14 145.94 57.12 137.62 58.54 138.45 58.57 146.77" style="fill:#888"/><polygon points="58.54 138.45 57.12 137.62 62.22 134.68 63.64 135.51 58.54 138.45" style="fill:#dbdbdb"/></g><g style="isolation:isolate"><polygon points="103.31 3.49 103.55 86.23 6.23 142.41 6 59.67 103.31 3.49" style="fill:#ed4923"/><polygon points="6.23 142.41 0.23 138.93 0 56.19 6 59.67 6.23 142.41" style="fill:#4d4d4d"/><polygon points="6 59.67 0 56.19 97.31 0 103.31 3.49 6 59.67" style="fill:#4d4d4d"/></g><g style="isolation:isolate"><polygon points="105.29 4.6 105.52 87.34 103.12 85.94 102.89 3.2 105.29 4.6" style="fill:#817f7b"/><polygon points="105.52 87.34 8.21 143.52 5.81 142.13 103.12 85.94 105.52 87.34" style="fill:#d0cdc7"/><polygon points="8.21 143.52 5.81 142.13 5.57 59.39 7.97 60.78 8.21 143.52" style="fill:#817f7b"/><polygon points="7.97 60.78 5.57 59.39 102.89 3.2 105.29 4.6 7.97 60.78" style="fill:#d0cdc7"/></g><path d="M34.27,69.58a9.56,9.56,0,0,1,.06,1.09q0,3.1-2.29,8a51.68,51.68,0,0,1-4.55,7.81C26,88.69,24.88,90,24.26,90.3a.34.34,0,0,1-.12.06,9,9,0,0,1-3.46.33c-1.66,0-2.55-.23-2.68-.53a.56.56,0,0,1-.07-.3,3,3,0,0,1,.11-.65,2.51,2.51,0,0,0,.12-.61l-.07-24.27c0-.4.47-.88,1.43-1.43a5.11,5.11,0,0,1,1.14-.51,36.71,36.71,0,0,1,3.86-4.23,22.06,22.06,0,0,1,4-3.19A3.34,3.34,0,0,1,30,54.41a1.37,1.37,0,0,1,1,.53,4.27,4.27,0,0,0,.82.88q.07,0,1.08.39a1.19,1.19,0,0,1,.76.77,3,3,0,0,1,.13.9c0,2-1.13,4.78-3.41,8.42C32.74,67,34,68.07,34.27,69.58ZM27.89,78c1.36-3.08,2-5.36,1.84-6.84a19.75,19.75,0,0,0-2.86,2.6,25.36,25.36,0,0,0-3.16,3.81l0,7A19.27,19.27,0,0,0,27.89,78M23.68,66v3.89a68.9,68.9,0,0,0,3.59-6c1-1.91,1.42-3,1.25-3.2q-.08-.11-.36.06A12.35,12.35,0,0,0,25.82,63a14.61,14.61,0,0,0-2.14,3" style="fill:#fff"/><path d="M48.37,85.27a4.18,4.18,0,0,1,1.38-.42c.69-.1,1.07,0,1.15.29a1.38,1.38,0,0,1-.09.63,3.07,3.07,0,0,0-.17.88l0,7.66a11.33,11.33,0,0,0,1.14.54q.64.29.63.6a3.43,3.43,0,0,1-.56,1.29,3.62,3.62,0,0,1-.79,1l-.41.26,0,7a8.07,8.07,0,0,1,.25.88,2.91,2.91,0,0,1-.36,2.29,1.4,1.4,0,0,1-.36.27A4.85,4.85,0,0,1,48,109c-.95.07-1.53-.08-1.74-.44,0-.16,0-.39-.08-.7a1.18,1.18,0,0,1,.17-.63,2.38,2.38,0,0,0,.22-.54l0-5.61c-.3.22-.91.7-1.81,1.46s-1.49,1.3-1.78,1.59v5.63a.52.52,0,0,0,.16.37.84.84,0,0,1,.18.3c-.06.33-.12.65-.16,1a1.06,1.06,0,0,1-.27.54,1.15,1.15,0,0,1-.2.15,7.19,7.19,0,0,1-2,.58c-1.19.23-1.81.23-1.88,0a2.1,2.1,0,0,1-.05-.64,7.49,7.49,0,0,0,.07-.82l0-17.76a10.9,10.9,0,0,1,.22-1.65,3.79,3.79,0,0,1,.82-1.25,1,1,0,0,1,.26-.18A6.87,6.87,0,0,1,42,89.61q1.27-.28,1.35.39a3.83,3.83,0,0,1-.2,1.06A5.58,5.58,0,0,0,43,92.14l0,6.77c1.1-1,2.29-2,3.6-3l0-7.74a1.4,1.4,0,0,0-.11-.36,1.08,1.08,0,0,1-.06-.55,2,2,0,0,1,.8-1.1c.34-.24.67-.49,1-.72Z" style="fill:#fff"/><path d="M46.65,44.59a.34.34,0,0,1,.11-.05,4.16,4.16,0,0,1,2.34.62c1,.52,1.6,1,1.69,1.41a3.52,3.52,0,0,1-.6,1.51,4.25,4.25,0,0,1-1.09,1.46,1.05,1.05,0,0,1-.52.19.34.34,0,0,0-.19,0c-.82.68-1.55,1.34-2.23,2A22,22,0,0,0,42.62,56v6.11q1.14-1.34,3-3.1c.41-.24,1.13-.1,2.2.39s1.69,1,1.69,1.45A2.88,2.88,0,0,1,49,62.07a4.87,4.87,0,0,1-.87,1.22c-.22.12-.6.37-1.14.73a36.1,36.1,0,0,0-4.37,4.92l0,3.94c.65-.83,1.53-1.87,2.65-3.13a15,15,0,0,1,2.07-2.11c.3-.18,1.07-.08,2.3.3s1.82.73,1.78,1a5.91,5.91,0,0,1-.57,1.7,5.3,5.3,0,0,1-.82,1.36.55.55,0,0,1-.36.08.71.71,0,0,0-.43.07l-.13.11c-.67.62-1.34,1.31-2,2.07a44.51,44.51,0,0,0-4.42,5.82l-3.56.37c-1.35.1-2,0-2-.34l-.08-28.17a3.25,3.25,0,0,1,.77-1.19,5.14,5.14,0,0,1,1.07-1.07,5.59,5.59,0,0,1,1.62-.35,5,5,0,0,0,1.92-.57A10.57,10.57,0,0,0,45,46.4,9.45,9.45,0,0,1,46.65,44.59Z" style="fill:#fff"/><path d="M91.93,60l.14-.07c.45-.19.76-.16.92.08a3.73,3.73,0,0,1,.37,1,7.11,7.11,0,0,1,.24,1.74,3.18,3.18,0,0,1-.13,1,1.9,1.9,0,0,1-.86.84,1.06,1.06,0,0,1-.53.13,1,1,0,0,0-.44.12l-.11.08L89,67.2l0,14.59a3.86,3.86,0,0,0,.35,1.56,2.56,2.56,0,0,1-.05,1.08,3,3,0,0,1-.45,1.34,1.27,1.27,0,0,1-.24.17,12.19,12.19,0,0,1-2.23.93c-1.06.33-1.69.43-1.88.28s-.22-.65,0-1.35a5,5,0,0,0,.31-1.23l0-13.74-1.71,1.49a2.2,2.2,0,0,0-.4.47,1.49,1.49,0,0,1-.39.38l-.08,0c-.38.1-.88-.15-1.53-.77s-.93-1.13-.85-1.52A3.55,3.55,0,0,1,81,69.29a2.3,2.3,0,0,1,.34-.25l.29-.14a3.58,3.58,0,0,0,.34-.17,1.46,1.46,0,0,0,.26-.18l8.4-7.32c.08-.07.31-.31.7-.74A2.21,2.21,0,0,1,91.93,60Z" style="fill:#fff"/><path d="M79,79c.82,4.6,1.65,7.63,2.49,9.07,0,.17,0,.59-.09,1.25a2.32,2.32,0,0,1-.19.86,1.71,1.71,0,0,1-.41.32,6.37,6.37,0,0,1-2,.67,2.29,2.29,0,0,1-1.74-.05,3.22,3.22,0,0,1-.39-1.44,17.71,17.71,0,0,0-.61-2.74,32.47,32.47,0,0,0-2.68,2.32,20.89,20.89,0,0,0-2.29,2.36c-.24.94-.56,2.1-1,3.5-.05.29-.1.56-.15.83a2,2,0,0,1-.43.81.65.65,0,0,1-.21.18,4.85,4.85,0,0,1-2,.43c-.91.06-1.38,0-1.41-.1A6.38,6.38,0,0,1,66.48,95c.51-1.78.81-2.86.89-3.24a.93.93,0,0,1-.51-.87,1.89,1.89,0,0,1,0-.32,7.88,7.88,0,0,1,1.47-2l3.08-14a5.71,5.71,0,0,0,0-1.23,1.83,1.83,0,0,1,.14-1,1.58,1.58,0,0,1,.58-.47,13.62,13.62,0,0,1,3.24-1.21c1.4-.36,2.24-.45,2.52-.25A78.67,78.67,0,0,0,79,79Zm-6.47,6.57c.31-.33,1.19-1.09,2.63-2.3-.21-1-.34-1.74-.39-2.08a35.43,35.43,0,0,1-.37-3.65c-.32,1.09-.7,2.57-1.13,4.43a34.53,34.53,0,0,0-.74,3.6" style="fill:#fff"/><path d="M70.25,46.59q1.66,9.33,3.36,12.24c0,.24-.06.8-.12,1.69a3,3,0,0,1-.26,1.16,2.09,2.09,0,0,1-.55.44A8.35,8.35,0,0,1,70,63,3,3,0,0,1,67.65,63,4.39,4.39,0,0,1,67.12,61a24.37,24.37,0,0,0-.82-3.69,41.68,41.68,0,0,0-3.62,3.12,27.45,27.45,0,0,0-3.09,3.19q-.5,1.89-1.3,4.73-.09.57-.21,1.11a2.62,2.62,0,0,1-.56,1.1.93.93,0,0,1-.3.24,6.38,6.38,0,0,1-2.62.58c-1.23.09-1.87,0-1.91-.13a8.81,8.81,0,0,1,.61-3c.69-2.4,1.09-3.85,1.19-4.36a1.33,1.33,0,0,1-.69-1.18,2.29,2.29,0,0,1,0-.43,10.45,10.45,0,0,1,2-2.76L60,40.63A8.31,8.31,0,0,0,60,39a2.37,2.37,0,0,1,.19-1.38,2.08,2.08,0,0,1,.78-.64,18.45,18.45,0,0,1,4.37-1.63c1.89-.49,3-.6,3.4-.34A108.47,108.47,0,0,0,70.25,46.59Zm-8.73,8.87q.63-.66,3.55-3.1c-.28-1.41-.46-2.35-.53-2.81a47.81,47.81,0,0,1-.5-4.92q-.65,2.2-1.52,6a46.48,46.48,0,0,0-1,4.85" style="fill:#fff"/><path d="M87.65,21l.19-.09c.61-.25,1-.22,1.24.11a4.57,4.57,0,0,1,.5,1.4,9.48,9.48,0,0,1,.33,2.36,4.7,4.7,0,0,1-.17,1.36,2.6,2.6,0,0,1-1.16,1.14,1.66,1.66,0,0,1-.72.17,1.27,1.27,0,0,0-.6.16l-.15.1-3.35,3,0,19.7a5.09,5.09,0,0,0,.46,2.1A3.35,3.35,0,0,1,84.21,54a4,4,0,0,1-.61,1.82,1.62,1.62,0,0,1-.33.23,16.33,16.33,0,0,1-3,1.24c-1.43.45-2.28.58-2.54.38s-.3-.88,0-1.82a6.3,6.3,0,0,0,.42-1.66l0-18.55-2.31,2a4.33,4.33,0,0,0-.54.63,2.17,2.17,0,0,1-.52.53l-.11.05c-.5.13-1.19-.21-2.06-1.05s-1.26-1.52-1.15-2A4.84,4.84,0,0,1,73,33.55a2.36,2.36,0,0,1,.46-.33,2.69,2.69,0,0,1,.38-.2,3.43,3.43,0,0,0,.47-.23,3.53,3.53,0,0,0,.35-.24L86,22.67c.11-.09.43-.42,1-1A3.66,3.66,0,0,1,87.65,21Z" style="fill:#fff"/><path d="M18.85,116.2a4.93,4.93,0,0,1,.95-.4,1.42,1.42,0,0,1,.7-.11.13.13,0,0,1,.07.13,1.51,1.51,0,0,1-.17.48,1.38,1.38,0,0,0-.18.45v.68l.35-.2c.07,0,.22,0,.45.18s.35.31.35.44a1.08,1.08,0,0,1-.13.47.71.71,0,0,1-.26.33l-.07,0a3.27,3.27,0,0,0-.69.33l0,4.93a1.37,1.37,0,0,0,.07.16.86.86,0,0,1,.07.34.8.8,0,0,1-.43.64h0a2.83,2.83,0,0,1-.81.24c-.44.09-.68.07-.71,0a1.14,1.14,0,0,1,.08-.41,2.23,2.23,0,0,0,.09-.49V120l-.37.21q-.21.12-.51-.12a.65.65,0,0,1-.31-.49.78.78,0,0,1,.13-.41.77.77,0,0,1,.27-.31l.79-.45v-1.13a.64.64,0,0,1,0-.88Z" style="fill:#fff"/><path d="M22.55,112.65a3.68,3.68,0,0,1,.72-.26c.47-.14.72-.15.77,0a1,1,0,0,1,0,.43,3.14,3.14,0,0,0-.07.72v2.33a3.62,3.62,0,0,1,1.17-1.56,2.24,2.24,0,0,1,1-.26c.39,0,.61,0,.67.14q.3.63.32,5.73a.91.91,0,0,1,.08.48,1.15,1.15,0,0,1-.24.6,1.16,1.16,0,0,1-.27.2,4.23,4.23,0,0,1-.88.37c-.34.11-.55.15-.62.11a.17.17,0,0,1,0-.13,2.28,2.28,0,0,1,.09-.43c.05-.09.09-.19.14-.3a.85.85,0,0,0,.08-.35c0-3.29,0-4.93-.08-4.92a4.26,4.26,0,0,0-.75,1.34,5.56,5.56,0,0,0-.62,2v2.77c.12.07.16.22.12.46a1.28,1.28,0,0,1-.34.72.34.34,0,0,1-.13.1,3.92,3.92,0,0,1-.86.34c-.38.12-.59.16-.62.13s-.09-.24,0-.45a.68.68,0,0,1,.1-.19.51.51,0,0,0,.09-.24l0-8.82a.37.37,0,0,0-.09-.22.26.26,0,0,1-.06-.24,1,1,0,0,1,.34-.53Z" style="fill:#fff"/><path d="M32.45,115.39c.06.09-.08.54-.42,1.36a8.8,8.8,0,0,1-1.11,2,.79.79,0,0,1-.19.15,3.38,3.38,0,0,1-1.11.34c-.49.08-.81,0-1-.1a3,3,0,0,1-.64-2.23,9,9,0,0,1,.55-3.1,4,4,0,0,1,1.52-2.21l0,0a1.94,1.94,0,0,1,.77-.25,1.51,1.51,0,0,1,1,.15c.07,0,.13.23.19.57a5.8,5.8,0,0,1,.11,1.11,2.86,2.86,0,0,1-.24,1.31,13.57,13.57,0,0,1-2.28,1.78,4.05,4.05,0,0,0,.14,1.21c.1.39.21.56.31.51a1.68,1.68,0,0,0,.52-.72,3.5,3.5,0,0,0,.34-.8c.05-.28.12-.58.2-.89l0,0a1.89,1.89,0,0,1,.65-.17C32.19,115.29,32.39,115.31,32.45,115.39ZM30,113.66a5.83,5.83,0,0,0-.38,1.56,2.73,2.73,0,0,0,.78-.73,3.09,3.09,0,0,0,.17-1.34c0-.31,0-.46-.06-.46h0a2.33,2.33,0,0,0-.5,1" style="fill:#fff"/><path d="M61.56,77.47l.08,0a3.09,3.09,0,0,1,1.73.46c.77.38,1.18.73,1.25,1a2.52,2.52,0,0,1-.44,1.11,3,3,0,0,1-.81,1.08.79.79,0,0,1-.39.14.2.2,0,0,0-.14,0c-.61.51-1.15,1-1.64,1.48a16.54,16.54,0,0,0-2.63,3.13v4.53c.56-.66,1.3-1.43,2.2-2.3.3-.18.83-.07,1.63.3s1.25.73,1.25,1.07a2.1,2.1,0,0,1-.34.91,3.63,3.63,0,0,1-.65.91q-.24.14-.84.54a26.58,26.58,0,0,0-3.23,3.65v2.91c.48-.61,1.13-1.39,2-2.32a11.89,11.89,0,0,1,1.53-1.56c.23-.13.8-.06,1.71.22s1.35.54,1.32.78a4.85,4.85,0,0,1-.42,1.26,4.09,4.09,0,0,1-.62,1,.38.38,0,0,1-.26,0,.48.48,0,0,0-.31.06.39.39,0,0,0-.1.08q-.75.69-1.5,1.53a33.71,33.71,0,0,0-3.28,4.31c-1.61.17-2.49.27-2.63.27q-1.5.12-1.5-.24L54.45,83c0-.13.19-.42.57-.88a3.49,3.49,0,0,1,.79-.79,3.88,3.88,0,0,1,1.2-.27,3.45,3.45,0,0,0,1.42-.42,8,8,0,0,0,1.89-1.83A6.53,6.53,0,0,1,61.56,77.47Z" style="fill:#fff"/></svg>