<svg xmlns="http://www.w3.org/2000/svg" xmlns:xlink="http://www.w3.org/1999/xlink" viewBox="0 0 50.73 51.96"><defs><clipPath id="a"><path d="M8.64,38,36.2,22a1.4,1.4,0,0,1,1.44.14l-27.56,16A1.45,1.45,0,0,0,8.64,38Z" style="fill:none"/></clipPath><clipPath id="b"><path d="M39.07,26.89l-27.56,16a1.4,1.4,0,0,0,.59-1.3,4.44,4.44,0,0,0-2-3.5l27.56-16a4.45,4.45,0,0,1,2,3.5A1.43,1.43,0,0,1,39.07,26.89Z" style="fill:none"/></clipPath></defs><g style="opacity:0.15"><path d="M41.92,28.6C43.8,29.68,39,34.51,31.28,39.45S15.56,47.62,13.62,46.6s2.88-5.91,10.65-10.85S40,27.58,41.92,28.6Z" style="fill:#323232"/></g><g style="isolation:isolate"><polygon points="50.73 15.23 42.25 20.16 33.72 15.23 42.2 10.3 50.73 15.23" style="fill:#999"/><polygon points="50.73 15.23 50.7 27.49 42.22 32.41 42.25 20.16 50.73 15.23" style="fill:#898989"/><polygon points="42.25 20.16 42.22 32.41 33.68 27.49 33.72 15.23 42.25 20.16" style="fill:#5f5f5f"/><polygon points="49.62 17.6 49.6 26.46 43.47 30.03 43.49 21.16 49.62 17.6" style="fill:#898989;stroke:#707070;stroke-miterlimit:10"/></g><g style="isolation:isolate"><path d="M43.88,12.31v1.23s0-.09-.09-.13a.45.45,0,0,0-.42,0,.15.15,0,0,0-.09.12V12.31a.14.14,0,0,1,.09-.12.47.47,0,0,1,.43,0A.14.14,0,0,1,43.88,12.31Z" style="fill:#707070"/><path d="M43.37,13.66c-.06,0-.09-.08-.09-.13V12.31a.15.15,0,0,0,.09.12.47.47,0,0,0,.43,0,.15.15,0,0,0,.08-.12v1.23s0,.08-.09.12A.51.51,0,0,1,43.37,13.66Z" style="fill:#898989"/><path d="M43.8,12.19c.11.06.11.17,0,.24a.47.47,0,0,1-.43,0c-.12-.07-.12-.18,0-.24A.47.47,0,0,1,43.8,12.19Z" style="fill:#898989"/><path d="M44.18,12.31v1.22a.31.31,0,0,1-.17.25.91.91,0,0,1-.85,0,.31.31,0,0,1-.18-.25V12.31a.28.28,0,0,0,.18.24.91.91,0,0,0,.85,0A.27.27,0,0,0,44.18,12.31Z" style="fill:#707070"/><path d="M44,12.06c.23.14.23.36,0,.49a.91.91,0,0,1-.85,0c-.24-.13-.24-.35,0-.49A.91.91,0,0,1,44,12.06Zm-.64.37a.47.47,0,0,0,.43,0c.11-.07.11-.18,0-.24a.47.47,0,0,0-.43,0c-.12.06-.12.17,0,.24" style="fill:#707070"/></g><g style="isolation:isolate"><path d="M43.9.18l0,12.25c0,.05,0,.09-.09.13a.54.54,0,0,1-.43,0c-.06,0-.09-.08-.09-.13L43.3.17s0,.09.09.13a.51.51,0,0,0,.42,0Q43.9.24,43.9.18Z" style="fill:#707070"/><path d="M43.81.05a.13.13,0,0,1,0,.25.51.51,0,0,1-.42,0,.13.13,0,0,1,0-.25A.45.45,0,0,1,43.81.05Z" style="fill:#707070"/></g><g style="isolation:isolate"><path d="M45.39,13.21v1.23a.17.17,0,0,0-.08-.13.47.47,0,0,0-.43,0c-.06,0-.09.08-.09.13V13.21a.15.15,0,0,1,.08-.12.47.47,0,0,1,.43,0A.15.15,0,0,1,45.39,13.21Z" style="fill:#707070"/><path d="M44.87,14.56a.15.15,0,0,1-.09-.12V13.21a.15.15,0,0,0,.09.12.45.45,0,0,0,.42,0,.14.14,0,0,0,.09-.12v1.23a.13.13,0,0,1-.08.12A.47.47,0,0,1,44.87,14.56Z" style="fill:#898989"/><path d="M45.3,13.09c.12.07.12.18,0,.24a.45.45,0,0,1-.42,0c-.12-.06-.12-.17,0-.24A.47.47,0,0,1,45.3,13.09Z" style="fill:#898989"/><path d="M45.69,13.21v1.23q0,.13-.18.24a.91.91,0,0,1-.85,0,.31.31,0,0,1-.18-.25V13.21a.29.29,0,0,0,.17.25,1,1,0,0,0,.85,0A.31.31,0,0,0,45.69,13.21Z" style="fill:#707070"/><path d="M45.51,13a.26.26,0,0,1,0,.5,1,1,0,0,1-.85,0,.27.27,0,0,1,0-.5A1,1,0,0,1,45.51,13Zm-.63.37a.45.45,0,0,0,.42,0c.12-.07.12-.17,0-.24a.47.47,0,0,0-.43,0c-.11.07-.11.18,0,.24" style="fill:#707070"/></g><g style="isolation:isolate"><path d="M45.4,5.93l0,7.36a.15.15,0,0,1-.09.12.47.47,0,0,1-.43,0,.15.15,0,0,1-.09-.12l0-7.36a.15.15,0,0,0,.08.13.5.5,0,0,0,.43,0C45.37,6,45.4,6,45.4,5.93Z" style="fill:#707070"/><path d="M45.31,5.81a.13.13,0,0,1,0,.25.5.5,0,0,1-.43,0,.14.14,0,0,1,0-.25A.47.47,0,0,1,45.31,5.81Z" style="fill:#707070"/></g><g style="isolation:isolate"><g style="isolation:isolate"><g style="clip-path:url(#a)"><g style="isolation:isolate"><path d="M8.64,38,36.2,22a.8.8,0,0,1,.16-.08l-27.55,16L8.64,38" style="fill:#727272"/><path d="M8.81,37.88l27.55-16,.14,0L9,37.84l-.14,0" style="fill:#777"/><path d="M9,37.84l27.55-16,.12,0-27.56,16H9" style="fill:#7b7b7b"/><path d="M9.06,37.83l27.56-16h.11l-27.56,16H9.06" style="fill:gray"/><path d="M9.17,37.82l27.56-16h.09l-27.56,16H9.17" style="fill:#848484"/><path d="M9.26,37.83l27.56-16h.09l-27.56,16H9.26" style="fill:#888"/><path d="M9.35,37.84l27.56-16,.09,0-27.56,16H9.35" style="fill:#8d8d8d"/><path d="M9.44,37.85,37,21.84h.08l-27.55,16-.09,0" style="fill:#919191"/><path d="M9.53,37.87l27.55-16,.09,0-27.56,16-.08,0" style="fill:#969696"/><path d="M9.61,37.89l27.56-16,.08,0-27.56,16-.08,0" style="fill:#9a9a9a"/><path d="M9.69,37.92l27.56-16,.08,0L9.77,38l-.08,0" style="fill:#9e9e9e"/><path d="M9.77,38l27.56-16,.08,0L9.85,38l-.08,0" style="fill:#a3a3a3"/><path d="M9.85,38,37.41,22a.2.2,0,0,1,.08,0L9.94,38l-.09,0" style="fill:#a7a7a7"/><path d="M9.94,38,37.49,22l.09,0L10,38.06l-.08,0" style="fill:#acacac"/><path d="M10,38.06l27.56-16,.06,0-27.56,16-.06,0" style="fill:#b0b0b0"/></g></g></g><g style="isolation:isolate"><g style="clip-path:url(#b)"><g style="isolation:isolate"><path d="M10.08,38.1l27.56-16h0l-27.56,16h0" style="fill:#b0b0b0"/><path d="M10.1,38.11l27.56-16,.09,0-27.56,16-.09,0" style="fill:#b4b4b4"/><path d="M10.19,38.16l27.56-16,.08.06-27.55,16-.09-.06" style="fill:#b9b9b9"/><path d="M10.28,38.22l27.55-16,.09.06-27.56,16-.08-.06" style="fill:#bdbdbd"/><path d="M10.36,38.28l27.56-16,.09.07-27.56,16-.09-.07" style="fill:#c2c2c2"/><path d="M10.45,38.35,38,22.34l.09.07-27.56,16-.09-.08" style="fill:#c6c6c6"/><path d="M10.54,38.43l27.56-16,.09.08-27.56,16-.09-.07" style="fill:#cacaca"/><path d="M10.63,38.5l27.56-16,.09.08-27.56,16-.09-.09" style="fill:#cfcfcf"/><path d="M10.72,38.59l27.56-16,.08.09-27.55,16-.09-.08" style="fill:#d3d3d3"/><path d="M10.81,38.67l27.55-16,.09.08-27.56,16-.08-.09" style="fill:#d8d8d8"/><path d="M10.89,38.76l27.56-16,.07.09L11,38.85l-.08-.09" style="fill:#dcdcdc"/><path d="M11,38.85l27.55-16,.08.09-27.55,16L11,38.85" style="fill:#e0e0e0"/><path d="M11.05,38.94l27.55-16,.08.1L11.12,39l-.07-.09" style="fill:#e2e2e2"/><path d="M11.12,39,38.68,23l.09.12-27.56,16L11.12,39" style="fill:#e3e3e3"/><path d="M11.21,39.15l27.56-16,.13.18-27.56,16-.13-.18" style="fill:#e4e4e4"/><path d="M11.34,39.33l27.56-16,.15.24-27.56,16-.15-.24" style="fill:#e5e5e5"/><path d="M11.49,39.57l27.56-16,.1.18-27.56,16a1.62,1.62,0,0,0-.1-.18" style="fill:#e4e4e4"/><path d="M11.59,39.75l27.56-16,.06.12-27.55,16-.07-.12" style="fill:#e3e3e3"/><path d="M11.66,39.87l27.55-16a.37.37,0,0,1,0,.11L11.71,40a.54.54,0,0,1-.05-.11" style="fill:#e2e2e2"/><path d="M11.71,40,39.26,24l.05.09-27.56,16,0-.1" style="fill:#e0e0e0"/><path d="M11.75,40.08l27.56-16a1,1,0,0,0,0,.1l-27.56,16a.36.36,0,0,0,0-.09" style="fill:#dcdcdc"/><path d="M11.79,40.17l27.56-16,0,.1-27.56,16a.69.69,0,0,0,0-.1" style="fill:#d8d8d8"/><path d="M11.83,40.27l27.56-16a.42.42,0,0,0,0,.1l-27.56,16,0-.1" style="fill:#d3d3d3"/><path d="M11.87,40.37l27.56-16,0,.1-27.55,16a.49.49,0,0,1,0-.11" style="fill:#cfcfcf"/><path d="M11.91,40.48l27.55-16s0,.07,0,.11l-27.56,16,0-.1" style="fill:#cacaca"/><path d="M11.94,40.58l27.56-16,0,.1L12,40.69l0-.11" style="fill:#c6c6c6"/><path d="M12,40.69l27.56-16,0,.11L12,40.8l0-.11" style="fill:#c2c2c2"/><path d="M12,40.8l27.56-16a.43.43,0,0,0,0,.11L12,40.9a.36.36,0,0,0,0-.1" style="fill:#bdbdbd"/><path d="M12,40.9l27.56-16a.36.36,0,0,1,0,.1L12.05,41l0-.11" style="fill:#b9b9b9"/><path d="M12.05,41,39.6,25s0,.07,0,.11l-27.56,16s0-.07,0-.1" style="fill:#b4b4b4"/><path d="M12.06,41.11l27.56-16a.31.31,0,0,1,0,.1l-27.55,16s0-.07,0-.1" style="fill:#b0b0b0"/><path d="M12.08,41.21l27.55-16s0,.06,0,.1l-27.56,16s0-.06,0-.1" style="fill:#acacac"/><path d="M12.09,41.31l27.56-16v.1l-27.55,16a.34.34,0,0,1,0-.1" style="fill:#a7a7a7"/><path d="M12.1,41.41l27.55-16a.28.28,0,0,1,0,.09l-27.56,16v-.1" style="fill:#a3a3a3"/><path d="M12.1,41.51l27.56-16v.1h0l-27.56,16h0v-.09" style="fill:#9e9e9e"/><path d="M12.1,41.61l27.56-16v.1L12.1,41.7v-.09" style="fill:#9a9a9a"/><path d="M12.1,41.7l27.56-16s0,.06,0,.1l-27.56,16a.31.31,0,0,0,0-.1" style="fill:#969696"/><path d="M12.09,41.8l27.56-16a.28.28,0,0,1,0,.09l-27.56,16a.34.34,0,0,0,0-.1" style="fill:#919191"/><path d="M12.08,41.9l27.56-16s0,.07,0,.1L12.07,42a.28.28,0,0,0,0-.09" style="fill:#8d8d8d"/><path d="M12.07,42,39.63,26a.36.36,0,0,0,0,.1l-27.56,16s0-.06,0-.1" style="fill:#888"/><path d="M12.05,42.09l27.56-16,0,.1L12,42.2l0-.11" style="fill:#848484"/><path d="M12,42.2l27.56-16a.36.36,0,0,1,0,.11L12,42.3l0-.1" style="fill:gray"/><path d="M12,42.3l27.55-16s0,.08,0,.12l-27.56,16L12,42.3" style="fill:#7b7b7b"/><path d="M11.94,42.42l27.56-16-.08.13-27.56,16a1,1,0,0,0,.08-.14" style="fill:#777"/><path d="M11.86,42.56l27.56-16a1,1,0,0,1-.35.35l-27.56,16a1,1,0,0,0,.35-.34" style="fill:#727272"/></g></g></g><path d="M10.08,38.1a4.44,4.44,0,0,1,2,3.5c0,1.29-.91,1.8-2,1.16a4.46,4.46,0,0,1-2-3.5C8.05,38,9,37.45,10.08,38.1Z" style="fill:#767676"/></g><g style="isolation:isolate"><polygon points="17.05 34.78 8.57 39.71 0.04 34.78 8.51 29.85 17.05 34.78" style="fill:#999"/><polygon points="17.05 34.78 17.01 47.04 8.53 51.96 8.57 39.71 17.05 34.78" style="fill:#898989"/><polygon points="8.57 39.71 8.53 51.96 0 47.04 0.04 34.78 8.57 39.71" style="fill:#5f5f5f"/></g></svg>