<svg xmlns="http://www.w3.org/2000/svg" xmlns:xlink="http://www.w3.org/1999/xlink" viewBox="0 0 205.76 302.83"><defs><linearGradient id="a" x1="119.42" y1="85.49" x2="110.81" y2="103.71" gradientUnits="userSpaceOnUse"><stop offset="0" stop-color="#dceaf7"/><stop offset="1" stop-color="#c9daea"/></linearGradient><linearGradient id="b" x1="42.42" y1="41.28" x2="33.81" y2="59.5" xlink:href="#a"/><linearGradient id="c" x1="79.72" y1="62.63" x2="71.11" y2="80.85" xlink:href="#a"/></defs><g style="isolation:isolate"><polygon points="205.43 87.61 130.39 131.22 9.84 61.62 84.88 18.01 205.43 87.61" style="fill:#c9daea"/><polygon points="205.43 87.61 204.94 259.23 129.9 302.83 130.39 131.22 205.43 87.61" style="fill:#b3c2ce"/><polygon points="130.39 131.22 129.9 302.83 9.35 233.24 9.84 61.62 130.39 131.22" style="fill:#778791"/></g><g style="isolation:isolate"><polygon points="205.64 80.3 127.48 125.72 5.88 55.52 84.05 10.1 205.64 80.3" style="fill:#c9daea"/><polygon points="205.64 80.3 205.62 87.66 127.46 133.08 127.48 125.72 205.64 80.3" style="fill:#c5c5c5"/><polygon points="127.48 125.72 127.46 133.08 5.86 62.88 5.88 55.52 127.48 125.72" style="fill:#898989"/></g><g style="isolation:isolate"><polygon points="83.52 2.96 83.49 12.76 5.1 58.32 5.13 48.51 83.52 2.96" style="fill:#c5c5c5"/><polygon points="200.66 70.58 200.63 80.39 83.49 12.76 83.52 2.96 200.66 70.58" style="fill:#898989"/><path d="M83.5,0,205.76,70.58,122.28,119.1,0,48.51Zm38.77,116.14,78.39-45.56L83.52,3,5.13,48.51l117.14,67.63" style="fill:#dcdcdc"/><polygon points="205.76 70.58 205.73 80.39 122.26 128.9 122.28 119.09 205.76 70.58" style="fill:#c5c5c5"/><polygon points="122.28 119.09 122.26 128.9 0 58.32 0.03 48.51 122.28 119.09" style="fill:#898989"/></g><g style="isolation:isolate"><polygon points="144 18.05 122.65 30.45 94.74 14.34 116.09 1.93 144 18.05" style="fill:#dcdcdc"/><polygon points="144 18.05 143.91 47.47 122.56 59.87 122.65 30.45 144 18.05" style="fill:#ae6a43"/><polygon points="122.65 30.45 122.56 59.87 94.66 43.76 94.74 14.34 122.65 30.45" style="fill:#898989"/></g><polygon points="122.65 30.31 137.38 68.35 107.75 51.24 122.65 30.31" style="fill:#898989"/><polygon points="122.65 30.31 143.85 17.99 158.58 56.03 137.38 68.35 122.65 30.31" style="fill:#c5c5c5"/><g style="isolation:isolate"><polygon points="104.78 48.88 104.84 27.57 111.38 31.35 111.32 52.65 104.78 48.88" style="fill:#88a2b5"/><polygon points="104.78 48.88 104.1 49.27 104.16 27.97 104.84 27.57 104.78 48.88" style="fill:#72493d"/><polygon points="111.32 52.65 110.65 53.05 104.1 49.27 104.78 48.88 111.32 52.65" style="fill:#72493d"/></g><polygon points="30.05 85.83 29.97 113.29 18.88 106.89 18.95 79.43 30.05 85.83" style="fill:#88a2b5"/><g style="isolation:isolate"><polygon points="18.67 107.01 19.73 106.4 30.18 112.43 29.12 113.05 18.67 107.01" style="fill:#dcdcdc"/><polygon points="18.75 80.29 19.8 79.67 19.73 106.4 18.67 107.01 18.75 80.29" style="fill:#c5c5c5"/><path d="M18.11,79.18,29.84,86l-.08,28.19L18,107.38Zm11,33.87.08-26.73-10.45-6L18.67,107l10.45,6" style="fill:#898989"/><polygon points="18.11 79.18 19.17 78.57 30.9 85.34 29.84 85.96 18.11 79.18" style="fill:#898989"/><polygon points="29.84 85.96 30.9 85.34 30.82 113.54 29.76 114.15 29.84 85.96" style="fill:#778791"/></g><polygon points="45.09 94.56 45.01 122.01 33.91 115.61 33.99 88.15 45.09 94.56" style="fill:#88a2b5"/><g style="isolation:isolate"><polygon points="33.71 115.73 34.77 115.12 45.22 121.15 44.16 121.77 33.71 115.73" style="fill:#dcdcdc"/><polygon points="33.78 89.01 34.84 88.39 34.77 115.12 33.71 115.73 33.78 89.01" style="fill:#c5c5c5"/><path d="M33.15,87.91l11.73,6.77-.08,28.2L33.07,116.1Zm11,33.86L44.24,95,33.78,89l-.07,26.72,10.45,6" style="fill:#898989"/><polygon points="33.15 87.91 34.21 87.29 45.94 94.06 44.88 94.68 33.15 87.91" style="fill:#778791"/><polygon points="44.88 94.68 45.94 94.06 45.86 122.26 44.8 122.88 44.88 94.68" style="fill:#778791"/></g><polygon points="117.27 136.06 117.19 163.52 106.1 157.11 106.17 129.66 117.27 136.06" style="fill:#88a2b5"/><g style="isolation:isolate"><polygon points="105.89 157.24 106.95 156.62 117.4 162.66 116.34 163.28 105.89 157.24" style="fill:#dcdcdc"/><polygon points="105.97 130.51 107.03 129.9 106.95 156.62 105.89 157.24 105.97 130.51" style="fill:#c5c5c5"/><path d="M105.33,129.41l11.73,6.78L117,164.38l-11.73-6.77Zm11,33.86.08-26.72-10.45-6-.08,26.73,10.45,6" style="fill:#898989"/><polygon points="105.33 129.41 106.39 128.79 118.12 135.57 117.06 136.19 105.33 129.41" style="fill:#778791"/><polygon points="117.06 136.19 118.12 135.57 118.04 163.76 116.98 164.38 117.06 136.19" style="fill:#778791"/></g><polygon points="101.63 127.04 101.55 154.5 90.46 148.09 90.54 120.63 101.63 127.04" style="fill:#88a2b5"/><g style="isolation:isolate"><polygon points="90.25 148.22 91.31 147.6 101.76 153.64 100.7 154.25 90.25 148.22" style="fill:#dcdcdc"/><polygon points="90.33 121.49 91.39 120.88 91.31 147.6 90.25 148.22 90.33 121.49" style="fill:#c5c5c5"/><path d="M89.69,120.39l11.73,6.77-.08,28.2-11.73-6.78Zm11,33.86.08-26.72-10.45-6-.08,26.73,10.45,6" style="fill:#898989"/><polygon points="89.69 120.39 90.75 119.77 102.48 126.55 101.42 127.16 89.69 120.39" style="fill:#778791"/><polygon points="101.42 127.16 102.48 126.55 102.4 154.74 101.34 155.36 101.42 127.16" style="fill:#778791"/></g><polygon points="71.56 109.89 71.48 137.35 60.38 130.95 60.46 103.49 71.56 109.89" style="fill:#88a2b5"/><g style="isolation:isolate"><polygon points="60.17 131.07 61.23 130.46 71.69 136.49 70.63 137.11 60.17 131.07" style="fill:#dcdcdc"/><polygon points="60.25 104.35 61.31 103.73 61.23 130.46 60.17 131.07 60.25 104.35" style="fill:#c5c5c5"/><path d="M59.61,103.24,71.35,110l-.08,28.19-11.74-6.77Zm11,33.87.07-26.73-10.45-6-.08,26.72,10.46,6" style="fill:#898989"/><polygon points="59.61 103.24 60.67 102.63 72.41 109.4 71.35 110.02 59.61 103.24" style="fill:#778791"/><polygon points="71.35 110.02 72.41 109.4 72.33 137.6 71.27 138.21 71.35 110.02" style="fill:#778791"/></g><polygon points="30.05 124.93 29.97 152.39 18.88 145.99 18.95 118.53 30.05 124.93" style="fill:#88a2b5"/><g style="isolation:isolate"><polygon points="18.67 146.11 19.73 145.5 30.18 151.53 29.12 152.15 18.67 146.11" style="fill:#dcdcdc"/><polygon points="18.75 119.39 19.8 118.77 19.73 145.5 18.67 146.11 18.75 119.39" style="fill:#c5c5c5"/><path d="M18.11,118.28l11.73,6.78-.08,28.19L18,146.48Zm11,33.87.08-26.73-10.45-6-.08,26.72,10.45,6" style="fill:#898989"/><polygon points="18.11 118.28 19.17 117.67 30.9 124.44 29.84 125.06 18.11 118.28" style="fill:#898989"/><polygon points="29.84 125.06 30.9 124.44 30.82 152.64 29.76 153.25 29.84 125.06" style="fill:#778791"/></g><polygon points="45.09 133.66 45.01 161.11 33.91 154.71 33.99 127.25 45.09 133.66" style="fill:#88a2b5"/><g style="isolation:isolate"><polygon points="33.71 154.83 34.77 154.22 45.22 160.25 44.16 160.87 33.71 154.83" style="fill:#dcdcdc"/><polygon points="33.78 128.11 34.84 127.49 34.77 154.22 33.71 154.83 33.78 128.11" style="fill:#c5c5c5"/><path d="M33.15,127l11.73,6.78L44.8,162,33.07,155.2Zm11,33.87.08-26.73-10.46-6-.07,26.72,10.45,6" style="fill:#898989"/><polygon points="33.15 127 34.21 126.39 45.94 133.16 44.88 133.78 33.15 127" style="fill:#778791"/><polygon points="44.88 133.78 45.94 133.16 45.86 161.36 44.8 161.97 44.88 133.78" style="fill:#778791"/></g><polygon points="117.27 175.16 117.19 202.62 106.1 196.21 106.17 168.75 117.27 175.16" style="fill:#88a2b5"/><g style="isolation:isolate"><polygon points="105.89 196.34 106.95 195.72 117.4 201.76 116.34 202.37 105.89 196.34" style="fill:#dcdcdc"/><polygon points="105.97 169.61 107.03 169 106.95 195.72 105.89 196.34 105.97 169.61" style="fill:#c5c5c5"/><path d="M105.33,168.51l11.73,6.77-.08,28.2-11.73-6.78Zm11,33.86.08-26.72-10.45-6-.08,26.73,10.45,6" style="fill:#898989"/><polygon points="105.33 168.51 106.39 167.89 118.12 174.67 117.06 175.28 105.33 168.51" style="fill:#778791"/><polygon points="117.06 175.28 118.12 174.67 118.04 202.86 116.98 203.48 117.06 175.28" style="fill:#778791"/></g><polygon points="101.63 166.14 101.55 193.59 90.46 187.19 90.54 159.73 101.63 166.14" style="fill:#88a2b5"/><g style="isolation:isolate"><polygon points="90.25 187.31 91.31 186.7 101.76 192.74 100.7 193.35 90.25 187.31" style="fill:#dcdcdc"/><polygon points="90.33 160.59 91.39 159.97 91.31 186.7 90.25 187.31 90.33 160.59" style="fill:#c5c5c5"/><path d="M89.69,159.49l11.73,6.77-.08,28.2-11.73-6.78Zm11,33.86.08-26.72-10.45-6-.08,26.73,10.45,6" style="fill:#898989"/><polygon points="89.69 159.49 90.75 158.87 102.48 165.65 101.42 166.26 89.69 159.49" style="fill:#778791"/><polygon points="101.42 166.26 102.48 165.65 102.4 193.84 101.34 194.46 101.42 166.26" style="fill:#778791"/></g><polygon points="71.56 148.99 71.48 176.45 60.38 170.05 60.46 142.59 71.56 148.99" style="fill:#88a2b5"/><g style="isolation:isolate"><polygon points="60.17 170.17 61.23 169.56 71.69 175.59 70.63 176.21 60.17 170.17" style="fill:#dcdcdc"/><polygon points="60.25 143.45 61.31 142.83 61.23 169.56 60.17 170.17 60.25 143.45" style="fill:#c5c5c5"/><path d="M59.61,142.34l11.74,6.78-.08,28.19-11.74-6.77Zm11,33.87.07-26.73-10.45-6-.08,26.72,10.46,6" style="fill:#898989"/><polygon points="59.61 142.34 60.67 141.73 72.41 148.5 71.35 149.12 59.61 142.34" style="fill:#778791"/><polygon points="71.35 149.12 72.41 148.5 72.33 176.7 71.27 177.31 71.35 149.12" style="fill:#778791"/></g><polygon points="30.05 164.03 29.97 191.49 18.88 185.08 18.95 157.63 30.05 164.03" style="fill:#88a2b5"/><g style="isolation:isolate"><polygon points="18.67 185.21 19.73 184.59 30.18 190.63 29.12 191.25 18.67 185.21" style="fill:#dcdcdc"/><polygon points="18.75 158.49 19.8 157.87 19.73 184.59 18.67 185.21 18.75 158.49" style="fill:#c5c5c5"/><path d="M18.11,157.38l11.73,6.78-.08,28.19L18,185.58Zm11,33.87.08-26.73-10.45-6-.08,26.73,10.45,6" style="fill:#898989"/><polygon points="18.11 157.38 19.17 156.76 30.9 163.54 29.84 164.16 18.11 157.38" style="fill:#898989"/><polygon points="29.84 164.16 30.9 163.54 30.82 191.74 29.76 192.35 29.84 164.16" style="fill:#778791"/></g><polygon points="45.09 172.75 45.01 200.21 33.91 193.81 33.99 166.35 45.09 172.75" style="fill:#88a2b5"/><g style="isolation:isolate"><polygon points="33.71 193.93 34.77 193.32 45.22 199.35 44.16 199.97 33.71 193.93" style="fill:#dcdcdc"/><polygon points="33.78 167.21 34.84 166.59 34.77 193.32 33.71 193.93 33.78 167.21" style="fill:#c5c5c5"/><path d="M33.15,166.1l11.73,6.78-.08,28.19L33.07,194.3Zm11,33.87.08-26.73-10.46-6-.07,26.72,10.45,6" style="fill:#898989"/><polygon points="33.15 166.1 34.21 165.49 45.94 172.26 44.88 172.88 33.15 166.1" style="fill:#778791"/><polygon points="44.88 172.88 45.94 172.26 45.86 200.46 44.8 201.07 44.88 172.88" style="fill:#778791"/></g><polygon points="117.27 214.26 117.19 241.72 106.1 235.31 106.17 207.85 117.27 214.26" style="fill:#88a2b5"/><g style="isolation:isolate"><polygon points="105.89 235.44 106.95 234.82 117.4 240.86 116.34 241.47 105.89 235.44" style="fill:#dcdcdc"/><polygon points="105.97 208.71 107.03 208.1 106.95 234.82 105.89 235.44 105.97 208.71" style="fill:#c5c5c5"/><path d="M105.33,207.61l11.73,6.77-.08,28.2-11.73-6.78Zm11,33.86.08-26.72-10.45-6-.08,26.73,10.45,6" style="fill:#898989"/><polygon points="105.33 207.61 106.39 206.99 118.12 213.77 117.06 214.38 105.33 207.61" style="fill:#778791"/><polygon points="117.06 214.38 118.12 213.77 118.04 241.96 116.98 242.58 117.06 214.38" style="fill:#778791"/></g><polygon points="101.63 205.24 101.55 232.69 90.46 226.29 90.54 198.83 101.63 205.24" style="fill:#88a2b5"/><g style="isolation:isolate"><polygon points="90.25 226.41 91.31 225.8 101.76 231.83 100.7 232.45 90.25 226.41" style="fill:#dcdcdc"/><polygon points="90.33 199.69 91.39 199.07 91.31 225.8 90.25 226.41 90.33 199.69" style="fill:#c5c5c5"/><path d="M89.69,198.58l11.73,6.78-.08,28.19-11.73-6.77Zm11,33.87.08-26.73-10.45-6-.08,26.72,10.45,6" style="fill:#898989"/><polygon points="89.69 198.59 90.75 197.97 102.48 204.74 101.42 205.36 89.69 198.59" style="fill:#778791"/><polygon points="101.42 205.36 102.48 204.74 102.4 232.94 101.34 233.56 101.42 205.36" style="fill:#778791"/></g><polygon points="71.56 188.09 71.48 215.55 60.38 209.15 60.46 181.69 71.56 188.09" style="fill:#88a2b5"/><g style="isolation:isolate"><polygon points="60.17 209.27 61.23 208.66 71.69 214.69 70.63 215.31 60.17 209.27" style="fill:#dcdcdc"/><polygon points="60.25 182.55 61.31 181.93 61.23 208.66 60.17 209.27 60.25 182.55" style="fill:#c5c5c5"/><path d="M59.61,181.44l11.74,6.78-.08,28.19-11.74-6.77Zm11,33.87.07-26.73-10.45-6-.08,26.72,10.46,6" style="fill:#898989"/><polygon points="59.61 181.44 60.67 180.83 72.41 187.6 71.35 188.22 59.61 181.44" style="fill:#778791"/><polygon points="71.35 188.22 72.41 187.6 72.33 215.79 71.27 216.41 71.35 188.22" style="fill:#778791"/></g><g style="isolation:isolate"><polygon points="86.88 238.39 86.76 279.33 16.41 238.71 16.52 197.77 86.88 238.39" style="fill:#898989"/><polygon points="86.88 238.39 87.94 237.77 87.82 278.72 86.76 279.33 86.88 238.39" style="fill:#c5c5c5"/><polygon points="16.52 197.77 17.58 197.15 87.94 237.77 86.88 238.39 16.52 197.77" style="fill:#dcdcdc"/></g><polygon points="81.72 240.9 81.63 275.29 20.27 239.87 20.37 205.48 81.72 240.9" style="fill:#88a2b5"/><g style="isolation:isolate"><polygon points="20.16 206.34 21.22 205.73 21.12 239.38 20.06 239.99 20.16 206.34" style="fill:#c5c5c5"/><polygon points="20.06 239.99 21.12 239.38 81.84 274.43 80.78 275.05 20.06 239.99" style="fill:#dcdcdc"/><path d="M19.52,205.24l62,35.79-.09,35.12-62-35.79ZM80.78,275l.09-33.64L20.16,206.34,20.06,240,80.78,275" style="fill:#898989"/><polygon points="19.52 205.24 20.58 204.62 82.58 240.41 81.52 241.03 19.52 205.24" style="fill:#898989"/><polygon points="81.52 241.03 82.58 240.41 82.47 275.53 81.42 276.15 81.52 241.03" style="fill:#898989"/></g><g style="isolation:isolate"><polygon points="108.94 289.58 109.03 256.24 119.27 262.15 119.18 295.5 108.94 289.58" style="fill:#88a2b5"/><polygon points="108.94 289.58 107.88 290.2 107.97 256.86 109.03 256.24 108.94 289.58" style="fill:#72493d"/><polygon points="119.18 295.5 118.12 296.11 107.88 290.2 108.94 289.58 119.18 295.5" style="fill:#72493d"/></g><g style="isolation:isolate"><polygon points="99 283.82 99.09 250.48 109.33 256.39 109.23 289.73 99 283.82" style="fill:#88a2b5"/><polygon points="99 283.82 97.94 284.44 98.03 251.09 99.09 250.48 99 283.82" style="fill:#72493d"/><polygon points="109.23 289.73 108.17 290.35 97.94 284.44 99 283.82 109.23 289.73" style="fill:#72493d"/></g><g style="isolation:isolate"><polyline points="120.34 87.09 140.26 98.6 120.47 110.1 100.54 98.6" style="fill:#758c9c"/><polygon points="140.26 98.6 140.26 100.17 120.46 111.67 120.47 110.1 140.26 98.6" style="fill:#b3c2ce"/><polygon points="120.47 110.1 120.46 111.67 100.54 100.17 100.54 98.6 120.47 110.1" style="fill:#778791"/></g><polygon points="100.54 98.6 119.38 83.83 120.47 110.1 100.54 98.6" style="fill:url(#a)"/><polygon points="140.26 98.6 120.47 110.1 119.38 83.83 140.26 98.6" style="fill:#dceaf7"/><g style="isolation:isolate"><polyline points="43.34 42.88 63.27 54.39 43.47 65.89 23.55 54.39" style="fill:#758c9c"/><polygon points="63.27 54.39 63.26 55.96 43.47 67.46 43.47 65.89 63.27 54.39" style="fill:#b3c2ce"/><polygon points="43.47 65.89 43.47 67.46 23.54 55.96 23.55 54.39 43.47 65.89" style="fill:#778791"/></g><polygon points="23.55 54.39 42.39 39.62 43.47 65.89 23.55 54.39" style="fill:url(#b)"/><polygon points="63.27 54.39 43.47 65.89 42.39 39.62 63.27 54.39" style="fill:#dceaf7"/><g style="isolation:isolate"><polyline points="80.64 64.24 100.56 75.74 80.77 87.25 60.84 75.74" style="fill:#758c9c"/><polygon points="100.56 75.74 100.56 77.31 80.76 88.81 80.77 87.25 100.56 75.74" style="fill:#b3c2ce"/><polygon points="80.77 87.25 80.76 88.81 60.84 77.31 60.84 75.74 80.77 87.25" style="fill:#778791"/></g><polygon points="60.84 75.74 79.68 60.97 80.77 87.25 60.84 75.74" style="fill:url(#c)"/><polygon points="100.56 75.74 80.77 87.25 79.68 60.97 100.56 75.74" style="fill:#dceaf7"/></svg>