<svg xmlns="http://www.w3.org/2000/svg" viewBox="0 0 122.25 113.6"><g style="opacity:0.2"><ellipse cx="93.32" cy="96.5" rx="5.95" ry="14.93" transform="translate(-32.19 144.11) rotate(-66.73)" style="fill:#4d4d4d"/></g><polygon points="117.17 106.34 106.78 112.37 96.33 106.33 106.72 100.3 117.17 106.34" style="fill:#708e4d"/><g style="isolation:isolate"><polygon points="106.72 99.08 117.17 105.11 117.17 107.56 106.71 101.53 106.72 99.08" style="fill:#8b5947"/><polygon points="96.33 105.11 106.72 99.08 106.71 101.53 96.33 107.56 96.33 105.11" style="fill:#8b5947"/><polygon points="117.17 105.11 117.17 107.56 106.78 113.6 106.79 111.15 117.17 105.11" style="fill:#8b5947"/><polygon points="106.79 111.15 106.78 113.6 96.33 107.56 96.33 105.11 106.79 111.15" style="fill:#8b5947"/></g><ellipse cx="113.25" cy="77.91" rx="9" ry="11.29" style="fill:#8c9b57"/><path d="M114.16,87.39c-5,0-9-5-9-11.28a13.7,13.7,0,0,1,1-5.07,13.27,13.27,0,0,0-1.86,6.87c0,6.24,4,11.29,9,11.29,3.52,0,6.57-2.54,8-6.23A8.51,8.51,0,0,1,114.16,87.39Z" style="fill:#869156"/><path d="M113.25,66.45a8.34,8.34,0,0,0-6.72,3.79,7.57,7.57,0,0,1,4.32-1.38c5,0,9,5,9,11.29a13,13,0,0,1-2.28,7.5,12,12,0,0,0,4.68-9.91C122.25,71.51,118.22,66.45,113.25,66.45Z" style="fill:#82b650"/><rect x="105.12" y="72.74" width="2.42" height="33.69" style="fill:#552904"/><rect x="105.79" y="72.74" width="2.42" height="33.69" style="fill:#82592c"/><ellipse cx="106.33" cy="61.27" rx="13.05" ry="15.47" style="fill:#8c9b57"/><ellipse cx="99.46" cy="75.02" rx="8.39" ry="9.75" style="fill:#8c9b57"/><path d="M100.32,83.56c-4.63,0-8.39-4.36-8.39-9.74a10.77,10.77,0,0,1,1.54-5.62A10.55,10.55,0,0,0,91.07,75c0,5.38,3.75,9.75,8.39,9.75a8.11,8.11,0,0,0,6.85-4.13A7.84,7.84,0,0,1,100.32,83.56Z" style="fill:#869156"/><path d="M99.46,65.25a8.07,8.07,0,0,0-6.74,3.94,7.63,7.63,0,0,1,5-1.93c4.63,0,8.39,4.37,8.39,9.75a10.75,10.75,0,0,1-1.66,5.81A10.29,10.29,0,0,0,107.85,75C107.85,69.62,104.09,65.25,99.46,65.25Z" style="fill:#82b650"/><path d="M106.33,45.8a11.74,11.74,0,0,0-7.88,3.14,11.16,11.16,0,0,1,3.07-.43c7.2,0,13,6.93,13,15.47A16.57,16.57,0,0,1,109.4,76.3c5.72-1.63,10-7.74,10-15C119.38,52.73,113.53,45.8,106.33,45.8Z" style="fill:#82b650"/><g style="opacity:0.2"><path d="M59.14,69.7c6.89,4,9.73,8.81,6.33,10.78s-11.73.34-18.62-3.64S37.12,68,40.51,66.07,52.25,65.72,59.14,69.7Z" style="fill:#4d4d4d"/></g><polygon points="76.84 83.11 66.46 89.15 56 83.11 66.39 77.07 76.84 83.11" style="fill:#708e4d"/><g style="isolation:isolate"><polygon points="66.39 75.85 76.84 81.89 76.84 84.34 66.38 78.3 66.39 75.85" style="fill:#8b5947"/><polygon points="56 81.89 66.39 75.85 66.38 78.3 56 84.34 56 81.89" style="fill:#8b5947"/><polygon points="76.84 81.89 76.84 84.34 66.45 90.37 66.46 87.92 76.84 81.89" style="fill:#8b5947"/><polygon points="66.46 87.92 66.45 90.37 56 84.34 56 81.89 66.46 87.92" style="fill:#8b5947"/></g><ellipse cx="72.92" cy="54.68" rx="9" ry="11.29" style="fill:#8c9b57"/><path d="M73.83,64.17c-5,0-9-5.05-9-11.29a13.6,13.6,0,0,1,1-5.06,13.2,13.2,0,0,0-1.86,6.86c0,6.24,4,11.29,9,11.29,3.52,0,6.57-2.53,8-6.22A8.51,8.51,0,0,1,73.83,64.17Z" style="fill:#869156"/><path d="M72.92,43.23A8.31,8.31,0,0,0,66.2,47a7.51,7.51,0,0,1,4.32-1.39c5,0,9,5.06,9,11.29a13,13,0,0,1-2.28,7.5,12,12,0,0,0,4.68-9.9C81.92,48.28,77.89,43.23,72.92,43.23Z" style="fill:#82b650"/><rect x="64.79" y="49.51" width="2.42" height="33.69" style="fill:#552904"/><rect x="65.46" y="49.51" width="2.42" height="33.69" style="fill:#82592c"/><ellipse cx="66" cy="38.05" rx="13.05" ry="15.47" style="fill:#8c9b57"/><ellipse cx="59.13" cy="51.8" rx="8.39" ry="9.75" style="fill:#8c9b57"/><path d="M60,60.34c-4.63,0-8.39-4.37-8.39-9.75A10.73,10.73,0,0,1,53.14,45a10.51,10.51,0,0,0-2.4,6.82c0,5.38,3.75,9.74,8.39,9.74A8.11,8.11,0,0,0,66,57.41,7.85,7.85,0,0,1,60,60.34Z" style="fill:#869156"/><path d="M59.13,42A8.06,8.06,0,0,0,52.39,46a7.62,7.62,0,0,1,5-1.92c4.63,0,8.39,4.36,8.39,9.74a10.81,10.81,0,0,1-1.66,5.82,10.31,10.31,0,0,0,3.39-7.83C67.52,46.39,63.76,42,59.13,42Z" style="fill:#82b650"/><path d="M66,22.58a11.74,11.74,0,0,0-7.88,3.14,11.17,11.17,0,0,1,3.07-.44c7.2,0,13,6.93,13,15.47a16.57,16.57,0,0,1-5.16,12.33c5.72-1.64,10-7.75,10-15C79.05,29.5,73.2,22.58,66,22.58Z" style="fill:#82b650"/><g style="opacity:0.2"><ellipse cx="13.92" cy="50.69" rx="5.95" ry="14.93" transform="translate(-38.15 43.45) rotate(-66.73)" style="fill:#4d4d4d"/></g><polygon points="37.77 60.53 27.38 66.57 16.92 60.53 27.31 54.5 37.77 60.53" style="fill:#708e4d"/><g style="isolation:isolate"><polygon points="27.31 53.27 37.77 59.31 37.76 61.76 27.3 55.72 27.31 53.27" style="fill:#8b5947"/><polygon points="16.93 59.31 27.31 53.27 27.3 55.72 16.92 61.76 16.93 59.31" style="fill:#8b5947"/><polygon points="37.77 59.31 37.76 61.76 27.37 67.79 27.38 65.34 37.77 59.31" style="fill:#8b5947"/><polygon points="27.38 65.34 27.37 67.79 16.92 61.76 16.93 59.31 27.38 65.34" style="fill:#8b5947"/></g><ellipse cx="33.85" cy="32.11" rx="9" ry="11.29" style="fill:#8c9b57"/><path d="M34.75,41.59c-5,0-9-5.05-9-11.29a13.41,13.41,0,0,1,1-5.06,13.12,13.12,0,0,0-1.86,6.87c0,6.23,4,11.29,9,11.29,3.51,0,6.56-2.54,8-6.23A8.51,8.51,0,0,1,34.75,41.59Z" style="fill:#869156"/><path d="M33.85,20.65a8.31,8.31,0,0,0-6.73,3.79,7.61,7.61,0,0,1,4.32-1.39c5,0,9,5.06,9,11.29a13,13,0,0,1-2.28,7.5,12,12,0,0,0,4.69-9.9C42.85,25.7,38.82,20.65,33.85,20.65Z" style="fill:#82b650"/><rect x="25.71" y="26.93" width="2.42" height="33.69" style="fill:#552904"/><rect x="26.38" y="26.93" width="2.42" height="33.69" style="fill:#82592c"/><ellipse cx="26.92" cy="15.47" rx="13.05" ry="15.47" style="fill:#8c9b57"/><ellipse cx="20.05" cy="29.22" rx="8.39" ry="9.75" style="fill:#8c9b57"/><path d="M20.92,37.76c-4.64,0-8.39-4.36-8.39-9.75a10.72,10.72,0,0,1,1.53-5.61,10.59,10.59,0,0,0-2.4,6.82c0,5.38,3.76,9.74,8.39,9.74a8.1,8.1,0,0,0,6.86-4.13A7.83,7.83,0,0,1,20.92,37.76Z" style="fill:#869156"/><path d="M20.05,19.45a8.07,8.07,0,0,0-6.73,3.93,7.57,7.57,0,0,1,5-1.92c4.64,0,8.39,4.36,8.39,9.75A10.77,10.77,0,0,1,25.06,37a10.34,10.34,0,0,0,3.38-7.82C28.44,23.81,24.69,19.45,20.05,19.45Z" style="fill:#82b650"/><path d="M26.92,0A11.74,11.74,0,0,0,19,3.14a11.16,11.16,0,0,1,3.07-.43c7.2,0,13,6.92,13,15.46A16.54,16.54,0,0,1,30,30.5c5.72-1.64,10-7.74,10-15C40,6.93,34.13,0,26.92,0Z" style="fill:#82b650"/></svg>