<svg xmlns="http://www.w3.org/2000/svg" viewBox="0 0 144.27 98.95"><g style="opacity:0.4"><polygon points="143.84 69.78 143.76 98.95 94.9 70.74 94.98 41.57 143.84 69.78" style="fill:#321c12"/></g><g style="isolation:isolate"><polygon points="0.55 13.46 23.72 0 27.56 2.22 4.39 15.68 0.55 13.46" style="fill:#fc5832"/><polygon points="8.23 17.9 31.4 4.43 35.35 6.71 12.18 20.18 8.23 17.9" style="fill:#fc5832"/><polygon points="31.4 4.43 8.23 17.9 3.84 20.45 0 18.23 4.39 15.68 27.56 2.22 31.4 4.43" style="fill:#fff"/><polygon points="16.02 22.4 39.19 8.93 43.13 11.21 19.96 24.68 16.02 22.4" style="fill:#fc5832"/><polygon points="39.19 8.93 16.02 22.4 11.63 24.95 7.79 22.73 12.18 20.18 35.35 6.71 39.19 8.93" style="fill:#fff"/><polygon points="23.8 26.89 46.98 13.43 50.92 15.71 27.75 29.17 23.8 26.89" style="fill:#fc5832"/><polygon points="46.98 13.43 23.8 26.89 19.42 29.44 15.58 27.23 19.96 24.68 43.13 11.21 46.98 13.43" style="fill:#fff"/><polygon points="31.59 31.39 54.76 17.92 58.71 20.2 35.54 33.67 31.59 31.39" style="fill:#fc5832"/><polygon points="54.76 17.92 31.59 31.39 27.2 33.94 23.36 31.72 27.75 29.17 50.92 15.71 54.76 17.92" style="fill:#fff"/><polygon points="39.38 35.88 62.55 22.42 66.5 24.7 43.33 38.16 39.38 35.88" style="fill:#fc5832"/><polygon points="62.55 22.42 39.38 35.88 34.99 38.44 31.15 36.22 35.54 33.67 58.71 20.2 62.55 22.42" style="fill:#fff"/><polygon points="70.34 26.92 47.17 40.38 42.78 42.93 38.94 40.71 43.33 38.16 66.5 24.7 70.34 26.92" style="fill:#fff"/><polygon points="54.96 44.88 78.13 31.41 82.07 33.69 58.9 47.16 54.96 44.88" style="fill:#fc5832"/><polygon points="78.13 31.41 54.96 44.88 50.57 47.43 46.73 45.21 51.12 42.66 74.28 29.2 78.13 31.41" style="fill:#fff"/><polygon points="62.74 49.37 85.91 35.91 89.86 38.19 66.69 51.65 62.74 49.37" style="fill:#fc5832"/><polygon points="85.91 35.91 62.74 49.37 58.35 51.92 54.51 49.71 58.9 47.16 82.07 33.69 85.91 35.91" style="fill:#fff"/><polygon points="70.53 53.87 93.7 40.41 97.65 42.68 74.48 56.15 70.53 53.87" style="fill:#fc5832"/><polygon points="93.7 40.41 70.53 53.87 66.14 56.42 62.3 54.2 66.69 51.65 89.86 38.19 93.7 40.41" style="fill:#fff"/><polygon points="78.32 58.37 101.49 44.9 105.44 47.18 82.27 60.65 78.32 58.37" style="fill:#fc5832"/><polygon points="101.49 44.9 78.32 58.37 73.93 60.91 70.09 58.7 74.48 56.15 97.65 42.68 101.49 44.9" style="fill:#fff"/><polygon points="86.11 62.86 109.28 49.4 113.22 51.68 90.05 65.14 86.11 62.86" style="fill:#fc5832"/><polygon points="109.28 49.4 86.11 62.86 81.72 65.41 77.88 63.2 82.27 60.65 105.44 47.18 109.28 49.4" style="fill:#fff"/><polygon points="93.89 67.36 117.06 53.89 121.01 56.17 97.84 69.64 93.89 67.36" style="fill:#fc5832"/><polygon points="117.06 53.89 93.89 67.36 89.51 69.91 85.67 67.69 90.05 65.14 113.22 51.68 117.06 53.89" style="fill:#fff"/><polygon points="101.68 71.85 124.85 58.39 128.8 60.67 105.63 74.13 101.68 71.85" style="fill:#fc5832"/><polygon points="124.85 58.39 101.68 71.85 97.29 74.4 93.45 72.19 97.84 69.64 121.01 56.17 124.85 58.39" style="fill:#fff"/><polygon points="109.47 76.35 132.64 62.89 136.59 65.16 113.42 78.63 109.47 76.35" style="fill:#fc5832"/><polygon points="132.64 62.89 109.47 76.35 105.08 78.9 101.24 76.68 105.63 74.13 128.8 60.67 132.64 62.89" style="fill:#fff"/><polygon points="140.43 67.38 144.27 69.6 121.1 83.06 117.26 80.85 140.43 67.38" style="fill:#fc5832"/><path d="M121.1,83.06l-4.39,2.55L0,18.23l.55-4.77,3.84,2.22L0,18.23l3.84,2.22L8.23,17.9l3.95,2.28L7.79,22.73,11.63,25,16,22.4,20,24.68l-4.38,2.55,3.84,2.21,4.39-2.55,3.94,2.28-4.39,2.55,3.84,2.22,4.39-2.55,3.95,2.28-4.39,2.55L35,38.44l4.39-2.55,3.95,2.27-4.39,2.55,3.84,2.22,4.39-2.55,3.95,2.28-4.39,2.55,3.84,2.22L55,44.88l3.94,2.28-4.39,2.55,3.84,2.21,4.39-2.55,3.95,2.28L62.3,54.2l3.84,2.22,4.39-2.55,4,2.28L70.09,58.7l3.84,2.22,4.39-2.55,4,2.27-4.39,2.55,3.84,2.22,4.39-2.55,3.94,2.28-4.38,2.55,3.84,2.22,4.38-2.55,4,2.28-4.39,2.55,3.84,2.21,4.39-2.55,3.95,2.28-4.39,2.55,3.84,2.22,4.39-2.55,4,2.28L109,81.18l3.84,2.22,4.39-2.55Z" style="fill:#fc5832"/><polygon points="140.43 67.38 117.26 80.85 112.87 83.4 109.03 81.18 113.42 78.63 136.59 65.17 140.43 67.38" style="fill:#fff"/></g><polygon points="47.17 40.38 70.34 26.92 74.28 29.2 51.12 42.66 47.17 40.38" style="fill:#fc5832"/></svg>