<svg xmlns="http://www.w3.org/2000/svg" viewBox="0 0 165.63 158.93"><polygon points="136.31 62.04 105.25 80.09 62.57 55.45 93.64 37.4 136.31 62.04" style="fill:#709d45"/><g style="isolation:isolate"><polygon points="62.58 54.14 93.64 36.09 93.63 38.71 62.57 56.76 62.58 54.14" style="fill:#997a5d"/><polygon points="93.64 36.09 136.32 60.73 136.31 63.35 93.63 38.71 93.64 36.09" style="fill:#6a5540"/><polygon points="136.32 60.73 136.31 63.35 105.25 81.4 105.25 78.78 136.32 60.73" style="fill:#997a5d"/><polygon points="105.25 78.78 105.25 81.4 62.57 56.76 62.58 54.14 105.25 78.78" style="fill:#6a5540"/></g><ellipse cx="97.95" cy="70.33" rx="3.76" ry="1.95" style="fill:#8c9b57"/><path d="M99.13,71.9c-2.08,0-3.76-.88-3.76-2,0-.62.54-1.17,1.39-1.53-1.5.26-2.58,1-2.58,1.87,0,1.08,1.68,2,3.76,2a6.07,6.07,0,0,0,2.37-.44A6.4,6.4,0,0,1,99.13,71.9Z" style="fill:#869156"/><ellipse cx="110.63" cy="67.86" rx="4.15" ry="2.39" style="fill:#8c9b57"/><path d="M111.49,69.79c-2.29,0-4.15-1.07-4.15-2.39a1.9,1.9,0,0,1,.93-1.5c-1.09.43-1.8,1.15-1.8,2,0,1.32,1.86,2.39,4.16,2.39a5.74,5.74,0,0,0,3.23-.89A6.46,6.46,0,0,1,111.49,69.79Z" style="fill:#869156"/><path d="M110.63,65.48a6.15,6.15,0,0,0-2.85.64,7,7,0,0,1,1.83-.24c2.29,0,4.15,1.07,4.15,2.39A2.1,2.1,0,0,1,112.45,70c1.38-.38,2.33-1.2,2.33-2.14C114.78,66.54,112.92,65.48,110.63,65.48Z" style="fill:#82b650"/><ellipse cx="106.03" cy="70.7" rx="5.71" ry="4.28" style="fill:#8c9b57"/><path d="M107.22,74.16c-3.16,0-5.72-1.92-5.72-4.29a3.65,3.65,0,0,1,1.28-2.69,4.11,4.11,0,0,0-2.47,3.52c0,2.37,2.56,4.28,5.72,4.28a6.57,6.57,0,0,0,4.43-1.58A7.17,7.17,0,0,1,107.22,74.16Z" style="fill:#869156"/><path d="M106,66.42a6.83,6.83,0,0,0-3.92,1.16,7.27,7.27,0,0,1,2.51-.43c3.15,0,5.71,1.91,5.71,4.28a3.86,3.86,0,0,1-1.8,3.12c1.9-.7,3.21-2.16,3.21-3.85C111.74,68.33,109.18,66.42,106,66.42Z" style="fill:#82b650"/><ellipse cx="94.73" cy="49.76" rx="5.4" ry="3.73" style="fill:#8c9b57"/><path d="M99,49c0,2.06-2.42,3.73-5.4,3.73a7.22,7.22,0,0,1-3-.62,6.55,6.55,0,0,0,4.17,1.36c3,0,5.41-1.67,5.41-3.72a3.64,3.64,0,0,0-2.41-3.11A3.14,3.14,0,0,1,99,49Z" style="fill:#869156"/><ellipse cx="89.51" cy="48.64" rx="4.28" ry="4.84" style="fill:#8c9b57"/><ellipse cx="85.04" cy="46.78" rx="5.4" ry="3.73" style="fill:#8c9b57"/><ellipse cx="88.76" cy="42.87" rx="2.79" ry="2.42" style="fill:#8c9b57"/><ellipse cx="95.66" cy="45.47" rx="6.71" ry="5.03" style="fill:#8c9b57"/><path d="M93.05,48.27a4.59,4.59,0,0,1-4.29,4.84,3.75,3.75,0,0,1-1.16-.18,3.92,3.92,0,0,0,2,.55,4.59,4.59,0,0,0,4.28-4.84A4.79,4.79,0,0,0,90.75,44,5,5,0,0,1,93.05,48.27Z" style="fill:#869156"/><path d="M89,45.24a4,4,0,0,0,.09.78c.59-2.33,3.31-4.09,6.59-4.09s6.12,1.85,6.62,4.26a4.26,4.26,0,0,0,.12-.95c0-2.77-3-5-6.71-5S89,42.47,89,45.24Z" style="fill:#82b650"/><path d="M79.63,46.78a2.7,2.7,0,0,0,.18.93c.6-1.61,2.71-2.79,5.23-2.79s4.62,1.18,5.22,2.79a2.7,2.7,0,0,0,.18-.93c0-2.06-2.42-3.73-5.4-3.73S79.63,44.72,79.63,46.78Z" style="fill:#82b650"/><path d="M85.82,42.64a2.51,2.51,0,0,0,.07.55,2.92,2.92,0,0,1,5.44,0,2,2,0,0,0,.08-.55,2.82,2.82,0,0,0-5.59,0Z" style="fill:#82b650"/><ellipse cx="75.37" cy="54.02" rx="3.76" ry="1.95" style="fill:#8c9b57"/><path d="M76.56,55.6c-2.08,0-3.76-.88-3.76-2,0-.61.54-1.16,1.39-1.52-1.5.26-2.58,1-2.58,1.86,0,1.09,1.68,2,3.76,2a6.17,6.17,0,0,0,2.36-.44A7.28,7.28,0,0,1,76.56,55.6Z" style="fill:#869156"/><ellipse cx="81.47" cy="52.21" rx="5.71" ry="4.28" style="fill:#8c9b57"/><path d="M82.66,55.66c-3.15,0-5.71-1.92-5.71-4.28a3.69,3.69,0,0,1,1.28-2.7,4.13,4.13,0,0,0-2.47,3.53c0,2.36,2.56,4.28,5.71,4.28a6.57,6.57,0,0,0,4.44-1.59A7.05,7.05,0,0,1,82.66,55.66Z" style="fill:#869156"/><path d="M81.47,47.92a6.75,6.75,0,0,0-3.91,1.17,7.27,7.27,0,0,1,2.51-.44c3.15,0,5.71,1.92,5.71,4.29A3.88,3.88,0,0,1,84,56.06c1.9-.7,3.2-2.16,3.2-3.85C87.18,49.84,84.63,47.92,81.47,47.92Z" style="fill:#82b650"/><ellipse cx="85.11" cy="56.02" rx="4.15" ry="2.39" style="fill:#8c9b57"/><path d="M86,57.94c-2.29,0-4.15-1.06-4.15-2.38a1.9,1.9,0,0,1,.93-1.5c-1.09.43-1.8,1.15-1.8,2,0,1.32,1.86,2.38,4.16,2.38a5.74,5.74,0,0,0,3.23-.88A6.46,6.46,0,0,1,86,57.94Z" style="fill:#869156"/><path d="M85.11,53.63a6.15,6.15,0,0,0-2.85.65A7,7,0,0,1,84.09,54c2.29,0,4.15,1.07,4.15,2.39a2.1,2.1,0,0,1-1.31,1.73c1.38-.38,2.33-1.2,2.33-2.14C89.26,54.7,87.4,53.63,85.11,53.63Z" style="fill:#82b650"/><polygon points="73.74 25.95 42.68 44 0 19.36 31.07 1.31 73.74 25.95" style="fill:#709d45"/><g style="isolation:isolate"><polygon points="0.01 18.05 31.07 0 31.06 2.62 0 20.67 0.01 18.05" style="fill:#997a5d"/><polygon points="31.07 0 73.75 24.64 73.74 27.26 31.06 2.62 31.07 0" style="fill:#6a5540"/><polygon points="73.75 24.64 73.74 27.26 42.68 45.31 42.69 42.69 73.75 24.64" style="fill:#997a5d"/><polygon points="42.69 42.69 42.68 45.31 0 20.67 0.01 18.05 42.69 42.69" style="fill:#6a5540"/></g><ellipse cx="55.99" cy="28.54" rx="5.4" ry="3.73" style="fill:#8c9b57"/><path d="M60.28,27.8c0,2.05-2.42,3.72-5.41,3.72a7.29,7.29,0,0,1-3-.62,6.58,6.58,0,0,0,4.18,1.36c3,0,5.4-1.67,5.4-3.72a3.62,3.62,0,0,0-2.41-3.11A3.12,3.12,0,0,1,60.28,27.8Z" style="fill:#869156"/><ellipse cx="50.78" cy="27.42" rx="4.28" ry="4.84" style="fill:#8c9b57"/><ellipse cx="46.3" cy="25.56" rx="5.4" ry="3.73" style="fill:#8c9b57"/><ellipse cx="50.03" cy="21.65" rx="2.79" ry="2.42" style="fill:#8c9b57"/><ellipse cx="56.92" cy="24.26" rx="6.71" ry="5.03" style="fill:#8c9b57"/><path d="M54.31,27.05A4.58,4.58,0,0,1,50,31.89a3.75,3.75,0,0,1-1.16-.18,3.88,3.88,0,0,0,2,.55,4.59,4.59,0,0,0,4.29-4.84A4.78,4.78,0,0,0,52,22.76,4.94,4.94,0,0,1,54.31,27.05Z" style="fill:#869156"/><path d="M50.25,24a4,4,0,0,0,.09.78c.59-2.32,3.31-4.08,6.58-4.08S63,22.56,63.54,25a3.75,3.75,0,0,0,.12-.95c0-2.77-3-5-6.7-5S50.25,21.25,50.25,24Z" style="fill:#82b650"/><path d="M40.9,25.56a2.7,2.7,0,0,0,.18.93c.6-1.61,2.71-2.79,5.22-2.79s4.63,1.18,5.23,2.79a2.7,2.7,0,0,0,.18-.93c0-2.06-2.42-3.73-5.41-3.73S40.9,23.5,40.9,25.56Z" style="fill:#82b650"/><path d="M47.08,21.42a2.1,2.1,0,0,0,.08.56,2.91,2.91,0,0,1,5.43,0,2.1,2.1,0,0,0,.08-.56,2.82,2.82,0,0,0-5.59,0Z" style="fill:#82b650"/><ellipse cx="36.64" cy="32.8" rx="3.76" ry="1.95" style="fill:#8c9b57"/><path d="M37.82,34.38c-2.07,0-3.76-.88-3.76-2,0-.62.55-1.17,1.4-1.53-1.5.26-2.59,1-2.59,1.86,0,1.09,1.69,2,3.77,2A6.25,6.25,0,0,0,39,34.28,7.31,7.31,0,0,1,37.82,34.38Z" style="fill:#869156"/><ellipse cx="42.74" cy="30.99" rx="5.71" ry="4.28" style="fill:#8c9b57"/><path d="M43.93,34.44c-3.15,0-5.71-1.91-5.71-4.28a3.71,3.71,0,0,1,1.27-2.7A4.12,4.12,0,0,0,37,31c0,2.36,2.56,4.28,5.71,4.28a6.57,6.57,0,0,0,4.44-1.59A7.05,7.05,0,0,1,43.93,34.44Z" style="fill:#869156"/><path d="M42.74,26.7a6.83,6.83,0,0,0-3.91,1.17,7.17,7.17,0,0,1,2.5-.44c3.16,0,5.72,1.92,5.72,4.29a3.89,3.89,0,0,1-1.8,3.12c1.89-.7,3.2-2.16,3.2-3.85C48.45,28.62,45.89,26.7,42.74,26.7Z" style="fill:#82b650"/><ellipse cx="46.37" cy="34.8" rx="4.15" ry="2.39" style="fill:#8c9b57"/><path d="M47.24,36.72c-2.29,0-4.15-1.06-4.15-2.38a1.89,1.89,0,0,1,.92-1.5c-1.08.43-1.79,1.15-1.79,2,0,1.32,1.86,2.39,4.15,2.39a5.7,5.7,0,0,0,3.23-.89A6.37,6.37,0,0,1,47.24,36.72Z" style="fill:#869156"/><path d="M46.37,32.41a6.08,6.08,0,0,0-2.84.65,7,7,0,0,1,1.82-.24c2.3,0,4.16,1.07,4.16,2.39a2.12,2.12,0,0,1-1.31,1.73c1.38-.38,2.33-1.2,2.33-2.14C50.53,33.48,48.67,32.41,46.37,32.41Z" style="fill:#82b650"/><ellipse cx="23.38" cy="11.42" rx="3.76" ry="1.95" style="fill:#8c9b57"/><path d="M24.57,13c-2.08,0-3.76-.88-3.76-2,0-.62.54-1.17,1.39-1.53-1.5.26-2.58,1-2.58,1.86,0,1.09,1.68,2,3.76,2a6.26,6.26,0,0,0,2.37-.44A7.41,7.41,0,0,1,24.57,13Z" style="fill:#869156"/><ellipse cx="36.82" cy="9.63" rx="4.15" ry="2.39" style="fill:#8c9b57"/><path d="M37.69,11.56c-2.29,0-4.15-1.07-4.15-2.39a1.89,1.89,0,0,1,.92-1.5c-1.08.43-1.79,1.15-1.79,2C32.67,11,34.53,12,36.82,12a5.7,5.7,0,0,0,3.23-.89A6.37,6.37,0,0,1,37.69,11.56Z" style="fill:#869156"/><path d="M36.82,7.25A6.08,6.08,0,0,0,34,7.89a7,7,0,0,1,1.82-.24C38.1,7.65,40,8.72,40,10a2.12,2.12,0,0,1-1.31,1.73C40,11.39,41,10.57,41,9.63,41,8.31,39.12,7.25,36.82,7.25Z" style="fill:#82b650"/><ellipse cx="29.61" cy="7.75" rx="5.71" ry="4.28" style="fill:#8c9b57"/><path d="M30.8,11.21c-3.15,0-5.71-1.92-5.71-4.28a3.7,3.7,0,0,1,1.27-2.7A4.1,4.1,0,0,0,23.9,7.75c0,2.37,2.56,4.29,5.71,4.29a6.57,6.57,0,0,0,4.44-1.59A7.05,7.05,0,0,1,30.8,11.21Z" style="fill:#869156"/><path d="M29.61,3.47A6.82,6.82,0,0,0,25.7,4.63a7.49,7.49,0,0,1,2.5-.43c3.16,0,5.72,1.92,5.72,4.28a3.89,3.89,0,0,1-1.8,3.12,4.35,4.35,0,0,0,3.2-3.85C35.32,5.39,32.77,3.47,29.61,3.47Z" style="fill:#82b650"/><polygon points="162.53 60.69 162.72 126.46 107.4 158.4 107.21 92.63 162.53 60.69" style="fill:#658d3e"/><polygon points="162.53 60.69 162.72 126.46 107.4 158.4 107.21 92.63 162.53 60.69" style="fill:#658d3e"/><g style="isolation:isolate"><polygon points="163.63 127 108.31 158.93 106.48 157.87 161.8 125.93 163.63 127" style="fill:#60873b"/><polygon points="163.44 61.22 163.63 127 161.8 125.93 161.61 60.16 163.44 61.22" style="fill:#3c5425"/><polygon points="108.31 158.93 106.48 157.87 106.3 92.1 108.13 93.16 108.31 158.93" style="fill:#3c5425"/><polygon points="108.13 93.16 106.3 92.1 161.61 60.16 163.44 61.22 108.13 93.16" style="fill:#60873b"/></g><polygon points="130.5 134.12 129.87 134.27 132.92 134.84 132.67 135.15 129.4 134.61 129.4 134.74 131.42 135.73 130.43 135.55 131.56 136.43 130.41 136.05 131.27 136.94 130.75 136.91 128.9 135.67 129.77 136.72 130.76 138.06 129.91 137.56 129.48 137.45 130.42 139.05 128.56 137.03 129.39 138.63 129.82 139.81 128.06 137.47 128.69 139.06 129.07 140.35 128.72 140.33 127.53 138.48 128 140.18 127.94 140.77 127.17 139.59 127.42 141.1 125.85 137.28 126.49 140.09 126.24 140.18 126.18 141.03 125.09 137.69 125.03 138.45 124.76 138.26 124.69 139.11 124.81 141.41 124.44 140.82 123.81 137.91 123.65 138.52 123.72 141.97 123.26 139.51 123 139.26 122.75 139.07 122.51 138.8 122.27 141.36 122.06 137.77 121.71 141.57 121.55 139.23 121.23 140.38 120.86 141.55 120.56 141.72 120.57 139.26 120.54 137.79 119.87 140.59 119.92 138.79 119.22 141.1 119.2 139.88 119.14 139.01 119.12 138.15 118.24 140.39 117.88 140.64 117.72 140.22 118.11 138.32 117.13 140.24 118.01 137.33 116.53 140.2 116.95 138.63 116.58 138.81 115.54 140.24 115.18 140.25 115.02 139.92 115.77 138.18 115.09 138.71 114.67 138.82 115.61 137.15 113.81 138.93 114.11 138.13 116.1 135.7 115.31 136.22 114.87 136.33 114.93 136.01 115.61 135.29 113.99 136.14 112.93 136.45 114.27 135.47 114.61 135.11 114.88 134.83 114.79 134.7 111.31 135.26 114.63 134.43 112.99 134.39 111.42 134.12 115.06 134 113.25 133.63 112.69 133.26 112.17 132.82 114.87 133.41 113.71 132.76 113.41 132.35 112.87 131.75 115.36 132.97 113.76 131.65 112.87 130.62 113.75 130.95 114.36 131.13 114.71 131.13 113.8 129.76 115.8 131.66 114.14 129.21 114.22 128.81 115.64 130.32 115.83 130.15 116.36 130.57 116.19 129.79 116.13 129.13 116.42 129.1 117.44 130.69 117.02 129.15 118.02 130.94 118 130.29 117.5 128.22 118.25 129.61 118.23 128.74 118.77 129.68 118.37 127.26 118.62 127.09 118.96 127.28 119.14 126.78 120.04 130.13 119.76 127.02 120.52 130.35 120.64 129.54 120.59 126.84 120.88 126.91 121.41 130.51 121.62 130.46 121.83 130.23 122.06 130.45 122.27 128.42 122.51 129.32 122.78 128.39 122.97 129.64 123.44 126.2 123.48 129.06 123.86 127.77 124.23 126.89 124.38 127.86 124.78 127.06 124.89 128 125.23 127.65 124.9 130.39 125.8 127.62 125.82 128.62 126.28 127.94 125.65 130.92 126.41 129.28 126.25 130.46 127.43 127.97 127.47 128.63 127.19 129.93 128.44 127.82 127.55 130.27 128.79 128.43 128.71 129.17 128.6 129.88 129.52 128.92 128.34 131.16 128.83 130.85 129.52 130.35 129.37 130.94 129.03 131.65 131.28 129.67 129.5 131.78 129.09 132.42 132.02 130.36 130.91 131.56 129.03 133.07 129.17 133.16 132.38 131.75 131.84 132.35 129.63 133.43 131.88 132.96 132.95 133.04 131.64 133.59 129.87 133.98 130.5 134.12" style="fill:#84c935"/><polygon points="138.26 123.95 137.21 124.18 137.73 124.47 136.6 124.5 137.35 124.9 137.22 125.11 139.21 126.2 137.07 125.57 138.77 126.8 136.2 125.59 137.69 126.89 137.75 127.32 135.92 126.16 134.89 125.49 137.48 128.36 135.25 126.39 137.19 129.02 135.14 126.94 134.37 126.26 134.02 126.09 135.61 128.92 135.2 128.78 134.17 127.52 134.14 127.95 134.19 128.59 134.47 129.8 133.78 128.92 133.49 128.9 132.79 127.78 132.86 128.63 133.22 130.51 132.49 129.11 132.09 128.6 132.56 131.36 131.88 129.79 131.12 127.54 130.93 127.68 130.79 128.14 130.77 129.46 130.37 128.42 130.22 129.08 129.91 128.41 129.71 128.76 129.68 131.84 129.37 131.4 129.1 131.79 128.75 128.51 128.52 129.66 128.29 128.52 128.07 128.18 127.67 131.53 127.38 131.65 127.32 129 127.17 128.16 126.67 130.35 126.47 129.81 126.22 129.76 126.27 128.06 125.91 128.72 125.37 130.07 124.8 131.27 124.54 131.12 125.27 127.5 124.55 129.11 123.75 130.72 123.53 130.47 123.28 130.32 123.05 130.12 123.99 127.25 122.41 130.14 123.5 127.29 122.45 128.8 123 127.29 121.86 128.77 121.25 129.2 122.6 126.72 122.54 126.44 120.91 128.19 121.35 127.23 122.39 125.73 121.96 125.93 120.23 127.28 119.44 127.6 119.84 126.89 120.41 126.14 118.6 127 121.36 125.07 119.92 125.59 119.91 125.33 120.56 124.86 120.08 124.8 119.11 124.78 117.93 124.66 117.61 124.33 117.83 123.95 121.54 123.85 118.16 123.28 119.17 123.14 119.65 122.99 120.59 123.06 120.84 122.96 121.54 123.1 118.3 121.12 121.36 122.64 120.05 121.51 121.55 122.35 120.22 120.97 121.15 121.48 119.99 119.98 120.33 119.91 122.4 121.9 120.52 119.21 121.77 120.41 121.88 120.14 122.45 120.56 122.07 119.49 123.37 121.28 122.14 118.51 123.74 121.11 122.73 118.44 122.62 117.5 123.98 120.07 123.42 117.95 123.99 118.72 124.2 118.55 124.14 117.45 124.53 117.81 125.01 118.58 124.78 116.54 125.07 116.48 125.89 119.11 125.91 117.85 126.02 116.89 126.21 116.22 126.67 117.6 127.04 118.52 127.2 117.54 127.53 118.44 127.77 118.31 127.94 116.06 128.28 118.56 128.52 118.25 128.79 117 129.08 116.69 129.23 119.21 129.58 117.53 129.84 117.65 130.15 117.16 130.14 119.49 130.51 118.55 130.49 120.24 131.35 116.68 130.93 120.24 131.6 118.19 131.5 119.7 131.81 119.43 132.49 117.89 133 117.15 132.57 119.37 132.96 119.01 133.66 117.87 132.94 120.36 134.56 117.19 134.28 118.53 134 119.71 134.85 118.62 134.68 119.49 133.93 121.23 134.85 120.17 135.57 119.55 134.31 121.72 134.65 121.6 136.04 120.26 134.76 122.06 135.65 121.41 135.04 122.27 135.44 122.16 136.52 121.55 137.26 121.33 137.81 121.3 138.13 121.48 136.89 122.43 138.72 121.92 138.1 122.49 137.3 123.02 139.35 122.84 136.24 123.64 136.21 123.8 138.26 123.95" style="fill:#85b52a"/><polygon points="141.61 136.04 141.5 136.32 141.41 136.59 138.94 136.37 141.28 137.13 141.8 137.59 139.87 137.13 142.05 138.4 141.73 138.61 140.5 138.22 139.41 137.76 141.81 139.88 139.11 138.03 140.25 139.37 138.94 138.43 138.82 138.62 139.61 139.88 139.9 140.69 138.81 139.7 137.89 138.8 139.48 141.66 137.33 138.68 138.76 141.62 137.66 140.16 137.09 139.56 136.88 139.63 137.87 142.47 137.54 142.45 136.54 140.65 136.09 140.11 136.36 141.65 135.49 139.71 135.79 141.56 135.26 140.55 134.74 139.41 135.09 141.98 134.81 141.9 134.63 142.38 133.96 139.87 133.72 139.75 133.95 143.36 133.4 140.83 133.14 140.61 132.89 140.33 132.72 141.46 132.46 141.16 132.24 142.11 131.98 140.04 131.74 140.71 131.48 141.55 131.14 143.33 130.91 142.59 130.63 142.67 130.68 139.66 130 143.43 130.2 140 129.77 141.26 129.63 140.68 129.19 141.66 128.61 143.12 128.98 140.38 128.41 141.64 127.93 142.38 127.72 142.11 127.87 140.8 128.11 139.4 127.47 140.49 127.22 140.46 126.28 142.01 126.66 140.54 126.2 140.89 126.92 138.97 125.32 141.39 125.87 139.92 124.92 140.95 125.88 139.06 124.91 140.01 124.98 139.5 125.79 138.16 125.23 138.5 124.78 138.66 123.11 139.91 124.01 138.74 123.84 138.55 124.27 137.94 124.25 137.71 123.15 138.09 121.87 138.42 122.13 137.94 122.54 137.46 124.81 136.54 121.51 137.09 123.9 136.41 122.37 136.33 123.06 136.04 121.48 135.7 122.89 135.54 120.97 134.89 124.63 135.5 122.69 134.68 123.88 134.87 121.59 133.53 125.28 135.19 123.35 133.81 123.11 133.32 123.07 132.93 123.52 132.93 123.79 132.8 125.21 133.85 123.72 131.92 125.56 133.64 124.84 132.4 125.94 133.47 124.53 131.05 124.5 130.46 126.06 132.47 126.86 133.42 125.26 129.97 126.51 131.82 125.8 129.71 126.16 129.79 127.12 131.37 128.03 133.07 128.07 132.57 127.45 130 127.51 129.26 127.81 129.3 128.47 130.7 129.2 132.61 128.81 129.87 128.91 129 129.48 130.57 129.62 129.88 130.13 131.6 130.32 131.25 130.51 130.8 130.68 129.97 130.89 129.17 131.11 128.23 131.45 129.74 131.74 131.03 131.98 130.88 132.25 129.01 132.44 131.58 132.82 128.57 132.86 132.2 133.38 128.75 133.27 132.4 133.8 129.91 133.81 131.69 134.41 129.42 134.22 132.01 134.57 131.39 135.23 129.47 135.74 128.55 135.11 132.11 135.48 131.63 135.45 132.51 136.55 129.87 136.23 131.61 136.16 132.46 137.4 130 136.98 131.66 137.13 131.92 137.87 130.96 138.47 130.4 137.1 133.42 137.74 132.73 138.61 131.78 139.81 130.5 140.09 130.65 139.78 131.56 138.75 133.23 139.92 132.28 139.8 132.8 138.8 134.08 140.38 132.98 138.68 134.66 139.19 134.49 140.01 134.19 138.98 135.02 141.55 133.93 140.55 134.68 142.47 134.27 140.89 135.07 140.24 135.46 142.26 135.38 140.8 135.81 141.61 136.04" style="fill:#a9ef3a"/><polygon points="149.87 131.36 150.78 131.65 148.24 131.59 150.08 132.09 150.33 132.42 150.4 132.72 151.75 133.58 150.5 133.38 148.93 132.85 149.22 133.27 149.32 133.62 150.36 134.74 147.96 133.09 150.01 135.27 149.97 135.67 148.96 135.04 148.65 135.08 148.86 135.78 147.71 134.69 147.65 135.03 147.56 135.33 148.51 137.39 146.25 134.03 147.92 137.61 146.89 136.23 145.86 134.63 146.7 137.09 146.42 137.15 146.41 137.89 145.8 137.05 145.16 135.96 144.46 134.52 144.68 136.04 145.09 138.53 144.02 135.35 143.71 134.98 144.24 138.73 143.24 134.8 143.17 135.68 143.12 136.94 142.66 135.32 142.45 135.42 142.32 136.49 142.04 135.96 141.78 135.54 141.68 138.97 141.38 138.22 141.11 137.31 140.88 135.73 140.58 137.84 140.43 135.61 139.96 139.09 139.92 136.17 139.76 135.5 139.16 138.51 138.89 138.4 138.68 137.96 138.49 137.49 138.61 135.53 138.05 137.01 137.94 136.4 137.47 137.21 137.42 136.42 136.83 137.49 136.21 138.51 136.44 136.97 136.84 135.17 135.79 137.15 136.19 135.53 134.9 137.75 134.91 137.06 134.84 136.57 135.8 134.31 135.23 134.85 135.67 133.75 134.34 135.34 132.98 136.77 132.97 136.26 135.01 133.36 132.8 135.53 132.25 135.65 131.78 135.66 134.55 132.84 133.72 133.28 131.07 134.9 134.07 132.58 131.27 133.96 133.97 132.28 132.27 132.83 133.15 132.26 132.6 132.22 130.72 132.38 132.41 131.8 134.04 131.47 130.06 131.36 131.07 131.04 131.04 130.72 133.17 130.84 131.05 130.07 131.03 129.72 131.5 129.56 131.68 129.31 133.44 129.96 133.14 129.54 134.38 130.15 134.09 129.71 131.88 127.58 131.7 126.97 133.87 128.69 132.7 127.07 132.97 126.93 134 127.75 133.42 126.54 133.79 126.55 134.72 127.47 133.78 125.44 135.35 127.6 136.11 128.53 135.25 126.33 135.98 127.29 135.51 125.62 136.37 126.99 135.63 124.38 136.45 125.78 137.52 128.15 137.25 126.56 137.53 126.67 137.98 127.43 137.96 126.41 138.09 125.88 137.94 123.85 138.91 127.58 138.68 124.74 139.2 126.5 139.46 126.66 139.57 125.44 139.7 123.98 140.21 127.23 140.28 124.34 140.6 125.57 140.82 123.65 141.11 125 141.32 127.67 141.68 123.68 141.86 125.75 142.1 125.87 142.32 126.14 142.47 127.11 142.69 127.12 142.85 127.66 143.03 127.85 143.38 127.13 144.06 124.92 144.19 125.56 144.2 126.63 144.76 125.43 144.74 126.48 144.5 128.07 145.21 126.61 145.33 127 145.4 127.48 146.03 126.52 146.67 125.69 145.66 128.51 146.1 128.07 147.45 125.98 147.64 126.22 147.14 127.6 146.66 128.79 148.99 125.74 148 127.63 148.17 127.81 147.78 128.66 147.26 129.55 147.37 129.69 148.45 128.91 150.24 127.67 150.15 128.15 149.59 128.91 149.75 129.12 148.09 130.34 150.92 129.13 151.71 129.15 148.98 130.48 148.35 130.84 151.27 130.38 149.81 130.91 148.05 131.25 149.87 131.36" style="fill:#7ebc1d"/><polygon points="152.42 121.49 152.47 121.82 151.27 122 150.49 122.1 151.6 122.62 149.24 122.11 151.63 123.25 151.71 123.62 152.61 124.48 151.8 124.41 151.91 124.88 151.93 125.33 151.3 125.25 150.81 125.23 148.99 123.81 148.15 123.19 150.33 126.03 148.85 124.64 149.06 125.33 147.89 124.07 147.61 124.01 148.91 126.55 148.71 126.76 147.78 125.61 147.33 125.25 147.32 125.78 148.03 128.01 147.3 127 146.22 124.93 146.48 126.32 145.73 124.84 145.97 126.33 145.41 125.28 145.66 127.09 145.31 126.74 144.78 125.47 144.94 127.39 144.66 127.31 144.03 125.06 143.87 125.46 144.06 128.79 143.82 129.16 143.45 128.23 143.2 128.54 142.79 126.09 142.66 128.95 142.37 128.6 142.09 128.18 141.84 127.06 141.62 126.4 141.24 129.12 141.13 126.56 141.01 125.09 140.56 127.35 140.06 129.32 139.78 129.19 139.71 127.81 139.87 125.42 139.19 127.72 139.35 125.72 138.61 127.83 138.95 125.46 138.59 125.91 137.52 128.61 138.47 124.8 138.34 124.54 137.41 126.38 136.82 127.17 137.37 125.22 136.87 125.78 135.89 127.21 135.74 126.88 135.93 125.97 136.63 124.3 134.55 127.16 135.74 124.88 135.24 125.16 135.64 124.25 133.65 126.28 134.93 124.4 134.24 124.77 133.49 125.11 134.55 123.82 134.21 123.8 132.61 124.64 132.46 124.35 132.04 124.21 131.78 123.96 131.51 123.68 131.67 123.24 134.43 122.12 133.36 122.17 133.67 121.9 130.81 121.88 134.94 121.49 133.03 121.24 133.6 121.07 134.29 120.99 135.17 121.06 131.21 119.57 133.04 119.92 133.73 119.96 133.15 119.37 132.65 118.74 133.96 119.28 132.19 117.59 135.31 119.8 134.21 118.53 133.56 117.51 134.99 118.63 133.58 116.6 135.84 118.96 135.39 118 136.42 119.09 134.85 116.28 136.2 117.95 136.72 118.41 137.27 118.99 135.83 115.65 136.5 116.41 136.94 116.76 137.76 118.11 137.9 117.88 137.37 115.71 137.98 116.7 138.06 116.14 138.88 118.09 138.13 114.39 138.55 114.88 138.65 114.05 139.22 115.41 139.21 113.87 139.53 114.06 139.98 115.18 140.24 115.1 140.43 114.37 140.67 113.92 140.95 113.83 141.44 117.67 141.64 117.24 141.82 114.56 142.09 117.88 142.38 113.77 142.64 114.45 142.79 116.82 143.13 115.39 143.35 115.87 143.43 117.44 143.69 117.18 144.31 114.42 144.68 113.94 144.24 117.98 144.98 115.36 144.85 117.17 145.31 116.25 145.47 116.63 146.15 115.11 146.37 115.34 146.6 115.53 146.84 115.66 147.56 114.54 147.69 115.02 146.57 118.31 147.98 115.78 147.02 118.34 147.97 117.01 149.15 115.42 147.6 118.59 147.98 118.39 147.94 118.84 149.38 117.22 148.46 118.83 149.29 118.17 148.82 119.06 150.29 117.85 149.69 118.8 148.98 119.72 149.37 119.65 151.05 118.7 151.89 118.52 150.14 119.88 150.08 120.14 152.94 119.18 151.57 120.06 151.52 120.37 150.01 120.97 149.21 121.25 153.37 121.09 152.42 121.49" style="fill:#5e9319"/><polygon points="145.81 114.08 148.42 114.48 147.24 114.72 147.24 115.05 147.97 115.58 144.16 114.66 146.08 115.59 147.51 116.58 147.65 117.06 147.06 117.13 145.47 116.42 144.77 116.19 145.9 117.44 146.55 118.46 143.5 115.84 145.75 118.57 145.31 118.54 144.67 118.2 143.38 116.91 144.58 119.04 144.06 118.77 143.7 118.7 142.85 117.72 143.53 119.52 142.5 118.06 142.12 117.81 142.47 119.17 142.73 120.5 142.59 120.95 141.39 118.46 141.79 120.43 141.55 120.6 140.59 118.27 140.59 119.14 140.5 119.83 140.1 119.24 140.34 121.67 139.32 117.67 139.41 119.57 138.97 118.31 139.11 121.28 138.63 119.41 138.43 119.86 138.18 120 137.89 119.39 137.6 117.86 137.41 119.66 137.16 120.86 136.89 121.01 136.72 117.85 136.45 118.92 136.28 117.86 135.74 121.54 135.8 118.34 135.56 118.36 135.4 117.89 134.69 120.92 134.37 121.17 134.37 119.73 134.57 117.64 133.89 119.53 133.18 121.22 133.66 118.51 132.97 119.94 132.79 119.62 132.91 118.52 132.88 117.92 132.12 119.2 131.88 119.09 131.15 120.05 132.2 117.28 130.41 120.21 132.15 116.5 131.15 117.8 131.73 116.46 130.97 117.22 130.89 116.96 129.09 118.9 128.69 118.9 128.82 118.28 128.43 118.26 129 117.29 129.96 116.12 128.82 116.75 127.52 117.35 126.94 117.32 129.5 115.47 126.79 116.58 128.38 115.53 129.69 114.82 129.2 114.79 128.95 114.66 127.59 114.65 126.43 114.44 126.71 114.08 127.91 113.82 130.11 113.86 128.44 113.4 126.88 112.73 128.9 113.07 130.09 113.34 127.4 111.88 130.2 113.08 126.85 110.79 130.61 112.99 127.66 110.5 128.23 110.56 129.22 111.07 130.18 111.69 130.17 111.36 131.04 112.03 129.48 109.75 129.46 109.25 131.43 111.6 130.48 109.75 131.5 110.93 131.26 110.07 130.78 108.64 131.33 109.12 132.53 111.08 131.63 108.49 131.55 107.58 132.85 110.16 132.19 107.63 133.32 110.14 132.54 106.83 133.97 110.76 133.52 108.21 133.89 108.65 134.06 108.24 134.74 110.3 134.65 108.58 134.68 107.16 134.84 106.34 135.2 106.83 135.8 109.83 135.78 107.08 136.2 109.08 136.51 110.45 136.62 107.25 136.91 108.87 137.16 109.69 137.43 107.02 137.62 109.55 137.99 106.87 138.22 107.59 138.38 108.84 138.71 108 138.84 109.12 138.92 110.26 139.41 108.55 139.61 108.87 139.58 110.29 139.85 110.08 140.6 107.93 140.59 109.03 140.55 110.06 141.66 107.21 141.95 107.25 141.14 110.4 141.74 109.44 141.42 110.87 142.44 109.06 142.13 110.35 141.82 111.49 142.85 109.94 142.93 110.31 143.05 110.56 144.24 109.13 143.65 110.5 144.78 109.37 145.53 108.88 144.12 111.05 145.93 109.41 143.4 112.44 143.58 112.5 145.26 111.28 145.96 111.06 145.39 111.81 146.26 111.55 144.93 112.63 144.91 112.86 145.07 112.99 147.33 112.42 147.16 112.81 145.08 113.57 145.62 113.67 145.64 113.88 145.81 114.08" style="fill:#a9ef3a"/><polygon points="140.65 118.77 138.51 118.88 141.43 119.39 138.63 119.13 138.37 119.19 138.71 119.43 139.53 119.92 141.48 121.09 138.99 120.08 139.99 120.93 141.16 122.07 138.73 120.59 139.56 121.56 139.6 121.95 137.84 120.54 139.95 123.12 140.11 123.79 137.79 121.36 138.4 122.54 138.88 123.68 137.22 121.63 137.44 122.4 137.68 123.31 138.3 125.05 136.16 121.41 136.97 123.61 137.43 125.32 135.98 122.57 136.19 123.75 135.89 123.65 135.78 124.1 136.09 125.98 135.68 125.64 135.06 124.42 135.11 125.7 134.48 124.16 133.9 122.53 133.65 122.39 133.76 124.42 133.34 123.28 133.43 125.93 133.09 125.36 132.62 123.09 132.48 124.26 132.21 123.95 131.95 123.44 131.73 124.22 131.48 122.87 131.27 122.44 130.95 125.44 130.68 125.47 130.33 126.49 130.03 126.61 130.12 123 129.88 123.1 129.56 123.76 129.53 122.44 128.78 125.37 128.79 123.91 128.26 125.2 127.86 125.69 128.53 122.01 127.5 124.87 127.37 124.37 127.3 123.76 126.89 124.16 127.24 122.52 126.61 123.48 125.81 124.7 126.34 122.87 125.9 123.23 126.5 121.56 125.17 123.5 124.27 124.49 124.98 122.82 125.9 121.04 123.9 123.44 124.22 122.56 125.5 120.65 124.36 121.64 124.6 121.07 122.82 122.45 124.14 120.93 121.86 122.44 122.11 121.85 124.29 120.1 122.01 121.18 123.41 120.15 121.75 120.62 124.38 119.38 120.74 120.25 122.31 119.55 122.39 119.27 121.88 119.06 122.89 118.77 124.04 118.63 120.68 118.04 122.81 118.1 122.99 117.91 120.64 116.87 123.77 117.76 124.72 118.03 123.26 117.06 123.61 117.02 123.23 116.48 122.27 115.42 123.79 116.31 123.18 115.42 122.9 114.74 122.76 114.14 123.84 114.93 124.76 115.66 125.37 116.1 124.57 114.56 123.91 113.04 125.99 115.91 124.5 112.83 125.74 114.54 125.5 113.49 125.73 113.34 126.42 114.24 126.43 113.63 126.66 113.5 127.37 114.72 127.61 114.7 127.7 114.22 128.15 114.95 127.9 113.12 128.05 112.62 128.76 114.63 128.99 114.6 128.58 111.07 128.91 111.29 129.63 114.26 129.92 114.71 129.94 112.8 130.29 113.86 130.37 111.61 130.7 112.61 130.92 111.42 131.19 110.83 131.48 114.97 131.74 112.65 131.97 113.59 132.21 113.68 132.41 114.22 132.78 112.67 132.85 114.48 133.05 114.68 133.47 113.32 133.58 114.23 134.19 112.17 134.28 113.12 134.13 114.96 134.95 112.49 135.07 113.09 135.01 114.26 135.55 113.31 135.37 114.67 136 113.58 135.79 114.87 136.99 112.52 136.81 113.64 137.07 113.71 137.84 112.75 137.6 113.84 136.88 115.66 138.52 113.35 138.95 113.22 137.53 115.83 139.59 113.39 138.29 115.55 138.19 116.04 140.31 114.03 140.62 114.19 138.51 116.62 138.16 117.19 139.66 116.23 138.84 117.12 140.18 116.5 140.39 116.68 141.66 116.37 139.39 117.68 139.65 117.8 139.34 118.09 139.79 118.17 141.68 118.12 139.18 118.62 140.65 118.77" style="fill:#98d844"/><polygon points="133.53 113.1 134.87 113.34 135.84 113.73 136 114.08 135.76 114.36 136.34 114.89 136.35 115.28 134.04 114.56 135.66 115.72 135.96 116.3 134.29 115.55 133.74 115.45 133.23 115.33 132.22 114.68 133.83 116.55 134.51 117.7 133.63 117.15 132.01 115.55 132.64 116.75 131.86 116.06 132.37 117.25 131.32 116 132.56 118.62 131.93 118.04 131.5 117.79 131.6 118.6 131.58 119.26 131.43 119.63 130.79 118.78 130.48 118.72 130.09 118.4 130.2 119.63 129.13 116.87 129.81 120.37 129.42 119.99 128.68 117.94 128.93 120.41 128.25 118.22 128.32 120.23 127.65 117.54 127.5 118.13 127.44 119.87 127.12 119.35 126.91 120.19 126.61 119.65 126.34 119.52 126.09 120.47 125.81 120.31 125.53 120.53 125.33 118.1 125.14 117.05 124.91 117.2 124.45 119.93 124.14 120.3 124.12 118.16 123.69 119.42 123.4 119.57 123.44 117.87 123.14 118.14 123.08 117.27 123.07 116.36 122.03 119.5 122.62 116.42 121.44 119.52 122.15 116.49 120.8 119.66 120.43 119.83 120.88 117.94 120.32 118.58 120.14 118.33 120.45 117.1 120.09 117.28 120.35 116.33 118.64 118.75 120.37 115.49 118.59 117.75 119.1 116.57 118.39 117.09 119.77 115.04 119.36 115.23 118.16 116.17 118.11 115.88 118.4 115.31 117.52 115.72 116.48 116.14 115.47 116.41 118.37 114.37 118.33 114.19 117.5 114.35 117.89 113.99 116.99 114.04 116.35 113.93 116.86 113.58 114.53 113.5 118.86 113.1 114.53 112.7 114.7 112.32 117.51 112.5 114.97 111.59 116.91 111.87 118.26 112.16 117.92 111.8 118.53 111.91 116.26 110.28 118.88 111.74 117.01 110.06 119.15 111.53 116.56 108.86 119.51 111.38 117.08 108.46 117.7 108.7 119.3 110.26 119.75 110.49 119.67 110.01 118.27 107.43 120.6 110.71 119.27 107.95 120.61 109.89 120.96 110.11 120.4 108.41 120.74 108.56 120.09 106.31 120.9 107.6 121.07 107.3 122.19 109.8 121.51 106.88 121.9 107.24 121.91 106.25 122.9 109.15 122.6 106.76 123.06 107.65 123.53 108.84 123.53 107.45 123.62 106.24 124.26 109.18 124.48 109.13 124.69 109.01 124.74 106.54 125.02 106.68 125.25 105.8 125.59 109.45 125.81 108.05 126.09 105.81 126.34 106.58 126.45 109.48 126.92 105.98 127.04 107.72 127.42 106.45 127.64 106.92 127.97 106.46 127.74 109.54 128.69 105.54 128.34 108.76 128.52 109.01 128.72 109.12 129.41 107.39 129.75 107.11 129.35 109.33 129.77 108.79 130.78 106.63 130.44 108.33 131.04 107.51 131.62 106.85 132.11 106.5 131.73 107.94 131.36 109.23 131.28 109.86 131.49 109.92 132.99 107.99 133.21 108.18 132.24 109.99 132.5 110.03 133.56 109.13 133.08 110.06 132.51 110.98 134.69 109.21 133.83 110.36 133.62 110.84 135.49 109.8 133.41 111.51 134.1 111.35 135.6 110.88 132.92 112.34 136.48 111.26 134.51 112.18 136.49 112.01 136.88 112.33 136.93 112.71 133.53 113.1" style="fill:#7ebc1d"/><polygon points="124.26 124.45 124.33 124.6 124.22 124.74 126.29 125.31 123.72 124.91 125.11 125.52 124.7 125.58 124.07 125.5 125 126.21 124.99 126.48 126.66 127.96 124.6 126.79 124.1 126.68 125.71 128.48 124.23 127.43 124.2 127.76 122.85 126.55 124.92 129.5 124.63 129.63 124.28 129.66 123.15 128.46 123.36 129.29 121.82 127.11 123.02 129.81 122.11 128.6 121.59 128.07 121.42 128.22 121.4 128.78 121.33 129.28 120.61 127.98 120.59 128.61 121 130.74 120.79 131.01 119.72 128.04 119.66 128.73 119.93 131 119.64 130.95 119.57 132.07 118.81 129.25 118.6 129.41 118.2 128.12 118.08 129.04 117.77 128.19 117.76 131.2 117.46 130.63 117.19 130.37 116.93 129.99 116.68 129.12 116.41 131.19 116.12 131.78 115.91 130.34 115.64 130.56 115.52 129.01 115.37 128.16 114.97 129.62 114.71 129.75 114.32 130.61 113.93 131.31 113.92 129.95 113.23 131.87 113.72 128.6 113.62 128.11 113 129.49 112.86 129.12 112.29 130.06 112.61 128.35 111.76 129.97 111.3 130.4 111.14 130.05 111.78 128.03 111.51 128.07 110.59 129.34 111.46 127.25 111.22 127.25 111.19 126.92 110.64 127.38 110.09 127.76 109.41 128.24 110.28 126.81 109.78 127.07 109.79 126.75 109.9 126.36 108.57 127.26 110.16 125.7 107.49 127.39 107.71 126.89 109.26 125.71 106.45 126.88 107.17 126.2 107.91 125.63 109.23 125.02 107.37 125.25 108.3 124.85 108.03 124.67 107.05 124.45 109.56 124.33 105.77 123.7 106.77 123.52 106.11 123.02 107.99 123.29 108.29 123.16 109.13 123.32 108.89 122.98 107.81 122.06 108.59 122.27 109.6 122.76 108.31 121.41 107.39 120.17 110.05 122.4 110.49 122.6 109.53 121.19 109.15 120.31 110.56 121.76 110.97 122 109.63 119.53 109.94 119.52 109.82 118.73 110.04 118.51 111.65 121.1 110.82 118.8 112.34 121.6 111.04 117.87 111.9 119.28 112.26 119.52 112.69 120.05 113.31 121.24 112.75 118.52 113.42 120.01 113.47 119.26 113.27 117.2 114.24 120.56 114.49 120.68 114.69 120.56 114.51 117.77 114.82 118 114.95 116.75 115.52 119.88 115.59 117.66 115.84 117.13 116.18 118.91 116.43 119.18 116.68 116.66 116.91 119.96 117.16 119.3 117.44 118.56 117.6 119.99 118.01 117.98 118.28 117.88 118.39 119.19 118.42 120.75 118.79 119.83 119.35 118.03 119.55 118.4 119.39 120.36 120.25 117.76 120.21 119.01 120.49 118.93 121.07 117.95 121.06 118.86 121.38 118.74 121.17 120.05 121.73 119.31 121.37 120.78 122.14 119.65 121.48 121.56 122.48 120.1 123.6 118.64 122.67 120.75 122.36 121.68 123.26 120.72 124.16 119.92 124.69 119.7 123.67 121.38 125.55 119.66 124.64 121.06 124.5 121.56 125.04 121.42 124.26 122.37 125.03 122.09 125.63 122.01 123.52 123.51 124.03 123.42 125.35 123.04 125.33 123.31 126.94 123.1 125.76 123.69 126.18 123.89 123.96 124.32 124.26 124.45" style="fill:#a9ef3a"/><polygon points="161.33 124.45 162.51 124.85 160.55 124.98 161.33 125.42 160.99 125.66 160.09 125.67 158.79 125.4 161.81 127.06 160.12 126.53 158.7 125.96 160.16 127.22 161.13 128.35 160.11 127.93 157.86 126.24 157.86 126.5 158.82 127.84 159.94 129.57 159.42 129.44 158.41 128.59 156.9 126.86 156.69 126.89 157.47 128.57 157.4 128.95 158.07 130.78 156.32 127.94 157.14 130.22 156.92 130.42 155.39 127.43 155.35 127.91 155.52 129.02 155.58 129.97 154.91 128.67 155.42 131.31 155.15 131.43 154.33 129.22 154.66 131.86 154.21 131.08 153.36 127.94 153.67 131.16 153.13 129.31 153.05 130.6 152.76 130.38 152.4 129.16 152.38 132.28 151.87 128.11 151.67 128.41 151.5 131.29 151.22 131 150.97 130.26 150.7 130.71 150.51 129.42 150.25 129.61 149.8 131.99 149.91 128.26 149.62 128.83 149.46 128.29 149.3 127.91 148.54 130.94 148.42 130.15 147.98 130.96 147.82 130.47 147.63 130.15 148.05 127.72 147.47 128.88 147.03 129.48 146.35 130.64 146.76 128.78 146.38 129.09 146.05 129.22 145.05 130.78 146.08 128.03 146.27 127.18 145.26 128.57 144.84 128.78 145.32 127.56 143.36 130.04 144.6 127.81 143.73 128.53 143.47 128.42 142.34 129.24 143.78 127.32 144.13 126.66 144.1 126.42 142.77 127.2 141.25 127.94 143.37 126.19 141.17 127.17 141.31 126.72 143.05 125.65 142.17 125.73 141.2 125.72 144.08 124.81 142.59 124.89 142.03 124.7 143.14 124.45 141.05 124.12 141.44 123.85 143.34 123.94 142.98 123.66 142.24 123.19 141.18 122.47 142 122.5 143.5 123.02 141.72 121.66 144.43 123.18 142.81 121.72 142.19 120.84 143.71 121.83 144.39 122.2 144.78 122.32 143.86 120.93 144.81 121.72 143.49 119.56 145.04 121.31 145.45 121.52 144.87 120.15 145.63 120.98 144.67 118.67 145.64 119.98 145.85 119.85 145.78 119.05 145.47 117.58 147.02 120.8 146.89 119.78 147.06 119.53 147.63 120.5 147.17 118.08 147.56 118.47 148.02 119.26 148.14 118.66 148.7 120.13 148.71 118.89 148.63 116.84 148.99 117.28 149.7 120.77 149.67 118.38 150.01 119.34 150.12 117.45 150.51 119.6 150.68 117.67 150.98 119.49 151.22 119.68 151.49 118.15 151.79 117.01 152.02 117.9 152.36 116.85 152.39 119.86 152.54 120.6 152.94 119.22 153.22 118.92 153.55 118.47 153.37 120.95 153.82 119.77 154.38 118.34 154.78 117.8 154.5 119.98 154.74 119.98 155.78 117.39 155.64 118.75 155.96 118.64 156.4 118.26 156.9 117.78 155.78 121.09 157.12 118.72 157.25 119.08 157.29 119.6 157.25 120.21 156.71 121.6 156.82 121.81 157.08 121.79 157.46 121.62 158.28 120.91 159.53 119.83 160.1 119.65 160.15 120.08 160.03 120.63 160.64 120.52 158.33 122.74 159.75 121.97 158.22 123.25 158.81 123.1 159.39 123.02 159.79 123.09 161.52 122.74 160.35 123.42 161.74 123.4 161.07 123.84 159.13 124.28 161.33 124.45" style="fill:#98d844"/><polygon points="164.95 119.76 164 120.03 164.65 120.38 163.98 120.56 161.93 120.28 164.78 121.4 162.88 120.97 162.55 121.05 164.73 122.49 164.68 122.87 164.63 123.25 161.23 121.04 162.35 122.2 162.04 122.23 161.73 122.24 163.08 124.04 161.47 122.6 161.36 122.82 160.32 121.79 160.64 122.58 161.96 125.03 160.84 123.74 160.81 124.19 161.38 125.8 159.8 123.3 159.52 123.23 159.41 123.52 159.55 124.47 158.65 122.8 159.72 126.44 159.49 126.65 159.23 126.82 158.69 125.99 158.36 125.79 157.55 123.57 157.68 125.19 157.47 125.44 157.32 126.02 157.15 126.62 156.66 125.13 156.25 123.86 156.28 126.27 155.97 125.81 155.73 126.15 155.43 125.47 155.25 127.37 154.9 123.97 154.68 123.97 154.45 124 154.22 124.02 154.01 123.67 153.66 125.54 153.25 127.42 153.28 124.4 152.89 125.58 152.92 123.6 152.48 124.92 152.45 123.71 152.06 124.52 151.62 125.41 151.04 126.73 150.63 127.17 150.85 125.3 150.29 126.25 150.1 125.92 150.62 123.65 149.91 124.88 149.08 126.23 149.17 125.29 149.1 124.79 148.11 126.21 148.39 125.02 149.26 122.9 149.27 122.48 148.47 123.35 148.5 122.89 147.69 123.62 148.13 122.65 147.54 123 147.08 123.15 147.43 122.42 147.91 121.67 146.69 122.47 148.07 121.07 144.57 123.35 145.41 122.4 144.86 122.35 144.26 122.28 145.22 121.49 147.13 120.52 144.85 120.98 146.59 120.31 144.8 120.37 144.49 120.08 146.59 119.76 146.79 119.59 147.48 119.52 146.59 119.2 144.39 118.41 147.16 119 146.92 118.73 146.15 118.15 145.03 117.25 147.25 118.28 146.32 117.4 145.01 116.05 148.31 118.43 147.33 117.31 148.38 118.05 148.24 117.63 147.55 116.52 148.33 117.12 146.8 114.68 149.12 117.52 147.17 114.14 148.49 115.74 148.36 115 148.69 115.05 149.45 116 150.07 116.81 149.21 114.3 150.22 116.07 150.22 115.46 149.74 113.39 150.5 114.78 151.02 115.62 150.51 112.99 151.25 114.7 151.62 115.19 151.99 115.75 151.97 114.51 152.39 115.46 152.23 113.02 152.43 112.46 153.09 115.57 153.35 115.81 153.25 112.13 153.76 115.44 153.86 112.87 154.13 112.94 154.42 113.94 154.68 112.02 154.94 113.72 155.18 114.1 155.33 116.01 155.77 112.84 156.03 113 156.39 112.16 156.37 114.67 156.62 114.67 156.64 116.02 156.94 115.6 157.47 114.13 157.62 114.61 158.34 112.69 158.6 112.8 157.98 116.05 158.49 115.14 158.69 115.27 159.51 113.67 159.42 114.69 159.61 114.92 160.06 114.52 160.07 115.11 160.87 114.07 160.17 116 160.35 116.15 161.06 115.42 161.82 114.71 160.56 117.06 161.9 115.59 163.03 114.59 161.33 117.09 163.56 114.96 162.04 116.97 162.93 116.46 163.1 116.68 163.27 116.89 164.56 116.33 162.1 118.29 164.08 117.39 163.2 118.16 163 118.5 165.42 117.9 164.51 118.53 162.76 119.21 164.41 119.17 164.61 119.45 164.95 119.76" style="fill:#5e9319"/><polygon points="160.59 110.88 160.43 110.98 164.65 111.67 162.53 111.63 160.64 111.38 162.14 112.04 161.48 112.02 162.94 112.96 161.74 112.63 161.07 112.48 161.19 112.81 160.79 112.78 160.73 112.99 160.53 113.09 159.77 112.61 159.86 112.97 160.25 113.74 159.75 113.47 159.96 114.09 160.96 115.97 160.44 115.71 160.31 116.02 159.92 115.92 158.42 113.65 159.46 116.22 159.38 116.69 159.4 117.46 158.48 115.97 157.84 115.03 157.93 115.98 158.02 117.07 157.1 115.02 157.61 117.62 156.53 114.65 156.93 117.21 156.29 115.61 156.57 118.17 155.82 115.67 155.47 115 155.35 115.76 155.2 116.46 154.9 116.04 154.68 116.31 154.42 116.14 154.26 117.65 153.9 115.16 153.7 116.96 153.44 115.87 153.19 116.39 152.89 117.98 152.72 115.98 152.48 115.91 152.26 115.66 152.01 115.84 151.69 116.49 151.66 114.89 151.5 114.5 151.31 114.31 151.06 114.51 150.71 115.1 150.61 114.53 149.68 117.21 149.22 117.84 149.88 114.7 149.87 114.02 149.4 114.73 147.99 117.8 148.13 116.65 147.52 117.37 148.56 114.43 147.6 115.86 148.16 114.25 148.2 113.72 146.66 115.88 147.05 114.75 146.47 115.17 145.9 115.5 147.37 113.16 147.17 113.09 146.59 113.45 146.46 113.27 145.72 113.68 145.43 113.6 146.76 112.25 146.44 112.28 143.75 113.78 145.76 112.28 144.3 112.78 144.72 112.3 143.68 112.4 145.9 111.47 144.8 111.54 144.29 111.39 143.77 111.17 145.44 110.88 142.55 110.5 145.56 110.54 142.79 109.8 144.35 109.85 143.54 109.3 142.93 108.7 144.71 109.17 144.53 108.78 144.61 108.51 144.82 108.32 145.35 108.4 146.06 108.68 144.54 106.96 146.29 108.3 146.88 108.62 146.27 107.59 147.09 108.22 145.46 105.65 147.57 108.19 147.9 108.31 148.13 108.32 146.85 105.64 148.12 107.43 147.31 105.31 147.15 104.28 148.8 107.32 147.77 104.2 149.17 107.05 148.86 105.5 148.8 104.49 149.6 106.13 149.32 104.26 150.03 105.86 150.7 107.6 150.43 105.4 150.9 106.45 150.97 105.58 151.48 107.12 151.23 103.87 151.6 104.55 152.08 106.6 152.36 107.19 152.4 104.67 152.78 107.03 153.01 107.24 153.16 103.27 153.44 104.2 153.73 103.35 154.01 103.42 154.18 105.63 154.52 104.25 154.76 104.52 154.93 105.45 154.96 107.24 155.69 103.62 155.64 105.72 155.78 106.32 156.07 106.07 156.55 105 156.61 105.84 156.63 106.75 157.3 105.21 157.46 105.6 157.44 106.44 157.53 106.9 158.66 104.57 158.02 106.89 158.12 107.25 159.67 104.45 158.13 108.23 158.46 108.02 158.57 108.24 159.12 107.71 160.05 106.66 161.07 105.63 161.53 105.52 159.64 108.44 160.35 107.91 160.4 108.19 161.15 107.74 161.47 107.79 161.82 107.84 162.14 107.93 162.79 107.82 161.18 109.21 161.36 109.34 161.34 109.58 161.22 109.84 164.37 108.95 164.14 109.41 161.6 110.31 160.5 110.65 163.94 110.53 160.59 110.88" style="fill:#a9ef3a"/><polygon points="156.97 106.68 156.72 107.02 155.34 107.18 156.45 107.66 155.62 107.77 155.68 108.08 154.83 108.03 156.87 109.29 153.41 107.78 154.36 108.57 154.79 109.15 156.03 110.45 155.93 110.81 154.52 109.96 154.33 110.16 152.61 108.67 154.82 111.58 154.35 111.51 153.55 110.92 152.07 109.24 153.24 111.44 153.22 111.94 152.29 110.88 152.76 112.29 151.05 109.49 151.69 111.34 152.15 113.04 150.9 110.74 150.23 109.64 151.09 112.67 149.95 110.1 149.72 110.08 149.94 111.63 149.65 111.5 149.36 111.32 149.59 113.44 148.74 110.64 148.48 110.45 148.88 114.32 148.34 112.6 148.29 114.24 147.63 110.78 147.56 112.44 147.31 112.6 146.98 111.19 146.79 112.22 146.55 112.98 146.29 112.42 146.01 113.97 145.86 110.31 145.62 110.76 145.3 112.13 145.2 110.44 144.8 112.11 144.36 113.64 144.24 112.54 143.82 113.52 144.16 110.09 143.17 113.95 142.87 113.97 143.08 111.88 142.33 113.75 142.69 111.43 142.88 109.99 142.18 111.44 142.44 110 141.7 111.34 141.05 112.28 141.68 110.15 141.36 110.33 140.02 112.52 141.22 109.63 139.84 111.66 139.79 111.22 140.26 109.99 140.01 109.96 139.32 110.52 138.32 111.38 139.4 109.63 140.1 108.52 138 110.4 137.61 110.38 139.44 108.42 138.5 108.92 137.91 109.06 137.72 108.88 137.38 108.77 136.35 108.97 138.23 107.83 138.28 107.6 138.73 107.28 138.04 107.27 136.05 107.34 137.06 106.94 135.07 106.68 136.88 106.41 138.47 106.35 138.76 106.24 138.31 105.96 136.74 105.23 135.79 104.51 139.45 105.9 136.48 104.08 137.88 104.58 137.28 103.86 138.26 104.25 136.93 102.79 139.01 104.29 137.94 102.89 139.64 104.33 138.21 102.31 139.11 102.98 140.5 104.45 139.69 102.94 139.81 102.65 141.11 104.34 139.7 101.45 140.74 102.82 141.25 103.33 141 102.26 140.79 101.15 141.1 101.21 141.65 101.88 141.47 100.66 141.77 100.68 141.71 99.55 142.01 99.53 142.38 99.78 142.94 100.89 143.67 103.02 143.16 99.38 143.77 101.1 144.05 101.23 144.51 102.7 144.31 99.31 144.75 100.77 144.93 99.91 145.22 100.18 145.43 98.92 145.85 102.8 146.03 100.8 146.29 99.08 146.5 102.98 146.82 100.16 147.15 98.95 147.38 99.78 147.59 100.56 147.97 99.42 147.95 101.83 148.01 103.1 148.35 102.37 148.69 101.73 148.97 101.6 149.5 100.29 149.33 102.18 149.26 103.37 150.61 99.39 150.13 101.95 150.51 101.58 150.39 102.66 151.41 100.63 151.54 101.05 150.88 103.26 151.81 101.76 152.63 100.7 151.17 104.09 151.69 103.55 151.99 103.47 151.63 104.43 153 102.78 153.92 101.94 153.84 102.53 153.84 102.95 155.24 101.81 153.67 103.88 153.53 104.33 155.16 103.21 154.92 103.79 154.74 104.25 153.02 105.64 155.7 104.31 154.71 105.13 154.31 105.55 155.21 105.45 154.49 105.9 154.76 106.05 156.56 106.02 155.44 106.43 156.97 106.68" style="fill:#7ebc1d"/><polygon points="132.83 142.29 130.06 142.45 130.01 142.61 130.06 142.79 132.91 143.75 129.98 143.13 132.45 144.34 130.27 143.66 130.38 143.97 131.91 145.2 128.8 143.4 130.07 144.58 129.77 144.63 129.71 144.89 129.88 145.38 129.25 145.06 129.68 145.92 129.3 145.87 129.87 147.06 129.52 147.07 128.45 145.93 128.52 146.51 127.86 145.85 127.75 146.12 127.51 146.17 127.74 147.22 127.97 148.39 127.95 149.11 127.63 149.13 126.25 146.12 126.88 148.74 126.25 147.66 126.14 148.19 125.77 147.85 125.64 148.39 124.76 145.63 124.78 146.83 124.52 146.7 124.62 148.73 123.98 146.16 124.17 149.49 123.9 149.57 123.65 150.02 123.23 148.11 122.98 148.13 122.7 147.38 122.47 148.01 122.21 147.68 121.94 149.2 121.66 149.31 121.52 146.73 121.07 149.88 121.04 147.01 120.78 147.17 120.67 146.19 120.16 148.21 120.02 147.44 119.66 148.05 119.11 149.48 119.41 146.81 118.94 147.76 119.21 145.73 118.12 148.77 117.82 148.82 118.25 146.62 117.75 147.33 117.6 147 117.43 146.77 117.4 146.22 116.13 148.42 115.79 148.45 116.8 145.89 116.06 146.74 116.06 146.24 115.38 146.85 116.49 144.76 114.09 147.69 114.14 147.11 115.83 144.63 114.05 146.3 115.55 144.37 115.79 143.87 113.3 145.79 114.05 144.81 115.3 143.63 114.27 144.09 113.42 144.31 113.74 143.86 113.06 143.89 113.44 143.47 113.88 143.1 113.15 143.04 115.22 142.5 112.42 142.58 111.42 142.29 113.92 142.09 114.21 141.93 111.16 141.12 113.25 141.3 113.44 141.1 111.74 140.13 112.8 140.25 115.5 141.42 111.96 139.02 114.91 140.66 113.02 138.95 112.81 138.35 113.32 138.39 114.19 138.82 113.55 137.72 114.68 138.56 116.16 140.03 116.19 139.74 116.54 139.88 115.67 138.17 114.82 136.25 117.17 139.8 116.73 138.55 116.58 137.71 116.28 136.47 117.73 139.1 116.54 135.62 117.3 136.76 118 137.94 118.56 138.9 118.05 136.49 117.9 135.02 119.15 138.6 118.66 135.64 119.06 136.19 119.08 134.93 119.9 137.84 119.97 136.85 120.21 136.74 120.64 138.19 120.57 135.38 120.92 136.28 121.07 134.62 121.38 135.13 121.72 137.05 121.94 135.22 122.21 135.43 122.46 136.83 122.78 134.68 122.86 138.69 123.22 136.65 123.53 135.92 123.5 138.72 124.03 136.23 124.03 138.06 124.45 136.85 124.34 138.88 124.65 138.4 125.13 137.26 125.36 137.35 125.7 137 126.26 135.95 126.76 135.26 126.58 136.73 127.19 135.8 126.43 138.61 126.38 139.32 126.56 139.41 128.25 136.26 128.27 136.86 127.84 138.28 127.51 139.34 129.21 136.92 127.98 139.38 129.39 137.7 129.25 138.36 129.36 138.64 128.81 139.68 131.1 137.49 128.6 140.49 128.67 140.67 131.63 138.35 130.76 139.46 130.6 139.91 129.45 140.93 131.86 139.78 129.66 141.21 131.32 140.7 133.08 140.38 131.92 141.1 129.22 141.96 130.7 141.87 132.29 141.97 132.83 142.29" style="fill:#84c935"/><polygon points="125.71 136.61 126.56 136.82 127.5 137.17 125.34 137.01 125.22 137.12 128.11 138.25 128.44 138.75 125.97 137.94 126.27 138.34 124.7 137.62 126.34 138.95 126.6 139.47 126.6 139.83 124.3 138.07 124.98 139 126.77 141.27 126.19 141.08 126.35 141.77 125.47 141.11 124.48 140.16 124.26 140.26 123.31 139.14 125.03 142.59 124.1 141.48 124.03 141.93 123.52 141.5 122.66 140.16 123.17 141.99 122.83 141.86 122.53 141.79 121.68 140.04 121.5 140.17 121.81 142.04 120.98 139.9 120.91 140.51 121.44 143.94 120.36 140.02 120.18 140.24 120.56 143.93 119.99 141.91 119.53 140.25 119.32 140.26 119.14 140.73 119.06 142.71 118.77 142.13 118.46 140.49 118.27 142.27 118.02 142.65 117.73 144.17 117.48 143.36 117.17 144.19 116.94 143.29 116.7 142.92 116.36 143.68 116.24 142.36 116.08 141.68 115.88 141.41 115.39 142.77 114.93 143.73 114.71 143.4 115.22 140.14 114.67 141.37 114.22 142.06 114 141.9 113.32 143.15 113.02 143.16 114.01 139.75 113.58 140.24 113.26 140.42 112.03 142.54 111.94 142.08 111.98 141.4 112.69 139.61 112.19 140.03 110.68 141.96 110.81 141.24 110.31 141.45 110.5 140.73 110.86 139.87 111.1 139.25 110.98 139.06 108.55 141.04 110.7 138.75 110.01 139.02 108.49 139.79 111.06 137.79 110.17 138.11 107.92 138.98 109.15 138.1 108.11 138.19 107.06 138.15 107.8 137.6 109.77 137 107.76 136.94 106.91 136.61 109.35 136.39 107.37 135.9 108.62 135.79 108.58 135.49 110.14 135.73 107.88 134.59 110.01 135.26 109.7 134.85 108.95 134.1 110.44 134.8 109.26 133.61 110.91 134.65 109.04 132.63 111.64 134.82 111.14 134.01 111.81 134.46 110.56 132.56 111.29 133.1 112.36 134.23 110.49 130.96 112.33 133.42 111.05 130.7 113.19 134.11 112.62 132.52 112.78 132.3 111.99 129.88 112.5 130.32 113.53 132.21 114.06 132.99 114.34 133.15 113.82 130.72 113.87 129.92 114.81 132.39 114.47 130.02 115.38 132.85 115.06 130.12 115.89 133.2 115.69 130.63 115.97 130.73 116.44 132.47 116.5 130.89 116.82 131.59 117.07 131.83 117.26 130.94 117.52 131.06 117.77 130.81 118.02 131.6 118.28 130.54 118.46 132.82 118.71 132.08 119.04 130.69 119.33 130.35 119.42 131.99 119.92 129.88 120 131.19 119.95 133.08 120.5 131.24 121.11 129.47 120.81 132.17 121.42 130.63 121.13 132.76 121.34 132.82 122.39 130.15 122.75 129.96 122.58 131.29 122.26 132.87 123.23 131.09 122.36 133.74 124.16 130.36 123.37 132.62 123.52 132.84 123.54 133.27 123.28 134.13 124.84 132.06 124.89 132.46 124.96 132.82 125.01 133.16 124.65 133.97 126.63 132.11 124.37 134.85 124.66 134.82 127.59 132.55 125.39 134.7 127.37 133.55 125.43 135.15 124.98 135.61 125.27 135.63 127.39 134.92 126.59 135.5 127.87 135.38 127.22 135.83 129.25 135.82 126.99 136.37 125.71 136.61" style="fill:#5e9319"/><polygon points="129.07 146.97 127.37 147.24 126.6 147.41 128.95 148.11 128.93 148.5 128.63 148.8 126.45 148.28 127.28 148.94 128.27 149.82 125.17 148.28 127.34 150.02 127.78 150.76 127.01 150.55 125.47 149.53 127.05 151.46 125 149.69 124.28 149.19 123.8 148.89 124.23 149.78 123.85 149.61 125.54 152.62 123.36 149.59 123.56 150.36 123.14 150.04 123.19 150.6 124.31 153.56 123.48 152.4 123.2 152.43 122.57 151.55 122.95 153.33 122.85 153.93 121.76 151.4 121.45 151.16 121.14 150.86 121.17 151.96 120.96 152.11 120.69 152.05 120.58 152.78 119.98 150.7 119.81 151.06 120.05 154.75 119.54 152.75 119.28 152.73 119.15 154.37 118.75 152.16 118.48 151.5 118.26 152.23 118.02 151.56 117.74 154.4 117.47 154.08 117.19 154 116.99 152.97 116.63 154.16 116.49 152.8 116.47 150.91 115.86 153.58 115.5 154.11 115.55 152.3 115.33 152.14 115.47 150.34 114.48 153.52 115.01 150.45 114.47 151.57 113.7 153.25 114.32 150.51 113.39 152.47 113.85 150.52 112.65 152.91 112.65 152.19 112.94 150.95 113.05 150.19 111.22 153.19 112.05 151.1 111.93 150.83 112.18 150 111.53 150.56 110 152.23 112.11 149.05 111.41 149.59 111.6 149.07 111.31 149.1 111.05 149.07 109.06 150.51 108.68 150.42 109.2 149.66 109.34 149.24 110.49 148.29 111.2 147.75 108.08 148.91 110.75 147.64 110.93 147.45 108.71 147.78 106.89 147.75 110.1 147.15 108.79 146.97 110.08 146.8 111.01 146.76 109.44 146.32 110.88 146.49 110.2 146.12 107.39 144.75 110.5 145.86 111.21 146.06 110.36 145.35 108.31 143.66 110.27 144.76 108.34 142.81 111.1 144.92 110.27 143.79 111.82 145.11 111.63 144.6 110.29 142.58 109.93 141.61 112.27 144.46 112.27 144.09 112.27 143.68 112.22 143.15 111.63 141.51 111.86 141.34 112.66 142.41 112.81 142.13 113.28 142.58 112.98 141.13 113.6 142.06 114.1 142.78 113.88 141.27 114.34 141.91 114.86 142.94 114.97 142.44 114.78 140.47 115.09 140.63 115.78 142.95 116 142.93 116.05 141.7 116.16 140.55 116.36 139.9 116.67 140.22 116.94 140.27 117.36 143.08 117.44 139.16 117.75 140.57 118.02 140.4 118.27 141.43 118.49 142.34 118.89 139.06 118.92 142.87 119.15 142.71 119.39 142.68 119.79 141.29 119.77 143.21 120.36 140.91 120.22 143.17 120.79 141.43 121.04 141.48 121.53 140.53 122.02 139.74 121.61 142.24 122.45 140.33 122.58 140.83 122.69 141.35 122.28 143.17 123.31 141.25 123.7 141.03 124.05 140.96 123.38 142.97 123.94 142.41 124.64 141.69 125.05 141.55 124.23 143.37 124.88 142.84 125.86 141.95 124.91 143.66 124.42 144.6 126.01 143.16 124.23 145.36 125.69 144.22 124.47 145.59 126.86 143.91 124.7 145.79 128.11 143.82 128.13 144.21 127.31 145 125.66 146 126.46 145.9 125.15 146.49 126.97 146.25 127.58 146.41 126 146.8 129.07 146.97" style="fill:#a9ef3a"/><polygon points="162.52 100.14 163.37 100.44 164.15 100.86 163.15 101.02 160.75 100.67 163.35 101.71 163.07 101.94 160.91 101.22 161.45 101.72 161.12 101.76 162.28 102.83 161.41 102.5 161.64 103.01 162.37 104.05 162.1 104.22 162.38 104.99 162.12 105.19 161.92 105.46 159.53 102.75 160.59 104.66 161.1 105.97 159.02 103.11 159.38 104.18 158.68 103.39 159.53 105.58 158.48 103.99 158.98 105.71 157.76 103.42 158.08 104.86 157.84 104.93 157.1 103.48 157.16 104.39 157.29 105.69 157.09 105.95 156.89 106.23 156.23 104.48 156.38 106.4 155.91 105.34 155.68 105.41 155.59 106.53 155.31 106.47 155.19 107.87 154.64 104.86 154.42 105.04 154.33 107.93 154.01 106.95 153.73 106.87 153.46 105.6 153.21 105.72 152.92 106.94 152.66 106.76 152.45 105.88 152.16 106.28 151.87 106.6 151.59 106.67 151.21 107.42 151.17 105.9 150.93 105.77 150.39 107.2 150.72 104.38 149.75 107.42 150.41 103.77 150.02 104.36 149.44 105.45 148.63 107.08 149.51 103.73 148.19 106.59 148.54 104.97 148.9 103.52 148.03 104.88 147.56 105.25 148.63 102.65 148.04 103.31 146.45 105.54 148.06 102.49 146.72 104.1 146.5 103.97 146.84 103.13 146.5 103.17 146.95 102.34 147.27 101.74 146.1 102.61 145.06 103.2 145.98 102.14 145.54 102.19 146.78 101.15 144.19 102.43 145.47 101.48 144.69 101.59 144.47 101.4 146.48 100.58 144.57 100.86 143.22 100.8 143.25 100.47 143.86 100.14 144.11 99.87 146.42 99.92 143.82 99.27 143 98.74 146 99.4 144.43 98.58 143.44 97.8 143.59 97.51 145.89 98.57 143.74 96.81 146.54 98.57 145.97 97.85 147.04 98.55 146.34 97.59 146.2 97.11 144.95 95.26 145.91 95.96 147.11 97.13 147.23 96.92 146.71 95.69 147.02 95.69 146.74 94.67 147.88 96.2 148 95.92 147.88 95.08 148.86 96.67 148.99 96.42 148.89 95.51 149.57 96.7 148.57 93.01 149.93 96.41 149.88 95.42 150.14 95.48 150.03 94 150.26 93.82 150.58 94.05 150.96 94.64 151 93.34 151.19 92.73 151.63 93.93 151.92 94.21 152.38 96.48 152.46 94.53 152.76 95.5 152.97 94.58 153.22 94.88 153.46 93.56 153.73 93.59 153.96 94.67 154.18 95.24 154.44 94.9 154.55 96.41 154.91 95.04 155.08 95.64 155.6 93.64 155.48 96.06 156.28 92.93 156.34 94.06 156.79 93.23 157.18 92.83 157.49 92.82 157.29 94.59 157.86 93.61 158.26 93.3 158.53 93.41 157.57 96.75 157.98 96.3 159.35 93.72 158.52 96.22 159.41 94.95 158.51 97.23 160.23 94.59 158.74 97.63 159.59 96.67 160.63 95.56 160.31 96.47 161.35 95.56 161.19 96.21 161.04 96.78 159.88 98.31 159.74 98.69 161.57 97.33 162.11 97.23 163.35 96.7 161 98.6 163.78 97.27 163.12 97.99 161.25 99.1 161.69 99.14 161.5 99.41 164.1 99.06 161.08 99.84 161.97 99.93 162.52 100.14" style="fill:#85b52a"/><polygon points="141.54 105.07 139.04 105.22 141.06 105.64 140.42 105.8 138.66 105.57 142.47 107.02 140.8 106.74 139.19 106.27 138.21 105.94 141.4 108.11 138.37 106.39 139.36 107.37 140.14 108.34 140.51 109.09 138.33 107.32 140.12 109.59 138.98 108.73 139.64 109.99 138.35 108.75 138.68 109.67 137.74 108.72 136.84 107.68 138.01 110.17 137.08 108.99 137.95 111.29 136.66 109.22 137.38 111.46 136.74 110.68 136.48 110.75 136.12 110.54 135.19 108.57 135.25 109.51 135.48 111.16 134.54 108.66 135.01 111.53 134.45 110.23 134.46 111.55 134.22 111.76 134.11 112.78 133.67 111.76 133.38 111.61 133.15 112.06 132.7 110 132.39 109.08 132.36 112.64 132.07 112.5 131.79 112.81 131.5 109.01 131.22 112.35 131.07 108.68 130.8 109.72 130.45 111.38 130.06 112.86 130.2 108.75 129.56 112.18 129.58 110.08 129.19 110.94 128.77 111.85 128.76 110.47 128.59 110.08 127.99 111.55 127.5 112.33 127.74 110.4 127.56 110.14 126.71 111.9 126.77 110.87 126.24 111.49 127.22 108.32 126.13 110.31 125.22 111.63 126.21 108.95 125.45 109.9 125.97 108.43 124.48 110.47 125.21 108.8 124.2 109.84 124.68 108.71 125.1 107.78 125.25 107.28 123.25 109.19 123.49 108.52 125 106.74 124.59 106.86 122.74 108.07 123.66 107.07 121.67 108.06 121.24 107.92 123.14 106.6 122.24 106.72 123.06 106.15 121.81 106.26 120.88 106.15 120.97 105.77 122.8 105.3 123.38 105.07 123.23 104.88 124.26 104.82 123.72 104.58 124.32 104.57 123.57 104.18 121.71 103.2 123.56 103.75 124.54 104.07 123.52 103.24 124.14 103.41 124.83 103.71 122.1 101.14 124.57 103.01 122.89 101.02 123.92 101.69 124.97 102.53 123.81 100.72 124.54 101.24 125.41 102.05 125.16 101.26 126.15 102.44 124.9 99.81 125.95 101.21 125.35 99.45 125.47 99.04 127.07 102 126.29 99.54 126.65 99.73 127.75 102.05 127.85 101.68 127.91 101.14 127.54 99.03 127.54 97.99 127.92 98.31 128.3 98.72 128.59 98.8 128.83 98.62 129.25 99.55 129.38 98.72 129.84 100.27 130.16 101 130.38 101.01 130.53 99.83 130.74 99.19 131 99.5 131.23 97.97 131.5 98.67 131.75 99.83 131.98 100.15 132.19 100.77 132.51 99.4 132.74 99.68 132.88 100.66 133.4 98.36 133.57 99.07 133.96 98.32 134.04 99.42 134.63 97.75 134.88 97.94 134.81 99.47 135.33 98.51 134.76 101.51 135.96 98.36 136.02 99.08 136.55 98.39 136.49 99.36 135.68 102.08 136.01 101.84 136.49 101.3 137.44 99.89 136.93 101.45 138.15 99.75 137.81 100.87 137.56 101.72 138.13 101.29 137.43 102.66 138.48 101.64 139.53 100.78 139.73 100.99 138.78 102.37 139.08 102.41 138.02 103.62 139.72 102.51 140.41 102.33 139.53 103.22 139.52 103.48 141.88 102.57 142.32 102.78 141.77 103.37 142.5 103.53 138.92 104.66 142.61 104.3 139.22 104.92 141.54 105.07" style="fill:#84c935"/><polygon points="151.92 95.94 150.7 96.26 151.27 96.66 148.95 96.55 148.41 96.61 151.42 97.83 149.27 97.34 148.98 97.46 149.47 98 149.03 98.03 147.67 97.38 148.19 98 149.47 99.38 149.22 99.56 149.78 100.55 147 98 148.94 100.57 147.86 99.7 147.83 100.1 148.29 101.24 146.23 98.58 147.68 101.4 147.21 101.15 147.27 101.87 147.14 102.27 145.7 99.89 145.87 100.86 145.78 101.32 144.81 99.53 145.75 102.83 144.43 99.76 144.92 102.14 144.7 102.36 144.15 101.34 143.42 99.41 143.44 100.5 143.21 100.53 142.83 99.73 143.1 102.79 142.67 101.76 142.63 103.49 142.19 102.03 141.72 99.68 141.69 102.39 141.42 102.33 141.1 100.7 140.9 102.75 140.63 101.52 140.4 100.8 140.14 101.4 139.81 102.95 139.59 102.18 139.56 99.54 139.29 99.97 138.97 100.82 138.59 101.75 138.65 99.76 138.45 99.64 138.27 99.44 137.85 100.38 137.65 100.19 136.87 102.27 136.4 102.93 136.68 101.04 136.11 101.97 136.03 101.36 135.36 102.39 136.11 99.8 135.86 99.8 135.01 101.08 134.84 100.83 134.95 100.06 135.41 98.76 135.2 98.7 135.06 98.54 134.73 98.68 132.47 101.4 132.85 100.39 133.7 98.95 131.78 100.71 132.14 99.87 131.32 100.23 133.05 98.3 133.88 97.38 132.81 97.93 131.3 98.62 133.69 96.94 133.01 97.11 132.28 97.22 130.43 97.62 130.71 97.19 132.96 96.41 131.28 96.48 132.89 96.1 130.26 95.94 133.23 95.81 133.03 95.64 132.77 95.44 133.65 95.5 131.4 94.6 131.94 94.53 133.38 94.96 133.79 95.01 131.72 93.53 131.78 93.23 134.05 94.65 131.56 92.3 133.67 93.84 131.76 91.62 132.96 92.46 133.4 92.58 133.96 92.89 134.25 92.91 135.12 93.77 133.24 90.5 133.39 90.17 134.82 92.08 135.48 92.83 135.5 92.4 136.1 93.15 135.31 90.82 135.45 90.49 136.05 91.31 136.14 90.83 136.08 89.82 137.16 92.42 137.49 92.78 137.28 91.18 137.04 89.15 137.19 88.51 137.54 88.81 138.39 91.88 138.68 92.29 138.32 88.22 138.87 90.3 139 89.13 139.37 90.21 139.6 89.84 139.91 90.98 140.1 89.29 140.39 90.58 140.63 88.38 140.91 88.76 141.12 90.85 141.35 90.95 141.74 88.77 141.9 90.14 142.05 91.19 142.26 91.42 142.75 89.58 142.75 91.25 142.83 92.13 143.72 88.81 144.09 88.45 144.01 90.03 144.63 88.74 144.11 91.62 144.06 92.57 145.41 89.16 144.38 92.93 145.92 89.47 145.81 90.48 145.72 91.37 145.87 91.63 145.54 92.84 146.16 92.12 146.63 91.77 146.88 91.83 146.07 93.55 146.85 92.76 147.38 92.42 146.54 93.87 147.93 92.51 148.92 91.8 147.81 93.34 149.35 92.21 149.35 92.61 150.05 92.44 147.66 94.53 150.46 92.95 151.07 93 148.57 94.63 150.62 93.99 149.91 94.59 150.98 94.58 149.56 95.22 149.52 95.47 150.4 95.65 151.92 95.94" style="fill:#a9ef3a"/><polygon points="160.56 92 160.75 92.34 159.59 92.53 159.73 92.83 159.43 93.04 160.92 93.83 157.39 92.76 158.01 93.22 157.48 93.15 159.37 94.54 159.96 95.31 157.82 94.07 157.49 94.06 158.76 95.54 158.88 96.07 159.16 96.83 158.67 96.76 157.35 95.59 156.56 94.93 156.49 95.22 156.05 94.95 157 96.94 156.83 97.2 156.8 97.75 156.59 97.97 156.11 97.64 154.66 95.01 155.81 98.38 154.32 95.27 155.33 98.76 154.03 95.75 153.81 95.78 153.89 96.89 154.04 98.41 153.31 96.57 153.71 99.48 153.01 97.47 152.41 95.55 152.57 97.9 152 95.7 152.28 99.77 151.6 96.03 151.63 99 151.28 97.92 151.07 98.77 150.83 99.6 150.51 97.59 150.26 97.04 150.01 97.06 149.78 96.95 149.42 99.25 149.1 99.8 149.03 97.26 148.86 96.61 148.23 99.73 148.21 97.87 148.08 97.02 147.85 96.92 147.37 98.14 147.04 98.36 147.02 97.31 147 96.39 147.04 95.4 146.68 95.85 145.96 97.34 145.6 97.56 145.9 96.05 144.51 98.84 145.67 95.41 144.5 97.43 145.14 95.51 143.7 97.77 145.13 94.62 143.24 97.39 144.27 95.24 143.16 96.47 144.1 94.73 142.74 96.11 144.15 94.02 141.87 96.25 142.8 94.88 143.96 93.46 140.83 95.94 143.26 93.62 140.28 95.5 140.46 94.96 142.82 93.27 141.91 93.51 139.76 94.16 140.02 93.69 143.2 92.46 140.62 92.86 143.32 92.2 139.49 92.36 139.04 92 139.72 91.65 141.4 91.53 140.07 91.01 140.98 90.92 142.75 91.25 141.63 90.61 141.59 90.32 140.33 89.33 140.68 89.16 142.95 90.38 141.43 88.95 141.9 88.96 143.83 90.4 141.66 87.95 143.76 89.81 143.78 89.52 143.01 88.21 142.44 86.99 144.03 88.79 144.55 89.18 144.23 88.25 144.24 87.77 143.93 86.65 143.69 85.54 144.26 86.06 145.44 88.05 144.6 85.38 145.44 86.73 145.71 86.73 145.37 84.87 146.74 88.32 146.14 85.41 147.26 88.58 147.27 87.71 147.46 87.49 147.56 86.85 148.11 88.49 147.89 85.78 148.38 87.35 148.32 84.94 148.69 85.8 149.11 87.61 149.28 86.76 149.57 87.72 149.8 87.7 150.04 88.27 150.26 88.29 150.48 88.11 150.73 87.11 150.95 87.48 151.33 85.38 151.48 86.68 151.64 87.52 152.27 84.33 152.21 86.78 152.59 85.96 152.99 85.21 152.79 87.64 153.05 87.51 153.76 85.56 153.66 87.03 153.57 88.24 154.58 85.71 153.95 88.5 154.47 87.68 155.73 85.01 154.48 88.89 154.96 88.3 155.04 88.66 155.79 87.62 155.5 88.7 155.78 88.66 156.63 87.67 157.17 87.31 156.7 88.47 157.27 88.1 157.25 88.55 158.53 87.41 156.56 90.03 158.06 88.76 157.47 89.67 156.76 90.56 158.4 89.48 159.07 89.31 157.84 90.42 160.07 89.4 159.56 90.01 160.93 89.76 160.39 90.34 158.54 91.2 158.01 91.51 158.03 91.67 158.01 91.84 160.56 92" style="fill:#5e9319"/><polygon points="125.34 112.48 126.63 112.78 124.77 112.84 126.53 113.39 126.9 113.81 125.92 113.82 124.21 113.4 127.12 115 124.26 113.82 124.32 114.08 124.71 114.6 124.38 114.63 124.74 115.24 123.63 114.55 125.11 116.33 123.91 115.45 125.34 117.5 124.47 116.93 123.62 116.26 124.17 117.5 123.27 116.63 123.92 118.21 122.46 116.25 122.49 116.8 122.52 117.42 121.6 116.06 121.05 115.36 121.89 117.97 122.08 119.22 120.65 116.06 120.83 117.32 120.64 117.54 120.71 118.69 120.27 118.11 120.06 118.33 119.42 116.6 119.77 119.54 118.94 116.51 119.17 119.38 118.72 118.16 118.64 119.58 118.3 118.95 117.87 117.12 117.6 116.64 117.36 116.29 117.18 117.53 116.98 119.81 116.7 119.85 116.47 116.85 116.26 116.37 115.97 117.62 115.66 118.64 115.58 116.52 115 119.96 115.05 117.23 114.74 117.68 114.54 117.39 114.2 117.95 114.19 116.72 114.11 116.04 113.65 117.01 113.18 117.87 113 117.58 113.09 116.45 112.72 116.84 112.07 117.97 112.54 116.01 111.65 117.62 110.68 119.2 112.1 115.42 111.32 116.52 111.25 116.15 110.98 116.16 111.49 114.87 110.33 116.31 111.17 114.67 109.06 117.22 109.01 116.81 109.98 115.22 109.21 115.74 109.89 114.7 110.03 114.3 108.3 115.53 108.3 115.19 109.54 113.99 106.91 115.44 106.27 115.42 108.65 113.85 108.23 113.8 108.49 113.47 107.48 113.53 109.32 112.88 105.8 113.22 108.08 112.69 107.28 112.48 108.82 112.31 106.96 111.89 108.65 111.93 108.98 111.83 109.64 111.88 105.96 110.21 106.09 109.85 109.84 111.53 107.71 110.01 109.46 110.9 109.56 110.74 107.67 108.87 107.26 108.06 110.33 110.69 109.07 109.05 109.8 109.51 109.59 108.87 109.14 107.83 109.98 108.55 109.31 107.04 109.99 107.58 109.66 106.44 110.29 106.98 111.76 109.31 111.13 107.45 110.72 105.86 112.07 108.37 111.63 106.56 112.87 109.23 112.94 108.78 112.24 105.75 113.38 108.69 113.52 108.36 113.34 106.67 113.91 108.02 113.77 106.15 114.27 107.38 114.41 106.75 114.8 107.69 115.13 108.43 115.02 105.19 115.52 107.76 115.72 107.24 115.87 105.31 116.18 106.42 116.46 107.73 116.7 105.25 116.95 106.59 117.15 108.39 117.54 105.11 117.58 108.61 117.94 107.06 118.22 106.75 118.53 106.24 118.71 106.87 119.1 106.03 119.27 106.63 119.52 106.69 119.48 108.07 119.51 108.91 120.43 106.26 120.2 108.07 121.13 105.84 121.28 106.28 121.84 105.54 121.33 107.72 121.85 107.08 121.4 108.79 122.82 106.26 121.91 108.77 122.04 109 121.89 109.73 122.72 108.74 123.98 107.21 122.28 110.21 124.01 108.18 124.61 107.85 124.23 108.77 123.77 109.66 124.2 109.55 124.96 109.17 123.31 110.94 126.59 108.6 124.01 110.86 123.6 111.33 124.48 111.02 125.84 110.57 126.21 110.72 126.29 111.01 124.37 111.85 124.71 111.94 125.91 111.96 125.17 112.27 125.34 112.48" style="fill:#a9ef3a"/><polygon points="125.93 103.35 128.37 103.72 127.92 104.04 126.16 104.03 125.19 104 127.47 104.97 127.69 105.41 124.56 104.27 124.85 104.6 126.6 105.92 124.79 105 125.82 106.05 124.74 105.47 125.37 106.35 125.6 106.95 124.66 106.33 125.68 107.91 125.88 108.65 124 106.63 123.72 106.64 125.08 109.18 122.98 106.29 123.73 108.06 124.09 109.3 122.55 106.86 122.31 106.86 122.03 106.78 122.54 108.61 121.99 107.91 121.92 108.44 121.59 108.26 121.72 109.5 121.76 110.66 120.47 106.9 120.5 107.95 120.89 110.8 120.01 107.92 119.93 108.77 119.6 108.28 119.4 108.63 119.06 107.82 119.17 111.14 118.78 109.94 118.59 111.13 118.14 108.08 117.94 108.91 117.67 107.61 117.44 109.41 117.2 108.12 116.95 108.73 116.66 109.41 116.45 108.82 116.05 110.47 115.75 110.65 115.74 108.45 115.24 110.24 114.96 110.26 114.89 109.06 114.9 107.74 113.97 110.87 113.94 109.75 113.66 109.75 113.5 109.32 113.1 109.68 112.94 109.29 112.41 109.98 112.77 108.21 112.37 108.53 112.66 107.22 112.01 108.07 112.64 106.23 111.79 107.39 111.39 107.61 111.91 106.27 111.01 107.29 111.24 106.5 109.32 108.74 109.41 108.11 109.3 107.78 111.23 105.21 109.92 106.29 110.55 105.37 109.56 105.96 110.57 104.86 107.57 106.77 108.44 105.81 108.48 105.46 110.48 104.19 109.46 104.47 110.59 103.87 106.55 104.86 106.37 104.51 106.25 104.13 109.36 103.53 106.63 103.35 110.03 103.21 108.29 102.84 106.38 102.18 107.96 102.22 107.41 101.73 109.66 102.31 108.03 101.31 109.24 101.65 110.52 102.19 109.66 101.39 110.35 101.65 108.58 99.89 109.06 99.92 110.13 100.61 108.84 98.85 110.25 100.03 109.8 99.07 110.98 100.2 109.81 98.1 111.19 99.68 111.42 99.6 111.28 98.88 111.83 99.37 110.95 97.05 112.08 98.78 112.23 98.5 111.76 96.66 113.39 100.11 112.67 97.45 112.72 96.72 112.95 96.52 113.31 96.72 113.6 96.72 114.33 98.55 114.2 96.85 114.95 99.2 115.26 99.67 115.1 97.28 115.12 95.6 115.78 98.51 116.14 99.71 116.34 99.51 116.34 96.38 116.59 95.78 116.97 98.66 117.15 95.65 117.44 99.5 117.71 96.69 117.99 96.32 118.26 96.35 118.52 96.56 118.87 95.73 118.86 98.56 119.1 98.49 119.32 98.63 119.9 96.55 119.89 98.17 119.97 99.01 120.46 97.83 120.79 97.54 120.81 98.48 121.19 98.07 121.77 97.01 122.16 96.73 121.84 98.5 121.47 100.17 122.24 98.83 123.14 97.37 121.99 100.51 122.56 99.83 123.88 97.8 123.49 99.06 123.39 99.72 124.78 97.99 124.1 99.52 124.34 99.61 123.92 100.54 124.69 99.97 123.98 101.11 125.84 99.51 124.38 101.28 125.84 100.28 127 99.73 126.72 100.33 127.5 100.21 125.29 101.85 127.44 101.03 124.56 102.58 127.27 101.8 124.53 102.88 126.94 102.5 126.97 102.79 125.36 103.18 125.93 103.35" style="fill:#84c935"/><polygon points="133.03 100.14 134.46 100.49 131.3 100.42 134.14 101.14 132.1 100.93 131.25 100.85 132.92 101.71 131.26 101.2 130.72 101.09 131.79 101.94 132.55 102.74 132.25 102.86 133.3 104.11 130.92 102.33 133.05 104.79 130.89 102.92 131 103.4 132.16 105.26 129.83 102.62 131.02 104.72 129.48 102.82 131.09 105.91 130.16 104.87 129.25 103.72 128.71 103.13 128.43 103.02 129.87 106.86 129.32 106.3 127.92 103.44 127.76 103.62 127.53 103.61 127.44 104.04 127.57 105.32 127.28 105.18 127.03 105.21 127.3 107.56 126.31 104.13 126.04 103.9 126.24 106.49 125.67 104.4 125.72 106.61 125.28 105.05 125.08 105.4 124.73 103.97 124.66 106.81 124.38 106.38 124.11 106.09 123.85 105.76 123.58 107.19 123.29 107.52 123.02 107.39 122.73 107.45 122.44 107.6 122.33 105.88 122.34 103.78 121.72 106.62 121.44 106.62 121.23 106.27 120.99 106.17 120.61 106.66 120.36 106.53 120.72 104.09 120.29 104.79 119.91 105.2 119.36 106.07 119.83 103.94 119.86 103.23 118.34 106.41 117.88 106.74 118.9 103.84 117.42 106.32 117.21 106.08 117.7 104.59 116.57 105.98 118.36 102.63 118.06 102.71 116.91 103.94 116.7 103.79 116.95 103.11 116.89 102.84 116.84 102.57 114.75 104.23 117.14 101.75 114.86 103.32 115.2 102.7 114.64 102.74 116.69 101.26 116.28 101.28 114.44 101.85 113.89 101.73 115.31 101.01 115.42 100.76 115.33 100.56 113.94 100.44 113.67 100.14 116.6 100.01 116.77 99.91 116.8 99.8 116.46 99.58 113.7 98.48 115.66 98.93 114.7 98.23 114.67 97.89 115.01 97.76 116.58 98.54 116.37 98.14 117.29 98.64 115.62 96.86 116.9 97.76 117.15 97.73 115.93 95.96 115.78 95.3 116.98 96.42 117.1 96.16 116.47 94.7 116.63 94.39 117.3 94.96 118.36 96.37 118.58 96.29 118.19 94.91 118.29 94.47 118.72 94.78 119.86 97.05 119.75 96.11 119.78 95.48 120.12 95.75 120.57 96.46 119.83 92.79 120.3 93.52 121.22 96.41 121.15 94.94 121.19 93.78 121.39 93.29 121.61 92.93 122.14 94.9 122.26 93.72 122.52 93.58 122.77 93.33 123.11 94.73 123.29 92.59 123.58 93 123.85 93 124.07 96.3 124.29 96.3 124.59 94.86 124.88 94.13 125.22 93.25 125.39 94.22 125.76 93.33 125.57 96.58 125.93 95.71 126.66 92.98 126.33 96.08 127.1 93.62 127.61 92.67 127.47 94.37 127.11 96.6 127.83 94.97 128.1 94.96 127.84 96.45 128.77 94.64 129.34 93.93 128.87 95.73 130.03 93.8 129.85 94.84 129.78 95.57 130.67 94.51 130.07 96.07 130.17 96.38 131.63 94.68 131.79 95 132.1 95.09 132.31 95.34 130.15 98.17 133.02 95.53 133.14 95.88 131.52 97.71 130.69 98.65 130.6 98.92 131.64 98.44 130.73 99.19 131.32 99.05 133.11 98.49 133.98 98.49 133.16 99.06 134.66 99.03 131.94 99.78 131.12 100.01 133.03 100.14" style="fill:#7ebc1d"/><polygon points="125.67 94.96 125.04 95.11 128.09 95.67 127.84 95.99 124.57 95.44 124.56 95.58 126.58 96.56 125.59 96.38 126.73 97.27 125.58 96.89 126.44 97.78 125.92 97.74 124.07 96.51 124.94 97.56 125.92 98.89 125.07 98.39 124.64 98.29 125.58 99.88 123.72 97.86 124.56 99.47 124.98 100.64 123.22 98.31 123.86 99.89 124.24 101.19 123.88 101.16 122.7 99.31 123.17 101.02 123.1 101.6 122.34 100.43 122.59 101.93 121.01 98.11 121.66 100.92 121.4 101.01 121.35 101.86 120.25 98.53 120.2 99.28 119.93 99.09 119.85 99.95 119.98 102.24 119.61 101.66 118.97 98.74 118.82 99.35 118.89 102.81 118.43 100.35 118.17 100.09 117.92 99.9 117.67 99.64 117.44 102.2 117.22 98.6 116.88 102.4 116.71 100.06 116.39 101.22 116.03 102.38 115.72 102.55 115.74 100.09 115.7 98.63 115.03 101.43 115.08 99.62 114.38 101.94 114.36 100.71 114.31 99.84 114.28 98.98 113.41 101.23 113.05 101.47 112.89 101.05 113.27 99.16 112.3 101.07 113.17 98.17 111.7 101.03 112.11 99.46 111.74 99.65 110.7 101.07 110.34 101.08 110.18 100.75 110.94 99.01 110.26 99.55 109.83 99.66 110.78 97.98 108.98 99.76 109.27 98.97 111.27 96.53 110.47 97.05 110.04 97.17 110.1 96.84 110.78 96.12 109.16 96.97 108.1 97.29 109.44 96.3 109.77 95.94 110.05 95.67 109.96 95.54 106.48 96.1 109.79 95.26 108.15 95.22 106.58 94.96 110.23 94.83 108.42 94.46 107.85 94.1 107.34 93.66 110.04 94.24 108.87 93.59 108.57 93.19 108.04 92.59 110.53 93.81 108.92 92.48 108.04 91.45 108.91 91.78 109.52 91.97 109.87 91.96 108.97 90.6 110.97 92.5 109.3 90.04 109.39 89.64 110.8 91.15 110.99 90.99 111.53 91.4 111.36 90.63 111.3 89.97 111.58 89.94 112.61 91.52 112.18 89.99 113.19 91.77 113.17 91.13 112.67 89.06 113.41 90.44 113.4 89.57 113.93 90.51 113.54 88.1 113.79 87.92 114.12 88.11 114.31 87.61 115.21 90.97 114.93 87.85 115.69 91.18 115.81 90.38 115.76 87.68 116.04 87.74 116.58 91.35 116.79 91.29 117 91.06 117.22 91.29 117.44 89.25 117.67 90.15 117.94 89.22 118.13 90.47 118.6 87.04 118.64 89.89 119.02 88.6 119.4 87.73 119.54 88.69 119.94 87.89 120.06 88.83 120.4 88.48 120.07 91.22 120.96 88.45 120.98 89.45 121.44 88.77 120.81 91.75 121.57 90.11 121.41 91.3 122.6 88.8 122.63 89.47 122.36 90.77 123.6 88.65 122.72 91.11 123.96 89.26 123.87 90 123.76 90.71 124.68 89.75 123.5 91.99 124 91.69 124.69 91.18 124.53 91.77 124.2 92.49 126.45 90.5 124.67 92.62 124.25 93.25 127.19 91.19 126.08 92.4 124.2 93.9 124.33 93.99 127.54 92.59 127.01 93.18 124.8 94.26 127.05 93.79 128.11 93.88 126.81 94.42 125.03 94.81 125.67 94.96" style="fill:#5e9319"/><polygon points="142.72 91.26 141.67 91.48 142.19 91.78 141.06 91.81 141.81 92.21 141.68 92.42 143.67 93.5 141.53 92.87 143.23 94.1 140.66 92.89 142.15 94.19 142.22 94.63 140.38 93.47 139.35 92.8 141.94 95.67 139.71 93.7 141.65 96.32 139.6 94.24 138.83 93.56 138.48 93.4 140.07 96.22 139.66 96.09 138.63 94.82 138.6 95.25 138.65 95.89 138.93 97.1 138.24 96.22 137.96 96.2 137.25 95.08 137.32 95.94 137.68 97.81 136.96 96.41 136.55 95.91 137.03 98.66 136.34 97.09 135.58 94.85 135.39 94.99 135.25 95.44 135.23 96.76 134.83 95.72 134.68 96.38 134.37 95.71 134.17 96.07 134.15 99.14 133.83 98.7 133.56 99.1 133.22 95.81 132.98 96.96 132.75 95.82 132.53 95.48 132.13 98.84 131.84 98.95 131.78 96.31 131.63 95.46 131.13 97.66 130.94 97.11 130.69 97.06 130.73 95.36 130.37 96.02 129.83 97.37 129.26 98.57 129 98.43 129.73 94.8 129.01 96.42 128.21 98.02 128 97.77 127.74 97.63 127.51 97.43 128.45 94.56 126.87 97.44 127.96 94.59 126.92 96.1 127.46 94.59 126.32 96.07 125.71 96.51 127.06 94.02 127 93.74 125.37 95.5 125.82 94.53 126.86 93.03 126.42 93.23 124.7 94.59 123.91 94.9 124.3 94.19 124.87 93.44 123.06 94.31 125.82 92.37 124.38 92.89 124.37 92.64 125.03 92.16 124.55 92.1 123.57 92.08 122.39 91.96 122.07 91.63 122.3 91.26 126 91.15 122.62 90.58 123.63 90.44 124.11 90.29 125.05 90.36 125.3 90.26 126 90.4 122.76 88.43 125.82 89.94 124.52 88.81 126.01 89.65 124.68 88.27 125.62 88.78 124.45 87.28 124.79 87.21 126.86 89.2 124.98 86.51 126.23 87.71 126.34 87.44 126.91 87.86 126.53 86.79 127.83 88.58 126.6 85.81 128.2 88.41 127.19 85.75 127.08 84.8 128.44 87.37 127.88 85.25 128.45 86.03 128.67 85.86 128.6 84.75 128.99 85.11 129.47 85.88 129.24 83.84 129.53 83.78 130.35 86.41 130.37 85.16 130.48 84.19 130.67 83.52 131.13 84.9 131.5 85.83 131.66 84.84 131.99 85.74 132.23 85.61 132.4 83.36 132.74 85.86 132.98 85.55 133.26 84.31 133.54 84 133.69 86.52 134.04 84.84 134.3 84.95 134.61 84.46 134.6 86.8 134.97 85.85 134.95 87.54 135.81 83.99 135.39 87.54 136.06 85.49 135.96 87.01 136.27 86.73 136.95 85.2 137.46 84.45 137.03 86.67 137.42 86.31 138.12 85.17 137.41 87.66 139.03 84.49 138.74 85.84 138.46 87.01 139.31 85.92 139.14 86.8 138.39 88.53 139.31 87.47 140.04 86.85 138.78 89.03 139.11 88.91 140.5 87.56 139.22 89.36 140.11 88.71 139.51 89.58 139.91 89.46 140.98 88.86 141.72 88.63 142.28 88.61 142.59 88.78 141.35 89.73 143.18 89.22 142.56 89.8 141.76 90.32 143.81 90.14 140.7 90.94 140.67 91.1 142.72 91.26" style="fill:#5e9319"/><polygon points="151.75 92 151.63 92.28 151.54 92.55 149.08 92.32 151.42 93.08 151.94 93.55 150 93.08 152.18 94.36 151.87 94.57 150.64 94.17 149.55 93.71 151.95 95.84 149.25 93.98 150.39 95.32 149.08 94.39 148.96 94.57 149.75 95.83 150.04 96.64 148.95 95.66 148.03 94.75 149.62 97.61 147.47 94.64 148.89 97.57 147.79 96.11 147.22 95.51 147.01 95.58 148.01 98.42 147.68 98.4 146.68 96.6 146.23 96.06 146.5 97.6 145.63 95.66 145.92 97.51 145.39 96.5 144.88 95.37 145.23 97.93 144.95 97.85 144.77 98.34 144.09 95.82 143.85 95.7 144.08 99.31 143.53 96.78 143.28 96.56 143.02 96.28 142.85 97.41 142.6 97.11 142.37 98.06 142.11 95.99 141.88 96.66 141.62 97.5 141.28 99.28 141.05 98.54 140.77 98.62 140.82 95.61 140.13 99.39 140.34 95.95 139.91 97.22 139.76 96.63 139.33 97.61 138.75 99.08 139.11 96.34 138.54 97.59 138.06 98.33 137.86 98.06 138.01 96.75 138.25 95.35 137.6 96.44 137.36 96.41 136.42 97.97 136.79 96.49 136.34 96.84 137.06 94.93 135.46 97.34 136.01 95.87 135.06 96.91 136.02 95.01 135.04 95.97 135.12 95.45 135.93 94.12 135.37 94.45 134.92 94.61 133.25 95.86 134.15 94.69 133.98 94.51 134.41 93.9 134.39 93.66 133.28 94.04 132 94.37 132.27 93.89 132.68 93.41 134.94 92.49 131.65 93.04 134.04 92.36 132.5 92.28 133.2 92 131.62 91.65 133.03 91.5 131.11 90.84 134.76 91.45 132.82 90.63 134.01 90.83 131.73 89.49 135.41 91.14 133.49 89.76 133.25 89.27 133.21 88.88 133.66 88.88 133.93 88.75 135.34 89.81 133.85 87.87 135.69 89.59 134.98 88.36 136.07 89.42 134.66 87 134.63 86.42 136.19 88.42 137 89.38 135.4 85.92 136.65 87.77 135.94 85.66 136.3 85.75 137.25 87.32 138.17 89.03 138.21 88.53 137.58 85.95 137.64 85.22 137.95 85.25 138.61 86.65 139.33 88.56 138.94 85.82 139.04 84.95 139.61 86.53 139.75 85.83 140.27 87.55 140.46 87.2 140.65 86.75 140.82 85.92 141.02 85.12 141.25 84.18 141.59 85.69 141.87 86.98 142.11 86.83 142.39 84.96 142.57 87.53 142.96 84.53 142.99 88.15 143.51 84.7 143.41 88.35 143.94 85.86 143.95 87.64 144.55 85.37 144.35 87.97 144.71 87.34 145.37 85.42 145.88 84.5 145.25 88.06 145.61 87.58 145.59 88.47 146.69 85.82 146.37 87.56 146.29 88.42 147.53 85.95 147.12 87.61 147.26 87.87 148 86.91 148.61 86.35 147.24 89.37 147.88 88.69 148.75 87.74 149.95 86.45 150.23 86.6 149.92 87.51 148.89 89.18 150.06 88.23 149.93 88.75 148.94 90.03 150.52 88.93 148.81 90.61 149.33 90.44 150.15 90.14 149.12 90.97 151.69 89.88 150.69 90.63 152.61 90.22 151.03 91.02 150.38 91.41 152.4 91.33 150.93 91.77 151.75 92" style="fill:#84c935"/><polygon points="135.34 87.06 136.24 87.35 133.7 87.3 135.54 87.8 135.79 88.12 135.87 88.43 137.21 89.29 135.96 89.09 134.4 88.55 134.68 88.97 134.78 89.33 135.82 90.45 133.42 88.8 135.47 90.97 135.43 91.38 134.43 90.74 134.11 90.79 134.32 91.48 133.17 90.4 133.11 90.74 133.02 91.04 133.97 93.1 131.71 89.73 133.38 93.31 132.35 91.94 131.32 90.33 132.16 92.8 131.88 92.86 131.87 93.59 131.26 92.76 130.62 91.66 129.93 90.22 130.14 91.74 130.55 94.23 129.49 91.06 129.17 90.69 129.71 94.44 128.7 90.51 128.63 91.38 128.58 92.65 128.12 91.03 127.91 91.12 127.78 92.19 127.5 91.67 127.25 91.24 127.14 94.68 126.84 93.93 126.57 93.02 126.34 91.44 126.04 93.55 125.89 91.31 125.42 94.79 125.38 91.88 125.22 91.21 124.62 94.22 124.35 94.11 124.14 93.66 123.95 93.19 124.07 91.23 123.51 92.71 123.4 92.11 122.93 92.91 122.88 92.13 122.29 93.2 121.67 94.21 121.9 92.67 122.3 90.88 121.25 92.85 121.66 91.23 120.36 93.46 120.37 92.76 120.3 92.28 121.26 90.01 120.69 90.56 121.13 89.46 119.81 91.05 118.44 92.47 118.43 91.96 120.48 89.07 118.26 91.23 117.72 91.36 117.24 91.36 120.02 88.54 119.19 88.98 116.53 90.61 119.54 88.29 116.73 89.67 119.43 87.99 117.73 88.53 118.61 87.96 118.06 87.92 116.18 88.09 117.88 87.51 119.5 87.17 115.52 87.06 116.54 86.75 116.5 86.43 118.64 86.54 116.51 85.77 116.49 85.42 116.96 85.27 117.14 85.02 118.91 85.66 118.6 85.24 119.85 85.85 119.55 85.42 117.34 83.28 117.16 82.67 119.33 84.4 118.16 82.78 118.44 82.64 119.46 83.45 118.89 82.25 119.25 82.26 120.18 83.18 119.24 81.14 120.81 83.31 121.57 84.24 120.71 82.04 121.44 82.99 120.98 81.33 121.83 82.69 121.1 80.08 121.91 81.48 122.98 83.86 122.71 82.27 122.99 82.38 123.44 83.13 123.42 82.11 123.55 81.58 123.4 79.56 124.38 83.28 124.14 80.45 124.66 82.2 124.92 82.37 125.03 81.14 125.16 79.69 125.67 82.94 125.74 80.04 126.06 81.28 126.28 79.35 126.57 80.7 126.78 83.37 127.14 79.38 127.32 81.45 127.56 81.57 127.79 81.84 127.93 82.82 128.16 82.82 128.31 83.36 128.5 83.55 128.84 82.84 129.52 80.63 129.65 81.27 129.66 82.33 130.22 81.14 130.2 82.19 129.97 83.78 130.67 82.31 130.79 82.7 130.86 83.18 131.5 82.22 132.13 81.4 131.13 84.21 131.57 83.78 132.91 81.69 133.1 81.93 132.6 83.3 132.12 84.49 134.45 81.44 133.46 83.33 133.63 83.52 133.24 84.36 132.73 85.25 132.83 85.39 133.91 84.62 135.7 83.37 135.61 83.85 135.06 84.61 135.21 84.82 133.55 86.05 136.39 84.83 137.17 84.86 134.44 86.19 133.81 86.55 136.73 86.08 135.27 86.61 133.51 86.96 135.34 87.06" style="fill:#a9ef3a"/><polygon points="152.44 79.17 152.49 79.5 151.29 79.68 150.51 79.78 151.62 80.3 149.26 79.79 151.65 80.93 151.73 81.3 152.63 82.16 151.82 82.09 151.93 82.56 151.95 83.01 151.32 82.93 150.83 82.91 149.01 81.48 148.17 80.87 150.35 83.71 148.87 82.32 149.09 83.01 147.91 81.75 147.63 81.69 148.93 84.23 148.72 84.44 147.8 83.28 147.35 82.93 147.34 83.46 148.05 85.69 147.32 84.68 146.24 82.61 146.5 84 145.75 82.52 145.99 84 145.44 82.96 145.68 84.77 145.34 84.42 144.8 83.15 144.96 85.07 144.68 84.99 144.05 82.74 143.89 83.14 144.08 86.47 143.84 86.84 143.47 85.91 143.22 86.22 142.81 83.77 142.68 86.63 142.39 86.28 142.11 85.86 141.86 84.74 141.64 84.08 141.26 86.8 141.15 84.24 141.03 82.78 140.58 85.03 140.08 87 139.8 86.86 139.73 85.48 139.89 83.11 139.21 85.39 139.37 83.39 138.63 85.5 138.97 83.14 138.61 83.59 137.54 86.29 138.49 82.48 138.35 82.22 137.44 84.06 136.84 84.85 137.39 82.9 136.89 83.45 135.91 84.89 135.76 84.56 135.95 83.64 136.65 81.98 134.57 84.83 135.76 82.55 135.26 82.84 135.66 81.93 133.67 83.96 134.95 82.08 134.26 82.45 133.51 82.79 134.57 81.5 134.22 81.48 132.63 82.32 132.48 82.03 132.06 81.89 131.8 81.64 131.53 81.36 131.69 80.92 134.44 79.8 133.38 79.85 133.69 79.58 130.83 79.56 134.96 79.17 133.05 78.92 133.63 78.75 134.31 78.67 135.19 78.74 131.23 77.25 133.06 77.6 133.75 77.64 133.17 77.05 132.67 76.42 133.98 76.96 132.21 75.27 135.32 77.48 134.23 76.21 133.58 75.19 135.01 76.31 133.6 74.28 135.85 76.64 135.41 75.68 136.44 76.77 134.87 73.96 136.22 75.63 136.74 76.09 137.29 76.67 135.85 73.33 136.52 74.09 136.96 74.44 137.78 75.78 137.92 75.56 137.39 73.39 138 74.38 138.08 73.82 138.91 75.77 138.15 72.07 138.57 72.56 138.67 71.73 139.24 73.09 139.23 71.55 139.55 71.74 140 72.86 140.26 72.78 140.45 72.05 140.69 71.59 140.97 71.51 141.46 75.35 141.66 74.92 141.84 72.24 142.11 75.56 142.4 71.45 142.66 72.13 142.81 74.5 143.15 73.07 143.37 73.55 143.45 75.12 143.71 74.86 144.33 72.09 144.69 71.62 144.26 75.66 145 73.04 144.87 74.85 145.33 73.93 145.49 74.31 146.17 72.79 146.39 73.02 146.62 73.21 146.86 73.34 147.58 72.22 147.71 72.7 146.59 75.99 148 73.46 147.04 76.02 147.99 74.69 149.17 73.1 147.62 76.27 148 76.07 147.96 76.52 149.4 74.9 148.48 76.52 149.31 75.85 148.84 76.73 150.31 75.53 149.71 76.48 149 77.4 149.38 77.33 151.07 76.38 151.91 76.2 150.16 77.56 150.1 77.83 152.96 76.86 151.59 77.74 151.54 78.05 150.03 78.65 149.23 78.93 153.38 78.77 152.44 79.17" style="fill:#7ebc1d"/><polygon points="162.12 81.39 164.72 81.78 163.54 82.02 163.55 82.35 164.28 82.89 160.47 81.96 162.38 82.9 163.82 83.88 163.95 84.36 163.37 84.43 161.78 83.72 161.07 83.49 162.2 84.74 162.86 85.76 159.81 83.14 162.05 85.87 161.62 85.84 160.97 85.5 159.69 84.21 160.89 86.34 160.37 86.07 160.01 86 159.15 85.02 159.84 86.82 158.81 85.37 158.43 85.11 158.77 86.47 159.03 87.81 158.89 88.26 157.69 85.76 158.09 87.74 157.85 87.9 156.9 85.58 156.89 86.45 156.8 87.13 156.41 86.54 156.64 88.97 155.62 84.97 155.71 86.87 155.28 85.61 155.42 88.58 154.94 86.71 154.73 87.16 154.49 87.3 154.2 86.7 153.9 85.17 153.71 86.96 153.46 88.16 153.19 88.31 153.03 85.15 152.75 86.22 152.59 85.16 152.05 88.84 152.1 85.64 151.87 85.67 151.71 85.19 151 88.23 150.67 88.48 150.67 87.03 150.87 84.94 150.2 86.83 149.49 88.53 149.96 85.81 149.28 87.24 149.1 86.92 149.21 85.83 149.19 85.23 148.42 86.51 148.19 86.39 147.46 87.36 148.51 84.59 146.72 87.51 148.46 83.81 147.46 85.1 148.03 83.77 147.28 84.53 147.19 84.27 145.39 86.21 145 86.2 145.13 85.59 144.73 85.56 145.31 84.59 146.27 83.42 145.13 84.05 143.82 84.65 143.25 84.62 145.81 82.78 143.09 83.88 144.68 82.84 145.99 82.12 145.51 82.1 145.26 81.96 143.9 81.95 142.74 81.75 143.02 81.39 144.21 81.13 146.42 81.16 144.74 80.7 143.19 80.04 145.2 80.38 146.39 80.64 143.7 79.18 146.5 80.38 143.16 78.09 146.91 80.3 143.96 77.8 144.54 77.87 145.52 78.37 146.49 78.99 146.48 78.66 147.34 79.34 145.78 77.05 145.76 76.55 147.74 78.91 146.78 77.05 147.8 78.24 147.56 77.37 147.09 75.95 147.63 76.42 148.84 78.38 147.94 75.79 147.86 74.88 149.15 77.46 148.5 74.93 149.63 77.44 148.85 74.13 150.28 78.06 149.82 75.52 150.2 75.95 150.37 75.54 151.05 77.6 150.96 75.88 150.98 74.46 151.15 73.65 151.5 74.13 152.1 77.13 152.09 74.38 152.5 76.38 152.81 77.75 152.92 74.55 153.22 76.17 153.46 76.99 153.74 74.32 153.93 76.86 154.3 74.17 154.53 74.89 154.69 76.14 155.02 75.3 155.14 76.42 155.22 77.57 155.72 75.86 155.92 76.17 155.88 77.59 156.15 77.39 156.9 75.23 156.89 76.33 156.85 77.36 157.97 74.51 158.26 74.55 157.45 77.71 158.05 76.74 157.73 78.18 158.75 76.37 158.43 77.65 158.12 78.79 159.16 77.25 159.23 77.61 159.36 77.86 160.55 76.43 159.95 77.81 161.08 76.67 161.84 76.18 160.42 78.36 162.24 76.71 159.7 79.74 159.89 79.8 161.56 78.58 162.26 78.36 161.69 79.12 162.56 78.86 161.24 79.93 161.21 80.16 161.38 80.3 163.64 79.72 163.46 80.12 161.38 80.87 161.93 80.97 161.94 81.18 162.12 81.39" style="fill:#98d844"/><polygon points="164.61 72.26 162.46 72.37 165.38 72.88 162.58 72.62 162.33 72.67 162.67 72.91 163.48 73.4 165.43 74.58 162.94 73.56 163.94 74.42 165.12 75.56 162.68 74.07 163.52 75.05 163.55 75.43 161.8 74.03 163.91 76.61 164.07 77.27 161.74 74.84 162.35 76.03 162.83 77.17 161.17 75.11 161.39 75.89 161.63 76.8 162.26 78.53 160.11 74.89 160.92 77.1 161.38 78.8 159.94 76.05 160.15 77.23 159.84 77.13 159.73 77.58 160.04 79.47 159.63 79.12 159.02 77.9 159.06 79.19 158.43 77.64 157.85 76.02 157.6 75.88 157.71 77.91 157.29 76.77 157.39 79.42 157.05 78.84 156.58 76.58 156.43 77.75 156.17 77.43 155.91 76.93 155.69 77.7 155.44 76.36 155.22 75.92 154.9 78.92 154.63 78.96 154.29 79.98 153.99 80.09 154.08 76.48 153.84 76.59 153.51 77.25 153.48 75.92 152.73 78.86 152.75 77.4 152.21 78.69 151.81 79.17 152.49 75.49 151.46 78.36 151.33 77.86 151.25 77.24 150.85 77.64 151.19 76.01 150.56 76.96 149.76 78.18 150.3 76.36 149.85 76.72 150.46 75.04 149.13 76.99 148.22 77.98 148.94 76.31 149.85 74.52 147.85 76.93 148.18 76.05 149.45 74.14 148.31 75.13 148.56 74.55 146.77 75.94 148.09 74.41 145.81 75.92 146.06 75.33 148.24 73.58 145.96 74.66 147.37 73.64 145.7 74.1 148.33 72.87 144.7 73.73 146.26 73.03 146.35 72.76 145.84 72.54 146.84 72.26 148 72.12 144.63 71.52 146.76 71.58 146.94 71.4 144.59 70.35 147.73 71.25 148.68 71.51 147.22 70.55 147.57 70.5 147.18 69.96 146.22 68.9 147.75 69.8 147.14 68.91 146.85 68.22 146.71 67.62 147.8 68.41 148.72 69.14 149.33 69.59 148.52 68.05 147.86 66.52 149.94 69.39 148.45 66.32 149.69 68.02 149.45 66.98 149.68 66.82 150.37 67.73 150.39 67.11 150.61 66.98 151.32 68.2 151.56 68.19 151.65 67.71 152.11 68.44 151.85 66.6 152 66.1 152.72 68.12 152.94 68.08 152.53 64.55 152.87 64.77 153.58 67.74 153.87 68.19 153.89 66.29 154.25 67.34 154.33 65.1 154.66 66.1 154.88 64.91 155.15 64.31 155.44 68.46 155.7 66.14 155.92 67.08 156.16 67.17 156.37 67.71 156.73 66.16 156.8 67.96 157.01 68.16 157.43 66.81 157.53 67.72 158.14 65.65 158.23 66.6 158.08 68.45 158.91 65.97 159.03 66.58 158.97 67.74 159.51 66.79 159.33 68.16 159.96 67.07 159.74 68.35 160.94 66 160.77 67.13 161.02 67.2 161.79 66.24 161.55 67.33 160.83 69.15 162.47 66.83 162.9 66.71 161.49 69.31 163.54 66.88 162.25 69.04 162.14 69.52 164.27 67.52 164.57 67.68 162.47 70.1 162.12 70.67 163.62 69.71 162.79 70.6 164.13 69.98 164.34 70.17 165.61 69.85 163.35 71.17 163.6 71.28 163.3 71.57 163.75 71.66 165.63 71.61 163.13 72.1 164.61 72.26" style="fill:#7ebc1d"/></svg>