<svg xmlns="http://www.w3.org/2000/svg" viewBox="0 0 79.95 77.95"><g style="opacity:0.6000000000000001"><polygon points="79.73 48.05 28.3 77.95 0 61.61 51.44 31.72 79.73 48.05" style="fill:#535353"/></g><g style="isolation:isolate"><polygon points="17.45 26.59 15.87 27.51 14.28 26.59 15.86 25.66 17.45 26.59" style="fill:#dcdcdc"/><polygon points="17.45 26.59 17.35 62.56 15.77 63.48 15.87 27.51 17.45 26.59" style="fill:#c5c5c5"/><polygon points="15.87 27.51 15.77 63.48 14.17 62.56 14.28 26.59 15.87 27.51" style="fill:#898989"/></g><g style="isolation:isolate"><polygon points="35.92 37.8 34.34 38.72 32.74 37.8 34.33 36.88 35.92 37.8" style="fill:#dcdcdc"/><polygon points="35.92 37.8 35.82 73.77 34.24 74.69 34.34 38.72 35.92 37.8" style="fill:#c5c5c5"/><polygon points="34.34 38.72 34.24 74.69 32.64 73.77 32.74 37.8 34.34 38.72" style="fill:#898989"/></g><g style="isolation:isolate"><polygon points="79.75 12.4 78.17 13.32 76.57 12.4 78.15 11.48 79.75 12.4" style="fill:#dcdcdc"/><polygon points="79.75 12.4 79.65 48.38 78.06 49.3 78.17 13.32 79.75 12.4" style="fill:#c5c5c5"/><polygon points="78.17 13.32 78.06 49.3 76.47 48.38 76.57 12.4 78.17 13.32" style="fill:#898989"/></g><g style="isolation:isolate"><polygon points="61.32 1.16 59.74 2.08 58.14 1.16 59.73 0.24 61.32 1.16" style="fill:#dcdcdc"/><polygon points="61.32 1.16 61.22 37.14 59.63 38.06 59.74 2.08 61.32 1.16" style="fill:#c5c5c5"/><polygon points="59.74 2.08 59.63 38.06 58.04 37.14 58.14 1.16 59.74 2.08" style="fill:#898989"/></g><g style="isolation:isolate"><polygon points="79.94 12.3 79.95 15.05 34.44 41.32 34.44 38.57 79.94 12.3" style="fill:#c5c5c5"/><polygon points="34.44 41.32 32.61 40.26 32.61 37.51 34.44 38.57 34.44 41.32" style="fill:#888"/><polygon points="34.44 38.57 32.61 37.51 78.11 11.24 79.94 12.3 34.44 38.57" style="fill:#dbdbdb"/></g><g style="isolation:isolate"><polygon points="61.51 1.06 61.52 3.81 16.02 30.08 16.01 27.34 61.51 1.06" style="fill:#c5c5c5"/><polygon points="16.02 30.08 14.19 29.02 14.18 26.27 16.01 27.34 16.02 30.08" style="fill:#888"/><polygon points="16.01 27.34 14.18 26.27 59.68 0 61.51 1.06 16.01 27.34" style="fill:#dbdbdb"/></g><g style="isolation:isolate"><polygon points="75.03 13.59 75.02 15.28 54.14 3.23 54.15 1.54 75.03 13.59" style="fill:#898989"/><polygon points="75.03 13.59 76.86 12.53 76.85 14.22 75.02 15.28 75.03 13.59" style="fill:#c5c5c5"/><polygon points="54.15 1.54 55.98 0.47 76.86 12.53 75.03 13.59 54.15 1.54" style="fill:#dcdcdc"/></g><g style="isolation:isolate"><polygon points="70.21 16.27 70.2 17.97 49.32 5.91 49.33 4.22 70.21 16.27" style="fill:#898989"/><polygon points="70.21 16.27 72.04 15.21 72.03 16.9 70.2 17.97 70.21 16.27" style="fill:#c5c5c5"/><polygon points="49.33 4.22 51.16 3.16 72.04 15.21 70.21 16.27 49.33 4.22" style="fill:#dcdcdc"/></g><g style="isolation:isolate"><polygon points="65.38 19.18 65.38 20.87 44.5 8.82 44.51 7.13 65.38 19.18" style="fill:#898989"/><polygon points="65.38 19.18 67.21 18.12 67.21 19.81 65.38 20.87 65.38 19.18" style="fill:#c5c5c5"/><polygon points="44.51 7.13 46.33 6.06 67.21 18.12 65.38 19.18 44.51 7.13" style="fill:#dcdcdc"/></g><g style="isolation:isolate"><polygon points="60.56 21.86 60.56 23.55 39.68 11.5 39.68 9.81 60.56 21.86" style="fill:#898989"/><polygon points="60.56 21.86 62.39 20.8 62.39 22.49 60.56 23.55 60.56 21.86" style="fill:#c5c5c5"/><polygon points="39.68 9.81 41.51 8.74 62.39 20.8 60.56 21.86 39.68 9.81" style="fill:#dcdcdc"/></g><g style="isolation:isolate"><polygon points="55.74 24.79 55.74 26.48 34.86 14.42 34.86 12.73 55.74 24.79" style="fill:#898989"/><polygon points="55.74 24.79 57.57 23.72 57.57 25.42 55.74 26.48 55.74 24.79" style="fill:#c5c5c5"/><polygon points="34.86 12.73 36.69 11.67 57.57 23.72 55.74 24.79 34.86 12.73" style="fill:#dcdcdc"/></g><g style="isolation:isolate"><polygon points="50.92 27.47 50.91 29.16 30.04 17.1 30.04 15.41 50.92 27.47" style="fill:#898989"/><polygon points="50.92 27.47 52.75 26.4 52.74 28.1 50.91 29.16 50.92 27.47" style="fill:#c5c5c5"/><polygon points="30.04 15.41 31.87 14.35 52.75 26.4 50.92 27.47 30.04 15.41" style="fill:#dcdcdc"/></g><g style="isolation:isolate"><polygon points="46.1 30.15 46.09 31.84 25.21 19.79 25.22 18.09 46.1 30.15" style="fill:#898989"/><polygon points="46.1 30.15 47.93 29.09 47.92 30.78 46.09 31.84 46.1 30.15" style="fill:#c5c5c5"/><polygon points="25.22 18.09 27.05 17.03 47.93 29.09 46.1 30.15 25.22 18.09" style="fill:#dcdcdc"/></g><g style="isolation:isolate"><polygon points="41.28 33.05 41.27 34.75 20.39 22.69 20.4 21 41.28 33.05" style="fill:#898989"/><polygon points="41.28 33.05 43.11 31.99 43.1 33.69 41.27 34.75 41.28 33.05" style="fill:#c5c5c5"/><polygon points="20.4 21 22.23 19.94 43.11 31.99 41.28 33.05 20.4 21" style="fill:#dcdcdc"/></g><g style="isolation:isolate"><polygon points="36.46 35.74 36.45 37.43 15.57 25.37 15.57 23.68 36.46 35.74" style="fill:#898989"/><polygon points="36.46 35.74 38.29 34.67 38.28 36.37 36.45 37.43 36.46 35.74" style="fill:#c5c5c5"/><polygon points="15.57 23.68 17.41 22.62 38.29 34.67 36.46 35.74 15.57 23.68" style="fill:#dcdcdc"/></g><path d="M76.77,12.28c-1.25.73-3,.39-4.47.12S70,12,69.41,12.29s-.29.85.19,1.67,1.08,1.87-.18,2.6-3,.39-4.48.11-2.34-.42-2.88-.1-.29.84.19,1.67,1.07,1.86-.18,2.59-3,.39-4.48.12-2.34-.42-2.88-.11-.3.84.18,1.67,1.08,1.86-.18,2.59-3,.39-4.48.12-2.34-.42-2.88-.1-.29.84.19,1.67,1.07,1.86-.19,2.59-3,.39-4.47.11-2.34-.41-2.89-.1-.29.84.19,1.67,1.08,1.86-.18,2.6-3,.38-4.48.11-2.34-.42-2.88-.1L31.53,33c1.26-.73,3-.39,4.48-.12s2.34.42,2.88.11.29-.84-.19-1.67-1.07-1.87.19-2.6,3-.39,4.47-.11,2.35.42,2.89.1.29-.84-.19-1.67-1.07-1.86.18-2.59,3-.39,4.48-.12,2.34.42,2.89.11.29-.84-.19-1.67-1.08-1.87.18-2.6,3-.39,4.48-.11,2.34.42,2.88.1.29-.84-.19-1.67-1.07-1.86.18-2.59,3-.39,4.48-.12,2.34.42,2.88.11.29-.84-.18-1.67-1.08-1.86.18-2.59,3-.39,4.47-.12,2.35.42,2.89.1Z" style="fill:#5b7d2a"/><path d="M76.87,9.65c-1.26.73-3,.39-4.48.12s-2.34-.42-2.88-.11-.29.84.19,1.67,1.07,1.87-.19,2.6-3,.39-4.47.11-2.35-.42-2.89-.1-.29.84.19,1.67,1.08,1.86-.18,2.59-3,.39-4.47.12-2.35-.42-2.89-.11-.29.84.19,1.67,1.07,1.86-.18,2.6-3.05.38-4.48.11-2.34-.42-2.89-.11-.29.85.19,1.68,1.08,1.86-.18,2.59-3,.39-4.48.11-2.34-.41-2.88-.1-.29.84.19,1.67,1.07,1.86-.19,2.59-3,.39-4.47.12-2.35-.42-2.89-.1l-1.1-.64c1.25-.73,3-.39,4.47-.12s2.35.42,2.89.11.29-.84-.19-1.67-1.08-1.87.18-2.6S42,25.73,43.46,26s2.34.42,2.88.1.29-.84-.18-1.67-1.08-1.86.18-2.59,3-.39,4.47-.12,2.35.42,2.89.11.29-.84-.19-1.67-1.07-1.87.18-2.6,3.05-.39,4.48-.11,2.34.42,2.88.1.3-.84-.18-1.67-1.08-1.86.18-2.59,3-.39,4.47-.11,2.35.41,2.89.1.29-.84-.19-1.67S67.14,9.76,68.4,9s3-.39,4.48-.12,2.34.42,2.88.11Z" style="fill:#5b7d2a"/><path d="M71.84,9.17c-1.26.73-3,.39-4.47.11s-2.35-.42-2.89-.1-.29.84.19,1.67,1.07,1.86-.18,2.59-3,.39-4.48.12-2.34-.42-2.88-.11-.29.84.19,1.67,1.07,1.86-.19,2.6-3,.38-4.47.11-2.35-.42-2.89-.1-.29.84.19,1.67S51,21.26,49.78,22s-3,.39-4.48.11S43,21.68,42.42,22s-.29.84.19,1.67,1.07,1.86-.19,2.59-3,.39-4.47.12-2.35-.42-2.89-.11-.29.85.19,1.68,1.08,1.86-.18,2.59-3,.39-4.48.11-2.34-.41-2.89-.1l-1.1-.64c1.26-.73,3-.39,4.47-.11s2.35.42,2.89.1.29-.84-.19-1.67-1.07-1.86.19-2.59,3-.39,4.47-.12,2.35.42,2.89.11.29-.84-.19-1.68-1.08-1.86.18-2.59,3-.39,4.48-.11,2.34.42,2.88.1.29-.84-.18-1.67-1.08-1.86.18-2.59,3-.39,4.47-.12,2.35.42,2.89.11.29-.84-.19-1.67-1.08-1.86.18-2.6,3-.38,4.48-.11,2.34.42,2.88.1.29-.84-.19-1.67-1.07-1.86.19-2.59,3-.39,4.47-.11,2.34.42,2.89.1Z" style="fill:#5b7d2a"/><path d="M71.94,6.54c-1.26.73-3,.39-4.48.11s-2.34-.42-2.89-.1-.28.84.19,1.67,1.08,1.86-.18,2.59-3,.39-4.47.12-2.35-.42-2.89-.11-.29.84.19,1.67,1.08,1.86-.18,2.6-3,.39-4.48.11-2.34-.42-2.88-.1-.29.84.18,1.67,1.08,1.86-.18,2.59-3,.39-4.47.11-2.35-.42-2.89-.1-.29.84.19,1.67,1.07,1.86-.18,2.59-3,.39-4.48.12-2.34-.42-2.89-.11-.29.85.19,1.68,1.08,1.86-.18,2.59-3,.39-4.48.11-2.34-.42-2.88-.1l-1.11-.64c1.26-.73,3-.39,4.48-.11s2.34.42,2.89.1.29-.84-.19-1.67-1.08-1.86.18-2.59,3-.39,4.48-.12,2.34.42,2.88.11.29-.84-.19-1.67-1.07-1.87.19-2.6,3-.39,4.47-.11,2.35.42,2.89.1.29-.84-.19-1.67-1.08-1.86.18-2.59,3-.39,4.48-.12,2.34.42,2.88.11.29-.84-.19-1.67-1.07-1.87.19-2.6,3-.38,4.47-.11,2.34.42,2.89.1.29-.84-.19-1.67-1.08-1.86.18-2.59,3-.39,4.47-.11,2.35.41,2.89.1Z" style="fill:#5b7d2a"/><path d="M66.65,6.31c-1.26.73-3,.39-4.48.12S59.83,6,59.29,6.32,59,7.16,59.48,8s1.07,1.87-.18,2.6-3,.39-4.48.11-2.34-.42-2.89-.1-.29.84.19,1.67,1.08,1.86-.18,2.59-3,.39-4.47.11-2.35-.42-2.89-.1-.29.84.19,1.67,1.07,1.86-.18,2.59-3.05.39-4.48.12-2.34-.42-2.89-.11-.29.85.19,1.68,1.08,1.86-.18,2.59-3,.39-4.48.11-2.34-.42-2.88-.1-.29.84.19,1.67,1.07,1.86-.19,2.59-3,.39-4.47.12-2.35-.42-2.89-.11l-1.1-.63c1.26-.73,3-.39,4.47-.12s2.35.42,2.89.11.29-.85-.19-1.68-1.07-1.86.18-2.59,3-.39,4.48-.11,2.34.41,2.89.1.29-.84-.2-1.67-1.07-1.86.19-2.59,3-.39,4.48-.12,2.34.42,2.88.11.29-.85-.19-1.68-1.07-1.86.18-2.59,3.05-.39,4.48-.11,2.34.42,2.89.1.29-.84-.19-1.67-1.08-1.86.18-2.59,3-.39,4.47-.12,2.35.42,2.89.11.29-.84-.19-1.67-1.07-1.86.18-2.6,3-.38,4.48-.11,2.34.42,2.88.1Z" style="fill:#5b7d2a"/><path d="M68.3,4.46c-1.26.73-3,.39-4.48.12s-2.34-.42-2.88-.11-.29.84.19,1.67S62.2,8,61,8.74s-3.05.38-4.48.11-2.34-.42-2.89-.1-.28.84.2,1.67,1.07,1.86-.19,2.59-3,.39-4.47.11-2.35-.42-2.89-.1-.29.84.19,1.67,1.07,1.86-.18,2.59-3.05.39-4.48.12-2.34-.42-2.89-.11-.28.85.19,1.68,1.08,1.86-.18,2.59-3,.39-4.47.11-2.35-.42-2.89-.1-.29.84.19,1.67,1.07,1.86-.19,2.59-3,.39-4.47.12-2.34-.42-2.89-.11l-1.1-.63c1.25-.74,3-.39,4.47-.12s2.35.42,2.89.11.29-.85-.19-1.68-1.07-1.86.18-2.59,3.05-.39,4.48-.11,2.34.42,2.89.1.29-.84-.19-1.67-1.08-1.86.18-2.59,3-.39,4.48-.12,2.34.42,2.88.11.29-.85-.19-1.68-1.07-1.86.19-2.59,3-.39,4.47-.11,2.35.42,2.89.1.29-.84-.19-1.67-1.08-1.86.18-2.59,3-.39,4.47-.12,2.35.42,2.89.11.29-.84-.19-1.67-1.07-1.87.18-2.6,3.05-.39,4.48-.11,2.34.42,2.89.1Z" style="fill:#5b7d2a"/><path d="M62.24,3.71c-1.26.74-3.05.39-4.48.12s-2.34-.42-2.89-.11-.29.85.19,1.68S56.14,7.26,54.88,8s-3,.39-4.47.11-2.35-.42-2.89-.1-.29.84.19,1.67,1.07,1.86-.18,2.59-3.05.39-4.48.12-2.34-.42-2.89-.11-.28.84.19,1.67,1.08,1.87-.18,2.6-3,.39-4.47.11-2.35-.42-2.89-.1-.29.84.19,1.67,1.07,1.86-.18,2.59-3.05.39-4.48.12-2.34-.42-2.89-.11-.29.84.19,1.67,1.08,1.87-.18,2.6-3,.39-4.48.11-2.34-.42-2.88-.1L17,24.46c1.26-.73,3-.39,4.48-.12s2.34.42,2.88.11.3-.84-.19-1.67-1.07-1.87.19-2.6,3-.38,4.47-.11,2.35.42,2.89.1.29-.84-.19-1.67-1.07-1.86.18-2.59,3.05-.39,4.48-.12,2.34.42,2.89.11.29-.84-.19-1.67-1.08-1.86.18-2.59,3-.39,4.47-.12,2.35.42,2.89.1.29-.84-.19-1.67-1.07-1.86.18-2.59,3.05-.39,4.48-.11,2.34.42,2.89.1.29-.84-.19-1.67-1.08-1.86.18-2.59,3-.39,4.47-.12,2.35.42,2.89.11Z" style="fill:#5b7d2a"/><path d="M63.89,1.86c-1.26.73-3,.39-4.48.12s-2.34-.42-2.88-.11-.29.85.18,1.68,1.08,1.86-.18,2.59-3,.39-4.47.11-2.35-.42-2.89-.1-.29.84.19,1.67,1.07,1.86-.18,2.59-3,.39-4.48.12-2.34-.42-2.88-.11-.29.84.19,1.67,1.07,1.87-.19,2.6-3,.39-4.47.11-2.35-.42-2.89-.1-.29.84.19,1.67,1.07,1.86-.18,2.59-3,.39-4.48.12-2.34-.42-2.88-.11-.29.84.19,1.67,1.07,1.86-.19,2.6-3,.39-4.47.11-2.35-.42-2.89-.1l-1.1-.64c1.25-.73,3-.39,4.47-.12s2.34.42,2.89.11.29-.84-.19-1.67-1.08-1.87.18-2.6,3-.39,4.48-.11,2.34.42,2.88.1.29-.84-.19-1.67-1.07-1.86.19-2.59,3-.39,4.47-.12,2.35.42,2.89.11.29-.84-.19-1.67-1.08-1.86.18-2.6,3-.39,4.48-.11,2.34.42,2.88.1.29-.84-.19-1.67-1.07-1.86.19-2.59,3-.39,4.47-.11,2.35.42,2.89.1.29-.84-.19-1.67S54.16,2,55.42,1.24s3-.39,4.47-.12,2.35.42,2.89.11Z" style="fill:#5b7d2a"/></svg>