<svg xmlns="http://www.w3.org/2000/svg" viewBox="0 0 208.28 152.73"><g style="isolation:isolate"><polygon points="208.28 126.45 164.89 151.67 117.43 124.27 160.82 99.06 208.28 126.45" style="fill:#81a556"/><polygon points="208.28 126.45 208.27 127.51 164.88 152.73 164.89 151.67 208.28 126.45" style="fill:#869059"/><polygon points="164.89 151.67 164.88 152.73 117.43 125.33 117.43 124.27 164.89 151.67" style="fill:#869059"/></g><g style="isolation:isolate"><polygon points="78.29 51.55 34.9 76.76 0 56.62 43.39 31.4 78.29 51.55" style="fill:#81a556"/><polygon points="78.29 51.55 78.28 52.6 34.89 77.82 34.9 76.76 78.29 51.55" style="fill:#869059"/><polygon points="34.9 76.76 34.89 77.82 0 57.67 0 56.62 34.9 76.76" style="fill:#7c8653"/></g><g style="opacity:0.1"><ellipse cx="25.34" cy="44.75" rx="16.3" ry="9.52" transform="translate(-8.94 6.41) rotate(-12.28)" style="fill:#161615"/></g><path d="M42.21,49.52c3.39,2,3.41,5.15,0,7.11a13.54,13.54,0,0,1-12.27,0c-3.4-2-3.41-5.14,0-7.11A13.54,13.54,0,0,1,42.21,49.52Z" style="fill:#617a42"/><rect x="34.36" y="38.85" width="2.08" height="14.57" style="fill:#552904"/><rect x="35.05" y="38.85" width="2.78" height="14.57" style="fill:#82592c"/><ellipse cx="32.28" cy="28.1" rx="6.94" ry="10.06" style="fill:#8c9b57"/><path d="M33.67,36.08c-3.84,0-6.94-4.51-6.94-10.06a13.44,13.44,0,0,1,1.16-5.57,12.19,12.19,0,0,0-2.54,7.78c0,5.55,3.1,10.06,6.94,10.06,2.41,0,4.53-1.79,5.77-4.49A5.81,5.81,0,0,1,33.67,36.08Z" style="fill:#869156"/><ellipse cx="34.36" cy="18.39" rx="9.02" ry="7.98" style="fill:#8c9b57"/><ellipse cx="37.83" cy="10.06" rx="6.94" ry="10.06" style="fill:#8c9b57"/><ellipse cx="45.11" cy="17" rx="4.51" ry="5.2" style="fill:#8c9b57"/><ellipse cx="40.26" cy="29.83" rx="9.37" ry="12.49" style="fill:#8c9b57"/><path d="M35.05,25c-5,0-9-3.58-9-8a7.08,7.08,0,0,1,.35-2.16,7.14,7.14,0,0,0-1,3.69c0,4.41,4,8,9,8A8.9,8.9,0,0,0,43,20.69,9.19,9.19,0,0,1,35.05,25Z" style="fill:#869156"/><path d="M40.69,17.41a6.93,6.93,0,0,0-1.45.16c4.33,1.1,7.61,6.17,7.61,12.26s-3.44,11.4-7.92,12.33a7.32,7.32,0,0,0,1.76.23c5.17,0,9.36-5.6,9.36-12.49S45.86,17.41,40.69,17.41Z" style="fill:#82b650"/><path d="M37.83,0a4.93,4.93,0,0,0-1.74.33c3,1.12,5.21,5,5.21,9.73s-2.22,8.61-5.21,9.73a4.93,4.93,0,0,0,1.74.33c3.83,0,6.94-4.5,6.94-10.06S41.66,0,37.83,0Z" style="fill:#82b650"/><path d="M45.54,11.51a4,4,0,0,0-1,.15A5.1,5.1,0,0,1,48,16.72a5.1,5.1,0,0,1-3.47,5.05,3.63,3.63,0,0,0,1,.15c2.49,0,4.51-2.33,4.51-5.2S48,11.51,45.54,11.51Z" style="fill:#82b650"/><g style="opacity:0.1"><path d="M152.05,107c8.87-1.24,16,2.07,16,7.41s-7.21,10.68-16.08,11.92-16-2.07-16-7.4S143.18,108.25,152.05,107Z" style="fill:#161615"/></g><path d="M168.9,121.44c3.4,2,3.41,5.14,0,7.11a13.51,13.51,0,0,1-12.27,0c-3.39-2-3.41-5.14,0-7.1A13.54,13.54,0,0,1,168.9,121.44Z" style="fill:#617a42"/><rect x="161.05" y="110.77" width="2.08" height="14.57" style="fill:#552904"/><rect x="161.75" y="110.77" width="2.78" height="14.57" style="fill:#82592c"/><ellipse cx="158.97" cy="100.02" rx="6.94" ry="10.06" style="fill:#8c9b57"/><path d="M160.36,108c-3.83,0-6.94-4.51-6.94-10.06a13.49,13.49,0,0,1,1.16-5.58,12.24,12.24,0,0,0-2.54,7.79c0,5.55,3.11,10.06,6.94,10.06,2.41,0,4.53-1.79,5.77-4.49A5.78,5.78,0,0,1,160.36,108Z" style="fill:#869156"/><ellipse cx="161.05" cy="90.3" rx="9.02" ry="7.98" style="fill:#8c9b57"/><ellipse cx="164.52" cy="81.98" rx="6.94" ry="10.06" style="fill:#8c9b57"/><ellipse cx="171.81" cy="88.92" rx="4.51" ry="5.2" style="fill:#8c9b57"/><ellipse cx="166.95" cy="101.75" rx="9.37" ry="12.49" style="fill:#8c9b57"/><path d="M161.75,96.9c-5,0-9-3.58-9-8a7.07,7.07,0,0,1,.34-2.16,7.24,7.24,0,0,0-1,3.69c0,4.41,4,8,9,8a8.93,8.93,0,0,0,8.68-5.82A9.22,9.22,0,0,1,161.75,96.9Z" style="fill:#869156"/><path d="M167.38,89.33a7.08,7.08,0,0,0-1.45.16c4.33,1.1,7.61,6.17,7.61,12.26s-3.44,11.4-7.92,12.33a7.38,7.38,0,0,0,1.76.22c5.17,0,9.36-5.59,9.36-12.48S172.55,89.33,167.38,89.33Z" style="fill:#82b650"/><path d="M164.52,71.92a4.83,4.83,0,0,0-1.73.33c3,1.12,5.2,5,5.2,9.73s-2.21,8.61-5.2,9.73a4.83,4.83,0,0,0,1.73.33c3.83,0,6.94-4.51,6.94-10.06S168.35,71.92,164.52,71.92Z" style="fill:#82b650"/><path d="M172.24,83.43a3.7,3.7,0,0,0-1.05.15,5.42,5.42,0,0,1,0,10.11,4.1,4.1,0,0,0,1.05.15c2.49,0,4.5-2.33,4.5-5.21S174.73,83.43,172.24,83.43Z" style="fill:#82b650"/></svg>