<svg xmlns="http://www.w3.org/2000/svg" xmlns:xlink="http://www.w3.org/1999/xlink" viewBox="0 0 106.83 72.32"><defs><clipPath id="a"><path d="M77.18,46.07l23.67,12.87a2.35,2.35,0,0,0-1.48-.25L75.7,45.81A2.42,2.42,0,0,1,77.18,46.07Z" style="fill:none"/></clipPath><clipPath id="b"><path d="M97.88,64.42,74.21,51.55a2.6,2.6,0,0,1-1.28-2.35,3.44,3.44,0,0,1,2.77-3.39L99.37,58.69a3.44,3.44,0,0,0-2.77,3.38A2.58,2.58,0,0,0,97.88,64.42Z" style="fill:none"/></clipPath><clipPath id="c"><path d="M13.1,8.93,36.78,21.81a2.38,2.38,0,0,0-1.48-.25L11.62,8.68A2.35,2.35,0,0,1,13.1,8.93Z" style="fill:none"/></clipPath><clipPath id="d"><path d="M33.8,27.29,10.13,14.41a2.58,2.58,0,0,1-1.28-2.35,3.43,3.43,0,0,1,2.77-3.38L35.3,21.56a3.43,3.43,0,0,0-2.78,3.38A2.61,2.61,0,0,0,33.8,27.29Z" style="fill:none"/></clipPath></defs><g style="opacity:0.15"><path d="M86.78,59c7.12,4.11,11.6,8.2,10,9.12S88.14,66.48,81,62.37s-11.6-8.19-10-9.12S79.66,54.91,86.78,59Z" style="fill:#323232"/></g><g style="isolation:isolate"><polygon points="78.79 41.39 71.47 45.64 64.11 41.39 71.43 37.13 78.79 41.39" style="fill:#999"/><polygon points="78.79 41.39 78.76 51.97 71.44 56.22 71.47 45.64 78.79 41.39" style="fill:#898989"/><polygon points="71.47 45.64 71.44 56.22 64.08 51.97 64.11 41.39 71.47 45.64" style="fill:#5f5f5f"/></g><g style="isolation:isolate"><g style="isolation:isolate"><g style="clip-path:url(#a)"><g style="isolation:isolate"><path d="M99.37,58.69,75.7,45.81a2.77,2.77,0,0,1,1,0l23.67,12.88a2.36,2.36,0,0,0-1-.05" style="fill:#a8a8a8"/><path d="M100.33,58.74,76.66,45.86a3.29,3.29,0,0,1,.44.16L100.77,58.9a2.32,2.32,0,0,0-.44-.16" style="fill:#a3a3a3"/><path d="M100.77,58.9,77.1,46l.08,0,23.67,12.87-.08,0" style="fill:#9e9e9e"/></g></g></g><path d="M99.37,58.69a2.45,2.45,0,0,1,2.77,2.6,3.45,3.45,0,0,1-2.78,3.39,2.44,2.44,0,0,1-2.76-2.61A3.44,3.44,0,0,1,99.37,58.69Z" style="fill:#dfdfdf"/><g style="isolation:isolate"><g style="clip-path:url(#b)"><g style="isolation:isolate"><path d="M97.88,64.42,74.21,51.55a2.6,2.6,0,0,1-1.28-2.35A3.33,3.33,0,0,1,73.14,48L96.81,60.89a3.41,3.41,0,0,0-.21,1.18,2.58,2.58,0,0,0,1.28,2.35" style="fill:#858585"/><path d="M96.81,60.89,73.14,48a4,4,0,0,1,.21-.47L97,60.43a3.82,3.82,0,0,0-.21.46" style="fill:#8a8a8a"/><path d="M97,60.43,73.35,47.55c.07-.13.14-.25.22-.37L97.25,60.06a2.85,2.85,0,0,0-.23.37" style="fill:#8f8f8f"/><path d="M97.25,60.06,73.57,47.18c.08-.11.17-.21.25-.31L97.5,59.74a3.49,3.49,0,0,0-.25.32" style="fill:#949494"/><path d="M97.5,59.74,73.82,46.87l.29-.29L97.78,59.46a2.47,2.47,0,0,0-.28.28" style="fill:#999"/><path d="M97.78,59.46,74.11,46.58a4.19,4.19,0,0,1,.33-.26L98.11,59.19a2.78,2.78,0,0,0-.33.27" style="fill:#9e9e9e"/><path d="M98.11,59.19,74.44,46.32a3.47,3.47,0,0,1,.45-.26L98.56,58.93c-.15.08-.3.16-.45.26" style="fill:#a3a3a3"/><path d="M98.56,58.93,74.89,46.06a2.92,2.92,0,0,1,.81-.25L99.37,58.69a2.9,2.9,0,0,0-.81.24" style="fill:#a8a8a8"/></g></g></g></g><g style="isolation:isolate"><polygon points="106.83 57.48 99.52 61.74 92.15 57.48 99.47 53.23 106.83 57.48" style="fill:#999"/><polygon points="106.83 57.48 106.8 68.06 99.48 72.32 99.52 61.74 106.83 57.48" style="fill:#898989"/><polygon points="99.52 61.74 99.48 72.32 92.12 68.06 92.15 57.48 99.52 61.74" style="fill:#5f5f5f"/><polygon points="105.88 59.53 105.85 67.18 100.56 70.26 100.58 62.6 105.88 59.53" style="fill:#898989;stroke:#707070;stroke-miterlimit:10"/></g><g style="isolation:isolate"><path d="M100.92,55V56a.14.14,0,0,0-.08-.11.38.38,0,0,0-.36,0,.14.14,0,0,0-.08.11V55a.11.11,0,0,1,.08-.1.4.4,0,0,1,.37,0C100.9,54.89,100.92,54.92,100.92,55Z" style="fill:#707070"/><path d="M100.48,56.13a.14.14,0,0,1-.08-.11V55a.14.14,0,0,0,.08.11.4.4,0,0,0,.37,0,.13.13,0,0,0,.07-.11V56a.14.14,0,0,1-.08.11A.45.45,0,0,1,100.48,56.13Z" style="fill:#898989"/><path d="M100.85,54.86c.1,0,.1.15,0,.21a.4.4,0,0,1-.37,0c-.1-.06-.1-.16,0-.21A.4.4,0,0,1,100.85,54.86Z" style="fill:#898989"/><path d="M101.18,55V56a.25.25,0,0,1-.15.21.81.81,0,0,1-.74,0,.25.25,0,0,1-.15-.21V55a.24.24,0,0,0,.16.21.79.79,0,0,0,.73,0A.24.24,0,0,0,101.18,55Z" style="fill:#707070"/><path d="M101,54.75c.2.12.2.31,0,.42a.79.79,0,0,1-.73,0c-.21-.11-.21-.3,0-.42A.81.81,0,0,1,101,54.75Zm-.55.32a.4.4,0,0,0,.37,0c.1-.06.1-.16,0-.21a.4.4,0,0,0-.37,0c-.1,0-.1.15,0,.21" style="fill:#707070"/></g><g style="isolation:isolate"><path d="M100.94,44.49l0,10.58a.14.14,0,0,1-.08.11.47.47,0,0,1-.37,0,.13.13,0,0,1-.07-.11l0-10.58s0,.07.07.1a.4.4,0,0,0,.37,0S100.94,44.53,100.94,44.49Z" style="fill:#707070"/><path d="M100.86,44.38c.1.06.1.16,0,.21a.4.4,0,0,1-.37,0c-.1-.06-.1-.15,0-.21A.4.4,0,0,1,100.86,44.38Z" style="fill:#707070"/></g><g style="isolation:isolate"><path d="M102.22,55.74V56.8a.14.14,0,0,0-.08-.11.4.4,0,0,0-.37,0,.13.13,0,0,0-.07.11V55.74a.14.14,0,0,1,.08-.11.45.45,0,0,1,.36,0A.14.14,0,0,1,102.22,55.74Z" style="fill:#707070"/><path d="M101.77,56.91a.13.13,0,0,1-.07-.11V55.74a.14.14,0,0,0,.08.11.38.38,0,0,0,.36,0,.12.12,0,0,0,.08-.11V56.8a.14.14,0,0,1-.08.11A.47.47,0,0,1,101.77,56.91Z" style="fill:#898989"/><path d="M102.14,55.63c.1.06.11.16,0,.22a.38.38,0,0,1-.36,0,.12.12,0,0,1,0-.22A.45.45,0,0,1,102.14,55.63Z" style="fill:#898989"/><path d="M102.48,55.74V56.8a.25.25,0,0,1-.15.21.81.81,0,0,1-.74,0,.27.27,0,0,1-.15-.21V55.74c0,.08,0,.15.16.21a.79.79,0,0,0,.73,0A.25.25,0,0,0,102.48,55.74Z" style="fill:#707070"/><path d="M102.33,55.53a.22.22,0,0,1,0,.42.79.79,0,0,1-.73,0,.22.22,0,0,1,0-.42A.81.81,0,0,1,102.33,55.53Zm-.55.32a.38.38,0,0,0,.36,0c.11-.06.1-.16,0-.22a.45.45,0,0,0-.36,0,.12.12,0,0,0,0,.22" style="fill:#707070"/></g><g style="isolation:isolate"><path d="M102.23,49.46l0,6.35a.11.11,0,0,1-.08.1.38.38,0,0,1-.36,0,.11.11,0,0,1-.08-.1l0-6.35a.12.12,0,0,0,.08.11.41.41,0,0,0,.36,0A.14.14,0,0,0,102.23,49.46Z" style="fill:#707070"/><path d="M102.15,49.35a.12.12,0,0,1,0,.22.41.41,0,0,1-.36,0c-.11-.06-.11-.16,0-.22A.4.4,0,0,1,102.15,49.35Z" style="fill:#707070"/></g><g style="opacity:0.15"><path d="M22.7,21.89c7.12,4.11,11.6,8.19,10,9.12s-8.65-1.66-15.77-5.77-11.6-8.2-10-9.12S15.58,17.78,22.7,21.89Z" style="fill:#323232"/></g><g style="isolation:isolate"><polygon points="14.71 4.25 7.4 8.51 0.03 4.25 7.35 0 14.71 4.25" style="fill:#999"/><polygon points="14.71 4.25 14.69 14.84 7.37 19.09 7.4 8.51 14.71 4.25" style="fill:#898989"/><polygon points="7.4 8.51 7.37 19.09 0 14.84 0.03 4.25 7.4 8.51" style="fill:#5f5f5f"/></g><g style="isolation:isolate"><g style="isolation:isolate"><g style="clip-path:url(#c)"><g style="isolation:isolate"><path d="M35.3,21.56,11.62,8.68a2.36,2.36,0,0,1,1,.05L36.25,21.61a2.32,2.32,0,0,0-1-.05" style="fill:#a8a8a8"/><path d="M36.25,21.61,12.58,8.73a2.09,2.09,0,0,1,.44.16L36.69,21.77a1.65,1.65,0,0,0-.44-.16" style="fill:#a3a3a3"/><path d="M36.69,21.77,13,8.89l.08,0L36.78,21.81l-.09,0" style="fill:#9e9e9e"/></g></g></g><path d="M35.3,21.56a2.43,2.43,0,0,1,2.76,2.6,3.44,3.44,0,0,1-2.78,3.38,2.43,2.43,0,0,1-2.76-2.6A3.43,3.43,0,0,1,35.3,21.56Z" style="fill:#dfdfdf"/><g style="isolation:isolate"><g style="clip-path:url(#d)"><g style="isolation:isolate"><path d="M33.8,27.29,10.13,14.41a2.58,2.58,0,0,1-1.28-2.35,3.41,3.41,0,0,1,.21-1.18L32.73,23.76a3.33,3.33,0,0,0-.21,1.18,2.61,2.61,0,0,0,1.28,2.35" style="fill:#858585"/><path d="M32.73,23.76,9.06,10.88a3.82,3.82,0,0,1,.21-.46L32.94,23.29a4,4,0,0,0-.21.47" style="fill:#8a8a8a"/><path d="M32.94,23.29,9.27,10.42a2.85,2.85,0,0,1,.23-.37L33.17,22.93a3.61,3.61,0,0,0-.23.36" style="fill:#8f8f8f"/><path d="M33.17,22.93,9.5,10.05a2.51,2.51,0,0,1,.25-.32L33.42,22.61a2.51,2.51,0,0,0-.25.32" style="fill:#949494"/><path d="M33.42,22.61,9.75,9.73A2.47,2.47,0,0,1,10,9.45L33.7,22.33a2.47,2.47,0,0,0-.28.28" style="fill:#999"/><path d="M33.7,22.33,10,9.45l.33-.27L34,22.06l-.33.27" style="fill:#9e9e9e"/><path d="M34,22.06,10.36,9.18c.15-.1.3-.18.45-.26L34.49,21.8a3,3,0,0,0-.46.26" style="fill:#a3a3a3"/><path d="M34.49,21.8,10.81,8.92a2.9,2.9,0,0,1,.81-.24L35.3,21.56a2.72,2.72,0,0,0-.81.24" style="fill:#a8a8a8"/></g></g></g></g><g style="isolation:isolate"><polygon points="42.76 20.35 35.44 24.6 28.07 20.35 35.39 16.1 42.76 20.35" style="fill:#999"/><polygon points="42.76 20.35 42.73 30.93 35.41 35.19 35.44 24.6 42.76 20.35" style="fill:#898989"/><polygon points="35.44 24.6 35.41 35.19 28.04 30.93 28.07 20.35 35.44 24.6" style="fill:#5f5f5f"/><polygon points="41.8 22.39 41.78 30.05 36.48 33.12 36.51 25.47 41.8 22.39" style="fill:#898989;stroke:#707070;stroke-miterlimit:10"/></g><g style="isolation:isolate"><path d="M36.84,17.83v1.06a.14.14,0,0,0-.08-.11.38.38,0,0,0-.36,0,.14.14,0,0,0-.08.11V17.83a.14.14,0,0,1,.08-.11.4.4,0,0,1,.37,0A.13.13,0,0,1,36.84,17.83Z" style="fill:#707070"/><path d="M36.4,19a.14.14,0,0,1-.08-.1V17.83s0,.07.08.1a.4.4,0,0,0,.37,0,.1.1,0,0,0,.07-.1v1.06s0,.07-.07.1A.4.4,0,0,1,36.4,19Z" style="fill:#898989"/><path d="M36.77,17.72c.1.06.1.16,0,.21a.4.4,0,0,1-.37,0c-.1-.05-.1-.15,0-.21A.4.4,0,0,1,36.77,17.72Z" style="fill:#898989"/><path d="M37.1,17.83v1.06a.27.27,0,0,1-.15.21.79.79,0,0,1-.73,0,.26.26,0,0,1-.16-.22V17.83a.28.28,0,0,0,.16.21A.79.79,0,0,0,37,18,.25.25,0,0,0,37.1,17.83Z" style="fill:#707070"/><path d="M37,17.62c.2.11.2.3,0,.42a.79.79,0,0,1-.73,0c-.21-.12-.21-.31,0-.42A.81.81,0,0,1,37,17.62Zm-.55.31a.4.4,0,0,0,.37,0c.1-.05.1-.15,0-.21a.4.4,0,0,0-.37,0c-.1.06-.1.16,0,.21" style="fill:#707070"/></g><g style="isolation:isolate"><path d="M36.86,7.35l0,10.59a.14.14,0,0,1-.08.1.38.38,0,0,1-.36,0c-.06,0-.08-.07-.08-.1l0-10.59a.12.12,0,0,0,.08.11.38.38,0,0,0,.36,0A.14.14,0,0,0,36.86,7.35Z" style="fill:#707070"/><path d="M36.78,7.25c.1.06.1.15,0,.21a.38.38,0,0,1-.36,0c-.11-.06-.11-.15,0-.21A.4.4,0,0,1,36.78,7.25Z" style="fill:#707070"/></g><g style="isolation:isolate"><path d="M38.14,18.61v1.06a.14.14,0,0,0-.08-.11.38.38,0,0,0-.36,0,.14.14,0,0,0-.08.1V18.61a.14.14,0,0,1,.08-.11.4.4,0,0,1,.37,0A.13.13,0,0,1,38.14,18.61Z" style="fill:#707070"/><path d="M37.7,19.77a.12.12,0,0,1-.08-.11V18.61s0,.07.08.1a.4.4,0,0,0,.37,0s.07-.06.07-.1v1.06a.14.14,0,0,1-.08.1A.38.38,0,0,1,37.7,19.77Z" style="fill:#898989"/><path d="M38.07,18.5c.1.06.1.15,0,.21a.4.4,0,0,1-.37,0c-.1-.06-.1-.15,0-.21A.4.4,0,0,1,38.07,18.5Z" style="fill:#898989"/><path d="M38.4,18.61v1.06a.27.27,0,0,1-.15.21.87.87,0,0,1-.74,0,.27.27,0,0,1-.15-.22V18.6a.26.26,0,0,0,.16.22.79.79,0,0,0,.73,0A.27.27,0,0,0,38.4,18.61Z" style="fill:#707070"/><path d="M38.25,18.39a.23.23,0,0,1,0,.43.79.79,0,0,1-.73,0c-.21-.12-.21-.31,0-.43A.87.87,0,0,1,38.25,18.39Zm-.55.32a.4.4,0,0,0,.37,0c.1-.06.1-.15,0-.21a.4.4,0,0,0-.37,0c-.1.06-.1.15,0,.21" style="fill:#707070"/></g><g style="isolation:isolate"><path d="M38.15,12.33l0,6.35a.13.13,0,0,1-.07.1.4.4,0,0,1-.37,0,.14.14,0,0,1-.08-.11l0-6.34a.14.14,0,0,0,.08.1.38.38,0,0,0,.36,0A.14.14,0,0,0,38.15,12.33Z" style="fill:#707070"/><path d="M38.07,12.22c.11.06.1.15,0,.21a.38.38,0,0,1-.36,0c-.1-.06-.1-.15,0-.21A.38.38,0,0,1,38.07,12.22Z" style="fill:#707070"/></g></svg>