<svg xmlns="http://www.w3.org/2000/svg" xmlns:xlink="http://www.w3.org/1999/xlink" viewBox="0 0 180.76 173.36"><defs><clipPath id="a"><path d="M113.94,44.24l19.83,11.53c-1.59-.93-3.8-.8-6.23.61L107.7,44.85C110.14,43.45,112.34,43.31,113.94,44.24Z" style="fill:none"/></clipPath><clipPath id="b"><path d="M47.45,122.75,27.61,111.22c-1.57-.91-2.55-2.85-2.56-5.61l19.84,11.53C44.9,119.9,45.87,121.84,47.45,122.75Z" style="fill:none"/></clipPath><clipPath id="c"><path d="M44.88,114.18,25.05,102.66c0-5.57,3.89-12.34,8.74-15.13L53.62,99.06C48.78,101.85,44.87,108.62,44.88,114.18Z" style="fill:none"/></clipPath><clipPath id="d"><path d="M32.12,90.67l25.79-15a.85.85,0,0,1,.86.08L33,90.75A.87.87,0,0,0,32.12,90.67Z" style="fill:none"/></clipPath><clipPath id="e"><path d="M59.63,78.64l-25.79,15a.83.83,0,0,0,.35-.78A2.66,2.66,0,0,0,33,90.75l25.78-15A2.69,2.69,0,0,1,60,77.86.85.85,0,0,1,59.63,78.64Z" style="fill:none"/></clipPath><clipPath id="f"><path d="M180.76,93.89c0,5.56-3.89,12.33-8.74,15.12L152.19,97.49c4.84-2.8,8.75-9.56,8.73-15.13Z" style="fill:none"/></clipPath><clipPath id="g"><path d="M178.19,85.32c1.58.91,2.55,2.85,2.56,5.62L160.91,79.41c0-2.77-1-4.71-2.55-5.62Z" style="fill:none"/></clipPath><clipPath id="h"><path d="M72,140.78c1.59.92,3.79.79,6.23-.62l19.84,11.53c-2.44,1.41-4.65,1.54-6.24.61Z" style="fill:none"/></clipPath><clipPath id="i"><path d="M158.91,79.74l14.88,8.65c-1.69-1-4-.84-6.6.64l-14.87-8.64C154.89,78.9,157.22,78.76,158.91,79.74Z" style="fill:none"/></clipPath><clipPath id="j"><path d="M160.65,111l-14.88-8.64c-1.67-1-2.7-3-2.71-6,0-5.88,4.13-13.06,9.26-16L167.19,89c-5.13,3-9.26,10.14-9.25,16C158,108,159,110,160.65,111Z" style="fill:none"/></clipPath><clipPath id="k"><path d="M137.91,91.81l14.88,8.65c-1.69-1-4-.84-6.6.65l-14.88-8.65C133.89,91,136.23,90.83,137.91,91.81Z" style="fill:none"/></clipPath><clipPath id="l"><path d="M139.65,123.07l-14.88-8.64c-1.66-1-2.7-3-2.7-6,0-5.89,4.12-13.06,9.24-16l14.88,8.65c-5.13,3-9.26,10.12-9.25,16C137,120.05,138,122.11,139.65,123.07Z" style="fill:none"/></clipPath><clipPath id="m"><path d="M115.89,104.63l14.88,8.64c-1.69-1-4-.84-6.6.65l-14.88-8.65C111.87,103.79,114.2,103.65,115.89,104.63Z" style="fill:none"/></clipPath><clipPath id="n"><path d="M117.63,135.89l-14.88-8.65c-1.67-1-2.7-3-2.71-5.95,0-5.89,4.13-13.06,9.25-16l14.88,8.65c-5.12,3-9.27,10.13-9.25,16C114.93,132.86,116,134.92,117.63,135.89Z" style="fill:none"/></clipPath><clipPath id="o"><path d="M92.8,118l14.88,8.65c-1.69-1-4-.84-6.6.65L86.2,118.66C88.78,117.17,91.11,117,92.8,118Z" style="fill:none"/></clipPath><clipPath id="p"><path d="M94.53,149.27l-14.87-8.64c-1.67-1-2.7-3-2.71-5.95,0-5.89,4.13-13.06,9.25-16l14.88,8.65c-5.12,2.95-9.27,10.13-9.25,16C91.84,146.25,92.87,148.31,94.53,149.27Z" style="fill:none"/></clipPath><clipPath id="q"><path d="M89.31,143.73,69.47,132.2c0-5.56,3.89-12.33,8.73-15.12L98,128.61C93.2,131.4,89.29,138.16,89.31,143.73Z" style="fill:none"/></clipPath><clipPath id="r"><path d="M158.36,73.79l19.83,11.53c-1.59-.93-3.79-.8-6.23.61L152.12,74.4C154.56,73,156.77,72.86,158.36,73.79Z" style="fill:none"/></clipPath><clipPath id="s"><path d="M91.87,152.3,72,140.78c-1.58-.92-2.55-2.86-2.56-5.63l19.84,11.53C89.33,149.45,90.3,151.39,91.87,152.3Z" style="fill:none"/></clipPath><clipPath id="t"><path d="M98.65,90.83l5,2.88a2.3,2.3,0,0,0-2.31.23l-5-2.88A2.3,2.3,0,0,1,98.65,90.83Z" style="fill:none"/></clipPath><clipPath id="u"><path d="M99,101.62l-5-2.88a2.27,2.27,0,0,1-.94-2.08,7.08,7.08,0,0,1,3.23-5.6l5,2.88a7.13,7.13,0,0,0-3.24,5.6A2.3,2.3,0,0,0,99,101.62Z" style="fill:none"/></clipPath><clipPath id="v"><path d="M68.7,111.78l25.79-15a.85.85,0,0,1,.87.09l-25.79,15A.85.85,0,0,0,68.7,111.78Z" style="fill:none"/></clipPath><clipPath id="w"><path d="M96.21,99.75l-25.78,15a.82.82,0,0,0,.35-.77,2.65,2.65,0,0,0-1.21-2.09l25.79-15A2.65,2.65,0,0,1,96.57,99,.86.86,0,0,1,96.21,99.75Z" style="fill:none"/></clipPath></defs><g style="isolation:isolate"><g style="isolation:isolate"><g style="clip-path:url(#a)"><g style="isolation:isolate"><path d="M127.54,56.38,107.7,44.85a11.68,11.68,0,0,1,1.23-.61l19.84,11.53a11.68,11.68,0,0,0-1.23.61" style="fill:#cb992a"/><path d="M128.77,55.77,108.93,44.24a9.65,9.65,0,0,1,1-.35L129.8,55.41a7.45,7.45,0,0,0-1,.36" style="fill:#c69529"/><path d="M129.8,55.41,110,43.89a5.62,5.62,0,0,1,.77-.17l19.84,11.53a7.54,7.54,0,0,0-.77.16" style="fill:#c19128"/><path d="M130.57,55.25,110.73,43.72a5.06,5.06,0,0,1,.66-.06l19.83,11.52a5,5,0,0,0-.65.07" style="fill:#bc8d27"/><path d="M131.22,55.18,111.39,43.66H112L131.8,55.19a5.56,5.56,0,0,0-.58,0" style="fill:#b78a26"/><path d="M131.8,55.19,112,43.66a4.78,4.78,0,0,1,.53.06l19.83,11.53a4.52,4.52,0,0,0-.53-.06" style="fill:#b28625"/><path d="M132.33,55.25,112.5,43.72a4.37,4.37,0,0,1,.49.12l19.83,11.52-.49-.11" style="fill:#ad8224"/><path d="M132.82,55.36,113,43.84a3.57,3.57,0,0,1,.46.16l19.84,11.53a3.75,3.75,0,0,0-.47-.17" style="fill:#a87e23"/><path d="M133.29,55.53,113.45,44a3.55,3.55,0,0,1,.44.21l19.84,11.53a4.39,4.39,0,0,0-.44-.21" style="fill:#a37a22"/><path d="M133.73,55.74,113.89,44.21l0,0,19.83,11.53,0,0" style="fill:#9d7621"/></g></g></g><g style="isolation:isolate"><g style="clip-path:url(#b)"><g style="isolation:isolate"><path d="M47.45,122.75,27.61,111.22c-1.57-.91-2.55-2.85-2.56-5.61l19.84,11.53c0,2.76,1,4.7,2.56,5.61" style="fill:#84631c"/></g></g></g><polygon points="44.89 117.14 25.05 105.61 25.05 102.66 44.88 114.18 44.89 117.14" style="fill:#88661c"/><polygon points="53.62 99.06 33.79 87.53 107.7 44.85 127.54 56.38 53.62 99.06" style="fill:#dba42e"/><path d="M127.54,56.38c4.83-2.79,8.77-.56,8.79,5v3c0,5.55-3.9,12.33-8.73,15.12L53.69,122.14c-4.84,2.8-8.78.55-8.8-5v-3c0-5.56,3.9-12.33,8.74-15.12Z" style="fill:#c49429"/><g style="isolation:isolate"><g style="clip-path:url(#c)"><g style="isolation:isolate"><path d="M44.88,114.18,25.05,102.66a11.2,11.2,0,0,1,.11-1.72L45,112.47a14.28,14.28,0,0,0-.11,1.71" style="fill:#84631c"/><path d="M45,112.47,25.16,100.94c.05-.4.12-.81.21-1.21L45.2,111.25c-.08.41-.15.82-.21,1.22" style="fill:#89671d"/><path d="M45.2,111.25,25.37,99.73c.07-.34.15-.67.24-1l19.84,11.53c-.09.34-.18.67-.25,1" style="fill:#8e6b1e"/><path d="M45.45,110.25,25.61,98.72c.09-.29.18-.59.28-.89l19.83,11.53c-.1.3-.19.59-.27.89" style="fill:#936f1f"/><path d="M45.72,109.36,25.89,97.83c.09-.28.19-.55.29-.83L46,108.53c-.11.28-.21.55-.3.83" style="fill:#987320"/><path d="M46,108.53,26.18,97c.1-.26.21-.52.32-.78l19.84,11.53c-.11.26-.22.52-.32.78" style="fill:#9d7621"/><path d="M46.34,107.75,26.5,96.22c.11-.26.23-.51.35-.76L46.69,107c-.12.25-.24.5-.35.76" style="fill:#a37a22"/><path d="M46.69,107,26.85,95.46c.12-.25.25-.5.38-.74l19.83,11.52c-.13.25-.25.5-.37.75" style="fill:#a87e23"/><path d="M47.06,106.24,27.23,94.72c.13-.25.27-.5.41-.74l19.83,11.53-.41.73" style="fill:#ad8224"/><path d="M47.47,105.51,27.64,94c.14-.25.3-.5.45-.74l19.84,11.52c-.16.25-.31.5-.46.75" style="fill:#b28625"/><path d="M47.93,104.76,28.09,93.24c.16-.26.33-.51.51-.76L48.44,104q-.27.38-.51.75" style="fill:#b78a26"/><path d="M48.44,104,28.6,92.48c.19-.27.38-.53.58-.79L49,103.22c-.2.25-.4.52-.58.79" style="fill:#bc8d27"/><path d="M49,103.22,29.18,91.69c.23-.3.47-.59.71-.87l19.84,11.53c-.24.28-.48.57-.71.87" style="fill:#c19128"/><path d="M49.73,102.35,29.89,90.82c.31-.35.63-.7,1-1l19.84,11.53q-.49.48-1,1" style="fill:#c69529"/><path d="M50.69,101.33,30.85,89.8a14.76,14.76,0,0,1,2.94-2.27L53.62,99.06a14.35,14.35,0,0,0-2.93,2.27" style="fill:#cb992a"/></g></g></g></g><g style="isolation:isolate"><g style="isolation:isolate"><g style="clip-path:url(#d)"><g style="isolation:isolate"><path d="M32.12,90.67l25.79-15,.1-.05-25.79,15-.1,0" style="fill:#646462"/><path d="M32.22,90.62,58,75.63l.08,0-25.78,15-.09,0" style="fill:#686866"/><path d="M32.31,90.6l25.78-15h.07l-25.78,15h-.07" style="fill:#6c6c6a"/><path d="M32.38,90.59l25.78-15h.07l-25.79,15h-.06" style="fill:#706f6e"/><path d="M32.44,90.58l25.79-15h.05l-25.78,15h-.06" style="fill:#747371"/><path d="M32.5,90.59l25.78-15h.06l-25.79,15h0" style="fill:#787775"/><path d="M32.55,90.59l25.79-15h0L32.6,90.6h-.05" style="fill:#7c7b79"/><path d="M32.6,90.6l25.79-15h0l-25.79,15h0" style="fill:#7f7f7d"/><path d="M32.65,90.61l25.79-15,.05,0-25.79,15h-.05" style="fill:#838381"/><path d="M32.7,90.62l25.79-15h0l-25.79,15,0,0" style="fill:#878684"/><path d="M32.75,90.64l25.79-15,.05,0-25.79,15,0,0" style="fill:#8b8a88"/><path d="M32.8,90.66l25.79-15,0,0-25.79,15-.05,0" style="fill:#8f8e8c"/><path d="M32.85,90.68l25.79-15,0,0L32.9,90.7l0,0" style="fill:#939290"/><path d="M32.9,90.7l25.78-15,0,0L33,90.73l-.05,0" style="fill:#979693"/><path d="M33,90.73l25.78-15,0,0L33,90.75l0,0" style="fill:#9a9a97"/></g></g></g><g style="isolation:isolate"><g style="clip-path:url(#e)"><g style="isolation:isolate"><polyline points="32.99 90.75 58.77 75.76 58.78 75.77 33 90.76 32.99 90.75" style="fill:#9a9a97"/><path d="M33,90.76l25.78-15,0,0-25.78,15,0,0" style="fill:#9e9d9b"/><path d="M33.05,90.79l25.78-15,.06,0-25.79,15-.05,0" style="fill:#a2a19f"/><path d="M33.1,90.82l25.79-15,0,0-25.79,15,0,0" style="fill:#a6a5a3"/><path d="M33.15,90.86l25.79-15,.05,0L33.2,90.9a.1.1,0,0,0-.05,0" style="fill:#aaa9a6"/><path d="M33.2,90.9,59,75.91l0,0-25.78,15-.06,0" style="fill:#aeadaa"/><path d="M33.26,90.94,59,76l.06,0L33.31,91l-.05,0" style="fill:#b2b1ae"/><path d="M33.31,91,59.1,76s0,0,0,0L33.36,91l0-.05" style="fill:#b5b4b2"/><path d="M33.36,91l25.79-15,.05,0-25.79,15a.12.12,0,0,0,0,0" style="fill:#b9b8b5"/><path d="M33.41,91.09l25.79-15s0,0,0,.05l-25.79,15s0,0-.05,0" style="fill:#bdbcb9"/><path d="M33.46,91.14l25.79-15,0,.06-25.79,15,0,0" style="fill:#c1c0bd"/><path d="M33.51,91.19l25.79-15,0,.05-25.78,15-.05-.06" style="fill:#c8c8c5"/><path d="M33.56,91.25l25.78-15,0,.06-25.79,15,0-.06" style="fill:#cccbc8"/><path d="M33.6,91.31l25.79-15,.06.07-25.79,15-.06-.07" style="fill:#cecdcb"/><path d="M33.66,91.38l25.79-15,.07.11-25.78,15a1,1,0,0,0-.08-.11" style="fill:#d0cfcd"/><path d="M33.74,91.49l25.78-15a1.3,1.3,0,0,1,.1.15l-25.79,15-.09-.14" style="fill:#d2d1cf"/><path d="M33.83,91.63l25.79-15,.06.11-25.79,15-.06-.11" style="fill:#d0cfcd"/><path d="M33.89,91.74l25.79-15,0,.07-25.78,15a.16.16,0,0,1,0-.07" style="fill:#cecdcb"/><path d="M33.93,91.81l25.78-15a.21.21,0,0,0,0,.06L34,91.88l0-.07" style="fill:#cccbc8"/><path d="M34,91.88l25.79-15,0,.06L34,91.94l0-.06" style="fill:#c8c8c5"/><path d="M34,91.94,59.77,77l0,.06L34,92l0-.06" style="fill:#c1c0bd"/><path d="M34,92,59.8,77l0,.06L34,92.06,34,92" style="fill:#bdbcb9"/><path d="M34,92.06l25.79-15,0,.06-25.78,15,0-.06" style="fill:#b9b8b5"/><path d="M34.06,92.12l25.78-15,0,.06-25.79,15,0-.06" style="fill:#b5b4b2"/><path d="M34.08,92.18l25.79-15,0,.07-25.79,15,0-.06" style="fill:#b2b1ae"/><path d="M34.1,92.24l25.79-15s0,0,0,.06l-25.78,15a.25.25,0,0,1,0-.07" style="fill:#aeadaa"/><path d="M34.12,92.31l25.78-15a.14.14,0,0,1,0,.06l-25.79,15s0,0,0-.06" style="fill:#aaa9a6"/><path d="M34.13,92.37l25.79-15,0,.07-25.79,15,0-.06" style="fill:#a6a5a3"/><path d="M34.15,92.43l25.79-15v.06l-25.79,15v-.07" style="fill:#a2a19f"/><path d="M34.16,92.5,60,77.51v.06l-25.79,15V92.5" style="fill:#9e9d9b"/><path d="M34.17,92.56,60,77.57v.06l-25.79,15v-.06" style="fill:#9a9a97"/><path d="M34.18,92.62,60,77.63v.06l-25.78,15v-.06" style="fill:#979693"/><path d="M34.19,92.68,60,77.69v.06l-25.79,15v0" style="fill:#939290"/><path d="M34.19,92.73,60,77.75v0l-25.79,15v-.06" style="fill:#8f8e8c"/><path d="M34.19,92.79,60,77.8v.06h0l-25.79,15h0v0" style="fill:#8b8a88"/><path d="M34.19,92.85,60,77.86v.06l-25.79,15v-.06" style="fill:#878684"/><path d="M34.19,92.91,60,77.92V78L34.19,93v0" style="fill:#838381"/><path d="M34.19,93,60,78s0,0,0,.06L34.18,93a.13.13,0,0,0,0-.06" style="fill:#7f7f7d"/><path d="M34.18,93,60,78a.07.07,0,0,1,0,0l-25.79,15a.13.13,0,0,0,0-.06" style="fill:#7c7b79"/><path d="M34.17,93.08,60,78.09s0,0,0,.06l-25.79,15a.13.13,0,0,0,0-.06" style="fill:#787775"/><path d="M34.16,93.14,60,78.15a.19.19,0,0,1,0,.07l-25.78,15s0,0,0-.06" style="fill:#747371"/><path d="M34.15,93.2l25.78-15a.14.14,0,0,1,0,.06l-25.78,15a.14.14,0,0,1,0-.06" style="fill:#706f6e"/><path d="M34.13,93.26l25.78-15,0,.07-25.78,15,0-.07" style="fill:#6c6c6a"/><path d="M34.1,93.33l25.78-15,0,.08-25.79,15,.05-.09" style="fill:#686866"/><path d="M34.05,93.42l25.79-15a.7.7,0,0,1-.21.21l-25.79,15a.67.67,0,0,0,.21-.2" style="fill:#646462"/></g></g></g><ellipse cx="32.98" cy="92.14" rx="0.99" ry="1.71" transform="translate(-41.83 29.05) rotate(-30.16)" style="fill:#686765"/></g><g style="isolation:isolate"><polygon points="143.88 55.25 78.42 93.29 42.48 72.54 107.94 34.5 143.88 55.25" style="fill:#dba52e"/><polygon points="143.88 55.25 143.78 89.66 78.32 127.7 78.42 93.29 143.88 55.25" style="fill:#febf35"/><polygon points="78.42 93.29 78.32 127.7 42.38 106.95 42.48 72.54 78.42 93.29" style="fill:#88661c"/></g><polygon points="75.48 95.25 75.39 125.94 44.53 108.12 44.62 77.44 75.48 95.25" style="fill:#765145"/><g style="isolation:isolate"><g style="clip-path:url(#f)"><g style="isolation:isolate"><path d="M180.76,93.89,160.92,82.36a14.45,14.45,0,0,1-.11,1.72l19.83,11.53a12.65,12.65,0,0,0,.12-1.72" style="fill:#84631c"/><path d="M180.64,95.61,160.81,84.08c-.05.4-.12.81-.21,1.22l19.84,11.52c.08-.4.15-.81.2-1.21" style="fill:#89671d"/><path d="M180.44,96.82,160.6,85.3c-.07.33-.15.67-.25,1l19.84,11.53c.09-.34.17-.67.25-1" style="fill:#8e6b1e"/><path d="M180.19,97.83,160.35,86.3q-.12.45-.27.9l19.84,11.52c.1-.29.19-.59.27-.89" style="fill:#936f1f"/><path d="M179.92,98.72,160.08,87.2c-.09.27-.19.55-.3.82l19.84,11.53c.11-.28.2-.55.3-.83" style="fill:#987320"/><path d="M179.62,99.55,159.78,88c-.1.26-.2.53-.32.79l19.84,11.52c.11-.26.22-.52.32-.78" style="fill:#9d7621"/><path d="M179.3,100.33,159.46,88.81c-.11.25-.22.5-.35.76L179,101.09c.12-.25.24-.5.35-.76" style="fill:#a37a22"/><path d="M179,101.09,159.11,89.57l-.37.74,19.83,11.53c.14-.25.26-.5.38-.75" style="fill:#a87e23"/><path d="M178.57,101.84,158.74,90.31c-.13.25-.27.49-.41.74l19.83,11.52c.15-.24.28-.48.41-.73" style="fill:#ad8224"/><path d="M178.16,102.57,158.33,91.05l-.45.74,19.83,11.52c.16-.24.31-.49.45-.74" style="fill:#b28625"/><path d="M177.71,103.31,157.88,91.79l-.51.75,19.84,11.53c.17-.25.34-.5.5-.76" style="fill:#b78a26"/><path d="M177.21,104.07,157.37,92.54c-.19.27-.38.53-.58.79l19.83,11.53c.2-.26.4-.52.59-.79" style="fill:#bc8d27"/><path d="M176.62,104.86,156.79,93.33c-.23.3-.47.59-.71.87l19.83,11.52c.25-.28.48-.56.71-.86" style="fill:#c19128"/><path d="M175.91,105.72,156.08,94.2q-.47.52-1,1L175,106.74c.32-.32.64-.66.95-1" style="fill:#c69529"/><path d="M175,106.74,155.12,95.22a15.09,15.09,0,0,1-2.93,2.27L172,109a14.4,14.4,0,0,0,2.94-2.27" style="fill:#cb992a"/></g></g></g><polygon points="180.75 90.94 180.76 93.89 160.92 82.36 160.91 79.41 180.75 90.94" style="fill:#88661c"/><g style="isolation:isolate"><g style="clip-path:url(#g)"><g style="isolation:isolate"><path d="M178.19,85.32,158.36,73.79c1.57.91,2.54,2.85,2.55,5.62l19.84,11.53c0-2.77-1-4.71-2.56-5.62" style="fill:#84631c"/></g></g></g><polygon points="172.03 109.01 98.11 151.69 78.27 140.16 152.19 97.49 172.03 109.01" style="fill:#dba42e"/><g style="isolation:isolate"><g style="clip-path:url(#h)"><g style="isolation:isolate"><path d="M98.11,151.69,78.27,140.16a10,10,0,0,1-1.23.61L96.88,152.3a11.68,11.68,0,0,0,1.23-.61" style="fill:#cb992a"/><path d="M96.88,152.3,77,140.77a7.93,7.93,0,0,1-1,.36l19.83,11.53a7.56,7.56,0,0,0,1-.36" style="fill:#c69529"/><path d="M95.84,152.66,76,141.13a7.64,7.64,0,0,1-.77.17l19.83,11.52a7.54,7.54,0,0,0,.77-.16" style="fill:#c19128"/><path d="M95.07,152.82,75.24,141.3l-.66.06,19.84,11.53a5,5,0,0,0,.65-.07" style="fill:#bc8d27"/><path d="M94.42,152.89,74.58,141.36H74l19.84,11.52a3.72,3.72,0,0,0,.58,0" style="fill:#b78a26"/><path d="M93.84,152.88,74,141.36l-.52-.07,19.83,11.53a4.52,4.52,0,0,0,.53.06" style="fill:#b28625"/><path d="M93.31,152.82,73.48,141.29a2.78,2.78,0,0,1-.5-.11l19.84,11.53.49.11" style="fill:#ad8224"/><path d="M92.82,152.71,73,141.18l-.46-.16,19.84,11.53.46.16" style="fill:#a87e23"/><path d="M92.36,152.55,72.52,141l-.44-.22,19.84,11.53.44.22" style="fill:#a37a22"/><path d="M91.92,152.33,72.08,140.8l0,0L91.87,152.3l0,0" style="fill:#9d7621"/></g></g></g><g style="isolation:isolate"><g style="isolation:isolate"><g style="clip-path:url(#i)"><g style="isolation:isolate"><path d="M167.19,89l-14.87-8.64a11.14,11.14,0,0,1,1.29-.65l14.88,8.65a11.12,11.12,0,0,0-1.3.64" style="fill:#54483e"/><path d="M168.49,88.39l-14.88-8.65a8.77,8.77,0,0,1,1.09-.37L169.58,88a8.33,8.33,0,0,0-1.09.38" style="fill:#52463d"/><path d="M169.58,88,154.7,79.37a6.37,6.37,0,0,1,.82-.18l14.87,8.65c-.26,0-.53.1-.81.17" style="fill:#50443b"/><path d="M170.39,87.84l-14.87-8.65c.23,0,.46-.06.69-.07l14.88,8.65a5.72,5.72,0,0,0-.7.07" style="fill:#4e433a"/><path d="M171.09,87.77l-14.88-8.65c.21,0,.41,0,.61,0l14.88,8.64h-.61" style="fill:#4c4138"/><path d="M171.7,87.77l-14.88-8.64a5,5,0,0,1,.56.06l14.88,8.65-.56-.07" style="fill:#4a3f37"/><path d="M172.26,87.84l-14.88-8.65a4.37,4.37,0,0,1,.52.12L172.78,88a4.37,4.37,0,0,0-.52-.12" style="fill:#473d35"/><path d="M172.78,88,157.9,79.31a4.09,4.09,0,0,1,.49.18l14.88,8.64-.49-.17" style="fill:#453b33"/><path d="M173.27,88.13l-14.88-8.64a4,4,0,0,1,.47.22l14.88,8.65-.47-.23" style="fill:#433a32"/><path d="M173.74,88.36l-14.88-8.65,0,0,14.88,8.65,0,0" style="fill:#413830"/></g></g></g><g style="isolation:isolate"><g style="clip-path:url(#j)"><g style="isolation:isolate"><path d="M160.65,111l-14.88-8.64c-1.67-1-2.7-3-2.71-6a14.26,14.26,0,0,1,.12-1.82l14.88,8.65a14,14,0,0,0-.12,1.82c0,2.92,1,5,2.71,5.94" style="fill:#372f29"/><path d="M158.06,103.24l-14.88-8.65c.06-.42.13-.85.22-1.28L158.28,102c-.09.43-.16.86-.22,1.29" style="fill:#39312a"/><path d="M158.28,102,143.4,93.31c.08-.36.17-.71.27-1.07l14.87,8.65c-.1.35-.18.71-.26,1.06" style="fill:#3b322c"/><path d="M158.54,100.89l-14.87-8.65c.08-.31.18-.63.28-.94l14.88,8.64c-.1.32-.2.63-.29,1" style="fill:#3d342d"/><path d="M158.83,99.94,144,91.3c.1-.3.21-.59.32-.88l14.88,8.65c-.12.29-.22.58-.32.87" style="fill:#3f362f"/><path d="M159.15,99.07l-14.88-8.65c.11-.28.22-.56.34-.83l14.88,8.64c-.12.28-.24.56-.34.84" style="fill:#413830"/><path d="M159.49,98.23l-14.88-8.64c.12-.27.24-.54.37-.81l14.88,8.65c-.13.26-.26.53-.37.8" style="fill:#433a32"/><path d="M159.86,97.43,145,88.78c.13-.26.26-.53.4-.79l14.88,8.65c-.14.26-.28.52-.4.79" style="fill:#453b33"/><path d="M160.26,96.64,145.38,88c.14-.26.28-.52.43-.78l14.88,8.65c-.15.25-.29.51-.43.78" style="fill:#473d35"/><path d="M160.69,95.86l-14.88-8.65.48-.79,14.88,8.65-.48.79" style="fill:#4a3f37"/><path d="M161.17,95.07l-14.88-8.65.54-.8,14.88,8.65c-.19.26-.37.53-.54.8" style="fill:#4c4138"/><path d="M161.71,94.27l-14.88-8.65c.2-.28.41-.56.62-.83l14.88,8.64c-.22.27-.42.55-.62.84" style="fill:#4e433a"/><path d="M162.33,93.43l-14.88-8.64c.24-.32.49-.62.75-.92l14.88,8.64c-.26.3-.51.61-.75.92" style="fill:#50443b"/><path d="M163.08,92.51,148.2,83.87c.33-.38.67-.74,1-1.08l14.88,8.64c-.35.35-.68.71-1,1.08" style="fill:#52463d"/><path d="M164.09,91.43l-14.88-8.64a15.43,15.43,0,0,1,3.11-2.4L167.19,89a15.75,15.75,0,0,0-3.1,2.4" style="fill:#54483e"/></g></g></g><path d="M167.19,89c5.12-3,9.29-.57,9.31,5.31s-4.13,13.06-9.25,16-9.29.59-9.31-5.29S162.06,92,167.19,89Z" style="fill:#51463c"/></g><path d="M167.37,93c3.5-2,6.36-.4,6.37,3.62a14,14,0,0,1-6.33,11c-3.51,2-6.35.39-6.37-3.64A14,14,0,0,1,167.37,93Z" style="fill:#febf35"/><g style="isolation:isolate"><g style="isolation:isolate"><g style="clip-path:url(#k)"><g style="isolation:isolate"><path d="M146.19,101.11l-14.88-8.65a12.12,12.12,0,0,1,1.3-.65l14.88,8.65a10.5,10.5,0,0,0-1.3.65" style="fill:#54483e"/><path d="M147.49,100.46l-14.88-8.65a8.77,8.77,0,0,1,1.09-.37l14.88,8.64a8.33,8.33,0,0,0-1.09.38" style="fill:#52463d"/><path d="M148.58,100.08,133.7,91.44a6.37,6.37,0,0,1,.82-.18l14.88,8.65c-.27,0-.54.1-.82.17" style="fill:#50443b"/><path d="M149.4,99.91l-14.88-8.65c.24,0,.47-.06.69-.07l14.88,8.65a5.38,5.38,0,0,0-.69.07" style="fill:#4e433a"/><path d="M150.09,99.84l-14.88-8.65c.21,0,.42,0,.62,0l14.87,8.64c-.2,0-.4,0-.61,0" style="fill:#4c4138"/><path d="M150.7,99.84,135.83,91.2a5.32,5.32,0,0,1,.56.06l14.87,8.65-.56-.07" style="fill:#4a3f37"/><path d="M151.26,99.91l-14.87-8.65a4.37,4.37,0,0,1,.52.12L151.79,100a4.54,4.54,0,0,0-.53-.12" style="fill:#473d35"/><path d="M151.79,100l-14.88-8.65a4.09,4.09,0,0,1,.49.18l14.87,8.64-.48-.17" style="fill:#453b33"/><path d="M152.27,100.2,137.4,91.56a3.88,3.88,0,0,1,.46.22l14.88,8.65a4.09,4.09,0,0,0-.47-.23" style="fill:#433a32"/><path d="M152.74,100.43l-14.88-8.65,0,0,14.88,8.65,0,0" style="fill:#413830"/></g></g></g><g style="isolation:isolate"><g style="clip-path:url(#l)"><g style="isolation:isolate"><path d="M139.65,123.07l-14.88-8.64c-1.66-1-2.7-3-2.7-6a12.52,12.52,0,0,1,.11-1.82l14.88,8.65a14,14,0,0,0-.12,1.82c0,2.92,1,5,2.71,5.94" style="fill:#372f29"/><path d="M137.06,115.31l-14.88-8.65c.06-.43.13-.86.23-1.29L137.28,114c-.09.43-.16.86-.22,1.29" style="fill:#39312a"/><path d="M137.28,114l-14.87-8.65c.07-.35.16-.71.26-1.06L137.54,113c-.09.36-.18.71-.26,1.07" style="fill:#3b322c"/><path d="M137.54,113l-14.87-8.64c.08-.32.18-.64.29-1L137.83,112c-.1.32-.2.64-.29,1" style="fill:#3d342d"/><path d="M137.83,112,123,103.36c.09-.29.2-.59.31-.88l14.88,8.65c-.11.29-.22.58-.32.87" style="fill:#3f362f"/><path d="M138.15,111.13l-14.88-8.65c.11-.28.22-.55.34-.83l14.88,8.65c-.12.27-.24.55-.34.83" style="fill:#413830"/><path d="M138.49,110.3l-14.88-8.65c.12-.27.24-.54.37-.8l14.88,8.64c-.13.27-.26.54-.37.81" style="fill:#433a32"/><path d="M138.86,109.49,124,100.85c.13-.27.26-.53.4-.79l14.88,8.64c-.14.26-.28.53-.4.79" style="fill:#453b33"/><path d="M139.26,108.7l-14.88-8.64c.14-.27.28-.53.43-.78l14.88,8.64c-.15.26-.29.52-.43.78" style="fill:#473d35"/><path d="M139.69,107.92l-14.88-8.64.48-.79,14.88,8.65-.48.78" style="fill:#4a3f37"/><path d="M140.17,107.14l-14.88-8.65c.18-.27.35-.54.54-.8l14.88,8.65c-.19.26-.37.53-.54.8" style="fill:#4c4138"/><path d="M140.71,106.34l-14.88-8.65c.2-.28.4-.56.62-.83l14.87,8.64c-.21.27-.41.55-.61.84" style="fill:#4e433a"/><path d="M141.32,105.5l-14.87-8.64c.24-.32.49-.62.75-.92l14.87,8.65c-.25.29-.5.6-.75.91" style="fill:#50443b"/><path d="M142.07,104.59,127.2,95.94c.32-.38.66-.74,1-1.08l14.88,8.65q-.53.51-1,1.08" style="fill:#52463d"/><path d="M143.09,103.51l-14.88-8.65a15.75,15.75,0,0,1,3.1-2.4l14.88,8.65a15.38,15.38,0,0,0-3.1,2.4" style="fill:#54483e"/></g></g></g><path d="M146.19,101.11c5.13-3,9.29-.59,9.31,5.3s-4.12,13.06-9.25,16-9.29.58-9.31-5.3S141.06,104.06,146.19,101.11Z" style="fill:#51463c"/></g><ellipse cx="146.39" cy="112.39" rx="8.94" ry="5.18" transform="translate(-24.34 182.48) rotate(-59.84)" style="fill:#febf35"/><g style="isolation:isolate"><g style="isolation:isolate"><g style="clip-path:url(#m)"><g style="isolation:isolate"><path d="M124.17,113.92l-14.88-8.65a11.12,11.12,0,0,1,1.3-.64l14.88,8.64a12.12,12.12,0,0,0-1.3.65" style="fill:#54483e"/><path d="M125.47,113.27l-14.88-8.64a8.87,8.87,0,0,1,1.09-.38l14.88,8.65a8.25,8.25,0,0,0-1.09.37" style="fill:#52463d"/><path d="M126.56,112.9l-14.88-8.65c.28-.07.55-.13.82-.17l14.88,8.64a6.37,6.37,0,0,0-.82.18" style="fill:#50443b"/><path d="M127.38,112.72l-14.88-8.64a5.38,5.38,0,0,1,.69-.07l14.88,8.64c-.23,0-.46,0-.69.07" style="fill:#4e433a"/><path d="M128.07,112.65,113.19,104c.21,0,.41,0,.61,0l14.88,8.65c-.2,0-.4,0-.61,0" style="fill:#4c4138"/><path d="M128.68,112.66,113.8,104a5,5,0,0,1,.56.07l14.88,8.64a5,5,0,0,0-.56-.06" style="fill:#4a3f37"/><path d="M129.24,112.72l-14.88-8.64a4.37,4.37,0,0,1,.52.12l14.88,8.64a4.37,4.37,0,0,0-.52-.12" style="fill:#473d35"/><path d="M129.76,112.84l-14.88-8.64a4,4,0,0,1,.49.17L130.25,113a4.09,4.09,0,0,0-.49-.18" style="fill:#453b33"/><path d="M130.25,113l-14.88-8.65a4.09,4.09,0,0,1,.47.23l14.88,8.64a4,4,0,0,0-.47-.22" style="fill:#433a32"/><path d="M130.72,113.24l-14.88-8.64,0,0,14.88,8.64-.05,0" style="fill:#413830"/></g></g></g><g style="isolation:isolate"><g style="clip-path:url(#n)"><g style="isolation:isolate"><path d="M117.63,135.89l-14.88-8.65c-1.67-1-2.7-3-2.71-5.95a13.87,13.87,0,0,1,.12-1.81L115,128.12a14,14,0,0,0-.12,1.81c0,2.93,1,5,2.71,6" style="fill:#372f29"/><path d="M115,128.12l-14.88-8.64c0-.43.13-.86.22-1.29l14.88,8.65c-.09.43-.17.86-.22,1.28" style="fill:#39312a"/><path d="M115.26,126.84l-14.88-8.65c.07-.35.16-.71.26-1.06l14.88,8.64c-.1.36-.19.71-.26,1.07" style="fill:#3b322c"/><path d="M115.52,125.77l-14.88-8.64c.09-.32.18-.63.29-.95l14.88,8.65c-.11.31-.21.63-.29.94" style="fill:#3d342d"/><path d="M115.81,124.83l-14.88-8.65c.1-.29.2-.58.31-.87L116.12,124c-.11.29-.22.58-.31.87" style="fill:#3f362f"/><path d="M116.12,124l-14.88-8.65c.11-.28.22-.56.34-.83l14.88,8.64c-.12.28-.23.56-.34.84" style="fill:#413830"/><path d="M116.46,123.12l-14.88-8.64c.12-.27.24-.54.37-.81l14.88,8.65c-.13.26-.25.53-.37.8" style="fill:#433a32"/><path d="M116.83,122.32,102,113.67c.13-.26.26-.53.4-.79l14.88,8.65c-.14.26-.27.52-.4.79" style="fill:#453b33"/><path d="M117.23,121.53l-14.88-8.65c.14-.26.29-.52.44-.78l14.87,8.65c-.15.26-.29.52-.43.78" style="fill:#473d35"/><path d="M117.66,120.75l-14.87-8.65c.15-.26.31-.53.48-.78L118.14,120l-.48.79" style="fill:#4a3f37"/><path d="M118.14,120l-14.87-8.64c.17-.28.35-.54.53-.81l14.88,8.65-.54.8" style="fill:#4c4138"/><path d="M118.68,119.16l-14.88-8.65c.2-.28.41-.56.62-.83l14.88,8.64c-.21.27-.42.55-.62.84" style="fill:#4e433a"/><path d="M119.3,118.32l-14.88-8.64c.25-.32.5-.63.76-.92l14.87,8.64c-.26.3-.51.61-.75.92" style="fill:#50443b"/><path d="M120.05,117.4l-14.87-8.64c.32-.38.66-.74,1-1.08l14.88,8.64q-.52.53-1,1.08" style="fill:#52463d"/><path d="M121.07,116.32l-14.88-8.64a15.44,15.44,0,0,1,3.1-2.41l14.88,8.65a15.75,15.75,0,0,0-3.1,2.4" style="fill:#54483e"/></g></g></g><path d="M124.17,113.92c5.12-3,9.29-.58,9.3,5.3s-4.12,13.06-9.24,16-9.3.59-9.31-5.31S119.05,116.88,124.17,113.92Z" style="fill:#51463c"/></g><path d="M124.34,117.92c3.52-2,6.36-.41,6.38,3.62a13.93,13.93,0,0,1-6.34,11c-3.5,2-6.35.4-6.36-3.63A13.93,13.93,0,0,1,124.34,117.92Z" style="fill:#febf35"/><g style="isolation:isolate"><g style="isolation:isolate"><g style="clip-path:url(#o)"><g style="isolation:isolate"><path d="M101.08,127.31,86.2,118.66a11.12,11.12,0,0,1,1.3-.64l14.88,8.64a10.5,10.5,0,0,0-1.3.65" style="fill:#54483e"/><path d="M102.38,126.66,87.5,118a8.87,8.87,0,0,1,1.09-.38l14.88,8.64a10.12,10.12,0,0,0-1.09.38" style="fill:#52463d"/><path d="M103.47,126.28l-14.88-8.64c.28-.08.55-.13.82-.18l14.88,8.65c-.27,0-.54.1-.82.17" style="fill:#50443b"/><path d="M104.29,126.11l-14.88-8.65q.34,0,.69-.06L105,126a5.38,5.38,0,0,0-.69.07" style="fill:#4e433a"/><path d="M105,126,90.1,117.4c.21,0,.41,0,.61,0l14.88,8.65a4.12,4.12,0,0,0-.61,0" style="fill:#4c4138"/><path d="M105.59,126.05,90.71,117.4a3.43,3.43,0,0,1,.56.07l14.88,8.64a5,5,0,0,0-.56-.06" style="fill:#4a3f37"/><path d="M106.15,126.11l-14.88-8.64a4.37,4.37,0,0,1,.52.12l14.88,8.64a4.37,4.37,0,0,0-.52-.12" style="fill:#473d35"/><path d="M106.67,126.23l-14.88-8.64a2.84,2.84,0,0,1,.49.17l14.88,8.64-.49-.17" style="fill:#453b33"/><path d="M107.16,126.4l-14.88-8.64a4.09,4.09,0,0,1,.47.23l14.88,8.64-.47-.23" style="fill:#433a32"/><path d="M107.63,126.63,92.75,118l0,0,14.88,8.65-.05,0" style="fill:#413830"/></g></g></g><g style="isolation:isolate"><g style="clip-path:url(#p)"><g style="isolation:isolate"><path d="M94.53,149.27l-14.87-8.64c-1.67-1-2.7-3-2.71-5.95a14,14,0,0,1,.12-1.81L92,141.51a14.26,14.26,0,0,0-.12,1.82c0,2.92,1,5,2.7,5.94" style="fill:#372f29"/><path d="M92,141.51l-14.88-8.64c.06-.43.13-.86.22-1.29l14.88,8.65c-.09.43-.17.86-.22,1.28" style="fill:#39312a"/><path d="M92.17,140.23l-14.88-8.65c.08-.35.16-.71.26-1.06l14.88,8.64c-.1.36-.19.71-.26,1.07" style="fill:#3b322c"/><path d="M92.43,139.16l-14.88-8.64c.09-.32.19-.63.29-1l14.88,8.65c-.11.31-.2.63-.29.94" style="fill:#3d342d"/><path d="M92.72,138.22l-14.88-8.65c.1-.29.2-.58.32-.88L93,137.34c-.11.29-.21.58-.31.88" style="fill:#3f362f"/><path d="M93,137.34l-14.87-8.65c.1-.27.22-.55.34-.83l14.87,8.65c-.12.27-.23.55-.34.83" style="fill:#413830"/><path d="M93.37,136.51,78.5,127.86c.11-.27.24-.54.36-.8l14.88,8.64c-.13.27-.25.54-.37.81" style="fill:#433a32"/><path d="M93.74,135.7l-14.88-8.64c.13-.27.27-.53.4-.79l14.88,8.64c-.14.26-.27.53-.4.79" style="fill:#453b33"/><path d="M94.14,134.91l-14.88-8.64c.14-.27.29-.53.44-.78l14.88,8.64c-.15.26-.3.52-.44.78" style="fill:#473d35"/><path d="M94.58,134.13,79.7,125.49c.15-.27.31-.53.48-.79l14.88,8.65c-.17.25-.33.52-.48.78" style="fill:#4a3f37"/><path d="M95.06,133.35,80.18,124.7c.17-.27.35-.54.54-.8l14.87,8.64c-.18.27-.36.53-.53.81" style="fill:#4c4138"/><path d="M95.59,132.54,80.72,123.9c.2-.29.4-.57.61-.84l14.88,8.65c-.21.27-.42.55-.62.83" style="fill:#4e433a"/><path d="M96.21,131.71l-14.88-8.65c.25-.31.5-.62.76-.92L97,130.79c-.26.3-.51.6-.76.92" style="fill:#50443b"/><path d="M97,130.79l-14.88-8.65c.33-.37.66-.73,1-1.08L98,129.71c-.35.34-.69.7-1,1.08" style="fill:#52463d"/><path d="M98,129.71,83.1,121.06a16,16,0,0,1,3.1-2.4l14.88,8.65a15,15,0,0,0-3.1,2.4" style="fill:#54483e"/></g></g></g><path d="M101.08,127.31c5.12-3,9.29-.59,9.3,5.31s-4.12,13-9.24,16-9.29.59-9.31-5.3S96,130.26,101.08,127.31Z" style="fill:#51463c"/></g><ellipse cx="101.29" cy="138.59" rx="8.94" ry="5.18" transform="translate(-69.43 156.53) rotate(-59.84)" style="fill:#febf35"/><polygon points="98.04 128.6 78.2 117.08 152.12 74.4 171.96 85.93 98.04 128.6" style="fill:#dba42e"/><g style="isolation:isolate"><g style="clip-path:url(#q)"><g style="isolation:isolate"><path d="M89.31,143.73,69.47,132.2a12.65,12.65,0,0,1,.12-1.72L89.42,142a14.45,14.45,0,0,0-.11,1.72" style="fill:#84631c"/><path d="M89.42,142,69.59,130.48c0-.4.12-.81.2-1.21l19.84,11.52c-.09.41-.16.82-.21,1.22" style="fill:#89671d"/><path d="M89.63,140.79,69.79,129.27c.08-.34.16-.67.25-1l19.84,11.53c-.1.33-.18.67-.25,1" style="fill:#8e6b1e"/><path d="M89.88,139.79,70,128.26c.08-.3.17-.59.27-.89L90.15,138.9c-.1.29-.19.59-.27.89" style="fill:#936f1f"/><path d="M90.15,138.9,70.31,127.37c.1-.28.19-.55.3-.83l19.84,11.53c-.11.27-.21.55-.3.83" style="fill:#987320"/><path d="M90.45,138.07,70.61,126.54c.1-.26.21-.52.32-.78l19.84,11.52c-.12.27-.22.53-.32.79" style="fill:#9d7621"/><path d="M90.77,137.28,70.93,125.76c.11-.26.23-.51.35-.76l19.83,11.53c-.12.25-.23.5-.34.75" style="fill:#a37a22"/><path d="M91.11,136.53,71.28,125c.12-.25.24-.5.38-.75l19.83,11.53-.38.75" style="fill:#a87e23"/><path d="M91.49,135.78,71.66,124.25c.13-.24.26-.49.41-.73L91.9,135.05c-.14.24-.28.48-.41.73" style="fill:#ad8224"/><path d="M91.9,135.05,72.07,123.52c.14-.25.29-.5.45-.74l19.83,11.53-.45.74" style="fill:#b28625"/><path d="M92.35,134.31,72.52,122.78c.16-.26.33-.51.5-.76l19.84,11.53-.51.76" style="fill:#b78a26"/><path d="M92.86,133.55,73,122c.19-.27.39-.53.59-.79l19.83,11.53c-.2.26-.39.52-.58.79" style="fill:#bc8d27"/><path d="M93.44,132.76,73.61,121.23c.23-.29.46-.58.71-.86L94.15,131.9c-.24.28-.48.56-.71.86" style="fill:#c19128"/><path d="M94.15,131.9,74.32,120.37c.31-.36.62-.7,1-1l19.84,11.53q-.49.48-1,1" style="fill:#c69529"/><path d="M95.11,130.88,75.27,119.35a14.62,14.62,0,0,1,2.93-2.27L98,128.61a14.35,14.35,0,0,0-2.93,2.27" style="fill:#cb992a"/></g></g></g><polygon points="89.32 146.68 69.48 135.15 69.47 132.2 89.31 143.73 89.32 146.68" style="fill:#88661c"/><g style="isolation:isolate"><g style="clip-path:url(#r)"><g style="isolation:isolate"><path d="M172,85.93,152.12,74.4a11.68,11.68,0,0,1,1.23-.61l19.84,11.53a10,10,0,0,0-1.23.61" style="fill:#cb992a"/><path d="M173.19,85.32,153.35,73.79a7.56,7.56,0,0,1,1-.36L174.22,85a7.93,7.93,0,0,0-1,.36" style="fill:#c69529"/><path d="M174.22,85,154.39,73.43a7,7,0,0,1,.77-.16L175,84.8a5.56,5.56,0,0,0-.77.16" style="fill:#c19128"/><path d="M175,84.8,155.16,73.27a5,5,0,0,1,.65-.07l19.84,11.53a5.11,5.11,0,0,0-.66.07" style="fill:#bc8d27"/><path d="M175.65,84.73,155.81,73.2a5.56,5.56,0,0,1,.58,0l19.84,11.53a3.75,3.75,0,0,0-.58,0" style="fill:#b78a26"/><path d="M176.23,84.74,156.39,73.21a4.52,4.52,0,0,1,.53.06L176.75,84.8a4.35,4.35,0,0,0-.52-.06" style="fill:#b28625"/><path d="M176.75,84.8,156.92,73.27l.49.11,19.84,11.53a4,4,0,0,0-.5-.11" style="fill:#ad8224"/><path d="M177.25,84.91,157.41,73.38a3.61,3.61,0,0,1,.46.17l19.84,11.52-.46-.16" style="fill:#a87e23"/><path d="M177.71,85.07,157.87,73.55a3.55,3.55,0,0,1,.44.21l19.84,11.53-.44-.22" style="fill:#a37a22"/><path d="M178.15,85.29,158.31,73.76l.05,0,19.83,11.53,0,0" style="fill:#9d7621"/></g></g></g><g style="isolation:isolate"><g style="clip-path:url(#s)"><g style="isolation:isolate"><path d="M91.87,152.3,72,140.78c-1.58-.92-2.55-2.86-2.56-5.63l19.84,11.53c0,2.77,1,4.71,2.55,5.62" style="fill:#84631c"/></g></g></g><g style="isolation:isolate"><g style="isolation:isolate"><g style="clip-path:url(#t)"><g style="isolation:isolate"><path d="M101.3,93.94l-5-2.88a3.19,3.19,0,0,1,.45-.23l5,2.88a4.78,4.78,0,0,0-.45.23" style="fill:#9a9a97"/><path d="M101.75,93.71l-5-2.88a3,3,0,0,1,.39-.13l4.95,2.88-.38.13" style="fill:#979693"/><path d="M102.13,93.58,97.18,90.7a1.4,1.4,0,0,1,.28-.06l5,2.88-.29.06" style="fill:#939290"/><path d="M102.42,93.52l-5-2.88.24,0,5,2.88-.24,0" style="fill:#8f8e8c"/><path d="M102.66,93.5l-5-2.88a.81.81,0,0,1,.22,0l5,2.88a1.61,1.61,0,0,0-.22,0" style="fill:#8b8a88"/><path d="M102.88,93.5l-5-2.88.19,0,5,2.88-.19,0" style="fill:#878684"/><path d="M103.07,93.52l-5-2.88.19,0,5,2.88-.18,0" style="fill:#838381"/><path d="M103.25,93.56l-5-2.88.17.06,5,2.88-.18-.06" style="fill:#7f7f7d"/><path d="M103.43,93.62l-5-2.88.16.08,5,2.88-.16-.08" style="fill:#7c7b79"/><path d="M103.59,93.7l-5-2.88h0l5,2.88h0" style="fill:#787775"/></g></g></g><g style="isolation:isolate"><g style="clip-path:url(#u)"><g style="isolation:isolate"><path d="M99,101.62l-5-2.88a2.27,2.27,0,0,1-.94-2.08,3.49,3.49,0,0,1,0-.64l5,2.88a4.72,4.72,0,0,0,0,.64,2.3,2.3,0,0,0,1,2.08" style="fill:#646462"/><path d="M98.11,98.9l-5-2.88c0-.15,0-.3.07-.45l5,2.88c0,.15-.05.3-.07.45" style="fill:#686866"/><path d="M98.18,98.45l-5-2.88c0-.13.06-.25.1-.38l5,2.89c0,.12-.07.25-.1.37" style="fill:#6c6c6a"/><path d="M98.28,98.08l-5-2.89c0-.11.06-.22.1-.33l5,2.89c0,.11-.07.22-.1.33" style="fill:#706f6e"/><path d="M98.38,97.75l-5-2.89c0-.1.07-.2.11-.3l5,2.88a2.83,2.83,0,0,0-.11.31" style="fill:#747371"/><path d="M98.49,97.44l-5-2.88a1.78,1.78,0,0,1,.12-.29l4.95,2.88c0,.1-.08.19-.11.29" style="fill:#787775"/><path d="M98.6,97.15l-4.95-2.88.12-.28,5,2.88c0,.09-.08.19-.13.28" style="fill:#7c7b79"/><path d="M98.73,96.87l-5-2.88c0-.09.09-.18.14-.28l5,2.89-.14.27" style="fill:#7f7f7d"/><path d="M98.87,96.6l-5-2.89.15-.27,5,2.88-.15.28" style="fill:#838381"/><path d="M99,96.32l-5-2.88.17-.27,5,2.88-.17.27" style="fill:#878684"/><path d="M99.19,96.05l-5-2.88c.06-.09.12-.19.19-.28l5,2.88c-.07.09-.13.19-.19.28" style="fill:#8b8a88"/><path d="M99.38,95.77l-5-2.88.21-.29,5,2.88-.21.29" style="fill:#8f8e8c"/><path d="M99.59,95.48l-5-2.88c.09-.11.17-.22.26-.32l5,2.88-.26.32" style="fill:#939290"/><path d="M99.85,95.16l-5-2.88.36-.38,5,2.88-.36.38" style="fill:#979693"/><path d="M100.21,94.78l-5-2.88a5.68,5.68,0,0,1,1.09-.84l5,2.88a5.39,5.39,0,0,0-1.09.84" style="fill:#9a9a97"/></g></g></g><ellipse cx="101.31" cy="97.67" rx="4.57" ry="2.65" transform="translate(-34.04 136.19) rotate(-59.84)" style="fill:#959492"/></g><g style="isolation:isolate"><g style="isolation:isolate"><g style="clip-path:url(#v)"><g style="isolation:isolate"><path d="M68.7,111.78l25.79-15,.1,0-25.79,15-.1,0" style="fill:#646462"/><path d="M68.8,111.73l25.79-15,.08,0-25.79,15-.08,0" style="fill:#686866"/><path d="M68.88,111.71l25.79-15h.07L69,111.7h-.07" style="fill:#6c6c6a"/><path d="M69,111.7l25.79-15h.07L69,111.7H69" style="fill:#706f6e"/><path d="M69,111.7l25.79-15h0l-25.79,15h0" style="fill:#747371"/><path d="M69.07,111.7l25.79-15h.06l-25.79,15h-.06" style="fill:#787775"/><path d="M69.13,111.7l25.79-15h0l-25.79,15h-.05" style="fill:#7c7b79"/><path d="M69.18,111.71,95,96.73h0l-25.79,15h0" style="fill:#7f7f7d"/><path d="M69.23,111.72,95,96.74h0l-25.78,15-.06,0" style="fill:#838381"/><path d="M69.29,111.74l25.78-15,.05,0-25.79,15h0" style="fill:#878684"/><path d="M69.33,111.75l25.79-15,0,0-25.79,15,0,0" style="fill:#8b8a88"/><path d="M69.38,111.77l25.79-15,0,0-25.79,15-.05,0" style="fill:#8f8e8c"/><path d="M69.43,111.79l25.79-15,0,0-25.79,15,0,0" style="fill:#939290"/><path d="M69.48,111.82l25.79-15,0,0-25.79,15,0,0" style="fill:#979693"/><path d="M69.53,111.84l25.79-15,0,0-25.79,15,0,0" style="fill:#9a9a97"/></g></g></g><g style="isolation:isolate"><g style="clip-path:url(#w)"><g style="isolation:isolate"><path d="M69.57,111.87l25.79-15h0l-25.78,15h0" style="fill:#9a9a97"/><path d="M69.59,111.87l25.78-15,0,0-25.78,15,0,0" style="fill:#9e9d9b"/><path d="M69.64,111.9l25.78-15,.06,0-25.79,15,0,0" style="fill:#a2a19f"/><path d="M69.69,111.94,95.48,97l0,0L69.74,112l0,0" style="fill:#a6a5a3"/><path d="M69.74,112,95.53,97l0,0L69.79,112a.1.1,0,0,0-.05,0" style="fill:#aaa9a6"/><path d="M69.79,112,95.58,97l0,0-25.78,15-.06,0" style="fill:#aeadaa"/><path d="M69.85,112.06l25.78-15,.06.05-25.79,15s0,0-.05,0" style="fill:#b2b1ae"/><path d="M69.9,112.11l25.79-15,0,0L70,112.16l0,0" style="fill:#b5b4b2"/><path d="M70,112.16l25.79-15,.05,0L70,112.21l-.06,0" style="fill:#b9b8b5"/><path d="M70,112.21l25.78-15,0,0-25.78,15,0-.05" style="fill:#bdbcb9"/><path d="M70.06,112.26l25.78-15,0,.06-25.79,15,0,0" style="fill:#c1c0bd"/><path d="M70.1,112.31l25.79-15,0,0-25.79,15-.05-.06" style="fill:#c8c8c5"/><path d="M70.15,112.37l25.79-15,0,.06-25.78,15,0,0" style="fill:#cccbc8"/><path d="M70.2,112.42,96,97.44l.06.07-25.79,15a.18.18,0,0,1,0-.07" style="fill:#cecdcb"/><path d="M70.25,112.49,96,97.51l.07.11-25.78,15a1,1,0,0,1-.08-.11" style="fill:#d0cfcd"/><path d="M70.33,112.6l25.78-15a1.3,1.3,0,0,1,.1.15l-25.79,15-.09-.15" style="fill:#d2d1cf"/><path d="M70.42,112.75l25.79-15,.06.1-25.79,15-.06-.11" style="fill:#d0cfcd"/><path d="M70.48,112.86l25.79-15,0,.07-25.78,15,0-.07" style="fill:#cecdcb"/><path d="M70.52,112.93l25.78-15,0,.07L70.55,113l0-.06" style="fill:#cccbc8"/><path d="M70.55,113,96.33,98l0,0-25.79,15,0-.06" style="fill:#c8c8c5"/><path d="M70.57,113.05l25.79-15,0,.06-25.79,15,0-.06" style="fill:#c1c0bd"/><path d="M70.6,113.11l25.79-15,0,.06-25.79,15,0-.06" style="fill:#bdbcb9"/><path d="M70.62,113.17l25.79-15,0,.06-25.79,15,0-.06" style="fill:#b9b8b5"/><path d="M70.64,113.23l25.79-15,0,.06-25.78,15,0-.06" style="fill:#b5b4b2"/><path d="M70.67,113.29l25.78-15,0,.06-25.78,15,0-.06" style="fill:#b2b1ae"/><path d="M70.69,113.35l25.78-15,0,.07-25.79,15v-.06" style="fill:#aeadaa"/><path d="M70.7,113.41l25.79-15s0,0,0,.06l-25.79,15a.25.25,0,0,0,0-.07" style="fill:#aaa9a6"/><path d="M70.72,113.48l25.79-15v.07l-25.78,15,0-.06" style="fill:#a6a5a3"/><path d="M70.74,113.54l25.78-15s0,0,0,.06l-25.79,15a.2.2,0,0,1,0-.07" style="fill:#a2a19f"/><path d="M70.75,113.61l25.79-15v.06l-25.79,15v-.06" style="fill:#9e9d9b"/><path d="M70.76,113.67l25.79-15v.06l-25.79,15v-.06" style="fill:#9a9a97"/><path d="M70.77,113.73l25.79-15v.06l-25.79,15v-.06" style="fill:#979693"/><path d="M70.77,113.79l25.79-15v.06l-25.79,15v-.06" style="fill:#939290"/><path d="M70.78,113.85l25.79-15v.06l-25.79,15v-.05" style="fill:#8f8e8c"/><path d="M70.78,113.9l25.79-15v0h0L70.78,114h0v-.06" style="fill:#8b8a88"/><path d="M70.78,114,96.57,99v0L70.78,114V114" style="fill:#878684"/><path d="M70.78,114,96.57,99v.06l-25.79,15V114" style="fill:#838381"/><path d="M70.78,114.08l25.79-15a.13.13,0,0,0,0,.06l-25.79,15a.43.43,0,0,0,0,0" style="fill:#7f7f7d"/><path d="M70.77,114.13l25.79-15s0,0,0,.06l-25.79,15a.13.13,0,0,0,0-.06" style="fill:#7c7b79"/><path d="M70.76,114.19l25.79-15s0,0,0,.05l-25.79,15a.13.13,0,0,0,0-.06" style="fill:#787775"/><path d="M70.75,114.25l25.79-15s0,0,0,.07l-25.78,15s0,0,0-.06" style="fill:#747371"/><path d="M70.74,114.31l25.78-15a.14.14,0,0,1,0,.06l-25.79,15,0-.06" style="fill:#706f6e"/><path d="M70.71,114.37l25.79-15,0,.07-25.78,15a.14.14,0,0,0,0-.07" style="fill:#6c6c6a"/><path d="M70.69,114.44l25.78-15s0,.05,0,.08l-25.79,15,0-.09" style="fill:#686866"/><path d="M70.64,114.53l25.79-15a.63.63,0,0,1-.22.21l-25.78,15a.57.57,0,0,0,.21-.2" style="fill:#646462"/></g></g></g><path d="M69.57,111.87A2.65,2.65,0,0,1,70.78,114c0,.76-.55,1.08-1.21.69a2.67,2.67,0,0,1-1.22-2.1C68.35,111.78,68.9,111.48,69.57,111.87Z" style="fill:#686765"/></g><g style="isolation:isolate"><polygon points="158.71 52.51 127.97 70.38 112.99 61.73 143.74 43.87 158.71 52.51" style="fill:#dba52e"/><polygon points="158.71 52.51 158.62 86.93 127.87 104.79 127.97 70.38 158.71 52.51" style="fill:#febf35"/><polygon points="127.97 70.38 127.87 104.79 112.9 96.14 112.99 61.73 127.97 70.38" style="fill:#88661c"/></g><g style="isolation:isolate"><path d="M85.32,118.16l.12,43.09-21,12.11C65.52,172.41,85.42,154.23,85.32,118.16Z" style="fill:#febf35"/><path d="M64.47,173.36,0,135.9c1.05-1,21-19.13,20.85-55.2l64.47,37.46C85.42,154.23,65.52,172.41,64.47,173.36Z" style="fill:#88661c"/></g><g style="isolation:isolate"><polygon points="158.85 19.02 128.11 36.89 95.16 17.87 125.9 0 158.85 19.02" style="fill:#dba52e"/><polygon points="158.85 19.02 158.72 64.91 127.98 82.77 128.11 36.89 158.85 19.02" style="fill:#febf35"/><polygon points="128.11 36.89 127.98 82.77 95.03 63.75 95.16 17.87 128.11 36.89" style="fill:#88661c"/></g><polygon points="125.6 38.09 125.48 79.01 97.58 62.9 97.7 21.99 125.6 38.09" style="fill:#88a2b5"/><line x1="115.47" y1="45.17" x2="119.26" y2="41.39" style="fill:none;stroke:#fff;stroke-miterlimit:10;stroke-width:0.25px"/><line x1="117.11" y1="47.13" x2="120.89" y2="43.35" style="fill:none;stroke:#fff;stroke-miterlimit:10;stroke-width:0.25px"/><line x1="115" y1="47.34" x2="121.38" y2="40.95" style="fill:none;stroke:#fff;stroke-miterlimit:10;stroke-width:0.25px"/><g style="isolation:isolate"><path d="M56.32,69.19v4.07a.5.5,0,0,0-.29-.41,1.55,1.55,0,0,0-1.42,0,.5.5,0,0,0-.29.41V69.18a.51.51,0,0,1,.29-.41,1.61,1.61,0,0,1,1.42,0A.53.53,0,0,1,56.32,69.19Z" style="fill:#707070"/><path d="M54.61,73.67a.52.52,0,0,1-.3-.41V69.18a.49.49,0,0,0,.3.41,1.53,1.53,0,0,0,1.41,0,.48.48,0,0,0,.29-.4v4.07a.51.51,0,0,1-.29.41A1.59,1.59,0,0,1,54.61,73.67Z" style="fill:#898989"/><path d="M56,68.77a.43.43,0,0,1,0,.82,1.53,1.53,0,0,1-1.41,0,.43.43,0,0,1,0-.82A1.61,1.61,0,0,1,56,68.77Z" style="fill:#898989"/><path d="M57.32,69.18v4.08a1,1,0,0,1-.58.82,3.14,3.14,0,0,1-2.83,0,1,1,0,0,1-.59-.83V69.17a1,1,0,0,0,.59.83,3.13,3.13,0,0,0,2.83,0A1,1,0,0,0,57.32,69.18Z" style="fill:#707070"/><path d="M56.74,68.36a.87.87,0,0,1,0,1.64,3.13,3.13,0,0,1-2.83,0,.87.87,0,0,1,0-1.64A3.16,3.16,0,0,1,56.74,68.36Zm-2.12,1.23a1.53,1.53,0,0,0,1.41,0,.43.43,0,0,0,0-.82,1.61,1.61,0,0,0-1.42,0,.43.43,0,0,0,0,.82" style="fill:#707070"/></g><g style="isolation:isolate"><path d="M56.38,28.84,56.26,69.6A.51.51,0,0,1,56,70a1.59,1.59,0,0,1-1.41,0,.52.52,0,0,1-.3-.42l.12-40.75a.52.52,0,0,0,.3.41,1.59,1.59,0,0,0,1.41,0A.5.5,0,0,0,56.38,28.84Z" style="fill:#707070"/><path d="M56.08,28.43a.43.43,0,0,1,0,.82,1.59,1.59,0,0,1-1.41,0c-.4-.23-.4-.6,0-.82A1.53,1.53,0,0,1,56.08,28.43Z" style="fill:#707070"/></g><g style="isolation:isolate"><path d="M61.11,66V70.1a.49.49,0,0,0-.3-.41,1.53,1.53,0,0,0-1.41,0,.48.48,0,0,0-.29.4V66a.5.5,0,0,1,.29-.41,1.53,1.53,0,0,1,1.41,0A.51.51,0,0,1,61.11,66Z" style="fill:#707070"/><path d="M59.39,70.51a.49.49,0,0,1-.29-.42V66a.48.48,0,0,0,.29.41,1.61,1.61,0,0,0,1.42,0,.5.5,0,0,0,.29-.41V70.1a.53.53,0,0,1-.3.41A1.59,1.59,0,0,1,59.39,70.51Z" style="fill:#898989"/><path d="M60.81,65.61c.39.23.4.59,0,.82a1.61,1.61,0,0,1-1.42,0,.43.43,0,0,1,0-.82A1.53,1.53,0,0,1,60.81,65.61Z" style="fill:#898989"/><path d="M62.11,66V70.1a1,1,0,0,1-.59.81,3.15,3.15,0,0,1-2.82,0,1,1,0,0,1-.6-.83l0-4.08a1,1,0,0,0,.59.83,3.11,3.11,0,0,0,2.82,0A1,1,0,0,0,62.11,66Z" style="fill:#707070"/><path d="M61.52,65.2a.87.87,0,0,1,0,1.64,3.11,3.11,0,0,1-2.82,0,.87.87,0,0,1,0-1.64A3.16,3.16,0,0,1,61.52,65.2ZM59.4,66.43a1.61,1.61,0,0,0,1.42,0c.39-.23.38-.59,0-.82a1.53,1.53,0,0,0-1.41,0,.43.43,0,0,0,0,.82" style="fill:#707070"/></g><g style="isolation:isolate"><path d="M61.14,41.83l-.07,24.45a.49.49,0,0,1-.3.41,1.53,1.53,0,0,1-1.41,0,.5.5,0,0,1-.29-.41l.07-24.46a.53.53,0,0,0,.29.42,1.59,1.59,0,0,0,1.41,0A.53.53,0,0,0,61.14,41.83Z" style="fill:#707070"/><path d="M60.84,41.42c.4.23.39.59,0,.82a1.59,1.59,0,0,1-1.41,0,.43.43,0,0,1,0-.82A1.53,1.53,0,0,1,60.84,41.42Z" style="fill:#707070"/></g></svg>