<svg xmlns="http://www.w3.org/2000/svg" xmlns:xlink="http://www.w3.org/1999/xlink" viewBox="0 0 120 120"><defs><clipPath id="a"><rect width="120" height="120" style="fill:none"/></clipPath><clipPath id="b"><path d="M108.78,75.63v1.61c0-3.94-1.81-8.71-5.47-14-7.33-10.7-21-22.31-38.62-32.95V28.62c17.66,10.64,31.29,22.26,38.63,33C107,66.91,108.79,71.69,108.78,75.63Z" style="fill:none"/></clipPath><clipPath id="c"><path d="M119.09,75.68v1.61c0,5.4-2.73,9.82-8.13,13-10.13,5.89-28.06,6.32-50.47,1.21-21-4.79-43.85-13.92-64.24-25.69V64.16c20.39,11.77,43.2,20.89,64.23,25.69C82.9,95,100.82,94.52,111,88.63,116.36,85.49,119.07,81.08,119.09,75.68Z" style="fill:none"/></clipPath></defs><g style="clip-path:url(#a)"><polygon points="227 101.83 131.29 157.45 -85 32.57 10.71 -23.05 227 101.83" style="fill:#5e9319"/><g style="isolation:isolate"><polygon points="64.68 28.62 64.68 30.24 7.2 63.64 7.2 62.02 64.68 28.62" style="fill:#9cb3b7"/><g style="isolation:isolate"><g style="clip-path:url(#b)"><g style="isolation:isolate"><path d="M108.78,75.63v1.61c0-3.94-1.81-8.71-5.47-14-7.33-10.7-21-22.31-38.62-32.95V28.62c17.66,10.64,31.29,22.26,38.63,33,3.66,5.33,5.48,10.11,5.47,14" style="fill:#666c6e"/></g></g></g><path d="M112.89,59.39c8.89,13,8.2,23.35-1.93,29.24S82.9,95,60.48,89.85c-21-4.8-43.84-13.92-64.23-25.69L-7.41,62,64.67,20.16l3.66,2.11C88.72,34,104.55,47.22,112.89,59.39ZM64.23,84.29c18.09,4.12,32.46,4.16,39.42.12s6.84-12.37-.34-22.83c-7.34-10.7-21-22.32-38.63-33L7.2,62c18.43,10.2,38.53,18.06,57,22.27" style="fill:#c5cfd3"/><g style="isolation:isolate"><g style="clip-path:url(#c)"><g style="isolation:isolate"><path d="M119.09,75.68v.4c0-.13,0-.27,0-.4" style="fill:#72787a"/><path d="M119.08,76.08V77.7a15.18,15.18,0,0,1-.28,2.46V78.55a14.26,14.26,0,0,0,.27-2.47" style="fill:#767c7f"/><path d="M118.81,78.55v1.61a13.06,13.06,0,0,1-.59,2.08V80.63a13.69,13.69,0,0,0,.59-2.08" style="fill:#7a8083"/><path d="M118.22,80.63v1.61a14.23,14.23,0,0,1-.86,1.86V82.48a12.49,12.49,0,0,0,.87-1.85" style="fill:#7e8487"/><path d="M117.35,82.48V84.1a14.31,14.31,0,0,1-1.19,1.76V84.24a13.52,13.52,0,0,0,1.18-1.76" style="fill:#82898b"/><path d="M116.17,84.24v1.62a15.07,15.07,0,0,1-1.69,1.82V86.07a15.21,15.21,0,0,0,1.69-1.83" style="fill:#868d8f"/><path d="M114.48,86.07v1.61a19.37,19.37,0,0,1-3.22,2.39V88.45a19.76,19.76,0,0,0,3.22-2.38" style="fill:#8a9194"/><path d="M111.26,88.45v1.62l-.3.18a29.43,29.43,0,0,1-5.64,2.47V91.1A28.92,28.92,0,0,0,111,88.63l.3-.18" style="fill:#8e9598"/><path d="M105.31,91.1v1.62a41.67,41.67,0,0,1-5.47,1.35V92.45a41.27,41.27,0,0,0,5.47-1.35" style="fill:#8a9194"/><path d="M99.84,92.45v1.62c-1.39.25-2.83.45-4.34.6V93.05c1.5-.15,2.95-.35,4.33-.6" style="fill:#868d8f"/><path d="M95.51,93.05v1.62c-1.42.14-2.9.23-4.43.29V93.34c1.52,0,3-.15,4.43-.29" style="fill:#82898b"/><path d="M91.08,93.34V95c-1.58.05-3.22.05-4.9,0V93.36c1.69,0,3.33,0,4.91,0" style="fill:#7e8487"/><path d="M86.17,93.36V95q-2.79-.07-5.75-.31V93q3,.24,5.75.32" style="fill:#7a8083"/><path d="M80.42,93v1.62q-3.45-.28-7.11-.81V92.24q3.68.51,7.11.8" style="fill:#767c7f"/><path d="M73.31,92.24v1.61c-3-.43-6.18-1-9.43-1.65V90.59q4.88,1,9.42,1.65" style="fill:#72787a"/><path d="M63.89,90.59V92.2c-1.12-.23-2.26-.48-3.4-.74q-5-1.14-10.1-2.59V87.25q5.1,1.45,10.09,2.6c1.15.26,2.28.5,3.41.74" style="fill:#6e7476"/><path d="M50.39,87.25v1.62c-6.92-2-14-4.37-21-7.13V80.12c7,2.77,14.06,5.16,21,7.13" style="fill:#6a7072"/><path d="M29.4,80.12v1.62a249.32,249.32,0,0,1-33.15-16V64.16a249.9,249.9,0,0,0,33.15,16" style="fill:#666c6e"/></g></g></g></g><g style="opacity:0.1"><path d="M61.1,41.54c7.27-1,13.16,1.71,13.15,6.08s-5.91,8.75-13.18,9.77S47.91,55.7,47.92,51.32,53.83,42.56,61.1,41.54Z" style="fill:#161615"/></g><path d="M76,52.9c2.79,1.61,2.8,4.22,0,5.83a11.11,11.11,0,0,1-10.06,0c-2.78-1.6-2.8-4.21,0-5.82A11.08,11.08,0,0,1,76,52.9Z" style="fill:#617a42"/><ellipse cx="75.7" cy="33.94" rx="6.99" ry="8.77" style="fill:#8c9b57"/><path d="M76.4,41.31c-3.86,0-7-3.93-7-8.77a10.62,10.62,0,0,1,.74-3.93,10.24,10.24,0,0,0-1.44,5.33c0,4.84,3.13,8.77,7,8.77,2.73,0,5.1-2,6.25-4.84A6.62,6.62,0,0,1,76.4,41.31Z" style="fill:#869156"/><path d="M75.7,25A6.47,6.47,0,0,0,70.48,28a5.9,5.9,0,0,1,3.35-1.07c3.86,0,7,3.92,7,8.77a10.15,10.15,0,0,1-1.76,5.82,9.29,9.29,0,0,0,3.63-7.69C82.69,29,79.56,25,75.7,25Z" style="fill:#82b650"/><rect x="69.38" y="29.92" width="1.88" height="26.17" style="fill:#552904"/><rect x="69.9" y="29.92" width="1.88" height="26.17" style="fill:#82592c"/><ellipse cx="70.32" cy="21.01" rx="10.14" ry="12.01" style="fill:#8c9b57"/><ellipse cx="64.99" cy="31.7" rx="6.52" ry="7.57" style="fill:#8c9b57"/><path d="M65.66,38.33c-3.6,0-6.52-3.39-6.52-7.57a8.39,8.39,0,0,1,1.19-4.36,8.2,8.2,0,0,0-1.86,5.3c0,4.18,2.92,7.57,6.52,7.57a6.29,6.29,0,0,0,5.32-3.21A6.09,6.09,0,0,1,65.66,38.33Z" style="fill:#869156"/><path d="M65,24.11a6.28,6.28,0,0,0-5.24,3.05,6,6,0,0,1,3.89-1.49c3.6,0,6.52,3.39,6.52,7.57a8.4,8.4,0,0,1-1.29,4.52,8,8,0,0,0,2.63-6.08C71.5,27.5,68.59,24.11,65,24.11Z" style="fill:#82b650"/><path d="M70.32,9a9.11,9.11,0,0,0-6.12,2.44,8.56,8.56,0,0,1,2.38-.34c5.6,0,10.14,5.38,10.14,12a12.84,12.84,0,0,1-4,9.57c4.45-1.27,7.76-6,7.76-11.68C80.46,14.38,75.92,9,70.32,9Z" style="fill:#82b650"/><g style="opacity:0.1"><path d="M38.36,52.2c7.28-1,13.17,1.7,13.16,6.08S45.61,67,38.33,68.05,25.18,66.35,25.19,62,31.1,53.22,38.36,52.2Z" style="fill:#161615"/></g><path d="M52.18,64c2.79,1.61,2.8,4.22,0,5.82a11.1,11.1,0,0,1-10.07,0c-2.78-1.61-2.79-4.22,0-5.83A11.06,11.06,0,0,1,52.18,64Z" style="fill:#617a42"/><rect x="45.75" y="55.29" width="1.71" height="11.95" style="fill:#552904"/><rect x="46.32" y="55.29" width="2.28" height="11.95" style="fill:#82592c"/><ellipse cx="44.04" cy="46.47" rx="5.69" ry="8.25" style="fill:#8c9b57"/><path d="M45.18,53c-3.14,0-5.69-3.69-5.69-8.25a11,11,0,0,1,.95-4.56,10,10,0,0,0-2.08,6.38c0,4.55,2.55,8.25,5.69,8.25,2,0,3.71-1.47,4.73-3.68A4.75,4.75,0,0,1,45.18,53Z" style="fill:#869156"/><ellipse cx="45.75" cy="38.51" rx="7.4" ry="6.54" style="fill:#8c9b57"/><ellipse cx="48.59" cy="31.68" rx="5.69" ry="8.25" style="fill:#8c9b57"/><ellipse cx="54.57" cy="37.37" rx="3.7" ry="4.27" style="fill:#8c9b57"/><ellipse cx="50.58" cy="47.89" rx="7.68" ry="10.24" style="fill:#8c9b57"/><path d="M46.32,43.91c-4.09,0-7.4-2.93-7.4-6.54a5.75,5.75,0,0,1,.28-1.77,6,6,0,0,0-.84,3c0,3.61,3.31,6.54,7.39,6.54a7.32,7.32,0,0,0,7.12-4.77A7.55,7.55,0,0,1,46.32,43.91Z" style="fill:#869156"/><path d="M50.94,37.71a5.86,5.86,0,0,0-1.19.13c3.55.9,6.24,5.06,6.24,10S53.17,57.24,49.49,58a5.82,5.82,0,0,0,1.45.19c4.24,0,7.68-4.59,7.68-10.24S55.18,37.71,50.94,37.71Z" style="fill:#82b650"/><path d="M48.59,23.43a4.07,4.07,0,0,0-1.42.27c2.45.92,4.27,4.14,4.27,8s-1.82,7.06-4.27,8a4.07,4.07,0,0,0,1.42.27c3.15,0,5.69-3.69,5.69-8.25S51.74,23.43,48.59,23.43Z" style="fill:#82b650"/><path d="M54.92,32.87a3,3,0,0,0-.85.12,4.45,4.45,0,0,1,0,8.3,3.35,3.35,0,0,0,.85.11,4,4,0,0,0,3.7-4.26A4,4,0,0,0,54.92,32.87Z" style="fill:#82b650"/><g style="opacity:0.1"><ellipse cx="82.13" cy="68.38" rx="13.37" ry="7.81" transform="translate(-12.67 19.04) rotate(-12.28)" style="fill:#161615"/></g><path d="M96,72.29c2.78,1.61,2.8,4.22,0,5.83a11.08,11.08,0,0,1-10.06,0c-2.79-1.61-2.8-4.22,0-5.83A11.11,11.11,0,0,1,96,72.29Z" style="fill:#617a42"/><rect x="89.53" y="63.54" width="1.71" height="11.95" style="fill:#552904"/><rect x="90.1" y="63.54" width="2.28" height="11.95" style="fill:#82592c"/><ellipse cx="87.82" cy="54.73" rx="5.69" ry="8.25" style="fill:#8c9b57"/><path d="M89,61.27c-3.14,0-5.69-3.7-5.69-8.25a11,11,0,0,1,1-4.57,10,10,0,0,0-2.08,6.38c0,4.56,2.55,8.25,5.69,8.25,2,0,3.71-1.46,4.73-3.68A4.73,4.73,0,0,1,89,61.27Z" style="fill:#869156"/><ellipse cx="89.53" cy="46.76" rx="7.4" ry="6.54" style="fill:#8c9b57"/><ellipse cx="92.37" cy="39.93" rx="5.69" ry="8.25" style="fill:#8c9b57"/><ellipse cx="98.35" cy="45.62" rx="3.7" ry="4.27" style="fill:#8c9b57"/><ellipse cx="94.37" cy="56.15" rx="7.68" ry="10.24" style="fill:#8c9b57"/><path d="M90.1,52.16c-4.09,0-7.4-2.92-7.4-6.54A6.18,6.18,0,0,1,83,43.85a6,6,0,0,0-.84,3c0,3.62,3.31,6.54,7.4,6.54a7.3,7.3,0,0,0,7.11-4.77A7.55,7.55,0,0,1,90.1,52.16Z" style="fill:#869156"/><path d="M94.72,46a5.86,5.86,0,0,0-1.19.13c3.55.9,6.24,5.06,6.24,10.06s-2.82,9.34-6.5,10.1a5.82,5.82,0,0,0,1.45.19c4.24,0,7.68-4.58,7.68-10.24S99,46,94.72,46Z" style="fill:#82b650"/><path d="M92.37,31.68A4.07,4.07,0,0,0,91,32c2.45.92,4.27,4.14,4.27,8S93.4,47,91,47.91a4.07,4.07,0,0,0,1.42.27c3.15,0,5.69-3.69,5.69-8.25S95.52,31.68,92.37,31.68Z" style="fill:#82b650"/><path d="M98.7,41.12a3.42,3.42,0,0,0-.85.12,4.45,4.45,0,0,1,0,8.3,3.42,3.42,0,0,0,.85.12,4,4,0,0,0,3.7-4.27A4,4,0,0,0,98.7,41.12Z" style="fill:#82b650"/></g></svg>