<svg xmlns="http://www.w3.org/2000/svg" xmlns:xlink="http://www.w3.org/1999/xlink" viewBox="0 0 120 120"><defs><clipPath id="a"><path d="M113.27,70.81l0,9.23c0-8-5.22-15.92-15.71-22-20.84-12-54.64-12-75.35,0C11.9,64,6.75,71.88,6.73,79.73l0-9.22c0-7.85,5.17-15.69,15.46-21.67,20.71-12,54.52-12,75.36,0C108.06,54.89,113.29,62.86,113.27,70.81Z" style="fill:none"/></clipPath><clipPath id="b"><path d="M117,70.82l0,9.23c0,8.41-5.53,16.8-16.55,23.2-22.18,12.89-58.36,12.89-80.68,0C8.55,96.77,2.94,88.24,3,79.72L3,70.5C3,79,8.57,87.55,19.8,94c22.32,12.89,58.51,12.88,80.69,0C111.5,87.63,117,79.23,117,70.82Z" style="fill:none"/></clipPath><clipPath id="c"><path d="M86.51,48.57l0,9.23c0-4-2.59-7.92-7.81-10.93-10.37-6-27.19-6-37.49,0-5.11,3-7.68,6.87-7.69,10.78l0-9.23c0-3.9,2.57-7.8,7.69-10.78,10.3-6,27.12-6,37.48,0C83.91,40.65,86.52,44.62,86.51,48.57Z" style="fill:none"/></clipPath><clipPath id="d"><path d="M90.28,48.59l0,9.23c0,4.46-2.94,8.91-8.78,12.31-11.77,6.83-31,6.83-42.82,0-6-3.44-8.94-8-8.93-12.48l0-9.23c0,4.52,3,9.05,8.92,12.49,11.85,6.84,31.06,6.84,42.82,0C87.34,57.51,90.26,53.05,90.28,48.59Z" style="fill:none"/></clipPath><clipPath id="e"><path d="M61.59,34.87l-.05,16.31a.76.76,0,0,1-.45.63,2.42,2.42,0,0,1-2.22,0,.75.75,0,0,1-.46-.64l.05-16.3a.78.78,0,0,0,.46.64,2.46,2.46,0,0,0,2.21,0A.79.79,0,0,0,61.59,34.87Z" style="fill:none"/></clipPath></defs><g style="isolation:isolate"><g style="clip-path:url(#a)"><path d="M113.27,70.81l0,9.23c0-8-5.22-15.92-15.71-22a58.22,58.22,0,0,0-7.66-3.67l0-9.22a56.36,56.36,0,0,1,7.66,3.67c10.49,6,15.72,14,15.7,22" style="fill:#7c7c7c"/><path d="M89.91,45.17l0,9.22c-2.08-.82-4.24-1.55-6.46-2.18l0-9.23c2.22.64,4.38,1.36,6.46,2.19" style="fill:#818181"/><path d="M83.45,43l0,9.23c-1.81-.52-3.67-1-5.56-1.36l0-9.23c1.89.39,3.74.85,5.56,1.36" style="fill:#868686"/><path d="M77.89,41.62l0,9.23q-2.61-.54-5.29-.92l0-9.23c1.78.26,3.55.56,5.29.92" style="fill:#8b8b8b"/><path d="M72.6,40.7l0,9.23c-1.71-.25-3.44-.44-5.19-.58l0-9.23c1.74.15,3.47.34,5.19.58" style="fill:#8f8f8f"/><path d="M67.41,40.12l0,9.23c-1.74-.15-3.5-.24-5.26-.28l0-9.23c1.76,0,3.51.14,5.26.28" style="fill:#949494"/><path d="M62.15,39.84l0,9.23c-1.82,0-3.65,0-5.47,0l0-9.22c1.82-.07,3.65-.07,5.48,0" style="fill:#999"/><path d="M56.67,39.87l0,9.22q-3,.1-5.93.4l0-9.23c2-.19,3.94-.33,5.92-.39" style="fill:#9e9e9e"/><path d="M50.75,40.26l0,9.23c-2.29.22-4.57.54-6.81.94l0-9.22q3.36-.6,6.81-1" style="fill:#a3a3a3"/><path d="M43.94,41.21l0,9.22a79,79,0,0,0-10.08,2.51l0-9.22a77.49,77.49,0,0,1,10.09-2.51" style="fill:#a7a7a7"/><path d="M33.85,43.72l0,9.22a60.14,60.14,0,0,0-11.64,5.12l-.65.38,0-9.22c.21-.13.42-.26.64-.38a59.81,59.81,0,0,1,11.64-5.12" style="fill:#acacac"/><path d="M21.57,49.22l0,9.22a40.71,40.71,0,0,0-6.72,5l0-9.22a41.23,41.23,0,0,1,6.73-5" style="fill:#a7a7a7"/><path d="M14.84,54.2l0,9.22A31.07,31.07,0,0,0,11.51,67l0-9.22a31,31,0,0,1,3.3-3.55" style="fill:#a3a3a3"/><path d="M11.54,57.75l0,9.22a25,25,0,0,0-2.14,3.19l0-9.23a25,25,0,0,1,2.14-3.18" style="fill:#9e9e9e"/><path d="M9.4,60.93l0,9.23a21.79,21.79,0,0,0-1.42,3L8,64a21.45,21.45,0,0,1,1.43-3" style="fill:#999"/><path d="M8,64l0,9.22a19.68,19.68,0,0,0-.86,3l0-9.23A19.25,19.25,0,0,1,8,64" style="fill:#949494"/><path d="M7.11,67l0,9.23a16.79,16.79,0,0,0-.35,3.06l0-9.22A18.75,18.75,0,0,1,7.11,67" style="fill:#8f8f8f"/><path d="M6.76,70l0,9.22c0,.16,0,.32,0,.47l0-9.22c0-.16,0-.31,0-.47" style="fill:#8b8b8b"/></g></g><path d="M97.89,55.62c21.06,12.16,21.16,31.87.24,44s-55,12.16-76,0S1,67.78,21.87,55.62,76.82,43.46,97.89,55.62Z" style="fill:#6cb2c4"/><g style="isolation:isolate"><g style="clip-path:url(#b)"><path d="M117,70.82l0,9.23v.5l0-9.22c0-.17,0-.34,0-.51" style="fill:#8b8b8b"/><path d="M117,71.33l0,9.22a20.23,20.23,0,0,1-.38,3.28l0-9.22a20.34,20.34,0,0,0,.37-3.28" style="fill:#8f8f8f"/><path d="M116.66,74.61l0,9.22a21,21,0,0,1-.92,3.22l0-9.22a21.34,21.34,0,0,0,.93-3.22" style="fill:#949494"/><path d="M115.73,77.83l0,9.22a22.23,22.23,0,0,1-1.53,3.25l0-9.22a23.79,23.79,0,0,0,1.52-3.25" style="fill:#999"/><path d="M114.21,81.08l0,9.22a26.41,26.41,0,0,1-2.29,3.41l0-9.23a26.41,26.41,0,0,0,2.3-3.4" style="fill:#9e9e9e"/><path d="M111.91,84.48l0,9.23a32.78,32.78,0,0,1-3.54,3.8l0-9.22a32,32,0,0,0,3.53-3.81" style="fill:#a3a3a3"/><path d="M108.38,88.29l0,9.22a44.25,44.25,0,0,1-7.2,5.33l0-9.22a44.25,44.25,0,0,0,7.2-5.33" style="fill:#a7a7a7"/><path d="M101.18,93.62l0,9.22-.69.41A64,64,0,0,1,88,108.73l0-9.22A64.84,64.84,0,0,0,100.49,94l.69-.41" style="fill:#acacac"/><path d="M88,99.51l0,9.22a81.18,81.18,0,0,1-10.8,2.69l0-9.22A82.75,82.75,0,0,0,88,99.51" style="fill:#a7a7a7"/><path d="M77.22,102.2l0,9.22c-2.39.43-4.83.77-7.29,1l0-9.23q3.69-.36,7.29-1" style="fill:#a3a3a3"/><path d="M69.93,103.21l0,9.23c-2.1.21-4.22.35-6.34.42l0-9.22c2.12-.08,4.24-.22,6.34-.43" style="fill:#9e9e9e"/><path d="M63.59,103.64l0,9.22c-2,.07-3.91.08-5.86,0l0-9.23c2,0,3.91,0,5.86,0" style="fill:#999"/><path d="M57.73,103.66l0,9.23c-1.88,0-3.76-.15-5.63-.3l0-9.23q2.8.24,5.64.3" style="fill:#949494"/><path d="M52.09,103.36l0,9.23c-1.87-.16-3.72-.36-5.56-.63l0-9.22c1.83.26,3.69.47,5.55.62" style="fill:#8f8f8f"/><path d="M46.54,102.74l0,9.22c-1.91-.27-3.8-.59-5.66-1l0-9.22q2.81.57,5.67,1" style="fill:#8b8b8b"/><path d="M40.87,101.76l0,9.22c-2-.42-4-.9-6-1.46l0-9.22q2.92.83,5.95,1.46" style="fill:#868686"/><path d="M34.92,100.3l0,9.22c-2.38-.68-4.69-1.45-6.92-2.33L28,98c2.23.88,4.55,1.66,6.92,2.34" style="fill:#818181"/><path d="M28,98l0,9.23a61.47,61.47,0,0,1-8.2-3.94C8.55,96.77,2.94,88.24,3,79.72L3,70.5C3,79,8.57,87.55,19.8,94A62.63,62.63,0,0,0,28,98" style="fill:#7c7c7c"/></g></g><path d="M100.21,47.29c22.32,12.89,22.44,33.85.26,46.74s-58.36,12.89-80.68,0-22.44-33.85-.26-46.74S77.9,34.41,100.21,47.29ZM22.44,92.49c20.85,12,54.65,12,75.36,0s20.6-31.61-.25-43.64-54.64-12-75.35,0-20.59,31.61.24,43.65" style="fill:#cecece"/><g style="isolation:isolate"><g style="clip-path:url(#c)"><path d="M86.51,48.57l0,9.23c0-4-2.59-7.92-7.81-10.93A28.5,28.5,0,0,0,74.86,45l0-9.22a27.89,27.89,0,0,1,3.81,1.82c5.22,3,7.83,7,7.82,10.93" style="fill:#7c7c7c"/><path d="M74.88,35.82l0,9.22A32.86,32.86,0,0,0,71.64,44l0-9.23c1.11.32,2.18.68,3.21,1.09" style="fill:#818181"/><path d="M71.67,34.73l0,9.23c-.9-.26-1.82-.49-2.76-.68l0-9.23c.93.2,1.86.42,2.76.68" style="fill:#868686"/><path d="M68.91,34.05l0,9.23c-.87-.18-1.74-.33-2.63-.46l0-9.22c.88.12,1.76.27,2.63.45" style="fill:#8b8b8b"/><path d="M66.28,33.6l0,9.22c-.85-.12-1.72-.22-2.58-.29l0-9.22c.87.07,1.73.16,2.59.29" style="fill:#8f8f8f"/><path d="M63.69,33.31l0,9.22c-.87-.07-1.75-.12-2.62-.14l0-9.22c.88,0,1.75.07,2.62.14" style="fill:#949494"/><path d="M61.07,33.17l0,9.22c-.91,0-1.82,0-2.72,0l0-9.22c.91,0,1.82,0,2.72,0" style="fill:#999"/><path d="M58.35,33.18l0,9.22c-1,0-2,.1-2.95.2l0-9.22c1-.1,2-.17,3-.2" style="fill:#9e9e9e"/><path d="M55.4,33.38l0,9.22c-1.14.11-2.27.27-3.39.47l0-9.22c1.11-.2,2.24-.36,3.38-.47" style="fill:#a3a3a3"/><path d="M52,33.85l0,9.22a38.36,38.36,0,0,0-5,1.25l0-9.22a38.36,38.36,0,0,1,5-1.25" style="fill:#a7a7a7"/><path d="M47,35.1l0,9.22a30,30,0,0,0-5.79,2.55l-.32.19,0-9.23.32-.19A29.75,29.75,0,0,1,47,35.1" style="fill:#acacac"/><path d="M40.89,37.83l0,9.23a20.38,20.38,0,0,0-3.34,2.47l0-9.22a20.36,20.36,0,0,1,3.35-2.48" style="fill:#a7a7a7"/><path d="M37.54,40.31l0,9.22a16.83,16.83,0,0,0-1.65,1.77l0-9.22a15,15,0,0,1,1.64-1.77" style="fill:#a3a3a3"/><path d="M35.9,42.08l0,9.22a13.63,13.63,0,0,0-1.06,1.58l0-9.22a12.2,12.2,0,0,1,1.07-1.58" style="fill:#9e9e9e"/><path d="M34.83,43.66l0,9.22a11.41,11.41,0,0,0-.71,1.51l0-9.22a10.77,10.77,0,0,1,.7-1.51" style="fill:#999"/><path d="M34.13,45.17l0,9.22a9.4,9.4,0,0,0-.43,1.5l0-9.23a9,9,0,0,1,.43-1.49" style="fill:#949494"/><path d="M33.7,46.66l0,9.23a8.73,8.73,0,0,0-.17,1.52l0-9.22a10,10,0,0,1,.18-1.53" style="fill:#8f8f8f"/><path d="M33.52,48.19l0,9.22a1.93,1.93,0,0,0,0,.24l0-9.23v-.23" style="fill:#8b8b8b"/></g></g><g style="opacity:0.1"><path d="M82.41,46c12.47,7.19,12.54,18.86.16,26.05s-32.53,7.2-45,0-12.53-18.86-.15-26S70,38.8,82.41,46Z" style="fill:#161615"/></g><ellipse cx="60" cy="55.57" rx="16.44" ry="28.39" transform="translate(4.26 115.41) rotate(-89.84)" style="fill:#6cb2c4"/><g style="isolation:isolate"><g style="clip-path:url(#d)"><path d="M90.28,48.59l0,9.23v.26l0-9.22c0-.09,0-.18,0-.27" style="fill:#8b8b8b"/><path d="M90.27,48.86l0,9.22a11.31,11.31,0,0,1-.2,1.74l0-9.22a10.31,10.31,0,0,0,.2-1.74" style="fill:#8f8f8f"/><path d="M90.07,50.6l0,9.22a11.48,11.48,0,0,1-.49,1.71l0-9.22a11,11,0,0,0,.49-1.71" style="fill:#949494"/><path d="M89.58,52.31l0,9.22a12.85,12.85,0,0,1-.81,1.73l0-9.23a12.73,12.73,0,0,0,.81-1.72" style="fill:#999"/><path d="M88.77,54l0,9.23a15.13,15.13,0,0,1-1.22,1.81l0-9.23A14.27,14.27,0,0,0,88.77,54" style="fill:#9e9e9e"/><path d="M87.56,55.84l0,9.23a16.69,16.69,0,0,1-1.88,2l0-9.22a18.47,18.47,0,0,0,1.88-2" style="fill:#a3a3a3"/><path d="M85.68,57.86l0,9.22a23.28,23.28,0,0,1-3.81,2.83l0-9.23a22.93,22.93,0,0,0,3.82-2.82" style="fill:#a7a7a7"/><path d="M81.86,60.68l0,9.23-.37.22A34.08,34.08,0,0,1,74.86,73l0-9.22a34.1,34.1,0,0,0,6.61-2.91l.37-.22" style="fill:#acacac"/><path d="M74.88,63.81l0,9.22a44,44,0,0,1-5.73,1.43l0-9.22a45.27,45.27,0,0,0,5.73-1.43" style="fill:#a7a7a7"/><path d="M69.15,65.24l0,9.22q-1.92.35-3.87.54l0-9.23c1.31-.13,2.6-.31,3.87-.53" style="fill:#a3a3a3"/><path d="M65.28,65.77l0,9.23c-1.12.11-2.24.18-3.37.22l0-9.22c1.13,0,2.25-.12,3.36-.23" style="fill:#9e9e9e"/><path d="M61.92,66l0,9.22c-1,0-2.07,0-3.11,0l0-9.23c1,0,2.07,0,3.11,0" style="fill:#999"/><path d="M58.81,66l0,9.23c-1,0-2-.08-3-.16l0-9.23c1,.08,2,.14,3,.16" style="fill:#949494"/><path d="M55.82,65.85l0,9.23c-1-.08-2-.19-2.95-.33l0-9.23c1,.14,2,.25,3,.33" style="fill:#8f8f8f"/><path d="M52.87,65.52l0,9.23c-1-.15-2-.32-3-.53l0-9.22c1,.2,2,.38,3,.52" style="fill:#8b8b8b"/><path d="M49.86,65l0,9.22c-1.07-.22-2.12-.48-3.16-.77l0-9.22c1,.29,2.09.55,3.16.77" style="fill:#868686"/><path d="M46.7,64.23l0,9.22A38.55,38.55,0,0,1,43,72.21L43,63c1.18.46,2.41.88,3.67,1.24" style="fill:#818181"/><path d="M43,63l0,9.22a33,33,0,0,1-4.35-2.09c-6-3.44-8.94-8-8.93-12.48l0-9.23c0,4.52,3,9.05,8.92,12.49A34.4,34.4,0,0,0,43,63" style="fill:#7c7c7c"/></g></g><path d="M81.34,36.1c11.84,6.84,11.91,18,.14,24.8s-31,6.84-42.82,0-11.9-18-.14-24.8S69.49,29.26,81.34,36.1Zm-40,23.26c10.37,6,27.18,6,37.48,0s10.25-15.72-.12-21.71-27.18-6-37.49,0S31,53.37,41.32,59.36" style="fill:#cecece"/><path d="M58.1,31.42a76.2,76.2,0,0,0-6.73-8,25.57,25.57,0,0,0-8.29-6.1,9.62,9.62,0,0,0-4.92-.73,8.28,8.28,0,0,0-2.39.68,10.72,10.72,0,0,0-2.12,1.35A23.08,23.08,0,0,0,27.81,27c-2.89,6.31-4.52,13.16-5.89,20-.68,3.43-1.24,6.88-1.72,10.35S19.3,64.24,19,67.73a159.74,159.74,0,0,1,2.2-20.92c.58-3.46,1.35-6.9,2.26-10.3a66.34,66.34,0,0,1,3.49-10,23.94,23.94,0,0,1,6.17-8.66,11.54,11.54,0,0,1,2.32-1.44,9.1,9.1,0,0,1,2.65-.74,10,10,0,0,1,5.32.88,26,26,0,0,1,8.36,6.48A66.92,66.92,0,0,1,58.1,31.42Z" style="fill:#8fd9ea"/><g style="isolation:isolate"><g style="isolation:isolate"><g style="clip-path:url(#e)"><g style="isolation:isolate"><path d="M61.59,34.87l-.05,16.31h0l.05-16.3v0" style="fill:#777"/><path d="M61.59,34.89l-.05,16.3a.28.28,0,0,1,0,.09l0-16.3a.28.28,0,0,1,0-.09" style="fill:#7c7c7c"/><path d="M61.58,35l0,16.3,0,.09,0-16.3,0-.09" style="fill:gray"/><path d="M61.55,35.07l0,16.3a.36.36,0,0,1,0,.09l0-16.3,0-.09" style="fill:#848484"/><path d="M61.51,35.16l0,16.3-.06.09.05-16.3.06-.09" style="fill:#888"/><path d="M61.45,35.25l-.05,16.3-.1.11.05-16.31.1-.1" style="fill:#8c8c8c"/><path d="M61.35,35.35,61.3,51.66a.78.78,0,0,1-.2.14l0-16.3.2-.15" style="fill:#909090"/><path d="M61.15,35.5l0,16.3h0a1.84,1.84,0,0,1-.35.15l0-16.3a1.75,1.75,0,0,0,.34-.15h0" style="fill:#949494"/><path d="M60.79,35.66l0,16.3a1.38,1.38,0,0,1-.29.08l0-16.3.3-.08" style="fill:#909090"/><path d="M60.49,35.74l0,16.3-.2,0,0-16.31.2,0" style="fill:#8c8c8c"/><path d="M60.29,35.76l0,16.31h-.18l0-16.31h.17" style="fill:#888"/><path d="M60.12,35.77l0,16.31h-.16L60,35.78h.16" style="fill:#848484"/><path d="M60,35.78l-.05,16.3h-.15l0-16.3H60" style="fill:gray"/><path d="M59.8,35.77l0,16.3-.16,0,0-16.3.15,0" style="fill:#7c7c7c"/><path d="M59.65,35.75l0,16.3-.15,0,0-16.31.15,0" style="fill:#777"/><path d="M59.5,35.72l0,16.31-.16,0,0-16.31.17,0" style="fill:#737373"/><path d="M59.33,35.68l0,16.31-.19-.07,0-16.3.19.06" style="fill:#6f6f6f"/><path d="M59.14,35.62l0,16.3-.23-.11a.75.75,0,0,1-.46-.64l.05-16.3a.78.78,0,0,0,.46.64,1.51,1.51,0,0,0,.22.11" style="fill:#6b6b6b"/></g></g></g><path d="M61.12,34.23a.67.67,0,0,1,0,1.28,2.46,2.46,0,0,1-2.21,0c-.62-.35-.61-.92,0-1.28A2.41,2.41,0,0,1,61.12,34.23Z" style="fill:#b2b2b2"/></g><path d="M60.46,31.89a45.12,45.12,0,0,1,6.36-8.6A19.67,19.67,0,0,1,71.07,20a10.82,10.82,0,0,1,5.25-1.52,10.1,10.1,0,0,1,5.28,1.49,18.35,18.35,0,0,1,4.18,3.51,42.91,42.91,0,0,1,6,9,116,116,0,0,1,7.5,20.07,180.32,180.32,0,0,1,4.59,20.9c-.75-3.49-1.55-7-2.46-10.4s-1.82-6.88-2.86-10.28a122.63,122.63,0,0,0-7.66-19.83,41.67,41.67,0,0,0-5.76-8.83,17.34,17.34,0,0,0-3.94-3.37,9.62,9.62,0,0,0-4.84-1.47,9.94,9.94,0,0,0-4.94,1.3,19.41,19.41,0,0,0-4.22,3.13A48.54,48.54,0,0,0,60.46,31.89Z" style="fill:#8fd9ea"/><path d="M60.46,32.84c.53-3.52,1.18-7,2-10.47a23.87,23.87,0,0,1,1.78-5.09,3.31,3.31,0,0,1,.94-1.14,1.09,1.09,0,0,1,.91-.16,1.48,1.48,0,0,1,.69.5A7.66,7.66,0,0,1,68,19a65.81,65.81,0,0,1,1.83,10.55c.4,3.54.7,7.09,1,10.63q.66,10.65.91,21.3c.15,7.11.22,14.21.09,21.32l-.86-21.29c-.32-7.09-.62-14.19-1.14-21.26-.22-3.54-.49-7.08-.86-10.6a74.2,74.2,0,0,0-1.67-10.44,6.91,6.91,0,0,0-1-2.3c-.26-.31-.44-.4-.71-.23a2.77,2.77,0,0,0-.74.89A23.27,23.27,0,0,0,63,22.49C62,25.89,61.22,29.37,60.46,32.84Z" style="fill:#8fd9ea"/><path d="M59.51,31.89c-1.35-4.5-2.74-9-4.49-13.36a50.25,50.25,0,0,0-2.92-6.37,18.89,18.89,0,0,0-1.92-2.87,4.77,4.77,0,0,0-2.63-1.8A3.11,3.11,0,0,0,45,9a13.23,13.23,0,0,0-1.69,3,42.79,42.79,0,0,0-2.19,6.62c-1.16,4.53-2,9.16-2.68,13.8C36.94,41.61,36,51,35.18,60.33c-.43,4.69-.79,9.37-1.13,14.07s-.65,9.38-.94,14.08c.16-9.41.63-18.82,1.3-28.21s1.62-18.76,3-28.09c.74-4.66,1.58-9.3,2.78-13.88a44.19,44.19,0,0,1,2.28-6.74,13.39,13.39,0,0,1,1.84-3.13A3.77,3.77,0,0,1,45,7.74a3.46,3.46,0,0,1,.77-.58,3.06,3.06,0,0,1,1.93-.43,5.37,5.37,0,0,1,3.06,2.11,19.36,19.36,0,0,1,1.94,3,48.58,48.58,0,0,1,2.83,6.5A139.92,139.92,0,0,1,59.51,31.89Z" style="fill:#8fd9ea"/><rect width="120" height="120" style="fill:#fff;opacity:0"/></svg>