<svg xmlns="http://www.w3.org/2000/svg" viewBox="0 0 120 120"><polygon points="91.92 3.35 92.14 79.51 28.09 116.49 27.87 40.33 91.92 3.35" style="fill:#658d3e"/><polygon points="91.92 3.35 92.14 79.51 28.09 116.49 27.87 40.33 91.92 3.35" style="fill:#658d3e"/><g style="isolation:isolate"><polygon points="95.66 81.56 31.61 118.53 24.56 114.44 88.61 77.46 95.66 81.56" style="fill:#60873b"/><polygon points="95.44 5.4 95.66 81.56 88.61 77.46 88.4 1.3 95.44 5.4" style="fill:#3c5425"/><polygon points="31.61 118.53 24.56 114.44 24.35 38.28 31.39 42.38 31.61 118.53" style="fill:#3c5425"/><polygon points="31.39 42.38 24.35 38.28 88.4 1.3 95.44 5.4 31.39 42.38" style="fill:#60873b"/></g><polygon points="54.84 88.38 54.04 88.95 57.09 91.04 56.25 92.04 52.71 90.31 52.22 90.81 53.01 93.43 51.61 92.93 51.4 94.83 49.99 93.89 49.42 95.5 48.31 95.23 47.02 92.83 46.25 94.47 45.3 96.39 44.31 95.26 43.37 94.76 42.03 96.7 41.72 93.4 40.22 95.12 38.7 96.06 39.18 92.57 37.37 93.79 35.54 94.36 34.75 93.35 35.97 90.89 33.68 90.96 32.67 89.85 34.09 88.38 32.53 86.87 37.34 87.5 34.91 85.1 35.61 84.23 35.84 82.77 38.98 85.5 39.27 84.37 40.17 84.26 40.68 83.06 40.93 80.24 42.15 80.72 43.6 83.99 44.41 83.23 45.3 79.22 46.26 82.13 47.18 82.52 48.06 82.89 48.88 83.39 50.66 80.82 50.12 85.05 52.84 81.45 52.4 84.3 53.98 83.76 55.75 83.52 56.76 84.36 54.89 86.75 53.53 87.92 54.84 88.38" style="fill:#84c935"/><polygon points="63.82 76.6 62.51 77.46 62.8 78.56 61.25 78.67 61.41 79.95 60.66 80.54 61.28 83.29 59.08 81.6 59.12 84.22 57.03 81.51 56.72 83.95 55.75 84.54 54.39 82.22 53.39 80.9 52.54 85.39 51.64 81.93 50.3 85.59 49.78 82.11 49.16 80.79 48.48 80.18 46.31 83.37 45.5 82.58 45.58 80.47 44.6 80.3 43.44 80.16 41.66 80.22 42.16 78.61 41.97 77.6 43.36 76.6 42.51 75.73 40.81 73.97 42.94 73.89 44.06 73.63 42.7 70.52 44.77 71.44 46.91 73.37 47.59 72.93 48.21 72.18 48.68 70.49 49.85 71.52 50.65 70.66 51.64 71.39 52.54 70.97 53.67 67.46 54.73 68.09 55.9 67.81 56.09 71.75 57.35 70.73 57.76 72.28 58.37 72.99 61.17 70.1 62.25 70.68 61 73.66 60.77 74.87 63.46 74.35 63.25 75.58 63.82 76.6" style="fill:#85b52a"/><polygon points="67.7 90.6 67.45 91.68 67.03 92.66 64.18 91.92 65.83 94.36 65.52 95.62 63.4 94.33 63.97 97.35 62.87 97.62 61.39 96.61 60.12 95.58 59.91 99.41 58.34 95.82 57.56 97.91 56.54 96.11 55.63 96.14 54.52 97.75 53.34 98.52 52.69 96.67 52.21 95.01 49.97 98.2 50.85 93.94 48.15 96.73 48.51 94.42 48.48 93.16 48.01 92.55 44.49 93.38 44.2 92 46.4 90.6 47.25 89.9 45.87 88.46 48.41 88.94 47.31 86.91 48.87 87.23 50.34 87.92 49.64 84.89 50.63 84.61 51.42 83.77 53.16 86.4 54.02 86.4 54.35 82.12 55.62 85 56.54 85.26 57.42 85.63 58.45 84.42 59.33 84.91 60.51 84.05 60.73 86.61 61.81 86.18 63.05 85.67 64.99 84.39 65.42 85.73 66.32 86.38 64.21 89.27 68.5 87.86 65.09 90.07 67.7 90.6" style="fill:#a9ef3a"/><polygon points="77.27 85.17 78.2 86.29 75.17 86.1 76.68 87.86 76.33 88.86 75.69 89.69 75.82 91.81 74.14 91.14 72.47 89.83 71.79 90.64 70.96 91.22 70.32 93.14 68.86 89.96 68.19 93.48 67.11 93.8 66.1 92.44 65.11 92.15 63.97 92.77 63.38 90.79 62.38 90.8 61.4 90.68 59.33 92.6 60.79 88.05 57.33 91.18 57.79 88.95 58.91 86.88 55.86 87.58 55.51 86.41 54.59 85.17 55.87 84.02 57.55 83.55 59.48 83.86 58.6 82.17 57.45 79.31 60.51 81.86 61.46 81.9 60.52 77.52 63.05 81.58 63.59 80.41 64.19 78.8 65.39 80.57 66.24 80.42 67.11 79.17 68.02 79.83 68.86 80.41 70.42 76.64 71.31 77.73 72.01 79.03 72.25 81.06 74.14 79.23 73.67 81.93 76.85 79.22 75.38 82.42 75.29 83.48 78.83 82.55 79.18 83.83 77.27 85.17" style="fill:#7ebc1d"/><polygon points="80.22 73.75 80.14 75.05 78.48 75.68 77.26 76.03 77.71 77.66 75.19 76.19 76.22 79.21 75.42 79.97 74.97 81.69 73.61 81.3 72.65 81.99 71.62 82.55 70.43 82.1 69.32 81.76 68.25 79.14 67.42 77.92 66.1 81.96 65.45 79.51 64.34 80.07 64 77.92 63.3 77.4 61.07 80 60.07 79.54 60.22 77.57 59.97 76.53 58.98 76.22 56.09 76.58 56.99 74.9 59.55 73.75 58.04 72.83 60.07 72.76 58.96 71.26 60.51 71.49 59.77 69.35 60.85 69.17 62.41 70.1 62.32 67.69 63.32 67.49 64.94 69.83 65.67 69.23 66.07 65.28 67.14 64.79 68.25 65.87 69.32 65.57 70.06 68.5 71.53 65.38 72.52 66.02 73.42 66.78 73.92 68.35 74.45 69.42 76.92 67.2 76.06 70.21 75.51 71.97 78.06 70.9 80.69 70.79 81.07 72.23 80.22 73.75" style="fill:#5e9319"/><polygon points="72.56 65.17 75.42 66.7 73.72 67.56 73.18 68.62 73.13 70.19 69.37 67.49 70.09 69.98 70.14 72.24 69.24 73.09 67.98 72.98 66.42 71.36 65.32 70.76 64.63 72.82 63.66 74.26 62.54 69.65 61.45 73.7 60.41 73.25 59.48 72.32 58.98 70.08 57.26 72.51 56.46 71.59 55.63 70.89 55.53 69.13 53.43 70.34 54.05 68.15 53.87 67.22 52.03 67.24 50.18 66.58 49.59 65.17 52.88 64.39 51.04 62.64 51.6 61.51 54.46 62.59 54.46 61.28 54.83 60.11 56.06 60.29 55.85 57.29 58.43 61.43 58.68 59.08 59.91 60.37 60.37 56.84 61.58 58.94 62.54 58.42 63.53 58.31 64.44 59.11 65.06 61.01 66.37 59.17 67.73 58.13 68.8 58.33 68.13 62.04 69.46 61.36 69.41 62.81 73.01 60.28 70.82 63.41 71.21 63.97 70.91 64.68 72.56 65.17" style="fill:#a9ef3a"/><polygon points="66.59 70.6 64.06 71.03 67.01 72.92 63.77 72.03 63.17 72.33 62.97 73.13 62.93 74.49 63.36 77.26 61.16 74.86 60.81 76.58 60.32 78.66 58.65 75.66 57.94 77.25 56.98 77.66 55.97 75.1 54.89 78.92 53.73 79.52 53.31 75.53 52.08 76.83 50.7 77.88 50.84 74.69 49.67 75.14 48.31 75.57 46.17 76.63 48.73 72.37 46.13 73.47 43.78 73.45 46.81 71.27 45.37 70.6 45.7 69.67 45.6 68.6 44.34 66.45 45.58 65.78 47.45 66.17 47.5 64.34 49.37 65.47 51 66.9 51.84 66.82 52.06 64.32 53.27 65.47 53.8 62.3 54.93 62.91 55.97 65.55 56.93 64.23 57.85 64.7 58.67 65.42 59.77 64.75 60.2 66.5 60.8 67.25 63.09 64.48 64.05 64.96 65.7 64.66 66.76 65.41 64.22 68.86 64.7 69.37 65.7 69.8 66.59 70.6" style="fill:#98d844"/><polygon points="58.33 64.03 59.79 64.99 60.53 66.39 60.14 67.56 59.24 68.33 58.92 69.73 58.05 70.57 55.75 68.66 55.78 71.16 54.94 72.16 53.34 70.45 52.26 70.09 51.25 69.68 50.25 68.4 49.4 71.27 48.3 72.74 47.33 71.5 46.78 68.77 45.55 70.08 44.98 68.7 43.59 69.76 43.54 67.69 41.04 70.1 40.69 68.7 40.24 67.65 38.87 67.39 37.65 66.67 36.9 65.47 37.92 64.03 38.24 62.9 39.05 62.04 38.44 60.35 41.67 61.79 39.66 58.07 40.95 57.81 43.08 59.47 42.83 56.44 44.72 58.56 45.07 56.07 46.72 58.97 47.52 58.19 48.34 56.12 49.4 56.73 50.47 55.81 51.47 56.54 52.46 56.85 53.73 56.02 54.74 56.5 55.88 56.64 55.64 59.62 55.77 61.08 56.5 61.37 59.35 59.64 60.48 60.28 58.9 62.43 60.65 62.88 58.33 64.03" style="fill:#7ebc1d"/><polygon points="47.6 77.17 47.62 77.76 47.32 78.3 49.01 80.3 46.16 79.03 46.74 80.86 45.77 81.04 44.69 80.85 44.43 82.43 43.59 82.9 43.28 85.66 41.69 83.21 40.68 82.83 39.92 85.68 38.83 83.63 37.84 83.87 37.11 81.71 35.52 85.68 34.45 85.37 33.43 84.86 33.1 82.73 31.78 83.16 32.51 80.04 29.77 82.27 30.17 80.31 30.26 79.14 29.82 78.54 29 78 28.4 77.17 30.17 76.62 29.74 75.77 28.11 73.67 28.69 72.6 31.84 74.66 32.05 73.58 31.59 70.81 32.63 70.48 33.24 68.91 35.16 71.86 36.04 71.52 37.14 72.92 37.92 71.8 38.83 72.79 39.88 69.34 40.84 70.11 41.79 70.57 42.65 71.21 43.26 72.44 45.01 70.53 46.3 70.36 46.41 72.33 47.39 72.69 46.88 74.62 46.59 75.77 48.45 75.52 48.91 76.29 47.6 77.17" style="fill:#a9ef3a"/><polygon points="90.53 77.17 91.74 78.71 89.22 79.19 89.49 80.64 88.51 81.31 87.08 81.27 85.47 80.56 86.56 84.51 84.72 83.14 83.23 81.82 82.92 84.22 82.21 86.09 80.94 85.04 79.7 81.89 78.83 82.14 77.84 83.99 76.57 86.25 75.54 85.59 74.81 83.92 74.65 81.12 73.92 80.74 72.22 82.3 71.2 82.1 68.98 83.26 70.79 79.71 68.02 80.73 67.3 79.71 70.66 77.62 70.11 77.17 68.92 76.33 68.24 75.07 70.14 75.12 68.44 72.35 69.31 71.49 71.73 73.08 71.13 69.91 72.57 70.33 74.75 73.53 74.62 69.69 76.06 71.64 76.8 70.04 77.83 70.24 78.83 71.66 79.95 68.09 80.5 73.01 81.38 72.8 83.02 69.75 83.94 70.37 84.6 71.52 85.73 71.46 85.83 73.23 86.7 73.55 89.37 72.21 86.69 75.7 87.61 75.91 87.25 76.67 90.53 77.17" style="fill:#98d844"/><polygon points="94.72 71.75 93.51 72.77 93.9 74.08 92.71 74.66 90.34 73.78 92.02 77.02 89.9 75.8 88.97 75.97 89.31 79.13 88.31 79.68 87.28 80.19 85.33 75.81 84.72 77.78 83.76 77.61 82.83 77.39 81.76 79.95 80.98 77.39 80.05 77.37 79.55 75.54 78.47 76.24 76.44 78.9 76.31 76.69 75.25 76.6 73.22 77.54 74.75 74.32 74.42 73.6 73.84 73.1 72.54 72.67 74.63 71.75 70.4 70.32 70.73 68.94 71.35 67.7 72.98 67.44 74.02 66.95 76.35 68.63 76.2 66.57 77 65.94 77.74 65.01 78.57 64.08 79.95 65.62 81.08 66.99 81.79 64.14 82.83 64.67 83.85 64.34 84.78 65.23 86.14 63.22 86.28 67.28 87.1 67.51 87.91 67.78 88.68 68.1 89.17 68.84 91.15 67.56 93.47 66.69 91.47 69.72 93.13 69.78 91.24 71.25 94.72 71.75" style="fill:#5e9319"/><polygon points="89.67 61.46 89.45 61.88 93.78 64.4 91.07 64.22 88.86 63.45 89.52 65.39 88.36 65.34 88.49 67.55 87 66.69 85.87 66.29 85.09 66.87 84.11 66.68 83.23 66.91 82.31 66.9 81.4 65.9 80.53 66.25 79.55 67.14 78.74 66.4 77.7 66.91 76.06 68.98 75.24 68.06 74.17 67.81 73.39 66.99 74.46 63.91 71.64 65.66 70.55 65.05 69.17 64.32 70.65 62.5 71.82 61.46 70.86 60.47 70.08 59.01 72.79 59.46 71.1 56.73 74.27 58.77 73.31 55.8 75.15 57.02 74.84 53.89 76.84 56.35 77.93 56.91 78.62 55.89 79.45 54.98 80.45 55.42 81.4 55.11 82.35 55.35 83.5 53.71 84.02 56.73 85.37 54.89 85.95 56.37 87.04 56.12 88.75 54.88 88.49 57.38 89.18 57.96 89.63 58.73 90.35 59.21 91.48 59.59 90.01 60.91 89.67 61.46" style="fill:#a9ef3a"/><polygon points="85.48 56.6 85.05 57.91 83.21 58.48 83.82 60.1 82.42 60.37 81.77 61.21 80.41 61.01 80.84 63.94 78.11 60.39 77.77 62.02 77.06 63.05 76.45 65.27 75.36 65.62 74.13 63.84 73.11 63.88 72.25 61.23 70.9 65.35 69.87 64.78 69.06 63.47 68.87 60.74 66.99 63.11 65.81 63.09 65.7 61.19 63.86 61.95 65.71 58.52 63.47 59.34 61.14 59.35 63.63 57.35 65.01 56.6 61.51 55.37 64.86 55.58 65.25 55.13 64.37 53.38 65.2 52.93 66.11 52.65 65.77 50.03 68.06 52.69 68.93 52.65 68.64 48.06 70.12 49.84 70.89 47.84 72.24 51.8 73.11 49.87 74.11 49.73 74.9 51.46 75.99 50.44 77.15 49.79 77.93 50.69 79.53 49.37 78.63 53.61 79.57 53.52 81.19 52.73 80.5 54.7 82.51 54.05 84.63 54.07 83.83 55.57 85.48 56.6" style="fill:#7ebc1d"/><polygon points="57.53 97.83 54.26 98.47 54 99.08 53.72 99.75 55.72 102.75 52.65 100.88 53.67 104.03 51.48 102.26 50.76 102.9 50.59 105.36 48.52 101.64 48.08 103.78 47.11 103.69 46.19 103.92 45.24 104.48 44.3 103.68 43.25 104.67 42.32 104.21 41 105.45 40.03 104.94 39.7 102.92 38.57 103.08 38.28 101.7 37.43 101.36 36.83 100.72 35.3 100.77 33.56 100.44 32.38 99.35 32.32 97.83 36.22 97.19 33.62 95.25 35.42 94.97 35.67 93.8 36.77 93.47 37.29 92.41 39.74 94.86 39.92 93.27 40.82 93.16 41.1 90.64 42.67 93.43 43.06 89.48 44.15 89.33 45.24 88.8 46.22 91.07 47.2 91.16 48.02 92.17 49.11 91.66 49.93 92.31 51.49 91 52.55 91.33 51.91 94.4 54.88 92 53.43 95.15 54.12 95.64 53.51 96.81 56.02 96.79 57.53 97.83" style="fill:#84c935"/><polygon points="49.28 91.26 50.18 92.08 50.93 93.35 48.36 92.82 47.85 93.26 49.56 96.53 48.94 97.66 46.56 95.57 45.95 96.44 44.45 94.86 44.26 97.45 43.41 98.25 42.44 98.67 41.22 95.42 40.38 96.75 39.27 100.06 38.24 99.36 37.04 99.92 36.23 98.5 35.71 96.72 34.84 96.36 34.76 94.46 31.7 97.84 31.73 95.85 30.64 95.44 30.49 94.17 31.63 92.5 29.28 92.38 29.44 91.26 29.75 90.25 32.11 90.24 32.35 89.67 31.22 87.63 33.62 89.03 33.84 88.05 32.72 84.08 35.57 87.94 36.25 87.47 36 83.08 37.52 85.22 38.7 87.04 39.53 86.97 40.38 86.44 41.38 84.19 42.3 84.95 42.92 86.98 44.23 85.17 45.3 85.02 46.92 83.73 47.54 85.04 49.01 84.76 49.35 86.26 49.89 87.29 51.33 87.59 50.6 89.33 50.2 90.44 49.28 91.26" style="fill:#5e9319"/><polygon points="53.18 103.26 51.1 104.29 49.97 104.9 51.83 107.29 51.05 108.36 49.96 109.03 47.6 107.56 47.34 109.08 46.96 110.89 44.65 107.48 44.61 110.82 43.72 111.95 42.51 111.3 41.32 109.27 40.38 112.16 39.45 109.02 38.64 107.97 37.9 107.22 36.83 108.14 36.1 107.5 33.8 110.89 34.7 106.56 33.55 106.93 33.2 106.01 32.22 105.92 28.72 107.42 29.47 105.51 29.19 104.39 30.28 103.26 28.35 101.93 28.21 100.42 31.5 101.06 32.3 100.67 33.17 100.47 33.15 98.96 33.91 98.4 34.82 98.12 35.45 97.03 37.02 99.17 37.77 98.61 38.13 94.24 39.39 96.52 40.38 96.53 41.47 94.68 42.26 97.35 43.05 98.25 44.12 97.62 44.78 98.62 46.86 95.88 47.73 96.68 48.67 97.3 48.85 98.89 50.62 98.59 50.15 100.44 48.69 102.22 51.95 102.03 53.18 103.26" style="fill:#a9ef3a"/><polygon points="91.9 49.03 92.77 50.2 93.25 51.71 91.68 52.2 88.97 51.09 90.45 54.1 89.44 54.57 87.31 52.77 86.86 53.88 85.91 53.9 85.48 55.9 84.29 55.1 83.41 55.82 82.5 57.34 81.42 57.28 80.3 58.12 79.18 58 78.04 57.92 77.94 53.63 76.33 55.79 74.74 56.9 75.53 52.76 74.12 53.44 74.1 51.96 71.58 53.31 72.62 51.16 70.35 51.35 72.88 49.55 71.14 49.03 71.26 48.12 73.25 48.05 72.71 46.95 72.16 45.3 72.78 44.44 73.49 43.61 75.38 45 75.33 42.59 76.72 43.47 77.62 43.17 78.33 41.73 79.37 41.68 80.3 40 81.42 43.5 82.34 43.34 83.66 40.11 84.57 41.41 85.58 41.73 86.14 43.42 87.09 43.62 88.61 42.76 89.46 43.46 89.71 44.88 90.8 45.2 91.8 45.77 92.47 46.71 93.76 47.63 91.9 49.03" style="fill:#85b52a"/><polygon points="67.62 54.74 64.67 55.3 66.63 56.87 65.51 57.39 63.43 56.7 65.85 60.85 63.8 59.95 62.02 58.75 60.79 58.02 61.43 62.53 59.38 58.94 58.84 60.69 58.06 62.23 57.08 63.22 55.99 60.02 54.9 63.31 54 61.6 52.72 63.06 52.14 60.83 50.87 61.6 50.45 59.83 50.32 58.04 47.94 60.34 48.12 58.36 45.42 59.73 46.88 57.1 43.99 57.5 44.62 55.92 44.52 54.74 45.02 53.65 47.65 53.68 47.1 52.54 46.27 50.56 49.01 52.23 47.83 48.96 49.51 49.86 49.8 48.07 50.75 47.53 51.5 46.12 52.84 47.1 53.91 47.17 54.92 46.58 55.99 48.98 56.86 50.09 58.2 46.09 59.27 46.42 60.43 46.32 60.16 50.82 62.41 47.52 61.5 51.76 62.8 51.11 64.7 50.08 66.74 49.58 63.73 53.36 67.66 52.14 65.74 53.94 67.62 54.74" style="fill:#84c935"/><polygon points="79.63 44.17 78.09 45.39 78.34 46.83 75.5 46.41 74.53 46.64 76.28 50.11 73.93 48.68 72.98 48.94 72.43 50.05 71.36 50.01 70 48.59 69.33 49.68 68.67 51.96 67.61 51.97 66.56 53.27 65.7 48.89 64.4 52.51 63.6 50.79 62.54 50.93 61.13 51.96 61.55 47.98 59.14 50.9 58.43 49.89 57.05 49.84 55.89 49.25 57.66 46.38 56.25 46.14 55.48 45.28 57.69 44.17 53.9 42.69 57.87 42.95 55.93 40.73 56.56 39.72 58.23 39.97 60.31 41.4 60.41 39.91 61.23 39.56 62.37 40.19 62.32 36.52 63.59 37.54 64.34 35.42 65.56 37.05 66.56 39.79 67.59 36.69 68.61 36.87 69.28 38.9 70.74 36.78 71.33 38.44 71.91 39.54 73.05 39.29 74.84 38.23 75.22 39.58 73.81 42.4 74.62 42.56 75.86 42.67 77.22 43.16 79.63 44.17" style="fill:#a9ef3a"/><polygon points="89.64 39.6 89.72 40.93 88.1 41.62 87.76 42.63 86.88 43.24 87.33 45.41 84.06 42.52 83.78 43.68 82.76 43.51 82.81 46.37 82.07 47.69 80.47 45.13 79.53 44.96 78.75 47.28 77.71 47.84 76.59 48.67 75.52 48.13 74.79 45.99 74.11 44.65 73.18 44.62 72.53 43.81 70.6 45.71 69.58 45.31 68.33 45.1 67.36 44.37 67.03 43.06 69.57 40.56 65.39 40.99 69.22 39.6 65.18 38.15 69.08 38.41 69.45 37.85 69.02 36.42 68.61 34.44 70.74 35.71 69.97 32.25 71.97 34.02 73.6 35.89 73.73 33.02 75.18 35.39 75.46 30.59 76.84 34.87 77.71 31.42 78.7 32.73 79.8 31.85 81.02 31.07 81.55 33.58 82.28 34.45 83.15 34.74 83.92 35.24 86.13 33.42 87.5 33.58 86.35 36.48 86.33 37.59 90.03 36.69 88.44 38.56 89.64 39.6" style="fill:#5e9319"/><polygon points="48.85 63.31 50.23 64.5 47.91 64.7 49.25 66.59 48.91 67.81 47.37 67.75 45.45 66.64 46.48 70.46 44.08 67.64 43.32 68.15 42.63 69.08 41.65 69 40.81 69.91 39.75 68.51 38.85 71.19 37.9 69.47 36.61 72.25 35.7 70.95 34.96 69.55 33.54 70.73 33.04 69.05 31.25 70.38 31.74 67.42 30.65 67.34 29.46 67.15 30.32 65.26 30.85 64.21 27.61 64.46 26.06 63.31 30.13 62.74 29.01 61.56 29.34 60.67 29.01 59.03 30.34 58.89 31.07 58.14 32.92 59.51 32.4 56 34.57 59.06 34.59 55.61 35.91 56.83 36.69 55.08 37.81 55.75 38.85 57.87 39.72 58.49 40.54 58.97 41.63 57.7 43.17 55.34 44.25 55.61 43.99 59.2 44.51 60.05 45.96 59.2 47.45 58.78 46.47 61.18 50.2 59.37 48.03 61.87 48.82 62.46 48.85 63.31" style="fill:#a9ef3a"/><polygon points="49.54 52.74 52.22 54.19 51.31 55.32 49.03 55.25 47.66 55.2 48.85 57.96 48.16 58.96 45.41 56.11 44.85 56.88 44.83 59.58 43.26 57.61 42.69 59.44 41.54 58.21 40.7 59.51 39.71 60.22 38.75 58.91 37.55 60.97 36.33 61.61 35.99 58.29 35.15 57.85 33.02 60.62 33.83 56.44 31.92 57.91 30.18 58.44 31.65 55.3 31.25 54.63 31.09 53.92 28.75 53.83 29.62 52.74 29.19 51.76 29.8 50.95 29.11 49.33 28.92 47.54 32.74 50.26 32.72 48.82 31.98 45.42 34.37 48.15 34.92 46.94 36.01 47.28 36.85 46.72 37.91 47.55 38.58 43.64 39.71 45.03 40.83 43.71 41.52 47.34 42.59 46.55 43.17 48.21 44.64 46.48 45.02 48.2 46.15 47.94 47.39 47.73 47.8 48.84 49.9 48.12 50.88 48.92 49.25 51.13 51.6 51.44 49.54 52.74" style="fill:#84c935"/><polygon points="57.76 49.03 59.27 50.38 55.53 50.11 57.97 52.61 55.51 51.9 54.26 51.72 54.79 54 53 52.72 52.01 52.51 51.74 54.27 51.15 55.73 50.12 55.76 49.35 57.75 48.05 54.43 47.13 58.2 46.2 54.89 45.21 55.3 43.81 57.64 43.7 53.45 42.02 55.86 42.1 52.89 39.52 56.13 39.34 54.22 39.54 52.3 39.56 51.11 39.34 50.45 34.75 51.96 35.09 50.36 38.62 49.03 38.54 48.48 38.82 47.98 38.77 47.2 38.2 45.61 39.07 45.16 39.85 44.64 39.43 41.75 42.06 45.07 42.96 45.08 43.03 41.95 44.49 44.18 45.06 41.52 46.21 43.29 47.13 42.88 47.99 44.58 49.22 41.4 50.16 42.05 51.07 42.61 51.91 43.25 53.45 42.05 54.63 42.16 55.56 42.84 56.57 43.46 57.61 44.13 56.82 46.26 55.13 48.13 58.57 47.83 57.76 49.03" style="fill:#7ebc1d"/><polygon points="49.24 43.03 48.44 43.6 51.49 45.69 50.65 46.69 47.12 44.96 46.62 45.45 47.41 48.08 46.01 47.57 45.8 49.48 44.4 48.54 43.82 50.15 42.72 49.88 41.42 47.48 40.66 49.11 39.71 51.03 38.71 49.91 37.77 49.41 36.43 51.35 36.12 48.05 34.62 49.77 33.1 50.71 33.58 47.22 31.77 48.44 29.95 49.01 29.15 48 30.37 45.54 28.08 45.61 27.07 44.5 28.49 43.03 26.93 41.52 31.74 42.14 29.31 39.75 30.01 38.88 30.25 37.41 33.38 40.15 33.67 39.02 34.57 38.91 35.08 37.71 35.34 34.89 36.55 35.37 38 38.64 38.81 37.88 39.71 33.87 40.66 36.77 41.58 37.17 42.46 37.54 43.29 38.04 45.06 35.47 44.52 39.7 47.24 36.09 46.8 38.95 48.38 38.41 50.15 38.16 51.16 39.01 49.29 41.4 47.93 42.57 49.24 43.03" style="fill:#5e9319"/><polygon points="68.99 38.74 67.67 39.6 67.97 40.7 66.41 40.81 66.58 42.09 65.83 42.68 66.45 45.42 64.25 43.74 64.29 46.36 62.2 43.65 61.88 46.09 60.91 46.67 59.55 44.36 58.55 43.04 57.71 47.53 56.8 44.07 55.46 47.73 54.95 44.25 54.33 42.92 53.65 42.32 51.48 45.51 50.66 44.72 50.75 42.61 49.77 42.44 48.61 42.3 46.82 42.36 47.33 40.74 47.14 39.74 48.53 38.74 47.68 37.87 45.98 36.1 48.1 36.03 49.22 35.77 47.87 32.66 49.93 33.58 52.07 35.51 52.75 35.07 53.37 34.32 53.84 32.63 55.02 33.66 55.82 32.8 56.81 33.52 57.71 33.11 58.83 29.6 59.89 30.23 61.06 29.95 61.25 33.89 62.52 32.87 62.93 34.42 63.54 35.13 66.34 32.24 67.42 32.82 66.17 35.79 65.94 37.01 68.62 36.49 68.42 37.71 68.99 38.74" style="fill:#5e9319"/><polygon points="79.44 39.6 79.19 40.67 78.77 41.66 75.92 40.91 77.56 43.35 77.26 44.61 75.14 43.32 75.71 46.34 74.61 46.62 73.13 45.6 71.86 44.58 71.64 48.4 70.08 44.82 69.3 46.91 68.28 45.1 67.36 45.13 66.25 46.74 65.08 47.51 64.43 45.66 63.95 44 61.71 47.2 62.59 42.94 59.88 45.73 60.25 43.41 60.22 42.15 59.75 41.54 56.23 42.38 55.94 41 58.14 39.6 58.98 38.89 57.6 37.45 60.15 37.94 59.05 35.91 60.61 36.23 62.08 36.92 61.38 33.88 62.37 33.6 63.16 32.77 64.89 35.4 65.75 35.4 66.09 31.12 67.36 34 68.28 34.26 69.16 34.63 70.19 33.42 71.07 33.91 72.25 33.05 72.47 35.61 73.54 35.18 74.79 34.66 76.73 33.38 77.16 34.72 78.06 35.38 75.95 38.27 80.24 36.86 76.83 39.07 79.44 39.6" style="fill:#84c935"/><polygon points="60.43 33.88 61.36 35 58.34 34.81 59.85 36.57 59.5 37.57 58.86 38.4 58.99 40.52 57.31 39.85 55.64 38.54 54.95 39.35 54.13 39.93 53.49 41.85 52.03 38.67 51.36 42.19 50.28 42.51 49.26 41.15 48.27 40.86 47.14 41.48 46.54 39.5 45.55 39.51 44.57 39.39 42.49 41.31 43.95 36.76 40.5 39.89 40.96 37.66 42.08 35.59 39.02 36.3 38.67 35.12 37.75 33.88 39.03 32.73 40.71 32.26 42.65 32.57 41.77 30.88 40.62 28.02 43.68 30.57 44.62 30.61 43.69 26.23 46.21 30.29 46.75 29.12 47.36 27.51 48.55 29.28 49.41 29.13 50.28 27.88 51.18 28.54 52.02 29.12 53.59 25.34 54.47 26.44 55.17 27.73 55.42 29.77 57.3 27.94 56.84 30.64 60.02 27.93 58.55 31.13 58.45 32.19 61.99 31.26 62.34 32.55 60.43 33.88" style="fill:#a9ef3a"/><polygon points="80.24 24.74 80.16 26.04 78.51 26.68 77.29 27.03 77.73 28.66 75.21 27.19 76.25 30.2 75.44 30.96 74.99 32.69 73.63 32.29 72.68 32.99 71.64 33.55 70.45 33.1 69.34 32.76 68.28 30.13 67.44 28.92 66.13 32.95 65.47 30.5 64.36 31.07 64.02 28.92 63.33 28.4 61.09 31 60.1 30.54 60.24 28.57 59.99 27.52 59.01 27.21 56.12 27.57 57.02 25.89 59.58 24.74 58.06 23.82 60.09 23.75 58.99 22.25 60.54 22.49 59.79 20.34 60.88 20.16 62.43 21.09 62.34 18.69 63.35 18.49 64.97 20.82 65.7 20.23 66.09 16.27 67.16 15.78 68.28 16.87 69.35 16.56 70.08 19.49 71.56 16.38 72.54 17.01 73.44 17.78 73.94 19.35 74.48 20.41 76.94 18.19 76.09 21.2 75.54 22.96 78.08 21.89 80.71 21.78 81.09 23.23 80.24 24.74" style="fill:#7ebc1d"/><polygon points="91.44 27.31 94.3 28.84 92.6 29.7 92.06 30.76 92.01 32.33 88.25 29.63 88.97 32.12 89.02 34.38 88.12 35.23 86.86 35.12 85.3 33.5 84.2 32.9 83.51 34.96 82.55 36.4 81.42 31.79 80.33 35.84 79.29 35.39 78.36 34.46 77.86 32.22 76.14 34.65 75.34 33.73 74.51 33.03 74.41 31.27 72.31 32.48 72.93 30.29 72.75 29.36 70.91 29.38 69.06 28.72 68.47 27.31 71.76 26.52 69.92 24.78 70.48 23.65 73.34 24.73 73.34 23.42 73.71 22.25 74.94 22.43 74.73 19.43 77.31 23.57 77.56 21.22 78.78 22.5 79.25 18.97 80.46 21.08 81.42 20.56 82.41 20.45 83.32 21.25 83.94 23.15 85.25 21.31 86.61 20.27 87.68 20.47 87.01 24.18 88.34 23.5 88.29 24.95 91.89 22.42 89.7 25.55 90.09 26.1 89.8 26.82 91.44 27.31" style="fill:#98d844"/><polygon points="94.33 16.74 91.8 17.17 94.74 19.06 91.51 18.17 90.91 18.47 90.71 19.27 90.67 20.63 91.09 23.4 88.9 21 88.55 22.72 88.06 24.8 86.39 21.8 85.68 23.39 84.71 23.8 83.71 21.24 82.63 25.06 81.47 25.66 81.05 21.67 79.82 22.96 78.44 24.02 78.58 20.83 77.4 21.27 76.05 21.71 73.91 22.77 76.47 18.51 73.87 19.61 71.52 19.58 74.54 17.41 73.11 16.74 73.44 15.81 73.34 14.74 72.08 12.59 73.31 11.91 75.19 12.3 75.23 10.48 77.1 11.61 78.74 13.04 79.58 12.96 79.8 10.46 81.01 11.61 81.54 8.44 82.66 9.05 83.71 11.68 84.67 10.37 85.59 10.84 86.41 11.56 87.5 10.88 87.94 12.64 88.53 13.39 90.83 10.62 91.79 11.1 93.44 10.8 94.5 11.54 91.96 15 92.44 15.51 93.44 15.94 94.33 16.74" style="fill:#7ebc1d"/><rect width="120" height="120" style="fill:#fff;opacity:0"/></svg>