<svg xmlns="http://www.w3.org/2000/svg" viewBox="0 0 120 120"><g style="opacity:0.6000000000000001"><polygon points="111.37 75.6 44.89 114.23 8.32 93.12 74.8 54.48 111.37 75.6" style="fill:#535353"/></g><g style="isolation:isolate"><polygon points="21.54 44.11 19.26 45.44 16.96 44.11 19.24 42.78 21.54 44.11" style="fill:#dcdcdc"/><polygon points="21.54 44.11 21.39 96.01 19.11 97.33 19.26 45.44 21.54 44.11" style="fill:#c5c5c5"/><polygon points="19.26 45.44 19.11 97.33 16.81 96.01 16.96 44.11 19.26 45.44" style="fill:#898989"/></g><g style="isolation:isolate"><polygon points="48.18 60.28 45.9 61.61 43.6 60.28 45.88 58.95 48.18 60.28" style="fill:#dcdcdc"/><polygon points="48.18 60.28 48.03 112.17 45.75 113.5 45.9 61.61 48.18 60.28" style="fill:#c5c5c5"/><polygon points="45.9 61.61 45.75 113.5 43.45 112.17 43.6 60.28 45.9 61.61" style="fill:#898989"/></g><g style="isolation:isolate"><polygon points="111.39 23.65 109.11 24.98 106.81 23.65 109.09 22.32 111.39 23.65" style="fill:#dcdcdc"/><polygon points="111.39 23.65 111.25 75.55 108.96 76.88 109.11 24.98 111.39 23.65" style="fill:#c5c5c5"/><polygon points="109.11 24.98 108.96 76.88 106.66 75.55 106.81 23.65 109.11 24.98" style="fill:#898989"/></g><g style="isolation:isolate"><polygon points="84.81 7.45 82.53 8.77 80.23 7.45 82.51 6.12 84.81 7.45" style="fill:#dcdcdc"/><polygon points="84.81 7.45 84.67 59.34 82.38 60.67 82.53 8.77 84.81 7.45" style="fill:#c5c5c5"/><polygon points="82.53 8.77 82.38 60.67 80.08 59.34 80.23 7.45 82.53 8.77" style="fill:#898989"/></g><g style="isolation:isolate"><polygon points="111.67 23.51 111.68 27.47 46.05 65.37 46.04 61.4 111.67 23.51" style="fill:#c5c5c5"/><polygon points="46.05 65.37 43.41 63.83 43.4 59.87 46.04 61.4 46.05 65.37" style="fill:#888"/><polygon points="46.04 61.4 43.4 59.87 109.03 21.97 111.67 23.51 46.04 61.4" style="fill:#dbdbdb"/></g><g style="isolation:isolate"><polygon points="85.09 7.3 85.1 11.26 19.47 49.16 19.45 45.19 85.09 7.3" style="fill:#c5c5c5"/><polygon points="19.47 49.16 16.83 47.63 16.82 43.66 19.45 45.19 19.47 49.16" style="fill:#888"/><polygon points="19.45 45.19 16.82 43.66 82.45 5.77 85.09 7.3 19.45 45.19" style="fill:#dbdbdb"/></g><g style="isolation:isolate"><polygon points="104.59 25.37 104.58 27.81 74.46 10.42 74.47 7.98 104.59 25.37" style="fill:#898989"/><polygon points="104.59 25.37 107.23 23.84 107.22 26.28 104.58 27.81 104.59 25.37" style="fill:#c5c5c5"/><polygon points="74.47 7.98 77.11 6.45 107.23 23.84 104.59 25.37 74.47 7.98" style="fill:#dcdcdc"/></g><g style="isolation:isolate"><polygon points="97.63 29.24 97.62 31.68 67.51 14.29 67.52 11.85 97.63 29.24" style="fill:#898989"/><polygon points="97.63 29.24 100.27 27.71 100.26 30.15 97.62 31.68 97.63 29.24" style="fill:#c5c5c5"/><polygon points="67.52 11.85 70.15 10.32 100.27 27.71 97.63 29.24 67.52 11.85" style="fill:#dcdcdc"/></g><g style="isolation:isolate"><polygon points="90.67 33.43 90.67 35.87 60.55 18.48 60.56 16.04 90.67 33.43" style="fill:#898989"/><polygon points="90.67 33.43 93.31 31.9 93.31 34.34 90.67 35.87 90.67 33.43" style="fill:#c5c5c5"/><polygon points="60.56 16.04 63.2 14.51 93.31 31.9 90.67 33.43 60.56 16.04" style="fill:#dcdcdc"/></g><g style="isolation:isolate"><polygon points="83.72 37.3 83.72 39.74 53.6 22.35 53.61 19.91 83.72 37.3" style="fill:#898989"/><polygon points="83.72 37.3 86.36 35.77 86.35 38.2 83.72 39.74 83.72 37.3" style="fill:#c5c5c5"/><polygon points="53.61 19.91 56.24 18.38 86.36 35.77 83.72 37.3 53.61 19.91" style="fill:#dcdcdc"/></g><g style="isolation:isolate"><polygon points="76.77 41.52 76.76 43.96 46.64 26.57 46.65 24.13 76.77 41.52" style="fill:#898989"/><polygon points="76.77 41.52 79.41 39.98 79.4 42.42 76.76 43.96 76.77 41.52" style="fill:#c5c5c5"/><polygon points="46.65 24.13 49.29 22.59 79.41 39.98 76.77 41.52 46.65 24.13" style="fill:#dcdcdc"/></g><g style="isolation:isolate"><polygon points="69.81 45.38 69.81 47.82 39.69 30.44 39.7 28 69.81 45.38" style="fill:#898989"/><polygon points="69.81 45.38 72.45 43.85 72.44 46.29 69.81 47.82 69.81 45.38" style="fill:#c5c5c5"/><polygon points="39.7 28 42.34 26.46 72.45 43.85 69.81 45.38 39.7 28" style="fill:#dcdcdc"/></g><g style="isolation:isolate"><polygon points="62.86 49.25 62.85 51.69 32.73 34.3 32.74 31.86 62.86 49.25" style="fill:#898989"/><polygon points="62.86 49.25 65.5 47.72 65.49 50.16 62.85 51.69 62.86 49.25" style="fill:#c5c5c5"/><polygon points="32.74 31.86 35.38 30.33 65.5 47.72 62.86 49.25 32.74 31.86" style="fill:#dcdcdc"/></g><g style="isolation:isolate"><polygon points="55.9 53.44 55.9 55.88 25.78 38.5 25.79 36.05 55.9 53.44" style="fill:#898989"/><polygon points="55.9 53.44 58.54 51.91 58.54 54.35 55.9 55.88 55.9 53.44" style="fill:#c5c5c5"/><polygon points="25.79 36.05 28.43 34.52 58.54 51.91 55.9 53.44 25.79 36.05" style="fill:#dcdcdc"/></g><g style="isolation:isolate"><polygon points="48.95 57.31 48.94 59.75 18.82 42.36 18.83 39.92 48.95 57.31" style="fill:#898989"/><polygon points="48.95 57.31 51.59 55.78 51.58 58.22 48.94 59.75 48.95 57.31" style="fill:#c5c5c5"/><polygon points="18.83 39.92 21.47 38.39 51.59 55.78 48.95 57.31 18.83 39.92" style="fill:#dcdcdc"/></g><path d="M107.1,23.48c-1.81,1.06-4.38.56-6.45.17s-3.38-.61-4.16-.15-.42,1.21.27,2.41,1.55,2.68-.26,3.74-4.39.56-6.46.16-3.38-.6-4.16-.15-.42,1.21.27,2.41,1.55,2.69-.26,3.74-4.39.56-6.46.17-3.38-.61-4.16-.15-.42,1.21.27,2.41,1.56,2.68-.26,3.74-4.39.56-6.46.16-3.38-.6-4.16-.15-.42,1.21.27,2.41,1.55,2.69-.26,3.74-4.39.56-6.45.17-3.39-.61-4.17-.15-.42,1.21.27,2.41,1.55,2.68-.26,3.74-4.39.56-6.46.16-3.38-.6-4.16-.15l-1.59-.92c1.81-1,4.39-.56,6.45-.16s3.38.6,4.16.15.42-1.22-.27-2.41-1.55-2.69.27-3.74,4.39-.56,6.45-.17,3.38.61,4.17.15.42-1.21-.28-2.41-1.55-2.68.27-3.74,4.39-.56,6.45-.16,3.38.6,4.17.15.41-1.22-.28-2.41-1.55-2.69.27-3.74,4.38-.56,6.45-.17,3.38.6,4.16.15.42-1.21-.27-2.41-1.55-2.68.27-3.74,4.38-.56,6.45-.16,3.38.6,4.16.15.42-1.22-.27-2.41-1.55-2.69.26-3.74,4.39-.56,6.46-.17,3.38.61,4.16.15Z" style="fill:#5b7d2a"/><path d="M107.24,19.69c-1.82,1-4.39.56-6.46.16s-3.38-.6-4.16-.15-.41,1.22.28,2.41,1.55,2.69-.27,3.74-4.39.57-6.45.17-3.38-.61-4.17-.15-.41,1.21.28,2.41S87.84,31,86,32s-4.39.56-6.46.16-3.38-.6-4.16-.15-.42,1.22.27,2.41,1.55,2.69-.26,3.74-4.39.57-6.46.17-3.38-.61-4.16-.15-.42,1.21.27,2.41,1.55,2.69-.26,3.74-4.39.56-6.46.16-3.38-.6-4.16-.15-.42,1.22.27,2.42,1.55,2.68-.26,3.73-4.39.57-6.46.17-3.38-.6-4.16-.15L42,49.61c1.82-1,4.39-.56,6.46-.17s3.38.61,4.16.15.42-1.21-.27-2.4-1.55-2.69.26-3.75,4.39-.56,6.46-.16,3.38.6,4.16.15.42-1.21-.27-2.41-1.55-2.69.27-3.74,4.38-.56,6.45-.17,3.38.61,4.16.15.42-1.21-.27-2.41-1.55-2.68.26-3.74,4.39-.56,6.46-.16,3.38.6,4.16.15.42-1.22-.27-2.41S82.61,26,84.42,25s4.39-.56,6.46-.17,3.38.61,4.16.15.42-1.21-.27-2.41-1.56-2.68.26-3.74,4.39-.56,6.45-.16,3.38.6,4.16.15Z" style="fill:#5b7d2a"/><path d="M100,19c-1.82,1.05-4.39.56-6.46.16s-3.38-.6-4.16-.15-.42,1.22.28,2.41,1.55,2.69-.27,3.74-4.39.57-6.45.17-3.38-.61-4.17-.15-.41,1.21.28,2.41,1.55,2.68-.27,3.74-4.38.56-6.45.16-3.38-.6-4.16-.15-.42,1.22.27,2.41,1.55,2.69-.26,3.74-4.39.57-6.46.17-3.38-.61-4.16-.15-.42,1.21.27,2.41,1.55,2.69-.26,3.74-4.39.56-6.46.16-3.38-.6-4.16-.15-.42,1.22.27,2.42,1.55,2.68-.26,3.73-4.39.57-6.46.17-3.38-.6-4.16-.15l-1.6-.92c1.82-1,4.39-.56,6.46-.17s3.38.61,4.16.15.42-1.21-.27-2.41-1.55-2.68.26-3.74,4.39-.56,6.46-.16,3.38.6,4.16.15.42-1.21-.27-2.41-1.55-2.69.26-3.74,4.39-.56,6.46-.17,3.38.61,4.16.15.42-1.21-.27-2.41-1.55-2.68.26-3.74S71,29.85,73,30.25s3.38.6,4.16.15.42-1.22-.27-2.41-1.55-2.69.26-3.74,4.39-.56,6.46-.17,3.38.61,4.16.15.42-1.21-.28-2.41-1.54-2.68.27-3.74,4.39-.56,6.45-.16,3.38.6,4.16.15Z" style="fill:#5b7d2a"/><path d="M100.12,15.2c-1.81,1.05-4.38.56-6.45.16s-3.38-.6-4.16-.15-.42,1.21.27,2.41,1.55,2.69-.26,3.74-4.39.56-6.46.17-3.38-.61-4.16-.16-.42,1.22.27,2.42,1.55,2.68-.26,3.73-4.39.57-6.45.17-3.39-.61-4.17-.15-.42,1.21.27,2.41,1.56,2.69-.26,3.74-4.39.56-6.46.17-3.38-.61-4.16-.16-.41,1.22.28,2.42,1.55,2.68-.27,3.74-4.39.56-6.45.16-3.39-.6-4.17-.15-.42,1.21.28,2.41S48.89,45,47.08,46s-4.39.56-6.45.17-3.39-.61-4.17-.15l-1.59-.92c1.81-1.06,4.39-.56,6.46-.17s3.37.61,4.16.15.42-1.21-.28-2.41S43.66,40,45.48,39s4.39-.56,6.46-.17,3.37.61,4.16.16.42-1.22-.27-2.41-1.55-2.69.26-3.75,4.39-.56,6.46-.16,3.38.6,4.16.15.42-1.21-.27-2.41-1.56-2.69.26-3.74,4.39-.56,6.45-.17,3.38.61,4.17.15.42-1.21-.28-2.4-1.55-2.69.27-3.75,4.38-.56,6.45-.16,3.38.6,4.16.15.42-1.21-.27-2.41-1.55-2.68.26-3.74,4.39-.56,6.46-.16,3.38.6,4.16.15Z" style="fill:#5b7d2a"/><path d="M92.5,14.87c-1.82,1.06-4.39.56-6.46.17s-3.38-.61-4.16-.16-.41,1.22.28,2.41S83.71,20,81.89,21s-4.39.57-6.45.17-3.38-.61-4.17-.15-.41,1.21.28,2.41,1.55,2.68-.26,3.74-4.39.56-6.46.16-3.38-.6-4.16-.15-.42,1.22.27,2.41,1.55,2.69-.26,3.74-4.39.57-6.46.17-3.38-.61-4.16-.15-.42,1.21.27,2.41,1.55,2.69-.26,3.74-4.39.56-6.46.16-3.38-.6-4.16-.15S39,40.76,39.72,42s1.55,2.68-.26,3.74-4.39.56-6.46.16-3.38-.6-4.16-.15l-1.6-.92c1.82-1,4.39-.56,6.46-.17s3.38.61,4.16.15.42-1.21-.27-2.41-1.55-2.68.26-3.73,4.39-.57,6.46-.17,3.38.6,4.16.15.42-1.21-.27-2.41-1.55-2.69.27-3.74,4.38-.56,6.45-.17,3.38.61,4.16.15.42-1.21-.27-2.41-1.55-2.68.26-3.74,4.39-.56,6.46-.16,3.38.6,4.16.15.42-1.21-.27-2.41-1.55-2.69.26-3.74,4.39-.56,6.46-.17,3.38.61,4.16.15.42-1.21-.27-2.41S78.48,15,80.29,14s4.39-.56,6.46-.16,3.37.6,4.15.15Z" style="fill:#5b7d2a"/><path d="M94.88,12.2c-1.81,1.05-4.39.56-6.45.17s-3.38-.61-4.17-.15-.41,1.21.28,2.41,1.55,2.68-.27,3.73-4.38.57-6.45.17-3.38-.6-4.16-.15-.42,1.21.27,2.41,1.55,2.69-.27,3.74-4.38.56-6.45.17-3.38-.61-4.16-.16-.42,1.22.27,2.42,1.55,2.68-.26,3.73-4.39.57-6.46.17-3.38-.6-4.16-.15-.42,1.21.27,2.41,1.55,2.69-.26,3.74-4.39.56-6.46.17-3.38-.61-4.16-.16-.42,1.22.27,2.42S43.65,42,41.84,43s-4.39.56-6.46.16S32,42.59,31.22,43l-1.6-.92c1.82-1,4.39-.56,6.46-.16s3.38.6,4.16.15.42-1.22-.27-2.41S38.42,37,40.24,36s4.38-.56,6.45-.16,3.38.6,4.16.15.42-1.21-.27-2.41-1.55-2.69.26-3.74,4.39-.56,6.46-.17,3.38.61,4.16.16.42-1.22-.27-2.42-1.55-2.68.26-3.74,4.39-.56,6.46-.16,3.38.6,4.16.15.42-1.21-.27-2.41-1.55-2.69.26-3.74,4.39-.56,6.46-.16,3.38.6,4.16.15.42-1.22-.28-2.41-1.55-2.69.27-3.75,4.39-.56,6.45-.16,3.39.6,4.17.15Z" style="fill:#5b7d2a"/><path d="M86.13,11.12c-1.81,1.06-4.39.57-6.45.17s-3.38-.61-4.17-.15-.41,1.21.28,2.41,1.55,2.68-.26,3.74-4.39.56-6.46.16-3.38-.6-4.16-.15-.42,1.22.27,2.41,1.55,2.69-.26,3.74-4.39.56-6.46.17-3.38-.61-4.16-.15-.42,1.21.27,2.41,1.55,2.68-.26,3.74-4.39.56-6.46.16-3.38-.6-4.16-.15S43.27,30.85,44,32s1.55,2.69-.26,3.74-4.39.57-6.46.17-3.38-.61-4.16-.15-.42,1.21.27,2.41S34.9,40.9,33.09,42s-4.39.56-6.46.17-3.38-.61-4.16-.16L20.88,41c1.81-1,4.38-.56,6.45-.16s3.38.6,4.16.15.42-1.21-.27-2.41-1.55-2.69.27-3.74,4.39-.56,6.45-.17,3.38.61,4.17.15.42-1.21-.28-2.41-1.55-2.68.27-3.74,4.39-.56,6.45-.16,3.38.6,4.16.15.42-1.22-.27-2.41-1.55-2.69.27-3.74,4.38-.56,6.45-.17,3.38.61,4.16.15.42-1.21-.27-2.41-1.55-2.68.26-3.74,4.39-.56,6.46-.16,3.38.6,4.16.15.42-1.22-.27-2.41-1.55-2.69.26-3.74,4.39-.56,6.45-.17,3.39.61,4.17.15Z" style="fill:#5b7d2a"/><path d="M88.51,8.45c-1.81,1.06-4.39.57-6.45.17S78.68,8,77.9,8.47s-.42,1.21.27,2.41,1.55,2.68-.26,3.74-4.39.56-6.46.16-3.38-.6-4.16-.15-.42,1.22.27,2.41,1.55,2.69-.26,3.74-4.39.57-6.46.17-3.38-.61-4.16-.15S56.27,22,57,23.21s1.54,2.68-.27,3.74-4.39.56-6.45.16-3.39-.6-4.17-.15-.42,1.22.28,2.41,1.54,2.69-.27,3.74-4.39.57-6.45.17-3.39-.61-4.17-.15-.41,1.21.28,2.41,1.54,2.69-.27,3.74-4.39.56-6.45.17-3.39-.61-4.17-.15l-1.59-.92c1.81-1.06,4.38-.57,6.45-.17s3.39.6,4.17.15.41-1.21-.28-2.41-1.54-2.69.27-3.74,4.39-.56,6.45-.17,3.39.61,4.17.15.41-1.21-.28-2.41-1.55-2.68.27-3.74,4.39-.56,6.45-.16,3.38.6,4.17.15.41-1.22-.28-2.41-1.54-2.69.27-3.74,4.38-.56,6.45-.17,3.39.61,4.17.15.41-1.21-.28-2.41-1.55-2.68.27-3.74,4.39-.56,6.45-.16,3.38.6,4.16.15.42-1.22-.27-2.41-1.55-2.69.26-3.74,4.39-.56,6.46-.17,3.38.61,4.16.15Z" style="fill:#5b7d2a"/><rect width="120" height="120" style="fill:#fff;opacity:0"/></svg>