<svg xmlns="http://www.w3.org/2000/svg" xmlns:xlink="http://www.w3.org/1999/xlink" viewBox="0 0 120 120"><defs><clipPath id="a"><path d="M54.64,102.53c0-2.48,1.64-5,4.9-6.85,6.56-3.81,17.23-3.81,23.84,0l0,5.5c-6.6-3.82-17.28-3.82-23.84,0-3.26,1.89-4.89,4.37-4.89,6.85C54.63,106.38,54.64,104.18,54.64,102.53Z" style="fill:#fff"/></clipPath><clipPath id="b"><path d="M88.33,108.12c0-2.51-1.65-5-5-6.94l0-5.5c3.32,1.92,5,4.43,5,6.95C88.35,104.27,88.34,106.47,88.33,108.12Z" style="fill:#fff"/></clipPath><clipPath id="c"><path d="M88.35,102.63l0,5.49c0,2.49-1.64,5-4.9,6.86-6.56,3.81-17.22,3.81-23.82,0-3.33-1.92-5-4.44-5-7v-5.5c0,2.52,1.66,5,5,7,6.61,3.81,17.27,3.81,23.83,0C86.71,107.59,88.34,105.11,88.35,102.63Z" style="fill:#fff"/></clipPath></defs><g style="opacity:0.1"><path d="M50.62,70.36c17.24-2.42,31.19,4,31.17,14.4s-14,20.75-31.24,23.18-31.19-4-31.17-14.41S33.38,72.78,50.62,70.36Z" style="fill:#161615"/></g><path d="M83.37,98.42c6.6,3.82,6.64,10,.08,13.82s-17.24,3.81-23.84,0-6.64-10-.08-13.81S76.76,94.61,83.37,98.42Z" style="fill:#617a42"/><g style="isolation:isolate"><g style="isolation:isolate"><path d="M54.64,102.53c0-2.48,1.64-5,4.9-6.85,6.56-3.81,17.23-3.81,23.84,0l0,5.5c-6.6-3.82-17.28-3.82-23.84,0-3.26,1.89-4.89,4.37-4.89,6.85C54.63,106.38,54.64,104.18,54.64,102.53Z" style="fill:#fff"/><g style="clip-path:url(#a)"><g style="isolation:isolate"><path d="M54.64,102.53v0" style="fill:#fff"/><path d="M54.64,102.38v5.5a5.34,5.34,0,0,1,.11-1v-5.5a6.55,6.55,0,0,0-.11,1" style="fill:#fff"/><path d="M54.75,101.41v5.5a5.64,5.64,0,0,1,.27-1l0-5.49a6.7,6.7,0,0,0-.28.94" style="fill:#fff"/><path d="M55,100.47,55,106a6.31,6.31,0,0,1,.45-.95l0-5.5a6,6,0,0,0-.45,1" style="fill:#fff"/><path d="M55.48,99.51l0,5.5a7.77,7.77,0,0,1,.68-1V98.5a7.68,7.68,0,0,0-.67,1" style="fill:#fff"/><path d="M56.15,98.5V104a9.8,9.8,0,0,1,1-1.12l0-5.5a9.91,9.91,0,0,0-1.05,1.12" style="fill:#fff"/><path d="M57.2,97.38l0,5.5a13.39,13.39,0,0,1,2.13-1.58l0-5.5a12.53,12.53,0,0,0-2.13,1.58" style="fill:#fff"/><path d="M59.33,95.8l0,5.5.21-.12a18.68,18.68,0,0,1,3.69-1.63l0-5.49a19,19,0,0,0-3.69,1.62l-.21.12" style="fill:#fff"/><path d="M63.23,94.06l0,5.49a25.35,25.35,0,0,1,3.2-.79v-5.5a23.25,23.25,0,0,0-3.19.8" style="fill:#fff"/><path d="M66.42,93.26v5.5c.7-.13,1.42-.23,2.15-.3V93c-.72.07-1.44.17-2.15.3" style="fill:#fff"/><path d="M68.57,93v5.5c.62-.06,1.24-.1,1.87-.13V92.84c-.62,0-1.25.06-1.87.12" style="fill:#fff"/><path d="M70.44,92.84v5.49c.57,0,1.15,0,1.72,0l0-5.5c-.58,0-1.15,0-1.73,0" style="fill:#fff"/><path d="M72.17,92.83l0,5.5c.56,0,1.11,0,1.66.08l0-5.49c-.55,0-1.11-.08-1.66-.09" style="fill:#fff"/><path d="M73.83,92.92l0,5.49c.55,0,1.1.11,1.64.19l0-5.5c-.54-.08-1.09-.14-1.64-.18" style="fill:#fff"/><path d="M75.47,93.1l0,5.5c.57.08,1.13.17,1.68.29v-5.5c-.55-.11-1.11-.21-1.67-.29" style="fill:#fff"/><path d="M77.14,93.39v5.5c.59.12,1.18.27,1.75.43l0-5.5c-.57-.16-1.16-.3-1.76-.43" style="fill:#fff"/><path d="M78.9,93.82l0,5.5a21.43,21.43,0,0,1,2.05.69l0-5.5c-.66-.26-1.35-.49-2-.69" style="fill:#fff"/><path d="M81,94.51l0,5.5a18.19,18.19,0,0,1,2.43,1.17l0-5.5A18.8,18.8,0,0,0,81,94.51" style="fill:#fff"/></g></g></g><g style="isolation:isolate"><path d="M88.33,108.12c0-2.51-1.65-5-5-6.94l0-5.5c3.32,1.92,5,4.43,5,6.95C88.35,104.27,88.34,106.47,88.33,108.12Z" style="fill:#fff"/><g style="clip-path:url(#b)"><g style="isolation:isolate"><path d="M83.38,95.68l0,5.5c3.32,1.91,5,4.43,5,6.94l0-5.49c0-2.52-1.65-5-5-6.95" style="fill:#fff"/></g></g></g><g style="isolation:isolate"><path d="M88.35,102.63l0,5.49c0,2.49-1.64,5-4.9,6.86-6.56,3.81-17.22,3.81-23.82,0-3.33-1.92-5-4.44-5-7v-5.5c0,2.52,1.66,5,5,7,6.61,3.81,17.27,3.81,23.83,0C86.71,107.59,88.34,105.11,88.35,102.63Z" style="fill:#fff"/><g style="clip-path:url(#c)"><g style="isolation:isolate"><path d="M88.35,102.63l0,5.49v.15l0-5.5v-.14" style="fill:#fff"/><path d="M88.35,102.77l0,5.5a5.34,5.34,0,0,1-.11,1l0-5.5a6.26,6.26,0,0,0,.11-1" style="fill:#fff"/><path d="M88.24,103.74l0,5.5a5.64,5.64,0,0,1-.27,1v-5.5a6.45,6.45,0,0,0,.28-1" style="fill:#fff"/><path d="M88,104.69v5.5a6.31,6.31,0,0,1-.45,1l0-5.49a8.19,8.19,0,0,0,.44-1" style="fill:#fff"/><path d="M87.52,105.65l0,5.49a7.15,7.15,0,0,1-.68,1l0-5.49a8.94,8.94,0,0,0,.68-1" style="fill:#fff"/><path d="M86.84,106.66l0,5.49a9.14,9.14,0,0,1-1,1.13l0-5.5a10.91,10.91,0,0,0,1-1.12" style="fill:#fff"/><path d="M85.79,107.78l0,5.5a12.53,12.53,0,0,1-2.13,1.58v-5.5a12.63,12.63,0,0,0,2.14-1.58" style="fill:#fff"/><path d="M83.65,109.36v5.5l-.21.12a18.68,18.68,0,0,1-3.69,1.63v-5.5a18.77,18.77,0,0,0,3.7-1.63l.2-.12" style="fill:#fff"/><path d="M79.75,111.11v5.5a25.63,25.63,0,0,1-3.19.79v-5.5a23.23,23.23,0,0,0,3.19-.79" style="fill:#fff"/><path d="M76.56,111.9v5.5c-.71.13-1.43.23-2.15.3v-5.5c.73-.07,1.45-.17,2.15-.3" style="fill:#fff"/><path d="M74.41,112.2v5.5c-.62.06-1.24.1-1.87.12l0-5.49c.62,0,1.25-.07,1.86-.13" style="fill:#fff"/><path d="M72.55,112.33l0,5.49c-.57,0-1.15,0-1.72,0v-5.49c.58,0,1.15,0,1.73,0" style="fill:#fff"/><path d="M70.82,112.34v5.49c-.56,0-1.11,0-1.66-.09l0-5.49q.83.06,1.65.09" style="fill:#fff"/><path d="M69.17,112.25l0,5.49c-.55,0-1.1-.1-1.64-.18l0-5.5c.54.08,1.09.14,1.64.19" style="fill:#fff"/><path d="M67.53,112.06l0,5.5c-.56-.08-1.12-.18-1.67-.29l0-5.5c.55.12,1.11.21,1.67.29" style="fill:#fff"/><path d="M65.86,111.77l0,5.5c-.59-.12-1.18-.27-1.75-.43v-5.5c.58.17,1.16.31,1.76.43" style="fill:#fff"/><path d="M64.1,111.34v5.5a21.43,21.43,0,0,1-2.05-.69l0-5.5q1,.39,2,.69" style="fill:#fff"/><path d="M62.06,110.65l0,5.5A18.19,18.19,0,0,1,59.61,115c-3.33-1.92-5-4.44-5-7v-5.5c0,2.52,1.66,5,5,7a19.61,19.61,0,0,0,2.44,1.16" style="fill:#fff"/></g></g></g></g><rect x="68.12" y="77.68" width="4.05" height="28.32" style="fill:#552904"/><rect x="69.47" y="77.68" width="5.39" height="28.32" style="fill:#82592c"/><ellipse cx="64.07" cy="56.78" rx="13.49" ry="19.56" style="fill:#8c9b57"/><path d="M66.77,72.29c-7.45,0-13.49-8.76-13.49-19.56A26.18,26.18,0,0,1,55.54,41.9c-3,3.59-4.94,9-4.94,15.13,0,10.8,6,19.56,13.49,19.56,4.68,0,8.81-3.47,11.22-8.73A11.23,11.23,0,0,1,66.77,72.29Z" style="fill:#869156"/><ellipse cx="68.12" cy="37.9" rx="17.53" ry="15.51" style="fill:#8c9b57"/><ellipse cx="74.86" cy="21.71" rx="13.49" ry="19.56" style="fill:#8c9b57"/><ellipse cx="89.02" cy="35.2" rx="8.77" ry="10.11" style="fill:#8c9b57"/><ellipse cx="79.58" cy="60.15" rx="18.21" ry="24.28" style="fill:#8c9b57"/><path d="M69.47,50.71c-9.69,0-17.54-6.94-17.54-15.51A14,14,0,0,1,52.6,31a14.06,14.06,0,0,0-2,7.19c0,8.56,7.85,15.51,17.53,15.51,8,0,14.79-4.79,16.87-11.32A17.91,17.91,0,0,1,69.47,50.71Z" style="fill:#869156"/><path d="M80.42,36a13.75,13.75,0,0,0-2.81.32c8.41,2.13,14.78,12,14.78,23.83,0,12.13-6.68,22.15-15.4,24a14,14,0,0,0,3.43.44c10,0,18.2-10.87,18.2-24.28S90.47,36,80.42,36Z" style="fill:#82b650"/><path d="M74.86,2.16a9.65,9.65,0,0,0-3.37.64C77.3,5,81.6,12.61,81.6,21.71S77.3,38.45,71.49,40.63a9.65,9.65,0,0,0,3.37.64c7.45,0,13.49-8.76,13.49-19.56S82.31,2.16,74.86,2.16Z" style="fill:#82b650"/><path d="M89.86,24.54a7.59,7.59,0,0,0-2,.28c3.87,1.05,6.75,5.05,6.75,9.83s-2.88,8.78-6.75,9.83a7.59,7.59,0,0,0,2,.28c4.84,0,8.76-4.52,8.76-10.11S94.7,24.54,89.86,24.54Z" style="fill:#82b650"/><rect width="120" height="120" style="fill:#fff;opacity:0"/></svg>