<svg xmlns="http://www.w3.org/2000/svg" xmlns:xlink="http://www.w3.org/1999/xlink" viewBox="0 0 120 120"><defs><clipPath id="a"><path d="M24.27,85.59,83.14,51.38a3,3,0,0,1,3.08.3L27.36,85.89A3.05,3.05,0,0,0,24.27,85.59Z" style="fill:none"/></clipPath><clipPath id="b"><path d="M89.27,61.93,30.41,96.14a3.06,3.06,0,0,0,1.26-2.78,9.49,9.49,0,0,0-4.31-7.47L86.22,51.68a9.5,9.5,0,0,1,4.31,7.47A3,3,0,0,1,89.27,61.93Z" style="fill:none"/></clipPath></defs><g style="opacity:0.15"><path d="M95.37,65.59c4,2.3-6.15,12.62-22.74,23.18S39,106.23,34.91,104.05s6.15-12.63,22.74-23.18S91.23,63.4,95.37,65.59Z" style="fill:#323232"/></g><g style="isolation:isolate"><polygon points="114.18 37.03 96.07 47.56 77.84 37.03 95.95 26.5 114.18 37.03" style="fill:#999"/><polygon points="114.18 37.03 114.11 63.22 96 73.74 96.07 47.56 114.18 37.03" style="fill:#898989"/><polygon points="96.07 47.56 96 73.74 77.77 63.21 77.84 37.03 96.07 47.56" style="fill:#5f5f5f"/><polygon points="111.81 42.09 111.76 61.03 98.66 68.64 98.72 49.7 111.81 42.09" style="fill:#898989;stroke:#707070;stroke-miterlimit:10"/></g><g style="isolation:isolate"><path d="M99.56,30.79v2.62a.33.33,0,0,0-.19-.26,1,1,0,0,0-.91,0,.32.32,0,0,0-.19.26V30.79a.31.31,0,0,1,.19-.26,1,1,0,0,1,.91,0A.33.33,0,0,1,99.56,30.79Z" style="fill:#707070"/><path d="M98.45,33.67a.33.33,0,0,1-.19-.26V30.79a.3.3,0,0,0,.19.26,1,1,0,0,0,.91,0,.32.32,0,0,0,.19-.26v2.62a.3.3,0,0,1-.19.26A1,1,0,0,1,98.45,33.67Z" style="fill:#898989"/><path d="M99.37,30.53a.27.27,0,0,1,0,.52,1,1,0,0,1-.91,0,.27.27,0,0,1,0-.52A1,1,0,0,1,99.37,30.53Z" style="fill:#898989"/><path d="M100.2,30.79v2.62a.65.65,0,0,1-.37.53,2,2,0,0,1-1.82,0,.66.66,0,0,1-.38-.54V30.78a.64.64,0,0,0,.38.54,2,2,0,0,0,1.81,0A.66.66,0,0,0,100.2,30.79Z" style="fill:#707070"/><path d="M99.82,30.26a.56.56,0,0,1,0,1.06,2,2,0,0,1-1.81,0,.56.56,0,0,1,0-1.06A2,2,0,0,1,99.82,30.26Zm-1.36.79a1,1,0,0,0,.91,0,.27.27,0,0,0,0-.52,1,1,0,0,0-.91,0,.27.27,0,0,0,0,.52" style="fill:#707070"/></g><g style="isolation:isolate"><path d="M99.59,4.87l-.07,26.19a.33.33,0,0,1-.19.26,1,1,0,0,1-.91,0,.33.33,0,0,1-.19-.26l.08-26.19a.3.3,0,0,0,.19.26,1,1,0,0,0,.91,0A.31.31,0,0,0,99.59,4.87Z" style="fill:#707070"/><path d="M99.4,4.61a.28.28,0,0,1,0,.52,1,1,0,0,1-.91,0,.27.27,0,0,1,0-.52A1,1,0,0,1,99.4,4.61Z" style="fill:#707070"/></g><g style="isolation:isolate"><path d="M102.77,32.72v2.62a.33.33,0,0,0-.19-.27,1,1,0,0,0-.91,0,.33.33,0,0,0-.18.27V32.72a.32.32,0,0,1,.19-.26,1,1,0,0,1,.91,0A.33.33,0,0,1,102.77,32.72Z" style="fill:#707070"/><path d="M101.67,35.6a.31.31,0,0,1-.19-.26V32.72a.33.33,0,0,0,.19.26,1,1,0,0,0,.91,0,.3.3,0,0,0,.19-.26v2.62a.31.31,0,0,1-.19.26A1,1,0,0,1,101.67,35.6Z" style="fill:#898989"/><path d="M102.58,32.46a.27.27,0,0,1,0,.52,1,1,0,0,1-.91,0,.27.27,0,0,1,0-.52A1,1,0,0,1,102.58,32.46Z" style="fill:#898989"/><path d="M103.41,32.72v2.62a.62.62,0,0,1-.37.52,2,2,0,0,1-1.82,0,.65.65,0,0,1-.38-.53V32.71a.67.67,0,0,0,.38.54,2.08,2.08,0,0,0,1.82,0A.65.65,0,0,0,103.41,32.72Z" style="fill:#707070"/><path d="M103,32.19a.56.56,0,0,1,0,1.06,2.08,2.08,0,0,1-1.82,0c-.5-.3-.51-.77,0-1.06A2,2,0,0,1,103,32.19Zm-1.36.79a1,1,0,0,0,.91,0,.27.27,0,0,0,0-.52,1,1,0,0,0-.91,0,.27.27,0,0,0,0,.52" style="fill:#707070"/></g><g style="isolation:isolate"><path d="M102.79,17.18l-.05,15.71a.31.31,0,0,1-.19.26,1,1,0,0,1-.9,0,.31.31,0,0,1-.19-.26l0-15.72a.33.33,0,0,0,.19.27,1,1,0,0,0,.91,0A.33.33,0,0,0,102.79,17.18Z" style="fill:#707070"/><path d="M102.6,16.91a.28.28,0,0,1,0,.53,1,1,0,0,1-.91,0,.28.28,0,0,1,0-.53A1,1,0,0,1,102.6,16.91Z" style="fill:#707070"/></g><g style="isolation:isolate"><g style="isolation:isolate"><g style="clip-path:url(#a)"><g style="isolation:isolate"><path d="M24.27,85.59,83.14,51.38a1.58,1.58,0,0,1,.35-.16L24.62,85.42a2.26,2.26,0,0,0-.35.17" style="fill:#727272"/><path d="M24.62,85.42l58.87-34.2a1.71,1.71,0,0,1,.3-.09L24.93,85.34l-.31.08" style="fill:#777"/><path d="M24.93,85.34,83.79,51.13l.25,0L25.18,85.3l-.25,0" style="fill:#7b7b7b"/><path d="M25.18,85.3,84,51.1h.23L25.4,85.29h-.22" style="fill:gray"/><path d="M25.4,85.29l58.87-34.2a1.33,1.33,0,0,1,.2,0L25.61,85.3H25.4" style="fill:#848484"/><path d="M25.61,85.3,84.47,51.09l.19,0L25.8,85.32l-.19,0" style="fill:#888"/><path d="M25.8,85.32,84.66,51.11l.19,0L26,85.35l-.19,0" style="fill:#8d8d8d"/><path d="M26,85.35,84.85,51.14l.18,0L26.16,85.39l-.17,0" style="fill:#919191"/><path d="M26.16,85.39,85,51.18l.18,0L26.34,85.44l-.18,0" style="fill:#969696"/><path d="M26.34,85.44,85.21,51.23l.17.06L26.52,85.5l-.18-.06" style="fill:#9a9a9a"/><path d="M26.52,85.5,85.38,51.29l.18.06L26.69,85.56l-.17-.06" style="fill:#9e9e9e"/><path d="M26.69,85.56,85.56,51.35l.17.08L26.87,85.64l-.18-.08" style="fill:#a3a3a3"/><path d="M26.87,85.64,85.73,51.43l.17.08L27,85.72l-.17-.08" style="fill:#a7a7a7"/><path d="M27,85.72,85.9,51.51l.18.09L27.22,85.81,27,85.72" style="fill:#acacac"/><path d="M27.22,85.81,86.08,51.6l.14.08L27.36,85.89l-.14-.08" style="fill:#b0b0b0"/></g></g></g><g style="isolation:isolate"><g style="clip-path:url(#b)"><g style="isolation:isolate"><path d="M27.36,85.89,86.22,51.68l0,0L27.4,85.91l0,0" style="fill:#b0b0b0"/><path d="M27.4,85.91,86.26,51.7l.18.12L27.58,86l-.18-.11" style="fill:#b4b4b4"/><path d="M27.58,86l58.86-34.2a1.22,1.22,0,0,1,.19.12L27.76,86.14,27.58,86" style="fill:#b9b9b9"/><path d="M27.76,86.14l58.87-34.2.19.13L28,86.28l-.19-.14" style="fill:#bdbdbd"/><path d="M28,86.28,86.82,52.07l.19.15L28.14,86.42,28,86.28" style="fill:#c2c2c2"/><path d="M28.14,86.42,87,52.22l.19.15L28.33,86.58l-.19-.16" style="fill:#c6c6c6"/><path d="M28.33,86.58,87.2,52.37l.19.17L28.53,86.75l-.2-.17" style="fill:#cacaca"/><path d="M28.53,86.75,87.39,52.54l.19.18L28.72,86.93l-.19-.18" style="fill:#cfcfcf"/><path d="M28.72,86.93,87.58,52.72l.18.18L28.9,87.11a1.53,1.53,0,0,0-.18-.18" style="fill:#d3d3d3"/><path d="M28.9,87.11,87.76,52.9l.18.18L29.08,87.29l-.18-.18" style="fill:#d8d8d8"/><path d="M29.08,87.29,87.94,53.08l.17.19L29.24,87.48c0-.07-.11-.13-.16-.19" style="fill:#dcdcdc"/><path d="M29.24,87.48,88.11,53.27l.16.19L29.41,87.67l-.17-.19" style="fill:#e0e0e0"/><path d="M29.41,87.67,88.27,53.46l.17.21L29.58,87.88l-.17-.21" style="fill:#e2e2e2"/><path d="M29.58,87.88,88.44,53.67c.07.08.13.17.19.25L29.77,88.13c-.06-.09-.13-.17-.19-.25" style="fill:#e3e3e3"/><path d="M29.77,88.13,88.63,53.92l.28.39L30,88.52c-.08-.13-.18-.26-.27-.39" style="fill:#e4e4e4"/><path d="M30,88.52,88.91,54.31c.11.17.22.34.32.51L30.37,89c-.11-.17-.21-.34-.33-.51" style="fill:#e5e5e5"/><path d="M30.37,89,89.23,54.82l.21.38L30.58,89.41,30.37,89" style="fill:#e4e4e4"/><path d="M30.58,89.41,89.44,55.2c0,.09.09.18.14.26L30.71,89.67l-.13-.26" style="fill:#e3e3e3"/><path d="M30.71,89.67,89.58,55.46a1.63,1.63,0,0,0,.11.23L30.82,89.9a2.4,2.4,0,0,0-.11-.23" style="fill:#e2e2e2"/><path d="M30.82,89.9,89.69,55.69l.09.21L30.92,90.11a2,2,0,0,0-.1-.21" style="fill:#e0e0e0"/><path d="M30.92,90.11,89.78,55.9l.09.21L31,90.32l-.09-.21" style="fill:#dcdcdc"/><path d="M31,90.32,89.87,56.11l.09.21L31.09,90.53,31,90.32" style="fill:#d8d8d8"/><path d="M31.09,90.53,90,56.32a1.8,1.8,0,0,0,.08.21L31.17,90.74a1.8,1.8,0,0,0-.08-.21" style="fill:#d3d3d3"/><path d="M31.17,90.74,90,56.53c0,.08,0,.15.07.22L31.25,91c0-.07-.05-.15-.08-.22" style="fill:#cfcfcf"/><path d="M31.25,91,90.11,56.75a2,2,0,0,1,.07.23L31.32,91.18c0-.07-.05-.14-.07-.22" style="fill:#cacaca"/><path d="M31.32,91.18,90.18,57a1.55,1.55,0,0,1,.07.23L31.39,91.41c0-.07-.05-.15-.07-.23" style="fill:#c6c6c6"/><path d="M31.39,91.41l58.86-34.2.06.23L31.45,91.64l-.06-.23" style="fill:#c2c2c2"/><path d="M31.45,91.64l58.86-34.2a1.74,1.74,0,0,1,0,.22L31.5,91.87c0-.07,0-.15-.05-.23" style="fill:#bdbdbd"/><path d="M31.5,91.87,90.36,57.66a1.89,1.89,0,0,1,0,.23L31.55,92.1c0-.08,0-.15-.05-.23" style="fill:#b9b9b9"/><path d="M31.55,92.1,90.41,57.89c0,.07,0,.15,0,.22L31.58,92.32l0-.22" style="fill:#b4b4b4"/><path d="M31.58,92.32,90.45,58.11l0,.22L31.62,92.53a1.55,1.55,0,0,0,0-.21" style="fill:#b0b0b0"/><path d="M31.62,92.53l58.86-34.2a1.49,1.49,0,0,1,0,.21L31.64,92.75a1.64,1.64,0,0,1,0-.22" style="fill:#acacac"/><path d="M31.64,92.75,90.5,58.54a1.49,1.49,0,0,1,0,.21L31.66,93c0-.07,0-.14,0-.21" style="fill:#a7a7a7"/><path d="M31.66,93,90.52,58.75c0,.07,0,.14,0,.21L31.67,93.17a1.48,1.48,0,0,1,0-.21" style="fill:#a3a3a3"/><path d="M31.67,93.17,90.53,59v.21L31.67,93.37h0v-.19" style="fill:#9e9e9e"/><path d="M31.67,93.37l58.86-34.2v.21L31.66,93.58a1.34,1.34,0,0,0,0-.21" style="fill:#9a9a9a"/><path d="M31.66,93.58l58.87-34.2c0,.07,0,.13,0,.2L31.65,93.79a1.48,1.48,0,0,0,0-.21" style="fill:#969696"/><path d="M31.65,93.79,90.51,59.58a1.49,1.49,0,0,1,0,.21L31.63,94a1.49,1.49,0,0,0,0-.21" style="fill:#919191"/><path d="M31.63,94,90.49,59.79l0,.21L31.6,94.2l0-.2" style="fill:#8d8d8d"/><path d="M31.6,94.2,90.46,60a1.55,1.55,0,0,1,0,.21L31.56,94.42c0-.07,0-.14,0-.22" style="fill:#888"/><path d="M31.56,94.42,90.42,60.21l-.06.22L31.5,94.64l.06-.22" style="fill:#848484"/><path d="M31.5,94.64,90.36,60.43c0,.08,0,.15-.07.23L31.42,94.87a2.09,2.09,0,0,0,.08-.23" style="fill:gray"/><path d="M31.42,94.87,90.29,60.66c0,.08-.07.17-.11.24L31.32,95.11a2.44,2.44,0,0,0,.1-.24" style="fill:#7b7b7b"/><path d="M31.32,95.11,90.18,60.9a2.11,2.11,0,0,1-.16.3L31.16,95.41c.05-.1.11-.19.16-.3" style="fill:#777"/><path d="M31.16,95.41,90,61.2a2.18,2.18,0,0,1-.75.73L30.41,96.14a2.27,2.27,0,0,0,.75-.73" style="fill:#727272"/></g></g></g><path d="M27.36,85.89a9.49,9.49,0,0,1,4.31,7.47c0,2.75-2,3.86-4.34,2.48A9.52,9.52,0,0,1,23,88.36C23,85.62,25,84.51,27.36,85.89Z" style="fill:#767676"/></g><g style="isolation:isolate"><polygon points="42.23 78.79 24.12 89.31 5.89 78.79 24 68.27 42.23 78.79" style="fill:#999"/><polygon points="42.23 78.79 42.15 104.98 24.04 115.5 24.12 89.31 42.23 78.79" style="fill:#898989"/><polygon points="24.12 89.31 24.04 115.5 5.82 104.98 5.89 78.79 24.12 89.31" style="fill:#5f5f5f"/></g><rect width="120" height="120" style="fill:#fff;opacity:0"/></svg>