<svg xmlns="http://www.w3.org/2000/svg" xmlns:xlink="http://www.w3.org/1999/xlink" viewBox="0 0 120 120"><defs><clipPath id="a"><rect width="120" height="120" style="fill:none"/></clipPath></defs><g style="clip-path:url(#a)"><g style="isolation:isolate"><polygon points="21.09 93.64 21.08 98.53 -615.7 468.59 -615.68 463.7 21.09 93.64" style="fill:#babbb7"/><polygon points="994.25 564.86 916.01 610.33 21.09 93.64 -615.68 463.7 -694.42 418.24 20.59 2.72 994.25 564.86" style="fill:#d0d1cc"/><polygon points="916.01 610.33 916 615.22 21.08 98.53 21.09 93.64 916.01 610.33" style="fill:#81827f"/></g><polygon points="980 573.56 930.67 602.23 21.2 77.15 -630.03 455.61 -679.68 426.94 20.88 19.81 980 573.56" style="fill:#adbcca"/><polygon points="84.47 86.76 87.29 85.13 112.11 99.46 109.3 101.1 84.47 86.76" style="fill:#dcdcdc"/><polygon points="34.81 58.09 37.63 56.46 62.46 70.79 59.64 72.43 34.81 58.09" style="fill:#dcdcdc"/><polygon points="-14.63 67.93 10.04 53.59 12.87 55.23 -11.8 69.56 -14.63 67.93" style="fill:#dcdcdc"/></g><rect width="120" height="120" style="fill:#fff;opacity:0"/></svg>