<svg xmlns="http://www.w3.org/2000/svg" xmlns:xlink="http://www.w3.org/1999/xlink" viewBox="0 0 120 120"><defs><clipPath id="a"><path d="M90.89,99.94l0,6.17c0,2.78-2,5.57-6,7.69-8,4.27-20.93,4.27-28.95,0-4-2.15-6-5-6-7.79l0-6.17c0,2.82,2,5.64,6,7.79,8,4.28,21,4.28,28.95,0C88.9,105.51,90.88,102.73,90.89,99.94Z" style="fill:none"/></clipPath><clipPath id="b"><path d="M90.89,31.88l0,6.17c0,2.78-2,5.56-5.93,7.67C77,50,64,50,56,45.73c-4-2.15-6-5-6-7.79l0-6.16c0,2.81,2,5.63,6,7.78,8,4.28,21,4.28,29,0C88.91,37.44,90.88,34.67,90.89,31.88Z" style="fill:none"/></clipPath><clipPath id="c"><path d="M92,26.29l0,6.17c0,2.79-2,5.58-5.91,7.69-7.9,4.24-21,4.24-28.95,0l0-6.17c8,4.26,21.05,4.26,28.95,0C90,31.88,92,29.09,92,26.29Z" style="fill:none"/></clipPath></defs><g style="isolation:isolate"><g style="isolation:isolate"><g style="clip-path:url(#a)"><g style="isolation:isolate"><path d="M90.89,99.94l0,6.17v-6a1,1,0,0,0,0-.17" style="fill:#546c7a"/><path d="M90.88,100.11v6.16a6.63,6.63,0,0,1-.14,1.09l0-6.17a5.69,5.69,0,0,0,.13-1.08" style="fill:#56707f"/><path d="M90.75,101.19l0,6.17a6.83,6.83,0,0,1-.33,1.06l0-6.16a6.94,6.94,0,0,0,.33-1.07" style="fill:#597483"/><path d="M90.42,102.26l0,6.16a6.87,6.87,0,0,1-.55,1.08l0-6.16a7.86,7.86,0,0,0,.55-1.08" style="fill:#5c7887"/><path d="M89.87,103.34l0,6.16a8.26,8.26,0,0,1-.82,1.13l0-6.16a9.21,9.21,0,0,0,.82-1.13" style="fill:#5f7b8b"/><path d="M89.05,104.47l0,6.16a11.65,11.65,0,0,1-1.27,1.26l0-6.16a11.65,11.65,0,0,0,1.27-1.26" style="fill:#627f8f"/><path d="M87.78,105.73l0,6.16a16.53,16.53,0,0,1-2.59,1.78V107.5a16.16,16.16,0,0,0,2.6-1.77" style="fill:#658394"/><path d="M85.18,107.5v6.17l-.25.13a24.16,24.16,0,0,1-4.47,1.82l0-6.17a24.14,24.14,0,0,0,4.47-1.81l.24-.14" style="fill:#688798"/><path d="M80.47,109.45l0,6.17a33.59,33.59,0,0,1-3.87.89l0-6.17a31.62,31.62,0,0,0,3.87-.89" style="fill:#658394"/><path d="M76.6,110.34l0,6.17q-1.29.21-2.61.33l0-6.16c.88-.09,1.75-.2,2.61-.34" style="fill:#627f8f"/><path d="M74,110.68l0,6.16c-.75.07-1.51.12-2.27.14l0-6.16c.76,0,1.52-.07,2.27-.14" style="fill:#5f7b8b"/><path d="M71.72,110.82l0,6.16c-.7,0-1.4,0-2.1,0l0-6.17q1,0,2.1,0" style="fill:#5c7887"/><path d="M69.62,110.82l0,6.17c-.68,0-1.35,0-2-.1l0-6.17c.67.06,1.34.09,2,.1" style="fill:#597483"/><path d="M67.6,110.72l0,6.17c-.67,0-1.34-.12-2-.21l0-6.16c.66.09,1.33.15,2,.2" style="fill:#56707f"/><path d="M65.6,110.52l0,6.16c-.68-.09-1.36-.19-2-.32l0-6.17c.67.13,1.35.24,2,.33" style="fill:#546c7a"/><path d="M63.57,110.19l0,6.17c-.73-.14-1.44-.3-2.14-.49l0-6.16c.7.18,1.41.34,2.14.48" style="fill:#516976"/><path d="M61.43,109.71l0,6.16c-.85-.22-1.69-.48-2.49-.77l0-6.17c.8.29,1.64.55,2.49.78" style="fill:#4e6572"/><path d="M58.94,108.93l0,6.17a23.29,23.29,0,0,1-3-1.31c-4-2.15-6-5-6-7.79l0-6.17c0,2.82,2,5.64,6,7.79a22,22,0,0,0,2.95,1.31" style="fill:#4b616e"/></g></g></g><path d="M84.84,92.14c8,4.28,8.07,11.22.1,15.5S64,111.9,56,107.62s-8-11.2-.1-15.47S76.82,87.86,84.84,92.14Z" style="fill:#7ca1b6"/></g><g style="isolation:isolate"><path d="M91,38.16l-.19,61.66c0,2.78-2,5.57-6,7.69-8,4.27-20.92,4.27-28.95,0-4-2.15-6-5-6-7.79L50,38.06c0,2.81,2,5.64,6,7.79,8,4.28,21,4.28,28.95,0C89,43.73,91,41,91,38.16Z" style="fill:#9fd3f4"/><path d="M84.93,30.36c8,4.28,8.06,11.22.09,15.5s-20.92,4.27-28.95,0S48,34.64,56,30.37,76.9,26.08,84.93,30.36Z" style="fill:#9fd3f4"/></g><g style="isolation:isolate"><g style="isolation:isolate"><g style="clip-path:url(#b)"><g style="isolation:isolate"><path d="M90.89,31.88l0,6.17v.16l0-6.16v-.17" style="fill:#546c7a"/><path d="M90.89,32.05l0,6.16a5.71,5.71,0,0,1-.14,1.09l0-6.17a5.71,5.71,0,0,0,.14-1.08" style="fill:#56707f"/><path d="M90.75,33.13l0,6.17a5.48,5.48,0,0,1-.33,1.07l0-6.17a5.28,5.28,0,0,0,.33-1.07" style="fill:#597483"/><path d="M90.42,34.2l0,6.17a7.16,7.16,0,0,1-.54,1.07l0-6.17a7.16,7.16,0,0,0,.54-1.07" style="fill:#5c7887"/><path d="M89.88,35.27l0,6.17A10.4,10.4,0,0,1,89,42.57V36.4a8.6,8.6,0,0,0,.83-1.13" style="fill:#5f7b8b"/><path d="M89.05,36.4v6.17a11.65,11.65,0,0,1-1.27,1.26l0-6.17a10.7,10.7,0,0,0,1.26-1.26" style="fill:#627f8f"/><path d="M87.79,37.66l0,6.17a15.92,15.92,0,0,1-2.58,1.76l0-6.17a15.92,15.92,0,0,0,2.58-1.76" style="fill:#658394"/><path d="M85.21,39.42l0,6.17-.25.13a23.44,23.44,0,0,1-4.49,1.83l0-6.17A24.08,24.08,0,0,0,85,39.56l.25-.14" style="fill:#688798"/><path d="M80.47,41.38l0,6.17a31.62,31.62,0,0,1-3.87.89V42.27a31.36,31.36,0,0,0,3.88-.89" style="fill:#658394"/><path d="M76.59,42.27v6.17c-.86.14-1.74.25-2.62.34l0-6.17c.88-.08,1.76-.19,2.61-.34" style="fill:#627f8f"/><path d="M74,42.61l0,6.17c-.75.06-1.51.11-2.27.14l0-6.17c.76,0,1.52-.07,2.27-.14" style="fill:#5f7b8b"/><path d="M71.71,42.75l0,6.17q-1.05,0-2.1,0l0-6.16c.7,0,1.4,0,2.1,0" style="fill:#5c7887"/><path d="M69.61,42.76l0,6.16c-.68,0-1.35,0-2-.1l0-6.16c.67.05,1.34.08,2,.1" style="fill:#597483"/><path d="M67.59,42.66l0,6.16c-.67,0-1.33-.11-2-.2l0-6.17c.66.09,1.32.16,2,.21" style="fill:#56707f"/><path d="M65.6,42.45l0,6.17c-.69-.09-1.37-.2-2-.33l0-6.16c.66.13,1.34.23,2,.32" style="fill:#546c7a"/><path d="M63.57,42.13l0,6.16c-.73-.14-1.44-.3-2.14-.48l0-6.17c.7.19,1.41.35,2.14.49" style="fill:#516976"/><path d="M61.43,41.64l0,6.17c-.86-.23-1.69-.48-2.49-.78l0-6.16c.8.29,1.63.55,2.49.77" style="fill:#4e6572"/><path d="M58.94,40.87l0,6.16a23.26,23.26,0,0,1-3-1.3c-4-2.15-6-5-6-7.79l0-6.16c0,2.81,2,5.63,6,7.78a23.29,23.29,0,0,0,2.95,1.31" style="fill:#4b616e"/></g></g></g><path d="M84.84,24.07c8,4.28,8.07,11.22.12,15.49s-20.95,4.28-29,0-8-11.21-.07-15.49S76.82,19.79,84.84,24.07Z" style="fill:#7ca1b6"/></g><g style="isolation:isolate"><polygon points="85.95 18.49 57.1 33.97 28.06 18.49 56.91 3 85.95 18.49" style="fill:#7ca1b6"/><polygon points="85.95 18.49 85.94 24.65 57.08 40.14 57.1 33.97 85.95 18.49" style="fill:#6f90a3"/><polygon points="57.1 33.97 57.08 40.14 28.04 24.65 28.06 18.49 57.1 33.97" style="fill:#4d6471"/></g><path d="M86,18.49c8,4.25,8,11.25.1,15.5s-21,4.24-28.95,0Z" style="fill:#7ca1b6"/><path d="M79.06,24.38c4.81,2.57,4.84,6.73.06,9.29s-12.57,2.58-17.38,0-4.81-6.74,0-9.31S74.25,21.82,79.06,24.38Z" style="fill:#8daab7"/><g style="isolation:isolate"><path d="M82.68,32.14c0-1.69-1.21-3.38-3.63-4.67l0-6.17c2.42,1.29,3.63,3,3.63,4.68C82.69,27.83,82.68,30.29,82.68,32.14Z" style="fill:#90bbd3"/><path d="M58.14,25.93c0-1.67,1.2-3.35,3.58-4.63,4.78-2.56,12.54-2.56,17.35,0l0,6.17c-4.81-2.57-12.57-2.57-17.35,0-2.38,1.28-3.57,3-3.58,4.63C58.13,30.25,58.13,27.78,58.14,25.93Z" style="fill:#90bbd3"/><path d="M82.7,26l0,6.16c0,1.67-1.2,3.34-3.57,4.61-4.78,2.57-12.57,2.58-17.38,0-2.41-1.29-3.62-3-3.61-4.67l0-6.17c0,1.69,1.2,3.38,3.61,4.67,4.81,2.57,12.6,2.55,17.38,0C81.5,29.31,82.69,27.65,82.7,26Z" style="fill:#7ca1b6"/></g><g style="isolation:isolate"><g style="clip-path:url(#c)"><g style="isolation:isolate"><path d="M92,26.29l0,6.17v.17l0-6.17v-.17" style="fill:#546c7a"/><path d="M92,26.46l0,6.17a5.81,5.81,0,0,1-.14,1.09l0-6.16a5.92,5.92,0,0,0,.14-1.1" style="fill:#56707f"/><path d="M91.82,27.56l0,6.16a6.36,6.36,0,0,1-.33,1.08l0-6.17a6.94,6.94,0,0,0,.33-1.07" style="fill:#597483"/><path d="M91.49,28.63l0,6.17a7.33,7.33,0,0,1-.55,1.08l0-6.16a7.43,7.43,0,0,0,.55-1.09" style="fill:#5c7887"/><path d="M90.94,29.72l0,6.16A8.51,8.51,0,0,1,90.1,37V30.85a9.32,9.32,0,0,0,.83-1.13" style="fill:#5f7b8b"/><path d="M90.11,30.85V37a11.65,11.65,0,0,1-1.27,1.26l0-6.16a10.7,10.7,0,0,0,1.26-1.26" style="fill:#627f8f"/><path d="M88.85,32.11l0,6.16A15.49,15.49,0,0,1,86.27,40l0-6.17a16.11,16.11,0,0,0,2.56-1.74" style="fill:#658394"/><path d="M86.29,33.85l0,6.17-.24.13a23.51,23.51,0,0,1-4.41,1.79l0-6.16A24.2,24.2,0,0,0,86.05,34l.24-.14" style="fill:#688798"/><path d="M81.64,35.78l0,6.16a31.62,31.62,0,0,1-3.87.89l0-6.16a33.59,33.59,0,0,0,3.87-.89" style="fill:#658394"/><path d="M77.77,36.67l0,6.16c-.86.14-1.74.26-2.63.34l0-6.17c.89-.08,1.77-.19,2.63-.33" style="fill:#627f8f"/><path d="M75.14,37l0,6.17c-.76.07-1.53.12-2.29.14V37.14c.77,0,1.54-.07,2.3-.14" style="fill:#5f7b8b"/><path d="M72.84,37.14v6.17c-.71,0-1.42,0-2.13,0l0-6.17c.71,0,1.42,0,2.12,0" style="fill:#5c7887"/><path d="M70.72,37.15l0,6.17c-.68,0-1.36,0-2-.1l0-6.17c.68.05,1.36.09,2,.1" style="fill:#597483"/><path d="M68.68,37.05l0,6.17q-1-.07-2-.21l0-6.16c.66.08,1.33.15,2,.2" style="fill:#56707f"/><path d="M66.67,36.85l0,6.16c-.69-.09-1.37-.2-2.05-.33l0-6.16c.67.13,1.36.23,2,.33" style="fill:#546c7a"/><path d="M64.62,36.52l0,6.16c-.72-.14-1.44-.3-2.13-.48V36c.7.19,1.42.35,2.14.49" style="fill:#516976"/><path d="M62.48,36V42.2c-.86-.23-1.68-.48-2.48-.77l0-6.17c.8.29,1.62.55,2.47.77" style="fill:#4e6572"/><path d="M60,35.26l0,6.17a24.85,24.85,0,0,1-2.91-1.29l0-6.17A21.36,21.36,0,0,0,60,35.26" style="fill:#4b616e"/></g></g></g><rect width="120" height="120" style="fill:#fff;opacity:0"/></svg>