<svg xmlns="http://www.w3.org/2000/svg" viewBox="0 0 120 120"><polygon points="119.25 75.11 86.28 94.27 0.74 44.89 33.72 25.73 119.25 75.11" style="fill:#6f8e4a"/><polygon points="0.75 42.84 33.72 23.68 33.71 27.77 0.74 46.93 0.75 42.84" style="fill:#4b5e33"/><ellipse cx="82.31" cy="87.02" rx="4.49" ry="3.31" style="fill:#777"/><path d="M83.25,89.69c-2.48,0-4.49-1.49-4.49-3.31a2.82,2.82,0,0,1,1-2.09A3.19,3.19,0,0,0,77.82,87c0,1.82,2,3.3,4.49,3.3A5.2,5.2,0,0,0,85.8,89.1,5.61,5.61,0,0,1,83.25,89.69Z" style="fill:#515151"/><path d="M82.31,83.71a5.38,5.38,0,0,0-3.07.9,5.66,5.66,0,0,1,2-.34c2.48,0,4.49,1.48,4.49,3.31A3,3,0,0,1,84.28,90a3.4,3.4,0,0,0,2.52-3C86.8,85.19,84.79,83.71,82.31,83.71Z" style="fill:#878787"/><path d="M83.59,91.56C83.35,87.93,81.88,87,81.88,87a6.72,6.72,0,0,1,3.55,4.1c.37-2.46,3.07-6.21,3.07-6.21-.49,4.57.24,6.68.24,6.68Z" style="fill:#9ad630"/><path d="M66.55,79.87c-.24-3.64-1.71-4.57-1.71-4.57a6.69,6.69,0,0,1,3.55,4.1c.37-2.46,3.07-6.21,3.07-6.21-.49,4.57.24,6.68.24,6.68Z" style="fill:#9ad630"/><path d="M70.9,78.87c-.25-3.64-1.72-4.58-1.72-4.58a6.72,6.72,0,0,1,3.56,4.11c.36-2.47,3.06-6.22,3.06-6.22-.49,4.58.25,6.69.25,6.69Z" style="fill:#9ad630"/><path d="M80.71,91.56c-.17-2.46-1.16-3.09-1.16-3.09A4.52,4.52,0,0,1,82,91.24,13.51,13.51,0,0,1,84,87a11.46,11.46,0,0,0,.17,4.52Z" style="fill:#9ad630"/><path d="M89.57,91.56c-.17-2.46-1.16-3.09-1.16-3.09a4.52,4.52,0,0,1,2.4,2.77A13.46,13.46,0,0,1,92.89,87a11.63,11.63,0,0,0,.16,4.52Z" style="fill:#9ad630"/><polygon points="33.72 23.68 119.26 73.07 119.25 77.16 33.71 27.77 33.72 23.68" style="fill:#344123"/><ellipse cx="87.31" cy="69.69" rx="7.04" ry="4.17" style="fill:#8c9b57"/><path d="M92.89,68.85c0,2.3-3.15,4.17-7,4.17a10.66,10.66,0,0,1-3.89-.7,9.5,9.5,0,0,0,5.44,1.53c3.89,0,7-1.87,7-4.17,0-1.45-1.25-2.72-3.14-3.47A3.36,3.36,0,0,1,92.89,68.85Z" style="fill:#869156"/><ellipse cx="80.52" cy="68.43" rx="5.58" ry="5.42" style="fill:#8c9b57"/><ellipse cx="74.7" cy="66.35" rx="7.04" ry="4.17" style="fill:#8c9b57"/><ellipse cx="79.55" cy="61.97" rx="3.64" ry="2.71" style="fill:#8c9b57"/><ellipse cx="88.52" cy="64.89" rx="8.73" ry="5.63" style="fill:#8c9b57"/><path d="M85.13,68a5.51,5.51,0,0,1-5.58,5.42A5.74,5.74,0,0,1,78,73.23a5.71,5.71,0,0,0,2.58.62,5.51,5.51,0,0,0,5.58-5.42,5.44,5.44,0,0,0-4.07-5.21A5.39,5.39,0,0,1,85.13,68Z" style="fill:#869156"/><path d="M79.83,64.63a3.58,3.58,0,0,0,.12.87c.77-2.6,4.31-4.57,8.57-4.57s8,2.07,8.62,4.76a3.73,3.73,0,0,0,.16-1.06c0-3.1-3.91-5.62-8.73-5.62S79.83,61.53,79.83,64.63Z" style="fill:#82b650"/><path d="M67.66,66.35a2.67,2.67,0,0,0,.23,1c.78-1.79,3.53-3.12,6.81-3.12s6,1.33,6.8,3.12a2.67,2.67,0,0,0,.23-1c0-2.3-3.15-4.17-7-4.17S67.66,64.05,67.66,66.35Z" style="fill:#82b650"/><path d="M75.71,61.72a2.17,2.17,0,0,0,.1.62,4.05,4.05,0,0,1,7.08,0,2.17,2.17,0,0,0,.1-.62c0-1.5-1.63-2.71-3.64-2.71S75.71,60.22,75.71,61.72Z" style="fill:#82b650"/><ellipse cx="100.62" cy="70.39" rx="9.23" ry="7.56" style="fill:#8c9b57"/><path d="M102.54,76.49c-5.1,0-9.23-3.38-9.23-7.56a6.75,6.75,0,0,1,2.06-4.76,7.29,7.29,0,0,0-4,6.22c0,4.18,4.14,7.56,9.24,7.56a10.09,10.09,0,0,0,7.17-2.8A10.61,10.61,0,0,1,102.54,76.49Z" style="fill:#869156"/><path d="M100.62,62.83a10.4,10.4,0,0,0-6.33,2,10.89,10.89,0,0,1,4-.76c5.1,0,9.24,3.38,9.24,7.56a7,7,0,0,1-2.91,5.51c3.07-1.23,5.18-3.81,5.18-6.8C109.85,66.21,105.72,62.83,100.62,62.83Z" style="fill:#82b650"/><ellipse cx="100.05" cy="79.51" rx="6.09" ry="3.44" style="fill:#8c9b57"/><path d="M102,82.3c-3.36,0-6.08-1.56-6.08-3.47,0-1.09.88-2.06,2.25-2.7-2.42.46-4.18,1.76-4.18,3.3,0,1.91,2.73,3.46,6.08,3.46a9.33,9.33,0,0,0,3.83-.77A10.56,10.56,0,0,1,102,82.3Z" style="fill:#869156"/><ellipse cx="109.06" cy="75.16" rx="6.72" ry="4.21" style="fill:#8c9b57"/><path d="M110.46,78.56c-3.71,0-6.72-1.89-6.72-4.21a3.39,3.39,0,0,1,1.5-2.65c-1.75.76-2.9,2-2.9,3.46,0,2.32,3,4.21,6.72,4.21a8.67,8.67,0,0,0,5.21-1.56A9.62,9.62,0,0,1,110.46,78.56Z" style="fill:#869156"/><path d="M109.06,71a9.16,9.16,0,0,0-4.6,1.14,10.19,10.19,0,0,1,2.94-.42c3.71,0,6.72,1.88,6.72,4.21A3.7,3.7,0,0,1,112,78.94c2.24-.68,3.77-2.12,3.77-3.78C115.77,72.83,112.77,71,109.06,71Z" style="fill:#82b650"/><polygon points="119.26 73.07 119.25 77.16 86.28 96.32 86.29 92.23 119.26 73.07" style="fill:#4b5e33"/><polygon points="42.61 62.68 42.65 62.77 42.59 62.85 43.8 63.19 42.29 62.95 43.11 63.31 42.87 63.35 42.5 63.3 43.04 63.72 43.04 63.88 44.02 64.74 42.81 64.05 42.52 63.99 43.46 65.04 42.59 64.43 42.58 64.62 41.78 63.91 43 65.64 42.83 65.72 42.62 65.73 41.96 65.03 42.08 65.52 41.18 64.24 41.89 65.82 41.35 65.11 41.05 64.8 40.95 64.89 40.94 65.22 40.9 65.51 40.47 64.75 40.46 65.12 40.7 66.36 40.58 66.52 39.95 64.79 39.92 65.19 40.08 66.52 39.91 66.48 39.87 67.14 39.43 65.49 39.3 65.58 39.06 64.83 38.99 65.37 38.81 64.87 38.81 66.64 38.63 66.3 38.48 66.15 38.32 65.93 38.18 65.42 38.02 66.63 37.85 66.97 37.73 66.13 37.57 66.26 37.5 65.35 37.41 64.86 37.18 65.71 37.02 65.79 36.8 66.29 36.57 66.7 36.56 65.9 36.16 67.03 36.45 65.11 36.39 64.82 36.02 65.63 35.94 65.41 35.61 65.97 35.8 64.97 35.3 65.91 35.03 66.17 34.94 65.96 35.31 64.78 35.15 64.8 34.61 65.54 35.12 64.32 34.98 64.32 34.97 64.13 34.64 64.4 34.32 64.62 33.93 64.91 34.44 64.07 34.14 64.22 34.15 64.03 34.21 63.8 33.43 64.33 34.36 63.41 32.8 64.41 32.93 64.11 33.84 63.42 32.19 64.1 32.61 63.71 33.05 63.38 33.82 63.02 32.73 63.15 33.27 62.92 33.12 62.81 32.54 62.68 34.01 62.62 31.79 62.24 32.38 62.14 31.99 61.85 33.09 62.01 33.27 61.93 33.76 62.02 33.62 61.82 32.99 61.29 33.45 61.41 34.04 61.7 33.28 60.91 32.74 60.18 34.3 61.48 34.56 61.6 33.99 60.78 33.77 60.26 34.59 61.11 34.84 61.25 34.05 59.81 34.24 59.8 34.16 59.34 34.29 59.21 35.23 60.73 34.75 59.38 35.64 61.02 34.88 58.84 35.38 59.66 35.59 59.8 35.84 60.11 36.2 60.81 35.88 59.22 36.27 60.09 36.3 59.65 36.18 58.45 36.75 60.41 36.89 60.48 37.01 60.41 36.91 58.77 37.09 58.91 37.17 58.18 37.5 60.01 37.54 58.72 37.69 58.4 37.88 59.45 38.03 59.6 38.18 58.13 38.31 60.06 38.46 59.67 38.62 59.24 38.72 60.08 38.95 58.9 39.12 58.84 39.18 59.61 39.19 60.52 39.41 59.98 39.74 58.93 39.86 59.15 39.76 60.29 40.26 58.77 40.24 59.5 40.41 59.46 40.74 58.88 40.74 59.41 40.93 59.34 40.8 60.11 41.13 59.68 40.92 60.54 41.37 59.88 40.99 60.99 41.57 60.14 42.22 59.28 41.68 60.52 41.5 61.06 42.03 60.51 42.55 60.03 42.86 59.91 42.26 60.89 43.37 59.88 42.83 60.7 42.75 60.99 43.07 60.91 42.61 61.47 43.06 61.3 43.41 61.26 42.18 62.14 42.48 62.08 43.25 61.86 43.23 62.02 44.18 61.9 43.49 62.24 43.73 62.36 42.43 62.61 42.61 62.68" style="fill:#a9ef3a"/><polygon points="55.64 68.03 55.68 68.12 55.62 68.2 56.83 68.54 55.33 68.3 56.14 68.66 55.9 68.69 55.53 68.65 56.07 69.06 56.07 69.22 57.05 70.08 55.84 69.4 55.55 69.33 56.49 70.39 55.62 69.77 55.61 69.97 54.81 69.26 56.03 70.99 55.86 71.06 55.65 71.08 54.99 70.38 55.12 70.86 54.22 69.59 54.92 71.17 54.38 70.46 54.08 70.15 53.98 70.24 53.97 70.56 53.93 70.86 53.51 70.1 53.49 70.47 53.73 71.71 53.61 71.87 52.99 70.13 52.95 70.53 53.11 71.86 52.94 71.83 52.9 72.49 52.46 70.84 52.33 70.93 52.09 70.17 52.02 70.72 51.84 70.22 51.84 71.98 51.66 71.65 51.51 71.49 51.35 71.27 51.21 70.76 51.05 71.97 50.88 72.32 50.76 71.48 50.6 71.61 50.53 70.7 50.44 70.2 50.21 71.06 50.05 71.13 49.83 71.64 49.6 72.05 49.59 71.25 49.19 72.37 49.48 70.46 49.42 70.17 49.05 70.98 48.97 70.76 48.64 71.31 48.83 70.31 48.33 71.26 48.06 71.51 47.97 71.31 48.34 70.13 48.18 70.15 47.64 70.89 48.15 69.67 48.02 69.67 48 69.47 47.67 69.75 47.35 69.97 46.96 70.25 47.47 69.41 47.17 69.56 47.18 69.38 47.24 69.15 46.46 69.68 47.39 68.76 45.83 69.75 45.96 69.46 46.87 68.77 45.23 69.45 45.64 69.05 46.08 68.72 46.85 68.36 45.76 68.5 46.3 68.27 46.15 68.16 45.57 68.03 47.04 67.96 44.83 67.59 45.41 67.49 45.02 67.19 46.13 67.35 46.3 67.27 46.79 67.37 46.65 67.17 46.02 66.63 46.48 66.76 47.07 67.04 46.31 66.25 45.77 65.53 47.33 66.83 47.59 66.95 47.03 66.12 46.8 65.61 47.62 66.46 47.87 66.6 47.08 65.15 47.27 65.14 47.19 64.68 47.32 64.56 48.27 66.07 47.78 64.73 48.67 66.36 47.91 64.18 48.41 65.01 48.62 65.15 48.88 65.46 49.23 66.15 48.91 64.56 49.3 65.44 49.33 65 49.22 63.79 49.78 65.75 49.92 65.82 50.04 65.76 49.94 64.12 50.12 64.26 50.2 63.52 50.53 65.36 50.57 64.06 50.72 63.75 50.91 64.79 51.06 64.95 51.21 63.48 51.34 65.4 51.49 65.02 51.65 64.59 51.74 65.42 51.98 64.25 52.15 64.19 52.21 64.95 52.23 65.86 52.44 65.33 52.77 64.28 52.89 64.49 52.79 65.64 53.29 64.12 53.27 64.85 53.44 64.8 53.77 64.23 53.77 64.76 53.96 64.69 53.83 65.46 54.16 65.03 53.95 65.88 54.4 65.22 54.02 66.34 54.6 65.48 55.25 64.63 54.71 65.87 54.53 66.41 55.06 65.85 55.58 65.38 55.89 65.25 55.29 66.24 56.4 65.23 55.86 66.05 55.78 66.34 56.1 66.26 55.64 66.82 56.09 66.65 56.44 66.6 55.21 67.48 55.51 67.43 56.28 67.21 56.27 67.36 57.21 67.24 56.52 67.59 56.76 67.7 55.47 67.95 55.64 68.03" style="fill:#a9ef3a"/><ellipse cx="24.88" cy="41.53" rx="5.03" ry="3.55" style="fill:#8c9b57"/><path d="M28.87,40.82c0,2-2.25,3.55-5,3.55a6.6,6.6,0,0,1-2.78-.59A6,6,0,0,0,25,45.08c2.77,0,5-1.59,5-3.56a3.46,3.46,0,0,0-2.24-3A3,3,0,0,1,28.87,40.82Z" style="fill:#869156"/><ellipse cx="20.03" cy="40.46" rx="3.99" ry="4.62" style="fill:#8c9b57"/><ellipse cx="15.87" cy="38.68" rx="5.03" ry="3.55" style="fill:#8c9b57"/><ellipse cx="19.34" cy="34.95" rx="2.6" ry="2.31" style="fill:#8c9b57"/><ellipse cx="25.75" cy="37.44" rx="6.24" ry="4.8" style="fill:#8c9b57"/><path d="M23.32,40.11c0,2.55-1.78,4.62-4,4.62a3.49,3.49,0,0,1-1.08-.18,3.49,3.49,0,0,0,1.84.53c2.2,0,4-2.07,4-4.62A4.57,4.57,0,0,0,21.18,36,4.76,4.76,0,0,1,23.32,40.11Z" style="fill:#869156"/><path d="M19.54,37.22a3.65,3.65,0,0,0,.08.74c.55-2.22,3.08-3.9,6.13-3.9s5.69,1.76,6.15,4.06a3.37,3.37,0,0,0,.12-.9c0-2.65-2.8-4.8-6.24-4.8S19.54,34.57,19.54,37.22Z" style="fill:#82b650"/><path d="M10.84,38.68a2.65,2.65,0,0,0,.17.89c.56-1.53,2.52-2.66,4.86-2.66s4.3,1.13,4.86,2.66a2.65,2.65,0,0,0,.17-.89c0-2-2.25-3.55-5-3.55S10.84,36.72,10.84,38.68Z" style="fill:#82b650"/><path d="M16.59,34.73a1.84,1.84,0,0,0,.08.53,2.69,2.69,0,0,1,5,0,1.83,1.83,0,0,0,.07-.53,2.47,2.47,0,0,0-2.6-2.31A2.48,2.48,0,0,0,16.59,34.73Z" style="fill:#82b650"/><ellipse cx="6.88" cy="45.6" rx="3.5" ry="1.86" style="fill:#8c9b57"/><path d="M8,47.1c-1.93,0-3.5-.84-3.5-1.88,0-.58.51-1.11,1.3-1.45-1.39.25-2.4.95-2.4,1.78,0,1,1.56,1.87,3.5,1.87A5.64,5.64,0,0,0,9.08,47,6.43,6.43,0,0,1,8,47.1Z" style="fill:#869156"/><ellipse cx="12.55" cy="43.86" rx="5.31" ry="4.09" style="fill:#8c9b57"/><path d="M13.66,47.16c-2.93,0-5.31-1.83-5.31-4.09A3.54,3.54,0,0,1,9.53,40.5a3.93,3.93,0,0,0-2.29,3.36c0,2.26,2.38,4.09,5.31,4.09a6,6,0,0,0,4.13-1.52A6.42,6.42,0,0,1,13.66,47.16Z" style="fill:#869156"/><path d="M12.55,39.77a6.21,6.21,0,0,0-3.63,1.12,6.48,6.48,0,0,1,2.33-.42c2.93,0,5.31,1.83,5.31,4.09a3.7,3.7,0,0,1-1.67,3,4.15,4.15,0,0,0,3-3.67C17.87,41.6,15.49,39.77,12.55,39.77Z" style="fill:#82b650"/><ellipse cx="15.94" cy="47.5" rx="3.86" ry="2.28" style="fill:#8c9b57"/><path d="M16.74,49.34c-2.13,0-3.86-1-3.86-2.28a1.81,1.81,0,0,1,.86-1.43c-1,.41-1.67,1.09-1.67,1.87,0,1.26,1.73,2.28,3.87,2.28a5.18,5.18,0,0,0,3-.85A5.79,5.79,0,0,1,16.74,49.34Z" style="fill:#869156"/><path d="M15.94,45.22a5.58,5.58,0,0,0-2.65.62A6.06,6.06,0,0,1,15,45.61c2.14,0,3.87,1,3.87,2.28a2,2,0,0,1-1.22,1.65c1.28-.37,2.17-1.14,2.17-2C19.8,46.24,18.07,45.22,15.94,45.22Z" style="fill:#82b650"/><ellipse cx="69.5" cy="53.43" rx="6.71" ry="5.2" style="fill:#8c9b57"/><path d="M74.81,52.39c0,2.88-3,5.2-6.7,5.2a8.13,8.13,0,0,1-3.72-.87,7.55,7.55,0,0,0,5.19,1.91c3.71,0,6.71-2.33,6.71-5.2a5,5,0,0,0-3-4.33A4.55,4.55,0,0,1,74.81,52.39Z" style="fill:#869156"/><ellipse cx="63.02" cy="51.87" rx="5.32" ry="6.76" style="fill:#8c9b57"/><ellipse cx="57.47" cy="49.27" rx="6.71" ry="5.2" style="fill:#8c9b57"/><ellipse cx="62.1" cy="43.81" rx="3.47" ry="3.38" style="fill:#8c9b57"/><ellipse cx="70.65" cy="47.45" rx="8.33" ry="7.02" style="fill:#8c9b57"/><path d="M67.41,51.35c0,3.74-2.38,6.76-5.31,6.76a4.31,4.31,0,0,1-1.44-.25,4.39,4.39,0,0,0,2.46.77c2.94,0,5.32-3,5.32-6.76,0-3.1-1.64-5.71-3.88-6.51A7.15,7.15,0,0,1,67.41,51.35Z" style="fill:#869156"/><path d="M62.37,47.13a5.49,5.49,0,0,0,.11,1.08c.73-3.24,4.11-5.7,8.17-5.7s7.6,2.58,8.22,5.94A6.43,6.43,0,0,0,79,47.13c0-3.88-3.73-7-8.33-7S62.37,43.25,62.37,47.13Z" style="fill:#82b650"/><path d="M50.76,49.27a4,4,0,0,0,.22,1.3c.75-2.24,3.37-3.9,6.49-3.9s5.74,1.66,6.49,3.9a4,4,0,0,0,.22-1.3c0-2.87-3-5.2-6.71-5.2S50.76,46.4,50.76,49.27Z" style="fill:#82b650"/><path d="M58.44,43.49a3.33,3.33,0,0,0,.09.78,3.49,3.49,0,0,1,6.75,0,3.33,3.33,0,0,0,.1-.78,3.47,3.47,0,0,0-6.94,0Z" style="fill:#82b650"/><ellipse cx="45.47" cy="59.39" rx="4.67" ry="2.72" style="fill:#8c9b57"/><path d="M46.94,61.58c-2.57,0-4.67-1.22-4.67-2.74A2.59,2.59,0,0,1,44,56.71c-1.87.36-3.21,1.39-3.21,2.61,0,1.51,2.09,2.74,4.67,2.74a7,7,0,0,0,2.94-.61A8.64,8.64,0,0,1,46.94,61.58Z" style="fill:#869156"/><ellipse cx="53.05" cy="56.85" rx="7.09" ry="5.98" style="fill:#8c9b57"/><path d="M54.52,61.67c-3.91,0-7.09-2.67-7.09-6A5.46,5.46,0,0,1,49,51.93a5.78,5.78,0,0,0-3,4.92c0,3.3,3.17,6,7.09,6a7.63,7.63,0,0,0,5.5-2.22A8,8,0,0,1,54.52,61.67Z" style="fill:#869156"/><path d="M53.05,50.87a7.87,7.87,0,0,0-4.86,1.62,8.28,8.28,0,0,1,3.11-.6c3.92,0,7.09,2.68,7.09,6a5.58,5.58,0,0,1-2.23,4.35,6,6,0,0,0,4-5.37C60.14,53.55,57,50.87,53.05,50.87Z" style="fill:#82b650"/><ellipse cx="57.56" cy="62.17" rx="5.16" ry="3.33" style="fill:#8c9b57"/><path d="M58.63,64.86c-2.85,0-5.15-1.49-5.15-3.33a2.71,2.71,0,0,1,1.15-2.1,3.25,3.25,0,0,0-2.23,2.74c0,1.84,2.31,3.33,5.16,3.33a6.5,6.5,0,0,0,4-1.23A7.25,7.25,0,0,1,58.63,64.86Z" style="fill:#869156"/><path d="M57.56,58.84a6.87,6.87,0,0,0-3.53.91,7.39,7.39,0,0,1,2.26-.34c2.85,0,5.15,1.49,5.15,3.33a2.92,2.92,0,0,1-1.62,2.42c1.71-.54,2.89-1.67,2.89-3C62.71,60.33,60.41,58.84,57.56,58.84Z" style="fill:#82b650"/><polygon points="52.68 67.42 52.61 67.59 52.56 67.74 51.12 67.61 52.48 68.06 52.79 68.33 51.66 68.06 52.93 68.8 52.75 68.92 52.03 68.69 51.39 68.43 52.79 69.67 51.22 68.58 51.88 69.37 51.12 68.82 51.05 68.93 51.51 69.67 51.68 70.14 51.04 69.56 50.5 69.04 51.43 70.71 50.17 68.97 51.01 70.68 50.36 69.83 50.03 69.48 49.91 69.52 50.49 71.18 50.3 71.17 49.71 70.12 49.45 69.8 49.61 70.7 49.1 69.56 49.27 70.65 48.96 70.06 48.66 69.39 48.86 70.89 48.7 70.85 48.6 71.13 48.2 69.66 48.06 69.59 48.19 71.7 47.87 70.22 47.72 70.09 47.57 69.93 47.48 70.59 47.33 70.42 47.19 70.97 47.04 69.76 46.91 70.15 46.75 70.64 46.55 71.69 46.42 71.25 46.26 71.3 46.28 69.54 45.88 71.75 46 69.74 45.75 70.48 45.67 70.13 45.41 70.7 45.07 71.56 45.29 69.96 44.95 70.69 44.67 71.13 44.55 70.97 44.64 70.2 44.78 69.38 44.4 70.02 44.26 70.01 43.71 70.92 43.93 70.05 43.66 70.26 44.08 69.14 43.15 70.55 43.47 69.69 42.91 70.29 43.47 69.19 42.91 69.74 42.95 69.44 43.42 68.66 43.09 68.86 42.83 68.95 41.86 69.69 42.38 69 42.28 68.89 42.53 68.53 42.52 68.39 41.88 68.62 41.13 68.81 41.28 68.53 41.52 68.25 42.85 67.71 40.92 68.03 42.32 67.64 41.42 67.59 41.83 67.42 40.9 67.22 41.73 67.13 40.6 66.75 42.74 67.1 41.61 66.62 42.3 66.74 40.97 65.95 43.12 66.92 41.99 66.11 41.86 65.83 41.83 65.6 42.09 65.6 42.25 65.53 43.08 66.14 42.21 65.01 43.29 66.02 42.87 65.29 43.51 65.92 42.68 64.5 42.66 64.16 43.58 65.33 44.05 65.89 43.11 63.87 43.84 64.95 43.43 63.72 43.64 63.77 44.2 64.69 44.73 65.68 44.76 65.39 44.39 63.88 44.43 63.45 44.61 63.48 44.99 64.29 45.41 65.41 45.19 63.81 45.24 63.3 45.58 64.22 45.66 63.81 45.96 64.82 46.07 64.62 46.18 64.36 46.28 63.87 46.4 63.4 46.53 62.85 46.73 63.73 46.9 64.49 47.04 64.4 47.2 63.3 47.31 64.81 47.54 63.05 47.56 65.17 47.86 63.16 47.8 65.29 48.11 63.83 48.11 64.88 48.46 63.55 48.35 65.06 48.56 64.7 48.95 63.58 49.24 63.04 48.87 65.12 49.09 64.84 49.07 65.36 49.72 63.81 49.53 64.83 49.49 65.33 50.21 63.88 49.97 64.86 50.05 65.01 50.49 64.45 50.84 64.12 50.04 65.88 50.41 65.49 50.92 64.93 51.63 64.18 51.79 64.27 51.61 64.8 51.01 65.78 51.69 65.22 51.62 65.52 51.03 66.27 51.96 65.63 50.96 66.61 51.26 66.51 51.74 66.34 51.14 66.82 52.64 66.19 52.06 66.62 53.18 66.38 52.26 66.85 51.88 67.08 53.06 67.03 52.2 67.29 52.68 67.42" style="fill:#84c935"/><polygon points="60.99 72.37 61.03 72.46 60.96 72.54 62.17 72.88 60.67 72.64 61.48 73 61.24 73.04 60.88 72.99 61.42 73.41 61.41 73.56 62.39 74.43 61.18 73.74 60.9 73.68 61.84 74.73 60.97 74.11 60.95 74.31 60.16 73.6 61.38 75.33 61.21 75.41 61 75.42 60.34 74.72 60.46 75.21 59.56 73.93 60.26 75.51 59.73 74.8 59.43 74.49 59.32 74.58 59.31 74.91 59.28 75.2 58.85 74.44 58.84 74.81 59.08 76.05 58.96 76.21 58.33 74.47 58.3 74.88 58.45 76.21 58.28 76.17 58.24 76.83 57.8 75.18 57.67 75.27 57.44 74.52 57.37 75.06 57.19 74.56 57.19 76.33 57.01 75.99 56.85 75.84 56.7 75.61 56.55 75.11 56.4 76.31 56.23 76.66 56.1 75.82 55.95 75.95 55.87 75.04 55.79 74.55 55.55 75.4 55.4 75.47 55.17 75.98 54.94 76.39 54.94 75.59 54.54 76.72 54.82 74.81 54.76 74.51 54.4 75.32 54.32 75.1 53.98 75.65 54.17 74.66 53.67 75.6 53.4 75.86 53.31 75.65 53.69 74.47 53.53 74.49 52.99 75.23 53.5 74.01 53.36 74.01 53.34 73.82 53.02 74.09 52.7 74.31 52.3 74.59 52.81 73.76 52.52 73.91 52.52 73.72 52.59 73.5 51.81 74.02 52.74 73.11 51.18 74.1 51.31 73.8 52.21 73.11 50.57 73.79 50.99 73.4 51.42 73.06 52.2 72.71 51.1 72.84 51.65 72.61 51.49 72.5 50.92 72.37 52.39 72.31 50.17 71.93 50.75 71.83 50.37 71.54 51.47 71.7 51.64 71.62 52.13 71.71 51.99 71.51 51.37 70.98 51.82 71.1 52.41 71.39 51.66 70.6 51.12 69.87 52.67 71.17 52.93 71.29 52.37 70.47 52.15 69.95 52.97 70.8 53.22 70.94 52.43 69.5 52.61 69.49 52.54 69.03 52.67 68.9 53.61 70.42 53.13 69.07 54.02 70.7 53.26 68.52 53.76 69.35 53.97 69.49 54.22 69.8 54.58 70.5 54.25 68.9 54.64 69.78 54.68 69.34 54.56 68.13 55.13 70.1 55.27 70.17 55.39 70.1 55.29 68.46 55.46 68.6 55.54 67.87 55.87 69.7 55.92 68.4 56.06 68.09 56.26 69.14 56.41 69.29 56.55 67.82 56.69 69.75 56.84 69.36 57 68.93 57.09 69.77 57.33 68.59 57.49 68.53 57.56 69.3 57.57 70.21 57.78 69.67 58.12 68.62 58.23 68.84 58.14 69.98 58.64 68.46 58.62 69.19 58.78 69.15 59.12 68.57 59.12 69.11 59.3 69.03 59.18 69.8 59.51 69.37 59.3 70.23 59.75 69.56 59.36 70.68 59.95 69.83 60.6 68.97 60.06 70.21 59.88 70.75 60.4 70.19 60.93 69.72 61.24 69.6 60.64 70.58 61.74 69.57 61.21 70.39 61.13 70.68 61.45 70.6 60.99 71.16 61.44 70.99 61.79 70.95 60.55 71.83 60.85 71.77 61.63 71.55 61.61 71.7 62.56 71.59 61.86 71.93 62.11 72.05 60.81 72.3 60.99 72.37" style="fill:#a9ef3a"/><polygon points="62.37 62.74 62.3 62.91 62.25 63.06 60.81 62.93 62.17 63.38 62.48 63.65 61.35 63.38 62.62 64.12 62.44 64.25 61.72 64.01 61.08 63.75 62.48 64.99 60.91 63.91 61.57 64.69 60.81 64.14 60.74 64.25 61.2 64.99 61.37 65.46 60.73 64.89 60.19 64.36 61.12 66.03 59.86 64.29 60.7 66 60.05 65.15 59.72 64.8 59.6 64.84 60.18 66.5 59.98 66.49 59.4 65.44 59.14 65.12 59.3 66.02 58.78 64.89 58.96 65.97 58.65 65.38 58.35 64.72 58.55 66.22 58.39 66.17 58.28 66.45 57.89 64.98 57.75 64.91 57.88 67.02 57.56 65.54 57.41 65.42 57.26 65.25 57.16 65.91 57.01 65.74 56.88 66.29 56.73 65.08 56.59 65.47 56.44 65.97 56.24 67.01 56.11 66.57 55.95 66.62 55.97 64.86 55.57 67.07 55.69 65.06 55.44 65.8 55.36 65.45 55.1 66.03 54.76 66.89 54.98 65.28 54.64 66.02 54.36 66.45 54.24 66.29 54.33 65.53 54.47 64.71 54.09 65.35 53.95 65.33 53.4 66.24 53.62 65.37 53.35 65.58 53.77 64.46 52.84 65.87 53.16 65.01 52.6 65.62 53.16 64.51 52.6 65.07 52.64 64.77 53.11 63.98 52.78 64.18 52.52 64.27 51.55 65.01 52.07 64.32 51.97 64.21 52.22 63.86 52.21 63.72 51.57 63.94 50.82 64.13 50.97 63.85 51.21 63.57 52.53 63.03 50.61 63.35 52.01 62.96 51.11 62.91 51.52 62.74 50.59 62.54 51.42 62.45 50.29 62.07 52.43 62.43 51.3 61.95 51.99 62.06 50.66 61.28 52.81 62.24 51.68 61.44 51.55 61.15 51.52 60.92 51.78 60.92 51.94 60.85 52.77 61.46 51.9 60.33 52.98 61.34 52.56 60.61 53.2 61.24 52.37 59.83 52.35 59.48 53.27 60.65 53.74 61.21 52.8 59.19 53.53 60.27 53.12 59.04 53.33 59.09 53.89 60.01 54.42 61.01 54.45 60.72 54.08 59.21 54.12 58.78 54.3 58.8 54.68 59.62 55.1 60.74 54.88 59.13 54.93 58.62 55.27 59.55 55.35 59.14 55.65 60.14 55.76 59.94 55.87 59.68 55.97 59.19 56.09 58.72 56.22 58.17 56.42 59.05 56.59 59.81 56.73 59.73 56.89 58.63 57 60.13 57.23 58.38 57.24 60.49 57.55 58.48 57.49 60.61 57.8 59.15 57.8 60.2 58.15 58.87 58.04 60.39 58.25 60.02 58.64 58.9 58.93 58.36 58.56 60.44 58.78 60.16 58.76 60.68 59.41 59.13 59.22 60.15 59.18 60.65 59.9 59.21 59.66 60.18 59.74 60.33 60.18 59.77 60.53 59.44 59.73 61.21 60.1 60.81 60.61 60.25 61.31 59.5 61.48 59.59 61.3 60.12 60.7 61.1 61.38 60.54 61.3 60.84 60.72 61.6 61.65 60.95 60.65 61.93 60.95 61.83 61.43 61.66 60.83 62.14 62.33 61.51 61.75 61.95 62.87 61.7 61.95 62.18 61.57 62.4 62.75 62.36 61.89 62.61 62.37 62.74" style="fill:#84c935"/><polygon points="48.6 58.36 50.03 58.58 49.76 58.76 48.73 58.76 48.17 58.74 49.5 59.31 49.63 59.57 47.8 58.9 47.97 59.09 48.99 59.86 47.94 59.33 48.53 59.94 47.9 59.6 48.27 60.12 48.41 60.47 47.86 60.1 48.45 61.02 48.57 61.46 47.47 60.28 47.31 60.28 48.1 61.77 46.87 60.08 47.32 61.12 47.52 61.84 46.62 60.41 46.48 60.42 46.32 60.36 46.62 61.44 46.3 61.03 46.25 61.34 46.06 61.23 46.14 61.96 46.16 62.64 45.41 60.44 45.42 61.05 45.65 62.72 45.14 61.03 45.09 61.53 44.9 61.24 44.78 61.45 44.58 60.98 44.65 62.92 44.42 62.22 44.31 62.91 44.05 61.13 43.92 61.61 43.77 60.85 43.63 61.9 43.49 61.15 43.34 61.51 43.18 61.91 43.05 61.56 42.82 62.53 42.65 62.63 42.64 61.34 42.35 62.39 42.18 62.4 42.14 61.7 42.15 60.93 41.6 62.76 41.59 62.11 41.42 62.11 41.33 61.85 41.1 62.07 41 61.84 40.69 62.24 40.9 61.2 40.67 61.39 40.83 60.63 40.46 61.12 40.82 60.05 40.33 60.73 40.1 60.85 40.4 60.07 39.87 60.66 40.01 60.21 38.89 61.51 38.94 61.14 38.87 60.95 40 59.45 39.23 60.08 39.6 59.54 39.02 59.89 39.62 59.25 37.86 60.36 38.37 59.8 38.39 59.6 39.56 58.85 38.96 59.01 39.63 58.66 37.27 59.24 37.16 59.04 37.09 58.82 38.91 58.47 37.31 58.36 39.3 58.28 38.28 58.06 37.16 57.68 38.09 57.7 37.77 57.41 39.08 57.75 38.13 57.17 38.84 57.37 39.59 57.68 39.08 57.22 39.48 57.37 38.45 56.34 38.73 56.35 39.36 56.76 38.6 55.73 39.43 56.42 39.17 55.86 39.85 56.52 39.17 55.29 39.98 56.21 40.11 56.16 40.03 55.75 40.35 56.03 39.84 54.67 40.5 55.68 40.59 55.52 40.31 54.45 41.27 56.47 40.84 54.91 40.87 54.48 41.01 54.36 41.22 54.48 41.39 54.48 41.81 55.55 41.74 54.56 42.18 55.93 42.36 56.21 42.26 54.81 42.28 53.83 42.66 55.53 42.87 56.23 42.99 56.11 42.99 54.28 43.13 53.94 43.36 55.62 43.47 53.86 43.63 56.11 43.79 54.47 43.95 54.25 44.11 54.27 44.27 54.39 44.47 53.91 44.46 55.56 44.61 55.52 44.73 55.6 45.07 54.38 45.06 55.33 45.11 55.82 45.4 55.13 45.59 54.96 45.61 55.51 45.83 55.27 46.17 54.65 46.4 54.49 46.2 55.52 45.99 56.5 46.44 55.71 46.97 54.87 46.3 56.7 46.63 56.3 47.4 55.11 47.17 55.85 47.11 56.24 47.93 55.23 47.53 56.12 47.67 56.17 47.43 56.72 47.88 56.38 47.46 57.05 48.55 56.12 47.69 57.15 48.55 56.56 49.22 56.24 49.06 56.6 49.52 56.52 48.23 57.48 49.49 57 47.8 57.91 49.38 57.45 47.78 58.08 49.19 57.87 49.21 58.03 48.27 58.26 48.6 58.36" style="fill:#84c935"/><polygon points="86.29 92.23 86.28 96.32 0.74 46.93 0.75 42.84 86.29 92.23" style="fill:#344123"/><ellipse cx="32.43" cy="45.17" rx="4.07" ry="2.7" style="fill:#8c9b57"/><path d="M33.71,47.35c-2.25,0-4.07-1.22-4.07-2.72a2.53,2.53,0,0,1,1.51-2.12c-1.62.36-2.79,1.38-2.79,2.59,0,1.5,1.82,2.72,4.06,2.72a5.41,5.41,0,0,0,2.56-.6A6.51,6.51,0,0,1,33.71,47.35Z" style="fill:#869156"/><ellipse cx="46.13" cy="41.75" rx="4.49" ry="3.31" style="fill:#8c9b57"/><path d="M47.07,44.42c-2.48,0-4.49-1.49-4.49-3.31a2.82,2.82,0,0,1,1-2.09,3.19,3.19,0,0,0-1.94,2.73c0,1.82,2,3.31,4.49,3.31a5.2,5.2,0,0,0,3.49-1.23A5.67,5.67,0,0,1,47.07,44.42Z" style="fill:#869156"/><path d="M46.13,38.44a5.38,5.38,0,0,0-3.07.9A5.66,5.66,0,0,1,45,39c2.48,0,4.48,1.48,4.48,3.31a3,3,0,0,1-1.41,2.41,3.4,3.4,0,0,0,2.52-3C50.62,39.92,48.61,38.44,46.13,38.44Z" style="fill:#82b650"/><ellipse cx="41.16" cy="45.68" rx="6.17" ry="5.94" style="fill:#8c9b57"/><path d="M42.44,50.48a6.06,6.06,0,0,1-6.17-5.94,5.78,5.78,0,0,1,1.38-3.74A5.87,5.87,0,0,0,35,45.68a6.07,6.07,0,0,0,6.18,6A6.23,6.23,0,0,0,46,49.42,6.24,6.24,0,0,1,42.44,50.48Z" style="fill:#869156"/><path d="M41.16,39.74a6.28,6.28,0,0,0-4.23,1.62,6.29,6.29,0,0,1,2.71-.6,6.06,6.06,0,0,1,6.17,5.94A5.83,5.83,0,0,1,43.87,51a5.91,5.91,0,0,0,3.46-5.34A6.06,6.06,0,0,0,41.16,39.74Z" style="fill:#82b650"/><ellipse cx="32.43" cy="45.17" rx="4.07" ry="2.7" style="fill:#8c9b57"/><path d="M33.71,47.35c-2.25,0-4.07-1.22-4.07-2.72a2.53,2.53,0,0,1,1.51-2.12c-1.62.36-2.79,1.38-2.79,2.59,0,1.5,1.82,2.72,4.06,2.72a5.41,5.41,0,0,0,2.56-.6A6.51,6.51,0,0,1,33.71,47.35Z" style="fill:#869156"/><ellipse cx="46.13" cy="41.75" rx="4.49" ry="3.31" style="fill:#8c9b57"/><path d="M47.07,44.42c-2.48,0-4.49-1.49-4.49-3.31a2.82,2.82,0,0,1,1-2.09,3.19,3.19,0,0,0-1.94,2.73c0,1.82,2,3.31,4.49,3.31a5.2,5.2,0,0,0,3.49-1.23A5.67,5.67,0,0,1,47.07,44.42Z" style="fill:#869156"/><path d="M46.13,38.44a5.38,5.38,0,0,0-3.07.9A5.66,5.66,0,0,1,45,39c2.48,0,4.48,1.48,4.48,3.31a3,3,0,0,1-1.41,2.41,3.4,3.4,0,0,0,2.52-3C50.62,39.92,48.61,38.44,46.13,38.44Z" style="fill:#82b650"/><ellipse cx="41.16" cy="45.68" rx="6.17" ry="5.94" style="fill:#8c9b57"/><path d="M42.44,50.48a6.06,6.06,0,0,1-6.17-5.94,5.78,5.78,0,0,1,1.38-3.74A5.87,5.87,0,0,0,35,45.68a6.07,6.07,0,0,0,6.18,6A6.23,6.23,0,0,0,46,49.42,6.24,6.24,0,0,1,42.44,50.48Z" style="fill:#869156"/><path d="M41.16,39.74a6.28,6.28,0,0,0-4.23,1.62,6.29,6.29,0,0,1,2.71-.6,6.06,6.06,0,0,1,6.17,5.94A5.83,5.83,0,0,1,43.87,51a5.91,5.91,0,0,0,3.46-5.34A6.06,6.06,0,0,0,41.16,39.74Z" style="fill:#82b650"/><polygon points="57.44 61.86 57.97 62.03 56.49 62 57.56 62.29 57.71 62.48 57.75 62.66 58.54 63.16 57.81 63.05 56.89 62.73 57.06 62.98 57.12 63.19 57.73 63.84 56.32 62.88 57.52 64.15 57.5 64.39 56.91 64.02 56.72 64.04 56.85 64.45 56.17 63.81 56.14 64.01 56.09 64.19 56.64 65.39 55.32 63.43 56.3 65.52 55.7 64.71 55.09 63.77 55.59 65.22 55.42 65.25 55.42 65.68 55.06 65.19 54.69 64.56 54.28 63.71 54.41 64.6 54.64 66.06 54.02 64.2 53.84 63.98 54.15 66.18 53.56 63.88 53.52 64.39 53.49 65.13 53.22 64.18 53.1 64.24 53.02 64.86 52.86 64.56 52.71 64.31 52.65 66.32 52.47 65.88 52.31 65.35 52.18 64.42 52 65.66 51.92 64.35 51.64 66.39 51.62 64.68 51.52 64.29 51.17 66.05 51.02 65.98 50.89 65.72 50.78 65.45 50.85 64.3 50.53 65.17 50.46 64.81 50.19 65.29 50.16 64.83 49.81 65.45 49.45 66.05 49.58 65.15 49.82 64.09 49.2 65.25 49.44 64.3 48.68 65.6 48.69 65.2 48.65 64.91 49.21 63.59 48.88 63.91 49.13 63.26 48.36 64.19 47.56 65.03 47.56 64.73 48.75 63.04 47.45 64.3 47.14 64.38 46.86 64.38 48.48 62.73 48 62.99 46.44 63.94 48.2 62.58 46.56 63.39 48.14 62.4 47.15 62.72 47.66 62.39 47.34 62.37 46.23 62.46 47.23 62.12 48.18 61.93 45.85 61.86 46.45 61.68 46.43 61.49 47.67 61.56 46.43 61.11 46.42 60.9 46.7 60.81 46.8 60.67 47.83 61.05 47.66 60.8 48.38 61.15 48.21 60.9 46.92 59.65 46.81 59.3 48.08 60.3 47.4 59.35 47.56 59.27 48.15 59.75 47.82 59.05 48.03 59.05 48.58 59.59 48.03 58.4 48.95 59.67 49.39 60.21 48.89 58.92 49.32 59.48 49.04 58.51 49.55 59.31 49.11 57.78 49.59 58.6 50.21 59.99 50.06 59.06 50.22 59.12 50.48 59.56 50.47 58.97 50.55 58.66 50.46 57.47 51.03 59.65 50.89 57.99 51.2 59.02 51.35 59.12 51.41 58.4 51.49 57.55 51.79 59.45 51.83 57.76 52.02 58.48 52.15 57.35 52.31 58.14 52.44 59.7 52.65 57.37 52.75 58.58 52.9 58.65 53.03 58.81 53.11 59.38 53.24 59.38 53.33 59.7 53.44 59.81 53.65 59.39 54.04 58.1 54.12 58.47 54.13 59.1 54.45 58.4 54.44 59.01 54.3 59.94 54.72 59.08 54.78 59.31 54.83 59.59 55.2 59.03 55.57 58.55 54.98 60.2 55.24 59.94 56.03 58.72 56.14 58.86 55.84 59.66 55.56 60.36 56.93 58.58 56.35 59.68 56.45 59.79 56.22 60.28 55.92 60.8 55.98 60.89 56.61 60.43 57.66 59.7 57.6 59.98 57.28 60.43 57.37 60.55 56.4 61.27 58.06 60.56 58.52 60.57 56.92 61.35 56.55 61.56 58.26 61.29 57.41 61.6 56.38 61.8 57.44 61.86" style="fill:#a9ef3a"/><polygon points="62.79 64.87 63.32 65.04 61.83 65.01 62.91 65.3 63.06 65.49 63.1 65.67 63.89 66.17 63.15 66.06 62.24 65.74 62.4 65.99 62.47 66.19 63.07 66.85 61.67 65.89 62.87 67.16 62.84 67.39 62.26 67.02 62.07 67.05 62.19 67.46 61.52 66.82 61.49 67.02 61.43 67.19 61.99 68.4 60.67 66.43 61.64 68.53 61.05 67.72 60.44 66.78 60.93 68.22 60.77 68.26 60.76 68.69 60.41 68.2 60.03 67.56 59.63 66.72 59.75 67.61 59.99 69.06 59.37 67.21 59.19 66.99 59.5 69.18 58.91 66.89 58.87 67.4 58.84 68.14 58.57 67.19 58.45 67.25 58.37 67.87 58.21 67.56 58.06 67.32 57.99 69.33 57.82 68.89 57.66 68.35 57.53 67.43 57.35 68.67 57.26 67.36 56.99 69.39 56.97 67.69 56.87 67.3 56.52 69.06 56.36 68.99 56.24 68.73 56.13 68.45 56.2 67.31 55.87 68.18 55.8 67.82 55.53 68.29 55.5 67.83 55.16 68.46 54.79 69.05 54.93 68.15 55.16 67.1 54.55 68.26 54.79 67.31 54.03 68.61 54.03 68.2 54 67.92 54.56 66.6 54.22 66.91 54.48 66.27 53.7 67.2 52.9 68.04 52.9 67.74 54.1 66.04 52.8 67.31 52.48 67.38 52.2 67.39 53.83 65.73 53.34 65.99 51.79 66.94 53.55 65.59 51.91 66.39 53.49 65.41 52.49 65.73 53.01 65.4 52.68 65.37 51.58 65.47 52.58 65.13 53.53 64.94 51.2 64.87 51.79 64.69 51.77 64.5 53.02 64.56 51.78 64.11 51.76 63.91 52.04 63.82 52.15 63.67 53.18 64.05 53 63.81 53.73 64.16 53.55 63.91 52.26 62.66 52.16 62.3 53.43 63.31 52.74 62.36 52.9 62.28 53.5 62.76 53.17 62.05 53.38 62.06 53.92 62.6 53.37 61.41 54.29 62.67 54.74 63.22 54.23 61.93 54.66 62.49 54.39 61.51 54.89 62.31 54.46 60.79 54.94 61.6 55.56 62.99 55.4 62.06 55.57 62.13 55.83 62.57 55.82 61.98 55.9 61.66 55.81 60.48 56.38 62.66 56.24 61 56.55 62.02 56.7 62.12 56.76 61.41 56.84 60.55 57.13 62.46 57.18 60.76 57.36 61.49 57.49 60.36 57.66 61.15 57.79 62.71 57.99 60.38 58.1 61.59 58.24 61.66 58.37 61.82 58.46 62.39 58.59 62.39 58.68 62.71 58.79 62.82 58.99 62.4 59.38 61.11 59.47 61.48 59.47 62.1 59.8 61.4 59.78 62.02 59.65 62.95 60.06 62.09 60.13 62.32 60.17 62.6 60.54 62.04 60.91 61.55 60.33 63.2 60.58 62.95 61.37 61.73 61.48 61.87 61.19 62.67 60.91 63.37 62.27 61.58 61.69 62.69 61.79 62.8 61.57 63.29 61.26 63.81 61.33 63.89 61.95 63.44 63 62.71 62.95 62.99 62.63 63.44 62.71 63.56 61.74 64.28 63.4 63.56 63.86 63.58 62.27 64.36 61.9 64.57 63.6 64.3 62.75 64.61 61.72 64.81 62.79 64.87" style="fill:#a9ef3a"/><polygon points="51.71 62.28 51.16 62.44 51.54 62.64 51.15 62.75 49.95 62.58 51.61 63.24 50.51 62.99 50.31 63.03 51.59 63.88 51.56 64.1 51.53 64.33 49.54 63.03 50.19 63.71 50.01 63.72 49.83 63.73 50.62 64.78 49.68 63.94 49.61 64.07 49 63.47 49.19 63.93 49.96 65.36 49.31 64.61 49.3 64.87 49.62 65.82 48.7 64.35 48.54 64.31 48.47 64.48 48.56 65.04 48.03 64.06 48.66 66.19 48.52 66.31 48.37 66.41 48.05 65.93 47.86 65.81 47.38 64.51 47.46 65.46 47.34 65.6 47.25 65.94 47.15 66.3 46.86 65.42 46.62 64.68 46.64 66.09 46.46 65.82 46.32 66.02 46.15 65.62 46.04 66.73 45.84 64.75 45.7 64.75 45.57 64.76 45.44 64.77 45.32 64.57 45.11 65.66 44.87 66.76 44.88 65 44.66 65.69 44.67 64.53 44.42 65.3 44.4 64.59 44.17 65.07 43.92 65.58 43.58 66.36 43.34 66.61 43.47 65.52 43.14 66.08 43.03 65.89 43.33 64.56 42.92 65.27 42.43 66.07 42.48 65.52 42.44 65.22 41.86 66.05 42.03 65.36 42.54 64.12 42.54 63.87 42.07 64.38 42.09 64.11 41.62 64.54 41.87 63.97 41.53 64.17 41.26 64.26 41.47 63.84 41.75 63.4 41.03 63.87 41.84 63.05 39.79 64.38 40.28 63.82 39.96 63.8 39.61 63.75 40.17 63.29 41.29 62.73 39.95 63 40.97 62.6 39.92 62.64 39.74 62.47 40.98 62.28 41.09 62.18 41.49 62.14 40.97 61.96 39.69 61.49 41.31 61.84 41.17 61.68 40.71 61.34 40.06 60.81 41.36 61.41 40.82 60.9 40.05 60.11 41.98 61.51 41.41 60.84 42.02 61.28 41.94 61.03 41.53 60.38 41.99 60.74 41.09 59.31 42.45 60.97 41.31 58.99 42.09 59.93 42.01 59.5 42.2 59.53 42.64 60.08 43.01 60.55 42.5 59.08 43.09 60.12 43.1 59.76 42.82 58.55 43.26 59.37 43.56 59.86 43.27 58.32 43.7 59.32 43.92 59.61 44.13 59.94 44.12 59.21 44.37 59.77 44.27 58.34 44.39 58.01 44.78 59.83 44.93 59.97 44.87 57.81 45.17 59.75 45.23 58.25 45.39 58.29 45.56 58.88 45.7 57.75 45.85 58.74 46 58.97 46.09 60.09 46.34 58.23 46.5 58.33 46.71 57.83 46.7 59.3 46.84 59.3 46.85 60.09 47.03 59.85 47.34 58.98 47.43 59.27 47.85 58.14 48 58.21 47.63 60.11 47.93 59.58 48.05 59.66 48.53 58.72 48.48 59.31 48.59 59.45 48.85 59.21 48.86 59.56 49.33 58.95 48.92 60.08 49.02 60.17 49.44 59.74 49.88 59.32 49.15 60.7 49.93 59.84 50.59 59.25 49.59 60.72 50.9 59.47 50.01 60.65 50.53 60.35 50.63 60.48 50.73 60.6 51.48 60.27 50.04 61.42 51.21 60.9 50.69 61.34 50.57 61.54 51.99 61.19 51.46 61.56 50.44 61.96 51.4 61.94 51.51 62.1 51.71 62.28" style="fill:#5e9319"/><polygon points="60.06 68.96 59.51 69.12 59.89 69.33 59.5 69.43 58.3 69.27 59.96 69.92 58.86 69.67 58.66 69.72 59.94 70.56 59.91 70.78 59.88 71.01 57.89 69.71 58.55 70.39 58.36 70.41 58.19 70.41 58.97 71.47 58.03 70.62 57.97 70.75 57.36 70.15 57.55 70.61 58.31 72.04 57.66 71.29 57.65 71.56 57.98 72.5 57.05 71.03 56.89 70.99 56.82 71.16 56.91 71.72 56.38 70.74 57.01 72.87 56.87 72.99 56.72 73.09 56.41 72.61 56.21 72.49 55.74 71.19 55.81 72.14 55.69 72.29 55.6 72.62 55.5 72.98 55.22 72.11 54.98 71.36 54.99 72.77 54.81 72.5 54.67 72.7 54.5 72.3 54.39 73.41 54.19 71.43 54.06 71.43 53.92 71.44 53.79 71.45 53.67 71.25 53.46 72.34 53.22 73.44 53.24 71.68 53.01 72.37 53.03 71.21 52.77 71.98 52.76 71.28 52.53 71.75 52.27 72.27 51.93 73.04 51.69 73.3 51.82 72.21 51.49 72.76 51.38 72.57 51.68 71.24 51.27 71.96 50.78 72.75 50.84 72.2 50.8 71.91 50.21 72.74 50.38 72.04 50.89 70.8 50.89 70.55 50.42 71.06 50.44 70.8 49.97 71.22 50.23 70.65 49.88 70.86 49.61 70.94 49.82 70.52 50.1 70.08 49.38 70.55 50.19 69.73 48.15 71.06 48.63 70.5 48.31 70.48 47.97 70.44 48.52 69.97 49.64 69.41 48.31 69.68 49.32 69.29 48.28 69.32 48.09 69.15 49.33 68.96 49.44 68.86 49.85 68.82 49.32 68.64 48.04 68.17 49.66 68.52 49.52 68.36 49.07 68.02 48.41 67.5 49.71 68.09 49.17 67.58 48.4 66.79 50.33 68.19 49.76 67.53 50.37 67.96 50.29 67.72 49.89 67.07 50.34 67.42 49.45 65.99 50.8 67.65 49.67 65.67 50.44 66.61 50.36 66.18 50.55 66.21 51 66.77 51.36 67.24 50.86 65.77 51.45 66.8 51.45 66.44 51.17 65.23 51.61 66.05 51.92 66.54 51.62 65 52.05 66 52.27 66.29 52.48 66.62 52.47 65.89 52.72 66.45 52.62 65.02 52.74 64.69 53.13 66.51 53.28 66.65 53.22 64.5 53.52 66.43 53.58 64.93 53.74 64.97 53.91 65.56 54.06 64.43 54.21 65.43 54.35 65.65 54.44 66.77 54.7 64.91 54.85 65.01 55.06 64.51 55.05 65.98 55.19 65.99 55.21 66.78 55.38 66.53 55.69 65.67 55.78 65.95 56.2 64.82 56.35 64.89 55.99 66.79 56.28 66.26 56.41 66.34 56.89 65.4 56.83 66 56.94 66.13 57.2 65.89 57.21 66.25 57.68 65.63 57.27 66.76 57.38 66.85 57.79 66.43 58.24 66.01 57.5 67.38 58.28 66.52 58.94 65.94 57.95 67.4 59.25 66.16 58.37 67.33 58.89 67.03 58.98 67.16 59.09 67.28 59.84 66.95 58.4 68.1 59.56 67.58 59.04 68.03 58.92 68.23 60.34 67.87 59.81 68.25 58.79 68.64 59.75 68.62 59.87 68.78 60.06 68.96" style="fill:#5e9319"/><ellipse cx="33.73" cy="29.75" rx="4.07" ry="2.7" style="fill:#777"/><path d="M35,31.93c-2.24,0-4.06-1.21-4.06-2.72a2.53,2.53,0,0,1,1.5-2.12c-1.62.36-2.79,1.38-2.79,2.59,0,1.5,1.82,2.72,4.07,2.72a5.37,5.37,0,0,0,2.55-.6A5.76,5.76,0,0,1,35,31.93Z" style="fill:#515151"/><ellipse cx="29.64" cy="53.92" rx="4.49" ry="3.31" style="fill:#777"/><path d="M30.58,56.59c-2.48,0-4.49-1.48-4.49-3.31a2.8,2.8,0,0,1,1-2.08,3.17,3.17,0,0,0-1.94,2.72c0,1.83,2,3.31,4.49,3.31A5.2,5.2,0,0,0,33.13,56,5.67,5.67,0,0,1,30.58,56.59Z" style="fill:#515151"/><path d="M29.64,50.61a5.38,5.38,0,0,0-3.07.9,5.66,5.66,0,0,1,2-.34C31,51.17,33,52.65,33,54.48a3,3,0,0,1-1.42,2.41,3.4,3.4,0,0,0,2.52-3C34.13,52.09,32.12,50.61,29.64,50.61Z" style="fill:#878787"/></svg>