<svg xmlns="http://www.w3.org/2000/svg" viewBox="0 0 120 120"><g style="opacity:0.2"><ellipse cx="72.71" cy="51.86" rx="5.71" ry="14.32" transform="translate(-3.65 98.17) rotate(-66.73)" style="fill:#4d4d4d"/></g><polygon points="107.1 65.68 85.69 78.12 64.13 65.68 85.54 53.23 107.1 65.68" style="fill:#708e4d"/><g style="isolation:isolate"><polygon points="85.55 50.71 107.1 63.15 107.09 68.2 85.53 55.76 85.55 50.71" style="fill:#8b5947"/><polygon points="64.14 63.15 85.55 50.71 85.53 55.76 64.12 68.2 64.14 63.15" style="fill:#8b5947"/><polygon points="107.1 63.15 107.09 68.2 85.67 80.65 85.69 75.59 107.1 63.15" style="fill:#8b5947"/><polygon points="85.69 75.59 85.67 80.65 64.12 68.2 64.14 63.15 85.69 75.59" style="fill:#8b5947"/></g><line x1="107" y1="33.86" x2="108.41" y2="33.86" style="fill:#8c9b57"/><path d="M102.88,26v3.6a12.39,12.39,0,0,1-12.65,12.1H86.48" style="fill:none;stroke:#552904;stroke-miterlimit:10;stroke-width:3px"/><path d="M104.08,25.41v4a13.78,13.78,0,0,1-14,13.5H85.87" style="fill:none;stroke:#82592c;stroke-miterlimit:10;stroke-width:4px"/><line x1="69.31" y1="34.53" x2="68.2" y2="34.53" style="fill:#8c9b57"/><path d="M72,34.94v2.85a9.82,9.82,0,0,0,10,9.6h3" style="fill:none;stroke:#552904;stroke-miterlimit:10;stroke-width:3px"/><path d="M73.44,35.07V38A9.94,9.94,0,0,0,83.57,47.7h3" style="fill:none;stroke:#82592c;stroke-miterlimit:10;stroke-width:4px"/><rect x="84.02" y="31.48" width="2.32" height="32.31" style="fill:#552904"/><rect x="84.67" y="31.48" width="2.32" height="32.31" style="fill:#82592c"/><ellipse cx="103.95" cy="19.79" rx="8.05" ry="9.35" style="fill:#8c9b57"/><path d="M104.78,28c-4.45,0-8-4.19-8-9.35a10.44,10.44,0,0,1,1.47-5.39,10.18,10.18,0,0,0-2.3,6.55c0,5.16,3.6,9.35,8,9.35a7.78,7.78,0,0,0,6.58-4A7.54,7.54,0,0,1,104.78,28Z" style="fill:#869156"/><path d="M104,10.42a7.73,7.73,0,0,0-6.46,3.77,7.3,7.3,0,0,1,4.8-1.85c4.45,0,8,4.19,8,9.35a10.34,10.34,0,0,1-1.59,5.58,9.91,9.91,0,0,0,3.25-7.5C112,14.6,108.4,10.42,104,10.42Z" style="fill:#82b650"/><ellipse cx="85.18" cy="18.07" rx="12.52" ry="14.84" style="fill:#8c9b57"/><path d="M85.18,3.23a11.23,11.23,0,0,0-7.55,3,10.6,10.6,0,0,1,2.94-.41c6.91,0,12.52,6.64,12.52,14.83a15.9,15.9,0,0,1-5,11.83c5.49-1.57,9.57-7.43,9.57-14.42C97.7,9.87,92.1,3.23,85.18,3.23Z" style="fill:#82b650"/><ellipse cx="72.81" cy="31.71" rx="4.71" ry="5.91" style="fill:#8c9b57"/><path d="M73.28,36.67c-2.6,0-4.7-2.65-4.7-5.91a7.14,7.14,0,0,1,.5-2.65,6.91,6.91,0,0,0-1,3.6c0,3.26,2.11,5.9,4.71,5.9A4.72,4.72,0,0,0,77,34.35,4.45,4.45,0,0,1,73.28,36.67Z" style="fill:#869156"/><path d="M72.81,25.71a4.38,4.38,0,0,0-3.52,2A4,4,0,0,1,71.55,27c2.6,0,4.71,2.64,4.71,5.91a6.79,6.79,0,0,1-1.19,3.92,6.25,6.25,0,0,0,2.45-5.18C77.52,28.35,75.41,25.71,72.81,25.71Z" style="fill:#82b650"/><g style="opacity:0.2"><ellipse cx="21.4" cy="79.73" rx="7.72" ry="19.35" transform="translate(-60.3 67.9) rotate(-66.73)" style="fill:#4d4d4d"/></g><polygon points="67.89 98.41 38.95 115.23 9.81 98.41 38.75 81.59 67.89 98.41" style="fill:#708e4d"/><g style="isolation:isolate"><polygon points="38.76 78.18 67.89 95 67.87 101.83 38.74 85.01 38.76 78.18" style="fill:#8b5947"/><polygon points="9.81 95 38.76 78.18 38.74 85.01 9.8 101.83 9.81 95" style="fill:#8b5947"/><polygon points="67.89 95 67.87 101.83 38.93 118.65 38.95 111.82 67.89 95" style="fill:#8b5947"/><polygon points="38.95 111.82 38.93 118.65 9.8 101.83 9.81 95 38.95 111.82" style="fill:#8b5947"/></g><line x1="67.76" y1="55.41" x2="69.66" y2="55.41" style="fill:#8c9b57"/><path d="M62.18,44.8v4.85c0,9-7.65,16.36-17.09,16.36H40" style="fill:none;stroke:#552904;stroke-miterlimit:10;stroke-width:3px"/><path d="M63.81,44V49.4c0,10.08-8.49,18.25-19,18.25H39.2" style="fill:none;stroke:#82592c;stroke-miterlimit:10;stroke-width:4px"/><line x1="16.81" y1="56.31" x2="15.31" y2="56.31" style="fill:#8c9b57"/><path d="M20.42,56.87v3.85c0,7.17,6.07,13,13.56,13h4" style="fill:none;stroke:#552904;stroke-miterlimit:10;stroke-width:3px"/><path d="M22.39,57V61A13.44,13.44,0,0,0,36.08,74.11h4.07" style="fill:none;stroke:#82592c;stroke-miterlimit:10;stroke-width:4px"/><rect x="36.7" y="52.19" width="3.14" height="43.68" style="fill:#552904"/><rect x="37.57" y="52.19" width="3.14" height="43.68" style="fill:#82592c"/><ellipse cx="63.63" cy="36.38" rx="10.88" ry="12.64" style="fill:#8c9b57"/><path d="M64.75,47.45c-6,0-10.88-5.65-10.88-12.63a14,14,0,0,1,2-7.28,13.72,13.72,0,0,0-3.11,8.84c0,7,4.87,12.64,10.88,12.64a10.5,10.5,0,0,0,8.89-5.36A10.15,10.15,0,0,1,64.75,47.45Z" style="fill:#869156"/><path d="M63.63,23.72a10.46,10.46,0,0,0-8.73,5.09,9.91,9.91,0,0,1,6.49-2.49c6,0,10.88,5.66,10.88,12.64a13.93,13.93,0,0,1-2.15,7.53,13.34,13.34,0,0,0,4.39-10.14C74.51,29.37,69.64,23.72,63.63,23.72Z" style="fill:#82b650"/><ellipse cx="38.27" cy="34.06" rx="16.92" ry="20.06" style="fill:#8c9b57"/><path d="M38.27,14a15.24,15.24,0,0,0-10.22,4.07,14.66,14.66,0,0,1,4-.56c9.34,0,16.92,9,16.92,20.06a21.47,21.47,0,0,1-6.7,16c7.42-2.12,12.94-10,12.94-19.49C55.19,23,47.61,14,38.27,14Z" style="fill:#82b650"/><ellipse cx="21.54" cy="52.49" rx="6.36" ry="7.98" style="fill:#8c9b57"/><path d="M22.18,59.2c-3.51,0-6.36-3.58-6.36-8a9.63,9.63,0,0,1,.67-3.58,9.31,9.31,0,0,0-1.31,4.85c0,4.41,2.85,8,6.36,8,2.49,0,4.65-1.8,5.69-4.41A6,6,0,0,1,22.18,59.2Z" style="fill:#869156"/><path d="M21.54,44.39a5.86,5.86,0,0,0-4.75,2.68,5.28,5.28,0,0,1,3.05-1c3.52,0,6.37,3.57,6.37,8a9.2,9.2,0,0,1-1.61,5.31,8.48,8.48,0,0,0,3.31-7C27.91,48,25.06,44.39,21.54,44.39Z" style="fill:#82b650"/><rect width="120" height="120" style="fill:#fff;opacity:0"/></svg>