<svg xmlns="http://www.w3.org/2000/svg" viewBox="0 0 120 120"><g style="isolation:isolate"><polygon points="116.97 48.27 117 57.55 32.4 106.4 32.37 97.12 116.97 48.27" style="fill:#bbb8b3"/><polygon points="32.4 106.4 3.03 89.33 3 80.05 32.37 97.12 32.4 106.4" style="fill:#817f7b"/><polygon points="32.37 97.12 3 80.05 87.61 31.21 116.97 48.27 32.37 97.12" style="fill:#d0cdc7"/></g><g style="isolation:isolate"><polygon points="107.43 23.36 107.5 46.1 28.06 91.96 28 69.22 107.43 23.36" style="fill:#b7381b"/><polygon points="28.06 91.96 11.28 82.21 11.22 59.47 28 69.22 28.06 91.96" style="fill:#7f2713"/><polygon points="28 69.22 11.22 59.47 90.65 13.6 107.43 23.36 28 69.22" style="fill:#cc3f1e"/></g><path d="M38.53,68.49a4.24,4.24,0,0,1,2.87-.81A2.33,2.33,0,0,1,43,69.39l-2.64,2.19A1.4,1.4,0,0,0,40,71a.81.81,0,0,0-.61-.25,1.57,1.57,0,0,0-.81.25,3.77,3.77,0,0,0-1.56,1.84,5.93,5.93,0,0,0-.39,2.41c0,1.24.16,2,.49,2.26s.78.23,1.37-.11a3.29,3.29,0,0,0,1.29-1.3,6.42,6.42,0,0,0,.64-2l2.61-.61a10.54,10.54,0,0,1-.82,2.6,8.72,8.72,0,0,1-1.4,2.08,8.86,8.86,0,0,1-2.14,1.68,6.33,6.33,0,0,1-2.58,1A2,2,0,0,1,34.39,80a4.88,4.88,0,0,1-.73-3,9.78,9.78,0,0,1,1.27-5A9.61,9.61,0,0,1,38.53,68.49Z" style="fill:#fff"/><path d="M52.82,61.72c.87.5,1.32,1.63,1.32,3.42a10.22,10.22,0,0,1-.56,3.51,9.86,9.86,0,0,1-1.64,2.89,9.74,9.74,0,0,1-2.69,2.25,6,6,0,0,1-2.7,1,2,2,0,0,1-1.74-.89A4.82,4.82,0,0,1,44.13,71a9.74,9.74,0,0,1,5-8.61C50.71,61.46,52,61.23,52.82,61.72Zm-2.18,8a6.43,6.43,0,0,0,.51-2.88c0-1-.18-1.71-.55-2s-.87-.22-1.5.14a3.73,3.73,0,0,0-1.44,1.57,5.78,5.78,0,0,0-.54,2.75c0,1.11.19,1.82.54,2.1s.86.24,1.49-.12a3.85,3.85,0,0,0,1.49-1.58" style="fill:#fff"/><path d="M64.06,55.24c.87.49,1.31,1.63,1.32,3.41a10.27,10.27,0,0,1-.57,3.52,9.55,9.55,0,0,1-1.64,2.89,9.72,9.72,0,0,1-2.68,2.25,5.91,5.91,0,0,1-2.7,1A2,2,0,0,1,56,67.37a5,5,0,0,1-.67-2.86,9.83,9.83,0,0,1,5-8.62C62,55,63.19,54.74,64.06,55.24Zm-2.19,8a6.39,6.39,0,0,0,.52-2.88c0-1-.19-1.7-.56-2s-.86-.23-1.49.13a3.85,3.85,0,0,0-1.45,1.58,6,6,0,0,0-.54,2.74c0,1.12.19,1.82.56,2.1s.85.25,1.47-.11a3.81,3.81,0,0,0,1.49-1.59" style="fill:#fff"/><polygon points="69.95 50.53 69.97 58.9 74.64 56.21 74.64 58.94 67 63.35 66.97 52.25 69.95 50.53" style="fill:#fff"/><polygon points="79.07 45.26 79.11 56.37 76.12 58.09 76.09 46.99 79.07 45.26" style="fill:#fff"/><polygon points="90.47 38.68 90.51 49.78 87.69 51.41 84.06 47.4 84.08 53.5 81.27 55.12 81.24 44.01 84.02 42.41 87.68 46.45 87.66 40.3 90.47 38.68" style="fill:#fff"/><path d="M97.29,34.56a8.21,8.21,0,0,1,2.4-1.05,1.71,1.71,0,0,1,1.32.27,2.5,2.5,0,0,1,.79,1.32l-2.88,2.26a.84.84,0,0,0-.6-.62,1.6,1.6,0,0,0-1.09.3,4,4,0,0,0-1.56,1.68,5.94,5.94,0,0,0-.57,2.81c0,1.21.19,1.95.59,2.24s.94.23,1.64-.18a4.63,4.63,0,0,0,1-.72,9.37,9.37,0,0,0,1-1.17v-1l-2,1.15V39.5l4.62-2.66v4.74a21.25,21.25,0,0,1-2.34,2.76,12.74,12.74,0,0,1-2.41,1.77,5.42,5.42,0,0,1-2.81.94,2,2,0,0,1-1.69-1,5.44,5.44,0,0,1-.6-2.71,10.13,10.13,0,0,1,2.55-6.69A10.58,10.58,0,0,1,97.29,34.56Z" style="fill:#fff"/><rect width="120" height="120" style="fill:#fff;opacity:0"/></svg>