<svg xmlns="http://www.w3.org/2000/svg" xmlns:xlink="http://www.w3.org/1999/xlink" viewBox="0 0 120 120"><defs><clipPath id="a"><rect width="120" height="120" style="fill:none"/></clipPath></defs><g style="clip-path:url(#a)"><g style="isolation:isolate"><polygon points="97.77 100.31 97.76 101.67 75.36 88.73 75.36 88.05 75.37 87.37 97.77 100.31" style="fill:#82807c"/><polygon points="97.77 100.31 98.94 99.62 98.94 100.98 97.76 101.67 97.77 100.31" style="fill:#bbb8b2"/><polygon points="75.37 87.37 76.54 86.69 98.94 99.62 97.77 100.31 75.37 87.37" style="fill:#d1cdc7"/></g><g style="isolation:isolate"><polygon points="100.93 93.25 100.95 100.1 96.75 102.53 96.73 95.67 100.93 93.25" style="fill:#c5c5c5"/><polygon points="96.75 102.53 95.58 101.84 95.56 94.99 96.73 95.67 96.75 102.53" style="fill:#888"/><polygon points="96.73 95.67 95.56 94.99 99.76 92.57 100.93 93.25 96.73 95.67" style="fill:#dbdbdb"/></g><g style="isolation:isolate"><polygon points="65.45 93.73 60.51 96.6 55.53 93.73 60.48 90.85 65.45 93.73" style="fill:#dcdcdc"/><polygon points="65.45 93.73 65.25 165.22 60.3 168.09 60.51 96.6 65.45 93.73" style="fill:#c5c5c5"/><polygon points="60.51 96.6 60.3 168.09 55.33 165.22 55.53 93.73 60.51 96.6" style="fill:#898989"/></g><g style="isolation:isolate"><polygon points="65.8 119.11 65.8 120.47 43.4 107.54 43.4 106.86 43.41 106.18 65.8 119.11" style="fill:#82807c"/><polygon points="65.8 119.11 66.98 118.43 66.97 119.79 65.8 120.47 65.8 119.11" style="fill:#bbb8b2"/><polygon points="43.41 106.18 44.58 105.5 66.98 118.43 65.8 119.11 43.41 106.18" style="fill:#d1cdc7"/></g><g style="isolation:isolate"><polygon points="68.97 112.06 68.99 118.91 64.79 121.34 64.77 114.48 68.97 112.06" style="fill:#c5c5c5"/><polygon points="64.79 121.34 63.61 120.66 63.59 113.8 64.77 114.48 64.79 121.34" style="fill:#888"/><polygon points="64.77 114.48 63.59 113.8 67.8 111.37 68.97 112.06 64.77 114.48" style="fill:#dbdbdb"/></g><g style="isolation:isolate"><polygon points="101.68 3.21 101.87 71.43 21.64 117.75 21.45 49.53 101.68 3.21" style="fill:#ed4923"/><polygon points="21.64 117.75 16.69 114.88 16.5 46.66 21.45 49.53 21.64 117.75" style="fill:#4d4d4d"/><polygon points="21.45 49.53 16.5 46.66 96.73 0.34 101.68 3.21 21.45 49.53" style="fill:#4d4d4d"/></g><g style="isolation:isolate"><polygon points="103.31 4.13 103.5 72.34 101.52 71.19 101.33 2.98 103.31 4.13" style="fill:#817f7b"/><polygon points="103.5 72.34 23.27 118.67 21.29 117.52 101.52 71.19 103.5 72.34" style="fill:#d0cdc7"/><polygon points="23.27 118.67 21.29 117.52 21.09 49.3 23.07 50.45 23.27 118.67" style="fill:#817f7b"/><polygon points="23.07 50.45 21.09 49.3 101.33 2.98 103.31 4.13 23.07 50.45" style="fill:#d0cdc7"/></g><path d="M44.75,57.7a6.58,6.58,0,0,1,.06.9,16.74,16.74,0,0,1-1.89,6.63,42.57,42.57,0,0,1-3.76,6.44,13.22,13.22,0,0,1-2.66,3.12l-.1,0a7.42,7.42,0,0,1-2.85.27c-1.37,0-2.1-.2-2.21-.44a.46.46,0,0,1-.06-.25,2,2,0,0,1,.1-.53,2.3,2.3,0,0,0,.09-.5l-.06-20c0-.33.4-.72,1.18-1.18a5.1,5.1,0,0,1,.94-.42,32.37,32.37,0,0,1,3.19-3.49A17.67,17.67,0,0,1,40,45.66a2.63,2.63,0,0,1,1.25-.46,1.1,1.1,0,0,1,.82.44,3.48,3.48,0,0,0,.67.72l.89.32a.93.93,0,0,1,.62.63,2.1,2.1,0,0,1,.11.74c0,1.63-.93,3.94-2.8,7Q44.45,55.84,44.75,57.7Zm-5.26,6.91C40.62,62.06,41.12,60.18,41,59a16.86,16.86,0,0,0-2.36,2.13,20.88,20.88,0,0,0-2.6,3.15V70a15.82,15.82,0,0,0,3.43-5.38M36,54.73V58q1.71-2.58,3-4.93c.83-1.57,1.17-2.45,1-2.64s-.14,0-.3,0a10.24,10.24,0,0,0-1.93,1.86A11.75,11.75,0,0,0,36,54.73" style="fill:#fff"/><path d="M56.38,70.64a3.27,3.27,0,0,1,1.14-.35c.56-.08.88,0,.95.24a1.15,1.15,0,0,1-.08.52,2.58,2.58,0,0,0-.14.72l0,6.32a7.67,7.67,0,0,0,.94.44c.36.16.53.33.52.5a2.79,2.79,0,0,1-.47,1.06,3.12,3.12,0,0,1-.64.85,2.5,2.5,0,0,0-.34.21v5.77a6.24,6.24,0,0,1,.21.73,2.36,2.36,0,0,1-.3,1.89,1.67,1.67,0,0,1-.3.22,4,4,0,0,1-1.79.46c-.79.06-1.26-.06-1.44-.36,0-.13,0-.33-.06-.58a.88.88,0,0,1,.14-.52,1.85,1.85,0,0,0,.18-.45l0-4.62c-.25.18-.75.58-1.49,1.21S52.19,86,52,86.21v4.64a.45.45,0,0,0,.13.3.53.53,0,0,1,.15.25c-.05.27-.09.54-.13.79a.87.87,0,0,1-.22.44.59.59,0,0,1-.17.13,5.67,5.67,0,0,1-1.62.48c-1,.19-1.49.18-1.54,0a1.47,1.47,0,0,1,0-.53c0-.33.06-.55.06-.67l0-14.65A9.46,9.46,0,0,1,48.71,76a3.38,3.38,0,0,1,.67-1l.22-.15a5.84,5.84,0,0,1,1.56-.62c.7-.16,1.07-.06,1.12.32a3.64,3.64,0,0,1-.17.87,4.23,4.23,0,0,0-.19.89l0,5.58c.9-.78,1.89-1.62,3-2.51l0-6.38a1.44,1.44,0,0,0-.09-.3.8.8,0,0,1,0-.45,1.67,1.67,0,0,1,.66-.91l.83-.59Z" style="fill:#fff"/><path d="M55,37.1a.26.26,0,0,1,.1,0,3.44,3.44,0,0,1,1.92.51c.86.43,1.32.81,1.39,1.16A2.84,2.84,0,0,1,57.88,40a3.56,3.56,0,0,1-.9,1.2.86.86,0,0,1-.43.15.37.37,0,0,0-.16,0c-.67.57-1.27,1.11-1.83,1.66a17.89,17.89,0,0,0-2.92,3.48v5c.63-.73,1.44-1.58,2.44-2.55.34-.2.93-.08,1.82.33s1.39.82,1.39,1.19a2.39,2.39,0,0,1-.37,1,4.06,4.06,0,0,1-.73,1c-.18.1-.49.3-.94.6a29.64,29.64,0,0,0-3.59,4.06v3.24c.53-.68,1.26-1.54,2.18-2.58a12.59,12.59,0,0,1,1.71-1.74c.25-.14.88-.06,1.9.25s1.5.6,1.47.87a5.32,5.32,0,0,1-.47,1.4,4.55,4.55,0,0,1-.68,1.12.43.43,0,0,1-.3.06.63.63,0,0,0-.35.06A.5.5,0,0,0,57,60a20.72,20.72,0,0,0-1.66,1.7,36.51,36.51,0,0,0-3.65,4.8l-2.93.3c-1.12.09-1.67,0-1.67-.27l-.07-23.23a2.63,2.63,0,0,1,.63-1,4.47,4.47,0,0,1,.88-.89,4.68,4.68,0,0,1,1.34-.28,4.26,4.26,0,0,0,1.59-.47,9.09,9.09,0,0,0,2.09-2A7.53,7.53,0,0,1,55,37.1Z" style="fill:#fff"/><path d="M92.29,49.82a.34.34,0,0,1,.12-.06c.37-.15.62-.13.76.07a3,3,0,0,1,.3.85,6,6,0,0,1,.2,1.44,2.72,2.72,0,0,1-.1.83,1.61,1.61,0,0,1-.71.7,1,1,0,0,1-.44.1.88.88,0,0,0-.37.1l-.09.07-2,1.82,0,12a3,3,0,0,0,.28,1.28,2.18,2.18,0,0,1,0,.9,2.33,2.33,0,0,1-.37,1.1.8.8,0,0,1-.2.14,9.27,9.27,0,0,1-1.83.76q-1.32.42-1.56.24c-.19-.17-.18-.54,0-1.11a3.89,3.89,0,0,0,.25-1l0-11.33L85.06,60a2.29,2.29,0,0,0-.33.39,1.36,1.36,0,0,1-.32.32l-.07,0c-.3.08-.72-.13-1.25-.64s-.77-.93-.71-1.26a3.08,3.08,0,0,1,.94-1.34,1.55,1.55,0,0,1,.28-.2l.24-.12.28-.14.21-.15,6.93-6q.09-.08.57-.6A2.12,2.12,0,0,1,92.29,49.82Z" style="fill:#fff"/><path d="M81.67,65.43c.67,3.79,1.35,6.29,2,7.48,0,.14,0,.48-.08,1a1.82,1.82,0,0,1-.15.71,1.29,1.29,0,0,1-.34.27,5.26,5.26,0,0,1-1.64.55,1.86,1.86,0,0,1-1.43,0c-.11-.08-.22-.47-.32-1.19A14.25,14.25,0,0,0,79.25,72,28.7,28.7,0,0,0,77,73.88a18.48,18.48,0,0,0-1.89,2c-.2.77-.46,1.74-.79,2.89,0,.24-.08.46-.12.68a1.74,1.74,0,0,1-.35.67.71.71,0,0,1-.18.15,4,4,0,0,1-1.6.35c-.76.05-1.14,0-1.17-.08a5.36,5.36,0,0,1,.37-1.8c.42-1.46.67-2.35.73-2.67a.75.75,0,0,1-.42-.71c0-.08,0-.17,0-.27a6.61,6.61,0,0,1,1.21-1.68l2.54-11.57a4.47,4.47,0,0,0,0-1,1.42,1.42,0,0,1,.12-.85,1.33,1.33,0,0,1,.47-.39,11.28,11.28,0,0,1,2.67-1c1.16-.3,1.85-.37,2.08-.21A64.17,64.17,0,0,0,81.67,65.43Zm-5.33,5.41c.25-.26,1-.9,2.16-1.89-.17-.86-.28-1.43-.32-1.72a29.46,29.46,0,0,1-.31-3c-.26.9-.57,2.11-.93,3.65a26.1,26.1,0,0,0-.6,3" style="fill:#fff"/><path d="M74.42,38.75q1.36,7.7,2.77,10.09c0,.2,0,.66-.1,1.39a2.62,2.62,0,0,1-.21,1,1.74,1.74,0,0,1-.46.36,6.93,6.93,0,0,1-2.2.75c-1,.21-1.6.2-1.94-.06-.15-.1-.29-.64-.44-1.61a20.24,20.24,0,0,0-.68-3,36.22,36.22,0,0,0-3,2.58,21.87,21.87,0,0,0-2.55,2.63c-.27,1-.62,2.34-1.07,3.89,0,.32-.11.63-.17.92a2.15,2.15,0,0,1-.47.91.71.71,0,0,1-.24.2,5.31,5.31,0,0,1-2.17.48c-1,.07-1.54,0-1.57-.12a7.36,7.36,0,0,1,.5-2.42q.86-3,1-3.6a1.05,1.05,0,0,1-.57-1,2.38,2.38,0,0,1,0-.36,8.61,8.61,0,0,1,1.63-2.27L66,33.83a6.34,6.34,0,0,0,0-1.37,2,2,0,0,1,.16-1.14,1.7,1.7,0,0,1,.65-.53,14.9,14.9,0,0,1,3.6-1.34c1.56-.41,2.49-.5,2.8-.29A87.91,87.91,0,0,0,74.42,38.75Zm-7.2,7.31c.34-.36,1.32-1.21,2.93-2.56-.24-1.16-.38-1.93-.44-2.31a37.9,37.9,0,0,1-.41-4.06c-.36,1.21-.77,2.86-1.25,4.93a38.84,38.84,0,0,0-.83,4" style="fill:#fff"/><path d="M88.77,17.68l.15-.08c.51-.21.85-.18,1,.09a3.9,3.9,0,0,1,.4,1.16,7.39,7.39,0,0,1,.28,1.94,3.53,3.53,0,0,1-.15,1.12,2,2,0,0,1-1,.94,1.31,1.31,0,0,1-.59.14,1.12,1.12,0,0,0-.5.13l-.12.09-2.77,2.46,0,16.25A4.14,4.14,0,0,0,86,43.64a2.66,2.66,0,0,1,0,1.21,3.3,3.3,0,0,1-.5,1.5,1.49,1.49,0,0,1-.27.18,12.54,12.54,0,0,1-2.48,1c-1.18.38-1.88.48-2.1.32s-.24-.73,0-1.5A5.18,5.18,0,0,0,81,45l0-15.29L79,31.37a3.22,3.22,0,0,0-.44.52,1.56,1.56,0,0,1-.43.43l-.09,0c-.42.12-1-.17-1.7-.86s-1-1.25-1-1.69A4,4,0,0,1,76.65,28a2.34,2.34,0,0,1,.38-.28,2.39,2.39,0,0,1,.32-.16,2.69,2.69,0,0,0,.38-.19,1.64,1.64,0,0,0,.29-.2L87.37,19a10.33,10.33,0,0,0,.78-.82A2.51,2.51,0,0,1,88.77,17.68Z" style="fill:#fff"/><path d="M32.05,96.14a3.24,3.24,0,0,1,.77-.33,1.24,1.24,0,0,1,.58-.09.11.11,0,0,1,.06.11,1.22,1.22,0,0,1-.14.39,1.2,1.2,0,0,0-.15.37v.56l.29-.16s.18,0,.37.15.29.25.29.36a.94.94,0,0,1-.1.39.69.69,0,0,1-.22.27l-.06,0a2.66,2.66,0,0,0-.57.28l0,4.06.05.14a.66.66,0,0,1,.06.27.65.65,0,0,1-.35.53h0a2.16,2.16,0,0,1-.66.2c-.37.07-.57.06-.59,0a1,1,0,0,1,.06-.34,1.42,1.42,0,0,0,.08-.41V99.24l-.3.18c-.12.06-.26,0-.42-.11a.55.55,0,0,1-.26-.4.68.68,0,0,1,.11-.34.65.65,0,0,1,.22-.26l.65-.37V97a.5.5,0,0,1-.14-.37.46.46,0,0,1,.16-.36Z" style="fill:#fff"/><path d="M35.09,93.22a2.79,2.79,0,0,1,.6-.23c.38-.1.59-.11.63,0a.83.83,0,0,1,0,.36,2.61,2.61,0,0,0-.06.59v1.92a3,3,0,0,1,1-1.28,1.89,1.89,0,0,1,.79-.22c.32,0,.51,0,.56.12a22.26,22.26,0,0,1,.26,4.72.81.81,0,0,1,.07.4,1,1,0,0,1-.2.49.89.89,0,0,1-.22.16,3.81,3.81,0,0,1-.73.32c-.28.09-.45.12-.51.08a.11.11,0,0,1,0-.1,1.86,1.86,0,0,1,.08-.36c0-.07.08-.16.12-.25a.64.64,0,0,0,.06-.28c0-2.72,0-4.07-.07-4.06a3.51,3.51,0,0,0-.61,1.11,4.69,4.69,0,0,0-.52,1.67v2.28c.09.06.13.18.1.38a1.13,1.13,0,0,1-.29.6l-.1.08a4.54,4.54,0,0,1-.71.28c-.31.09-.48.13-.51.1s-.08-.19,0-.37a.54.54,0,0,1,.08-.15.43.43,0,0,0,.08-.2l0-7.28a.34.34,0,0,0-.07-.17.21.21,0,0,1,0-.2.81.81,0,0,1,.28-.44A.18.18,0,0,1,35.09,93.22Z" style="fill:#fff"/><path d="M43.25,95.48c.06.07-.06.44-.34,1.11A6.66,6.66,0,0,1,42,98.22a.58.58,0,0,1-.16.13,2.72,2.72,0,0,1-.91.28c-.4.06-.66,0-.79-.08a2.51,2.51,0,0,1-.53-1.84,7.45,7.45,0,0,1,.45-2.55,3.4,3.4,0,0,1,1.26-1.83l0,0a1.72,1.72,0,0,1,.64-.2,1.21,1.21,0,0,1,.8.12s.1.19.15.47a4.63,4.63,0,0,1,.09.92,2.43,2.43,0,0,1-.19,1.08A12.34,12.34,0,0,1,41,96.17a3.27,3.27,0,0,0,.11,1c.08.33.17.46.26.42a1.4,1.4,0,0,0,.43-.59,3.31,3.31,0,0,0,.28-.66c0-.23.09-.48.16-.74l0,0a1.68,1.68,0,0,1,.54-.14C43,95.39,43.2,95.41,43.25,95.48Zm-2-1.43a5,5,0,0,0-.31,1.28,2.18,2.18,0,0,0,.64-.6,2.27,2.27,0,0,0,.14-1.11c0-.25,0-.38,0-.37h0a2,2,0,0,0-.42.8" style="fill:#fff"/><path d="M67.25,64.2l.07,0a2.46,2.46,0,0,1,1.43.37c.63.32,1,.61,1,.87a2.09,2.09,0,0,1-.37.92,2.55,2.55,0,0,1-.66.89.65.65,0,0,1-.32.11.16.16,0,0,0-.12,0c-.5.41-.94.82-1.35,1.22a13,13,0,0,0-2.17,2.58v3.73c.46-.54,1.07-1.17,1.81-1.89.25-.15.69-.06,1.35.24s1,.61,1,.88a1.92,1.92,0,0,1-.28.76,3.08,3.08,0,0,1-.54.74l-.69.45a21.48,21.48,0,0,0-2.67,3v2.4c.4-.51.94-1.14,1.62-1.91a9.22,9.22,0,0,1,1.26-1.29q.28-.16,1.41.18c.75.24,1.11.45,1.09.65a4,4,0,0,1-.35,1,3.18,3.18,0,0,1-.51.83.31.31,0,0,1-.22,0,.39.39,0,0,0-.25,0,.18.18,0,0,0-.08.07,13.49,13.49,0,0,0-1.24,1.26A26.74,26.74,0,0,0,64.85,86l-2.17.23c-.83.06-1.24,0-1.24-.21l0-17.2c0-.11.16-.35.47-.73a2.91,2.91,0,0,1,.65-.65,3.32,3.32,0,0,1,1-.22,2.93,2.93,0,0,0,1.18-.35,6.66,6.66,0,0,0,1.55-1.51A6,6,0,0,1,67.25,64.2Z" style="fill:#fff"/></g></svg>