<svg xmlns="http://www.w3.org/2000/svg" xmlns:xlink="http://www.w3.org/1999/xlink" viewBox="0 0 727.64 424.53"><defs><clipPath id="a"><path d="M281.33,139.2v3.06c0-7.45-3.43-16.49-10.35-26.59-13.88-20.25-39.69-42.24-73.11-62.37V50.24c33.42,20.14,59.22,42.12,73.1,62.37C277.9,122.71,281.35,131.75,281.33,139.2Z" style="fill:none"/></clipPath><clipPath id="b"><path d="M300.84,139.3v3.06c0,10.22-5.17,18.58-15.39,24.51-19.18,11.15-53.1,12-95.53,2.3-39.8-9.07-83-26.34-121.57-48.62v-3.06c38.59,22.29,81.77,39.55,121.57,48.63,42.42,9.66,76.35,8.84,95.53-2.3C295.67,157.88,300.81,149.52,300.84,139.3Z" style="fill:none"/></clipPath><clipPath id="c"><path d="M577.87,307.16v3.06c0-7.41-3.38-16.37-10.22-26.34-14.74-21.51-43.24-45.12-80.24-66.48s-77.84-37.78-115-46.26c-34.07-7.76-61.22-7.78-74.5-.06-6.56,3.81-9.85,9.58-9.87,16.81v-3c0-7.24,3.31-13,9.87-16.82,13.28-7.72,40.43-7.69,74.5.07,37.18,8.47,78,24.9,115,46.25s65.49,45,80.24,66.48C574.48,290.79,577.89,299.75,577.87,307.16Z" style="fill:none"/></clipPath><clipPath id="d"><path d="M597.4,307.27v3.05c0,10.28-5.23,18.7-15.56,24.7-19.29,11.21-53.18,12.08-95.42,2.46-39.62-9-82.83-26.35-121.69-48.78s-68.9-47.41-84.61-70.33c-7.78-11.35-11.65-21.67-11.62-30.58v-3.06c0,8.91,3.84,19.23,11.63,30.58,15.71,22.92,45.76,47.9,84.61,70.33s82.07,39.75,121.69,48.78c42.24,9.62,76.13,8.75,95.42-2.46C592.17,326,597.37,317.54,597.4,307.27Z" style="fill:none"/></clipPath></defs><polygon points="716.78 290.62 500.24 416.46 10.85 133.91 227.4 8.07 716.78 290.62" style="fill:#5e9319"/><polygon points="220.28 21.12 220.27 24.72 36.46 131.54 36.47 127.94 220.28 21.12" style="fill:#9cb3b7"/><polygon points="691.17 292.99 691.16 296.6 220.27 24.72 220.28 21.12 691.17 292.99" style="fill:#737b7f"/><path d="M220.17,0,727.64,293,507.48,420.93,0,127.94ZM507.36,399.81,691.17,293,220.28,21.12,36.47,127.94,507.36,399.81" style="fill:#c5cfd3"/><polygon points="727.63 292.99 727.63 296.59 507.47 424.53 507.48 420.93 727.63 292.99" style="fill:#9cb3b7"/><polygon points="507.48 420.93 507.47 424.53 0 131.54 0.01 127.94 507.48 420.93" style="fill:#737b7f"/><g style="isolation:isolate"><polygon points="197.87 50.24 197.86 53.3 89.08 116.51 89.08 113.45 197.87 50.24" style="fill:#9cb3b7"/><polygon points="68.35 117.49 68.34 120.55 61.42 116.56 61.43 113.5 68.35 117.49" style="fill:#6a6f71"/><g style="isolation:isolate"><g style="clip-path:url(#a)"><g style="isolation:isolate"><path d="M281.33,139.2v3.06c0-7.45-3.43-16.49-10.35-26.59-13.88-20.25-39.69-42.24-73.11-62.37V50.24c33.42,20.14,59.22,42.12,73.1,62.37,6.93,10.1,10.38,19.14,10.36,26.59" style="fill:#666c6e"/></g></g></g><path d="M289.1,108.48c16.83,24.54,15.53,44.19-3.65,55.34s-53.11,12-95.53,2.3c-39.8-9.08-83-26.34-121.57-48.63l-6.92-4L197.85,34.22l6.92,4C243.37,60.5,273.32,85.45,289.1,108.48ZM197,155.6c34.24,7.8,61.43,7.88,74.6.23s12.95-23.41-.64-43.22c-13.88-20.25-39.68-42.23-73.1-62.37L89.08,113.46C124,132.75,162,147.62,197,155.6" style="fill:#c5cfd3"/><g style="isolation:isolate"><g style="clip-path:url(#b)"><g style="isolation:isolate"><path d="M300.84,139.3v3.06c0,.25,0,.51,0,.76v-3.05c0-.26,0-.51,0-.77" style="fill:#72787a"/><path d="M300.83,140.07v3.05a27.36,27.36,0,0,1-.52,4.67v-3.06a27.36,27.36,0,0,0,.52-4.66" style="fill:#767c7f"/><path d="M300.31,144.73v3.06a24.9,24.9,0,0,1-1.12,3.93v-3.05a25.33,25.33,0,0,0,1.12-3.94" style="fill:#7a8083"/><path d="M299.19,148.67v3.05a24.44,24.44,0,0,1-1.64,3.52v-3.06a24.33,24.33,0,0,0,1.64-3.51" style="fill:#7e8487"/><path d="M297.55,152.18v3.06a26.49,26.49,0,0,1-2.23,3.33v-3.06a26.49,26.49,0,0,0,2.23-3.33" style="fill:#82898b"/><path d="M295.32,155.51v3.06a30.29,30.29,0,0,1-3.2,3.45V159a29.54,29.54,0,0,0,3.2-3.45" style="fill:#868d8f"/><path d="M292.12,159V162a37.28,37.28,0,0,1-6.1,4.52v-3.06a37.28,37.28,0,0,0,6.1-4.52" style="fill:#8a9194"/><path d="M286,163.48v3.06l-.57.33a54.11,54.11,0,0,1-10.68,4.68v-3.06a54.62,54.62,0,0,0,10.68-4.67l.57-.34" style="fill:#8e9598"/><path d="M274.77,168.49v3.06a79.9,79.9,0,0,1-10.35,2.56v-3.06a80.31,80.31,0,0,0,10.35-2.56" style="fill:#8a9194"/><path d="M264.42,171.05v3.06c-2.62.47-5.36.84-8.21,1.13v-3.06q4.28-.42,8.21-1.13" style="fill:#868d8f"/><path d="M256.21,172.18v3.06c-2.7.26-5.49.45-8.38.55v-3.06q4.33-.15,8.38-.55" style="fill:#82898b"/><path d="M247.83,172.73v3.06c-3,.1-6.09.11-9.29,0v-3.06c3.2.08,6.29.07,9.29,0" style="fill:#7e8487"/><path d="M238.54,172.76v3.06q-5.26-.13-10.88-.6v-3.06q5.61.47,10.88.6" style="fill:#7a8083"/><path d="M227.66,172.16v3.06q-6.51-.54-13.45-1.52v-3.06q6.93,1,13.45,1.52" style="fill:#767c7f"/><path d="M214.21,170.64v3.06c-5.74-.81-11.7-1.85-17.84-3.13v-3c6.14,1.27,12.1,2.31,17.84,3.12" style="fill:#72787a"/><path d="M196.37,167.52v3c-2.13-.44-4.28-.9-6.45-1.4-6.29-1.43-12.67-3.07-19.1-4.9v-3.06q9.66,2.74,19.11,4.91,3.26.74,6.45,1.4" style="fill:#6e7476"/><path d="M170.81,161.21v3.06c-13.11-3.74-26.44-8.27-39.73-13.5v-3.05c13.29,5.22,26.61,9.75,39.72,13.49" style="fill:#6a7072"/><path d="M131.09,147.72v3.05a471.55,471.55,0,0,1-62.74-30.22v-3.06a472.25,472.25,0,0,0,62.74,30.23" style="fill:#666c6e"/></g></g></g></g><g style="opacity:0.1"><path d="M191.09,74.7C204.85,72.76,216,77.91,216,86.19S204.8,102.76,191,104.7s-24.9-3.22-24.89-11.5S177.33,76.63,191.09,74.7Z" style="fill:#161615"/></g><path d="M219.31,96.19c5.27,3,5.3,8,.06,11s-13.76,3.05-19,0-5.3-8-.06-11S214,93.14,219.31,96.19Z" style="fill:#617a42"/><ellipse cx="218.73" cy="60.31" rx="13.23" ry="16.6" style="fill:#8c9b57"/><path d="M220.05,74.25c-7.3,0-13.23-7.43-13.23-16.6a20,20,0,0,1,1.41-7.44,19.42,19.42,0,0,0-2.73,10.1c0,9.16,5.92,16.59,13.23,16.59,5.17,0,9.65-3.72,11.82-9.15C228.13,71.7,224.33,74.25,220.05,74.25Z" style="fill:#869156"/><path d="M218.73,43.46A12.22,12.22,0,0,0,208.84,49a11.17,11.17,0,0,1,6.35-2c7.31,0,13.23,7.43,13.23,16.59a19.1,19.1,0,0,1-3.35,11c4.11-2.82,6.89-8.28,6.89-14.56C232,50.89,226,43.46,218.73,43.46Z" style="fill:#82b650"/><rect x="206.76" y="52.7" width="3.56" height="49.52" style="fill:#552904"/><rect x="207.75" y="52.7" width="3.56" height="49.52" style="fill:#82592c"/><ellipse cx="208.54" cy="35.84" rx="19.18" ry="22.74" style="fill:#8c9b57"/><ellipse cx="198.45" cy="56.06" rx="12.34" ry="14.33" style="fill:#8c9b57"/><path d="M199.72,68.61c-6.82,0-12.34-6.41-12.34-14.32A15.9,15.9,0,0,1,189.64,46a15.56,15.56,0,0,0-3.53,10c0,7.91,5.52,14.33,12.34,14.33a11.92,11.92,0,0,0,10.08-6.08A11.51,11.51,0,0,1,199.72,68.61Z" style="fill:#869156"/><path d="M198.44,41.7a11.86,11.86,0,0,0-9.9,5.78,11.2,11.2,0,0,1,7.36-2.83c6.81,0,12.34,6.42,12.34,14.33a15.86,15.86,0,0,1-2.44,8.55,15.17,15.17,0,0,0,5-11.5C210.78,48.11,205.26,41.7,198.44,41.7Z" style="fill:#82b650"/><path d="M208.54,13.1A17.23,17.23,0,0,0,197,17.72a16.49,16.49,0,0,1,4.51-.64c10.59,0,19.18,10.18,19.18,22.74A24.35,24.35,0,0,1,213.05,58c8.42-2.41,14.68-11.39,14.68-22.11C227.73,23.28,219.14,13.1,208.54,13.1Z" style="fill:#82b650"/><g style="isolation:isolate"><g style="isolation:isolate"><g style="clip-path:url(#c)"><g style="isolation:isolate"><path d="M577.87,307.16v3.06c0-7.41-3.38-16.37-10.22-26.34-14.74-21.51-43.24-45.12-80.24-66.48a455.18,455.18,0,0,0-60.49-29.17v-3.06a456.42,456.42,0,0,1,60.49,29.17c37,21.36,65.49,45,80.24,66.48,6.83,10,10.24,18.93,10.22,26.34" style="fill:#666c6e"/><path d="M426.92,185.17v3.06c-12.44-4.9-24.86-9.13-37-12.59v-3.06c12.17,3.47,24.6,7.7,37,12.59" style="fill:#6a7072"/><path d="M389.88,172.58v3.06q-8.85-2.52-17.49-4.5-2.91-.66-5.74-1.24v-3.06q2.84.58,5.74,1.25,8.63,2,17.49,4.49" style="fill:#6e7476"/><path d="M366.65,166.84v3.06q-8.16-1.69-15.68-2.76v-3q7.53,1.07,15.69,2.75" style="fill:#72787a"/><path d="M351,164.09v3q-6-.84-11.54-1.3v-3.06q5.54.45,11.53,1.31" style="fill:#767c7f"/><path d="M339.43,162.78v3.06c-3.07-.26-6-.42-8.88-.49v-3.06c2.84.07,5.8.24,8.88.49" style="fill:#7a8083"/><path d="M330.55,162.29v3.06q-3.78-.09-7.27,0v-3.05q3.5-.12,7.27,0" style="fill:#7e8487"/><path d="M323.28,162.32v3.05c-2.17.08-4.25.21-6.25.41v-3.06c2-.19,4.08-.33,6.25-.4" style="fill:#82898b"/><path d="M317,162.72v3.06q-3.07.3-5.85.81v-3.06c1.85-.34,3.8-.6,5.85-.81" style="fill:#868d8f"/><path d="M311.18,163.53v3.06a52.61,52.61,0,0,0-6.81,1.67V165.2a52.61,52.61,0,0,1,6.81-1.67" style="fill:#8a9194"/><path d="M304.37,165.2v3.06a33,33,0,0,0-6.48,2.82l-.32.19v-3.06l.32-.19a34,34,0,0,1,6.48-2.82" style="fill:#8e9598"/><path d="M297.57,168.21v3.06A22.89,22.89,0,0,0,293.9,174v-3.06a22,22,0,0,1,3.66-2.72" style="fill:#8a9194"/><path d="M293.91,170.93V174a17.47,17.47,0,0,0-2,2.2v-3.06a18.19,18.19,0,0,1,2-2.2" style="fill:#868d8f"/><path d="M291.88,173.13v3.06a17.39,17.39,0,0,0-1.5,2.23v-3.06a17.39,17.39,0,0,1,1.5-2.23" style="fill:#82898b"/><path d="M290.38,175.36v3.06a18.35,18.35,0,0,0-1.15,2.46v-3.06a17.19,17.19,0,0,1,1.15-2.46" style="fill:#7e8487"/><path d="M289.23,177.82v3.06a19.18,19.18,0,0,0-.81,2.86v-3.06a19.18,19.18,0,0,1,.81-2.86" style="fill:#7a8083"/><path d="M288.42,180.68v3.06a21.55,21.55,0,0,0-.39,3.56v-3.06a20.53,20.53,0,0,1,.39-3.56" style="fill:#767c7f"/><path d="M288,184.24v3.06c0,.2,0,.39,0,.59v-3c0-.2,0-.4,0-.6" style="fill:#72787a"/></g></g></g><g style="isolation:isolate"><g style="clip-path:url(#d)"><g style="isolation:isolate"><path d="M597.4,307.27v3.05c0,.26,0,.52,0,.77V308c0-.25,0-.51,0-.76" style="fill:#72787a"/><path d="M597.39,308v3.06a28.53,28.53,0,0,1-.52,4.67V312.7a28.4,28.4,0,0,0,.52-4.67" style="fill:#767c7f"/><path d="M596.87,312.7v3.06a24.87,24.87,0,0,1-1.13,3.95v-3.06a24.87,24.87,0,0,0,1.13-3.95" style="fill:#7a8083"/><path d="M595.74,316.65v3.06a23.68,23.68,0,0,1-1.65,3.54V320.2a24.26,24.26,0,0,0,1.65-3.55" style="fill:#7e8487"/><path d="M594.09,320.2v3.05a25.91,25.91,0,0,1-2.25,3.36v-3.05a25.91,25.91,0,0,0,2.25-3.36" style="fill:#82898b"/><path d="M591.84,323.56v3.05a30.09,30.09,0,0,1-3.23,3.49V327a31,31,0,0,0,3.24-3.48" style="fill:#868d8f"/><path d="M588.6,327v3.06a37.49,37.49,0,0,1-6.19,4.58v-3.06A37.4,37.4,0,0,0,588.6,327" style="fill:#8a9194"/><path d="M582.42,331.62v3.06l-.58.34A55.11,55.11,0,0,1,571,339.76V336.7A54.94,54.94,0,0,0,581.84,332l.58-.34" style="fill:#8e9598"/><path d="M571,336.7v3.06a80.23,80.23,0,0,1-10.45,2.58v-3.06A79.68,79.68,0,0,0,571,336.7" style="fill:#8a9194"/><path d="M560.58,339.28v3.06c-2.64.47-5.4.85-8.26,1.14v-3.06c2.86-.28,5.62-.66,8.26-1.14" style="fill:#868d8f"/><path d="M552.32,340.42v3.06q-4,.4-8.4.55V341q4.33-.15,8.4-.55" style="fill:#82898b"/><path d="M543.92,341V344c-3,.1-6.09.11-9.28,0V341c3.19.08,6.29.07,9.28,0" style="fill:#7e8487"/><path d="M534.64,341v3.06c-3.5-.09-7.12-.29-10.84-.59v-3.06c3.72.3,7.34.5,10.84.59" style="fill:#7a8083"/><path d="M523.8,340.41v3.06q-6.48-.54-13.37-1.52V338.9q6.9,1,13.37,1.51" style="fill:#767c7f"/><path d="M510.43,338.9V342c-5.67-.8-11.56-1.83-17.63-3.08v-3.06c6.07,1.25,12,2.28,17.63,3.09" style="fill:#72787a"/><path d="M492.8,335.81v3.06q-3.15-.66-6.38-1.39-9.32-2.13-18.87-4.85v-3.06q9.54,2.73,18.87,4.85,3.22.74,6.38,1.39" style="fill:#6e7476"/><path d="M467.55,329.57v3.06c-13-3.7-26.27-8.21-39.5-13.42v-3.06c13.23,5.21,26.49,9.72,39.5,13.42" style="fill:#6a7072"/><path d="M428.05,316.15v3.06a478.23,478.23,0,0,1-63.32-30.51c-38.84-22.43-68.9-47.41-84.61-70.33-7.78-11.35-11.65-21.67-11.62-30.58v-3.06c0,8.91,3.84,19.23,11.63,30.58,15.71,22.92,45.76,47.9,84.61,70.33a477,477,0,0,0,63.32,30.51" style="fill:#666c6e"/></g></g></g><path d="M585.78,276.68c16.75,24.44,15.36,44.07-3.94,55.28s-53.18,12.08-95.42,2.46c-39.62-9-82.83-26.35-121.69-48.78s-68.9-47.41-84.61-70.33c-16.76-24.44-15.36-44.07,3.93-55.28s53.18-12.08,95.42-2.46c39.62,9,82.84,26.35,121.69,48.78S570.06,253.76,585.78,276.68Zm-92.27,47.23c34.06,7.76,61.21,7.78,74.49.06s13.15-23.44-.35-43.15c-14.75-21.51-43.24-45.12-80.24-66.48s-77.84-37.78-115-46.25c-34.07-7.76-61.22-7.79-74.5-.07s-13.16,23.45.36,43.15c14.74,21.51,43.24,45.12,80.23,66.48s77.85,37.79,115,46.26" style="fill:#c5cfd3"/></g><g style="opacity:0.1"><ellipse cx="148.04" cy="109.87" rx="25.3" ry="14.77" transform="translate(-19.98 34) rotate(-12.28)" style="fill:#161615"/></g><path d="M174.21,117.27c5.28,3,5.31,8,.07,11s-13.77,3-19,0-5.3-8-.06-11S168.94,114.23,174.21,117.27Z" style="fill:#617a42"/><rect x="162.04" y="100.71" width="3.23" height="22.61" style="fill:#552904"/><rect x="163.11" y="100.71" width="4.31" height="22.61" style="fill:#82592c"/><ellipse cx="158.81" cy="84.02" rx="10.77" ry="15.61" style="fill:#8c9b57"/><path d="M161,96.41c-6,0-10.77-7-10.77-15.62A20.73,20.73,0,0,1,152,72.15a18.93,18.93,0,0,0-3.95,12.08c0,8.62,4.82,15.61,10.77,15.61,3.74,0,7-2.77,9-7A9,9,0,0,1,161,96.41Z" style="fill:#869156"/><ellipse cx="162.04" cy="68.95" rx="14" ry="12.38" style="fill:#8c9b57"/><ellipse cx="167.42" cy="56.03" rx="10.77" ry="15.61" style="fill:#8c9b57"/><ellipse cx="178.73" cy="66.8" rx="7" ry="8.08" style="fill:#8c9b57"/><ellipse cx="171.19" cy="86.72" rx="14.54" ry="19.38" style="fill:#8c9b57"/><path d="M163.11,79.18c-7.73,0-14-5.55-14-12.38a11,11,0,0,1,.54-3.36,11.2,11.2,0,0,0-1.6,5.74c0,6.84,6.27,12.38,14,12.38,6.41,0,11.81-3.82,13.46-9A14.31,14.31,0,0,1,163.11,79.18Z" style="fill:#869156"/><path d="M171.85,67.43a11.15,11.15,0,0,0-2.24.26c6.72,1.7,11.81,9.57,11.81,19,0,9.68-5.34,17.68-12.3,19.12a10.88,10.88,0,0,0,2.73.36c8,0,14.54-8.68,14.54-19.38S179.88,67.43,171.85,67.43Z" style="fill:#82b650"/><path d="M167.42,40.42a7.47,7.47,0,0,0-2.69.51c4.64,1.73,8.07,7.83,8.07,15.1s-3.43,13.36-8.07,15.1a7.69,7.69,0,0,0,2.69.51c6,0,10.77-7,10.77-15.61S173.37,40.42,167.42,40.42Z" style="fill:#82b650"/><path d="M179.39,58.28a5.8,5.8,0,0,0-1.61.23c3.08.84,5.38,4,5.38,7.85s-2.3,7-5.38,7.85a6.19,6.19,0,0,0,1.61.22c3.87,0,7-3.61,7-8.07S183.26,58.28,179.39,58.28Z" style="fill:#82b650"/><g style="opacity:0.1"><ellipse cx="230.9" cy="125.49" rx="25.3" ry="14.77" transform="translate(-21.41 51.98) rotate(-12.28)" style="fill:#161615"/></g><path d="M257.08,132.89c5.27,3.05,5.29,8,.06,11s-13.76,3.05-19,0-5.29-8-.06-11S251.8,129.85,257.08,132.89Z" style="fill:#617a42"/><rect x="244.9" y="116.33" width="3.23" height="22.61" style="fill:#552904"/><rect x="245.97" y="116.33" width="4.31" height="22.61" style="fill:#82592c"/><ellipse cx="241.67" cy="99.64" rx="10.77" ry="15.61" style="fill:#8c9b57"/><path d="M243.82,112c-5.95,0-10.77-7-10.77-15.62a20.76,20.76,0,0,1,1.81-8.64,18.93,18.93,0,0,0-4,12.08c0,8.62,4.82,15.61,10.77,15.61,3.74,0,7-2.77,9-7A9,9,0,0,1,243.82,112Z" style="fill:#869156"/><ellipse cx="244.9" cy="84.57" rx="14" ry="12.38" style="fill:#8c9b57"/><ellipse cx="250.28" cy="71.65" rx="10.77" ry="15.61" style="fill:#8c9b57"/><ellipse cx="261.59" cy="82.42" rx="7" ry="8.08" style="fill:#8c9b57"/><ellipse cx="254.05" cy="102.34" rx="14.54" ry="19.38" style="fill:#8c9b57"/><path d="M246,94.8c-7.73,0-14-5.54-14-12.38a10.93,10.93,0,0,1,.53-3.35,11.13,11.13,0,0,0-1.6,5.73c0,6.84,6.27,12.38,14,12.38,6.42,0,11.81-3.82,13.46-9A14.31,14.31,0,0,1,246,94.8Z" style="fill:#869156"/><path d="M254.72,83.05a11.25,11.25,0,0,0-2.25.26c6.73,1.7,11.81,9.57,11.81,19C264.28,112,259,120,252,121.46a10.76,10.76,0,0,0,2.73.36c8,0,14.53-8.68,14.53-19.38S262.74,83.05,254.72,83.05Z" style="fill:#82b650"/><path d="M250.28,56a7.69,7.69,0,0,0-2.69.51c4.64,1.73,8.08,7.83,8.08,15.1s-3.44,13.36-8.08,15.1a7.69,7.69,0,0,0,2.69.51c6,0,10.77-7,10.77-15.61S256.23,56,250.28,56Z" style="fill:#82b650"/><path d="M262.25,73.9a5.8,5.8,0,0,0-1.61.23c3.08.84,5.38,4,5.38,7.85s-2.3,7-5.38,7.85a6.19,6.19,0,0,0,1.61.22c3.87,0,7-3.61,7-8.07S266.12,73.9,262.25,73.9Z" style="fill:#82b650"/><ellipse cx="322.24" cy="118.86" rx="10.88" ry="5.63" style="fill:#8c9b57"/><path d="M325.67,123.41c-6,0-10.87-2.54-10.87-5.67,0-1.79,1.57-3.37,4-4.41-4.34.74-7.47,2.87-7.47,5.38,0,3.14,4.87,5.68,10.87,5.68a17.87,17.87,0,0,0,6.84-1.27A19.57,19.57,0,0,1,325.67,123.41Z" style="fill:#869156"/><ellipse cx="339.87" cy="113.61" rx="16.51" ry="12.38" style="fill:#8c9b57"/><path d="M343.31,123.59c-9.12,0-16.51-5.54-16.51-12.37a10.61,10.61,0,0,1,3.69-7.8c-4.31,2.24-7.13,6-7.13,10.19,0,6.83,7.39,12.38,16.51,12.38a18.94,18.94,0,0,0,12.82-4.59A20.44,20.44,0,0,1,343.31,123.59Z" style="fill:#869156"/><path d="M339.87,101.23a19.75,19.75,0,0,0-11.31,3.36,21.17,21.17,0,0,1,7.25-1.25c9.11,0,16.5,5.54,16.5,12.38,0,3.55-2,6.75-5.2,9,5.49-2,9.27-6.24,9.27-11.12C356.38,106.77,349,101.23,339.87,101.23Z" style="fill:#82b650"/><ellipse cx="350.37" cy="124.63" rx="12" ry="6.89" style="fill:#8c9b57"/><path d="M352.88,130.19c-6.63,0-12-3.09-12-6.9a5.49,5.49,0,0,1,2.68-4.33c-3.13,1.24-5.18,3.31-5.18,5.67,0,3.8,5.37,6.89,12,6.89A16.5,16.5,0,0,0,359.7,129,18.68,18.68,0,0,1,352.88,130.19Z" style="fill:#869156"/><path d="M350.37,117.73a17.6,17.6,0,0,0-8.22,1.88,19.47,19.47,0,0,1,5.27-.7c6.63,0,12,3.08,12,6.89,0,2-1.45,3.76-3.78,5,4-1.12,6.74-3.47,6.74-6.19C362.38,120.82,357,117.73,350.37,117.73Z" style="fill:#82b650"/><g style="opacity:0.1"><ellipse cx="621.3" cy="276.49" rx="25.3" ry="14.77" transform="matrix(0.98, -0.21, 0.21, 0.98, -44.59, 138.48)" style="fill:#161615"/></g><path d="M647.48,283.9c5.27,3,5.3,8,.06,11s-13.76,3-19,0-5.3-8-.06-11S642.2,280.85,647.48,283.9Z" style="fill:#617a42"/><rect x="635.3" y="267.34" width="3.23" height="22.61" style="fill:#552904"/><rect x="636.38" y="267.34" width="4.31" height="22.61" style="fill:#82592c"/><ellipse cx="632.07" cy="250.65" rx="10.77" ry="15.61" style="fill:#8c9b57"/><path d="M634.22,263c-5.94,0-10.77-7-10.77-15.61a20.81,20.81,0,0,1,1.81-8.65,19,19,0,0,0-4,12.08c0,8.62,4.82,15.61,10.77,15.61,3.74,0,7-2.76,9-7A9,9,0,0,1,634.22,263Z" style="fill:#869156"/><ellipse cx="635.3" cy="235.58" rx="14" ry="12.38" style="fill:#8c9b57"/><ellipse cx="640.68" cy="222.65" rx="10.77" ry="15.61" style="fill:#8c9b57"/><ellipse cx="651.99" cy="233.42" rx="7" ry="8.08" style="fill:#8c9b57"/><ellipse cx="644.45" cy="253.34" rx="14.54" ry="19.38" style="fill:#8c9b57"/><path d="M636.38,245.81c-7.74,0-14-5.55-14-12.39a11,11,0,0,1,.53-3.35,11.2,11.2,0,0,0-1.6,5.74c0,6.84,6.27,12.38,14,12.38,6.42,0,11.81-3.82,13.46-9A14.28,14.28,0,0,1,636.38,245.81Z" style="fill:#869156"/><path d="M645.12,234.06a11.24,11.24,0,0,0-2.25.25c6.73,1.71,11.81,9.57,11.81,19,0,9.69-5.33,17.69-12.29,19.13a11.22,11.22,0,0,0,2.73.35c8,0,14.53-8.67,14.53-19.38S653.15,234.06,645.12,234.06Z" style="fill:#82b650"/><path d="M640.68,207a7.69,7.69,0,0,0-2.69.51c4.64,1.74,8.08,7.83,8.08,15.1S642.63,236,638,237.76a7.69,7.69,0,0,0,2.69.51c6,0,10.77-7,10.77-15.62S646.63,207,640.68,207Z" style="fill:#82b650"/><path d="M652.65,224.91a6.19,6.19,0,0,0-1.61.22c3.08.85,5.38,4,5.38,7.85s-2.3,7-5.38,7.85a5.8,5.8,0,0,0,1.61.23c3.87,0,7-3.62,7-8.08S656.52,224.91,652.65,224.91Z" style="fill:#82b650"/></svg>