<svg xmlns="http://www.w3.org/2000/svg" xmlns:xlink="http://www.w3.org/1999/xlink" viewBox="0 0 336.76 197.78"><defs><clipPath id="a"><path d="M316.77,160v3.13c0-7.59-3.47-16.76-10.46-27-15.1-22-44.28-46.19-82.16-68.06s-79.7-38.69-117.77-47.36c-34.88-8-62.67-8-76.27-.07C23.38,24.53,20,30.43,20,37.84V34.71c0-7.41,3.39-13.31,10.11-17.22,13.6-7.9,41.39-7.88,76.27.07,38.07,8.67,79.89,25.49,117.77,47.36S291.21,111,306.3,133C313.3,143.19,316.79,152.36,316.77,160Z" style="fill:none"/></clipPath><clipPath id="b"><path d="M336.76,160.06v3.13c0,10.52-5.36,19.14-15.93,25.29-19.75,11.47-54.45,12.36-97.7,2.51-40.57-9.24-84.81-27-124.6-50S28,92.51,11.9,69C3.93,57.42,0,46.86,0,37.73V34.6c0,9.12,3.93,19.69,11.9,31.31,16.09,23.47,46.86,49,86.63,72s84,40.71,124.6,50c43.25,9.85,77.95,9,97.69-2.52C331.41,179.2,336.73,170.58,336.76,160.06Z" style="fill:none"/></clipPath><clipPath id="c"><path d="M206.41,89.92l0,7.42c0-6.4-4.2-12.81-12.64-17.68-16.77-9.69-44-9.69-60.64,0-8.28,4.81-12.42,11.12-12.44,17.43l0-7.42c0-6.32,4.17-12.63,12.44-17.44,16.67-9.68,43.87-9.68,60.64,0C202.21,77.11,206.42,83.52,206.41,89.92Z" style="fill:none"/></clipPath><clipPath id="d"><path d="M209.44,89.93l0,7.42c0,6.76-4.46,13.52-13.32,18.67-17.85,10.37-47,10.37-64.93,0-9-5.22-13.55-12.08-13.53-18.93l0-7.43c0,6.86,4.5,13.72,13.53,18.94,18,10.37,47.08,10.37,64.93,0C205,103.45,209.42,96.69,209.44,89.93Z" style="fill:none"/></clipPath><clipPath id="e"><path d="M184.87,72l0,7.42c0-3.18-2.09-6.37-6.29-8.79-8.34-4.82-21.87-4.82-30.16,0-4.12,2.39-6.18,5.53-6.19,8.67l0-7.42c0-3.14,2.07-6.28,6.19-8.68,8.29-4.81,21.82-4.81,30.16,0C182.78,65.65,184.88,68.84,184.87,72Z" style="fill:none"/></clipPath><clipPath id="f"><path d="M187.9,72l0,7.43c0,3.59-2.36,7.17-7.06,9.9-9.47,5.51-24.93,5.5-34.46,0-4.8-2.77-7.19-6.41-7.18-10l0-7.42c0,3.64,2.38,7.28,7.18,10,9.53,5.5,25,5.5,34.46,0C185.54,79.21,187.89,75.62,187.9,72Z" style="fill:none"/></clipPath><clipPath id="g"><path d="M164.82,61.29l0,12.53a.63.63,0,0,1-.36.51,2,2,0,0,1-1.79,0,.64.64,0,0,1-.37-.51l0-12.53a.62.62,0,0,0,.37.52,2,2,0,0,0,1.78,0A.64.64,0,0,0,164.82,61.29Z" style="fill:none"/></clipPath><clipPath id="h"><path d="M70.22,27.07v.63a3.49,3.49,0,0,1-2,2.92V30A3.44,3.44,0,0,0,70.22,27.07Z" style="fill:none"/></clipPath><clipPath id="i"><path d="M53.69,26.3v-.62c0,1.34,1,2.75,2.85,3.84a13.81,13.81,0,0,0,8,1.58v.62a13.77,13.77,0,0,1-8-1.57C54.65,29.06,53.68,27.64,53.69,26.3Z" style="fill:none"/></clipPath><clipPath id="j"><path d="M77,39.28v.62c0,2.93-4.84,5.34-10.76,5.34a17,17,0,0,1-8.22-1.89c-1.62-.93-2.6-2.14-2.61-3.45v-.62c0,1.31,1,2.51,2.61,3.45a17,17,0,0,0,8.22,1.88C72.19,44.61,77.05,42.2,77,39.28Z" style="fill:none"/></clipPath><clipPath id="k"><path d="M50.76,31.75v.62a1.82,1.82,0,0,1-.12.65c-.61,1.69-3.5,2.78-6.38,2.42a7.14,7.14,0,0,1-2.63-.83A2.76,2.76,0,0,1,40,32.36v-.63A2.76,2.76,0,0,0,41.63,34a7,7,0,0,0,2.63.83c2.89.36,5.77-.73,6.39-2.41A2.16,2.16,0,0,0,50.76,31.75Z" style="fill:none"/></clipPath></defs><path d="M232.72,57.72c79.75,46,113.87,101.12,76.19,123S176,183.05,96.29,137-17.59,35.88,20.09,14,153,11.67,232.72,57.72Z" style="fill:#5d99a9"/><g style="isolation:isolate"><g style="isolation:isolate"><g style="clip-path:url(#a)"><g style="isolation:isolate"><path d="M316.77,160v3.13c0-7.59-3.47-16.76-10.46-27-15.1-22-44.28-46.19-82.16-68.06a465.78,465.78,0,0,0-61.93-29.87V35.05a465.9,465.9,0,0,1,61.94,29.87C262,86.79,291.21,111,306.3,133c7,10.21,10.49,19.38,10.47,27" style="fill:#666c6e"/><path d="M162.21,35.05v3.13c-12.74-5-25.46-9.34-37.92-12.89V22.16c12.47,3.55,25.19,7.88,37.92,12.89" style="fill:#6a7072"/><path d="M124.29,22.16v3.13q-9.08-2.58-17.92-4.6-3-.68-5.88-1.28V16.28q2.91.6,5.88,1.28,8.84,2,17.91,4.6" style="fill:#6e7476"/><path d="M100.5,16.28v3.13q-8.34-1.72-16-2.82V13.46q7.69,1.09,16,2.82" style="fill:#72787a"/><path d="M84.45,13.46v3.13q-6.14-.87-11.81-1.34V12.12q5.67.48,11.81,1.34" style="fill:#767c7f"/><path d="M72.64,12.12v3.13c-3.15-.25-6.18-.42-9.1-.49V11.62c2.91.08,5.95.24,9.1.5" style="fill:#7a8083"/><path d="M63.54,11.62v3.14c-2.57-.07-5.06-.06-7.44,0V11.65c2.38-.08,4.87-.09,7.44,0" style="fill:#7e8487"/><path d="M56.1,11.65v3.13q-3.33.11-6.4.42V12.07c2-.21,4.18-.35,6.4-.42" style="fill:#82898b"/><path d="M49.7,12.07V15.2c-2.09.2-4.09.48-6,.82V12.89c1.9-.34,3.9-.62,6-.82" style="fill:#868d8f"/><path d="M43.71,12.89V16a55.11,55.11,0,0,0-7,1.71V14.6a53.05,53.05,0,0,1,7-1.71" style="fill:#8a9194"/><path d="M36.74,14.6v3.13a34.64,34.64,0,0,0-6.63,2.89l-.33.2V17.68l.33-.19a34.64,34.64,0,0,1,6.63-2.89" style="fill:#8e9598"/><path d="M29.78,17.68v3.14A23.09,23.09,0,0,0,26,23.6V20.47a23.73,23.73,0,0,1,3.75-2.79" style="fill:#8a9194"/><path d="M26,20.47V23.6a19.06,19.06,0,0,0-2.08,2.25V22.72A19.06,19.06,0,0,1,26,20.47" style="fill:#868d8f"/><path d="M24,22.72v3.13a18.91,18.91,0,0,0-1.53,2.28V25A17.8,17.8,0,0,1,24,22.72" style="fill:#82898b"/><path d="M22.42,25v3.13a17.65,17.65,0,0,0-1.18,2.53V27.53A17.65,17.65,0,0,1,22.42,25" style="fill:#7e8487"/><path d="M21.24,27.53v3.13a20,20,0,0,0-.83,2.92V30.45a19.65,19.65,0,0,1,.83-2.92" style="fill:#7a8083"/><path d="M20.41,30.45v3.13a22.65,22.65,0,0,0-.4,3.65V34.1a21.58,21.58,0,0,1,.4-3.65" style="fill:#767c7f"/><path d="M20,34.1v3.13c0,.2,0,.4,0,.61V34.71c0-.21,0-.41,0-.61" style="fill:#72787a"/></g></g></g><g style="isolation:isolate"><g style="clip-path:url(#b)"><g style="isolation:isolate"><path d="M336.76,160.06v3.13c0,.26,0,.52,0,.78v-3.13c0-.26,0-.52,0-.78" style="fill:#72787a"/><path d="M336.75,160.84V164a27.76,27.76,0,0,1-.53,4.79v-3.14a27.65,27.65,0,0,0,.53-4.78" style="fill:#767c7f"/><path d="M336.22,165.62v3.14a26.31,26.31,0,0,1-1.15,4v-3.13a26.43,26.43,0,0,0,1.15-4" style="fill:#7a8083"/><path d="M335.07,169.67v3.13a26,26,0,0,1-1.69,3.63V173.3a26,26,0,0,0,1.69-3.63" style="fill:#7e8487"/><path d="M333.38,173.3v3.13a28,28,0,0,1-2.31,3.44v-3.13a28,28,0,0,0,2.31-3.44" style="fill:#82898b"/><path d="M331.07,176.74v3.13a30.57,30.57,0,0,1-3.31,3.56V180.3a30.57,30.57,0,0,0,3.31-3.56" style="fill:#868d8f"/><path d="M327.76,180.3v3.13a38.22,38.22,0,0,1-6.33,4.69V185a38.22,38.22,0,0,0,6.33-4.69" style="fill:#8a9194"/><path d="M321.43,185v3.13l-.59.36a57.33,57.33,0,0,1-11.08,4.85V190.2a56.38,56.38,0,0,0,11.07-4.86l.6-.35" style="fill:#8e9598"/><path d="M309.76,190.2v3.13a83.29,83.29,0,0,1-10.7,2.64v-3.13a83.29,83.29,0,0,0,10.7-2.64" style="fill:#8a9194"/><path d="M299.06,192.84V196q-4.05.72-8.45,1.16V194q4.41-.44,8.46-1.16" style="fill:#868d8f"/><path d="M290.6,194v3.13q-4.16.42-8.6.57v-3.13c3-.11,5.83-.29,8.59-.57" style="fill:#82898b"/><path d="M282,194.57v3.13c-3.07.1-6.23.11-9.5,0V194.6q4.89.12,9.5,0" style="fill:#7e8487"/><path d="M272.51,194.6v3.13q-5.38-.14-11.11-.61V194c3.82.31,7.52.52,11.11.61" style="fill:#7a8083"/><path d="M261.4,194v3.13q-6.61-.54-13.68-1.55v-3.13c4.7.67,9.27,1.18,13.68,1.55" style="fill:#767c7f"/><path d="M247.72,192.44v3.13q-8.72-1.23-18.05-3.16v-3.13c6.21,1.29,12.24,2.34,18.05,3.16" style="fill:#72787a"/><path d="M229.67,189.28v3.13c-2.16-.44-4.33-.92-6.53-1.42q-9.54-2.18-19.32-5V182.9q9.77,2.78,19.32,5c2.2.5,4.37,1,6.53,1.42" style="fill:#6e7476"/><path d="M203.82,182.9V186c-13.33-3.8-26.9-8.41-40.45-13.74v-3.14c13.55,5.34,27.12,9.95,40.45,13.75" style="fill:#6a7072"/><path d="M163.37,169.15v3.14A488.08,488.08,0,0,1,98.53,141C58.76,118.08,28,92.51,11.9,69,3.93,57.42,0,46.86,0,37.73V34.6c0,9.12,3.93,19.69,11.9,31.31,16.09,23.47,46.86,49,86.63,72a486.78,486.78,0,0,0,64.83,31.24" style="fill:#666c6e"/></g></g></g><path d="M324.86,128.74c17.16,25,15.73,45.13-4,56.6s-54.44,12.37-97.69,2.52c-40.57-9.24-84.82-27-124.6-50S28,89.38,11.91,65.91c-17.15-25-15.72-45.12,4-56.6S70.38-3.06,113.63,6.79c40.57,9.25,84.82,27,124.6,50S308.77,105.28,324.86,128.74ZM230.39,177.1c34.87,7.94,62.68,8,76.28.06s13.46-24-.37-44.18C291.21,111,262,86.79,224.15,64.92s-79.7-38.69-117.77-47.36c-34.88-7.95-62.67-8-76.27-.07s-13.47,24,.36,44.18c15.1,22,44.27,46.19,82.15,68.06s79.71,38.69,117.77,47.37" style="fill:#c5cfd3"/></g><g style="isolation:isolate"><g style="clip-path:url(#c)"><path d="M206.41,89.92l0,7.42c0-6.4-4.2-12.81-12.64-17.68a46.08,46.08,0,0,0-6.16-3l0-7.42a47.3,47.3,0,0,1,6.16,3c8.44,4.88,12.65,11.29,12.64,17.69" style="fill:#7c7c7c"/><path d="M187.61,69.28l0,7.42c-1.68-.66-3.42-1.24-5.2-1.75l0-7.43c1.78.51,3.52,1.1,5.2,1.76" style="fill:#818181"/><path d="M182.41,67.52l0,7.43c-1.46-.42-3-.79-4.47-1.1l0-7.42c1.51.31,3,.68,4.47,1.09" style="fill:#868686"/><path d="M177.94,66.43l0,7.42c-1.4-.29-2.83-.54-4.26-.74l0-7.42c1.44.2,2.86.45,4.26.74" style="fill:#8b8b8b"/><path d="M173.68,65.69l0,7.42c-1.38-.2-2.78-.35-4.18-.47l0-7.42c1.4.12,2.8.27,4.18.47" style="fill:#8f8f8f"/><path d="M169.5,65.22l0,7.42c-1.4-.11-2.82-.19-4.23-.22l0-7.43c1.41,0,2.83.11,4.23.23" style="fill:#949494"/><path d="M165.27,65l0,7.43c-1.47,0-2.94,0-4.41,0l0-7.43c1.47-.05,2.94-.05,4.41,0" style="fill:#999"/><path d="M160.86,65l0,7.43c-1.59,0-3.19.16-4.77.31l0-7.42c1.58-.16,3.18-.26,4.77-.32" style="fill:#9e9e9e"/><path d="M156.09,65.33l0,7.42c-1.84.19-3.67.44-5.47.77l0-7.43c1.8-.32,3.63-.57,5.47-.76" style="fill:#a3a3a3"/><path d="M150.62,66.09l0,7.43a61.77,61.77,0,0,0-8.12,2l0-7.42a61.78,61.78,0,0,1,8.12-2" style="fill:#a7a7a7"/><path d="M142.5,68.12l0,7.42a48.16,48.16,0,0,0-9.37,4.12l-.52.3,0-7.42.52-.31a48.13,48.13,0,0,1,9.37-4.11" style="fill:#acacac"/><path d="M132.61,72.54l0,7.42a33,33,0,0,0-5.41,4l0-7.42a33.47,33.47,0,0,1,5.41-4" style="fill:#a7a7a7"/><path d="M127.2,76.55l0,7.42a24.22,24.22,0,0,0-2.65,2.86l0-7.43a24.15,24.15,0,0,1,2.65-2.85" style="fill:#a3a3a3"/><path d="M124.55,79.4l0,7.43a19.52,19.52,0,0,0-1.73,2.56l0-7.42a20.3,20.3,0,0,1,1.73-2.57" style="fill:#9e9e9e"/><path d="M122.82,82l0,7.42a16.77,16.77,0,0,0-1.14,2.44l0-7.42A17.35,17.35,0,0,1,122.82,82" style="fill:#999"/><path d="M121.68,84.41l0,7.42a15.44,15.44,0,0,0-.7,2.42l0-7.42a16.24,16.24,0,0,1,.7-2.42" style="fill:#949494"/><path d="M121,86.83l0,7.42a14.71,14.71,0,0,0-.28,2.47l0-7.43a14.72,14.72,0,0,1,.28-2.46" style="fill:#8f8f8f"/><path d="M120.7,89.29l0,7.43c0,.12,0,.25,0,.37l0-7.42c0-.13,0-.25,0-.38" style="fill:#8b8b8b"/></g></g><path d="M194,77.69c16.94,9.78,17,25.64.2,35.43s-44.23,9.78-61.18,0-17-25.65-.19-35.43S177.08,67.9,194,77.69Z" style="fill:#6cb2c4"/><g style="isolation:isolate"><g style="clip-path:url(#d)"><path d="M209.44,89.93l0,7.42c0,.13,0,.27,0,.4l0-7.42c0-.14,0-.27,0-.4" style="fill:#8b8b8b"/><path d="M209.43,90.33l0,7.42a15.7,15.7,0,0,1-.3,2.64l0-7.42a14.83,14.83,0,0,0,.3-2.64" style="fill:#8f8f8f"/><path d="M209.13,93l0,7.42a16.18,16.18,0,0,1-.74,2.59l0-7.42a16.48,16.48,0,0,0,.74-2.59" style="fill:#949494"/><path d="M208.39,95.56l0,7.42a18.24,18.24,0,0,1-1.23,2.62l0-7.43a18.13,18.13,0,0,0,1.23-2.61" style="fill:#999"/><path d="M207.16,98.17l0,7.43a20.93,20.93,0,0,1-1.85,2.74l0-7.42a21,21,0,0,0,1.85-2.75" style="fill:#9e9e9e"/><path d="M205.31,100.92l0,7.42a26,26,0,0,1-2.84,3.06l0-7.42a26.77,26.77,0,0,0,2.84-3.06" style="fill:#a3a3a3"/><path d="M202.47,104l0,7.42a35.62,35.62,0,0,1-5.8,4.29l0-7.42a35.62,35.62,0,0,0,5.8-4.29" style="fill:#a7a7a7"/><path d="M196.67,108.27l0,7.42-.55.33a52.42,52.42,0,0,1-10,4.41l0-7.42a52.33,52.33,0,0,0,10-4.41l.55-.33" style="fill:#acacac"/><path d="M186.09,113l0,7.42a66.48,66.48,0,0,1-8.69,2.16l0-7.42a67,67,0,0,0,8.7-2.16" style="fill:#a7a7a7"/><path d="M177.39,115.17l0,7.42c-1.92.35-3.88.62-5.86.82l0-7.42c2-.2,3.94-.47,5.86-.82" style="fill:#a3a3a3"/><path d="M171.53,116l0,7.42c-1.69.17-3.4.28-5.11.34l0-7.42c1.7-.06,3.41-.17,5.1-.34" style="fill:#9e9e9e"/><path d="M166.43,116.33l0,7.42c-1.56,0-3.14.06-4.71,0l0-7.42c1.57,0,3.15,0,4.72,0" style="fill:#999"/><path d="M161.71,116.35l0,7.42c-1.51,0-3-.12-4.53-.24l0-7.42c1.5.12,3,.2,4.53.24" style="fill:#949494"/><path d="M157.18,116.11l0,7.42c-1.5-.12-3-.29-4.47-.5l0-7.42c1.47.21,3,.37,4.47.5" style="fill:#8f8f8f"/><path d="M152.71,115.61l0,7.42c-1.54-.22-3.06-.48-4.56-.79l0-7.43c1.5.31,3,.58,4.56.8" style="fill:#8b8b8b"/><path d="M148.15,114.81l0,7.43c-1.63-.34-3.23-.73-4.79-1.18l0-7.42c1.57.45,3.16.84,4.79,1.17" style="fill:#868686"/><path d="M143.36,113.64l0,7.42a58.73,58.73,0,0,1-5.57-1.88l0-7.42a58.73,58.73,0,0,0,5.57,1.88" style="fill:#818181"/><path d="M137.79,111.76l0,7.42a49.57,49.57,0,0,1-6.6-3.16c-9-5.22-13.55-12.08-13.53-18.93l0-7.43c0,6.86,4.5,13.72,13.53,18.94a50.84,50.84,0,0,0,6.6,3.16" style="fill:#7c7c7c"/></g></g><path d="M195.9,71c18,10.37,18,27.24.21,37.61s-47,10.37-64.93,0S113.13,81.36,131,71,177.94,60.62,195.9,71Zm-62.58,36.37c16.77,9.68,44,9.68,60.64,0s16.57-25.43-.2-35.12-44-9.68-60.64,0-16.57,25.44.2,35.13" style="fill:#cecece"/><g style="isolation:isolate"><g style="clip-path:url(#e)"><path d="M184.87,72l0,7.42c0-3.18-2.09-6.37-6.29-8.79a21.59,21.59,0,0,0-3.06-1.47l0-7.42a22.7,22.7,0,0,1,3.06,1.46c4.2,2.43,6.3,5.62,6.29,8.8" style="fill:#7c7c7c"/><path d="M175.52,61.76l0,7.42c-.84-.33-1.7-.62-2.59-.88l0-7.42c.89.26,1.75.55,2.59.88" style="fill:#818181"/><path d="M172.93,60.88l0,7.42q-1.09-.3-2.22-.54l0-7.42q1.13.22,2.22.54" style="fill:#868686"/><path d="M170.71,60.34l0,7.42c-.7-.14-1.41-.27-2.12-.37l0-7.42c.71.1,1.42.22,2.12.37" style="fill:#8b8b8b"/><path d="M168.59,60l0,7.42c-.69-.1-1.38-.17-2.08-.23l0-7.42c.7,0,1.39.13,2.08.23" style="fill:#8f8f8f"/><path d="M166.51,59.74l0,7.42c-.7-.06-1.4-.1-2.11-.11l0-7.43q1.05,0,2.1.12" style="fill:#949494"/><path d="M164.41,59.62l0,7.43c-.73,0-1.46,0-2.19,0l0-7.43c.73,0,1.47,0,2.2,0" style="fill:#999"/><path d="M162.21,59.63l0,7.43c-.79,0-1.58.08-2.37.15l0-7.42c.79-.08,1.58-.13,2.37-.16" style="fill:#9e9e9e"/><path d="M159.84,59.79l0,7.42c-.92.1-1.83.22-2.72.38l0-7.42c.89-.16,1.8-.29,2.72-.38" style="fill:#a3a3a3"/><path d="M157.12,60.17l0,7.42a30.59,30.59,0,0,0-4,1l0-7.42a30.59,30.59,0,0,1,4-1" style="fill:#a7a7a7"/><path d="M153.08,61.18l0,7.42a23.66,23.66,0,0,0-4.66,2.05l-.26.15,0-7.42.26-.16a24.24,24.24,0,0,1,4.66-2" style="fill:#acacac"/><path d="M148.16,63.38l0,7.42a16.61,16.61,0,0,0-2.69,2l0-7.42a16.61,16.61,0,0,1,2.69-2" style="fill:#a7a7a7"/><path d="M145.47,65.37l0,7.42a12.35,12.35,0,0,0-1.32,1.42l0-7.42a12.35,12.35,0,0,1,1.32-1.42" style="fill:#a3a3a3"/><path d="M144.15,66.79l0,7.42a9.88,9.88,0,0,0-.86,1.28l0-7.42a9.25,9.25,0,0,1,.86-1.28" style="fill:#9e9e9e"/><path d="M143.29,68.07l0,7.42a7.79,7.79,0,0,0-.57,1.21l0-7.42a7.79,7.79,0,0,1,.57-1.21" style="fill:#999"/><path d="M142.72,69.28l0,7.42a8.76,8.76,0,0,0-.35,1.21l0-7.43a7.71,7.71,0,0,1,.34-1.2" style="fill:#949494"/><path d="M142.38,70.48l0,7.43a8.44,8.44,0,0,0-.14,1.22l0-7.42a6.44,6.44,0,0,1,.14-1.23" style="fill:#8f8f8f"/><path d="M142.24,71.71l0,7.42v.19l0-7.42a1.21,1.21,0,0,1,0-.19" style="fill:#8b8b8b"/></g></g><g style="opacity:0.1"><ellipse cx="163.54" cy="80.43" rx="14.82" ry="25.59" transform="translate(82.64 243.74) rotate(-89.84)" style="fill:#161615"/></g><ellipse cx="163.54" cy="77.65" rx="13.23" ry="22.84" transform="translate(85.42 240.97) rotate(-89.84)" style="fill:#6cb2c4"/><g style="isolation:isolate"><g style="clip-path:url(#f)"><path d="M187.9,72l0,7.43v.21l0-7.42V72" style="fill:#8b8b8b"/><path d="M187.9,72.25l0,7.42a9.38,9.38,0,0,1-.16,1.4l0-7.42a8.23,8.23,0,0,0,.16-1.4" style="fill:#8f8f8f"/><path d="M187.74,73.65l0,7.42a9,9,0,0,1-.4,1.38l0-7.42a9,9,0,0,0,.4-1.38" style="fill:#949494"/><path d="M187.34,75l0,7.42a9.17,9.17,0,0,1-.65,1.39l0-7.43a9.07,9.07,0,0,0,.65-1.38" style="fill:#999"/><path d="M186.69,76.41l0,7.43a11.55,11.55,0,0,1-1,1.45l0-7.42a10.07,10.07,0,0,0,1-1.46" style="fill:#9e9e9e"/><path d="M185.71,77.87l0,7.42a12.62,12.62,0,0,1-1.51,1.62l0-7.42a13.32,13.32,0,0,0,1.51-1.62" style="fill:#a3a3a3"/><path d="M184.2,79.49l0,7.42a18.41,18.41,0,0,1-3.07,2.28l0-7.42a19,19,0,0,0,3.07-2.28" style="fill:#a7a7a7"/><path d="M181.13,81.77l0,7.42-.29.17a27.82,27.82,0,0,1-5.32,2.34l0-7.42a27.82,27.82,0,0,0,5.32-2.34l.29-.17" style="fill:#acacac"/><path d="M175.52,84.28l0,7.42a35.85,35.85,0,0,1-4.62,1.15l0-7.42a35.85,35.85,0,0,0,4.62-1.15" style="fill:#a7a7a7"/><path d="M170.9,85.43l0,7.42c-1,.19-2.06.33-3.11.43l0-7.42c1.05-.1,2.09-.25,3.11-.43" style="fill:#a3a3a3"/><path d="M167.79,85.86l0,7.42c-.9.09-1.8.15-2.71.18l0-7.42c.91,0,1.82-.09,2.71-.18" style="fill:#9e9e9e"/><path d="M165.08,86l0,7.42c-.83,0-1.67,0-2.5,0l0-7.43c.83,0,1.67,0,2.5,0" style="fill:#999"/><path d="M162.58,86.05l0,7.43c-.8,0-1.61-.07-2.41-.13l0-7.43c.8.07,1.61.11,2.41.13" style="fill:#949494"/><path d="M160.17,85.92l0,7.43c-.79-.07-1.59-.16-2.37-.27l0-7.42c.78.11,1.58.2,2.37.26" style="fill:#8f8f8f"/><path d="M157.8,85.66l0,7.42c-.82-.11-1.63-.25-2.42-.42l0-7.42c.8.16,1.6.3,2.42.42" style="fill:#8b8b8b"/><path d="M155.38,85.24l0,7.42c-.86-.18-1.71-.39-2.54-.62l0-7.42c.83.23,1.68.44,2.54.62" style="fill:#868686"/><path d="M152.84,84.62l0,7.42a30.24,30.24,0,0,1-3-1l0-7.42c1,.37,1.94.71,3,1" style="fill:#818181"/><path d="M149.88,83.62l0,7.42a26.93,26.93,0,0,1-3.5-1.68c-4.8-2.77-7.19-6.41-7.18-10l0-7.42c0,3.64,2.38,7.28,7.18,10a27.57,27.57,0,0,0,3.5,1.68" style="fill:#7c7c7c"/></g></g><path d="M180.71,62c9.53,5.5,9.58,14.46.12,20s-24.93,5.5-34.46,0-9.58-14.45-.11-20S171.18,56.48,180.71,62ZM148.51,80.7c8.34,4.81,21.87,4.81,30.16,0s8.24-12.66-.1-17.48-21.87-4.81-30.16,0-8.25,12.66.1,17.48" style="fill:#cecece"/><path d="M162,58.22a61,61,0,0,0-5.4-6.48,20.65,20.65,0,0,0-6.68-4.91,7.8,7.8,0,0,0-4-.6,6.57,6.57,0,0,0-1.93.56,8.42,8.42,0,0,0-1.7,1.08,18.58,18.58,0,0,0-4.71,6.74,73.24,73.24,0,0,0-4.74,16.1c-.54,2.76-1,5.54-1.37,8.33s-.73,5.59-1,8.39a130.36,130.36,0,0,1,1.78-16.82c.47-2.79,1.09-5.55,1.82-8.29a52.73,52.73,0,0,1,2.81-8,19.09,19.09,0,0,1,5-7,8.92,8.92,0,0,1,1.86-1.16,7.18,7.18,0,0,1,2.13-.59,8,8,0,0,1,4.28.7,20.91,20.91,0,0,1,6.72,5.21A53.85,53.85,0,0,1,162,58.22Z" style="fill:#8fd9ea"/><g style="isolation:isolate"><g style="isolation:isolate"><g style="clip-path:url(#g)"><g style="isolation:isolate"><polyline points="164.82 61.3 164.78 73.82 164.78 73.83 164.82 61.31 164.82 61.3" style="fill:#777"/><path d="M164.82,61.31l0,12.52a.17.17,0,0,1,0,.07l0-12.52s0-.05,0-.07" style="fill:#7c7c7c"/><path d="M164.81,61.38l0,12.52a.14.14,0,0,1,0,.07l0-12.52s0-.05,0-.07" style="fill:gray"/><path d="M164.79,61.45l0,12.52,0,.07,0-12.52,0-.07" style="fill:#848484"/><path d="M164.76,61.52l0,12.52a.22.22,0,0,1-.05.08l0-12.52.06-.08" style="fill:#888"/><path d="M164.7,61.6l0,12.52a.3.3,0,0,1-.08.08l0-12.52.07-.08" style="fill:#8c8c8c"/><path d="M164.63,61.68l0,12.52a.67.67,0,0,1-.16.12l0-12.52.16-.12" style="fill:#909090"/><path d="M164.47,61.8l0,12.52h0a1.39,1.39,0,0,1-.28.12l0-12.52a1.18,1.18,0,0,0,.28-.12h0" style="fill:#949494"/><path d="M164.17,61.93l0,12.52a1.05,1.05,0,0,1-.24.06l0-12.52.24-.06" style="fill:#909090"/><path d="M163.93,62l0,12.52-.17,0,0-12.53.16,0" style="fill:#8c8c8c"/><path d="M163.77,62l0,12.53h-.13l0-12.53h.14" style="fill:#888"/><path d="M163.63,62l0,12.53h-.13l0-12.53h.13" style="fill:#848484"/><path d="M163.5,62l0,12.53h-.13l0-12.52h.12" style="fill:gray"/><path d="M163.38,62l0,12.52h-.12l0-12.53.12,0" style="fill:#7c7c7c"/><path d="M163.26,62l0,12.53-.12,0,0-12.52.13,0" style="fill:#777"/><path d="M163.13,62l0,12.52-.13,0L163,62l.13,0" style="fill:#737373"/><path d="M163,62l0,12.52-.16,0,0-12.52L163,62" style="fill:#6f6f6f"/><path d="M162.85,61.9l0,12.52a.76.76,0,0,1-.18-.09.64.64,0,0,1-.37-.51l0-12.53a.62.62,0,0,0,.37.52l.18.09" style="fill:#6b6b6b"/></g></g></g><path d="M164.45,60.78c.49.28.49.74,0,1a2,2,0,0,1-1.78,0,.54.54,0,0,1,0-1A1.93,1.93,0,0,1,164.45,60.78Z" style="fill:#b2b2b2"/></g><path d="M163.91,58.6A36.77,36.77,0,0,1,169,51.68,16.21,16.21,0,0,1,172.46,49a8.62,8.62,0,0,1,4.21-1.22,8.09,8.09,0,0,1,4.24,1.2,14.48,14.48,0,0,1,3.36,2.82,34.23,34.23,0,0,1,4.8,7.22,92.94,92.94,0,0,1,6,16.15A144.42,144.42,0,0,1,198.81,92q-.88-4.21-2-8.37c-.7-2.78-1.46-5.54-2.3-8.27a98.54,98.54,0,0,0-6.16-16,33.66,33.66,0,0,0-4.64-7.1,13.93,13.93,0,0,0-3.17-2.72,7.8,7.8,0,0,0-3.91-1.18,8,8,0,0,0-4,1,15.69,15.69,0,0,0-3.4,2.52A39.34,39.34,0,0,0,163.91,58.6Z" style="fill:#8fd9ea"/><path d="M163.91,59.36c.43-2.83,1-5.64,1.64-8.43A18.72,18.72,0,0,1,167,46.85a2.48,2.48,0,0,1,.75-.92.84.84,0,0,1,.72-.12,1.22,1.22,0,0,1,.55.39,6.46,6.46,0,0,1,.94,2,53.68,53.68,0,0,1,1.47,8.49c.32,2.85.56,5.7.77,8.56q.52,8.56.74,17.14c.12,5.71.18,11.43.08,17.15l-.68-17.13c-.25-5.71-.49-11.42-.91-17.11-.18-2.85-.4-5.7-.69-8.53a60,60,0,0,0-1.35-8.4,5.79,5.79,0,0,0-.78-1.86c-.21-.25-.37-.33-.59-.19a2.37,2.37,0,0,0-.61.73A20,20,0,0,0,165.91,51C165.11,53.77,164.51,56.57,163.91,59.36Z" style="fill:#8fd9ea"/><path d="M163.15,58.6c-1.09-3.63-2.21-7.25-3.6-10.76a43.22,43.22,0,0,0-2.35-5.13,15.27,15.27,0,0,0-1.55-2.31,3.82,3.82,0,0,0-2.12-1.46,2.44,2.44,0,0,0-2.11,1.18,11.17,11.17,0,0,0-1.37,2.38,37.5,37.5,0,0,0-1.76,5.34,112.1,112.1,0,0,0-2.15,11.1c-1.17,7.47-1.92,15-2.59,22.54-.34,3.77-.63,7.54-.9,11.32s-.52,7.55-.75,11.33c.14-7.57.52-15.14,1.06-22.7s1.31-15.1,2.42-22.6a112.05,112.05,0,0,1,2.24-11.17,36.49,36.49,0,0,1,1.83-5.43,11.67,11.67,0,0,1,1.47-2.52,4.4,4.4,0,0,1,1.13-1,2.39,2.39,0,0,1,1.55-.34,4.29,4.29,0,0,1,2.46,1.69,15,15,0,0,1,1.56,2.43,42.44,42.44,0,0,1,2.28,5.23C161.18,51.28,162.23,54.93,163.15,58.6Z" style="fill:#8fd9ea"/><g style="isolation:isolate"><g style="isolation:isolate"><g style="clip-path:url(#h)"><g style="isolation:isolate"><path d="M70.22,27.07v0" style="fill:#515a32"/><path d="M70.22,27.14v.63a3.44,3.44,0,0,1,0,.45V27.6a3.59,3.59,0,0,0,0-.46" style="fill:#545d34"/><path d="M70.17,27.6v.62a2.13,2.13,0,0,1-.13.43V28a2.35,2.35,0,0,0,.13-.43" style="fill:#576036"/><path d="M70,28v.62a3.89,3.89,0,0,1-.19.42v-.63A2.17,2.17,0,0,0,70,28" style="fill:#5a6338"/><path d="M69.85,28.44v.63a3.52,3.52,0,0,1-.29.42v-.62a4,4,0,0,0,.28-.43" style="fill:#5c6639"/><path d="M69.57,28.87v.62a3.57,3.57,0,0,1-.42.46v-.62a6,6,0,0,0,.43-.46" style="fill:#5f693b"/><path d="M69.14,29.33V30a5.08,5.08,0,0,1-.84.62V30a5.08,5.08,0,0,0,.84-.62" style="fill:#626c3d"/><path d="M68.3,30v.62l-.08.05V30l.08,0" style="fill:#65703f"/></g></g></g><polygon points="68.22 29.99 68.22 30.62 61.95 27 61.95 26.38 68.22 29.99" style="fill:#4b532f"/><path d="M67.37,23.23c3.43,2,3.82,5,.85,6.76L62,26.37l2.58,4.73a13.81,13.81,0,0,1-8-1.58c-3.44-2-3.82-5-.86-6.76S63.93,21.24,67.37,23.23Z" style="fill:#79864b"/><g style="isolation:isolate"><g style="clip-path:url(#i)"><g style="isolation:isolate"><path d="M64.53,31.1v.62h-.07V31.1h.07" style="fill:#5f693b"/><path d="M64.46,31.1v.63c-.28,0-.57.05-.85.06v-.63c.28,0,.57,0,.85-.06" style="fill:#5c6639"/><path d="M63.61,31.16v.63c-.28,0-.55,0-.83,0v-.63c.28,0,.55,0,.83,0" style="fill:#5a6338"/><path d="M62.78,31.16v.63l-.82,0v-.63c.27,0,.55,0,.82,0" style="fill:#576036"/><path d="M62,31.12v.63l-.86-.1V31c.29,0,.57.08.86.1" style="fill:#545d34"/><path d="M61.1,31v.63c-.31,0-.61-.1-.91-.16v-.62c.3.06.61.11.91.15" style="fill:#515a32"/><path d="M60.19,30.87v.62c-.34-.07-.68-.15-1-.24v-.63c.33.09.66.18,1,.25" style="fill:#4e5731"/><path d="M59.19,30.62v.63a12.1,12.1,0,0,1-1.2-.41v-.62c.38.15.78.28,1.19.4" style="fill:#4c542f"/><path d="M58,30.22v.62a10.76,10.76,0,0,1-1.45-.69c-1.89-1.09-2.86-2.51-2.85-3.85v-.62c0,1.34,1,2.75,2.85,3.84a10.37,10.37,0,0,0,1.46.7" style="fill:#49512d"/></g></g></g></g><g style="isolation:isolate"><polygon points="66.24 39.28 66.24 39.9 56.97 37.15 56.97 36.53 66.24 39.28" style="fill:#545d34"/><path d="M74.43,35.83C76.05,36.76,77,38,77,39.28c0,2.92-4.85,5.33-10.77,5.33a17,17,0,0,1-8.22-1.88c-1.61-.94-2.6-2.14-2.61-3.45h10.8L57,36.53c1.94-1.61,5.45-2.59,9.24-2.59A17,17,0,0,1,74.43,35.83Z" style="fill:#79864b"/><g style="isolation:isolate"><g style="clip-path:url(#j)"><g style="isolation:isolate"><path d="M77,39.28v0" style="fill:#515a32"/><path d="M77,39.37V40a2.3,2.3,0,0,1,0,.45v-.63a3.32,3.32,0,0,0,.06-.44" style="fill:#545d34"/><path d="M77,39.81v.63a3.6,3.6,0,0,1-.12.44v-.63a3.17,3.17,0,0,0,.12-.44" style="fill:#576036"/><path d="M76.86,40.25v.63a3.21,3.21,0,0,1-.22.46v-.63a2.77,2.77,0,0,0,.22-.46" style="fill:#5a6338"/><path d="M76.64,40.71v.63a4.68,4.68,0,0,1-.33.49V41.2a3,3,0,0,0,.33-.49" style="fill:#5c6639"/><path d="M76.31,41.2v.63a5.81,5.81,0,0,1-.54.58v-.63a5.81,5.81,0,0,0,.54-.58" style="fill:#5f693b"/><path d="M75.77,41.78v.63a7.46,7.46,0,0,1-1.19.87v-.62a7.49,7.49,0,0,0,1.19-.88" style="fill:#626c3d"/><path d="M74.58,42.66v.62a11.4,11.4,0,0,1-2.46,1.09v-.62a11.91,11.91,0,0,0,2.46-1.09" style="fill:#65703f"/><path d="M72.12,43.75v.62a16.68,16.68,0,0,1-2.19.55v-.63a16.7,16.7,0,0,0,2.19-.54" style="fill:#626c3d"/><path d="M69.93,44.29v.63c-.5.09-1,.16-1.55.21v-.62c.53-.06,1.05-.13,1.55-.22" style="fill:#5f693b"/><path d="M68.38,44.51v.62q-.67.07-1.38.09V44.6c.46,0,.92-.05,1.37-.09" style="fill:#5c6639"/><path d="M67,44.6v.62l-.73,0h-.56V44.6H67" style="fill:#5a6338"/><path d="M65.71,44.6v.63c-.41,0-.81,0-1.21-.06v-.63c.4,0,.8.05,1.21.06" style="fill:#576036"/><path d="M64.5,44.54v.63c-.4,0-.8-.08-1.18-.14v-.62c.39.05.78.1,1.18.13" style="fill:#545d34"/><path d="M63.32,44.41V45c-.41-.05-.8-.12-1.18-.2V44.2c.38.08.78.15,1.18.21" style="fill:#515a32"/><path d="M62.14,44.2v.63q-.64-.13-1.23-.3V43.9q.6.16,1.23.3" style="fill:#4e5731"/><path d="M60.91,43.9v.63c-.47-.14-.93-.29-1.35-.46v-.62c.42.16.88.32,1.35.45" style="fill:#4c542f"/><path d="M59.56,43.45v.62a9.61,9.61,0,0,1-1.51-.72c-1.62-.93-2.6-2.14-2.61-3.45v-.62c0,1.31,1,2.51,2.61,3.45a12.47,12.47,0,0,0,1.51.72" style="fill:#49512d"/></g></g></g></g><g style="isolation:isolate"><polygon points="46.52 28.67 46.52 29.3 45.39 32.37 45.39 31.74 46.52 28.67" style="fill:#5b6539"/><path d="M49.17,29.51c1.3.75,1.86,1.84,1.48,2.89-.62,1.68-3.5,2.77-6.39,2.41A7,7,0,0,1,41.63,34c-1.26-.73-1.89-1.81-1.49-2.9.61-1.68,3.5-2.77,6.38-2.41l-1.13,3.07,3.67-2.29Z" style="fill:#79864b"/><g style="isolation:isolate"><g style="clip-path:url(#k)"><g style="isolation:isolate"><path d="M50.76,31.75v0" style="fill:#515a32"/><path d="M50.76,31.8v.62a1.55,1.55,0,0,1,0,.31v-.62a1.71,1.71,0,0,0,0-.31" style="fill:#545d34"/><path d="M50.73,32.11v.62a1.4,1.4,0,0,1-.09.29v-.61h0c0-.1.06-.2.08-.29" style="fill:#576036"/><path d="M50.64,32.41V33a1.77,1.77,0,0,1-.15.31v-.63a1.77,1.77,0,0,0,.15-.31" style="fill:#5a6338"/><path d="M50.49,32.72v.63a2.2,2.2,0,0,1-.21.32V33a2.2,2.2,0,0,0,.21-.32" style="fill:#5c6639"/><path d="M50.28,33v.63a2.9,2.9,0,0,1-.34.36v-.62a2.92,2.92,0,0,0,.34-.37" style="fill:#5f693b"/><path d="M49.94,33.41V34a4.33,4.33,0,0,1-.67.5v-.62a4.33,4.33,0,0,0,.67-.5" style="fill:#626c3d"/><path d="M49.27,33.91v.62a6.26,6.26,0,0,1-1.31.58v-.62a6.47,6.47,0,0,0,1.3-.58" style="fill:#65703f"/><path d="M48,34.49v.62a7.45,7.45,0,0,1-1,.26v-.63a7.85,7.85,0,0,0,1-.25" style="fill:#626c3d"/><path d="M47,34.74v.63c-.22,0-.45.07-.68.09v-.62l.69-.1" style="fill:#5f693b"/><path d="M46.27,34.84v.62l-.59,0v-.63l.58,0" style="fill:#5c6639"/><path d="M45.69,34.87v.63h-.53v-.62h.54" style="fill:#5a6338"/><path d="M45.15,34.88v.62l-.52,0v-.63l.52,0" style="fill:#576036"/><path d="M44.63,34.85v.63l-.37,0-.14,0v-.63l.14,0,.37,0" style="fill:#545d34"/><path d="M44.12,34.79v.63l-.52-.09V34.7a4.34,4.34,0,0,0,.52.09" style="fill:#515a32"/><path d="M43.6,34.7v.63L43,35.19v-.62l.55.13" style="fill:#4e5731"/><path d="M43.05,34.57v.62a5.81,5.81,0,0,1-.63-.21v-.63c.2.08.41.15.64.22" style="fill:#4c542f"/><path d="M42.41,34.35V35a7.06,7.06,0,0,1-.78-.37A2.76,2.76,0,0,1,40,32.36v-.63A2.76,2.76,0,0,0,41.63,34a5.62,5.62,0,0,0,.78.37" style="fill:#49512d"/></g></g></g></g></svg>