<svg xmlns="http://www.w3.org/2000/svg" viewBox="0 0 353.12 368.5"><polygon points="353.12 267.61 179.51 368.5 0 264.86 173.61 163.97 353.12 267.61" style="fill:#c1c0bd"/><g style="isolation:isolate"><polygon points="294.7 87.61 219.66 131.22 99.11 61.62 174.15 18.01 294.7 87.61" style="fill:#c2764b"/><polygon points="294.7 87.61 294.21 259.23 219.18 302.83 219.66 131.22 294.7 87.61" style="fill:#ae6a43"/><polygon points="219.66 131.22 219.18 302.83 98.63 233.24 99.11 61.62 219.66 131.22" style="fill:#79492f"/></g><polygon points="119.32 164.03 119.25 191.49 108.15 185.08 108.23 157.63 119.32 164.03" style="fill:#88a2b5"/><g style="isolation:isolate"><polygon points="107.94 185.21 109 184.59 119.46 190.63 118.4 191.25 107.94 185.21" style="fill:#dcdcdc"/><polygon points="108.02 158.49 109.08 157.87 109 184.59 107.94 185.21 108.02 158.49" style="fill:#c5c5c5"/><path d="M107.38,157.38l11.74,6.78L119,192.35l-11.74-6.77Zm11,33.87.07-26.73-10.45-6-.08,26.73,10.46,6" style="fill:#898989"/><polygon points="107.38 157.38 108.44 156.76 120.18 163.54 119.12 164.16 107.38 157.38" style="fill:#79492f"/><polygon points="119.12 164.16 120.18 163.54 120.1 191.74 119.04 192.35 119.12 164.16" style="fill:#79492f"/></g><polygon points="134.36 172.75 134.28 200.21 123.19 193.81 123.27 166.35 134.36 172.75" style="fill:#88a2b5"/><g style="isolation:isolate"><polygon points="122.98 193.93 124.04 193.32 134.5 199.35 133.44 199.97 122.98 193.93" style="fill:#dcdcdc"/><polygon points="123.06 167.21 124.12 166.59 124.04 193.32 122.98 193.93 123.06 167.21" style="fill:#c5c5c5"/><path d="M122.42,166.1l11.73,6.78-.08,28.19-11.73-6.77Zm11,33.87.08-26.73-10.45-6L123,193.93l10.45,6" style="fill:#898989"/><polygon points="122.42 166.1 123.48 165.49 135.21 172.26 134.15 172.88 122.42 166.1" style="fill:#79492f"/><polygon points="134.15 172.88 135.21 172.26 135.13 200.46 134.07 201.07 134.15 172.88" style="fill:#79492f"/></g><polygon points="206.54 214.26 206.47 241.72 195.37 235.31 195.45 207.85 206.54 214.26" style="fill:#88a2b5"/><g style="isolation:isolate"><polygon points="195.16 235.44 196.22 234.82 206.68 240.86 205.62 241.47 195.16 235.44" style="fill:#dcdcdc"/><polygon points="195.24 208.71 196.3 208.1 196.22 234.82 195.16 235.44 195.24 208.71" style="fill:#c5c5c5"/><path d="M194.6,207.61l11.74,6.77-.08,28.2-11.74-6.78Zm11,33.86.07-26.72-10.45-6-.08,26.73,10.46,6" style="fill:#898989"/><polygon points="194.6 207.61 195.66 206.99 207.4 213.77 206.34 214.38 194.6 207.61" style="fill:#79492f"/><polygon points="206.34 214.38 207.4 213.77 207.32 241.96 206.26 242.58 206.34 214.38" style="fill:#79492f"/></g><polygon points="190.91 205.24 190.83 232.69 179.73 226.29 179.81 198.83 190.91 205.24" style="fill:#88a2b5"/><g style="isolation:isolate"><polygon points="179.52 226.41 180.58 225.8 191.04 231.83 189.98 232.45 179.52 226.41" style="fill:#dcdcdc"/><polygon points="179.6 199.69 180.66 199.07 180.58 225.8 179.52 226.41 179.6 199.69" style="fill:#c5c5c5"/><path d="M179,198.58l11.74,6.78-.08,28.19-11.74-6.77Zm11,33.87.07-26.73-10.45-6-.08,26.72,10.46,6" style="fill:#898989"/><polygon points="178.96 198.59 180.02 197.97 191.76 204.74 190.7 205.36 178.96 198.59" style="fill:#79492f"/><polygon points="190.7 205.36 191.76 204.74 191.68 232.94 190.62 233.56 190.7 205.36" style="fill:#79492f"/></g><polygon points="160.83 188.09 160.75 215.55 149.66 209.15 149.73 181.69 160.83 188.09" style="fill:#88a2b5"/><g style="isolation:isolate"><polygon points="149.45 209.27 150.51 208.66 160.96 214.69 159.9 215.31 149.45 209.27" style="fill:#dcdcdc"/><polygon points="149.52 182.55 150.58 181.93 150.51 208.66 149.45 209.27 149.52 182.55" style="fill:#c5c5c5"/><path d="M148.89,181.44l11.73,6.78-.08,28.19-11.73-6.77Zm11,33.87.08-26.73-10.46-6-.07,26.72,10.45,6" style="fill:#898989"/><polygon points="148.89 181.44 149.95 180.83 161.68 187.6 160.62 188.22 148.89 181.44" style="fill:#79492f"/><polygon points="160.62 188.22 161.68 187.6 161.6 215.79 160.54 216.41 160.62 188.22" style="fill:#79492f"/></g><polygon points="119.32 124.93 119.25 152.39 108.15 145.99 108.23 118.53 119.32 124.93" style="fill:#88a2b5"/><g style="isolation:isolate"><polygon points="107.94 146.11 109 145.5 119.46 151.53 118.4 152.15 107.94 146.11" style="fill:#dcdcdc"/><polygon points="108.02 119.39 109.08 118.77 109 145.5 107.94 146.11 108.02 119.39" style="fill:#c5c5c5"/><path d="M107.38,118.28l11.74,6.78L119,153.25l-11.74-6.77Zm11,33.87.07-26.73-10.45-6-.08,26.72,10.46,6" style="fill:#898989"/><polygon points="107.38 118.28 108.44 117.67 120.18 124.44 119.12 125.06 107.38 118.28" style="fill:#79492f"/><polygon points="119.12 125.06 120.18 124.44 120.1 152.64 119.04 153.25 119.12 125.06" style="fill:#79492f"/></g><polygon points="134.36 133.66 134.28 161.11 123.19 154.71 123.27 127.25 134.36 133.66" style="fill:#88a2b5"/><g style="isolation:isolate"><polygon points="122.98 154.83 124.04 154.22 134.5 160.25 133.44 160.87 122.98 154.83" style="fill:#dcdcdc"/><polygon points="123.06 128.11 124.12 127.49 124.04 154.22 122.98 154.83 123.06 128.11" style="fill:#c5c5c5"/><path d="M122.42,127l11.73,6.78L134.07,162l-11.73-6.77Zm11,33.87.08-26.73-10.45-6L123,154.83l10.45,6" style="fill:#898989"/><polygon points="122.42 127 123.48 126.39 135.21 133.16 134.15 133.78 122.42 127" style="fill:#79492f"/><polygon points="134.15 133.78 135.21 133.16 135.13 161.36 134.07 161.97 134.15 133.78" style="fill:#79492f"/></g><polygon points="206.54 175.16 206.47 202.62 195.37 196.21 195.45 168.75 206.54 175.16" style="fill:#88a2b5"/><g style="isolation:isolate"><polygon points="195.16 196.34 196.22 195.72 206.68 201.76 205.62 202.37 195.16 196.34" style="fill:#dcdcdc"/><polygon points="195.24 169.61 196.3 169 196.22 195.72 195.16 196.34 195.24 169.61" style="fill:#c5c5c5"/><path d="M194.6,168.51l11.74,6.77-.08,28.2-11.74-6.78Zm11,33.86.07-26.72-10.45-6-.08,26.73,10.46,6" style="fill:#898989"/><polygon points="194.6 168.51 195.66 167.89 207.4 174.67 206.34 175.28 194.6 168.51" style="fill:#79492f"/><polygon points="206.34 175.28 207.4 174.67 207.32 202.86 206.26 203.48 206.34 175.28" style="fill:#79492f"/></g><polygon points="190.91 166.14 190.83 193.59 179.73 187.19 179.81 159.73 190.91 166.14" style="fill:#88a2b5"/><g style="isolation:isolate"><polygon points="179.52 187.31 180.58 186.7 191.04 192.74 189.98 193.35 179.52 187.31" style="fill:#dcdcdc"/><polygon points="179.6 160.59 180.66 159.97 180.58 186.7 179.52 187.31 179.6 160.59" style="fill:#c5c5c5"/><path d="M179,159.49l11.74,6.77-.08,28.2-11.74-6.78Zm11,33.86.07-26.72-10.45-6-.08,26.73,10.46,6" style="fill:#898989"/><polygon points="178.96 159.49 180.02 158.87 191.76 165.65 190.7 166.26 178.96 159.49" style="fill:#79492f"/><polygon points="190.7 166.26 191.76 165.65 191.68 193.84 190.62 194.46 190.7 166.26" style="fill:#79492f"/></g><polygon points="160.83 148.99 160.75 176.45 149.66 170.05 149.73 142.59 160.83 148.99" style="fill:#88a2b5"/><g style="isolation:isolate"><polygon points="149.45 170.17 150.51 169.56 160.96 175.59 159.9 176.21 149.45 170.17" style="fill:#dcdcdc"/><polygon points="149.52 143.45 150.58 142.83 150.51 169.56 149.45 170.17 149.52 143.45" style="fill:#c5c5c5"/><path d="M148.89,142.34l11.73,6.78-.08,28.19-11.73-6.77Zm11,33.87.08-26.73-10.46-6-.07,26.72,10.45,6" style="fill:#898989"/><polygon points="148.89 142.34 149.95 141.73 161.68 148.5 160.62 149.12 148.89 142.34" style="fill:#79492f"/><polygon points="160.62 149.12 161.68 148.5 161.6 176.7 160.54 177.31 160.62 149.12" style="fill:#79492f"/></g><g style="isolation:isolate"><polygon points="294.91 80.3 216.75 125.72 95.16 55.52 173.32 10.1 294.91 80.3" style="fill:#79492f"/><polygon points="294.91 80.3 294.89 87.66 216.73 133.08 216.75 125.72 294.91 80.3" style="fill:#c5c5c5"/><polygon points="216.75 125.72 216.73 133.08 95.14 62.88 95.16 55.52 216.75 125.72" style="fill:#898989"/></g><g style="isolation:isolate"><polygon points="172.79 2.96 172.77 12.76 94.38 58.32 94.41 48.51 172.79 2.96" style="fill:#c5c5c5"/><polygon points="289.93 70.58 289.9 80.39 172.77 12.76 172.79 2.96 289.93 70.58" style="fill:#898989"/><path d="M172.78,0,295,70.58,211.56,119.1,89.3,48.51Zm38.76,116.14,78.39-45.56L172.79,3,94.4,48.51l117.14,67.63" style="fill:#dcdcdc"/><polygon points="295.03 70.58 295.01 80.39 211.53 128.9 211.56 119.09 295.03 70.58" style="fill:#c5c5c5"/><polygon points="211.56 119.09 211.53 128.9 89.27 58.32 89.3 48.51 211.56 119.09" style="fill:#898989"/></g><g style="isolation:isolate"><polygon points="233.27 18.05 211.92 30.45 184.01 14.34 205.36 1.93 233.27 18.05" style="fill:#dcdcdc"/><polygon points="233.27 18.05 233.19 47.47 211.84 59.87 211.92 30.45 233.27 18.05" style="fill:#ae6a43"/><polygon points="211.92 30.45 211.84 59.87 183.93 43.76 184.01 14.34 211.92 30.45" style="fill:#898989"/></g><polygon points="211.92 30.31 226.66 68.35 197.02 51.24 211.92 30.31" style="fill:#898989"/><polygon points="211.92 30.31 233.12 17.99 247.85 56.03 226.66 68.35 211.92 30.31" style="fill:#c5c5c5"/><g style="isolation:isolate"><polygon points="194.06 48.88 194.12 27.57 200.66 31.35 200.6 52.65 194.06 48.88" style="fill:#88a2b5"/><polygon points="194.06 48.88 193.38 49.27 193.44 27.97 194.12 27.57 194.06 48.88" style="fill:#72493d"/><polygon points="200.6 52.65 199.92 53.05 193.38 49.27 194.06 48.88 200.6 52.65" style="fill:#72493d"/></g><polygon points="119.32 85.83 119.25 113.29 108.15 106.89 108.23 79.43 119.32 85.83" style="fill:#88a2b5"/><g style="isolation:isolate"><polygon points="107.94 107.01 109 106.4 119.46 112.43 118.4 113.05 107.94 107.01" style="fill:#dcdcdc"/><polygon points="108.02 80.29 109.08 79.67 109 106.4 107.94 107.01 108.02 80.29" style="fill:#c5c5c5"/><path d="M107.38,79.18,119.12,86,119,114.15l-11.74-6.77Zm11,33.87.07-26.73-10.45-6L107.94,107l10.46,6" style="fill:#898989"/><polygon points="107.38 79.18 108.44 78.57 120.18 85.34 119.12 85.96 107.38 79.18" style="fill:#79492f"/><polygon points="119.12 85.96 120.18 85.34 120.1 113.54 119.04 114.15 119.12 85.96" style="fill:#79492f"/></g><polygon points="134.36 94.56 134.28 122.01 123.19 115.61 123.27 88.15 134.36 94.56" style="fill:#88a2b5"/><g style="isolation:isolate"><polygon points="122.98 115.73 124.04 115.12 134.5 121.15 133.44 121.77 122.98 115.73" style="fill:#dcdcdc"/><polygon points="123.06 89.01 124.12 88.39 124.04 115.12 122.98 115.73 123.06 89.01" style="fill:#c5c5c5"/><path d="M122.42,87.91l11.73,6.77-.08,28.2-11.73-6.78Zm11,33.86L133.51,95l-10.45-6L123,115.73l10.45,6" style="fill:#898989"/><polygon points="122.42 87.91 123.48 87.29 135.21 94.06 134.15 94.68 122.42 87.91" style="fill:#79492f"/><polygon points="134.15 94.68 135.21 94.06 135.13 122.26 134.07 122.88 134.15 94.68" style="fill:#79492f"/></g><polygon points="206.54 136.06 206.47 163.52 195.37 157.11 195.45 129.66 206.54 136.06" style="fill:#88a2b5"/><g style="isolation:isolate"><polygon points="195.16 157.24 196.22 156.62 206.68 162.66 205.62 163.28 195.16 157.24" style="fill:#dcdcdc"/><polygon points="195.24 130.51 196.3 129.9 196.22 156.62 195.16 157.24 195.24 130.51" style="fill:#c5c5c5"/><path d="M194.6,129.41l11.74,6.78-.08,28.19-11.74-6.77Zm11,33.86.07-26.72-10.45-6-.08,26.73,10.46,6" style="fill:#898989"/><polygon points="194.6 129.41 195.66 128.79 207.4 135.57 206.34 136.19 194.6 129.41" style="fill:#79492f"/><polygon points="206.34 136.19 207.4 135.57 207.32 163.76 206.26 164.38 206.34 136.19" style="fill:#79492f"/></g><polygon points="190.91 127.04 190.83 154.5 179.73 148.09 179.81 120.63 190.91 127.04" style="fill:#88a2b5"/><g style="isolation:isolate"><polygon points="179.52 148.22 180.58 147.6 191.04 153.64 189.98 154.25 179.52 148.22" style="fill:#dcdcdc"/><polygon points="179.6 121.49 180.66 120.88 180.58 147.6 179.52 148.22 179.6 121.49" style="fill:#c5c5c5"/><path d="M179,120.39l11.74,6.77-.08,28.2-11.74-6.78Zm11,33.86.07-26.72-10.45-6-.08,26.73,10.46,6" style="fill:#898989"/><polygon points="178.96 120.39 180.02 119.77 191.76 126.55 190.7 127.16 178.96 120.39" style="fill:#79492f"/><polygon points="190.7 127.16 191.76 126.55 191.68 154.74 190.62 155.36 190.7 127.16" style="fill:#79492f"/></g><polygon points="160.83 109.89 160.75 137.35 149.66 130.95 149.73 103.49 160.83 109.89" style="fill:#88a2b5"/><g style="isolation:isolate"><polygon points="149.45 131.07 150.51 130.46 160.96 136.49 159.9 137.11 149.45 131.07" style="fill:#dcdcdc"/><polygon points="149.52 104.35 150.58 103.73 150.51 130.46 149.45 131.07 149.52 104.35" style="fill:#c5c5c5"/><path d="M148.89,103.24,160.62,110l-.08,28.19-11.73-6.77Zm11,33.87.08-26.73-10.46-6-.07,26.72,10.45,6" style="fill:#898989"/><polygon points="148.89 103.24 149.95 102.63 161.68 109.4 160.62 110.02 148.89 103.24" style="fill:#79492f"/><polygon points="160.62 110.02 161.68 109.4 161.6 137.6 160.54 138.21 160.62 110.02" style="fill:#79492f"/></g><g style="isolation:isolate"><polygon points="176.15 238.39 176.03 279.33 105.68 238.71 105.8 197.77 176.15 238.39" style="fill:#898989"/><polygon points="176.15 238.39 177.21 237.77 177.09 278.72 176.03 279.33 176.15 238.39" style="fill:#c5c5c5"/><polygon points="105.8 197.77 106.86 197.15 177.21 237.77 176.15 238.39 105.8 197.77" style="fill:#dcdcdc"/></g><polygon points="171 240.9 170.9 275.29 109.55 239.87 109.64 205.48 171 240.9" style="fill:#88a2b5"/><g style="isolation:isolate"><polygon points="109.43 206.34 110.49 205.73 110.4 239.38 109.34 239.99 109.43 206.34" style="fill:#c5c5c5"/><polygon points="109.34 239.99 110.4 239.38 171.11 274.43 170.05 275.05 109.34 239.99" style="fill:#dcdcdc"/><path d="M108.8,205.24l62,35.79-.1,35.12-62-35.79ZM170.05,275l.1-33.64-60.72-35.06L109.34,240,170.05,275" style="fill:#898989"/><polygon points="108.8 205.24 109.86 204.62 171.85 240.41 170.79 241.03 108.8 205.24" style="fill:#898989"/><polygon points="170.79 241.03 171.85 240.41 171.75 275.53 170.69 276.15 170.79 241.03" style="fill:#898989"/></g><g style="isolation:isolate"><polygon points="198.21 289.58 198.3 256.24 208.54 262.15 208.45 295.5 198.21 289.58" style="fill:#88a2b5"/><polygon points="198.21 289.58 197.15 290.2 197.24 256.86 198.3 256.24 198.21 289.58" style="fill:#72493d"/><polygon points="208.45 295.5 207.39 296.11 197.15 290.2 198.21 289.58 208.45 295.5" style="fill:#72493d"/></g><g style="isolation:isolate"><polygon points="188.27 283.82 188.36 250.48 198.6 256.39 198.51 289.73 188.27 283.82" style="fill:#88a2b5"/><polygon points="188.27 283.82 187.21 284.44 187.3 251.09 188.36 250.48 188.27 283.82" style="fill:#72493d"/><polygon points="198.51 289.73 197.45 290.35 187.21 284.44 188.27 283.82 198.51 289.73" style="fill:#72493d"/></g></svg>