<svg xmlns="http://www.w3.org/2000/svg" viewBox="0 0 1928.96 699.65"><g style="isolation:isolate"><polygon points="817.36 103.86 817.34 109.45 89.95 532.16 89.97 526.58 817.36 103.86" style="fill:#babbb7"/><polygon points="89.97 526.58 89.95 532.16 0 480.23 0.02 474.64 89.97 526.58" style="fill:#81827f"/><polygon points="1928.96 642.13 1839.6 694.06 817.36 103.86 89.97 526.58 0.02 474.64 816.76 0 1928.96 642.13" style="fill:#d0d1cc"/><polygon points="1928.96 642.13 1928.95 647.71 1839.59 699.64 1839.6 694.06 1928.96 642.13" style="fill:#babbb7"/><polygon points="1839.6 694.06 1839.59 699.64 817.34 109.45 817.36 103.86 1839.6 694.06" style="fill:#81827f"/></g><polygon points="1912.68 652.06 1856.33 684.81 817.47 85.02 73.58 517.32 16.86 484.57 817.1 19.52 1912.68 652.06" style="fill:#606165"/><polygon points="1857.26 650.86 1885.62 667.23 1882.39 669.11 1854.03 652.73 1857.26 650.86" style="fill:#dcdcdc"/><polygon points="1797.31 619.99 1800.54 618.11 1828.89 634.48 1825.67 636.36 1797.31 619.99" style="fill:#dcdcdc"/><polygon points="1740.59 587.24 1743.82 585.36 1772.18 601.74 1768.95 603.61 1740.59 587.24" style="fill:#dcdcdc"/><polygon points="1683.86 554.49 1687.09 552.61 1715.45 568.99 1712.23 570.86 1683.86 554.49" style="fill:#dcdcdc"/><polygon points="1627.13 521.74 1630.36 519.86 1658.72 536.24 1655.5 538.11 1627.13 521.74" style="fill:#dcdcdc"/><polygon points="1570.41 488.99 1573.64 487.11 1602 503.49 1598.77 505.36 1570.41 488.99" style="fill:#dcdcdc"/><polygon points="1513.69 456.24 1516.92 454.36 1545.28 470.74 1542.05 472.61 1513.69 456.24" style="fill:#dcdcdc"/><polygon points="1456.97 423.49 1460.19 421.62 1488.56 437.99 1485.33 439.87 1456.97 423.49" style="fill:#dcdcdc"/><polygon points="1400.24 390.74 1403.46 388.86 1431.83 405.24 1428.6 407.11 1400.24 390.74" style="fill:#dcdcdc"/><polygon points="1343.51 357.99 1346.74 356.11 1375.1 372.49 1371.88 374.36 1343.51 357.99" style="fill:#dcdcdc"/><polygon points="1286.8 325.24 1290.02 323.37 1318.38 339.74 1315.16 341.62 1286.8 325.24" style="fill:#dcdcdc"/><polygon points="1230.07 292.49 1233.3 290.62 1261.66 306.99 1258.43 308.87 1230.07 292.49" style="fill:#dcdcdc"/><polygon points="1173.34 259.74 1176.57 257.86 1204.94 274.24 1201.71 276.12 1173.34 259.74" style="fill:#dcdcdc"/><polygon points="1116.62 226.99 1119.84 225.11 1148.21 241.49 1144.98 243.36 1116.62 226.99" style="fill:#dcdcdc"/><polygon points="1059.9 194.24 1063.13 192.37 1091.48 208.74 1088.26 210.61 1059.9 194.24" style="fill:#dcdcdc"/><polygon points="1003.17 161.49 1006.4 159.62 1034.76 175.99 1031.54 177.87 1003.17 161.49" style="fill:#dcdcdc"/><polygon points="946.45 128.74 949.67 126.86 978.04 143.24 974.81 145.12 946.45 128.74" style="fill:#dcdcdc"/><polygon points="889.72 95.99 892.95 94.11 921.31 110.49 918.08 112.36 889.72 95.99" style="fill:#dcdcdc"/><polygon points="833 63.24 836.22 61.37 864.59 77.74 861.36 79.61 833 63.24" style="fill:#dcdcdc"/><polygon points="776.53 74.47 804.71 58.09 807.95 59.96 779.76 76.34 776.53 74.47" style="fill:#dcdcdc"/><polygon points="720.17 107.22 748.35 90.85 751.58 92.72 723.41 109.09 720.17 107.22" style="fill:#dcdcdc"/><polygon points="663.82 139.97 691.99 123.6 695.23 125.47 667.05 141.84 663.82 139.97" style="fill:#dcdcdc"/><polygon points="607.47 172.72 635.64 156.34 638.88 158.21 610.7 174.59 607.47 172.72" style="fill:#dcdcdc"/><polygon points="551.11 205.47 579.29 189.09 582.52 190.96 554.35 207.34 551.11 205.47" style="fill:#dcdcdc"/><polygon points="494.75 238.22 522.93 221.85 526.16 223.72 497.98 240.09 494.75 238.22" style="fill:#dcdcdc"/><polygon points="438.39 270.97 466.57 254.6 469.81 256.47 441.63 272.84 438.39 270.97" style="fill:#dcdcdc"/><polygon points="382.05 303.72 410.22 287.35 413.45 289.22 385.28 305.59 382.05 303.72" style="fill:#dcdcdc"/><polygon points="325.69 336.47 353.87 320.1 357.1 321.96 328.93 338.34 325.69 336.47" style="fill:#dcdcdc"/><polygon points="269.33 369.22 297.51 352.85 300.75 354.71 272.56 371.09 269.33 369.22" style="fill:#dcdcdc"/><polygon points="212.97 401.97 241.15 385.6 244.38 387.47 216.21 403.84 212.97 401.97" style="fill:#dcdcdc"/><polygon points="156.62 434.72 184.79 418.35 188.03 420.22 159.85 436.59 156.62 434.72" style="fill:#dcdcdc"/><polygon points="100.27 467.47 128.45 451.1 131.68 452.96 103.5 469.34 100.27 467.47" style="fill:#dcdcdc"/><polygon points="43.91 500.22 72.09 483.85 75.33 485.71 47.15 502.09 43.91 500.22" style="fill:#dcdcdc"/></svg>