<svg xmlns="http://www.w3.org/2000/svg" viewBox="0 0 1928.96 699.65"><g style="isolation:isolate"><polygon points="817.36 103.86 817.34 109.45 89.95 532.16 89.97 526.58 817.36 103.86" style="fill:#babbb7"/><polygon points="89.97 526.58 89.95 532.16 0 480.23 0.02 474.64 89.97 526.58" style="fill:#81827f"/><polygon points="1928.96 642.13 1839.6 694.06 817.36 103.86 89.97 526.58 0.02 474.64 816.76 0 1928.96 642.13" style="fill:#d0d1cc"/><polygon points="1928.96 642.13 1928.95 647.71 1839.59 699.64 1839.6 694.06 1928.96 642.13" style="fill:#babbb7"/><polygon points="1839.6 694.06 1839.59 699.64 817.34 109.45 817.36 103.86 1839.6 694.06" style="fill:#81827f"/></g><polygon points="1912.68 652.06 1856.33 684.81 817.47 85.02 73.58 517.32 16.86 484.57 817.1 19.52 1912.68 652.06" style="fill:#aebdcb"/><polygon points="1857.26 652.86 1885.62 669.23 1882.39 671.11 1854.03 654.73 1857.26 652.86" style="fill:#dcdcdc"/><polygon points="1797.31 621.99 1800.54 620.11 1828.89 636.48 1825.67 638.36 1797.31 621.99" style="fill:#dcdcdc"/><polygon points="1740.59 589.24 1743.82 587.36 1772.18 603.74 1768.95 605.61 1740.59 589.24" style="fill:#dcdcdc"/><polygon points="1683.86 556.49 1687.09 554.61 1715.45 570.99 1712.23 572.86 1683.86 556.49" style="fill:#dcdcdc"/><polygon points="1627.13 523.74 1630.36 521.86 1658.72 538.24 1655.5 540.11 1627.13 523.74" style="fill:#dcdcdc"/><polygon points="1570.41 490.99 1573.64 489.11 1602 505.49 1598.77 507.36 1570.41 490.99" style="fill:#dcdcdc"/><polygon points="1513.69 458.24 1516.92 456.36 1545.28 472.74 1542.05 474.61 1513.69 458.24" style="fill:#dcdcdc"/><polygon points="1456.97 425.49 1460.19 423.62 1488.56 439.99 1485.33 441.87 1456.97 425.49" style="fill:#dcdcdc"/><polygon points="1400.24 392.74 1403.46 390.86 1431.83 407.24 1428.6 409.11 1400.24 392.74" style="fill:#dcdcdc"/><polygon points="1343.51 359.99 1346.74 358.11 1375.1 374.49 1371.88 376.36 1343.51 359.99" style="fill:#dcdcdc"/><polygon points="1286.8 327.24 1290.02 325.37 1318.38 341.74 1315.16 343.62 1286.8 327.24" style="fill:#dcdcdc"/><polygon points="1230.07 294.49 1233.3 292.62 1261.66 308.99 1258.43 310.87 1230.07 294.49" style="fill:#dcdcdc"/><polygon points="1173.34 261.74 1176.57 259.86 1204.94 276.24 1201.71 278.12 1173.34 261.74" style="fill:#dcdcdc"/><polygon points="1116.62 228.99 1119.84 227.11 1148.21 243.49 1144.98 245.36 1116.62 228.99" style="fill:#dcdcdc"/><polygon points="1059.9 196.24 1063.13 194.37 1091.48 210.74 1088.26 212.61 1059.9 196.24" style="fill:#dcdcdc"/><polygon points="1003.17 163.49 1006.4 161.62 1034.76 177.99 1031.54 179.87 1003.17 163.49" style="fill:#dcdcdc"/><polygon points="946.45 130.74 949.67 128.86 978.04 145.24 974.81 147.12 946.45 130.74" style="fill:#dcdcdc"/><polygon points="889.72 97.99 892.95 96.11 921.31 112.49 918.08 114.36 889.72 97.99" style="fill:#dcdcdc"/><polygon points="833 65.24 836.22 63.37 864.59 79.74 861.36 81.61 833 65.24" style="fill:#dcdcdc"/><polygon points="776.53 76.47 804.71 60.09 807.95 61.96 779.76 78.34 776.53 76.47" style="fill:#dcdcdc"/><polygon points="720.17 109.22 748.35 92.85 751.58 94.72 723.41 111.09 720.17 109.22" style="fill:#dcdcdc"/><polygon points="663.82 141.97 691.99 125.6 695.23 127.47 667.05 143.84 663.82 141.97" style="fill:#dcdcdc"/><polygon points="607.47 174.72 635.64 158.34 638.88 160.21 610.7 176.59 607.47 174.72" style="fill:#dcdcdc"/><polygon points="551.11 207.47 579.29 191.09 582.52 192.96 554.35 209.34 551.11 207.47" style="fill:#dcdcdc"/><polygon points="494.75 240.22 522.93 223.85 526.16 225.72 497.98 242.09 494.75 240.22" style="fill:#dcdcdc"/><polygon points="438.39 272.97 466.57 256.6 469.81 258.47 441.63 274.84 438.39 272.97" style="fill:#dcdcdc"/><polygon points="382.05 305.72 410.22 289.35 413.45 291.22 385.28 307.59 382.05 305.72" style="fill:#dcdcdc"/><polygon points="325.69 338.47 353.87 322.1 357.1 323.96 328.93 340.34 325.69 338.47" style="fill:#dcdcdc"/><polygon points="269.33 371.22 297.51 354.85 300.75 356.71 272.56 373.09 269.33 371.22" style="fill:#dcdcdc"/><polygon points="212.97 403.97 241.15 387.6 244.38 389.47 216.21 405.84 212.97 403.97" style="fill:#dcdcdc"/><polygon points="156.62 436.72 184.79 420.35 188.03 422.22 159.85 438.59 156.62 436.72" style="fill:#dcdcdc"/><polygon points="100.27 469.47 128.45 453.1 131.68 454.96 103.5 471.34 100.27 469.47" style="fill:#dcdcdc"/><polygon points="43.91 502.22 72.09 485.85 75.33 487.71 47.15 504.09 43.91 502.22" style="fill:#dcdcdc"/></svg>