<svg xmlns="http://www.w3.org/2000/svg" xmlns:xlink="http://www.w3.org/1999/xlink" viewBox="0 0 1065.82 337.52"><defs><clipPath id="a"><path d="M17.53,328.28v1.86a2.84,2.84,0,0,1-1.66,2.32,8.92,8.92,0,0,1-8.08,0,2.86,2.86,0,0,1-1.68-2.35v-1.87A2.86,2.86,0,0,0,7.8,330.6a8.9,8.9,0,0,0,8.07,0A2.82,2.82,0,0,0,17.53,328.28Z" style="fill:none"/></clipPath><clipPath id="b"><path d="M17.54,307.72v1.86a2.82,2.82,0,0,1-1.65,2.32,8.94,8.94,0,0,1-8.09,0,2.86,2.86,0,0,1-1.68-2.35v-1.86A2.86,2.86,0,0,0,7.8,310a8.92,8.92,0,0,0,8.08,0A2.86,2.86,0,0,0,17.54,307.72Z" style="fill:none"/></clipPath><clipPath id="c"><path d="M17.83,306v1.86a2.82,2.82,0,0,1-1.65,2.33,9,9,0,0,1-8.08,0v-1.86a9,9,0,0,0,8.07,0A2.81,2.81,0,0,0,17.83,306Z" style="fill:none"/></clipPath><clipPath id="d"><path d="M536.27,29.28v1.87a2.84,2.84,0,0,1-1.66,2.32,8.92,8.92,0,0,1-8.08,0,2.86,2.86,0,0,1-1.68-2.36V29.25a2.86,2.86,0,0,0,1.69,2.35,8.87,8.87,0,0,0,8.07,0A2.83,2.83,0,0,0,536.27,29.28Z" style="fill:none"/></clipPath><clipPath id="e"><path d="M536.27,8.72v1.87a2.82,2.82,0,0,1-1.65,2.32,8.94,8.94,0,0,1-8.09,0,2.86,2.86,0,0,1-1.68-2.36V8.69A2.86,2.86,0,0,0,526.54,11a8.86,8.86,0,0,0,8.08,0A2.81,2.81,0,0,0,536.27,8.72Z" style="fill:none"/></clipPath><clipPath id="f"><path d="M536.57,7V8.9a2.82,2.82,0,0,1-1.65,2.32,9,9,0,0,1-8.08,0V9.36a9,9,0,0,0,8.07,0A2.82,2.82,0,0,0,536.57,7Z" style="fill:none"/></clipPath><clipPath id="g"><path d="M1065.52,332.36v1.87a2.84,2.84,0,0,1-1.66,2.32,8.92,8.92,0,0,1-8.08,0,2.86,2.86,0,0,1-1.68-2.36v-1.86a2.86,2.86,0,0,0,1.69,2.35,8.87,8.87,0,0,0,8.07,0A2.82,2.82,0,0,0,1065.52,332.36Z" style="fill:none"/></clipPath><clipPath id="h"><path d="M1065.52,311.81v1.86a2.82,2.82,0,0,1-1.65,2.32,8.94,8.94,0,0,1-8.09,0,2.86,2.86,0,0,1-1.68-2.35v-1.87a2.84,2.84,0,0,0,1.69,2.35,8.86,8.86,0,0,0,8.08,0A2.8,2.8,0,0,0,1065.52,311.81Z" style="fill:none"/></clipPath><clipPath id="i"><path d="M1065.82,310.12V312a2.81,2.81,0,0,1-1.65,2.32,9,9,0,0,1-8.08,0v-1.86a9,9,0,0,0,8.07,0A2.82,2.82,0,0,0,1065.82,310.12Z" style="fill:none"/></clipPath></defs><g style="isolation:isolate"><g style="isolation:isolate"><g style="clip-path:url(#a)"><g style="isolation:isolate"><path d="M17.53,328.28v0" style="fill:#546c7a"/><path d="M17.53,328.33v1.86c0,.11,0,.22,0,.33v-1.86a1.84,1.84,0,0,0,0-.33" style="fill:#56707f"/><path d="M17.5,328.66v1.86a1.92,1.92,0,0,1-.09.32V329c0-.11.07-.22.1-.32" style="fill:#597483"/><path d="M17.4,329v1.86a1.87,1.87,0,0,1-.15.32V329.3a1.87,1.87,0,0,0,.15-.32" style="fill:#5c7887"/><path d="M17.25,329.3v1.86c-.07.12-.15.23-.23.35v-1.87a1.85,1.85,0,0,0,.23-.34" style="fill:#5f7b8b"/><path d="M17,329.64v1.87a4.19,4.19,0,0,1-.36.38V330a3.09,3.09,0,0,0,.35-.38" style="fill:#627f8f"/><path d="M16.67,330v1.87a3.73,3.73,0,0,1-.72.53v-1.86a4.77,4.77,0,0,0,.73-.54" style="fill:#658394"/><path d="M15.94,330.56v1.86l-.07,0a6.15,6.15,0,0,1-1.25.55v-1.86a7,7,0,0,0,1.24-.55l.07,0" style="fill:#688798"/><path d="M14.63,331.15V333a9,9,0,0,1-1.08.27v-1.86a9.47,9.47,0,0,0,1.08-.27" style="fill:#658394"/><path d="M13.55,331.42v1.86c-.24,0-.48.08-.73.1v-1.86c.25,0,.49-.06.73-.1" style="fill:#627f8f"/><path d="M12.82,331.52v1.86c-.21,0-.42,0-.63,0v-1.86l.63,0" style="fill:#5f7b8b"/><path d="M12.19,331.56v1.86h-.59v-1.87h.59" style="fill:#5c7887"/><path d="M11.6,331.56v1.87l-.56,0v-1.87a5.12,5.12,0,0,0,.56,0" style="fill:#597483"/><path d="M11,331.53v1.87l-.56-.07v-1.86a5,5,0,0,0,.56.06" style="fill:#56707f"/><path d="M10.48,331.47v1.86c-.19,0-.38-.06-.56-.09v-1.87a5.67,5.67,0,0,0,.57.1" style="fill:#546c7a"/><path d="M9.91,331.37v1.87l-.6-.15v-1.86l.59.14" style="fill:#516976"/><path d="M9.32,331.23v1.86l-.69-.23V331c.23.09.46.17.7.24" style="fill:#4e6572"/><path d="M8.62,331v1.87a7.07,7.07,0,0,1-.83-.4,2.86,2.86,0,0,1-1.68-2.35v-1.87A2.86,2.86,0,0,0,7.8,330.6a5.62,5.62,0,0,0,.82.39" style="fill:#4b616e"/></g></g></g><path d="M15.85,325.92c2.24,1.29,2.25,3.39,0,4.68a8.9,8.9,0,0,1-8.07,0c-2.24-1.3-2.25-3.39,0-4.68A8.92,8.92,0,0,1,15.85,325.92Z" style="fill:#7ca1b6"/></g><g style="isolation:isolate"><path d="M17.56,309.62l0,18.62a2.85,2.85,0,0,1-1.67,2.32,8.9,8.9,0,0,1-8.07,0,2.86,2.86,0,0,1-1.69-2.35l.06-18.63a2.86,2.86,0,0,0,1.68,2.36,8.92,8.92,0,0,0,8.08,0A2.84,2.84,0,0,0,17.56,309.62Z" style="fill:#9fd3f4"/><path d="M15.87,307.26c2.24,1.29,2.25,3.39,0,4.68a8.92,8.92,0,0,1-8.08,0c-2.24-1.3-2.24-3.39,0-4.68A8.92,8.92,0,0,1,15.87,307.26Z" style="fill:#9fd3f4"/></g><g style="isolation:isolate"><g style="isolation:isolate"><g style="clip-path:url(#b)"><g style="isolation:isolate"><path d="M17.54,307.72v0" style="fill:#546c7a"/><path d="M17.53,307.77v1.86a1.86,1.86,0,0,1,0,.33V308.1a1.84,1.84,0,0,0,0-.33" style="fill:#56707f"/><path d="M17.5,308.1V310a1.92,1.92,0,0,1-.09.32v-1.86a2.33,2.33,0,0,0,.1-.32" style="fill:#597483"/><path d="M17.4,308.42v1.86a2.41,2.41,0,0,1-.15.33v-1.87a1.87,1.87,0,0,0,.15-.32" style="fill:#5c7887"/><path d="M17.25,308.74v1.87c-.07.11-.14.22-.23.34v-1.87a1.85,1.85,0,0,0,.23-.34" style="fill:#5f7b8b"/><path d="M17,309.08V311a3.15,3.15,0,0,1-.36.38v-1.87a3.09,3.09,0,0,0,.35-.38" style="fill:#627f8f"/><path d="M16.67,309.46v1.87a4.8,4.8,0,0,1-.72.53V310a4.22,4.22,0,0,0,.72-.54" style="fill:#658394"/><path d="M16,310v1.86l-.06,0a7.16,7.16,0,0,1-1.26.55v-1.86a6.75,6.75,0,0,0,1.25-.55l.07,0" style="fill:#688798"/><path d="M14.63,310.59v1.86a9,9,0,0,1-1.08.27v-1.86a9.47,9.47,0,0,0,1.08-.27" style="fill:#658394"/><path d="M13.55,310.86v1.86c-.24,0-.48.08-.73.1V311l.73-.1" style="fill:#627f8f"/><path d="M12.82,311v1.86c-.21,0-.42,0-.63,0V311l.64,0" style="fill:#5f7b8b"/><path d="M12.18,311v1.86h-.59V311h.58" style="fill:#5c7887"/><path d="M11.6,311v1.87l-.56,0V311l.57,0" style="fill:#597483"/><path d="M11,311v1.87l-.56-.07v-1.86A5.14,5.14,0,0,0,11,311" style="fill:#56707f"/><path d="M10.48,310.91v1.86c-.19,0-.38-.06-.56-.09v-1.87l.57.1" style="fill:#546c7a"/><path d="M9.91,310.81v1.87l-.6-.15v-1.86l.59.14" style="fill:#516976"/><path d="M9.32,310.67v1.86l-.69-.23v-1.87c.23.09.46.17.7.24" style="fill:#4e6572"/><path d="M8.62,310.43v1.87a7.07,7.07,0,0,1-.83-.4,2.86,2.86,0,0,1-1.68-2.35v-1.86A2.86,2.86,0,0,0,7.8,310a5.62,5.62,0,0,0,.82.39" style="fill:#4b616e"/></g></g></g><path d="M15.85,305.36c2.24,1.29,2.25,3.39,0,4.68a8.92,8.92,0,0,1-8.08,0c-2.24-1.3-2.25-3.39,0-4.68A8.9,8.9,0,0,1,15.85,305.36Z" style="fill:#7ca1b6"/></g><g style="isolation:isolate"><polygon points="16.16 303.67 8.11 308.35 0.01 303.67 8.05 298.99 16.16 303.67" style="fill:#7ca1b6"/><polygon points="16.16 303.67 16.15 305.53 8.1 310.21 8.11 308.35 16.16 303.67" style="fill:#6f90a3"/><polygon points="8.11 308.35 8.1 310.21 0 305.53 0.01 303.67 8.11 308.35" style="fill:#4d6471"/></g><path d="M16.16,303.67c2.22,1.29,2.23,3.4,0,4.68a9,9,0,0,1-8.07,0Z" style="fill:#7ca1b6"/><path d="M14.24,305.45c1.34.78,1.34,2,0,2.81a5.35,5.35,0,0,1-4.85,0c-1.34-.77-1.34-2,0-2.81A5.38,5.38,0,0,1,14.24,305.45Z" style="fill:#8daab7"/><g style="isolation:isolate"><path d="M15.24,307.8a1.68,1.68,0,0,0-1-1.41v-1.87a1.72,1.72,0,0,1,1,1.41Z" style="fill:#90bbd3"/><path d="M8.4,305.92a1.7,1.7,0,0,1,1-1.4,5.36,5.36,0,0,1,4.84,0v1.87a5.3,5.3,0,0,0-4.84,0,1.7,1.7,0,0,0-1,1.39C8.39,307.23,8.4,306.48,8.4,305.92Z" style="fill:#90bbd3"/><path d="M15.25,305.93v1.87a1.69,1.69,0,0,1-1,1.39,5.32,5.32,0,0,1-4.85,0,1.71,1.71,0,0,1-1-1.41v-1.86a1.7,1.7,0,0,0,1,1.41,5.33,5.33,0,0,0,4.84,0A1.7,1.7,0,0,0,15.25,305.93Z" style="fill:#7ca1b6"/></g><g style="isolation:isolate"><g style="clip-path:url(#c)"><g style="isolation:isolate"><path d="M17.83,306v0" style="fill:#546c7a"/><path d="M17.83,306.08v1.86c0,.11,0,.22,0,.33v-1.86a1.84,1.84,0,0,0,0-.33" style="fill:#56707f"/><path d="M17.8,306.41v1.86a2,2,0,0,1-.09.33v-1.86c0-.11.07-.22.1-.33" style="fill:#597483"/><path d="M17.7,306.74v1.86a2.49,2.49,0,0,1-.16.33v-1.87a1.87,1.87,0,0,0,.15-.32" style="fill:#5c7887"/><path d="M17.55,307.06v1.87a2.26,2.26,0,0,1-.23.34v-1.86a3.5,3.5,0,0,0,.23-.35" style="fill:#5f7b8b"/><path d="M17.32,307.41v1.86a3.09,3.09,0,0,1-.35.38v-1.86a4,4,0,0,0,.35-.38" style="fill:#627f8f"/><path d="M17,307.79v1.86a4.52,4.52,0,0,1-.71.53v-1.87a4.6,4.6,0,0,0,.72-.52" style="fill:#658394"/><path d="M16.25,308.31v1.87l-.07,0a7.25,7.25,0,0,1-1.23.54v-1.87a5.72,5.72,0,0,0,1.23-.54l.07,0" style="fill:#688798"/><path d="M15,308.89v1.87a9.47,9.47,0,0,1-1.08.27v-1.87a6.09,6.09,0,0,0,1.08-.27" style="fill:#658394"/><path d="M13.87,309.16V311l-.73.1v-1.86c.25,0,.49-.06.73-.11" style="fill:#627f8f"/><path d="M13.14,309.27v1.86l-.64,0v-1.86l.64,0" style="fill:#5f7b8b"/><path d="M12.5,309.31v1.86h-.6v-1.86h.59" style="fill:#5c7887"/><path d="M11.91,309.31v1.86a5.44,5.44,0,0,1-.57,0v-1.86a5.44,5.44,0,0,0,.57,0" style="fill:#597483"/><path d="M11.34,309.28v1.86a5.32,5.32,0,0,1-.56-.06v-1.86l.56.06" style="fill:#56707f"/><path d="M10.78,309.22v1.86l-.57-.1v-1.86l.57.1" style="fill:#546c7a"/><path d="M10.21,309.12V311l-.6-.15V309a5.26,5.26,0,0,0,.6.15" style="fill:#516976"/><path d="M9.61,309v1.86a6.2,6.2,0,0,1-.69-.23v-1.86a7,7,0,0,0,.69.23" style="fill:#4e6572"/><path d="M8.92,308.74v1.86a6,6,0,0,1-.81-.39v-1.86a5.05,5.05,0,0,0,.81.39" style="fill:#4b616e"/></g></g></g><g style="isolation:isolate"><g style="isolation:isolate"><g style="clip-path:url(#d)"><g style="isolation:isolate"><path d="M536.27,29.28v0" style="fill:#546c7a"/><path d="M536.27,29.33V31.2c0,.11,0,.21,0,.32V29.66a1.84,1.84,0,0,0,0-.33" style="fill:#56707f"/><path d="M536.24,29.66v1.86a2,2,0,0,1-.09.33V30a3,3,0,0,0,.1-.32" style="fill:#597483"/><path d="M536.14,30v1.87a3,3,0,0,1-.15.32V30.31a2.41,2.41,0,0,0,.15-.33" style="fill:#5c7887"/><path d="M536,30.31v1.86a4,4,0,0,1-.23.34V30.65a2.26,2.26,0,0,0,.23-.34" style="fill:#5f7b8b"/><path d="M535.76,30.65v1.86a4.27,4.27,0,0,1-.36.38V31a3.09,3.09,0,0,0,.35-.38" style="fill:#627f8f"/><path d="M535.41,31v1.86a4.66,4.66,0,0,1-.72.54V31.57a4.77,4.77,0,0,0,.73-.54" style="fill:#658394"/><path d="M534.68,31.57v1.86l-.07,0a6.75,6.75,0,0,1-1.25.55V32.16a7,7,0,0,0,1.24-.55l.07,0" style="fill:#688798"/><path d="M533.37,32.16V34a9,9,0,0,1-1.08.27V32.42a7.73,7.73,0,0,0,1.08-.26" style="fill:#658394"/><path d="M532.29,32.42v1.87l-.73.1V32.53c.25,0,.49-.06.73-.11" style="fill:#627f8f"/><path d="M531.56,32.53v1.86l-.63,0V32.57l.63,0" style="fill:#5f7b8b"/><path d="M530.93,32.57v1.86h-.59V32.57h.59" style="fill:#5c7887"/><path d="M530.34,32.57v1.86l-.56,0V32.54a5.12,5.12,0,0,0,.56,0" style="fill:#597483"/><path d="M529.78,32.54V34.4a5.32,5.32,0,0,1-.56-.06V32.48l.56.06" style="fill:#56707f"/><path d="M529.22,32.48v1.86l-.56-.1V32.38l.57.1" style="fill:#546c7a"/><path d="M528.65,32.38v1.86l-.6-.14V32.23a5.66,5.66,0,0,0,.59.15" style="fill:#516976"/><path d="M528.06,32.23V34.1a7,7,0,0,1-.69-.24V32a5.21,5.21,0,0,0,.7.23" style="fill:#4e6572"/><path d="M527.36,32v1.86a7,7,0,0,1-.83-.39,2.86,2.86,0,0,1-1.68-2.36V29.25a2.86,2.86,0,0,0,1.69,2.35,6.24,6.24,0,0,0,.82.4" style="fill:#4b616e"/></g></g></g><path d="M534.59,26.93c2.24,1.29,2.25,3.39,0,4.68a8.87,8.87,0,0,1-8.07,0c-2.24-1.29-2.25-3.38,0-4.67A8.89,8.89,0,0,1,534.59,26.93Z" style="fill:#7ca1b6"/></g><g style="isolation:isolate"><path d="M536.3,10.62l-.06,18.63a2.82,2.82,0,0,1-1.66,2.32,8.9,8.9,0,0,1-8.07,0,2.87,2.87,0,0,1-1.69-2.36l.06-18.62a2.82,2.82,0,0,0,1.68,2.35,8.89,8.89,0,0,0,8.08,0A2.86,2.86,0,0,0,536.3,10.62Z" style="fill:#9fd3f4"/><path d="M534.61,8.26c2.24,1.3,2.25,3.39,0,4.69a8.89,8.89,0,0,1-8.08,0c-2.24-1.29-2.24-3.38,0-4.67A8.92,8.92,0,0,1,534.61,8.26Z" style="fill:#9fd3f4"/></g><g style="isolation:isolate"><g style="isolation:isolate"><g style="clip-path:url(#e)"><g style="isolation:isolate"><path d="M536.27,8.72v0" style="fill:#546c7a"/><path d="M536.27,8.77v1.87a1.86,1.86,0,0,1,0,.33V9.1a1.84,1.84,0,0,0,0-.33" style="fill:#56707f"/><path d="M536.24,9.1V11a2.23,2.23,0,0,1-.09.32V9.42a3,3,0,0,0,.1-.32" style="fill:#597483"/><path d="M536.14,9.42v1.87a2.3,2.3,0,0,1-.15.32V9.75a2.41,2.41,0,0,0,.15-.33" style="fill:#5c7887"/><path d="M536,9.75v1.86a4,4,0,0,1-.23.34V10.09a2.26,2.26,0,0,0,.23-.34" style="fill:#5f7b8b"/><path d="M535.76,10.09V12a3.19,3.19,0,0,1-.36.38V10.47a3.09,3.09,0,0,0,.35-.38" style="fill:#627f8f"/><path d="M535.41,10.47v1.86a3.73,3.73,0,0,1-.72.53V11a3.73,3.73,0,0,0,.72-.53" style="fill:#658394"/><path d="M534.69,11v1.86l-.06.05a7.16,7.16,0,0,1-1.26.55V11.59a5.64,5.64,0,0,0,1.25-.55l.07,0" style="fill:#688798"/><path d="M533.37,11.59v1.87a9,9,0,0,1-1.08.27V11.86a6.56,6.56,0,0,0,1.08-.27" style="fill:#658394"/><path d="M532.29,11.86v1.87l-.73.1V12c.24,0,.49-.06.73-.11" style="fill:#627f8f"/><path d="M531.56,12v1.86l-.63,0V12l.64,0" style="fill:#5f7b8b"/><path d="M530.92,12v1.86a5.81,5.81,0,0,1-.59,0V12h.58" style="fill:#5c7887"/><path d="M530.34,12v1.86a5.25,5.25,0,0,1-.56,0V12a5.44,5.44,0,0,0,.57,0" style="fill:#597483"/><path d="M529.77,12v1.86a5.32,5.32,0,0,1-.56-.06V11.92l.55.06" style="fill:#56707f"/><path d="M529.22,11.92v1.86l-.56-.1V11.82l.57.1" style="fill:#546c7a"/><path d="M528.65,11.82v1.86l-.6-.14V11.67l.6.15" style="fill:#516976"/><path d="M528.05,11.67v1.87a7,7,0,0,1-.69-.24V11.44a5.58,5.58,0,0,0,.69.23" style="fill:#4e6572"/><path d="M527.36,11.44V13.3a7,7,0,0,1-.83-.39,2.86,2.86,0,0,1-1.68-2.36V8.69A2.86,2.86,0,0,0,526.54,11a6.24,6.24,0,0,0,.82.4" style="fill:#4b616e"/></g></g></g><path d="M534.59,6.37c2.24,1.29,2.25,3.39,0,4.67a8.86,8.86,0,0,1-8.08,0c-2.24-1.29-2.25-3.38,0-4.67A8.87,8.87,0,0,1,534.59,6.37Z" style="fill:#7ca1b6"/></g><g style="isolation:isolate"><polygon points="534.9 4.68 526.85 9.36 518.75 4.68 526.79 0 534.9 4.68" style="fill:#7ca1b6"/><polygon points="534.9 4.68 534.89 6.54 526.84 11.22 526.85 9.36 534.9 4.68" style="fill:#6f90a3"/><polygon points="526.85 9.36 526.84 11.22 518.74 6.54 518.75 4.68 526.85 9.36" style="fill:#4d6471"/></g><path d="M534.9,4.68c2.22,1.28,2.23,3.4,0,4.68a9,9,0,0,1-8.07,0Z" style="fill:#7ca1b6"/><path d="M533,6.46c1.35.77,1.35,2,0,2.8a5.35,5.35,0,0,1-4.85,0c-1.34-.78-1.34-2,0-2.81A5.3,5.3,0,0,1,533,6.46Z" style="fill:#8daab7"/><g style="isolation:isolate"><path d="M534,8.8a1.7,1.7,0,0,0-1-1.41V5.53a1.72,1.72,0,0,1,1,1.41Z" style="fill:#90bbd3"/><path d="M527.14,6.93a1.68,1.68,0,0,1,1-1.4,5.3,5.3,0,0,1,4.84,0V7.39a5.36,5.36,0,0,0-4.84,0,1.72,1.72,0,0,0-1,1.4C527.13,8.23,527.14,7.49,527.14,6.93Z" style="fill:#90bbd3"/><path d="M534,6.94V8.8a1.7,1.7,0,0,1-1,1.4,5.35,5.35,0,0,1-4.85,0,1.72,1.72,0,0,1-1-1.41V6.93a1.71,1.71,0,0,0,1,1.41,5.35,5.35,0,0,0,4.85,0A1.68,1.68,0,0,0,534,6.94Z" style="fill:#7ca1b6"/></g><g style="isolation:isolate"><g style="clip-path:url(#f)"><g style="isolation:isolate"><path d="M536.57,7V7" style="fill:#546c7a"/><path d="M536.57,7.09V9c0,.11,0,.22,0,.33V7.42a1.24,1.24,0,0,0,0-.33" style="fill:#56707f"/><path d="M536.53,7.42V9.28a2,2,0,0,1-.09.33V7.74a1.68,1.68,0,0,0,.09-.32" style="fill:#597483"/><path d="M536.44,7.74V9.61c-.05.11-.1.21-.16.32V8.07a2.41,2.41,0,0,0,.15-.33" style="fill:#5c7887"/><path d="M536.29,8.07V9.93a1.85,1.85,0,0,1-.23.34V8.41a2.54,2.54,0,0,0,.23-.34" style="fill:#5f7b8b"/><path d="M536.06,8.41v1.86a3.09,3.09,0,0,1-.35.38V8.79a2.55,2.55,0,0,0,.36-.38" style="fill:#627f8f"/><path d="M535.7,8.79v1.86a4,4,0,0,1-.71.53V9.32a4,4,0,0,0,.71-.53" style="fill:#658394"/><path d="M535,9.32v1.86l-.07,0a6,6,0,0,1-1.23.54V9.9a5.72,5.72,0,0,0,1.23-.54l.07,0" style="fill:#688798"/><path d="M533.69,9.9v1.86a7.75,7.75,0,0,1-1.08.27V10.17a8.52,8.52,0,0,0,1.08-.27" style="fill:#658394"/><path d="M532.61,10.17V12a6.09,6.09,0,0,1-.73.1V10.27c.25,0,.49-.06.73-.1" style="fill:#627f8f"/><path d="M531.88,10.27v1.86l-.65,0V10.31c.21,0,.43,0,.64,0" style="fill:#5f7b8b"/><path d="M531.24,10.31v1.87h-.59V10.32h.59" style="fill:#5c7887"/><path d="M530.65,10.32v1.86l-.57,0V10.29l.57,0" style="fill:#597483"/><path d="M530.08,10.29v1.86l-.56-.06V10.22l.56.07" style="fill:#56707f"/><path d="M529.52,10.22v1.87l-.57-.1V10.12a4.82,4.82,0,0,0,.57.1" style="fill:#546c7a"/><path d="M529,10.12V12c-.2-.05-.4-.09-.6-.15V10l.6.14" style="fill:#516976"/><path d="M528.35,10v1.86c-.23-.07-.46-.14-.69-.23V9.75l.69.23" style="fill:#4e6572"/><path d="M527.66,9.75v1.86q-.42-.18-.81-.39V9.36a7.62,7.62,0,0,0,.81.39" style="fill:#4b616e"/></g></g></g><g style="isolation:isolate"><g style="isolation:isolate"><g style="clip-path:url(#g)"><g style="isolation:isolate"><path d="M1065.52,332.36v0" style="fill:#546c7a"/><path d="M1065.52,332.41v1.87a3.11,3.11,0,0,1,0,.32v-1.86a1.84,1.84,0,0,0,0-.33" style="fill:#56707f"/><path d="M1065.49,332.74v1.86a2,2,0,0,1-.09.33v-1.87a3,3,0,0,0,.1-.32" style="fill:#597483"/><path d="M1065.39,333.06v1.87a2.3,2.3,0,0,1-.15.32v-1.86a2.41,2.41,0,0,0,.15-.33" style="fill:#5c7887"/><path d="M1065.24,333.39v1.86a4,4,0,0,1-.23.34v-1.86a1.85,1.85,0,0,0,.23-.34" style="fill:#5f7b8b"/><path d="M1065,333.73v1.86a4.27,4.27,0,0,1-.36.38v-1.86a3.09,3.09,0,0,0,.35-.38" style="fill:#627f8f"/><path d="M1064.66,334.11V336a4.22,4.22,0,0,1-.72.54v-1.86a4.77,4.77,0,0,0,.73-.54" style="fill:#658394"/><path d="M1063.93,334.65v1.86l-.07,0a6.75,6.75,0,0,1-1.25.55v-1.86a7,7,0,0,0,1.24-.55l.07,0" style="fill:#688798"/><path d="M1062.62,335.24v1.86a9,9,0,0,1-1.08.27v-1.86a9.47,9.47,0,0,0,1.08-.27" style="fill:#658394"/><path d="M1061.54,335.51v1.86l-.73.1v-1.86l.73-.1" style="fill:#627f8f"/><path d="M1060.81,335.61v1.86l-.63,0v-1.86l.63,0" style="fill:#5f7b8b"/><path d="M1060.18,335.65v1.86h-.59v-1.86a5.81,5.81,0,0,0,.59,0" style="fill:#5c7887"/><path d="M1059.59,335.65v1.86l-.56,0v-1.86a5.12,5.12,0,0,0,.56,0" style="fill:#597483"/><path d="M1059,335.62v1.86a5.32,5.32,0,0,1-.56-.06v-1.86a5,5,0,0,0,.56.06" style="fill:#56707f"/><path d="M1058.47,335.56v1.86l-.56-.1v-1.86l.57.1" style="fill:#546c7a"/><path d="M1057.9,335.46v1.86l-.6-.14v-1.87a5.66,5.66,0,0,0,.59.15" style="fill:#516976"/><path d="M1057.31,335.31v1.87a7,7,0,0,1-.69-.24v-1.86a5.73,5.73,0,0,0,.7.23" style="fill:#4e6572"/><path d="M1056.61,335.08v1.86a5.73,5.73,0,0,1-.83-.39,2.86,2.86,0,0,1-1.68-2.36v-1.86a2.86,2.86,0,0,0,1.69,2.35,5.2,5.2,0,0,0,.82.4" style="fill:#4b616e"/></g></g></g><path d="M1063.84,330c2.24,1.29,2.25,3.39,0,4.68a8.87,8.87,0,0,1-8.07,0c-2.24-1.29-2.25-3.38,0-4.67A8.89,8.89,0,0,1,1063.84,330Z" style="fill:#7ca1b6"/></g><g style="isolation:isolate"><path d="M1065.55,313.7l-.06,18.63a2.82,2.82,0,0,1-1.66,2.32,8.9,8.9,0,0,1-8.07,0,2.87,2.87,0,0,1-1.69-2.36l.06-18.62a2.82,2.82,0,0,0,1.68,2.35,8.89,8.89,0,0,0,8.08,0A2.84,2.84,0,0,0,1065.55,313.7Z" style="fill:#9fd3f4"/><path d="M1063.86,311.35c2.24,1.29,2.25,3.39,0,4.68a8.89,8.89,0,0,1-8.08,0c-2.24-1.29-2.24-3.38,0-4.67A8.89,8.89,0,0,1,1063.86,311.35Z" style="fill:#9fd3f4"/></g><g style="isolation:isolate"><g style="isolation:isolate"><g style="clip-path:url(#h)"><g style="isolation:isolate"><path d="M1065.52,311.81v0" style="fill:#546c7a"/><path d="M1065.52,311.86v1.86a1.86,1.86,0,0,1,0,.33v-1.87a1.73,1.73,0,0,0,0-.32" style="fill:#56707f"/><path d="M1065.49,312.18v1.87a2.23,2.23,0,0,1-.09.32v-1.86c0-.11.07-.22.1-.33" style="fill:#597483"/><path d="M1065.39,312.51v1.86a1.87,1.87,0,0,1-.15.32v-1.86a2.3,2.3,0,0,0,.15-.32" style="fill:#5c7887"/><path d="M1065.24,312.83v1.86a2.54,2.54,0,0,1-.23.34v-1.86a1.85,1.85,0,0,0,.23-.34" style="fill:#5f7b8b"/><path d="M1065,313.17V315a3.19,3.19,0,0,1-.36.38v-1.86a3.09,3.09,0,0,0,.35-.38" style="fill:#627f8f"/><path d="M1064.66,313.55v1.86a4.22,4.22,0,0,1-.72.54v-1.87a3.73,3.73,0,0,0,.72-.53" style="fill:#658394"/><path d="M1063.94,314.08V316l-.06,0a7.16,7.16,0,0,1-1.26.55v-1.86a6.17,6.17,0,0,0,1.25-.56l.07,0" style="fill:#688798"/><path d="M1062.62,314.68v1.86a9,9,0,0,1-1.08.27v-1.87a7.73,7.73,0,0,0,1.08-.26" style="fill:#658394"/><path d="M1061.54,314.94v1.87l-.73.1v-1.86c.24,0,.49-.06.73-.11" style="fill:#627f8f"/><path d="M1060.81,315.05v1.86l-.63,0v-1.86l.64,0" style="fill:#5f7b8b"/><path d="M1060.17,315.09V317h-.59v-1.86a5.61,5.61,0,0,0,.58,0" style="fill:#5c7887"/><path d="M1059.59,315.09V317a5.25,5.25,0,0,1-.56,0v-1.86l.57,0" style="fill:#597483"/><path d="M1059,315.06v1.86a5.32,5.32,0,0,1-.56-.06V315l.55.06" style="fill:#56707f"/><path d="M1058.47,315v1.86l-.56-.1V314.9l.57.1" style="fill:#546c7a"/><path d="M1057.9,314.9v1.86l-.6-.14v-1.87a5.66,5.66,0,0,0,.59.15" style="fill:#516976"/><path d="M1057.31,314.75v1.87a7,7,0,0,1-.69-.24v-1.86a5.21,5.21,0,0,0,.7.23" style="fill:#4e6572"/><path d="M1056.61,314.52v1.86a5.73,5.73,0,0,1-.83-.39,2.86,2.86,0,0,1-1.68-2.35v-1.87a2.84,2.84,0,0,0,1.69,2.35,5.2,5.2,0,0,0,.82.4" style="fill:#4b616e"/></g></g></g><path d="M1063.84,309.45c2.24,1.29,2.25,3.39,0,4.67a8.86,8.86,0,0,1-8.08,0c-2.24-1.29-2.25-3.38,0-4.67A8.87,8.87,0,0,1,1063.84,309.45Z" style="fill:#7ca1b6"/></g><g style="isolation:isolate"><polygon points="1064.15 307.76 1056.1 312.44 1047.99 307.76 1056.05 303.08 1064.15 307.76" style="fill:#7ca1b6"/><polygon points="1064.15 307.76 1064.14 309.62 1056.09 314.3 1056.1 312.44 1064.15 307.76" style="fill:#6f90a3"/><polygon points="1056.1 312.44 1056.09 314.3 1047.99 309.62 1047.99 307.76 1056.1 312.44" style="fill:#4d6471"/></g><path d="M1064.15,307.76c2.22,1.28,2.23,3.4,0,4.68a9,9,0,0,1-8.07,0Z" style="fill:#7ca1b6"/><path d="M1062.23,309.54c1.34.78,1.34,2,0,2.81a5.35,5.35,0,0,1-4.85,0c-1.34-.77-1.34-2,0-2.81A5.38,5.38,0,0,1,1062.23,309.54Z" style="fill:#8daab7"/><g style="isolation:isolate"><path d="M1063.23,311.88a1.7,1.7,0,0,0-1-1.41v-1.86a1.72,1.72,0,0,1,1,1.41Z" style="fill:#90bbd3"/><path d="M1056.39,310a1.7,1.7,0,0,1,1-1.4,5.3,5.3,0,0,1,4.84,0v1.86a5.36,5.36,0,0,0-4.84,0,1.72,1.72,0,0,0-1,1.4C1056.38,311.31,1056.39,310.57,1056.39,310Z" style="fill:#90bbd3"/><path d="M1063.24,310v1.86a1.7,1.7,0,0,1-1,1.4,5.35,5.35,0,0,1-4.85,0,1.72,1.72,0,0,1-1-1.41V310a1.71,1.71,0,0,0,1,1.41,5.35,5.35,0,0,0,4.85,0A1.67,1.67,0,0,0,1063.24,310Z" style="fill:#7ca1b6"/></g><g style="isolation:isolate"><g style="clip-path:url(#i)"><g style="isolation:isolate"><path d="M1065.82,310.12v0" style="fill:#546c7a"/><path d="M1065.82,310.17V312c0,.11,0,.22,0,.33V310.5a1.24,1.24,0,0,0,0-.33" style="fill:#56707f"/><path d="M1065.78,310.5v1.86a2,2,0,0,1-.09.33v-1.87a1.68,1.68,0,0,0,.09-.32" style="fill:#597483"/><path d="M1065.69,310.82v1.87a1.91,1.91,0,0,1-.16.32v-1.86a2.41,2.41,0,0,0,.15-.33" style="fill:#5c7887"/><path d="M1065.54,311.15V313a2.33,2.33,0,0,1-.23.35v-1.87a2.54,2.54,0,0,0,.23-.34" style="fill:#5f7b8b"/><path d="M1065.31,311.49v1.87a4,4,0,0,1-.35.38v-1.87a2.55,2.55,0,0,0,.36-.38" style="fill:#627f8f"/><path d="M1065,311.87v1.87a4.49,4.49,0,0,1-.71.52V312.4a3.65,3.65,0,0,0,.71-.53" style="fill:#658394"/><path d="M1064.24,312.4v1.86l-.07,0a6,6,0,0,1-1.23.54V313a5.72,5.72,0,0,0,1.23-.54l.07,0" style="fill:#688798"/><path d="M1062.94,313v1.86a6.56,6.56,0,0,1-1.08.27v-1.86a8.52,8.52,0,0,0,1.08-.27" style="fill:#658394"/><path d="M1061.86,313.25v1.86a6.09,6.09,0,0,1-.73.1v-1.86c.25,0,.49-.06.73-.1" style="fill:#627f8f"/><path d="M1061.13,313.35v1.86c-.22,0-.43,0-.65.05V313.4l.64,0" style="fill:#5f7b8b"/><path d="M1060.49,313.4v1.86h-.59V313.4h.59" style="fill:#5c7887"/><path d="M1059.9,313.4v1.86l-.57,0v-1.86l.57,0" style="fill:#597483"/><path d="M1059.33,313.37v1.86l-.56-.06V313.3l.56.07" style="fill:#56707f"/><path d="M1058.77,313.3v1.87l-.57-.1v-1.86c.18,0,.37.07.57.09" style="fill:#546c7a"/><path d="M1058.2,313.21v1.86l-.6-.15v-1.86l.6.15" style="fill:#516976"/><path d="M1057.6,313.06v1.86c-.23-.07-.46-.14-.69-.23v-1.86c.22.08.45.16.69.23" style="fill:#4e6572"/><path d="M1056.91,312.83v1.86a6,6,0,0,1-.81-.39v-1.86a7.62,7.62,0,0,0,.81.39" style="fill:#4b616e"/></g></g></g></svg>