<svg xmlns="http://www.w3.org/2000/svg" viewBox="0 0 1309.04 331.47"><g style="opacity:0.2"><ellipse cx="189.88" cy="181.18" rx="10.81" ry="27.09" transform="translate(-51.57 284.05) rotate(-66.73)" style="fill:#4d4d4d"/></g><polygon points="254.96 207.33 214.44 230.88 173.65 207.33 214.17 183.78 254.96 207.33" style="fill:#708e4d"/><g style="isolation:isolate"><polygon points="214.18 179 254.96 202.55 254.93 212.11 214.15 188.57 214.18 179" style="fill:#8b5947"/><polygon points="173.66 202.55 214.18 179 214.15 188.57 173.63 212.11 173.66 202.55" style="fill:#8b5947"/><polygon points="254.96 202.55 254.93 212.11 214.42 235.66 214.44 226.1 254.96 202.55" style="fill:#8b5947"/><polygon points="214.44 226.1 214.42 235.66 173.63 212.11 173.66 202.55 214.44 226.1" style="fill:#8b5947"/></g><line x1="254.77" y1="147.13" x2="257.43" y2="147.13" style="fill:#8c9b57"/><path d="M247,132.28v6.8C247,151.73,236.25,162,223,162h-7.1" style="fill:none;stroke:#552904;stroke-miterlimit:10;stroke-width:3px"/><path d="M249.25,131.14v7.58c0,14.11-11.9,25.54-26.57,25.54h-7.89" style="fill:none;stroke:#82592c;stroke-miterlimit:10;stroke-width:4px"/><line x1="183.46" y1="148.39" x2="181.35" y2="148.39" style="fill:#8c9b57"/><path d="M188.51,149.18v5.39c0,10,8.5,18.16,19,18.16h5.64" style="fill:none;stroke:#552904;stroke-miterlimit:10;stroke-width:3px"/><path d="M191.27,149.41v5.47c0,10.18,8.58,18.43,19.16,18.43h5.69" style="fill:none;stroke:#82592c;stroke-miterlimit:10;stroke-width:4px"/><rect x="211.29" y="142.62" width="4.39" height="61.14" style="fill:#552904"/><rect x="212.51" y="142.62" width="4.39" height="61.14" style="fill:#82592c"/><ellipse cx="249" cy="120.5" rx="15.23" ry="17.69" style="fill:#8c9b57"/><path d="M250.57,136c-8.41,0-15.23-7.92-15.23-17.69a19.61,19.61,0,0,1,2.78-10.19,19.2,19.2,0,0,0-4.35,12.38c0,9.77,6.82,17.69,15.23,17.69,5.14,0,9.69-3,12.44-7.5A14.24,14.24,0,0,1,250.57,136Z" style="fill:#869156"/><path d="M249,102.77a14.64,14.64,0,0,0-12.23,7.13,13.85,13.85,0,0,1,9.09-3.49c8.41,0,15.23,7.92,15.23,17.69a19.5,19.5,0,0,1-3,10.55,18.71,18.71,0,0,0,6.15-14.19C264.23,110.69,257.41,102.77,249,102.77Z" style="fill:#82b650"/><ellipse cx="213.49" cy="117.24" rx="23.68" ry="28.07" style="fill:#8c9b57"/><path d="M213.49,89.17a21.27,21.27,0,0,0-14.3,5.7,20.21,20.21,0,0,1,5.57-.79c13.08,0,23.68,12.57,23.68,28.07,0,9.14-3.68,17.25-9.38,22.38,10.39-3,18.11-14.06,18.11-27.29C237.17,101.74,226.57,89.17,213.49,89.17Z" style="fill:#82b650"/><ellipse cx="190.08" cy="143.05" rx="8.91" ry="11.18" style="fill:#8c9b57"/><path d="M191,152.44c-4.92,0-8.91-5-8.91-11.18a13.38,13.38,0,0,1,.95-5,13.07,13.07,0,0,0-1.84,6.8c0,6.17,4,11.18,8.91,11.18,3.48,0,6.5-2.51,8-6.17A8.44,8.44,0,0,1,191,152.44Z" style="fill:#869156"/><path d="M190.08,131.71a8.24,8.24,0,0,0-6.66,3.75,7.46,7.46,0,0,1,4.28-1.37c4.92,0,8.91,5,8.91,11.17a12.9,12.9,0,0,1-2.26,7.43,11.83,11.83,0,0,0,4.64-9.81C199,136.71,195,131.71,190.08,131.71Z" style="fill:#82b650"/><g style="opacity:0.2"><ellipse cx="343.22" cy="92.01" rx="10.81" ry="27.09" transform="translate(123.11 370.98) rotate(-66.73)" style="fill:#4d4d4d"/></g><polygon points="408.3 118.17 367.78 141.71 326.99 118.16 367.51 94.62 408.3 118.17" style="fill:#708e4d"/><g style="isolation:isolate"><polygon points="367.52 89.84 408.3 113.38 408.27 122.95 367.49 99.4 367.52 89.84" style="fill:#8b5947"/><polygon points="327 113.38 367.52 89.84 367.49 99.4 326.97 122.95 327 113.38" style="fill:#8b5947"/><polygon points="408.3 113.38 408.27 122.95 367.76 146.49 367.78 136.93 408.3 113.38" style="fill:#8b5947"/><polygon points="367.78 136.93 367.76 146.49 326.97 122.95 327 113.38 367.78 136.93" style="fill:#8b5947"/></g><line x1="408.11" y1="57.96" x2="410.77" y2="57.96" style="fill:#8c9b57"/><path d="M400.3,43.11v6.8c0,12.65-10.71,22.9-23.92,22.9h-7.1" style="fill:none;stroke:#552904;stroke-miterlimit:10;stroke-width:3px"/><path d="M402.59,42v7.58c0,14.11-11.9,25.55-26.57,25.55h-7.89" style="fill:none;stroke:#82592c;stroke-miterlimit:10;stroke-width:4px"/><line x1="336.8" y1="59.22" x2="334.69" y2="59.22" style="fill:#8c9b57"/><path d="M341.85,60V65.4c0,10,8.5,18.16,19,18.16h5.64" style="fill:none;stroke:#552904;stroke-miterlimit:10;stroke-width:3px"/><path d="M344.61,60.25v5.47c0,10.17,8.58,18.42,19.16,18.42h5.69" style="fill:none;stroke:#82592c;stroke-miterlimit:10;stroke-width:4px"/><rect x="364.63" y="53.46" width="4.39" height="61.14" style="fill:#552904"/><rect x="365.85" y="53.46" width="4.39" height="61.14" style="fill:#82592c"/><ellipse cx="402.34" cy="31.33" rx="15.23" ry="17.69" style="fill:#8c9b57"/><path d="M403.91,46.83c-8.41,0-15.23-7.92-15.23-17.69A19.64,19.64,0,0,1,391.46,19a19.2,19.2,0,0,0-4.35,12.38c0,9.77,6.82,17.69,15.23,17.69,5.14,0,9.69-3,12.44-7.5A14.21,14.21,0,0,1,403.91,46.83Z" style="fill:#869156"/><path d="M402.34,13.6a14.65,14.65,0,0,0-12.23,7.14,13.85,13.85,0,0,1,9.09-3.49c8.41,0,15.23,7.92,15.23,17.69a19.56,19.56,0,0,1-3,10.55,18.75,18.75,0,0,0,6.15-14.2C417.57,21.52,410.75,13.6,402.34,13.6Z" style="fill:#82b650"/><ellipse cx="366.83" cy="28.07" rx="23.68" ry="28.07" style="fill:#8c9b57"/><path d="M366.83,0a21.32,21.32,0,0,0-14.3,5.7,20.21,20.21,0,0,1,5.57-.79c13.08,0,23.68,12.57,23.68,28.08,0,9.13-3.68,17.24-9.38,22.37,10.39-3,18.11-14,18.11-27.29C390.51,12.57,379.91,0,366.83,0Z" style="fill:#82b650"/><ellipse cx="343.42" cy="53.88" rx="8.91" ry="11.18" style="fill:#8c9b57"/><path d="M344.31,63.27c-4.92,0-8.91-5-8.91-11.17a13.39,13.39,0,0,1,1-5,13.1,13.1,0,0,0-1.84,6.8c0,6.18,4,11.18,8.91,11.18,3.48,0,6.5-2.51,8-6.16A8.43,8.43,0,0,1,344.31,63.27Z" style="fill:#869156"/><path d="M343.42,42.54a8.24,8.24,0,0,0-6.66,3.75A7.54,7.54,0,0,1,341,44.92c4.92,0,8.91,5,8.91,11.18a12.85,12.85,0,0,1-2.26,7.42,11.82,11.82,0,0,0,4.64-9.8C352.33,47.54,348.34,42.54,343.42,42.54Z" style="fill:#82b650"/><g style="opacity:0.2"><ellipse cx="1234.7" cy="274.42" rx="10.81" ry="27.09" transform="translate(494.87 1300.3) rotate(-66.73)" style="fill:#4d4d4d"/></g><polygon points="1299.77 300.57 1259.25 324.12 1218.46 300.57 1258.98 277.02 1299.77 300.57" style="fill:#708e4d"/><g style="isolation:isolate"><polygon points="1258.99 272.25 1299.77 295.79 1299.74 305.36 1258.96 281.81 1258.99 272.25" style="fill:#8b5947"/><polygon points="1218.47 295.79 1258.99 272.25 1258.96 281.81 1218.44 305.36 1218.47 295.79" style="fill:#8b5947"/><polygon points="1299.77 295.79 1299.74 305.36 1259.23 328.9 1259.25 319.34 1299.77 295.79" style="fill:#8b5947"/><polygon points="1259.25 319.34 1259.23 328.9 1218.44 305.36 1218.47 295.79 1259.25 319.34" style="fill:#8b5947"/></g><line x1="1299.58" y1="240.37" x2="1302.24" y2="240.37" style="fill:#8c9b57"/><path d="M1291.78,225.52v6.8c0,12.65-10.72,22.9-23.93,22.9h-7.1" style="fill:none;stroke:#552904;stroke-miterlimit:10;stroke-width:3px"/><path d="M1294.06,224.38V232c0,14.11-11.89,25.54-26.57,25.54h-7.89" style="fill:none;stroke:#82592c;stroke-miterlimit:10;stroke-width:4px"/><line x1="1228.27" y1="241.63" x2="1226.16" y2="241.63" style="fill:#8c9b57"/><path d="M1233.32,242.42v5.39c0,10,8.5,18.16,19,18.16h5.63" style="fill:none;stroke:#552904;stroke-miterlimit:10;stroke-width:3px"/><path d="M1236.08,242.65v5.48c0,10.17,8.58,18.42,19.16,18.42h5.69" style="fill:none;stroke:#82592c;stroke-miterlimit:10;stroke-width:4px"/><rect x="1256.1" y="235.86" width="4.39" height="61.14" style="fill:#552904"/><rect x="1257.32" y="235.86" width="4.39" height="61.14" style="fill:#82592c"/><ellipse cx="1293.81" cy="213.74" rx="15.23" ry="17.69" style="fill:#8c9b57"/><path d="M1295.38,229.24c-8.41,0-15.23-7.92-15.23-17.69a19.61,19.61,0,0,1,2.78-10.19,19.2,19.2,0,0,0-4.35,12.38c0,9.77,6.82,17.69,15.23,17.69,5.14,0,9.69-3,12.45-7.5A14.27,14.27,0,0,1,1295.38,229.24Z" style="fill:#869156"/><path d="M1293.81,196a14.63,14.63,0,0,0-12.23,7.14,13.8,13.8,0,0,1,9.09-3.49c8.41,0,15.23,7.91,15.23,17.68a19.56,19.56,0,0,1-3,10.56,18.75,18.75,0,0,0,6.15-14.2C1309,203.93,1302.22,196,1293.81,196Z" style="fill:#82b650"/><ellipse cx="1258.3" cy="210.48" rx="23.68" ry="28.07" style="fill:#8c9b57"/><path d="M1258.3,182.41a21.27,21.27,0,0,0-14.3,5.7,20.21,20.21,0,0,1,5.57-.79c13.08,0,23.68,12.57,23.68,28.08,0,9.13-3.68,17.24-9.38,22.37,10.39-3,18.12-14.06,18.12-27.29C1282,195,1271.38,182.41,1258.3,182.41Z" style="fill:#82b650"/><ellipse cx="1234.89" cy="236.29" rx="8.91" ry="11.18" style="fill:#8c9b57"/><path d="M1235.78,245.68c-4.92,0-8.91-5-8.91-11.18a13.58,13.58,0,0,1,1-5,13.1,13.1,0,0,0-1.84,6.8c0,6.17,4,11.18,8.91,11.18,3.48,0,6.5-2.51,8-6.17A8.44,8.44,0,0,1,1235.78,245.68Z" style="fill:#869156"/><path d="M1234.89,225a8.24,8.24,0,0,0-6.66,3.75,7.54,7.54,0,0,1,4.28-1.37c4.92,0,8.91,5,8.91,11.18a12.77,12.77,0,0,1-2.26,7.42,11.83,11.83,0,0,0,4.64-9.81C1243.8,230,1239.81,225,1234.89,225Z" style="fill:#82b650"/><g style="opacity:0.2"><ellipse cx="25.26" cy="276.99" rx="10.81" ry="27.09" transform="translate(-239.18 190.78) rotate(-66.73)" style="fill:#4d4d4d"/></g><polygon points="90.33 303.14 49.81 326.69 9.02 303.14 49.54 279.59 90.33 303.14" style="fill:#708e4d"/><g style="isolation:isolate"><polygon points="49.55 274.81 90.33 298.36 90.31 307.92 49.52 284.37 49.55 274.81" style="fill:#8b5947"/><polygon points="9.03 298.36 49.55 274.81 49.52 284.37 9.01 307.92 9.03 298.36" style="fill:#8b5947"/><polygon points="90.33 298.36 90.31 307.92 49.79 331.47 49.82 321.9 90.33 298.36" style="fill:#8b5947"/><polygon points="49.82 321.9 49.79 331.47 9.01 307.92 9.03 298.36 49.82 321.9" style="fill:#8b5947"/></g><line x1="90.15" y1="242.93" x2="92.81" y2="242.93" style="fill:#8c9b57"/><path d="M82.34,228.08v6.8c0,12.65-10.71,22.9-23.93,22.9h-7.1" style="fill:none;stroke:#552904;stroke-miterlimit:10;stroke-width:3px"/><path d="M84.62,226.94v7.59c0,14.1-11.89,25.54-26.56,25.54H50.17" style="fill:none;stroke:#82592c;stroke-miterlimit:10;stroke-width:4px"/><line x1="18.83" y1="244.19" x2="16.72" y2="244.19" style="fill:#8c9b57"/><path d="M23.88,245v5.4c0,10,8.5,18.16,19,18.16h5.63" style="fill:none;stroke:#552904;stroke-miterlimit:10;stroke-width:3px"/><path d="M26.64,245.22v5.47c0,10.18,8.58,18.42,19.17,18.42H51.5" style="fill:none;stroke:#82592c;stroke-miterlimit:10;stroke-width:4px"/><rect x="46.66" y="238.43" width="4.39" height="61.14" style="fill:#552904"/><rect x="47.89" y="238.43" width="4.39" height="61.14" style="fill:#82592c"/><ellipse cx="84.37" cy="216.3" rx="15.23" ry="17.69" style="fill:#8c9b57"/><path d="M85.94,231.8c-8.41,0-15.23-7.92-15.23-17.69a19.55,19.55,0,0,1,2.79-10.19,19.15,19.15,0,0,0-4.36,12.38C69.14,226.07,76,234,84.37,234c5.14,0,9.69-3,12.45-7.5A14.24,14.24,0,0,1,85.94,231.8Z" style="fill:#869156"/><path d="M84.37,198.57a14.62,14.62,0,0,0-12.22,7.14,13.83,13.83,0,0,1,9.08-3.49c8.41,0,15.23,7.92,15.23,17.69a19.64,19.64,0,0,1-3,10.55,18.71,18.71,0,0,0,6.14-14.2C99.6,206.49,92.78,198.57,84.37,198.57Z" style="fill:#82b650"/><ellipse cx="48.86" cy="213.05" rx="23.68" ry="28.07" style="fill:#8c9b57"/><path d="M48.86,185a21.32,21.32,0,0,0-14.3,5.7,20.25,20.25,0,0,1,5.57-.78c13.08,0,23.68,12.56,23.68,28.07,0,9.13-3.68,17.25-9.38,22.37,10.39-3,18.12-14.05,18.12-27.28C72.55,197.54,61.94,185,48.86,185Z" style="fill:#82b650"/><ellipse cx="25.45" cy="238.86" rx="8.91" ry="11.18" style="fill:#8c9b57"/><path d="M26.35,248.25c-4.93,0-8.91-5-8.91-11.18a13.54,13.54,0,0,1,.94-5,13.07,13.07,0,0,0-1.84,6.8c0,6.17,4,11.17,8.91,11.17,3.49,0,6.5-2.51,8-6.16A8.44,8.44,0,0,1,26.35,248.25Z" style="fill:#869156"/><path d="M25.45,227.51a8.25,8.25,0,0,0-6.66,3.75,7.54,7.54,0,0,1,4.28-1.37c4.92,0,8.91,5,8.91,11.18a12.84,12.84,0,0,1-2.25,7.42,11.82,11.82,0,0,0,4.63-9.8C34.36,232.51,30.37,227.51,25.45,227.51Z" style="fill:#82b650"/></svg>