<svg xmlns="http://www.w3.org/2000/svg" xmlns:xlink="http://www.w3.org/1999/xlink" viewBox="0 0 3500 1300"><defs><clipPath id="a"><rect width="3500" height="1300" style="fill:none"/></clipPath><clipPath id="b"><path d="M689.93,797.48l-.16,57.06a1,1,0,0,1-.59.81,3.08,3.08,0,0,1-2.82,0,1,1,0,0,1-.59-.82l.16-57.06a1,1,0,0,0,.59.82,3.08,3.08,0,0,0,2.82,0A1,1,0,0,0,689.93,797.48Z" style="fill:none"/></clipPath><clipPath id="c"><path d="M680.41,778.45l2.82-1.64c1.55-.9,3.7-.78,6.06.59L686.47,779C684.11,777.67,682,777.55,680.41,778.45Z" style="fill:none"/></clipPath><clipPath id="d"><path d="M695.28,797.56l-2.82,1.64c1.53-.89,2.48-2.78,2.49-5.47,0-5.4-3.78-12-8.48-14.69l2.82-1.64c4.7,2.71,8.49,9.29,8.48,14.69C697.76,794.78,696.81,796.67,695.28,797.56Z" style="fill:none"/></clipPath></defs><g style="clip-path:url(#a)"><polygon points="4217.85 1718.93 2205.75 2888 -772.15 1169.07 1239.96 0 4217.85 1718.93" style="fill:#c5af8c"/><polygon points="3157.53 1506.62 3058.86 1563.96 1239.94 513.81 -62.51 1270.72 -161.83 1213.37 1239.3 399.13 3157.53 1506.62" style="fill:#606165"/><g style="isolation:isolate"><polygon points="1239.75 546.8 1239.72 556.59 -33.84 1296.7 -33.82 1286.92 1239.75 546.8" style="fill:#babbb7"/><polygon points="3186.03 1489.23 3029.57 1580.16 1239.75 546.8 -33.82 1286.92 -191.31 1195.99 1238.71 364.95 3186.03 1489.23" style="fill:#d0d1cc"/><polygon points="3029.57 1580.16 3029.55 1589.94 1239.72 556.59 1239.75 546.8 3029.57 1580.16" style="fill:#81827f"/></g><polygon points="3157.53 1506.62 3058.86 1563.96 1239.94 513.81 -62.51 1270.72 -161.83 1213.37 1239.3 399.13 3157.53 1506.62" style="fill:#adbcca"/><polygon points="2657.57 1278.44 2663.22 1275.16 2712.88 1303.83 2707.23 1307.11 2657.57 1278.44" style="fill:#dcdcdc"/><polygon points="2558.25 1221.1 2563.9 1217.82 2613.56 1246.49 2607.91 1249.77 2558.25 1221.1" style="fill:#dcdcdc"/><polygon points="2458.95 1163.77 2464.6 1160.49 2514.26 1189.16 2508.61 1192.44 2458.95 1163.77" style="fill:#dcdcdc"/><polygon points="2359.63 1106.43 2365.28 1103.14 2414.94 1131.82 2409.29 1135.1 2359.63 1106.43" style="fill:#dcdcdc"/><polygon points="2260.3 1049.08 2265.95 1045.8 2315.61 1074.47 2309.96 1077.75 2260.3 1049.08" style="fill:#dcdcdc"/><polygon points="2160.99 991.74 2166.64 988.46 2216.29 1017.13 2210.64 1020.41 2160.99 991.74" style="fill:#dcdcdc"/><polygon points="2061.68 934.41 2067.33 931.12 2116.99 959.79 2111.34 963.08 2061.68 934.41" style="fill:#dcdcdc"/><polygon points="1962.36 877.07 1968.01 873.78 2017.67 902.45 2012.02 905.74 1962.36 877.07" style="fill:#dcdcdc"/><polygon points="1863.03 819.72 1868.68 816.43 1918.35 845.11 1912.7 848.39 1863.03 819.72" style="fill:#dcdcdc"/><polygon points="1763.72 762.38 1769.37 759.1 1819.03 787.76 1813.38 791.05 1763.72 762.38" style="fill:#dcdcdc"/><polygon points="1664.41 705.04 1670.06 701.76 1719.71 730.42 1714.06 733.71 1664.41 705.04" style="fill:#dcdcdc"/><polygon points="1565.1 647.7 1570.74 644.42 1620.4 673.09 1614.75 676.37 1565.1 647.7" style="fill:#dcdcdc"/><polygon points="1465.77 590.36 1471.42 587.07 1521.09 615.75 1515.44 619.03 1465.77 590.36" style="fill:#dcdcdc"/><polygon points="1366.45 533.01 1372.1 529.73 1421.76 558.4 1416.11 561.68 1366.45 533.01" style="fill:#dcdcdc"/><polygon points="1267.13 475.67 1272.78 472.39 1322.44 501.06 1316.79 504.35 1267.13 475.67" style="fill:#dcdcdc"/><polygon points="1168.26 495.34 1217.61 466.66 1223.27 469.93 1173.92 498.61 1168.26 495.34" style="fill:#dcdcdc"/><polygon points="1069.59 552.68 1118.92 524.01 1124.59 527.28 1075.25 555.95 1069.59 552.68" style="fill:#dcdcdc"/><polygon points="970.92 610.02 1020.25 581.35 1025.92 584.62 976.58 613.29 970.92 610.02" style="fill:#dcdcdc"/><polygon points="872.26 667.36 921.59 638.69 927.26 641.96 877.92 670.63 872.26 667.36" style="fill:#dcdcdc"/><polygon points="773.59 724.7 822.92 696.03 828.59 699.3 779.25 727.97 773.59 724.7" style="fill:#dcdcdc"/><polygon points="674.9 782.05 724.24 753.38 729.9 756.65 680.57 785.32 674.9 782.05" style="fill:#dcdcdc"/><polygon points="576.23 839.39 625.57 810.72 631.23 813.99 581.9 842.66 576.23 839.39" style="fill:#dcdcdc"/><polygon points="477.57 896.73 526.9 868.06 532.56 871.33 483.24 900 477.57 896.73" style="fill:#dcdcdc"/><polygon points="378.9 954.07 428.24 925.4 433.9 928.67 384.56 957.34 378.9 954.07" style="fill:#dcdcdc"/><polygon points="280.22 1011.41 329.56 982.74 335.23 986.01 285.88 1014.68 280.22 1011.41" style="fill:#dcdcdc"/><polygon points="181.55 1068.76 230.88 1040.09 236.55 1043.36 187.21 1072.03 181.55 1068.76" style="fill:#dcdcdc"/><polygon points="82.88 1126.1 132.21 1097.43 137.88 1100.7 88.54 1129.37 82.88 1126.1" style="fill:#dcdcdc"/><polygon points="-15.79 1183.43 33.55 1154.76 39.22 1158.03 -10.12 1186.7 -15.79 1183.43" style="fill:#dcdcdc"/><g style="isolation:isolate"><g style="isolation:isolate"><g style="clip-path:url(#b)"><g style="isolation:isolate"><path d="M689.93,797.48l-.16,57.06v0l.16-57.06v0" style="fill:#949494"/><path d="M689.93,797.5l-.16,57.06s0,.07,0,.11l.16-57.06a.45.45,0,0,0,0-.11" style="fill:#999"/><path d="M689.92,797.61l-.16,57.06,0,.11.16-57.06,0-.11" style="fill:#9e9e9e"/><path d="M689.89,797.72l-.16,57.06-.06.11.16-57.06a.6.6,0,0,0,.06-.11" style="fill:#a3a3a3"/><path d="M689.83,797.83l-.16,57.06-.08.12.16-57.06.08-.12" style="fill:#a8a8a8"/><path d="M689.75,798,689.59,855a1.49,1.49,0,0,1-.12.14l.16-57.07a.49.49,0,0,0,.12-.13" style="fill:#adadad"/><path d="M689.63,798.08l-.16,57.07a2.93,2.93,0,0,1-.26.19l.16-57.06a1.37,1.37,0,0,0,.26-.2" style="fill:#b3b3b3"/><path d="M689.37,798.28l-.16,57.06h0a2,2,0,0,1-.44.2l.16-57.06a2.55,2.55,0,0,0,.44-.2h0" style="fill:#b8b8b8"/><path d="M688.9,798.49l-.16,57.06a2.34,2.34,0,0,1-.38.09l.17-57.06c.13,0,.25-.06.37-.09" style="fill:#b3b3b3"/><path d="M688.53,798.58l-.17,57.06-.25,0,.16-57.07a2.3,2.3,0,0,0,.26,0" style="fill:#adadad"/><path d="M688.27,798.61l-.16,57.07h-.22l.16-57.06.22,0" style="fill:#a8a8a8"/><path d="M688.05,798.63l-.16,57.06h-.21l.17-57.06h.2" style="fill:#a3a3a3"/><path d="M687.85,798.63l-.17,57.06h-.19l.16-57.06h.2" style="fill:#9e9e9e"/><path d="M687.65,798.62l-.16,57.06-.19,0,.16-57.06.19,0" style="fill:#999"/><path d="M687.46,798.6l-.16,57.06-.2,0,.16-57.07.2,0" style="fill:#949494"/><path d="M687.26,798.56l-.16,57.07-.21-.06.16-57.06.21,0" style="fill:#8f8f8f"/><path d="M687.05,798.51l-.16,57.06-.24-.08.16-57.06.24.08" style="fill:#8a8a8a"/><path d="M686.81,798.43l-.16,57.06a1.55,1.55,0,0,1-.29-.14,1,1,0,0,1-.59-.82l.16-57.06a1,1,0,0,0,.59.82l.29.14" style="fill:#858585"/></g></g></g><path d="M689.34,796.65c.79.46.79,1.18,0,1.64a3.08,3.08,0,0,1-2.82,0,.87.87,0,0,1,0-1.64A3.17,3.17,0,0,1,689.34,796.65Z" style="fill:#dcdcdc"/></g><g style="isolation:isolate"><g style="isolation:isolate"><g style="clip-path:url(#c)"><g style="isolation:isolate"><path d="M680.41,778.45l2.82-1.64a3.6,3.6,0,0,1,.69-.32l-2.82,1.64a3.6,3.6,0,0,0-.69.32" style="fill:#850000"/><path d="M681.1,778.13l2.82-1.64a4.11,4.11,0,0,1,.6-.17L681.7,778a4.11,4.11,0,0,0-.6.17" style="fill:#8a0000"/><path d="M681.7,778l2.82-1.64.49-.07-2.82,1.64-.49.07" style="fill:#8f0000"/><path d="M682.19,777.89l2.82-1.64.44,0-2.82,1.64-.44,0" style="fill:#940000"/><path d="M682.63,777.87l2.82-1.64h.4L683,777.88h-.4" style="fill:#900"/><path d="M683,777.88l2.82-1.64.38,0-2.82,1.64-.38,0" style="fill:#9e0000"/><path d="M683.41,777.92l2.82-1.64.37.06L683.79,778l-.38-.06" style="fill:#a30000"/><path d="M683.79,778l2.81-1.64.35.08-2.82,1.64-.34-.08" style="fill:#a80000"/><path d="M684.13,778.06l2.82-1.64.35.1-2.81,1.64-.36-.1" style="fill:#ad0000"/><path d="M684.49,778.16l2.81-1.64.35.11-2.82,1.64-.34-.11" style="fill:#b30000"/><path d="M684.83,778.27l2.82-1.64.34.13-2.82,1.64-.34-.13" style="fill:#b80000"/><path d="M685.17,778.4l2.82-1.64.34.14-2.82,1.64-.34-.14" style="fill:#bd0000"/><path d="M685.51,778.54l2.82-1.64.34.17-2.82,1.63-.34-.16" style="fill:#c20000"/><path d="M685.85,778.7l2.82-1.63a2.91,2.91,0,0,1,.35.18l-2.82,1.63-.35-.18" style="fill:#c70000"/><path d="M686.2,778.88l2.82-1.63.27.15L686.47,779l-.27-.16" style="fill:#c00"/></g></g></g><g style="isolation:isolate"><g style="clip-path:url(#d)"><g style="isolation:isolate"><path d="M686.47,779l2.82-1.64.08.05-2.81,1.63-.09,0" style="fill:#c00"/><path d="M686.56,779.08l2.81-1.63.36.22-2.82,1.63-.35-.22" style="fill:#d10000"/><path d="M686.91,779.3l2.82-1.63.36.23-2.81,1.64-.37-.24" style="fill:#d60000"/><path d="M687.28,779.54l2.81-1.64.37.27-2.82,1.64-.36-.27" style="fill:#db0000"/><path d="M687.64,779.81l2.82-1.64.38.28L688,780.09l-.38-.28" style="fill:#e00000"/><path d="M688,780.09l2.82-1.64.37.31-2.82,1.64-.37-.31" style="fill:#e60000"/><path d="M688.39,780.4l2.82-1.64.38.33-2.82,1.64-.38-.33" style="fill:#eb0000"/><path d="M688.77,780.73l2.82-1.64c.13.11.25.23.37.35l-2.81,1.63-.38-.34" style="fill:#f00000"/><path d="M689.15,781.07l2.81-1.63c.13.11.24.23.36.35l-2.82,1.64-.35-.36" style="fill:#f50000"/><path d="M689.5,781.43l2.82-1.64.35.36-2.82,1.64-.35-.36" style="fill:#fa0000"/><path d="M689.85,781.79l2.82-1.64.33.37-2.82,1.64-.33-.37" style="fill:red"/><path d="M690.18,782.16l2.82-1.64.33.38-2.82,1.64-.33-.38" style="fill:#ff1f1f"/><path d="M690.51,782.54l2.82-1.64.33.41L690.84,783l-.33-.41" style="fill:#ff2b2b"/><path d="M690.84,783l2.82-1.64.37.49-2.82,1.64c-.12-.17-.25-.33-.37-.49" style="fill:#ff3535"/><path d="M691.21,783.44,694,781.8c.19.26.37.51.54.77l-2.82,1.64c-.17-.26-.35-.52-.54-.77" style="fill:#ff3d3d"/><path d="M691.75,784.21l2.82-1.64c.22.33.43.67.63,1l-2.81,1.64c-.21-.34-.42-.68-.64-1" style="fill:#f44"/><path d="M692.39,785.22l2.81-1.64c.15.25.29.49.42.75L692.8,786c-.13-.26-.27-.51-.41-.75" style="fill:#ff3d3d"/><path d="M692.8,786l2.82-1.64.27.51-2.82,1.64c-.09-.18-.17-.35-.27-.51" style="fill:#ff3535"/><path d="M693.07,786.48l2.82-1.64.21.45-2.81,1.63-.22-.44" style="fill:#ff2b2b"/><path d="M693.29,786.92l2.81-1.63c.07.13.13.27.19.41l-2.82,1.64-.18-.42" style="fill:#ff1f1f"/><path d="M693.47,787.34l2.82-1.64.18.41-2.82,1.63-.18-.4" style="fill:red"/><path d="M693.65,787.74l2.82-1.63c0,.13.11.27.16.41l-2.82,1.64-.16-.42" style="fill:#fa0000"/><path d="M693.81,788.16l2.82-1.64c.06.14.11.28.16.42L694,788.58c-.05-.14-.1-.28-.16-.42" style="fill:#f50000"/><path d="M694,788.58l2.82-1.64.15.43L694.12,789l-.15-.43" style="fill:#f00000"/><path d="M694.12,789l2.82-1.64c0,.15.1.3.14.44l-2.82,1.64c0-.15-.09-.29-.14-.44" style="fill:#eb0000"/><path d="M694.26,789.45l2.82-1.64c0,.15.09.3.13.45l-2.81,1.64c0-.15-.09-.3-.14-.45" style="fill:#e60000"/><path d="M694.4,789.9l2.81-1.64a3.45,3.45,0,0,1,.12.46l-2.82,1.63c0-.15-.07-.3-.11-.45" style="fill:#e00000"/><path d="M694.51,790.35l2.82-1.63c0,.14.08.29.11.44l-2.82,1.64c0-.15-.07-.3-.11-.45" style="fill:#db0000"/><path d="M694.62,790.8l2.82-1.64.09.45-2.82,1.64-.09-.45" style="fill:#d60000"/><path d="M694.71,791.25l2.82-1.64c0,.14.05.28.07.43l-2.82,1.64c0-.15,0-.29-.07-.43" style="fill:#d10000"/><path d="M694.78,791.68,697.6,790a3,3,0,0,1,.06.43l-2.82,1.63a3,3,0,0,0-.06-.42" style="fill:#c00"/><path d="M694.84,792.1l2.82-1.63c0,.14,0,.28.05.41l-2.82,1.64c0-.14,0-.28,0-.42" style="fill:#c70000"/><path d="M694.89,792.52l2.82-1.64,0,.42-2.82,1.64c0-.14,0-.28,0-.42" style="fill:#c20000"/><path d="M694.92,792.94l2.82-1.64c0,.14,0,.27,0,.41l-2.82,1.64c0-.14,0-.28,0-.41" style="fill:#bd0000"/><path d="M694.94,793.35l2.82-1.64c0,.13,0,.26,0,.38v0L695,793.76v0c0-.12,0-.25,0-.38" style="fill:#b80000"/><path d="M695,793.76l2.82-1.64c0,.14,0,.28,0,.41l-2.82,1.64c0-.14,0-.27,0-.41" style="fill:#b30000"/><path d="M694.94,794.17l2.82-1.64,0,.4-2.82,1.64,0-.4" style="fill:#ad0000"/><path d="M694.91,794.57l2.82-1.64c0,.14,0,.28,0,.41L694.87,795c0-.13,0-.27,0-.41" style="fill:#a80000"/><path d="M694.87,795l2.82-1.64-.06.41-2.82,1.64.06-.41" style="fill:#a30000"/><path d="M694.81,795.39l2.82-1.64c0,.14,0,.28-.08.42l-2.82,1.64c0-.14.06-.28.08-.42" style="fill:#9e0000"/><path d="M694.73,795.81l2.82-1.64-.12.43-2.82,1.64.12-.43" style="fill:#900"/><path d="M694.61,796.24l2.82-1.64a3,3,0,0,1-.15.45l-2.82,1.64a3,3,0,0,0,.15-.45" style="fill:#940000"/><path d="M694.46,796.69l2.82-1.64c-.06.17-.13.33-.2.49l-2.82,1.64c.07-.16.14-.32.2-.49" style="fill:#8f0000"/><path d="M694.26,797.18l2.82-1.64c-.1.2-.21.4-.32.58l-2.82,1.64c.11-.18.22-.38.32-.58" style="fill:#8a0000"/><path d="M693.94,797.76l2.82-1.64a4.42,4.42,0,0,1-1.48,1.44l-2.82,1.64a4.33,4.33,0,0,0,1.48-1.44" style="fill:#850000"/></g></g></g><path d="M686.47,779c4.7,2.71,8.49,9.29,8.48,14.69s-3.83,7.59-8.53,4.88-8.51-9.3-8.49-14.7S681.77,776.32,686.47,779Z" style="fill:#890000"/></g><g style="isolation:isolate"><polygon points="624.7 951.85 621.88 953.49 619.05 951.85 621.86 950.21 624.7 951.85" style="fill:#c39344"/><polygon points="624.7 951.85 624.65 968.15 621.83 969.79 621.88 953.49 624.7 951.85" style="fill:#ae833d"/><polygon points="621.88 953.49 621.83 969.79 619 968.15 619.05 951.85 621.88 953.49" style="fill:#795b2a"/></g><g style="isolation:isolate"><polygon points="694.7 911.85 691.88 913.49 689.05 911.85 691.87 910.22 694.7 911.85" style="fill:#c39344"/><polygon points="694.7 911.85 694.65 928.16 691.84 929.79 691.88 913.49 694.7 911.85" style="fill:#ae833d"/><polygon points="691.88 913.49 691.84 929.79 689 928.16 689.05 911.85 691.88 913.49" style="fill:#795b2a"/></g><g style="isolation:isolate"><polygon points="610.71 943.84 607.88 945.49 605.04 943.85 607.88 942.21 610.71 943.84" style="fill:#c39344"/><polygon points="610.71 943.84 610.66 960.15 607.83 961.79 607.88 945.49 610.71 943.84" style="fill:#ae833d"/><polygon points="607.88 945.49 607.83 961.79 605 960.15 605.04 943.85 607.88 945.49" style="fill:#795b2a"/></g><g style="isolation:isolate"><polygon points="696.43 906.35 620.31 950.59 603.29 940.76 679.41 896.52 696.43 906.35" style="fill:#c39344"/><polygon points="696.43 906.35 696.42 911.24 620.3 955.48 620.31 950.59 696.43 906.35" style="fill:#ae833d"/><polygon points="620.31 950.59 620.3 955.48 603.28 945.65 603.29 940.76 620.31 950.59" style="fill:#795b2a"/></g><path d="M641.84,1025c0,.22,0,.45,0,.67" style="fill:#8c9b57"/></g></svg>