<svg xmlns="http://www.w3.org/2000/svg" xmlns:xlink="http://www.w3.org/1999/xlink" viewBox="0 0 3500 1300"><defs><clipPath id="a"><rect width="3500" height="1300" style="fill:none"/></clipPath></defs><g style="clip-path:url(#a)"><polygon points="4217.85 1718.93 2205.75 2888 -772.15 1169.07 1239.96 0 4217.85 1718.93" style="fill:#719d6c"/><ellipse cx="1267.3" cy="125.23" rx="1.6" ry="8.85" transform="translate(272.65 920.47) rotate(-44.29)" style="fill:#161615;opacity:0.1"/><rect x="1275.54" y="113.25" width="3.92" height="21.62" style="fill:#552904"/><rect x="1276.84" y="113.25" width="5.23" height="21.62" style="fill:#82592c"/><polygon points="1262.62 85.37 1225.1 122.39 1250.29 112.31 1258.87 123.49 1272.26 112.13 1287.27 122.94 1294.23 111.76 1310.31 122.03 1312.99 111.21 1332.28 121.11 1280.3 67.22 1262.62 85.37" style="fill:#587058"/><polygon points="1264.81 75.2 1234.56 112.22 1254.87 102.14 1261.78 113.32 1272.59 101.96 1284.69 112.77 1290.31 101.59 1303.27 111.85 1305.43 101.04 1320.99 110.94 1279.07 57.05 1264.81 75.2" style="fill:#6f8e6f"/><polygon points="1265.98 62.48 1239.1 99.5 1257.15 89.42 1263.29 100.6 1272.89 89.24 1283.64 100.06 1288.64 88.88 1300.16 99.14 1302.08 88.33 1315.9 98.22 1278.65 44.34 1265.98 62.48" style="fill:#587058"/><polygon points="1267.55 52.31 1245.87 89.33 1260.43 79.25 1265.38 90.43 1273.13 79.07 1281.8 89.88 1285.82 78.7 1295.11 88.97 1296.66 78.15 1307.81 88.05 1277.77 34.17 1267.55 52.31" style="fill:#6f8e6f"/><polygon points="1268.75 41.29 1248.55 78.31 1262.12 68.23 1266.73 79.41 1273.95 68.05 1281.12 77.65 1282.03 78.86 1285.78 67.68 1294.44 77.95 1295.88 67.13 1306.27 77.03 1278.28 23.15 1268.75 41.29" style="fill:#587058"/><path d="M1253.64,68.14l10.94-10.08,3.73,11.18,5.82-11.36,6.51,10.81,3-11.18,7,10.26L1291.81,57l8.38,9.9L1287.51,38l-9.89-25s-6.53,18.36-9.08,24.38C1263.54,49.17,1253.64,68.14,1253.64,68.14Z" style="fill:#6f8e6f"/><polygon points="1271.02 28.45 1256.67 53.11 1266.3 46.4 1269.58 53.85 1274.71 46.28 1280.44 53.48 1283.11 46.03 1289.26 52.87 1290.28 45.66 1297.66 52.26 1277.78 16.36 1271.02 28.45" style="fill:#587058"/><path d="M1260.28,46.34l7.77-6.72,2.65,7.45,4.13-7.57,4.63,7.2,2.15-7.45,5,6.84.82-7.2,5.95,6.59-9-19.23-7-16.67s-4.64,12.23-6.45,16.24C1267.31,33.7,1260.28,46.34,1260.28,46.34Z" style="fill:#6f8e6f"/><path d="M1271.68,137.69c-.81-9.82-5.63-12.35-5.63-12.35a19.15,19.15,0,0,1,11.66,11.08c1.21-6.65,10.06-16.78,10.06-16.78-1.61,12.35.8,18,.8,18Z" style="fill:#6a9131"/><path d="M1262.21,137.69c-.54-6.64-3.81-8.35-3.81-8.35a12.93,12.93,0,0,1,7.89,7.49c.82-4.5,6.8-11.35,6.8-11.35-1.09,8.35.54,12.21.54,12.21Z" style="fill:#6a9131"/><path d="M1291.28,137.69c-.54-6.64-3.8-8.35-3.8-8.35a12.93,12.93,0,0,1,7.88,7.49c.82-4.5,6.8-11.35,6.8-11.35-1.08,8.35.55,12.21.55,12.21Z" style="fill:#6a9131"/><ellipse cx="1299.32" cy="157.31" rx="1.12" ry="6.44" transform="translate(168.04 815.48) rotate(-37.09)" style="fill:#161615;opacity:0.1"/><polygon points="1266.84 116.1 1284.53 162.08 1305.31 146.88 1266.84 116.1" style="fill:#161615;opacity:0.1"/><rect x="1304.54" y="147.67" width="2.49" height="17.41" style="fill:#552904"/><rect x="1305.37" y="147.67" width="3.32" height="17.41" style="fill:#82592c"/><polygon points="1296.35 125.22 1272.58 155.03 1288.54 146.91 1293.98 155.91 1302.47 146.76 1311.98 155.47 1316.4 146.47 1326.59 154.73 1328.29 146.03 1340.52 153.99 1307.56 110.62 1296.35 125.22" style="fill:#445b47"/><polygon points="1297.74 117.03 1278.57 146.84 1291.44 138.72 1295.83 147.72 1302.67 138.57 1310.35 147.28 1313.91 138.28 1322.13 146.54 1323.49 137.84 1333.36 145.8 1306.78 102.43 1297.74 117.03" style="fill:#57755b"/><polygon points="1298.49 106.8 1281.44 136.6 1292.89 128.49 1296.78 137.49 1302.87 128.34 1309.68 137.04 1312.85 128.04 1320.15 136.31 1321.37 127.6 1330.13 135.57 1306.52 92.19 1298.49 106.8" style="fill:#445b47"/><polygon points="1299.48 98.61 1285.74 128.41 1294.97 120.3 1298.11 129.3 1303.02 120.15 1308.51 128.86 1311.07 119.86 1316.95 128.12 1317.94 119.41 1325 127.38 1305.96 84 1299.48 98.61" style="fill:#57755b"/><polygon points="1300.24 89.74 1287.44 119.54 1296.04 111.43 1298.96 120.43 1303.54 111.28 1308.08 119 1308.66 119.98 1311.04 110.98 1316.53 119.25 1317.44 110.54 1324.03 118.51 1306.28 75.13 1300.24 89.74" style="fill:#445b47"/><path d="M1290.67,111.35l6.93-8.11,2.36,9,3.69-9.15,4.13,8.71,1.92-9,4.42,8.26.74-8.71,5.31,8-8-23.24L1305.86,67s-4.13,14.77-5.75,19.62C1296.94,96.08,1290.67,111.35,1290.67,111.35Z" style="fill:#57755b"/><polygon points="1301.68 79.4 1292.58 99.26 1298.69 93.85 1300.77 99.85 1304.02 93.75 1307.65 99.55 1309.34 93.56 1313.24 99.06 1313.89 93.26 1318.57 98.57 1305.97 69.67 1301.68 79.4" style="fill:#445b47"/><path d="M1294.88,93.8l4.92-5.4,1.68,6,2.62-6.09,2.93,5.8,1.36-6,3.15,5.5.52-5.79,3.77,5.3-5.71-15.48-4.45-13.41s-2.94,9.84-4.09,13.07C1299.33,83.63,1294.88,93.8,1294.88,93.8Z" style="fill:#57755b"/><path d="M1302.1,167.34c-.51-7.9-3.57-9.94-3.57-9.94,5.61,2.29,7.39,8.92,7.39,8.92.77-5.36,6.38-13.51,6.38-13.51-1,9.94.51,14.53.51,14.53Z" style="fill:#6a9131"/><path d="M1296.1,167.34c-.35-5.35-2.42-6.73-2.42-6.73,3.8,1.56,5,6,5,6,.52-3.62,4.31-9.14,4.31-9.14-.69,6.73.35,9.83.35,9.83Z" style="fill:#6a9131"/><path d="M1314.53,167.34c-.35-5.35-2.42-6.73-2.42-6.73,3.8,1.56,5,6,5,6,.52-3.62,4.31-9.14,4.31-9.14-.69,6.73.35,9.83.35,9.83Z" style="fill:#6a9131"/><ellipse cx="1261.25" cy="174.17" rx="0.93" ry="5.27" transform="translate(169.61 829.46) rotate(-38.84)" style="fill:#161615;opacity:0.1"/><polygon points="1233.65 141.16 1248.68 177.99 1266.33 165.82 1233.65 141.16" style="fill:#161615;opacity:0.1"/><rect x="1265.68" y="166.45" width="2.11" height="13.94" style="fill:#552904"/><rect x="1266.39" y="166.45" width="2.82" height="13.94" style="fill:#82592c"/><polygon points="1258.72 148.47 1238.52 172.34 1252.09 165.84 1256.7 173.05 1263.92 165.72 1272 172.7 1275.75 165.49 1284.41 172.1 1285.86 165.13 1296.24 171.51 1268.25 136.78 1258.72 148.47" style="fill:#445b47"/><polygon points="1259.91 141.91 1243.61 165.78 1254.55 159.28 1258.28 166.49 1264.1 159.17 1270.61 166.14 1273.64 158.93 1280.62 165.55 1281.79 158.57 1290.16 164.96 1267.59 130.22 1259.91 141.91" style="fill:#57755b"/><polygon points="1260.54 133.72 1246.06 157.59 1255.78 151.09 1259.09 158.29 1264.26 150.97 1270.05 157.94 1272.74 150.73 1278.94 157.35 1279.98 150.38 1287.42 156.76 1267.36 122.02 1260.54 133.72" style="fill:#445b47"/><polygon points="1261.38 127.16 1249.71 151.03 1257.55 144.53 1260.22 151.74 1264.38 144.41 1269.06 151.38 1271.22 144.18 1276.23 150.79 1277.06 143.82 1283.07 150.2 1266.89 115.46 1261.38 127.16" style="fill:#57755b"/><polygon points="1262.03 120.06 1251.15 143.92 1258.46 137.43 1260.94 144.63 1264.83 137.31 1268.69 143.49 1269.18 144.28 1271.2 137.07 1275.87 143.69 1276.64 136.72 1282.24 143.1 1267.16 108.36 1262.03 120.06" style="fill:#445b47"/><path d="M1253.89,137.37l5.89-6.5,2,7.2,3.13-7.32,3.51,7,1.63-7.21,3.76,6.62.63-7,4.51,6.38-6.83-18.61-5.33-16.13s-3.51,11.83-4.88,15.71C1259.22,125.14,1253.89,137.37,1253.89,137.37Z" style="fill:#57755b"/><polygon points="1263.25 111.78 1255.52 127.68 1260.71 123.35 1262.48 128.15 1265.24 123.27 1268.33 127.91 1269.76 123.11 1273.07 127.52 1273.63 122.88 1277.6 127.13 1266.89 103.98 1263.25 111.78" style="fill:#445b47"/><path d="M1257.47,123.31l4.18-4.33,1.43,4.8,2.22-4.88,2.5,4.64,1.15-4.8,2.67,4.41.45-4.64,3.2,4.25-4.85-12.4-3.78-10.75s-2.5,7.88-3.47,10.47C1261.25,115.16,1257.47,123.31,1257.47,123.31Z" style="fill:#57755b"/><path d="M1263.61,182.2c-.44-6.33-3-8-3-8,4.77,1.84,6.29,7.15,6.29,7.15.65-4.29,5.41-10.83,5.41-10.83-.87,8,.43,11.64.43,11.64Z" style="fill:#6a9131"/><path d="M1258.51,182.2c-.3-4.28-2-5.38-2-5.38,3.22,1.24,4.24,4.83,4.24,4.83.44-2.9,3.67-7.32,3.67-7.32-.59,5.39.29,7.87.29,7.87Z" style="fill:#6a9131"/><path d="M1274.16,182.2c-.29-4.28-2.05-5.38-2.05-5.38a7.88,7.88,0,0,1,4.25,4.83c.44-2.9,3.66-7.32,3.66-7.32-.58,5.39.3,7.87.3,7.87Z" style="fill:#6a9131"/><ellipse cx="1171.13" cy="243.33" rx="2.01" ry="11.53" transform="translate(90.22 755.57) rotate(-37.09)" style="fill:#161615;opacity:0.1"/><polygon points="1112.95 169.52 1144.63 251.87 1181.84 224.64 1112.95 169.52" style="fill:#161615;opacity:0.1"/><rect x="1180.47" y="226.06" width="4.45" height="31.17" style="fill:#552904"/><rect x="1181.96" y="226.06" width="5.94" height="31.17" style="fill:#82592c"/><polygon points="1165.81 185.86 1123.22 239.23 1151.81 224.7 1161.55 240.82 1176.76 224.44 1193.79 240.02 1201.7 223.91 1219.95 238.7 1222.99 223.11 1244.89 237.38 1185.88 159.7 1165.81 185.86" style="fill:#445b47"/><polygon points="1168.3 171.19 1133.95 224.57 1157.01 210.03 1164.86 226.15 1177.13 209.77 1190.86 225.36 1197.24 209.24 1211.96 224.04 1214.41 208.45 1232.08 222.72 1184.49 145.04 1168.3 171.19" style="fill:#57755b"/><polygon points="1169.62 152.86 1139.11 206.24 1159.6 191.71 1166.57 207.82 1177.47 191.44 1189.68 207.03 1195.35 190.91 1208.42 205.71 1210.6 190.12 1226.3 204.39 1184.01 126.71 1169.62 152.86" style="fill:#445b47"/><polygon points="1171.41 138.2 1146.8 191.57 1163.32 177.04 1168.95 193.16 1177.74 176.78 1187.58 192.37 1192.15 176.25 1202.7 191.04 1204.46 175.46 1217.11 189.72 1183.01 112.04 1171.41 138.2" style="fill:#57755b"/><polygon points="1172.77 122.31 1149.84 175.69 1165.24 161.15 1170.48 177.27 1178.67 160.89 1186.81 174.72 1187.85 176.48 1192.1 160.36 1201.93 175.16 1203.57 159.57 1215.37 173.84 1183.59 96.16 1172.77 122.31" style="fill:#445b47"/><path d="M1155.62,161,1168,146.49l4.23,16.12,6.6-16.38,7.4,15.58,3.43-16.11,7.93,14.79L1199,144.9l9.51,14.27-14.4-41.61-11.23-36.07s-7.41,26.46-10.3,35.14C1166.85,133.68,1155.62,161,1155.62,161Z" style="fill:#57755b"/><polygon points="1175.34 103.8 1159.05 139.36 1169.99 129.68 1173.71 140.41 1179.53 129.5 1186.05 139.88 1189.07 129.15 1196.05 139 1197.21 128.62 1205.59 138.12 1183.02 86.37 1175.34 103.8" style="fill:#445b47"/><path d="M1163.16,129.59l8.82-9.68,3,10.73,4.69-10.91,5.26,10.39,2.44-10.74,5.62,9.85.94-10.38,6.76,9.5-10.23-27.72-8-24s-5.27,17.63-7.32,23.41C1171.13,111.37,1163.16,129.59,1163.16,129.59Z" style="fill:#57755b"/><path d="M1176.09,261.28c-.91-14.15-6.39-17.8-6.39-17.8,10,4.11,13.24,16,13.24,16,1.37-9.59,11.42-24.2,11.42-24.2-1.83,17.81.91,26,.91,26Z" style="fill:#6a9131"/><path d="M1165.35,261.28c-.62-9.57-4.33-12-4.33-12,6.8,2.78,9,10.81,9,10.81.92-6.49,7.72-16.37,7.72-16.37-1.24,12,.61,17.6.61,17.6Z" style="fill:#6a9131"/><path d="M1198.35,261.28c-.62-9.57-4.32-12-4.32-12,6.79,2.78,9,10.81,9,10.81.93-6.49,7.72-16.37,7.72-16.37-1.23,12,.62,17.6.62,17.6Z" style="fill:#6a9131"/><ellipse cx="1211.68" cy="269.18" rx="1.6" ry="8.85" transform="translate(156.33 922.53) rotate(-44.29)" style="fill:#161615;opacity:0.1"/><rect x="1219.92" y="257.2" width="3.92" height="21.62" style="fill:#552904"/><rect x="1221.22" y="257.2" width="5.23" height="21.62" style="fill:#82592c"/><polygon points="1206.99 229.31 1169.48 266.34 1194.67 256.26 1203.24 267.44 1216.64 256.07 1231.64 266.89 1238.61 255.71 1254.69 265.97 1257.37 255.16 1276.66 265.06 1224.68 211.17 1206.99 229.31" style="fill:#587058"/><polygon points="1209.19 219.14 1178.94 256.17 1199.25 246.09 1206.16 257.26 1216.97 245.9 1229.07 256.71 1234.69 245.53 1247.65 255.8 1249.81 244.99 1265.37 254.88 1223.45 201 1209.19 219.14" style="fill:#6f8e6f"/><polygon points="1210.36 206.43 1183.48 243.45 1201.53 233.37 1207.67 244.55 1217.27 233.19 1228.02 244 1233.02 232.82 1244.54 243.08 1246.46 232.27 1260.28 242.17 1223.03 188.28 1210.36 206.43" style="fill:#587058"/><polygon points="1211.93 196.26 1190.25 233.28 1204.81 223.2 1209.76 234.38 1217.5 223.01 1226.17 233.83 1230.2 222.65 1239.49 232.91 1241.04 222.1 1252.19 232 1222.15 178.11 1211.93 196.26" style="fill:#6f8e6f"/><polygon points="1213.13 185.24 1192.93 222.26 1206.49 212.18 1211.11 223.36 1218.33 212 1225.5 221.59 1226.41 222.81 1230.16 211.63 1238.82 221.89 1240.26 211.08 1250.65 220.98 1222.66 167.09 1213.13 185.24" style="fill:#587058"/><path d="M1198,212.09,1209,202l3.72,11.18,5.82-11.37,6.52,10.82,3-11.18,7,10.26,1.16-10.81,8.38,9.89-12.68-28.86-9.9-25s-6.52,18.35-9.07,24.38C1207.91,193.12,1198,212.09,1198,212.09Z" style="fill:#6f8e6f"/><polygon points="1215.39 172.4 1201.05 197.06 1210.68 190.34 1213.96 197.79 1219.08 190.22 1224.82 197.43 1227.49 189.98 1233.64 196.81 1234.66 189.61 1242.04 196.2 1222.16 160.31 1215.39 172.4" style="fill:#587058"/><path d="M1204.66,190.28l7.77-6.71,2.65,7.45,4.13-7.58,4.63,7.21,2.15-7.45,5,6.84.83-7.21,6,6.6-9-19.23-7-16.67s-4.64,12.23-6.45,16.24C1211.69,177.65,1204.66,190.28,1204.66,190.28Z" style="fill:#6f8e6f"/><path d="M1216.06,281.63c-.81-9.81-5.63-12.35-5.63-12.35a19.15,19.15,0,0,1,11.66,11.09c1.21-6.65,10.06-16.79,10.06-16.79-1.61,12.35.8,18.05.8,18.05Z" style="fill:#6a9131"/><path d="M1206.59,281.63c-.54-6.64-3.81-8.35-3.81-8.35a13,13,0,0,1,7.89,7.5c.82-4.5,6.8-11.35,6.8-11.35-1.09,8.35.54,12.2.54,12.2Z" style="fill:#6a9131"/><path d="M1235.66,281.63c-.54-6.64-3.81-8.35-3.81-8.35a13,13,0,0,1,7.89,7.5c.82-4.5,6.8-11.35,6.8-11.35-1.09,8.35.55,12.2.55,12.2Z" style="fill:#6a9131"/><ellipse cx="989.58" cy="1082.79" rx="2.59" ry="14.32" transform="translate(-474.87 998.63) rotate(-44.29)" style="fill:#161615;opacity:0.1"/><rect x="1002.91" y="1063.41" width="6.35" height="34.99" style="fill:#552904"/><rect x="1005.02" y="1063.41" width="8.46" height="34.99" style="fill:#82592c"/><polygon points="982 1018.29 921.3 1078.2 962.06 1061.89 975.93 1079.98 997.61 1061.59 1021.89 1079.09 1033.16 1061 1059.17 1077.6 1063.51 1060.11 1094.72 1076.12 1010.62 988.93 982 1018.29" style="fill:#587058"/><polygon points="985.55 1001.84 936.6 1061.74 969.47 1045.43 980.65 1063.52 998.14 1045.13 1017.72 1062.63 1026.81 1044.54 1047.79 1061.15 1051.28 1043.65 1076.45 1059.66 1008.63 972.48 985.55 1001.84" style="fill:#6f8e6f"/><polygon points="987.44 981.26 943.95 1041.17 973.15 1024.86 983.09 1042.94 998.63 1024.56 1016.02 1042.06 1024.1 1023.97 1042.74 1040.57 1045.85 1023.08 1068.22 1039.09 1007.95 951.9 987.44 981.26" style="fill:#587058"/><polygon points="989.99 964.8 954.91 1024.71 978.46 1008.4 986.48 1026.49 999 1008.1 1013.04 1025.6 1019.55 1007.51 1034.58 1024.11 1037.09 1006.62 1055.13 1022.63 1006.52 935.45 989.99 964.8" style="fill:#6f8e6f"/><polygon points="991.93 946.97 959.25 1006.88 981.19 990.57 988.66 1008.66 1000.34 990.27 1011.94 1005.8 1013.41 1007.77 1019.48 989.68 1033.49 1006.28 1035.83 988.79 1052.64 1004.8 1007.34 917.62 991.93 946.97" style="fill:#587058"/><path d="M967.48,990.42l17.7-16.31,6,18.09,9.41-18.39,10.55,17.5,4.89-18.09,11.3,16.6,1.88-17.49,13.56,16-20.52-46.7-16-40.48s-10.56,29.69-14.69,39.44C983.49,959.72,967.48,990.42,967.48,990.42Z" style="fill:#6f8e6f"/><polygon points="995.59 926.19 972.38 966.1 987.97 955.24 993.27 967.29 1001.56 955.04 1010.85 966.69 1015.16 954.64 1025.11 965.71 1026.77 954.05 1038.71 964.72 1006.54 906.63 995.59 926.19" style="fill:#587058"/><path d="M978.23,955.14l12.57-10.87,4.28,12.05,6.68-12.25,7.49,11.66,3.48-12.05,8,11.06,1.34-11.65,9.63,10.66-14.58-31.11-11.36-27s-7.5,19.78-10.43,26.28C989.6,934.69,978.23,955.14,978.23,955.14Z" style="fill:#6f8e6f"/><path d="M996.67,1103c-1.31-15.89-9.12-20-9.12-20,14.32,4.62,18.88,17.94,18.88,17.94,2-10.76,16.27-27.16,16.27-27.16-2.61,20,1.3,29.21,1.3,29.21Z" style="fill:#6a9131"/><path d="M981.34,1103c-.88-10.74-6.16-13.52-6.16-13.52A21,21,0,0,1,988,1101.56c1.32-7.28,11-18.37,11-18.37-1.76,13.52.88,19.76.88,19.76Z" style="fill:#6a9131"/><path d="M1028.39,1103c-.88-10.74-6.17-13.52-6.17-13.52a21,21,0,0,1,12.77,12.13c1.32-7.28,11-18.37,11-18.37-1.76,13.52.88,19.76.88,19.76Z" style="fill:#6a9131"/><ellipse cx="1041.4" cy="1134.7" rx="1.81" ry="10.42" transform="translate(-473.64 857.7) rotate(-37.09)" style="fill:#161615;opacity:0.1"/><polygon points="988.83 1068.01 1017.46 1142.41 1051.08 1117.82 988.83 1068.01" style="fill:#161615;opacity:0.1"/><rect x="1049.84" y="1119.1" width="4.02" height="28.16" style="fill:#552904"/><rect x="1051.18" y="1119.1" width="5.36" height="28.16" style="fill:#82592c"/><polygon points="1036.59 1082.78 998.11 1131 1023.95 1117.87 1032.74 1132.43 1046.48 1117.63 1061.87 1131.72 1069.02 1117.15 1085.51 1130.52 1088.26 1116.44 1108.05 1129.33 1054.73 1059.14 1036.59 1082.78" style="fill:#445b47"/><polygon points="1038.84 1069.53 1007.81 1117.75 1028.64 1104.62 1035.74 1119.18 1046.82 1104.38 1059.23 1118.47 1064.99 1103.9 1078.29 1117.27 1080.51 1103.19 1096.46 1116.08 1053.47 1045.9 1038.84 1069.53" style="fill:#57755b"/><polygon points="1040.04 1052.97 1012.47 1101.19 1030.98 1088.06 1037.28 1102.62 1047.13 1087.82 1058.16 1101.91 1063.28 1087.34 1075.1 1100.71 1077.07 1086.63 1091.24 1099.52 1053.04 1029.34 1040.04 1052.97" style="fill:#445b47"/><polygon points="1041.65 1039.72 1019.42 1087.94 1034.35 1074.81 1039.43 1089.37 1047.37 1074.57 1056.26 1088.66 1060.39 1074.1 1069.92 1087.46 1071.51 1073.38 1082.95 1086.27 1052.13 1016.09 1041.65 1039.72" style="fill:#57755b"/><polygon points="1042.89 1025.37 1022.16 1073.59 1036.08 1060.46 1040.81 1075.02 1048.21 1060.22 1055.57 1072.72 1056.5 1074.3 1060.35 1059.74 1069.23 1073.11 1070.71 1059.03 1081.37 1071.92 1052.65 1001.73 1042.89 1025.37" style="fill:#445b47"/><path d="M1027.39,1060.34l11.22-13.13,3.82,14.56,6-14.8,6.69,14.08,3.1-14.56,7.16,13.37,1.2-14.08,8.59,12.89-13-37.6L1052,988.48s-6.7,23.91-9.31,31.75C1037.53,1035.63,1027.39,1060.34,1027.39,1060.34Z" style="fill:#57755b"/><polygon points="1045.21 1008.64 1030.49 1040.76 1040.37 1032.02 1043.73 1041.72 1048.99 1031.86 1054.88 1041.24 1057.61 1031.54 1063.92 1040.45 1064.97 1031.06 1072.54 1039.65 1052.14 992.89 1045.21 1008.64" style="fill:#445b47"/><path d="M1034.2,1031.94l8-8.75,2.71,9.7,4.24-9.86,4.75,9.38,2.2-9.7,5.09,8.91.84-9.38,6.11,8.58-9.24-25-7.21-21.71s-4.75,15.92-6.61,21.15C1041.4,1015.48,1034.2,1031.94,1034.2,1031.94Z" style="fill:#57755b"/><path d="M1045.89,1150.92c-.83-12.78-5.78-16.08-5.78-16.08,9.08,3.71,12,14.43,12,14.43,1.24-8.66,10.32-21.86,10.32-21.86-1.65,16.09.82,23.51.82,23.51Z" style="fill:#6a9131"/><path d="M1036.17,1150.92c-.55-8.64-3.9-10.88-3.9-10.88,6.14,2.51,8.09,9.77,8.09,9.77.84-5.86,7-14.79,7-14.79-1.11,10.88.56,15.9.56,15.9Z" style="fill:#6a9131"/><path d="M1066,1150.92c-.55-8.64-3.9-10.88-3.9-10.88,6.14,2.51,8.09,9.77,8.09,9.77.84-5.86,7-14.79,7-14.79-1.11,10.88.56,15.9.56,15.9Z" style="fill:#6a9131"/><ellipse cx="979.79" cy="1161.98" rx="1.51" ry="8.53" transform="translate(-512.09 871.33) rotate(-38.84)" style="fill:#161615;opacity:0.1"/><polygon points="935.13 1108.57 959.45 1168.16 988.01 1148.46 935.13 1108.57" style="fill:#161615;opacity:0.1"/><rect x="986.97" y="1149.48" width="3.42" height="22.56" style="fill:#552904"/><rect x="988.1" y="1149.48" width="4.56" height="22.56" style="fill:#82592c"/><polygon points="975.71 1120.4 943.02 1159.02 964.97 1148.5 972.44 1160.17 984.11 1148.31 997.19 1159.59 1003.26 1147.93 1017.27 1158.64 1019.6 1147.36 1036.41 1157.68 991.12 1101.47 975.71 1120.4" style="fill:#445b47"/><polygon points="977.62 1109.79 951.25 1148.41 968.96 1137.89 974.98 1149.56 984.4 1137.7 994.94 1148.98 999.84 1137.32 1011.13 1148.03 1013.02 1136.74 1026.58 1147.07 990.04 1090.86 977.62 1109.79" style="fill:#57755b"/><polygon points="978.64 1096.52 955.21 1135.14 970.94 1124.63 976.29 1136.29 984.66 1124.44 994.03 1135.72 998.38 1124.06 1008.42 1134.76 1010.09 1123.48 1022.14 1133.81 989.68 1077.6 978.64 1096.52" style="fill:#445b47"/><polygon points="980.01 1085.91 961.12 1124.53 973.8 1114.02 978.12 1125.68 984.86 1113.83 992.42 1125.11 995.93 1113.44 1004.02 1124.15 1005.37 1112.87 1015.09 1123.19 988.91 1066.98 980.01 1085.91" style="fill:#57755b"/><polygon points="981.05 1074.42 963.45 1113.04 975.27 1102.52 979.29 1114.18 985.58 1102.33 991.83 1112.34 992.62 1113.61 995.89 1101.95 1003.44 1112.65 1004.7 1101.38 1013.75 1111.7 989.35 1055.49 981.05 1074.42" style="fill:#445b47"/><path d="M967.89,1102.43l9.53-10.52,3.24,11.66,5.07-11.85,5.68,11.28,2.64-11.66,6.08,10.7,1-11.28,7.3,10.33L997.4,1071l-8.62-26.1s-5.69,19.14-7.91,25.43C976.51,1082.64,967.89,1102.43,967.89,1102.43Z" style="fill:#57755b"/><polygon points="983.03 1061.02 970.52 1086.75 978.92 1079.74 981.78 1087.51 986.24 1079.62 991.24 1087.13 993.56 1079.36 998.92 1086.49 999.82 1078.98 1006.24 1085.86 988.92 1048.41 983.03 1061.02" style="fill:#445b47"/><path d="M973.67,1079.68l6.77-7,2.31,7.77,3.6-7.89,4,7.51,1.88-7.77,4.32,7.14.72-7.52,5.18,6.88-7.85-20.06-6.12-17.39s-4,12.75-5.62,16.94C979.8,1066.5,973.67,1079.68,973.67,1079.68Z" style="fill:#57755b"/><path d="M983.6,1175c-.7-10.25-4.9-12.89-4.9-12.89,7.71,3,10.16,11.57,10.16,11.57,1-6.94,8.76-17.52,8.76-17.52-1.4,12.89.7,18.84.7,18.84Z" style="fill:#6a9131"/><path d="M975.35,1175c-.47-6.93-3.32-8.72-3.32-8.72,5.22,2,6.88,7.82,6.88,7.82.71-4.69,5.92-11.84,5.92-11.84-.94,8.71.48,12.74.48,12.74Z" style="fill:#6a9131"/><path d="M1000.69,1175c-.48-6.93-3.32-8.72-3.32-8.72,5.21,2,6.87,7.82,6.87,7.82.71-4.69,5.93-11.84,5.93-11.84-.95,8.71.47,12.74.47,12.74Z" style="fill:#6a9131"/><ellipse cx="825.9" cy="1188.95" rx="3.25" ry="18.65" transform="translate(-549.96 738.7) rotate(-37.09)" style="fill:#161615;opacity:0.1"/><polygon points="731.76 1069.52 783.03 1202.77 843.23 1158.72 731.76 1069.52" style="fill:#161615;opacity:0.1"/><rect x="841.02" y="1161" width="7.21" height="50.44" style="fill:#552904"/><rect x="843.42" y="1161" width="9.61" height="50.44" style="fill:#82592c"/><polygon points="817.29 1095.96 748.38 1182.32 794.64 1158.81 810.39 1184.89 835 1158.38 862.57 1183.61 875.36 1157.53 904.89 1181.47 909.82 1156.24 945.25 1179.33 849.77 1053.64 817.29 1095.96" style="fill:#445b47"/><polygon points="821.31 1072.23 765.75 1158.6 803.06 1135.08 815.76 1161.16 835.6 1134.65 857.83 1159.88 868.15 1133.8 891.97 1157.74 895.94 1132.52 924.51 1155.6 847.51 1029.91 821.31 1072.23" style="fill:#57755b"/><polygon points="823.46 1042.58 774.08 1128.94 807.24 1105.42 818.52 1131.5 836.16 1104.99 855.91 1130.22 865.08 1104.14 886.25 1128.08 889.77 1102.86 915.17 1125.94 846.74 1000.25 823.46 1042.58" style="fill:#445b47"/><polygon points="826.35 1018.85 786.53 1105.21 813.27 1081.69 822.37 1107.77 836.59 1081.27 852.52 1106.49 859.91 1080.41 876.98 1104.35 879.83 1079.13 900.3 1102.21 845.12 976.52 826.35 1018.85" style="fill:#57755b"/><polygon points="828.56 993.14 791.45 1079.5 816.37 1055.99 824.85 1082.07 838.1 1055.56 851.28 1077.95 852.95 1080.79 859.84 1054.71 875.74 1078.65 878.39 1053.42 897.48 1076.51 846.06 950.82 828.56 993.14" style="fill:#445b47"/><path d="M800.8,1055.78l20.1-23.52,6.84,26.08,10.69-26.51,12,25.23L856,1031l12.82,23.94,2.14-25.22,15.39,23.08L863,985.45l-18.17-58.36s-12,42.81-16.67,56.86C819,1011.53,800.8,1055.78,800.8,1055.78Z" style="fill:#57755b"/><polygon points="832.72 963.19 806.36 1020.72 824.06 1005.05 830.08 1022.43 839.49 1004.77 850.03 1021.57 854.93 1004.2 866.22 1020.15 868.11 1003.35 881.66 1018.73 845.14 934.99 832.72 963.19" style="fill:#445b47"/><path d="M813,1004.91l14.27-15.66,4.86,17.37L839.72,989l8.5,16.81,3.95-17.38,9.11,16,1.52-16.8,10.93,15.38-16.55-44.86-12.9-38.88s-8.52,28.52-11.84,37.88C825.91,975.43,813,1004.91,813,1004.91Z" style="fill:#57755b"/><path d="M833.93,1218c-1.47-22.91-10.34-28.82-10.34-28.82,16.25,6.65,21.43,25.86,21.43,25.86,2.21-15.51,18.47-39.15,18.47-39.15-3,28.81,1.47,42.11,1.47,42.11Z" style="fill:#6a9131"/><path d="M816.54,1218c-1-15.49-7-19.49-7-19.49C820.54,1203,824,1216,824,1216c1.49-10.5,12.49-26.48,12.49-26.48-2,19.48,1,28.48,1,28.48Z" style="fill:#6a9131"/><path d="M869.94,1218c-1-15.49-7-19.49-7-19.49,11,4.5,14.49,17.49,14.49,17.49,1.5-10.5,12.49-26.48,12.49-26.48-2,19.48,1,28.48,1,28.48Z" style="fill:#6a9131"/><ellipse cx="873.03" cy="1267.75" rx="2.59" ry="14.32" transform="translate(-637.14 969.8) rotate(-44.29)" style="fill:#161615;opacity:0.1"/><rect x="886.35" y="1248.37" width="6.35" height="34.99" style="fill:#552904"/><rect x="888.47" y="1248.37" width="8.46" height="34.99" style="fill:#82592c"/><polygon points="865.45 1203.25 804.75 1263.15 845.5 1246.84 859.38 1264.93 881.05 1246.55 905.33 1264.04 916.6 1245.95 942.62 1262.56 946.95 1245.07 978.17 1261.08 894.06 1173.89 865.45 1203.25" style="fill:#587058"/><polygon points="868.99 1186.79 820.04 1246.7 852.91 1230.39 864.1 1248.47 881.58 1230.09 901.16 1247.59 910.25 1229.5 931.23 1246.1 934.73 1228.61 959.9 1244.62 892.07 1157.43 868.99 1186.79" style="fill:#6f8e6f"/><polygon points="870.89 1166.22 827.39 1226.12 856.6 1209.81 866.54 1227.9 882.07 1209.52 899.47 1227.01 907.55 1208.92 926.19 1225.53 929.3 1208.03 951.67 1224.05 891.39 1136.86 870.89 1166.22" style="fill:#587058"/><polygon points="873.43 1149.76 838.35 1209.66 861.9 1193.35 869.92 1211.44 882.45 1193.06 896.48 1210.55 903 1192.46 918.03 1209.07 920.53 1191.57 938.57 1207.59 889.97 1120.4 873.43 1149.76" style="fill:#6f8e6f"/><polygon points="875.38 1131.93 842.69 1191.83 864.64 1175.52 872.11 1193.61 883.78 1175.23 895.39 1190.76 896.86 1192.72 902.93 1174.63 916.94 1191.24 919.27 1173.74 936.08 1189.76 890.79 1102.57 875.38 1131.93" style="fill:#587058"/><path d="M850.93,1175.38l17.7-16.32,6,18.09,9.42-18.38,10.54,17.49,4.9-18.08,11.3,16.6,1.88-17.49,13.56,16-20.53-46.71-16-40.48s-10.56,29.7-14.69,39.44C866.93,1144.68,850.93,1175.38,850.93,1175.38Z" style="fill:#6f8e6f"/><polygon points="879.04 1111.15 855.82 1151.06 871.41 1140.19 876.72 1152.24 885.01 1139.99 894.29 1151.65 898.6 1139.6 908.55 1150.66 910.21 1139.01 922.15 1149.68 889.98 1091.59 879.04 1111.15" style="fill:#587058"/><path d="M861.67,1140.09l12.57-10.86,4.28,12,6.69-12.25,7.49,11.66,3.47-12.06,8,11.07,1.34-11.66,9.62,10.67-14.57-31.12-11.37-27s-7.5,19.78-10.43,26.27C873,1119.65,861.67,1140.09,861.67,1140.09Z" style="fill:#6f8e6f"/><path d="M880.11,1287.91c-1.3-15.89-9.11-20-9.11-20,14.32,4.61,18.87,17.94,18.87,17.94,2-10.77,16.27-27.16,16.27-27.16-2.6,20,1.3,29.21,1.3,29.21Z" style="fill:#6a9131"/><path d="M864.79,1287.91c-.88-10.75-6.16-13.52-6.16-13.52a21,21,0,0,1,12.76,12.13c1.32-7.28,11-18.37,11-18.37-1.76,13.52.88,19.76.88,19.76Z" style="fill:#6a9131"/><path d="M911.83,1287.91c-.88-10.75-6.16-13.52-6.16-13.52a21,21,0,0,1,12.76,12.13c1.32-7.28,11-18.37,11-18.37-1.76,13.52.88,19.76.88,19.76Z" style="fill:#6a9131"/><polygon points="1069.53 1135.95 1093.85 1195.54 1122.42 1175.84 1069.53 1135.95" style="fill:#161615;opacity:0.1"/><ellipse cx="1116.21" cy="1193.12" rx="2.11" ry="11.8" transform="translate(-508.3 1018.72) rotate(-40.78)" style="fill:#161615;opacity:0.1"/><rect x="1126.52" y="1176.28" width="4.91" height="30.39" style="fill:#552904"/><rect x="1128.16" y="1176.28" width="6.55" height="30.39" style="fill:#82592c"/><polygon points="1110.34 1137.09 1063.36 1189.13 1094.9 1174.96 1105.64 1190.67 1122.42 1174.7 1141.22 1189.9 1149.94 1174.19 1170.08 1188.61 1173.43 1173.41 1197.6 1187.32 1132.49 1111.59 1110.34 1137.09" style="fill:#587058"/><polygon points="1113.09 1122.8 1075.2 1174.83 1100.64 1160.66 1109.3 1176.38 1122.83 1160.4 1137.99 1175.6 1145.02 1159.89 1161.26 1174.32 1163.97 1159.12 1183.45 1173.03 1130.95 1097.3 1113.09 1122.8" style="fill:#6f8e6f"/><polygon points="1114.55 1104.93 1080.88 1156.96 1103.49 1142.79 1111.19 1158.51 1123.21 1142.54 1136.68 1157.73 1142.93 1142.02 1157.36 1156.44 1159.77 1141.25 1177.08 1155.16 1130.43 1079.43 1114.55 1104.93" style="fill:#587058"/><polygon points="1116.52 1090.63 1089.37 1142.66 1107.6 1128.5 1113.81 1144.21 1123.5 1128.24 1134.37 1143.44 1139.41 1127.72 1151.04 1142.15 1152.98 1126.95 1166.95 1140.86 1129.32 1065.13 1116.52 1090.63" style="fill:#6f8e6f"/><polygon points="1118.03 1075.15 1092.73 1127.18 1109.71 1113.01 1115.5 1128.72 1124.54 1112.75 1133.52 1126.24 1134.66 1127.95 1139.36 1112.24 1150.2 1126.66 1152.01 1111.46 1165.02 1125.37 1129.96 1049.64 1118.03 1075.15" style="fill:#587058"/><path d="M1099.1,1112.88l13.7-14.17,4.67,15.72,7.29-16,8.16,15.19,3.79-15.71,8.74,14.43,1.46-15.2,10.49,13.91-15.88-40.57-12.39-35.16s-8.18,25.79-11.37,34.26C1111.49,1086.22,1099.1,1112.88,1099.1,1112.88Z" style="fill:#6f8e6f"/><polygon points="1120.86 1057.1 1102.89 1091.76 1114.96 1082.32 1119.07 1092.79 1125.48 1082.15 1132.67 1092.28 1136.01 1081.81 1143.71 1091.42 1144.99 1081.29 1154.23 1090.56 1129.33 1040.11 1120.86 1057.1" style="fill:#587058"/><path d="M1107.42,1082.24l9.73-9.44,3.31,10.47,5.18-10.64,5.8,10.12,2.69-10.47,6.21,9.61,1-10.12,7.46,9.27-11.29-27-8.8-23.43s-5.8,17.19-8.07,22.83C1116.22,1064.48,1107.42,1082.24,1107.42,1082.24Z" style="fill:#6f8e6f"/><path d="M1121.69,1210.62c-1-13.79-7-17.35-7-17.35,11.08,4,14.61,15.57,14.61,15.57,1.51-9.34,12.59-23.59,12.59-23.59-2,17.36,1,25.37,1,25.37Z" style="fill:#6a9131"/><path d="M1109.83,1210.62c-.68-9.33-4.77-11.74-4.77-11.74,7.5,2.71,9.88,10.54,9.88,10.54,1-6.32,8.52-16,8.52-16-1.36,11.74.68,17.15.68,17.15Z" style="fill:#6a9131"/><path d="M1146.25,1210.62c-.68-9.33-4.77-11.74-4.77-11.74,7.49,2.71,9.88,10.54,9.88,10.54,1-6.32,8.51-16,8.51-16-1.36,11.74.69,17.15.69,17.15Z" style="fill:#6a9131"/><polygon points="1121.62 1167.31 1151.82 1265.54 1187.28 1233.07 1121.62 1167.31" style="fill:#161615;opacity:0.1"/><ellipse cx="1179.58" cy="1261.55" rx="2.9" ry="17.59" transform="translate(-493.51 832.95) rotate(-32.55)" style="fill:#161615;opacity:0.1"/><rect x="1192.38" y="1233.79" width="6.1" height="50.1" style="fill:#552904"/><rect x="1194.41" y="1233.79" width="8.13" height="50.1" style="fill:#82592c"/><polygon points="1172.29 1169.19 1113.95 1254.97 1153.12 1231.61 1166.45 1257.52 1187.29 1231.19 1210.62 1256.24 1221.45 1230.34 1246.45 1254.12 1250.62 1229.07 1280.62 1251.99 1199.79 1127.15 1172.29 1169.19" style="fill:#587058"/><polygon points="1175.7 1145.63 1128.65 1231.4 1160.24 1208.05 1170.99 1233.95 1187.79 1207.62 1206.61 1232.67 1215.35 1206.77 1235.51 1230.55 1238.87 1205.5 1263.07 1228.43 1197.88 1103.59 1175.7 1145.63" style="fill:#6f8e6f"/><polygon points="1177.52 1116.17 1135.71 1201.94 1163.78 1178.59 1173.34 1204.49 1188.27 1178.16 1204.99 1203.22 1212.75 1177.31 1230.67 1201.09 1233.65 1176.04 1255.15 1198.97 1197.22 1074.13 1177.52 1116.17" style="fill:#587058"/><polygon points="1179.96 1092.6 1146.25 1178.38 1168.88 1155.02 1176.59 1180.92 1188.63 1154.6 1202.12 1179.65 1208.38 1153.75 1222.82 1177.53 1225.23 1152.47 1242.57 1175.4 1195.85 1050.56 1179.96 1092.6" style="fill:#6f8e6f"/><polygon points="1181.83 1067.07 1150.42 1152.85 1171.51 1129.49 1178.69 1155.39 1189.91 1129.07 1201.06 1151.3 1202.48 1154.12 1208.31 1128.22 1221.78 1152 1224.02 1126.94 1240.18 1149.87 1196.64 1025.03 1181.83 1067.07" style="fill:#587058"/><path d="M1158.33,1129.28l17-23.36,5.8,25.91,9-26.33,10.14,25,4.7-25.9,10.86,23.78,1.81-25,13,22.93L1211,1059.43l-15.39-58s-10.15,42.51-14.11,56.47C1173.72,1085.33,1158.33,1129.28,1158.33,1129.28Z" style="fill:#6f8e6f"/><polygon points="1185.35 1037.32 1163.04 1094.46 1178.02 1078.9 1183.12 1096.16 1191.09 1078.62 1200.01 1095.31 1204.15 1078.05 1213.72 1093.89 1215.31 1077.2 1226.79 1092.48 1195.87 1009.31 1185.35 1037.32" style="fill:#587058"/><path d="M1168.66,1078.76l12.08-15.56,4.12,17.26,6.42-17.54,7.2,16.69,3.34-17.26,7.71,15.84,1.29-16.69,9.25,15.28-14-44.55-10.92-38.62s-7.21,28.33-10,37.63C1179.59,1049.48,1168.66,1078.76,1168.66,1078.76Z" style="fill:#6f8e6f"/><path d="M1186.38,1290.41c-1.25-22.75-8.76-28.62-8.76-28.62,13.76,6.61,18.14,25.68,18.14,25.68,1.88-15.41,15.64-38.89,15.64-38.89-2.5,28.62,1.25,41.83,1.25,41.83Z" style="fill:#6a9131"/><path d="M1171.66,1290.41c-.85-15.39-5.93-19.36-5.93-19.36,9.31,4.47,12.27,17.37,12.27,17.37,1.27-10.42,10.58-26.3,10.58-26.3-1.7,19.36.84,28.29.84,28.29Z" style="fill:#6a9131"/><path d="M1216.87,1290.41c-.85-15.39-5.92-19.36-5.92-19.36,9.3,4.47,12.26,17.37,12.26,17.37,1.27-10.42,10.58-26.3,10.58-26.3-1.7,19.36.84,28.29.84,28.29Z" style="fill:#6a9131"/></g></svg>