<svg xmlns="http://www.w3.org/2000/svg" xmlns:xlink="http://www.w3.org/1999/xlink" viewBox="0 0 3500 1300"><defs><clipPath id="a"><path d="M1280.73,66.26l-.17,56.91c0,1.42-1,2.84-3.09,3.92a18.11,18.11,0,0,1-15,0c-2.1-1.1-3.15-2.53-3.14-4l.18-56.91c0,1.43,1,2.87,3.13,4a18.11,18.11,0,0,0,15,0C1279.7,69.09,1280.73,67.67,1280.73,66.26Zm-18.17-4c-4.14,2.18-4.12,5.7,0,7.88a18.11,18.11,0,0,0,15,0c4.14-2.18,4.12-5.71,0-7.88A18.11,18.11,0,0,0,1262.56,62.29ZM1270,48.4A10.63,10.63,0,1,0,1280.65,59,10.63,10.63,0,0,0,1270,48.4Z" style="fill:none"/></clipPath><clipPath id="b"><path d="M1200.33,181.57l-.28,88.52c0,2.21-1.61,4.41-4.81,6.09-6.43,3.39-16.91,3.39-23.39,0-3.26-1.7-4.89-3.94-4.88-6.17l.28-88.52c0,2.23,1.62,4.46,4.88,6.17,6.48,3.38,16.95,3.38,23.39,0C1198.72,186,1200.32,183.77,1200.33,181.57Zm-28.27-6.17c-6.44,3.38-6.41,8.87.07,12.26s16.95,3.38,23.39,0,6.41-8.88-.07-12.27S1178.5,172,1172.06,175.4Zm11.59-21.61a16.54,16.54,0,1,0,16.54,16.54A16.53,16.53,0,0,0,1183.65,153.79Z" style="fill:none"/></clipPath><clipPath id="c"><path d="M1160.54,1102.47l-.47,151.34c0,3.77-2.75,7.53-8.22,10.41-11,5.78-28.91,5.78-40,0-5.57-2.92-8.35-6.74-8.34-10.55l.47-151.34c0,3.82,2.77,7.64,8.34,10.55,11.08,5.79,29,5.79,40,0C1157.79,1110,1160.53,1106.24,1160.54,1102.47Zm-48.33-10.55c-11,5.79-11,15.17.12,21s29,5.79,40,0,10.94-15.18-.13-21S1123.22,1086.13,1112.21,1091.92ZM1132,1055a28.28,28.28,0,1,0,28.28,28.27A28.28,28.28,0,0,0,1132,1055Z" style="fill:none"/></clipPath><clipPath id="d"><path d="M1007.46,979.16l-.32,101.75c0,2.54-1.85,5.07-5.53,7-7.4,3.89-19.44,3.89-26.88,0-3.75-2-5.62-4.53-5.61-7.09l.32-101.75c0,2.56,1.86,5.13,5.6,7.09,7.45,3.89,19.49,3.89,26.89,0C1005.61,984.22,1007.45,981.69,1007.46,979.16ZM975,972.07c-7.4,3.89-7.36,10.19.08,14.09s19.49,3.89,26.89,0,7.36-10.21-.08-14.1S982.36,968.17,975,972.07Zm13.33-24.84a19,19,0,1,0,19,19A19,19,0,0,0,988.29,947.23Z" style="fill:none"/></clipPath><clipPath id="e"><rect width="3500" height="1300" style="fill:none"/></clipPath><clipPath id="f"><circle cx="1183.65" cy="170.33" r="16.54" style="fill:none;clip-path:url(#b)"/></clipPath><clipPath id="g"><path d="M1200.33,171.37l-.28,97.82c0,2.43-1.61,4.87-4.81,6.73-6.43,3.74-16.91,3.74-23.39,0-3.26-1.89-4.89-4.36-4.88-6.82l.28-97.82c0,2.46,1.62,4.93,4.88,6.82,6.48,3.74,16.95,3.74,23.39,0C1198.72,176.24,1200.32,173.8,1200.33,171.37Z" style="fill:none"/></clipPath><clipPath id="h"><circle cx="1132.03" cy="1083.25" r="28.28" style="fill:none;clip-path:url(#c)"/></clipPath><clipPath id="i"><path d="M1160.54,1085l-.47,167.23c0,4.16-2.75,8.32-8.22,11.5-11,6.4-28.91,6.4-40,0-5.57-3.22-8.35-7.44-8.34-11.65l.47-167.23c0,4.21,2.77,8.44,8.34,11.65,11.08,6.4,29,6.4,40,0C1157.79,1093.35,1160.53,1089.2,1160.54,1085Z" style="fill:none"/></clipPath><clipPath id="j"><circle cx="988.29" cy="966.24" r="19.01" style="fill:none;clip-path:url(#d)"/></clipPath><clipPath id="k"><path d="M1007.46,967.43l-.32,112.44c0,2.8-1.85,5.6-5.53,7.73-7.4,4.3-19.44,4.3-26.88,0-3.75-2.16-5.62-5-5.61-7.83l.32-112.44c0,2.84,1.86,5.67,5.6,7.84,7.45,4.3,19.49,4.3,26.89,0C1005.61,973,1007.45,970.23,1007.46,967.43Z" style="fill:none"/></clipPath><clipPath id="l"><circle cx="1270.01" cy="59.03" r="10.63" style="fill:none;clip-path:url(#a)"/></clipPath><clipPath id="m"><path d="M1280.73,59.7l-.17,62.89c0,1.57-1,3.13-3.09,4.33a16.61,16.61,0,0,1-15,0c-2.1-1.21-3.15-2.8-3.14-4.39l.18-62.89c0,1.59,1,3.17,3.13,4.38a16.55,16.55,0,0,0,15,0C1279.7,62.83,1280.73,61.27,1280.73,59.7Z" style="fill:none"/></clipPath></defs><g style="clip-path:url(#e)"><polygon points="4217.85 1718.93 2205.75 2888 -772.15 1169.07 1239.96 0 4217.85 1718.93" style="fill:#de9231"/></g><path d="M1281.27,156.16c-.44-6.33-3-8-3-8,4.77,1.83,6.28,7.14,6.28,7.14.65-4.29,5.42-10.82,5.42-10.82-.87,8,.43,11.64.43,11.64Z" style="fill:#6a9131"/><path d="M1288.74,156.2c-.91-14.15-6.39-17.8-6.39-17.8,10.05,4.11,13.24,16,13.24,16,1.37-9.59,11.42-24.2,11.42-24.2-1.83,17.81.91,26,.91,26Z" style="fill:#6a9131"/><path d="M914.49,1149.74c-1.3-15.88-9.11-20-9.11-20,14.31,4.61,18.87,17.93,18.87,17.93,2-10.76,16.27-27.16,16.27-27.16-2.6,20,1.3,29.21,1.3,29.21Z" style="fill:#6a9131"/><path d="M899.17,1149.74c-.88-10.74-6.16-13.51-6.16-13.51a21,21,0,0,1,12.76,12.13c1.32-7.28,11-18.37,11-18.37-1.76,13.52.88,19.75.88,19.75Z" style="fill:#6a9131"/><path d="M946.21,1149.74c-.88-10.74-6.16-13.51-6.16-13.51a21,21,0,0,1,12.76,12.13c1.32-7.28,11-18.37,11-18.37-1.76,13.52.88,19.75.88,19.75Z" style="fill:#6a9131"/><path d="M1186.38,1290.41c-1.25-22.75-8.76-28.62-8.76-28.62,13.76,6.61,18.14,25.68,18.14,25.68,1.88-15.41,15.64-38.89,15.64-38.89-2.5,28.62,1.25,41.83,1.25,41.83Z" style="fill:#6a9131"/><path d="M1171.66,1290.41c-.85-15.39-5.93-19.36-5.93-19.36,9.31,4.47,12.27,17.37,12.27,17.37,1.27-10.42,10.58-26.3,10.58-26.3-1.7,19.36.84,28.29.84,28.29Z" style="fill:#6a9131"/><path d="M1216.87,1290.41c-.85-15.39-5.92-19.36-5.92-19.36,9.3,4.47,12.26,17.37,12.26,17.37,1.27-10.42,10.58-26.3,10.58-26.3-1.7,19.36.84,28.29.84,28.29Z" style="fill:#6a9131"/><g style="opacity:0.1"><g style="isolation:isolate"><path d="M1122.35,238.28h19.39a2.12,2.12,0,0,1,1.74,1.23,6.65,6.65,0,0,1,0,6,2.13,2.13,0,0,1-1.75,1.26h-19.39a2.13,2.13,0,0,0,1.75-1.26,6.62,6.62,0,0,0,0-6A2.1,2.1,0,0,0,1122.35,238.28Z"/><ellipse cx="1122.35" cy="242.53" rx="2.46" ry="4.26"/></g><circle cx="1121.7" cy="242.56" r="4.26"/></g><g style="opacity:0.1"><g style="isolation:isolate"><path d="M1162.28,210.17v19.39a2.12,2.12,0,0,1-1.23,1.74,6.65,6.65,0,0,1-6,0,2.13,2.13,0,0,1-1.26-1.75V210.17a2.13,2.13,0,0,0,1.26,1.75,6.6,6.6,0,0,0,6,0A2.1,2.1,0,0,0,1162.28,210.17Z"/><ellipse cx="1158.02" cy="210.17" rx="4.26" ry="2.46"/></g><circle cx="1157.99" cy="209.52" r="4.26"/></g><g style="isolation:isolate"><path d="M1154.25,176.43l23,23.06a3.54,3.54,0,0,1,.6,3.53,11.17,11.17,0,0,1-7.14,7.17,3.58,3.58,0,0,1-3.58-.59l-23-23.06a3.58,3.58,0,0,0,3.58.59,11.16,11.16,0,0,0,7.14-7.18A3.52,3.52,0,0,0,1154.25,176.43Z" style="fill:#2e6b23"/><ellipse cx="1149.19" cy="181.48" rx="7.16" ry="4.14" transform="translate(208.03 865.44) rotate(-44.98)" style="fill:#2e6b23"/></g><circle cx="1148.39" cy="180.75" r="7.16" style="fill:#2e6b23"/><g style="opacity:0.2"><g style="isolation:isolate"><path d="M1144.74,214.79l36.86,36.88c1.19,1.19,1.6,3.16,1,5.64-1.3,5-6.41,10.12-11.41,11.47-2.51.68-4.52.27-5.73-.93L1128.56,231c1.2,1.21,3.21,1.62,5.72.94,5-1.35,10.11-6.49,11.42-11.47C1146.34,218,1145.93,216,1144.74,214.79Z"/><ellipse cx="1136.65" cy="222.88" rx="11.44" ry="6.63" transform="translate(175.1 868.69) rotate(-44.98)"/></g><circle cx="1135.37" cy="221.7" r="11.44"/></g><g style="isolation:isolate"><path d="M1200.33,171.37l-.28,97.82c0,2.43-1.61,4.87-4.81,6.73-6.43,3.74-16.91,3.74-23.39,0-3.26-1.89-4.89-4.36-4.88-6.82l.28-97.82c0,2.46,1.62,4.93,4.88,6.82,6.48,3.74,16.95,3.74,23.39,0C1198.72,176.24,1200.32,173.8,1200.33,171.37Z" style="fill:#e6bf7b"/><path d="M1195.45,164.55c6.48,3.74,6.51,9.8.07,13.55s-16.91,3.74-23.39,0-6.51-9.81-.07-13.55S1189,160.8,1195.45,164.55Z" style="fill:#e6bf7b"/></g><circle cx="1183.65" cy="170.33" r="16.54" style="fill:#e6bf7b"/><g style="isolation:isolate"><path d="M1222.9,198.57l-23.32,22.79a3.57,3.57,0,0,1-3.54.55,11.15,11.15,0,0,1-7.09-7.21,3.59,3.59,0,0,1,.62-3.58l23.32-22.79a3.59,3.59,0,0,0-.62,3.58,11.15,11.15,0,0,0,7.09,7.21A3.57,3.57,0,0,0,1222.9,198.57Z" style="fill:#5ba844"/><ellipse cx="1217.9" cy="193.45" rx="4.14" ry="7.16" transform="translate(211.65 906.3) rotate(-44.34)" style="fill:#5ba844"/></g><circle cx="1218.64" cy="192.66" r="7.16" style="fill:#5ba844"/><g style="clip-path:url(#f)"><rect x="1182.65" y="152.79" width="2" height="132.42" style="fill:#5ba844"/><path d="M1195.33,280.75h-2V164.21c0-7.8-2-10.57-7.65-10.57v-2c8.48,0,9.65,6,9.65,12.57Z" style="fill:#5ba844"/><path d="M1174.68,280.75h-2V164.21c0-6.53,1.17-12.57,9.65-12.57v2c-5.65,0-7.65,2.77-7.65,10.57Z" style="fill:#5ba844"/></g><g style="clip-path:url(#g)"><rect x="1182.65" y="152.79" width="2" height="132.42" style="fill:#5ba844"/><path d="M1195.33,280.75h-2V164.21c0-7.8-2-10.57-7.65-10.57v-2c8.48,0,9.65,6,9.65,12.57Z" style="fill:#5ba844"/><path d="M1174.68,280.75h-2V164.21c0-6.53,1.17-12.57,9.65-12.57v2c-5.65,0-7.65,2.77-7.65,10.57Z" style="fill:#5ba844"/></g><g style="opacity:0.1"><g style="isolation:isolate"><path d="M1027.24,1199.41h33.15a3.62,3.62,0,0,1,3,2.11,11.34,11.34,0,0,1,0,10.29,3.65,3.65,0,0,1-3,2.15h-33.15a3.65,3.65,0,0,0,3-2.15,11.38,11.38,0,0,0,0-10.29A3.6,3.6,0,0,0,1027.24,1199.41Z"/><ellipse cx="1027.23" cy="1206.69" rx="4.21" ry="7.27"/></g><circle cx="1026.13" cy="1206.74" r="7.28"/></g><g style="opacity:0.1"><g style="isolation:isolate"><path d="M1095.49,1151.36v33.16a3.6,3.6,0,0,1-2.11,3,11.35,11.35,0,0,1-10.28,0,3.65,3.65,0,0,1-2.16-3v-33.15a3.64,3.64,0,0,0,2.16,3,11.34,11.34,0,0,0,10.29,0A3.61,3.61,0,0,0,1095.49,1151.36Z"/><ellipse cx="1088.22" cy="1151.36" rx="7.27" ry="4.21"/></g><circle cx="1088.17" cy="1150.26" r="7.28"/></g><g style="isolation:isolate"><path d="M1081.78,1093.68l39.4,39.43c1.27,1.27,1.71,3.38,1,6-1.4,5.32-6.86,10.81-12.2,12.26-2.69.72-4.83.29-6.12-1L1064.47,1111c1.29,1.29,3.44,1.73,6.13,1,5.34-1.45,10.8-6.94,12.2-12.26C1083.49,1097.06,1083.05,1095,1081.78,1093.68Z" style="fill:#2e6b23"/><ellipse cx="1073.13" cy="1102.32" rx="12.23" ry="7.09" transform="translate(-465.14 1081.16) rotate(-44.98)" style="fill:#2e6b23"/></g><circle cx="1071.75" cy="1101.07" r="12.23" style="fill:#2e6b23"/><g style="opacity:0.2"><g style="isolation:isolate"><path d="M1065.52,1159.26l63,63c2,2,2.74,5.41,1.63,9.64-2.23,8.52-11,17.3-19.51,19.61-4.29,1.16-7.72.47-9.79-1.6l-63-63c2.06,2.07,5.49,2.76,9.79,1.6,8.54-2.31,17.27-11.09,19.51-19.61C1068.26,1164.67,1067.55,1161.3,1065.52,1159.26Z"/><ellipse cx="1051.68" cy="1173.09" rx="19.56" ry="11.33" transform="translate(-521.44 1086.71) rotate(-44.98)"/></g><circle cx="1049.49" cy="1171.08" r="19.56"/></g><g style="isolation:isolate"><path d="M1160.54,1085l-.47,167.23c0,4.16-2.75,8.32-8.22,11.5-11,6.4-28.91,6.4-40,0-5.57-3.22-8.35-7.44-8.34-11.65l.47-167.23c0,4.21,2.77,8.44,8.34,11.65,11.08,6.4,29,6.4,40,0C1157.79,1093.35,1160.53,1089.2,1160.54,1085Z" style="fill:#e6bf7b"/><path d="M1152.2,1073.37c11.07,6.39,11.13,16.77.13,23.16s-28.92,6.4-40,0-11.12-16.76-.12-23.16S1141.12,1067,1152.2,1073.37Z" style="fill:#e6bf7b"/></g><circle cx="1132.03" cy="1083.25" r="28.28" style="fill:#e6bf7b"/><g style="isolation:isolate"><path d="M1199.12,1131.53l-39.86,39c-1.29,1.26-3.4,1.67-6,1-5.31-1.46-10.74-7-12.13-12.34-.7-2.69-.24-4.83,1.07-6.11l39.87-39c-1.31,1.28-1.77,3.42-1.07,6.11,1.39,5.36,6.81,10.88,12.12,12.34C1195.72,1133.2,1197.84,1132.79,1199.12,1131.53Z" style="fill:#5ba844"/><ellipse cx="1190.58" cy="1122.78" rx="7.09" ry="12.23" transform="translate(-445.66 1151.88) rotate(-44.34)" style="fill:#5ba844"/></g><circle cx="1191.85" cy="1121.42" r="12.23" style="fill:#5ba844"/><g style="clip-path:url(#h)"><rect x="1130.32" y="1053.27" width="3.42" height="226.38" style="fill:#5ba844"/><path d="M1152,1272h-3.42V1072.79c0-13.34-3.42-18.07-13.07-18.07v-3.42c14.49,0,16.49,10.33,16.49,21.49Z" style="fill:#5ba844"/><path d="M1116.69,1272h-3.42V1072.79c0-11.16,2-21.49,16.5-21.49v3.42c-9.66,0-13.08,4.73-13.08,18.07Z" style="fill:#5ba844"/></g><g style="clip-path:url(#i)"><rect x="1130.32" y="1053.27" width="3.42" height="226.38" style="fill:#5ba844"/><path d="M1152,1272h-3.42V1072.79c0-13.34-3.42-18.07-13.07-18.07v-3.42c14.49,0,16.49,10.33,16.49,21.49Z" style="fill:#5ba844"/><path d="M1116.69,1272h-3.42V1072.79c0-11.16,2-21.49,16.5-21.49v3.42c-9.66,0-13.08,4.73-13.08,18.07Z" style="fill:#5ba844"/></g><g style="opacity:0.1"><g style="isolation:isolate"><path d="M919.56,1036.55h22.29a2.42,2.42,0,0,1,2,1.42,7.64,7.64,0,0,1,0,6.92,2.46,2.46,0,0,1-2,1.44H919.55a2.48,2.48,0,0,0,2-1.45,7.64,7.64,0,0,0,0-6.92A2.44,2.44,0,0,0,919.56,1036.55Z"/><ellipse cx="919.56" cy="1041.45" rx="2.83" ry="4.89"/></g><circle cx="918.81" cy="1041.48" r="4.89"/></g><g style="opacity:0.1"><g style="isolation:isolate"><path d="M968.91,1021.11v22.29a2.44,2.44,0,0,1-1.41,2,7.61,7.61,0,0,1-6.92,0,2.43,2.43,0,0,1-1.45-2v-22.29a2.43,2.43,0,0,0,1.45,2,7.59,7.59,0,0,0,6.91,0A2.43,2.43,0,0,0,968.91,1021.11Z"/><ellipse cx="964.02" cy="1021.11" rx="4.89" ry="2.83"/></g><circle cx="963.99" cy="1020.37" r="4.89"/></g><g style="isolation:isolate"><path d="M963.15,966.76l26.49,26.51a4.09,4.09,0,0,1,.69,4.05,12.82,12.82,0,0,1-8.21,8.25c-1.8.49-3.25.2-4.11-.67l-26.5-26.51c.87.87,2.31,1.16,4.12.67a12.78,12.78,0,0,0,8.2-8.25A4.07,4.07,0,0,0,963.15,966.76Z" style="fill:#2e6b23"/><ellipse cx="957.33" cy="972.57" rx="8.22" ry="4.76" transform="translate(-407.31 961.34) rotate(-44.98)" style="fill:#2e6b23"/></g><circle cx="956.41" cy="971.73" r="8.23" style="fill:#2e6b23"/><g style="opacity:0.2"><g style="isolation:isolate"><path d="M943.57,1017.34l42.36,42.4c1.37,1.37,1.84,3.63,1.1,6.48-1.51,5.72-7.38,11.63-13.12,13.18-2.89.78-5.2.31-6.58-1.07L925,1035.93c1.39,1.39,3.7,1.86,6.58,1.08,5.75-1.56,11.62-7.46,13.12-13.19C945.41,1021,944.94,1018.71,943.57,1017.34Z"/><ellipse cx="934.26" cy="1026.64" rx="13.15" ry="7.62" transform="translate(-452.28 960.85) rotate(-44.98)"/></g><circle cx="932.79" cy="1025.29" r="13.15"/></g><g style="isolation:isolate"><path d="M1007.46,967.43l-.32,112.44c0,2.8-1.85,5.6-5.53,7.73-7.4,4.3-19.44,4.3-26.88,0-3.75-2.16-5.62-5-5.61-7.83l.32-112.44c0,2.84,1.86,5.67,5.6,7.84,7.45,4.3,19.49,4.3,26.89,0C1005.61,973,1007.45,970.23,1007.46,967.43Z" style="fill:#e6bf7b"/><path d="M1001.85,959.59c7.44,4.3,7.48,11.28.08,15.58s-19.44,4.3-26.89,0-7.48-11.27-.08-15.57S994.4,955.29,1001.85,959.59Z" style="fill:#e6bf7b"/></g><circle cx="988.29" cy="966.24" r="19.01" style="fill:#e6bf7b"/><g style="isolation:isolate"><path d="M1033.4,998.7l-26.81,26.19c-.86.85-2.28,1.13-4.06.64a12.81,12.81,0,0,1-8.15-8.29c-.47-1.82-.16-3.25.72-4.11l26.8-26.2c-.88.86-1.18,2.3-.72,4.11a12.86,12.86,0,0,0,8.16,8.3A4.12,4.12,0,0,0,1033.4,998.7Z" style="fill:#5ba844"/><ellipse cx="1027.65" cy="992.81" rx="4.76" ry="8.22" transform="translate(-401.22 1000.99) rotate(-44.34)" style="fill:#5ba844"/></g><circle cx="1028.51" cy="991.9" r="8.23" style="fill:#5ba844"/><g style="clip-path:url(#j)"><rect x="987.14" y="946.08" width="2.3" height="152.21" style="fill:#5ba844"/><path d="M1001.71,1093.16h-2.3v-134c0-9-2.3-12.14-8.79-12.14v-2.3c9.74,0,11.09,6.94,11.09,14.44Z" style="fill:#5ba844"/><path d="M978,1093.16h-2.29v-134c0-7.5,1.34-14.44,11.09-14.44v2.3c-6.5,0-8.8,3.18-8.8,12.14Z" style="fill:#5ba844"/></g><g style="clip-path:url(#k)"><rect x="987.14" y="946.08" width="2.3" height="152.21" style="fill:#5ba844"/><path d="M1001.71,1093.16h-2.3v-134c0-9-2.3-12.14-8.79-12.14v-2.3c9.74,0,11.09,6.94,11.09,14.44Z" style="fill:#5ba844"/><path d="M978,1093.16h-2.29v-134c0-7.5,1.34-14.44,11.09-14.44v2.3c-6.5,0-8.8,3.18-8.8,12.14Z" style="fill:#5ba844"/></g><g style="opacity:0.1"><g style="isolation:isolate"><path d="M1235.6,106.72h12.47a1.35,1.35,0,0,1,1.11.79,4.26,4.26,0,0,1,0,3.87,1.37,1.37,0,0,1-1.12.81H1235.6a1.37,1.37,0,0,0,1.12-.81,4.26,4.26,0,0,0,0-3.87A1.35,1.35,0,0,0,1235.6,106.72Z"/><ellipse cx="1235.6" cy="109.45" rx="1.58" ry="2.74"/></g><circle cx="1235.18" cy="109.47" r="2.74"/></g><g style="opacity:0.1"><g style="isolation:isolate"><path d="M1256.27,84.65V97.11a1.35,1.35,0,0,1-.79,1.12,4.26,4.26,0,0,1-3.87,0,1.37,1.37,0,0,1-.81-1.13V84.64a1.37,1.37,0,0,0,.81,1.13,4.26,4.26,0,0,0,3.87,0A1.35,1.35,0,0,0,1256.27,84.65Z"/><ellipse cx="1253.53" cy="84.65" rx="2.74" ry="1.58"/></g><circle cx="1253.52" cy="84.23" r="2.74"/></g><g style="isolation:isolate"><path d="M1255.11,76l14.82,14.83a2.26,2.26,0,0,1,.38,2.27,7.16,7.16,0,0,1-4.58,4.61,2.31,2.31,0,0,1-2.31-.38L1248.6,82.45a2.32,2.32,0,0,0,2.31.38,7.18,7.18,0,0,0,4.59-4.61A2.29,2.29,0,0,0,1255.11,76Z" style="fill:#2e6b23"/><ellipse cx="1251.86" cy="79.2" rx="4.6" ry="2.66" transform="translate(310.38 908.08) rotate(-44.98)" style="fill:#2e6b23"/></g><circle cx="1251.34" cy="78.73" r="4.6" style="fill:#2e6b23"/><g style="opacity:0.2"><g style="isolation:isolate"><path d="M1245,87.62l23.69,23.71a3.65,3.65,0,0,1,.62,3.62,11.47,11.47,0,0,1-7.34,7.38,3.68,3.68,0,0,1-3.68-.6L1234.59,98a3.7,3.7,0,0,0,3.68.6,11.47,11.47,0,0,0,7.34-7.38A3.65,3.65,0,0,0,1245,87.62Z"/><ellipse cx="1239.79" cy="92.82" rx="7.36" ry="4.26" transform="translate(297.22 903.53) rotate(-44.98)"/></g><circle cx="1238.97" cy="92.06" r="7.36"/></g><g style="isolation:isolate"><path d="M1280.73,59.7l-.17,62.89c0,1.57-1,3.13-3.09,4.33a16.61,16.61,0,0,1-15,0c-2.1-1.21-3.15-2.8-3.14-4.39l.18-62.89c0,1.59,1,3.17,3.13,4.38a16.55,16.55,0,0,0,15,0C1279.7,62.83,1280.73,61.27,1280.73,59.7Z" style="fill:#e6bf7b"/><path d="M1277.6,55.31c4.16,2.41,4.18,6.31,0,8.71a16.55,16.55,0,0,1-15,0c-4.16-2.4-4.18-6.3,0-8.71A16.61,16.61,0,0,1,1277.6,55.31Z" style="fill:#e6bf7b"/></g><circle cx="1270.01" cy="59.03" r="10.63" style="fill:#e6bf7b"/><g style="isolation:isolate"><path d="M1295.24,77.19l-15,14.65a2.29,2.29,0,0,1-2.27.36,7.18,7.18,0,0,1-4.56-4.64,2.31,2.31,0,0,1,.4-2.3l15-14.65a2.3,2.3,0,0,0-.4,2.29,7.15,7.15,0,0,0,4.56,4.64A2.27,2.27,0,0,0,1295.24,77.19Z" style="fill:#5ba844"/><ellipse cx="1292.03" cy="73.9" rx="2.66" ry="4.6" transform="translate(316.32 924.07) rotate(-44.34)" style="fill:#5ba844"/></g><circle cx="1292.51" cy="73.39" r="4.6" style="fill:#5ba844"/><g style="clip-path:url(#l)"><rect x="1269.37" y="47.75" width="1.29" height="85.14" style="fill:#5ba844"/><path d="M1277.52,130h-1.29V55.09c0-5-1.28-6.79-4.92-6.79V47c5.46,0,6.21,3.89,6.21,8.08Z" style="fill:#5ba844"/><path d="M1264.24,130H1263V55.09c0-4.19.75-8.08,6.2-8.08V48.3c-3.63,0-4.92,1.78-4.92,6.79Z" style="fill:#5ba844"/></g><g style="clip-path:url(#m)"><rect x="1269.37" y="47.75" width="1.29" height="85.14" style="fill:#5ba844"/><path d="M1277.52,130h-1.29V55.09c0-5-1.28-6.79-4.92-6.79V47c5.46,0,6.21,3.89,6.21,8.08Z" style="fill:#5ba844"/><path d="M1264.24,130H1263V55.09c0-4.19.75-8.08,6.2-8.08V48.3c-3.63,0-4.92,1.78-4.92,6.79Z" style="fill:#5ba844"/></g></svg>