<svg xmlns="http://www.w3.org/2000/svg" xmlns:xlink="http://www.w3.org/1999/xlink" viewBox="0 0 2000 740"><defs><clipPath id="a"><rect width="2000" height="740" style="fill:none"/></clipPath></defs><g style="clip-path:url(#a)"><polygon points="2410 981.76 1260.8 1649.46 -440 667.7 709.2 0 2410 981.76" style="fill:#c5af8c"/><g style="isolation:isolate"><polygon points="709.08 312.3 709.06 317.89 -18.32 740.6 -18.31 735.01 709.08 312.3" style="fill:#babbb7"/><polygon points="1820.68 850.57 1731.32 902.5 709.08 312.3 -18.31 735.01 -108.26 683.08 708.49 208.44 1820.68 850.57" style="fill:#d0d1cc"/><polygon points="1731.32 902.5 1731.31 908.08 709.06 317.89 709.08 312.3 1731.32 902.5" style="fill:#81827f"/></g><polygon points="1804.4 860.49 1748.05 893.25 709.19 293.46 -34.7 725.76 -91.42 693.01 708.82 227.96 1804.4 860.49" style="fill:#606165"/><polygon points="1518.86 730.17 1522.08 728.3 1550.44 744.67 1547.22 746.55 1518.86 730.17" style="fill:#dcdcdc"/><polygon points="1462.13 697.42 1465.36 695.55 1493.72 711.92 1490.49 713.8 1462.13 697.42" style="fill:#dcdcdc"/><polygon points="1405.41 664.68 1408.64 662.8 1437 679.18 1433.78 681.05 1405.41 664.68" style="fill:#dcdcdc"/><polygon points="1348.69 631.93 1351.92 630.05 1380.28 646.43 1377.05 648.3 1348.69 631.93" style="fill:#dcdcdc"/><polygon points="1291.96 599.17 1295.19 597.3 1323.55 613.67 1320.32 615.55 1291.96 599.17" style="fill:#dcdcdc"/><polygon points="1235.24 566.42 1238.46 564.55 1266.83 580.92 1263.6 582.8 1235.24 566.42" style="fill:#dcdcdc"/><polygon points="1178.52 533.68 1181.74 531.8 1210.11 548.18 1206.88 550.05 1178.52 533.68" style="fill:#dcdcdc"/><polygon points="1121.79 500.93 1125.02 499.05 1153.38 515.43 1150.16 517.3 1121.79 500.93" style="fill:#dcdcdc"/><polygon points="1065.06 468.18 1068.29 466.3 1096.66 482.68 1093.43 484.55 1065.06 468.18" style="fill:#dcdcdc"/><polygon points="1008.34 435.43 1011.57 433.55 1039.93 449.93 1036.7 451.8 1008.34 435.43" style="fill:#dcdcdc"/><polygon points="951.62 402.68 954.85 400.81 983.2 417.18 979.98 419.05 951.62 402.68" style="fill:#dcdcdc"/><polygon points="894.9 369.93 898.13 368.06 926.49 384.43 923.26 386.31 894.9 369.93" style="fill:#dcdcdc"/><polygon points="838.17 337.18 841.39 335.3 869.76 351.68 866.54 353.56 838.17 337.18" style="fill:#dcdcdc"/><polygon points="781.44 304.43 784.67 302.55 813.03 318.93 809.81 320.8 781.44 304.43" style="fill:#dcdcdc"/><polygon points="724.72 271.68 727.95 269.8 756.31 286.18 753.08 288.05 724.72 271.68" style="fill:#dcdcdc"/><polygon points="668.25 282.91 696.43 266.53 699.67 268.4 671.48 284.78 668.25 282.91" style="fill:#dcdcdc"/><polygon points="611.89 315.66 640.07 299.29 643.31 301.15 615.13 317.53 611.89 315.66" style="fill:#dcdcdc"/><polygon points="555.54 348.41 583.72 332.04 586.95 333.9 558.77 350.28 555.54 348.41" style="fill:#dcdcdc"/><polygon points="499.19 381.16 527.37 364.78 530.6 366.65 502.42 383.02 499.19 381.16" style="fill:#dcdcdc"/><polygon points="442.83 413.91 471.01 397.53 474.25 399.4 446.07 415.77 442.83 413.91" style="fill:#dcdcdc"/><polygon points="386.47 446.66 414.65 430.29 417.88 432.15 389.71 448.53 386.47 446.66" style="fill:#dcdcdc"/><polygon points="330.12 479.41 358.29 463.04 361.53 464.9 333.35 481.28 330.12 479.41" style="fill:#dcdcdc"/><polygon points="273.77 512.16 301.94 495.79 305.17 497.65 277 514.03 273.77 512.16" style="fill:#dcdcdc"/><polygon points="217.41 544.91 245.59 528.53 248.82 530.4 220.65 546.78 217.41 544.91" style="fill:#dcdcdc"/><polygon points="161.05 577.66 189.24 561.28 192.47 563.15 164.28 579.53 161.05 577.66" style="fill:#dcdcdc"/><polygon points="104.69 610.41 132.87 594.04 136.11 595.9 107.93 612.28 104.69 610.41" style="fill:#dcdcdc"/><polygon points="48.34 643.16 76.52 626.79 79.75 628.65 51.58 645.03 48.34 643.16" style="fill:#dcdcdc"/><polygon points="-8.01 675.91 20.17 659.53 23.4 661.4 -4.77 677.78 -8.01 675.91" style="fill:#dcdcdc"/></g></svg>
