<svg xmlns="http://www.w3.org/2000/svg" xmlns:xlink="http://www.w3.org/1999/xlink" viewBox="0 0 3500 1300"><defs><clipPath id="a"><rect width="3500" height="1300" style="fill:none"/></clipPath><linearGradient id="b" x1="1158.27" y1="107.05" x2="1161.02" y2="107.18" gradientUnits="userSpaceOnUse"><stop offset="0" stop-color="#777054"/><stop offset="1" stop-color="#2a3004"/></linearGradient><linearGradient id="c" x1="1176.69" y1="51.94" x2="1198.85" y2="83.92" gradientUnits="userSpaceOnUse"><stop offset="0" stop-color="#90ac0c"/><stop offset="1" stop-color="#2a3004"/></linearGradient><linearGradient id="d" x1="1169.71" y1="34.52" x2="1194.49" y2="55.23" xlink:href="#c"/><linearGradient id="e" x1="1125.14" y1="30.06" x2="1166.16" y2="65.18" xlink:href="#c"/><linearGradient id="f" x1="1130.31" y1="59.45" x2="1155.18" y2="67.31" xlink:href="#c"/><linearGradient id="g" x1="1140.88" y1="25.16" x2="1158.47" y2="60.15" xlink:href="#c"/><linearGradient id="h" x1="1289.13" y1="58.59" x2="1290.77" y2="58.67" xlink:href="#b"/><linearGradient id="i" x1="1300.12" y1="25.73" x2="1313.33" y2="44.8" xlink:href="#c"/><linearGradient id="j" x1="1295.96" y1="15.34" x2="1310.73" y2="27.69" xlink:href="#c"/><linearGradient id="k" x1="1269.38" y1="12.68" x2="1293.84" y2="33.63" xlink:href="#c"/><linearGradient id="l" x1="1272.46" y1="30.21" x2="1287.29" y2="34.9" xlink:href="#c"/><linearGradient id="m" x1="1278.76" y1="9.76" x2="1289.25" y2="30.63" xlink:href="#c"/><linearGradient id="n" x1="1249.25" y1="215.94" x2="1254.51" y2="216.19" xlink:href="#b"/><linearGradient id="o" x1="1284.41" y1="110.79" x2="1326.67" y2="171.81" xlink:href="#c"/><linearGradient id="p" x1="1271.09" y1="77.55" x2="1318.35" y2="117.06" xlink:href="#c"/><linearGradient id="q" x1="1186.04" y1="69.04" x2="1264.32" y2="136.06" xlink:href="#c"/><linearGradient id="r" x1="1195.9" y1="125.12" x2="1243.35" y2="140.12" xlink:href="#c"/><linearGradient id="s" x1="1216.07" y1="59.69" x2="1249.64" y2="126.46" xlink:href="#c"/><linearGradient id="t" x1="1012.97" y1="1090.53" x2="1018.11" y2="1090.78" xlink:href="#b"/><linearGradient id="u" x1="1047.33" y1="987.77" x2="1088.63" y2="1047.41" xlink:href="#c"/><linearGradient id="v" x1="1034.31" y1="955.29" x2="1080.5" y2="993.9" xlink:href="#c"/><linearGradient id="w" x1="951.2" y1="946.97" x2="1027.69" y2="1012.47" xlink:href="#c"/><linearGradient id="x" x1="960.83" y1="1001.78" x2="1007.2" y2="1016.44" xlink:href="#c"/><linearGradient id="y" x1="980.54" y1="937.83" x2="1013.35" y2="1003.09" xlink:href="#c"/><linearGradient id="z" x1="852.84" y1="1150.35" x2="859.67" y2="1150.68" xlink:href="#b"/><linearGradient id="aa" x1="898.57" y1="1013.58" x2="953.54" y2="1092.95" xlink:href="#c"/><linearGradient id="ab" x1="881.24" y1="970.34" x2="942.72" y2="1021.73" xlink:href="#c"/><linearGradient id="ac" x1="770.62" y1="959.27" x2="872.43" y2="1046.45" xlink:href="#c"/><linearGradient id="ad" x1="783.44" y1="1032.22" x2="845.16" y2="1051.73" xlink:href="#c"/><linearGradient id="ae" x1="809.67" y1="947.1" x2="853.34" y2="1033.96" xlink:href="#c"/></defs><g style="clip-path:url(#a)"><polygon points="4217.85 1718.93 2205.75 2888 -772.15 1169.07 1239.96 0 4217.85 1718.93" style="fill:#ebe0ce"/></g><path d="M959.89,1196.45c-1.3-15.89-9.11-20-9.11-20,14.32,4.61,18.88,17.94,18.88,17.94,2-10.76,16.26-27.16,16.26-27.16-2.6,20,1.31,29.21,1.31,29.21Z" style="fill:#6a9131"/><path d="M1044.8,1193.85c-.88-10.74-6.16-13.51-6.16-13.51a21,21,0,0,1,12.77,12.13c1.32-7.28,11-18.37,11-18.37-1.76,13.51.88,19.75.88,19.75Z" style="fill:#6a9131"/><path d="M1151.78,161.68c11.22-87.6,7.88-109.42,7.88-109.42h1.82c.91,38.5,0,109.72,0,109.72Z" style="fill:url(#b)"/><path d="M1159.93,52.23c27.79-3.85,46.4,18,46.4,18Z" style="fill:url(#c)"/><path d="M1160,52.4C1172.19,28.31,1200,33.82,1200,33.82Z" style="fill:url(#d)"/><path d="M1159.85,52c-17.06-18.76-41.22-19.14-41.22-19.14Z" style="fill:url(#e)"/><path d="M1158.75,52.26c-27.09,3-33.34,21.82-33.34,21.82Z" style="fill:url(#f)"/><path d="M1160.57,52.56c-9.39-27-27-28.79-27-28.79Z" style="fill:url(#g)"/><ellipse cx="1127.52" cy="130.94" rx="2.4" ry="38.95" transform="translate(237.65 835.63) rotate(-45)" style="opacity:0.15"/><path d="M1142.19,164c-.43-6.33-3-8-3-8,4.76,1.84,6.28,7.15,6.28,7.15.65-4.29,5.41-10.82,5.41-10.82-.86,8,.44,11.64.44,11.64Z" style="fill:#6a9131"/><path d="M1149.67,164.06c-.92-14.15-6.4-17.81-6.4-17.81,10,4.11,13.24,16,13.24,16,1.37-9.58,11.42-24.2,11.42-24.2-1.83,17.81.91,26,.91,26Z" style="fill:#6a9131"/><path d="M1160.71,164c-.22-3.26-1.55-4.09-1.55-4.09a6,6,0,0,1,3.22,3.67c.34-2.21,2.79-5.56,2.79-5.56-.45,4.09.22,6,.22,6Z" style="fill:#6a9131"/><path d="M1164.56,164.06c-.47-7.27-3.29-9.15-3.29-9.15,5.16,2.11,6.81,8.21,6.81,8.21.7-4.93,5.86-12.43,5.86-12.43-.94,9.15.47,13.37.47,13.37Z" style="fill:#6a9131"/><path d="M1101.82,101.77c22.34-15.2,44.08,3,44.08,3Z" style="opacity:0.15"/><path d="M1098,103.94c-19.59,19-13,37.66-13,37.66Z" style="opacity:0.15"/><path d="M1098,102.26c-27.85-6.37-38.73,7.56-38.73,7.56Z" style="opacity:0.15"/><path d="M1285.26,91.17c6.69-52.23,4.7-65.25,4.7-65.25h1.09c.54,23,0,65.43,0,65.43Z" style="fill:url(#h)"/><path d="M1290.12,25.9c16.58-2.29,27.67,10.73,27.67,10.73Z" style="fill:url(#i)"/><path d="M1290.14,26c7.3-14.36,23.9-11.08,23.9-11.08Z" style="fill:url(#j)"/><path d="M1290.08,25.76c-10.18-11.19-24.59-11.42-24.59-11.42Z" style="fill:url(#k)"/><path d="M1289.42,25.92c-16.15,1.8-19.88,13-19.88,13Z" style="fill:url(#l)"/><path d="M1290.51,26.1C1284.9,10,1274.42,8.93,1274.42,8.93Z" style="fill:url(#m)"/><ellipse cx="1270.79" cy="72.84" rx="1.43" ry="23.23" transform="translate(320.7 919.92) rotate(-45)" style="opacity:0.15"/><path d="M1279.54,92.57c-.26-3.78-1.81-4.75-1.81-4.75a6.94,6.94,0,0,1,3.75,4.26c.39-2.56,3.23-6.45,3.23-6.45-.52,4.74.26,6.94.26,6.94Z" style="fill:#6a9131"/><path d="M1284,92.59c-.54-8.44-3.81-10.62-3.81-10.62,6,2.45,7.9,9.53,7.9,9.53.81-5.71,6.8-14.43,6.8-14.43-1.09,10.62.55,15.52.55,15.52Z" style="fill:#6a9131"/><path d="M1290.59,92.58c-.13-1.94-.93-2.44-.93-2.44a3.59,3.59,0,0,1,1.93,2.19,10.52,10.52,0,0,1,1.66-3.32,8.89,8.89,0,0,0,.13,3.57Z" style="fill:#6a9131"/><path d="M1292.88,92.59c-.28-4.33-2-5.45-2-5.45C1294,88.4,1295,92,1295,92c.42-2.94,3.5-7.41,3.5-7.41-.56,5.45.28,8,.28,8Z" style="fill:#6a9131"/><path d="M1255.47,55.44c13.32-9.06,26.29,1.83,26.29,1.83Z" style="opacity:0.15"/><path d="M1253.21,56.74c-11.68,11.3-7.77,22.46-7.77,22.46Z" style="opacity:0.15"/><path d="M1253.2,55.74c-16.61-3.8-23.09,4.5-23.09,4.5Z" style="opacity:0.15"/><path d="M1236.87,320.17c21.4-167.13,15-208.76,15-208.76h3.47c1.73,73.44,0,209.34,0,209.34Z" style="fill:url(#n)"/><path d="M1252.41,111.35c53-7.35,88.54,34.32,88.54,34.32Z" style="fill:url(#o)"/><path d="M1252.46,111.67c23.36-45.95,76.48-35.45,76.48-35.45Z" style="fill:url(#p)"/><path d="M1252.28,110.88c-32.57-35.8-78.66-36.53-78.66-36.53Z" style="fill:url(#q)"/><path d="M1250.17,111.41c-51.68,5.74-63.61,41.63-63.61,41.63Z" style="fill:url(#r)"/><path d="M1253.64,112c-17.92-51.46-51.46-54.93-51.46-54.93Z" style="fill:url(#s)"/><ellipse cx="1190.58" cy="261.52" rx="4.57" ry="74.31" transform="translate(163.79 918.46) rotate(-45)" style="opacity:0.15"/><path d="M1218.57,324.63c-.83-12.08-5.79-15.2-5.79-15.2,9.1,3.51,12,13.64,12,13.64,1.24-8.18,10.33-20.65,10.33-20.65-1.65,15.19.83,22.21.83,22.21Z" style="fill:#6a9131"/><path d="M1232.84,324.71c-1.75-27-12.2-34-12.2-34,19.17,7.84,25.26,30.49,25.26,30.49,2.62-18.3,21.78-46.17,21.78-46.17-3.48,34,1.74,49.65,1.74,49.65Z" style="fill:#6a9131"/><path d="M1253.92,324.67c-.43-6.21-3-7.81-3-7.81,4.68,1.8,6.16,7,6.16,7,.64-4.21,5.31-10.61,5.31-10.61-.85,7.8.43,11.41.43,11.41Z" style="fill:#6a9131"/><path d="M1261.25,324.71c-.9-13.88-6.27-17.46-6.27-17.46,9.85,4,13,15.67,13,15.67,1.34-9.4,11.19-23.72,11.19-23.72-1.79,17.45.9,25.51.9,25.51Z" style="fill:#6a9131"/><path d="M1141.56,205.86c42.61-29,84.09,5.83,84.09,5.83Z" style="opacity:0.15"/><path d="M1134.34,210c-37.38,36.16-24.87,71.85-24.87,71.85Z" style="opacity:0.15"/><path d="M1134.29,206.79c-53.13-12.15-73.88,14.43-73.88,14.43Z" style="opacity:0.15"/><path d="M1000.87,1192.4c20.91-163.33,14.7-204,14.7-204H1019c1.69,71.78,0,204.59,0,204.59Z" style="fill:url(#t)"/><path d="M1016.06,988.32c51.82-7.18,86.52,33.54,86.52,33.54Z" style="fill:url(#u)"/><path d="M1016.11,988.63c22.82-44.91,74.74-34.64,74.74-34.64Z" style="fill:url(#v)"/><path d="M1015.93,987.86c-31.83-35-76.87-35.7-76.87-35.7Z" style="fill:url(#w)"/><path d="M1013.87,988.37c-50.51,5.62-62.16,40.7-62.16,40.7Z" style="fill:url(#x)"/><path d="M1017.26,988.94c-17.52-50.3-50.3-53.69-50.3-53.69Z" style="fill:url(#y)"/><ellipse cx="955.63" cy="1135.08" rx="4.47" ry="72.63" transform="translate(-522.72 1008.19) rotate(-45)" style="opacity:0.15"/><path d="M983,1196.75c-.81-11.8-5.66-14.85-5.66-14.85,8.89,3.43,11.71,13.33,11.71,13.33,1.22-8,10.1-20.18,10.1-20.18-1.61,14.85.81,21.7.81,21.7Z" style="fill:#6a9131"/><path d="M996.93,1196.83c-1.7-26.39-11.92-33.2-11.92-33.2,18.73,7.66,24.69,29.8,24.69,29.8,2.55-17.88,21.28-45.12,21.28-45.12-3.4,33.2,1.71,48.52,1.71,48.52Z" style="fill:#6a9131"/><path d="M1017.53,1196.79c-.42-6.06-2.91-7.63-2.91-7.63,4.57,1.76,6,6.85,6,6.85.63-4.11,5.19-10.37,5.19-10.37-.83,7.63.42,11.15.42,11.15Z" style="fill:#6a9131"/><path d="M1024.69,1196.83c-.87-13.56-6.12-17.06-6.12-17.06,9.62,3.94,12.69,15.31,12.69,15.31,1.31-9.18,10.93-23.18,10.93-23.18-1.75,17.06.88,24.93.88,24.93Z" style="fill:#6a9131"/><path d="M907.72,1080.69c41.65-28.34,82.19,5.69,82.19,5.69Z" style="opacity:0.15"/><path d="M900.67,1084.73c-36.53,35.33-24.3,70.22-24.3,70.22Z" style="opacity:0.15"/><path d="M900.62,1081.6c-51.92-11.88-72.2,14.09-72.2,14.09Z" style="opacity:0.15"/><path d="M836.74,1285.94c27.83-217.4,19.55-271.56,19.55-271.56h4.52c2.25,95.53,0,272.31,0,272.31Z" style="fill:url(#z)"/><path d="M857,1014.31c69-9.56,115.17,44.64,115.17,44.64Z" style="fill:url(#aa)"/><path d="M857,1014.72c30.38-59.78,99.49-46.11,99.49-46.11Z" style="fill:url(#ab)"/><path d="M856.77,1013.69c-42.36-46.57-102.31-47.52-102.31-47.52Z" style="fill:url(#ac)"/><path d="M854,1014.38c-67.23,7.47-82.75,54.16-82.75,54.16Z" style="fill:url(#ad)"/><path d="M858.55,1015.13c-23.32-67-66.95-71.46-66.95-71.46Z" style="fill:url(#ae)"/><ellipse cx="776.52" cy="1209.64" rx="5.95" ry="96.67" transform="translate(-627.91 903.38) rotate(-45)" style="opacity:0.15"/><path d="M812.93,1291.73C811.85,1276,805.4,1272,805.4,1272c11.83,4.56,15.59,17.74,15.59,17.74,1.61-10.65,13.44-26.86,13.44-26.86-2.15,19.76,1.08,28.88,1.08,28.88Z" style="fill:#6a9131"/><path d="M831.48,1291.84c-2.26-35.12-15.86-44.19-15.86-44.19,24.93,10.2,32.86,39.66,32.86,39.66,3.4-23.8,28.33-60.06,28.33-60.06-4.53,44.2,2.27,64.59,2.27,64.59Z" style="fill:#6a9131"/><path d="M858.91,1291.79c-.56-8.08-3.87-10.16-3.87-10.16,6.08,2.35,8,9.12,8,9.12.83-5.47,6.91-13.81,6.91-13.81-1.11,10.16.55,14.85.55,14.85Z" style="fill:#6a9131"/><path d="M868.44,1291.84c-1.16-18-8.15-22.71-8.15-22.71,12.81,5.25,16.89,20.38,16.89,20.38,1.74-12.22,14.55-30.86,14.55-30.86-2.33,22.71,1.17,33.19,1.17,33.19Z" style="fill:#6a9131"/><path d="M712.75,1137.25c55.44-37.73,109.39,7.57,109.39,7.57Z" style="opacity:0.15"/><path d="M703.36,1142.63c-48.63,47-32.34,93.46-32.34,93.46Z" style="opacity:0.15"/><path d="M703.3,1138.46c-69.11-15.81-96.11,18.76-96.11,18.76Z" style="opacity:0.15"/></svg>